G04 EAGLE Gerber RS-274X export*
G75*
%MOMM*%
%FSLAX34Y34*%
%LPD*%
%INEAGLE Copper Layer 2*%
%IPPOS*%
%AMOC8*
5,1,8,0,0,1.08239X$1,22.5*%
G01*
%ADD10C,1.981200*%
%ADD11C,1.524000*%
%ADD12C,3.816000*%
%ADD13C,0.609600*%
%ADD14C,0.304800*%
%ADD15C,1.600200*%
%ADD16C,0.457200*%
%ADD17C,0.152400*%
%ADD18C,0.914400*%

G36*
X97051Y2044D02*
X97051Y2044D01*
X97119Y2045D01*
X97171Y2063D01*
X97227Y2072D01*
X97287Y2104D01*
X97351Y2127D01*
X97395Y2161D01*
X97444Y2188D01*
X97491Y2237D01*
X97544Y2279D01*
X97575Y2325D01*
X97613Y2366D01*
X97642Y2427D01*
X97679Y2484D01*
X97693Y2538D01*
X97717Y2589D01*
X97725Y2656D01*
X97742Y2722D01*
X97738Y2778D01*
X97744Y2833D01*
X97730Y2900D01*
X97725Y2967D01*
X97704Y3019D01*
X97692Y3074D01*
X97657Y3132D01*
X97631Y3195D01*
X97594Y3237D01*
X97566Y3285D01*
X97514Y3329D01*
X97470Y3380D01*
X97404Y3423D01*
X97379Y3445D01*
X97359Y3453D01*
X97330Y3472D01*
X96275Y4010D01*
X94981Y4950D01*
X93850Y6081D01*
X92910Y7375D01*
X92184Y8800D01*
X91689Y10321D01*
X91554Y11177D01*
X100838Y11177D01*
X100858Y11180D01*
X100877Y11178D01*
X100979Y11200D01*
X101081Y11217D01*
X101098Y11226D01*
X101118Y11230D01*
X101207Y11283D01*
X101298Y11332D01*
X101312Y11346D01*
X101329Y11356D01*
X101396Y11435D01*
X101467Y11510D01*
X101476Y11528D01*
X101489Y11543D01*
X101527Y11639D01*
X101571Y11733D01*
X101573Y11753D01*
X101581Y11771D01*
X101599Y11938D01*
X101599Y12701D01*
X101601Y12701D01*
X101601Y11938D01*
X101604Y11918D01*
X101602Y11899D01*
X101624Y11797D01*
X101641Y11695D01*
X101650Y11678D01*
X101654Y11658D01*
X101707Y11569D01*
X101756Y11478D01*
X101770Y11464D01*
X101780Y11447D01*
X101859Y11380D01*
X101934Y11309D01*
X101952Y11300D01*
X101967Y11287D01*
X102063Y11248D01*
X102157Y11205D01*
X102177Y11203D01*
X102195Y11195D01*
X102362Y11177D01*
X111646Y11177D01*
X111511Y10321D01*
X111016Y8800D01*
X110290Y7375D01*
X109350Y6081D01*
X108219Y4950D01*
X106925Y4010D01*
X105870Y3472D01*
X105816Y3432D01*
X105756Y3400D01*
X105717Y3360D01*
X105672Y3327D01*
X105633Y3271D01*
X105587Y3222D01*
X105563Y3171D01*
X105531Y3125D01*
X105512Y3061D01*
X105483Y2999D01*
X105477Y2943D01*
X105461Y2890D01*
X105463Y2822D01*
X105456Y2755D01*
X105468Y2700D01*
X105470Y2644D01*
X105494Y2580D01*
X105508Y2514D01*
X105537Y2466D01*
X105557Y2414D01*
X105600Y2361D01*
X105634Y2303D01*
X105677Y2267D01*
X105712Y2223D01*
X105770Y2187D01*
X105821Y2143D01*
X105873Y2122D01*
X105921Y2092D01*
X105986Y2077D01*
X106049Y2051D01*
X106128Y2043D01*
X106160Y2035D01*
X106181Y2037D01*
X106216Y2033D01*
X122384Y2033D01*
X122451Y2044D01*
X122519Y2045D01*
X122571Y2063D01*
X122627Y2072D01*
X122687Y2104D01*
X122751Y2127D01*
X122795Y2161D01*
X122844Y2188D01*
X122891Y2237D01*
X122944Y2279D01*
X122975Y2325D01*
X123013Y2366D01*
X123042Y2427D01*
X123079Y2484D01*
X123093Y2538D01*
X123117Y2589D01*
X123125Y2656D01*
X123142Y2722D01*
X123138Y2778D01*
X123144Y2833D01*
X123130Y2900D01*
X123125Y2967D01*
X123104Y3019D01*
X123092Y3074D01*
X123057Y3132D01*
X123031Y3195D01*
X122994Y3237D01*
X122966Y3285D01*
X122914Y3329D01*
X122870Y3380D01*
X122804Y3423D01*
X122779Y3445D01*
X122759Y3453D01*
X122730Y3472D01*
X121675Y4010D01*
X120381Y4950D01*
X119250Y6081D01*
X118310Y7375D01*
X117584Y8800D01*
X117089Y10321D01*
X116954Y11177D01*
X126238Y11177D01*
X126258Y11180D01*
X126277Y11178D01*
X126379Y11200D01*
X126481Y11217D01*
X126498Y11226D01*
X126518Y11230D01*
X126607Y11283D01*
X126698Y11332D01*
X126712Y11346D01*
X126729Y11356D01*
X126796Y11435D01*
X126867Y11510D01*
X126876Y11528D01*
X126889Y11543D01*
X126927Y11639D01*
X126971Y11733D01*
X126973Y11753D01*
X126981Y11771D01*
X126999Y11938D01*
X126999Y12701D01*
X127001Y12701D01*
X127001Y11938D01*
X127004Y11918D01*
X127002Y11899D01*
X127024Y11797D01*
X127041Y11695D01*
X127050Y11678D01*
X127054Y11658D01*
X127107Y11569D01*
X127156Y11478D01*
X127170Y11464D01*
X127180Y11447D01*
X127259Y11380D01*
X127334Y11309D01*
X127352Y11300D01*
X127367Y11287D01*
X127463Y11248D01*
X127557Y11205D01*
X127577Y11203D01*
X127595Y11195D01*
X127762Y11177D01*
X137046Y11177D01*
X136911Y10321D01*
X136416Y8800D01*
X135690Y7375D01*
X134750Y6081D01*
X133619Y4950D01*
X132325Y4010D01*
X131270Y3472D01*
X131216Y3432D01*
X131156Y3400D01*
X131117Y3360D01*
X131072Y3327D01*
X131033Y3271D01*
X130987Y3222D01*
X130963Y3171D01*
X130931Y3125D01*
X130912Y3061D01*
X130883Y2999D01*
X130877Y2943D01*
X130861Y2890D01*
X130863Y2822D01*
X130856Y2755D01*
X130868Y2700D01*
X130870Y2644D01*
X130894Y2580D01*
X130908Y2514D01*
X130937Y2466D01*
X130957Y2414D01*
X131000Y2361D01*
X131034Y2303D01*
X131077Y2267D01*
X131112Y2223D01*
X131170Y2187D01*
X131221Y2143D01*
X131273Y2122D01*
X131321Y2092D01*
X131386Y2077D01*
X131449Y2051D01*
X131528Y2043D01*
X131560Y2035D01*
X131581Y2037D01*
X131616Y2033D01*
X147784Y2033D01*
X147851Y2044D01*
X147919Y2045D01*
X147971Y2063D01*
X148027Y2072D01*
X148087Y2104D01*
X148151Y2127D01*
X148195Y2161D01*
X148244Y2188D01*
X148291Y2237D01*
X148344Y2279D01*
X148375Y2325D01*
X148413Y2366D01*
X148442Y2427D01*
X148479Y2484D01*
X148493Y2538D01*
X148517Y2589D01*
X148525Y2656D01*
X148542Y2722D01*
X148538Y2778D01*
X148544Y2833D01*
X148530Y2900D01*
X148525Y2967D01*
X148504Y3019D01*
X148492Y3074D01*
X148457Y3132D01*
X148431Y3195D01*
X148394Y3237D01*
X148366Y3285D01*
X148314Y3329D01*
X148270Y3380D01*
X148204Y3423D01*
X148179Y3445D01*
X148159Y3453D01*
X148130Y3472D01*
X147075Y4010D01*
X145781Y4950D01*
X144650Y6081D01*
X143710Y7375D01*
X142984Y8800D01*
X142489Y10321D01*
X142354Y11177D01*
X151638Y11177D01*
X151658Y11180D01*
X151677Y11178D01*
X151779Y11200D01*
X151881Y11217D01*
X151898Y11226D01*
X151918Y11230D01*
X152007Y11283D01*
X152098Y11332D01*
X152112Y11346D01*
X152129Y11356D01*
X152196Y11435D01*
X152267Y11510D01*
X152276Y11528D01*
X152289Y11543D01*
X152327Y11639D01*
X152371Y11733D01*
X152373Y11753D01*
X152381Y11771D01*
X152399Y11938D01*
X152399Y12701D01*
X152401Y12701D01*
X152401Y11938D01*
X152404Y11918D01*
X152402Y11899D01*
X152424Y11797D01*
X152441Y11695D01*
X152450Y11678D01*
X152454Y11658D01*
X152507Y11569D01*
X152556Y11478D01*
X152570Y11464D01*
X152580Y11447D01*
X152659Y11380D01*
X152734Y11309D01*
X152752Y11300D01*
X152767Y11287D01*
X152863Y11248D01*
X152957Y11205D01*
X152977Y11203D01*
X152995Y11195D01*
X153162Y11177D01*
X162446Y11177D01*
X162311Y10321D01*
X161816Y8800D01*
X161090Y7375D01*
X160150Y6081D01*
X159019Y4950D01*
X157725Y4010D01*
X156670Y3472D01*
X156616Y3432D01*
X156556Y3400D01*
X156517Y3360D01*
X156472Y3327D01*
X156433Y3271D01*
X156387Y3222D01*
X156363Y3171D01*
X156331Y3125D01*
X156312Y3061D01*
X156283Y2999D01*
X156277Y2943D01*
X156261Y2890D01*
X156263Y2822D01*
X156256Y2755D01*
X156268Y2700D01*
X156270Y2644D01*
X156294Y2580D01*
X156308Y2514D01*
X156337Y2466D01*
X156357Y2414D01*
X156400Y2361D01*
X156434Y2303D01*
X156477Y2267D01*
X156512Y2223D01*
X156570Y2187D01*
X156621Y2143D01*
X156673Y2122D01*
X156721Y2092D01*
X156786Y2077D01*
X156849Y2051D01*
X156928Y2043D01*
X156960Y2035D01*
X156981Y2037D01*
X157016Y2033D01*
X173184Y2033D01*
X173251Y2044D01*
X173319Y2045D01*
X173371Y2063D01*
X173427Y2072D01*
X173487Y2104D01*
X173551Y2127D01*
X173595Y2161D01*
X173644Y2188D01*
X173691Y2237D01*
X173744Y2279D01*
X173775Y2325D01*
X173813Y2366D01*
X173842Y2427D01*
X173879Y2484D01*
X173893Y2538D01*
X173917Y2589D01*
X173925Y2656D01*
X173942Y2722D01*
X173938Y2778D01*
X173944Y2833D01*
X173930Y2900D01*
X173925Y2967D01*
X173904Y3019D01*
X173892Y3074D01*
X173857Y3132D01*
X173831Y3195D01*
X173794Y3237D01*
X173766Y3285D01*
X173714Y3329D01*
X173670Y3380D01*
X173604Y3423D01*
X173579Y3445D01*
X173559Y3453D01*
X173530Y3472D01*
X172475Y4010D01*
X171181Y4950D01*
X170050Y6081D01*
X169110Y7375D01*
X168384Y8800D01*
X167889Y10321D01*
X167754Y11177D01*
X177038Y11177D01*
X177058Y11180D01*
X177077Y11178D01*
X177179Y11200D01*
X177281Y11217D01*
X177298Y11226D01*
X177318Y11230D01*
X177407Y11283D01*
X177498Y11332D01*
X177512Y11346D01*
X177529Y11356D01*
X177596Y11435D01*
X177667Y11510D01*
X177676Y11528D01*
X177689Y11543D01*
X177727Y11639D01*
X177771Y11733D01*
X177773Y11753D01*
X177781Y11771D01*
X177799Y11938D01*
X177799Y12701D01*
X177801Y12701D01*
X177801Y11938D01*
X177804Y11918D01*
X177802Y11899D01*
X177824Y11797D01*
X177841Y11695D01*
X177850Y11678D01*
X177854Y11658D01*
X177907Y11569D01*
X177956Y11478D01*
X177970Y11464D01*
X177980Y11447D01*
X178059Y11380D01*
X178134Y11309D01*
X178152Y11300D01*
X178167Y11287D01*
X178263Y11248D01*
X178357Y11205D01*
X178377Y11203D01*
X178395Y11195D01*
X178562Y11177D01*
X187846Y11177D01*
X187711Y10321D01*
X187216Y8800D01*
X186490Y7375D01*
X185550Y6081D01*
X184419Y4950D01*
X183125Y4010D01*
X182070Y3472D01*
X182016Y3432D01*
X181956Y3400D01*
X181917Y3360D01*
X181872Y3327D01*
X181833Y3271D01*
X181787Y3222D01*
X181763Y3171D01*
X181731Y3125D01*
X181712Y3061D01*
X181683Y2999D01*
X181677Y2943D01*
X181661Y2890D01*
X181663Y2822D01*
X181656Y2755D01*
X181668Y2700D01*
X181670Y2644D01*
X181694Y2580D01*
X181708Y2514D01*
X181737Y2466D01*
X181757Y2414D01*
X181800Y2361D01*
X181834Y2303D01*
X181877Y2267D01*
X181912Y2223D01*
X181970Y2187D01*
X182021Y2143D01*
X182073Y2122D01*
X182121Y2092D01*
X182186Y2077D01*
X182249Y2051D01*
X182328Y2043D01*
X182360Y2035D01*
X182381Y2037D01*
X182416Y2033D01*
X198584Y2033D01*
X198651Y2044D01*
X198719Y2045D01*
X198771Y2063D01*
X198827Y2072D01*
X198887Y2104D01*
X198951Y2127D01*
X198995Y2161D01*
X199044Y2188D01*
X199091Y2237D01*
X199144Y2279D01*
X199175Y2325D01*
X199213Y2366D01*
X199242Y2427D01*
X199279Y2484D01*
X199293Y2538D01*
X199317Y2589D01*
X199325Y2656D01*
X199342Y2722D01*
X199338Y2778D01*
X199344Y2833D01*
X199330Y2900D01*
X199325Y2967D01*
X199304Y3019D01*
X199292Y3074D01*
X199257Y3132D01*
X199231Y3195D01*
X199194Y3237D01*
X199166Y3285D01*
X199114Y3329D01*
X199070Y3380D01*
X199004Y3423D01*
X198979Y3445D01*
X198959Y3453D01*
X198930Y3472D01*
X197875Y4010D01*
X196581Y4950D01*
X195450Y6081D01*
X194510Y7375D01*
X193784Y8800D01*
X193289Y10321D01*
X193154Y11177D01*
X202438Y11177D01*
X202458Y11180D01*
X202477Y11178D01*
X202579Y11200D01*
X202681Y11217D01*
X202698Y11226D01*
X202718Y11230D01*
X202807Y11283D01*
X202898Y11332D01*
X202912Y11346D01*
X202929Y11356D01*
X202996Y11435D01*
X203067Y11510D01*
X203076Y11528D01*
X203089Y11543D01*
X203127Y11639D01*
X203171Y11733D01*
X203173Y11753D01*
X203181Y11771D01*
X203199Y11938D01*
X203199Y12701D01*
X203201Y12701D01*
X203201Y11938D01*
X203204Y11918D01*
X203202Y11899D01*
X203224Y11797D01*
X203241Y11695D01*
X203250Y11678D01*
X203254Y11658D01*
X203307Y11569D01*
X203356Y11478D01*
X203370Y11464D01*
X203380Y11447D01*
X203459Y11380D01*
X203534Y11309D01*
X203552Y11300D01*
X203567Y11287D01*
X203663Y11248D01*
X203757Y11205D01*
X203777Y11203D01*
X203795Y11195D01*
X203962Y11177D01*
X213246Y11177D01*
X213111Y10321D01*
X212616Y8800D01*
X211890Y7375D01*
X210950Y6081D01*
X209819Y4950D01*
X208525Y4010D01*
X207470Y3472D01*
X207416Y3432D01*
X207356Y3400D01*
X207317Y3360D01*
X207272Y3327D01*
X207233Y3271D01*
X207187Y3222D01*
X207163Y3171D01*
X207131Y3125D01*
X207112Y3061D01*
X207083Y2999D01*
X207077Y2943D01*
X207061Y2890D01*
X207063Y2822D01*
X207056Y2755D01*
X207068Y2700D01*
X207070Y2644D01*
X207094Y2580D01*
X207108Y2514D01*
X207137Y2466D01*
X207157Y2414D01*
X207200Y2361D01*
X207234Y2303D01*
X207277Y2267D01*
X207312Y2223D01*
X207370Y2187D01*
X207421Y2143D01*
X207473Y2122D01*
X207521Y2092D01*
X207586Y2077D01*
X207649Y2051D01*
X207728Y2043D01*
X207760Y2035D01*
X207781Y2037D01*
X207816Y2033D01*
X698500Y2033D01*
X698522Y2036D01*
X698560Y2035D01*
X703089Y2392D01*
X703095Y2393D01*
X703101Y2393D01*
X703265Y2426D01*
X711881Y5226D01*
X711913Y5242D01*
X711947Y5251D01*
X712093Y5334D01*
X719422Y10659D01*
X719448Y10685D01*
X719478Y10704D01*
X719591Y10828D01*
X724916Y18157D01*
X724932Y18189D01*
X724955Y18216D01*
X725024Y18369D01*
X727824Y26985D01*
X727824Y26991D01*
X727827Y26996D01*
X727858Y27161D01*
X728215Y31690D01*
X728213Y31712D01*
X728217Y31750D01*
X728217Y222250D01*
X728214Y222272D01*
X728215Y222310D01*
X727858Y226839D01*
X727857Y226845D01*
X727857Y226851D01*
X727824Y227015D01*
X725024Y235631D01*
X725008Y235663D01*
X724999Y235697D01*
X724916Y235843D01*
X719591Y243172D01*
X719565Y243198D01*
X719546Y243228D01*
X719422Y243341D01*
X712093Y248666D01*
X712061Y248682D01*
X712034Y248705D01*
X711881Y248774D01*
X703265Y251574D01*
X703259Y251574D01*
X703254Y251577D01*
X703089Y251608D01*
X698560Y251965D01*
X698538Y251963D01*
X698500Y251967D01*
X525316Y251967D01*
X525249Y251956D01*
X525181Y251955D01*
X525129Y251937D01*
X525073Y251928D01*
X525013Y251896D01*
X524949Y251873D01*
X524905Y251839D01*
X524856Y251812D01*
X524809Y251763D01*
X524756Y251721D01*
X524725Y251675D01*
X524687Y251634D01*
X524658Y251573D01*
X524621Y251516D01*
X524607Y251462D01*
X524583Y251411D01*
X524575Y251344D01*
X524558Y251278D01*
X524562Y251222D01*
X524556Y251167D01*
X524570Y251100D01*
X524575Y251033D01*
X524596Y250981D01*
X524608Y250926D01*
X524643Y250868D01*
X524669Y250805D01*
X524706Y250763D01*
X524734Y250715D01*
X524786Y250671D01*
X524830Y250620D01*
X524896Y250577D01*
X524921Y250555D01*
X524941Y250547D01*
X524970Y250528D01*
X526025Y249990D01*
X527319Y249050D01*
X528450Y247919D01*
X529390Y246625D01*
X530116Y245200D01*
X530611Y243679D01*
X530746Y242823D01*
X521462Y242823D01*
X521442Y242820D01*
X521423Y242822D01*
X521321Y242800D01*
X521219Y242783D01*
X521202Y242774D01*
X521182Y242770D01*
X521093Y242717D01*
X521002Y242668D01*
X520988Y242654D01*
X520971Y242644D01*
X520904Y242565D01*
X520833Y242490D01*
X520824Y242472D01*
X520811Y242457D01*
X520773Y242361D01*
X520729Y242267D01*
X520727Y242247D01*
X520719Y242229D01*
X520701Y242062D01*
X520701Y241299D01*
X520699Y241299D01*
X520699Y242062D01*
X520696Y242082D01*
X520698Y242101D01*
X520676Y242203D01*
X520659Y242305D01*
X520650Y242322D01*
X520646Y242342D01*
X520593Y242431D01*
X520544Y242522D01*
X520530Y242536D01*
X520520Y242553D01*
X520441Y242620D01*
X520366Y242691D01*
X520348Y242700D01*
X520333Y242713D01*
X520237Y242752D01*
X520143Y242795D01*
X520123Y242797D01*
X520105Y242805D01*
X519938Y242823D01*
X510654Y242823D01*
X510789Y243679D01*
X511284Y245200D01*
X512010Y246625D01*
X512950Y247919D01*
X514081Y249050D01*
X515375Y249990D01*
X516430Y250528D01*
X516484Y250568D01*
X516544Y250600D01*
X516583Y250640D01*
X516628Y250673D01*
X516667Y250729D01*
X516713Y250778D01*
X516737Y250829D01*
X516769Y250875D01*
X516788Y250939D01*
X516817Y251001D01*
X516823Y251057D01*
X516839Y251110D01*
X516837Y251178D01*
X516844Y251245D01*
X516832Y251300D01*
X516830Y251356D01*
X516806Y251420D01*
X516792Y251486D01*
X516763Y251534D01*
X516743Y251586D01*
X516700Y251639D01*
X516666Y251697D01*
X516623Y251733D01*
X516588Y251777D01*
X516530Y251813D01*
X516479Y251857D01*
X516427Y251878D01*
X516379Y251908D01*
X516314Y251923D01*
X516251Y251949D01*
X516172Y251957D01*
X516140Y251965D01*
X516119Y251963D01*
X516084Y251967D01*
X31750Y251967D01*
X31728Y251964D01*
X31690Y251965D01*
X27161Y251608D01*
X27155Y251607D01*
X27149Y251607D01*
X26985Y251574D01*
X18369Y248774D01*
X18337Y248758D01*
X18303Y248749D01*
X18157Y248666D01*
X10828Y243341D01*
X10802Y243315D01*
X10772Y243296D01*
X10659Y243172D01*
X5334Y235843D01*
X5318Y235811D01*
X5295Y235784D01*
X5226Y235631D01*
X2426Y227015D01*
X2426Y227009D01*
X2423Y227004D01*
X2392Y226839D01*
X2035Y222310D01*
X2037Y222288D01*
X2033Y222250D01*
X2033Y31750D01*
X2036Y31728D01*
X2035Y31690D01*
X2392Y27161D01*
X2393Y27155D01*
X2393Y27149D01*
X2426Y26985D01*
X5226Y18369D01*
X5242Y18337D01*
X5251Y18303D01*
X5334Y18157D01*
X10659Y10828D01*
X10685Y10802D01*
X10704Y10772D01*
X10828Y10659D01*
X18157Y5334D01*
X18189Y5318D01*
X18216Y5295D01*
X18369Y5226D01*
X26985Y2426D01*
X26991Y2426D01*
X26996Y2423D01*
X27161Y2392D01*
X31690Y2035D01*
X31712Y2037D01*
X31750Y2033D01*
X96984Y2033D01*
X97051Y2044D01*
G37*
%LPC*%
G36*
X601461Y59181D02*
X601461Y59181D01*
X598931Y61711D01*
X598931Y65289D01*
X601461Y67819D01*
X603840Y67819D01*
X603930Y67833D01*
X604021Y67841D01*
X604051Y67853D01*
X604083Y67858D01*
X604163Y67901D01*
X604247Y67937D01*
X604279Y67963D01*
X604300Y67974D01*
X604322Y67997D01*
X604378Y68042D01*
X606963Y70627D01*
X607016Y70701D01*
X607076Y70770D01*
X607088Y70800D01*
X607107Y70827D01*
X607134Y70914D01*
X607168Y70998D01*
X607172Y71039D01*
X607179Y71062D01*
X607178Y71094D01*
X607186Y71165D01*
X607186Y91241D01*
X607175Y91312D01*
X607173Y91383D01*
X607155Y91432D01*
X607147Y91484D01*
X607113Y91547D01*
X607088Y91614D01*
X607056Y91655D01*
X607031Y91701D01*
X606979Y91750D01*
X606935Y91806D01*
X606891Y91834D01*
X606853Y91870D01*
X606788Y91901D01*
X606728Y91939D01*
X606677Y91952D01*
X606630Y91974D01*
X606559Y91982D01*
X606489Y91999D01*
X606437Y91995D01*
X606386Y92001D01*
X606315Y91986D01*
X606244Y91980D01*
X606196Y91960D01*
X606145Y91949D01*
X606084Y91912D01*
X606018Y91884D01*
X605962Y91839D01*
X605934Y91823D01*
X605919Y91805D01*
X605887Y91779D01*
X605039Y90931D01*
X601461Y90931D01*
X598931Y93461D01*
X598931Y97039D01*
X600613Y98721D01*
X600666Y98795D01*
X600726Y98864D01*
X600738Y98894D01*
X600757Y98921D01*
X600784Y99008D01*
X600818Y99092D01*
X600822Y99133D01*
X600829Y99156D01*
X600828Y99188D01*
X600836Y99259D01*
X600836Y205541D01*
X600822Y205631D01*
X600814Y205722D01*
X600802Y205752D01*
X600797Y205784D01*
X600754Y205864D01*
X600718Y205948D01*
X600692Y205980D01*
X600681Y206001D01*
X600658Y206023D01*
X600613Y206079D01*
X598931Y207761D01*
X598931Y211339D01*
X601461Y213869D01*
X605039Y213869D01*
X607569Y211339D01*
X607569Y207761D01*
X605887Y206079D01*
X605834Y206005D01*
X605774Y205936D01*
X605762Y205906D01*
X605743Y205879D01*
X605716Y205792D01*
X605682Y205708D01*
X605678Y205667D01*
X605671Y205644D01*
X605672Y205612D01*
X605664Y205541D01*
X605664Y187859D01*
X605675Y187788D01*
X605677Y187717D01*
X605695Y187668D01*
X605703Y187616D01*
X605737Y187553D01*
X605762Y187486D01*
X605794Y187445D01*
X605819Y187399D01*
X605871Y187350D01*
X605915Y187294D01*
X605959Y187266D01*
X605997Y187230D01*
X606062Y187199D01*
X606122Y187161D01*
X606173Y187148D01*
X606220Y187126D01*
X606291Y187118D01*
X606361Y187101D01*
X606413Y187105D01*
X606464Y187099D01*
X606535Y187114D01*
X606606Y187120D01*
X606654Y187140D01*
X606705Y187151D01*
X606766Y187188D01*
X606832Y187216D01*
X606888Y187261D01*
X606916Y187277D01*
X606931Y187295D01*
X606963Y187321D01*
X607811Y188169D01*
X611389Y188169D01*
X613919Y185639D01*
X613919Y182061D01*
X612237Y180379D01*
X612184Y180305D01*
X612124Y180236D01*
X612112Y180206D01*
X612093Y180179D01*
X612066Y180092D01*
X612032Y180008D01*
X612028Y179967D01*
X612021Y179944D01*
X612022Y179912D01*
X612014Y179841D01*
X612014Y68850D01*
X607792Y64628D01*
X607739Y64554D01*
X607679Y64485D01*
X607667Y64455D01*
X607648Y64428D01*
X607621Y64341D01*
X607587Y64257D01*
X607583Y64216D01*
X607576Y64193D01*
X607577Y64161D01*
X607569Y64090D01*
X607569Y61711D01*
X605039Y59181D01*
X601461Y59181D01*
G37*
%LPD*%
%LPC*%
G36*
X620511Y40131D02*
X620511Y40131D01*
X617981Y42661D01*
X617981Y46239D01*
X619663Y47921D01*
X619716Y47995D01*
X619776Y48064D01*
X619788Y48094D01*
X619807Y48121D01*
X619834Y48208D01*
X619844Y48234D01*
X619858Y48264D01*
X619859Y48270D01*
X619868Y48292D01*
X619872Y48333D01*
X619879Y48356D01*
X619878Y48388D01*
X619886Y48459D01*
X619886Y77200D01*
X675886Y133200D01*
X675929Y133260D01*
X675968Y133301D01*
X675984Y133334D01*
X676024Y133388D01*
X676026Y133394D01*
X676030Y133400D01*
X676060Y133499D01*
X676072Y133524D01*
X676074Y133541D01*
X676100Y133622D01*
X676100Y133629D01*
X676102Y133635D01*
X676099Y133751D01*
X676099Y133767D01*
X676099Y133768D01*
X676099Y133769D01*
X676098Y133868D01*
X676096Y133875D01*
X676096Y133880D01*
X676089Y133898D01*
X676051Y134029D01*
X674623Y137477D01*
X674623Y141923D01*
X676325Y146031D01*
X679469Y149175D01*
X683577Y150877D01*
X688023Y150877D01*
X692131Y149175D01*
X695275Y146031D01*
X696977Y141923D01*
X696977Y137477D01*
X695275Y133369D01*
X692131Y130225D01*
X688023Y128523D01*
X683577Y128523D01*
X680129Y129951D01*
X680016Y129978D01*
X679902Y130006D01*
X679896Y130006D01*
X679890Y130007D01*
X679773Y129996D01*
X679657Y129987D01*
X679651Y129985D01*
X679645Y129984D01*
X679537Y129936D01*
X679431Y129891D01*
X679425Y129886D01*
X679420Y129884D01*
X679407Y129872D01*
X679300Y129786D01*
X624937Y75423D01*
X624884Y75349D01*
X624824Y75280D01*
X624812Y75250D01*
X624793Y75223D01*
X624766Y75136D01*
X624732Y75052D01*
X624728Y75011D01*
X624721Y74988D01*
X624722Y74956D01*
X624714Y74885D01*
X624714Y48459D01*
X624716Y48443D01*
X624715Y48429D01*
X624729Y48365D01*
X624736Y48278D01*
X624748Y48248D01*
X624753Y48216D01*
X624766Y48192D01*
X624767Y48189D01*
X624775Y48176D01*
X624796Y48136D01*
X624832Y48052D01*
X624858Y48020D01*
X624869Y47999D01*
X624892Y47977D01*
X624937Y47921D01*
X626619Y46239D01*
X626619Y42661D01*
X624089Y40131D01*
X620511Y40131D01*
G37*
%LPD*%
%LPC*%
G36*
X347777Y72643D02*
X347777Y72643D01*
X345693Y74727D01*
X345693Y77673D01*
X347375Y79355D01*
X347428Y79429D01*
X347488Y79499D01*
X347500Y79529D01*
X347519Y79555D01*
X347546Y79642D01*
X347580Y79727D01*
X347584Y79768D01*
X347591Y79790D01*
X347590Y79822D01*
X347598Y79894D01*
X347598Y208550D01*
X347584Y208641D01*
X347576Y208731D01*
X347564Y208761D01*
X347559Y208793D01*
X347516Y208874D01*
X347480Y208958D01*
X347454Y208990D01*
X347443Y209011D01*
X347420Y209033D01*
X347375Y209089D01*
X323013Y233451D01*
X322919Y233519D01*
X322824Y233589D01*
X322818Y233591D01*
X322813Y233595D01*
X322702Y233629D01*
X322590Y233666D01*
X322584Y233666D01*
X322578Y233667D01*
X322461Y233664D01*
X322344Y233663D01*
X322337Y233661D01*
X322332Y233661D01*
X322314Y233655D01*
X322183Y233617D01*
X319268Y232409D01*
X315732Y232409D01*
X312464Y233763D01*
X309963Y236264D01*
X308609Y239532D01*
X308609Y243068D01*
X309963Y246336D01*
X312464Y248837D01*
X315732Y250191D01*
X319268Y250191D01*
X322536Y248837D01*
X325037Y246336D01*
X326391Y243068D01*
X326391Y239532D01*
X325183Y236617D01*
X325157Y236503D01*
X325128Y236390D01*
X325129Y236384D01*
X325127Y236378D01*
X325138Y236261D01*
X325147Y236145D01*
X325150Y236139D01*
X325150Y236133D01*
X325198Y236025D01*
X325244Y235918D01*
X325248Y235913D01*
X325250Y235908D01*
X325263Y235894D01*
X325349Y235787D01*
X350902Y210234D01*
X350902Y79894D01*
X350916Y79803D01*
X350924Y79713D01*
X350936Y79683D01*
X350941Y79651D01*
X350984Y79570D01*
X351020Y79486D01*
X351046Y79454D01*
X351057Y79433D01*
X351080Y79411D01*
X351125Y79355D01*
X352807Y77673D01*
X352807Y74727D01*
X350723Y72643D01*
X347777Y72643D01*
G37*
%LPD*%
%LPC*%
G36*
X423661Y122681D02*
X423661Y122681D01*
X421131Y125211D01*
X421131Y128789D01*
X422813Y130471D01*
X422866Y130545D01*
X422926Y130614D01*
X422938Y130644D01*
X422957Y130671D01*
X422984Y130758D01*
X423018Y130842D01*
X423022Y130883D01*
X423029Y130906D01*
X423028Y130938D01*
X423036Y131009D01*
X423036Y230941D01*
X423022Y231031D01*
X423014Y231122D01*
X423002Y231152D01*
X422997Y231184D01*
X422954Y231264D01*
X422918Y231348D01*
X422892Y231380D01*
X422881Y231401D01*
X422858Y231423D01*
X422813Y231479D01*
X421131Y233161D01*
X421131Y236739D01*
X423661Y239269D01*
X427239Y239269D01*
X429769Y236739D01*
X429769Y233161D01*
X428087Y231479D01*
X428034Y231405D01*
X427974Y231336D01*
X427962Y231306D01*
X427943Y231279D01*
X427916Y231192D01*
X427882Y231108D01*
X427878Y231067D01*
X427871Y231044D01*
X427872Y231012D01*
X427864Y230941D01*
X427864Y156409D01*
X427875Y156338D01*
X427877Y156267D01*
X427895Y156218D01*
X427903Y156166D01*
X427937Y156103D01*
X427962Y156036D01*
X427994Y155995D01*
X428019Y155949D01*
X428071Y155900D01*
X428115Y155844D01*
X428159Y155816D01*
X428197Y155780D01*
X428262Y155749D01*
X428322Y155711D01*
X428373Y155698D01*
X428420Y155676D01*
X428491Y155668D01*
X428561Y155651D01*
X428613Y155655D01*
X428664Y155649D01*
X428735Y155664D01*
X428806Y155670D01*
X428854Y155690D01*
X428905Y155701D01*
X428966Y155738D01*
X429032Y155766D01*
X429088Y155811D01*
X429116Y155827D01*
X429131Y155845D01*
X429163Y155871D01*
X430011Y156719D01*
X433589Y156719D01*
X436119Y154189D01*
X436119Y150611D01*
X433589Y148081D01*
X430011Y148081D01*
X429163Y148929D01*
X429105Y148971D01*
X429053Y149020D01*
X429006Y149042D01*
X428964Y149073D01*
X428895Y149094D01*
X428830Y149124D01*
X428778Y149130D01*
X428728Y149145D01*
X428657Y149143D01*
X428586Y149151D01*
X428535Y149140D01*
X428483Y149139D01*
X428415Y149114D01*
X428345Y149099D01*
X428300Y149072D01*
X428252Y149054D01*
X428196Y149009D01*
X428134Y148973D01*
X428100Y148933D01*
X428060Y148901D01*
X428021Y148840D01*
X427974Y148786D01*
X427955Y148737D01*
X427927Y148694D01*
X427909Y148624D01*
X427882Y148558D01*
X427874Y148486D01*
X427866Y148455D01*
X427868Y148432D01*
X427864Y148391D01*
X427864Y131009D01*
X427878Y130919D01*
X427886Y130828D01*
X427898Y130798D01*
X427903Y130766D01*
X427946Y130686D01*
X427982Y130602D01*
X428008Y130570D01*
X428019Y130549D01*
X428042Y130527D01*
X428087Y130471D01*
X429769Y128789D01*
X429769Y125211D01*
X427239Y122681D01*
X423661Y122681D01*
G37*
%LPD*%
%LPC*%
G36*
X582411Y71881D02*
X582411Y71881D01*
X579881Y74411D01*
X579881Y77989D01*
X581563Y79671D01*
X581616Y79745D01*
X581676Y79814D01*
X581688Y79844D01*
X581707Y79871D01*
X581734Y79958D01*
X581768Y80042D01*
X581772Y80083D01*
X581779Y80106D01*
X581778Y80138D01*
X581786Y80209D01*
X581786Y192841D01*
X581772Y192931D01*
X581764Y193022D01*
X581752Y193052D01*
X581747Y193084D01*
X581704Y193164D01*
X581668Y193248D01*
X581642Y193280D01*
X581631Y193301D01*
X581608Y193323D01*
X581563Y193379D01*
X579881Y195061D01*
X579881Y198639D01*
X582411Y201169D01*
X585989Y201169D01*
X588519Y198639D01*
X588519Y195061D01*
X586837Y193379D01*
X586784Y193305D01*
X586724Y193236D01*
X586712Y193206D01*
X586693Y193179D01*
X586666Y193092D01*
X586632Y193008D01*
X586628Y192967D01*
X586621Y192944D01*
X586622Y192912D01*
X586614Y192841D01*
X586614Y80209D01*
X586628Y80119D01*
X586636Y80028D01*
X586648Y79998D01*
X586653Y79966D01*
X586696Y79886D01*
X586732Y79802D01*
X586758Y79770D01*
X586769Y79749D01*
X586792Y79727D01*
X586837Y79671D01*
X588519Y77989D01*
X588519Y74411D01*
X585989Y71881D01*
X582411Y71881D01*
G37*
%LPD*%
%LPC*%
G36*
X569711Y71881D02*
X569711Y71881D01*
X567181Y74411D01*
X567181Y77989D01*
X568863Y79671D01*
X568916Y79745D01*
X568976Y79814D01*
X568988Y79844D01*
X569007Y79871D01*
X569034Y79958D01*
X569068Y80042D01*
X569072Y80083D01*
X569079Y80106D01*
X569078Y80138D01*
X569086Y80209D01*
X569086Y176185D01*
X569072Y176275D01*
X569064Y176366D01*
X569052Y176396D01*
X569047Y176428D01*
X569004Y176508D01*
X568968Y176592D01*
X568942Y176624D01*
X568931Y176645D01*
X568908Y176667D01*
X568863Y176723D01*
X566278Y179308D01*
X566204Y179361D01*
X566135Y179421D01*
X566105Y179433D01*
X566078Y179452D01*
X565991Y179479D01*
X565907Y179513D01*
X565866Y179517D01*
X565843Y179524D01*
X565811Y179523D01*
X565740Y179531D01*
X563361Y179531D01*
X560831Y182061D01*
X560831Y185639D01*
X563361Y188169D01*
X566939Y188169D01*
X569469Y185639D01*
X569469Y183260D01*
X569483Y183170D01*
X569491Y183079D01*
X569503Y183049D01*
X569508Y183017D01*
X569551Y182937D01*
X569587Y182853D01*
X569613Y182821D01*
X569624Y182800D01*
X569647Y182778D01*
X569692Y182722D01*
X573914Y178500D01*
X573914Y80209D01*
X573928Y80119D01*
X573936Y80028D01*
X573948Y79998D01*
X573953Y79966D01*
X573996Y79886D01*
X574032Y79802D01*
X574058Y79770D01*
X574069Y79749D01*
X574092Y79727D01*
X574137Y79671D01*
X575819Y77989D01*
X575819Y74411D01*
X573289Y71881D01*
X569711Y71881D01*
G37*
%LPD*%
%LPC*%
G36*
X683577Y103123D02*
X683577Y103123D01*
X679469Y104825D01*
X676325Y107969D01*
X674623Y112077D01*
X674623Y116523D01*
X676325Y120631D01*
X679469Y123775D01*
X683577Y125477D01*
X688023Y125477D01*
X692131Y123775D01*
X695275Y120631D01*
X696977Y116523D01*
X696977Y112077D01*
X695275Y107969D01*
X692131Y104825D01*
X688023Y103123D01*
X683577Y103123D01*
G37*
%LPD*%
%LPC*%
G36*
X23177Y103123D02*
X23177Y103123D01*
X19069Y104825D01*
X15925Y107969D01*
X14223Y112077D01*
X14223Y116523D01*
X15925Y120631D01*
X19069Y123775D01*
X23177Y125477D01*
X27623Y125477D01*
X31731Y123775D01*
X34875Y120631D01*
X36577Y116523D01*
X36577Y112077D01*
X34875Y107969D01*
X31731Y104825D01*
X27623Y103123D01*
X23177Y103123D01*
G37*
%LPD*%
%LPC*%
G36*
X683577Y153923D02*
X683577Y153923D01*
X679469Y155625D01*
X676325Y158769D01*
X674623Y162877D01*
X674623Y167323D01*
X676325Y171431D01*
X679469Y174575D01*
X683577Y176277D01*
X688023Y176277D01*
X692131Y174575D01*
X695275Y171431D01*
X696977Y167323D01*
X696977Y162877D01*
X695275Y158769D01*
X692131Y155625D01*
X688023Y153923D01*
X683577Y153923D01*
G37*
%LPD*%
%LPC*%
G36*
X410961Y186181D02*
X410961Y186181D01*
X408431Y188711D01*
X408431Y192289D01*
X410113Y193971D01*
X410166Y194045D01*
X410226Y194114D01*
X410238Y194144D01*
X410257Y194171D01*
X410284Y194258D01*
X410318Y194342D01*
X410322Y194383D01*
X410329Y194406D01*
X410328Y194438D01*
X410336Y194509D01*
X410336Y237291D01*
X410335Y237298D01*
X410334Y237302D01*
X410322Y237381D01*
X410314Y237472D01*
X410302Y237502D01*
X410297Y237534D01*
X410254Y237614D01*
X410218Y237698D01*
X410192Y237730D01*
X410181Y237751D01*
X410158Y237773D01*
X410113Y237829D01*
X408431Y239511D01*
X408431Y243089D01*
X410961Y245619D01*
X414539Y245619D01*
X417069Y243089D01*
X417069Y239511D01*
X415387Y237829D01*
X415334Y237755D01*
X415274Y237686D01*
X415262Y237656D01*
X415243Y237629D01*
X415216Y237542D01*
X415182Y237458D01*
X415178Y237417D01*
X415171Y237394D01*
X415172Y237362D01*
X415164Y237291D01*
X415164Y194509D01*
X415178Y194419D01*
X415186Y194328D01*
X415198Y194298D01*
X415203Y194266D01*
X415246Y194186D01*
X415282Y194102D01*
X415308Y194070D01*
X415319Y194049D01*
X415342Y194027D01*
X415387Y193971D01*
X417069Y192289D01*
X417069Y188711D01*
X414539Y186181D01*
X410961Y186181D01*
G37*
%LPD*%
%LPC*%
G36*
X700023Y33273D02*
X700023Y33273D01*
X700023Y53357D01*
X702727Y53001D01*
X705465Y52267D01*
X708083Y51183D01*
X710538Y49766D01*
X712786Y48040D01*
X714790Y46036D01*
X716516Y43788D01*
X717933Y41333D01*
X719017Y38715D01*
X719751Y35977D01*
X720107Y33273D01*
X700023Y33273D01*
G37*
%LPD*%
%LPC*%
G36*
X33273Y223773D02*
X33273Y223773D01*
X33273Y243857D01*
X35977Y243501D01*
X38715Y242767D01*
X41333Y241683D01*
X43788Y240266D01*
X46036Y238540D01*
X48040Y236536D01*
X49766Y234288D01*
X51183Y231833D01*
X52267Y229215D01*
X53001Y226477D01*
X53357Y223773D01*
X33273Y223773D01*
G37*
%LPD*%
%LPC*%
G36*
X33273Y220727D02*
X33273Y220727D01*
X53357Y220727D01*
X53001Y218023D01*
X52267Y215285D01*
X51183Y212667D01*
X49766Y210212D01*
X48040Y207964D01*
X46036Y205960D01*
X43788Y204234D01*
X41333Y202817D01*
X38715Y201733D01*
X35977Y200999D01*
X33273Y200643D01*
X33273Y220727D01*
G37*
%LPD*%
%LPC*%
G36*
X700023Y30227D02*
X700023Y30227D01*
X720107Y30227D01*
X719751Y27523D01*
X719017Y24785D01*
X717933Y22167D01*
X716516Y19712D01*
X714790Y17464D01*
X712786Y15460D01*
X710538Y13734D01*
X708083Y12317D01*
X705465Y11233D01*
X702727Y10499D01*
X700023Y10143D01*
X700023Y30227D01*
G37*
%LPD*%
%LPC*%
G36*
X10143Y223773D02*
X10143Y223773D01*
X10499Y226477D01*
X11233Y229215D01*
X12317Y231833D01*
X13734Y234288D01*
X15460Y236536D01*
X17464Y238540D01*
X19712Y240266D01*
X22167Y241683D01*
X24785Y242767D01*
X27523Y243501D01*
X30227Y243857D01*
X30227Y223773D01*
X10143Y223773D01*
G37*
%LPD*%
%LPC*%
G36*
X676893Y33273D02*
X676893Y33273D01*
X677249Y35977D01*
X677983Y38715D01*
X679067Y41333D01*
X680484Y43788D01*
X682210Y46036D01*
X684214Y48040D01*
X686462Y49766D01*
X688917Y51183D01*
X691535Y52267D01*
X694273Y53001D01*
X696977Y53357D01*
X696977Y33273D01*
X676893Y33273D01*
G37*
%LPD*%
%LPC*%
G36*
X27523Y200999D02*
X27523Y200999D01*
X24785Y201733D01*
X22167Y202817D01*
X19712Y204234D01*
X17464Y205960D01*
X15460Y207964D01*
X13734Y210212D01*
X12317Y212667D01*
X11233Y215285D01*
X10499Y218023D01*
X10143Y220727D01*
X30227Y220727D01*
X30227Y200643D01*
X27523Y200999D01*
G37*
%LPD*%
%LPC*%
G36*
X694273Y10499D02*
X694273Y10499D01*
X691535Y11233D01*
X688917Y12317D01*
X686462Y13734D01*
X684214Y15460D01*
X682210Y17464D01*
X680484Y19712D01*
X679067Y22167D01*
X677983Y24785D01*
X677249Y27523D01*
X676893Y30227D01*
X696977Y30227D01*
X696977Y10143D01*
X694273Y10499D01*
G37*
%LPD*%
%LPC*%
G36*
X277632Y3809D02*
X277632Y3809D01*
X274364Y5163D01*
X271863Y7664D01*
X270509Y10932D01*
X270509Y14468D01*
X271863Y17736D01*
X274364Y20237D01*
X276966Y21315D01*
X277005Y21339D01*
X277048Y21355D01*
X277109Y21404D01*
X277175Y21445D01*
X277205Y21480D01*
X277240Y21509D01*
X277283Y21574D01*
X277332Y21634D01*
X277349Y21677D01*
X277373Y21716D01*
X277392Y21791D01*
X277420Y21864D01*
X277422Y21910D01*
X277434Y21954D01*
X277427Y22032D01*
X277431Y22110D01*
X277418Y22154D01*
X277414Y22199D01*
X277384Y22271D01*
X277362Y22346D01*
X277336Y22384D01*
X277318Y22426D01*
X277233Y22533D01*
X277222Y22548D01*
X277218Y22551D01*
X277213Y22557D01*
X275843Y23927D01*
X275843Y26873D01*
X277927Y28957D01*
X280873Y28957D01*
X282957Y26873D01*
X282957Y23927D01*
X281587Y22557D01*
X281560Y22520D01*
X281526Y22488D01*
X281489Y22420D01*
X281443Y22357D01*
X281430Y22313D01*
X281408Y22273D01*
X281394Y22196D01*
X281371Y22122D01*
X281372Y22076D01*
X281364Y22031D01*
X281375Y21954D01*
X281377Y21876D01*
X281393Y21833D01*
X281400Y21788D01*
X281435Y21718D01*
X281462Y21645D01*
X281490Y21609D01*
X281511Y21568D01*
X281567Y21514D01*
X281615Y21453D01*
X281654Y21428D01*
X281687Y21396D01*
X281807Y21330D01*
X281822Y21320D01*
X281827Y21319D01*
X281834Y21315D01*
X284436Y20237D01*
X286937Y17736D01*
X288291Y14468D01*
X288291Y10932D01*
X286937Y7664D01*
X284436Y5163D01*
X281168Y3809D01*
X277632Y3809D01*
G37*
%LPD*%
%LPC*%
G36*
X372806Y149478D02*
X372806Y149478D01*
X369398Y150890D01*
X366790Y153498D01*
X365378Y156906D01*
X365378Y160594D01*
X366790Y164002D01*
X369398Y166610D01*
X372806Y168022D01*
X376494Y168022D01*
X379902Y166610D01*
X382510Y164002D01*
X383922Y160594D01*
X383922Y156906D01*
X382510Y153498D01*
X379902Y150890D01*
X376494Y149478D01*
X372806Y149478D01*
G37*
%LPD*%
%LPC*%
G36*
X645932Y232409D02*
X645932Y232409D01*
X642664Y233763D01*
X640163Y236264D01*
X638809Y239532D01*
X638809Y243068D01*
X640163Y246336D01*
X642664Y248837D01*
X645932Y250191D01*
X649468Y250191D01*
X652736Y248837D01*
X655237Y246336D01*
X656591Y243068D01*
X656591Y239532D01*
X655237Y236264D01*
X652736Y233763D01*
X649468Y232409D01*
X645932Y232409D01*
G37*
%LPD*%
%LPC*%
G36*
X303032Y3809D02*
X303032Y3809D01*
X299764Y5163D01*
X297263Y7664D01*
X295909Y10932D01*
X295909Y14468D01*
X297263Y17736D01*
X299764Y20237D01*
X303032Y21591D01*
X306568Y21591D01*
X309836Y20237D01*
X312337Y17736D01*
X313691Y14468D01*
X313691Y10932D01*
X312337Y7664D01*
X309836Y5163D01*
X306568Y3809D01*
X303032Y3809D01*
G37*
%LPD*%
%LPC*%
G36*
X468132Y232409D02*
X468132Y232409D01*
X464864Y233763D01*
X462363Y236264D01*
X461009Y239532D01*
X461009Y243068D01*
X462363Y246336D01*
X464864Y248837D01*
X468132Y250191D01*
X471668Y250191D01*
X474936Y248837D01*
X477437Y246336D01*
X478791Y243068D01*
X478791Y239532D01*
X477437Y236264D01*
X474936Y233763D01*
X471668Y232409D01*
X468132Y232409D01*
G37*
%LPD*%
%LPC*%
G36*
X341132Y232409D02*
X341132Y232409D01*
X337864Y233763D01*
X335363Y236264D01*
X334009Y239532D01*
X334009Y243068D01*
X335363Y246336D01*
X337864Y248837D01*
X341132Y250191D01*
X344668Y250191D01*
X347936Y248837D01*
X350437Y246336D01*
X351791Y243068D01*
X351791Y239532D01*
X350437Y236264D01*
X347936Y233763D01*
X344668Y232409D01*
X341132Y232409D01*
G37*
%LPD*%
%LPC*%
G36*
X366532Y232409D02*
X366532Y232409D01*
X363264Y233763D01*
X360763Y236264D01*
X359409Y239532D01*
X359409Y243068D01*
X360763Y246336D01*
X363264Y248837D01*
X366532Y250191D01*
X370068Y250191D01*
X373336Y248837D01*
X375837Y246336D01*
X377191Y243068D01*
X377191Y239532D01*
X375837Y236264D01*
X373336Y233763D01*
X370068Y232409D01*
X366532Y232409D01*
G37*
%LPD*%
%LPC*%
G36*
X442732Y232409D02*
X442732Y232409D01*
X439464Y233763D01*
X436963Y236264D01*
X435609Y239532D01*
X435609Y243068D01*
X436963Y246336D01*
X439464Y248837D01*
X442732Y250191D01*
X446268Y250191D01*
X449536Y248837D01*
X452037Y246336D01*
X453391Y243068D01*
X453391Y239532D01*
X452037Y236264D01*
X449536Y233763D01*
X446268Y232409D01*
X442732Y232409D01*
G37*
%LPD*%
%LPC*%
G36*
X671332Y232409D02*
X671332Y232409D01*
X668064Y233763D01*
X665563Y236264D01*
X664209Y239532D01*
X664209Y243068D01*
X665563Y246336D01*
X668064Y248837D01*
X671332Y250191D01*
X674868Y250191D01*
X678136Y248837D01*
X680637Y246336D01*
X681991Y243068D01*
X681991Y239532D01*
X680637Y236264D01*
X678136Y233763D01*
X674868Y232409D01*
X671332Y232409D01*
G37*
%LPD*%
%LPC*%
G36*
X493532Y232409D02*
X493532Y232409D01*
X490264Y233763D01*
X487763Y236264D01*
X486409Y239532D01*
X486409Y243068D01*
X487763Y246336D01*
X490264Y248837D01*
X493532Y250191D01*
X497068Y250191D01*
X500336Y248837D01*
X502837Y246336D01*
X504191Y243068D01*
X504191Y239532D01*
X502837Y236264D01*
X500336Y233763D01*
X497068Y232409D01*
X493532Y232409D01*
G37*
%LPD*%
%LPC*%
G36*
X569732Y232409D02*
X569732Y232409D01*
X566464Y233763D01*
X563963Y236264D01*
X562609Y239532D01*
X562609Y243068D01*
X563963Y246336D01*
X566464Y248837D01*
X569732Y250191D01*
X573268Y250191D01*
X576536Y248837D01*
X579037Y246336D01*
X580391Y243068D01*
X580391Y239532D01*
X579037Y236264D01*
X576536Y233763D01*
X573268Y232409D01*
X569732Y232409D01*
G37*
%LPD*%
%LPC*%
G36*
X544332Y232409D02*
X544332Y232409D01*
X541064Y233763D01*
X538563Y236264D01*
X537209Y239532D01*
X537209Y243068D01*
X538563Y246336D01*
X541064Y248837D01*
X544332Y250191D01*
X547868Y250191D01*
X551136Y248837D01*
X553637Y246336D01*
X554991Y243068D01*
X554991Y239532D01*
X553637Y236264D01*
X551136Y233763D01*
X547868Y232409D01*
X544332Y232409D01*
G37*
%LPD*%
%LPC*%
G36*
X595132Y232409D02*
X595132Y232409D01*
X591864Y233763D01*
X589363Y236264D01*
X588009Y239532D01*
X588009Y243068D01*
X589363Y246336D01*
X591864Y248837D01*
X595132Y250191D01*
X598668Y250191D01*
X601936Y248837D01*
X604437Y246336D01*
X605791Y243068D01*
X605791Y239532D01*
X604437Y236264D01*
X601936Y233763D01*
X598668Y232409D01*
X595132Y232409D01*
G37*
%LPD*%
%LPC*%
G36*
X620532Y232409D02*
X620532Y232409D01*
X617264Y233763D01*
X614763Y236264D01*
X613409Y239532D01*
X613409Y243068D01*
X614763Y246336D01*
X617264Y248837D01*
X620532Y250191D01*
X624068Y250191D01*
X627336Y248837D01*
X629837Y246336D01*
X631191Y243068D01*
X631191Y239532D01*
X629837Y236264D01*
X627336Y233763D01*
X624068Y232409D01*
X620532Y232409D01*
G37*
%LPD*%
%LPC*%
G36*
X252232Y3809D02*
X252232Y3809D01*
X248964Y5163D01*
X246463Y7664D01*
X245109Y10932D01*
X245109Y14468D01*
X246463Y17736D01*
X248964Y20237D01*
X252232Y21591D01*
X255768Y21591D01*
X259036Y20237D01*
X261537Y17736D01*
X262891Y14468D01*
X262891Y10932D01*
X261537Y7664D01*
X259036Y5163D01*
X255768Y3809D01*
X252232Y3809D01*
G37*
%LPD*%
%LPC*%
G36*
X226832Y3809D02*
X226832Y3809D01*
X223564Y5163D01*
X221063Y7664D01*
X219709Y10932D01*
X219709Y14468D01*
X221063Y17736D01*
X223564Y20237D01*
X226832Y21591D01*
X230368Y21591D01*
X233636Y20237D01*
X236137Y17736D01*
X237491Y14468D01*
X237491Y10932D01*
X236137Y7664D01*
X233636Y5163D01*
X230368Y3809D01*
X226832Y3809D01*
G37*
%LPD*%
%LPC*%
G36*
X328432Y3809D02*
X328432Y3809D01*
X325164Y5163D01*
X322663Y7664D01*
X321309Y10932D01*
X321309Y14468D01*
X322663Y17736D01*
X325164Y20237D01*
X328432Y21591D01*
X331968Y21591D01*
X335236Y20237D01*
X337737Y17736D01*
X339091Y14468D01*
X339091Y10932D01*
X337737Y7664D01*
X335236Y5163D01*
X331968Y3809D01*
X328432Y3809D01*
G37*
%LPD*%
%LPC*%
G36*
X366827Y47243D02*
X366827Y47243D01*
X364743Y49327D01*
X364743Y52273D01*
X366425Y53955D01*
X366478Y54029D01*
X366538Y54099D01*
X366550Y54129D01*
X366569Y54155D01*
X366596Y54242D01*
X366630Y54327D01*
X366634Y54368D01*
X366641Y54390D01*
X366640Y54422D01*
X366648Y54494D01*
X366648Y97906D01*
X366634Y97997D01*
X366626Y98087D01*
X366614Y98117D01*
X366609Y98149D01*
X366566Y98230D01*
X366530Y98314D01*
X366504Y98346D01*
X366493Y98367D01*
X366470Y98389D01*
X366425Y98445D01*
X364743Y100127D01*
X364743Y103073D01*
X366827Y105157D01*
X369773Y105157D01*
X371857Y103073D01*
X371857Y100127D01*
X370175Y98445D01*
X370122Y98371D01*
X370062Y98301D01*
X370050Y98271D01*
X370031Y98245D01*
X370004Y98158D01*
X369970Y98073D01*
X369966Y98032D01*
X369959Y98010D01*
X369960Y97978D01*
X369952Y97906D01*
X369952Y54494D01*
X369966Y54403D01*
X369974Y54313D01*
X369986Y54283D01*
X369991Y54251D01*
X370034Y54170D01*
X370070Y54086D01*
X370096Y54054D01*
X370107Y54033D01*
X370130Y54011D01*
X370175Y53955D01*
X371857Y52273D01*
X371857Y49327D01*
X369773Y47243D01*
X366827Y47243D01*
G37*
%LPD*%
%LPC*%
G36*
X233161Y46481D02*
X233161Y46481D01*
X230631Y49011D01*
X230631Y52589D01*
X232313Y54271D01*
X232366Y54345D01*
X232426Y54414D01*
X232438Y54444D01*
X232457Y54471D01*
X232484Y54558D01*
X232518Y54642D01*
X232522Y54683D01*
X232529Y54706D01*
X232528Y54738D01*
X232536Y54809D01*
X232536Y64500D01*
X234218Y66182D01*
X234271Y66256D01*
X234331Y66325D01*
X234343Y66355D01*
X234362Y66382D01*
X234389Y66469D01*
X234423Y66553D01*
X234427Y66594D01*
X234434Y66617D01*
X234433Y66649D01*
X234441Y66720D01*
X234441Y69099D01*
X236971Y71629D01*
X240549Y71629D01*
X243079Y69099D01*
X243079Y65521D01*
X240549Y62991D01*
X238170Y62991D01*
X238080Y62977D01*
X237989Y62969D01*
X237959Y62957D01*
X237927Y62952D01*
X237847Y62909D01*
X237763Y62873D01*
X237731Y62847D01*
X237710Y62836D01*
X237688Y62813D01*
X237632Y62768D01*
X237587Y62723D01*
X237534Y62649D01*
X237474Y62580D01*
X237462Y62550D01*
X237443Y62523D01*
X237416Y62436D01*
X237395Y62382D01*
X237392Y62376D01*
X237392Y62375D01*
X237382Y62352D01*
X237378Y62311D01*
X237371Y62288D01*
X237372Y62256D01*
X237364Y62185D01*
X237364Y54809D01*
X237378Y54719D01*
X237386Y54628D01*
X237398Y54598D01*
X237403Y54566D01*
X237446Y54486D01*
X237482Y54402D01*
X237508Y54370D01*
X237519Y54349D01*
X237542Y54327D01*
X237587Y54271D01*
X239269Y52589D01*
X239269Y49011D01*
X236739Y46481D01*
X233161Y46481D01*
G37*
%LPD*%
%LPC*%
G36*
X43288Y159257D02*
X43288Y159257D01*
X41140Y160147D01*
X39497Y161790D01*
X38607Y163938D01*
X38607Y166262D01*
X39497Y168410D01*
X41140Y170053D01*
X43288Y170943D01*
X45612Y170943D01*
X47760Y170053D01*
X49403Y168410D01*
X50293Y166262D01*
X50293Y163938D01*
X49403Y161790D01*
X47760Y160147D01*
X45612Y159257D01*
X43288Y159257D01*
G37*
%LPD*%
%LPC*%
G36*
X26923Y141223D02*
X26923Y141223D01*
X26923Y152061D01*
X28315Y151840D01*
X30178Y151235D01*
X31923Y150345D01*
X33509Y149194D01*
X34894Y147809D01*
X36045Y146223D01*
X36935Y144478D01*
X37540Y142615D01*
X37761Y141223D01*
X26923Y141223D01*
G37*
%LPD*%
%LPC*%
G36*
X26923Y138177D02*
X26923Y138177D01*
X37761Y138177D01*
X37540Y136785D01*
X36935Y134922D01*
X36045Y133177D01*
X34894Y131591D01*
X33509Y130206D01*
X31923Y129055D01*
X30178Y128165D01*
X28315Y127560D01*
X26923Y127339D01*
X26923Y138177D01*
G37*
%LPD*%
%LPC*%
G36*
X13039Y141223D02*
X13039Y141223D01*
X13260Y142615D01*
X13865Y144478D01*
X14755Y146223D01*
X15906Y147809D01*
X17291Y149194D01*
X18877Y150345D01*
X20622Y151235D01*
X22485Y151840D01*
X23877Y152061D01*
X23877Y141223D01*
X13039Y141223D01*
G37*
%LPD*%
%LPC*%
G36*
X22485Y127560D02*
X22485Y127560D01*
X20622Y128165D01*
X18877Y129055D01*
X17291Y130206D01*
X15906Y131591D01*
X14755Y133177D01*
X13865Y134922D01*
X13260Y136785D01*
X13039Y138177D01*
X23877Y138177D01*
X23877Y127339D01*
X22485Y127560D01*
G37*
%LPD*%
%LPC*%
G36*
X404611Y148081D02*
X404611Y148081D01*
X402081Y150611D01*
X402081Y154189D01*
X404611Y156719D01*
X408189Y156719D01*
X410719Y154189D01*
X410719Y150611D01*
X408189Y148081D01*
X404611Y148081D01*
G37*
%LPD*%
%LPC*%
G36*
X169661Y122681D02*
X169661Y122681D01*
X167131Y125211D01*
X167131Y128789D01*
X169661Y131319D01*
X173239Y131319D01*
X175769Y128789D01*
X175769Y125211D01*
X173239Y122681D01*
X169661Y122681D01*
G37*
%LPD*%
%LPC*%
G36*
X319521Y116331D02*
X319521Y116331D01*
X316991Y118861D01*
X316991Y122439D01*
X319521Y124969D01*
X323099Y124969D01*
X325629Y122439D01*
X325629Y118861D01*
X323099Y116331D01*
X319521Y116331D01*
G37*
%LPD*%
%LPC*%
G36*
X258561Y116331D02*
X258561Y116331D01*
X256031Y118861D01*
X256031Y122439D01*
X258561Y124969D01*
X262139Y124969D01*
X264669Y122439D01*
X264669Y118861D01*
X262139Y116331D01*
X258561Y116331D01*
G37*
%LPD*%
%LPC*%
G36*
X398261Y109981D02*
X398261Y109981D01*
X395731Y112511D01*
X395731Y116089D01*
X398261Y118619D01*
X401839Y118619D01*
X404369Y116089D01*
X404369Y112511D01*
X401839Y109981D01*
X398261Y109981D01*
G37*
%LPD*%
%LPC*%
G36*
X309361Y109981D02*
X309361Y109981D01*
X306831Y112511D01*
X306831Y116089D01*
X309361Y118619D01*
X312939Y118619D01*
X315469Y116089D01*
X315469Y112511D01*
X312939Y109981D01*
X309361Y109981D01*
G37*
%LPD*%
%LPC*%
G36*
X309361Y90931D02*
X309361Y90931D01*
X306831Y93461D01*
X306831Y97039D01*
X309361Y99569D01*
X312939Y99569D01*
X315469Y97039D01*
X315469Y93461D01*
X312939Y90931D01*
X309361Y90931D01*
G37*
%LPD*%
%LPC*%
G36*
X474461Y84581D02*
X474461Y84581D01*
X471931Y87111D01*
X471931Y90689D01*
X474461Y93219D01*
X478039Y93219D01*
X480569Y90689D01*
X480569Y87111D01*
X478039Y84581D01*
X474461Y84581D01*
G37*
%LPD*%
%LPC*%
G36*
X290311Y82803D02*
X290311Y82803D01*
X287781Y85333D01*
X287781Y88911D01*
X290311Y91441D01*
X293889Y91441D01*
X296419Y88911D01*
X296419Y85333D01*
X293889Y82803D01*
X290311Y82803D01*
G37*
%LPD*%
%LPC*%
G36*
X163311Y78231D02*
X163311Y78231D01*
X160781Y80761D01*
X160781Y84339D01*
X163311Y86869D01*
X166889Y86869D01*
X169419Y84339D01*
X169419Y80761D01*
X166889Y78231D01*
X163311Y78231D01*
G37*
%LPD*%
%LPC*%
G36*
X461761Y71881D02*
X461761Y71881D01*
X459231Y74411D01*
X459231Y77989D01*
X461761Y80519D01*
X465339Y80519D01*
X467869Y77989D01*
X467869Y74411D01*
X465339Y71881D01*
X461761Y71881D01*
G37*
%LPD*%
%LPC*%
G36*
X328411Y71881D02*
X328411Y71881D01*
X325881Y74411D01*
X325881Y77989D01*
X328411Y80519D01*
X331989Y80519D01*
X334519Y77989D01*
X334519Y74411D01*
X331989Y71881D01*
X328411Y71881D01*
G37*
%LPD*%
%LPC*%
G36*
X271261Y71881D02*
X271261Y71881D01*
X268731Y74411D01*
X268731Y77989D01*
X271261Y80519D01*
X274839Y80519D01*
X277369Y77989D01*
X277369Y74411D01*
X274839Y71881D01*
X271261Y71881D01*
G37*
%LPD*%
%LPC*%
G36*
X118861Y71881D02*
X118861Y71881D01*
X116331Y74411D01*
X116331Y77989D01*
X118861Y80519D01*
X122439Y80519D01*
X124969Y77989D01*
X124969Y74411D01*
X122439Y71881D01*
X118861Y71881D01*
G37*
%LPD*%
%LPC*%
G36*
X422883Y64753D02*
X422883Y64753D01*
X420353Y67283D01*
X420353Y70861D01*
X422883Y73390D01*
X426461Y73390D01*
X428990Y70861D01*
X428990Y67283D01*
X426461Y64753D01*
X422883Y64753D01*
G37*
%LPD*%
%LPC*%
G36*
X258561Y62555D02*
X258561Y62555D01*
X256031Y65085D01*
X256031Y68663D01*
X258561Y71193D01*
X262139Y71193D01*
X264669Y68663D01*
X264669Y65085D01*
X262139Y62555D01*
X258561Y62555D01*
G37*
%LPD*%
%LPC*%
G36*
X525261Y52831D02*
X525261Y52831D01*
X522731Y55361D01*
X522731Y58939D01*
X525261Y61469D01*
X528839Y61469D01*
X531369Y58939D01*
X531369Y55361D01*
X528839Y52831D01*
X525261Y52831D01*
G37*
%LPD*%
%LPC*%
G36*
X125211Y52831D02*
X125211Y52831D01*
X122681Y55361D01*
X122681Y58939D01*
X125211Y61469D01*
X128789Y61469D01*
X131319Y58939D01*
X131319Y55361D01*
X128789Y52831D01*
X125211Y52831D01*
G37*
%LPD*%
%LPC*%
G36*
X569711Y40131D02*
X569711Y40131D01*
X567181Y42661D01*
X567181Y46239D01*
X569711Y48769D01*
X573289Y48769D01*
X575819Y46239D01*
X575819Y42661D01*
X573289Y40131D01*
X569711Y40131D01*
G37*
%LPD*%
%LPC*%
G36*
X176011Y40131D02*
X176011Y40131D01*
X173481Y42661D01*
X173481Y46239D01*
X176011Y48769D01*
X179589Y48769D01*
X182119Y46239D01*
X182119Y42661D01*
X179589Y40131D01*
X176011Y40131D01*
G37*
%LPD*%
%LPC*%
G36*
X55361Y27431D02*
X55361Y27431D01*
X52831Y29961D01*
X52831Y33539D01*
X55361Y36069D01*
X58939Y36069D01*
X61469Y33539D01*
X61469Y29961D01*
X58939Y27431D01*
X55361Y27431D01*
G37*
%LPD*%
%LPC*%
G36*
X448030Y199912D02*
X448030Y199912D01*
X445500Y202442D01*
X445500Y206020D01*
X448030Y208550D01*
X451608Y208550D01*
X454138Y206020D01*
X454138Y202442D01*
X451608Y199912D01*
X448030Y199912D01*
G37*
%LPD*%
%LPC*%
G36*
X239511Y21081D02*
X239511Y21081D01*
X236981Y23611D01*
X236981Y27189D01*
X239511Y29719D01*
X243089Y29719D01*
X245619Y27189D01*
X245619Y23611D01*
X243089Y21081D01*
X239511Y21081D01*
G37*
%LPD*%
%LPC*%
G36*
X474461Y192531D02*
X474461Y192531D01*
X471931Y195061D01*
X471931Y198639D01*
X474461Y201169D01*
X478039Y201169D01*
X480569Y198639D01*
X480569Y195061D01*
X478039Y192531D01*
X474461Y192531D01*
G37*
%LPD*%
%LPC*%
G36*
X459371Y167431D02*
X459371Y167431D01*
X456841Y169961D01*
X456841Y173539D01*
X459371Y176069D01*
X462949Y176069D01*
X465479Y173539D01*
X465479Y169961D01*
X462949Y167431D01*
X459371Y167431D01*
G37*
%LPD*%
%LPC*%
G36*
X518911Y160781D02*
X518911Y160781D01*
X516381Y163311D01*
X516381Y166889D01*
X518911Y169419D01*
X522489Y169419D01*
X525019Y166889D01*
X525019Y163311D01*
X522489Y160781D01*
X518911Y160781D01*
G37*
%LPD*%
%LPC*%
G36*
X169661Y160781D02*
X169661Y160781D01*
X167131Y163311D01*
X167131Y166889D01*
X169661Y169419D01*
X173239Y169419D01*
X175769Y166889D01*
X175769Y163311D01*
X173239Y160781D01*
X169661Y160781D01*
G37*
%LPD*%
%LPC*%
G36*
X103123Y14223D02*
X103123Y14223D01*
X103123Y22746D01*
X103979Y22611D01*
X105500Y22116D01*
X106925Y21390D01*
X108219Y20450D01*
X109350Y19319D01*
X110290Y18025D01*
X111016Y16600D01*
X111511Y15079D01*
X111646Y14223D01*
X103123Y14223D01*
G37*
%LPD*%
%LPC*%
G36*
X153923Y14223D02*
X153923Y14223D01*
X153923Y22746D01*
X154779Y22611D01*
X156300Y22116D01*
X157725Y21390D01*
X159019Y20450D01*
X160150Y19319D01*
X161090Y18025D01*
X161816Y16600D01*
X162311Y15079D01*
X162446Y14223D01*
X153923Y14223D01*
G37*
%LPD*%
%LPC*%
G36*
X179323Y14223D02*
X179323Y14223D01*
X179323Y22746D01*
X180179Y22611D01*
X181700Y22116D01*
X183125Y21390D01*
X184419Y20450D01*
X185550Y19319D01*
X186490Y18025D01*
X187216Y16600D01*
X187711Y15079D01*
X187846Y14223D01*
X179323Y14223D01*
G37*
%LPD*%
%LPC*%
G36*
X204723Y14223D02*
X204723Y14223D01*
X204723Y22746D01*
X205579Y22611D01*
X207100Y22116D01*
X208525Y21390D01*
X209819Y20450D01*
X210950Y19319D01*
X211890Y18025D01*
X212616Y16600D01*
X213111Y15079D01*
X213246Y14223D01*
X204723Y14223D01*
G37*
%LPD*%
%LPC*%
G36*
X128523Y14223D02*
X128523Y14223D01*
X128523Y22746D01*
X129379Y22611D01*
X130900Y22116D01*
X132325Y21390D01*
X133619Y20450D01*
X134750Y19319D01*
X135690Y18025D01*
X136416Y16600D01*
X136911Y15079D01*
X137046Y14223D01*
X128523Y14223D01*
G37*
%LPD*%
%LPC*%
G36*
X522223Y239777D02*
X522223Y239777D01*
X530746Y239777D01*
X530611Y238921D01*
X530116Y237400D01*
X529390Y235975D01*
X528450Y234681D01*
X527319Y233550D01*
X526025Y232610D01*
X524600Y231884D01*
X523079Y231389D01*
X522223Y231254D01*
X522223Y239777D01*
G37*
%LPD*%
%LPC*%
G36*
X193154Y14223D02*
X193154Y14223D01*
X193289Y15079D01*
X193784Y16600D01*
X194510Y18025D01*
X195450Y19319D01*
X196581Y20450D01*
X197875Y21390D01*
X199300Y22116D01*
X200821Y22611D01*
X201677Y22746D01*
X201677Y14223D01*
X193154Y14223D01*
G37*
%LPD*%
%LPC*%
G36*
X91554Y14223D02*
X91554Y14223D01*
X91689Y15079D01*
X92184Y16600D01*
X92910Y18025D01*
X93850Y19319D01*
X94981Y20450D01*
X96275Y21390D01*
X97700Y22116D01*
X99221Y22611D01*
X100077Y22746D01*
X100077Y14223D01*
X91554Y14223D01*
G37*
%LPD*%
%LPC*%
G36*
X116954Y14223D02*
X116954Y14223D01*
X117089Y15079D01*
X117584Y16600D01*
X118310Y18025D01*
X119250Y19319D01*
X120381Y20450D01*
X121675Y21390D01*
X123100Y22116D01*
X124621Y22611D01*
X125477Y22746D01*
X125477Y14223D01*
X116954Y14223D01*
G37*
%LPD*%
%LPC*%
G36*
X142354Y14223D02*
X142354Y14223D01*
X142489Y15079D01*
X142984Y16600D01*
X143710Y18025D01*
X144650Y19319D01*
X145781Y20450D01*
X147075Y21390D01*
X148500Y22116D01*
X150021Y22611D01*
X150877Y22746D01*
X150877Y14223D01*
X142354Y14223D01*
G37*
%LPD*%
%LPC*%
G36*
X167754Y14223D02*
X167754Y14223D01*
X167889Y15079D01*
X168384Y16600D01*
X169110Y18025D01*
X170050Y19319D01*
X171181Y20450D01*
X172475Y21390D01*
X173900Y22116D01*
X175421Y22611D01*
X176277Y22746D01*
X176277Y14223D01*
X167754Y14223D01*
G37*
%LPD*%
%LPC*%
G36*
X518321Y231389D02*
X518321Y231389D01*
X516800Y231884D01*
X515375Y232610D01*
X514081Y233550D01*
X512950Y234681D01*
X512010Y235975D01*
X511284Y237400D01*
X510789Y238921D01*
X510654Y239777D01*
X519177Y239777D01*
X519177Y231254D01*
X518321Y231389D01*
G37*
%LPD*%
%LPC*%
G36*
X404927Y123443D02*
X404927Y123443D01*
X402843Y125527D01*
X402843Y128473D01*
X404927Y130557D01*
X407873Y130557D01*
X409957Y128473D01*
X409957Y125527D01*
X407873Y123443D01*
X404927Y123443D01*
G37*
%LPD*%
%LPC*%
G36*
X354127Y28193D02*
X354127Y28193D01*
X352043Y30277D01*
X352043Y33223D01*
X354127Y35307D01*
X357073Y35307D01*
X359157Y33223D01*
X359157Y30277D01*
X357073Y28193D01*
X354127Y28193D01*
G37*
%LPD*%
%LPC*%
G36*
X325552Y25018D02*
X325552Y25018D01*
X323468Y27102D01*
X323468Y30048D01*
X325552Y32132D01*
X328498Y32132D01*
X330582Y30048D01*
X330582Y27102D01*
X328498Y25018D01*
X325552Y25018D01*
G37*
%LPD*%
%LPC*%
G36*
X144577Y85164D02*
X144577Y85164D01*
X142493Y87248D01*
X142493Y90194D01*
X144577Y92278D01*
X147523Y92278D01*
X149607Y90194D01*
X149607Y87248D01*
X147523Y85164D01*
X144577Y85164D01*
G37*
%LPD*%
%LPC*%
G36*
X385877Y129793D02*
X385877Y129793D01*
X383793Y131877D01*
X383793Y134823D01*
X385877Y136907D01*
X388823Y136907D01*
X390907Y134823D01*
X390907Y131877D01*
X388823Y129793D01*
X385877Y129793D01*
G37*
%LPD*%
%LPC*%
G36*
X189027Y78993D02*
X189027Y78993D01*
X186943Y81077D01*
X186943Y84023D01*
X189027Y86107D01*
X191973Y86107D01*
X194057Y84023D01*
X194057Y81077D01*
X191973Y78993D01*
X189027Y78993D01*
G37*
%LPD*%
%LPC*%
G36*
X379527Y40893D02*
X379527Y40893D01*
X377443Y42977D01*
X377443Y45923D01*
X379527Y48007D01*
X382473Y48007D01*
X384557Y45923D01*
X384557Y42977D01*
X382473Y40893D01*
X379527Y40893D01*
G37*
%LPD*%
%LPC*%
G36*
X347777Y40893D02*
X347777Y40893D01*
X345693Y42977D01*
X345693Y45923D01*
X347777Y48007D01*
X350723Y48007D01*
X352807Y45923D01*
X352807Y42977D01*
X350723Y40893D01*
X347777Y40893D01*
G37*
%LPD*%
%LPC*%
G36*
X698499Y31749D02*
X698499Y31749D01*
X698499Y31751D01*
X698501Y31751D01*
X698501Y31749D01*
X698499Y31749D01*
G37*
%LPD*%
%LPC*%
G36*
X25399Y139699D02*
X25399Y139699D01*
X25399Y139701D01*
X25401Y139701D01*
X25401Y139699D01*
X25399Y139699D01*
G37*
%LPD*%
%LPC*%
G36*
X31749Y222249D02*
X31749Y222249D01*
X31749Y222251D01*
X31751Y222251D01*
X31751Y222249D01*
X31749Y222249D01*
G37*
%LPD*%
D10*
X685800Y114300D03*
X685800Y165100D03*
X25400Y139700D03*
X25400Y114300D03*
D11*
X444500Y241300D03*
X469900Y241300D03*
X495300Y241300D03*
X520700Y241300D03*
X546100Y241300D03*
X571500Y241300D03*
X596900Y241300D03*
X622300Y241300D03*
X647700Y241300D03*
X673100Y241300D03*
X330200Y12700D03*
X304800Y12700D03*
X279400Y12700D03*
X254000Y12700D03*
X228600Y12700D03*
X203200Y12700D03*
X177800Y12700D03*
X152400Y12700D03*
X127000Y12700D03*
X101600Y12700D03*
D12*
X698500Y31750D03*
D10*
X685800Y139700D03*
D12*
X31750Y222250D03*
D11*
X368300Y241300D03*
X342900Y241300D03*
X317500Y241300D03*
D13*
X273050Y76200D03*
X120650Y76200D03*
X311150Y95250D03*
X171450Y127000D03*
X311150Y114300D03*
X171450Y165100D03*
X260350Y66874D03*
X292100Y87122D03*
X234950Y50800D03*
D14*
X234950Y63500D01*
X238760Y67310D01*
D13*
X238760Y67310D03*
X260350Y120650D03*
X321310Y120650D03*
D15*
X374650Y158750D03*
D13*
X476250Y88900D03*
X424672Y69072D03*
D16*
X406400Y127000D03*
X146050Y88721D03*
X368300Y101600D03*
D17*
X368300Y50800D01*
D16*
X368300Y50800D03*
D18*
X44450Y165100D03*
D13*
X431800Y152400D03*
X406400Y152400D03*
X400050Y114300D03*
X463550Y76200D03*
D16*
X387350Y133350D03*
D13*
X127000Y57150D03*
X177800Y44450D03*
D16*
X349250Y44450D03*
X381000Y44450D03*
D17*
X349250Y209550D02*
X317500Y241300D01*
X349250Y209550D02*
X349250Y76200D01*
D16*
X349250Y76200D03*
D13*
X330200Y76200D03*
X165100Y82550D03*
D16*
X190500Y82550D03*
X355600Y31750D03*
X327025Y28575D03*
D13*
X412750Y190500D03*
D14*
X412750Y241300D01*
D13*
X412750Y241300D03*
X241300Y25400D03*
X57150Y31750D03*
X603250Y63500D03*
X527050Y57150D03*
D14*
X603250Y63500D02*
X609600Y69850D01*
X609600Y183850D01*
D13*
X609600Y183850D03*
X520700Y165100D03*
X461160Y171750D03*
X571500Y44450D03*
X622300Y44450D03*
D14*
X622300Y76200D01*
X685800Y139700D01*
D13*
X584200Y76200D03*
D14*
X584200Y196850D01*
D13*
X584200Y196850D03*
X603250Y95250D03*
D14*
X603250Y209550D01*
D13*
X603250Y209550D03*
X571500Y76200D03*
D14*
X571500Y177500D01*
X565150Y183850D01*
D13*
X565150Y183850D03*
X449819Y204231D03*
X476250Y196850D03*
X425450Y127000D03*
D14*
X425450Y234950D01*
D13*
X425450Y234950D03*
D16*
X279400Y25400D03*
M02*
