G04 EAGLE Gerber RS-274X export*
G75*
%MOMM*%
%FSLAX34Y34*%
%LPD*%
%INEAGLE Copper Layer 15*%
%IPPOS*%
%AMOC8*
5,1,8,0,0,1.08239X$1,22.5*%
G01*
%ADD10C,1.981200*%
%ADD11C,1.524000*%
%ADD12C,3.816000*%
%ADD13C,0.609600*%
%ADD14C,0.304800*%
%ADD15C,1.600200*%
%ADD16C,0.457200*%
%ADD17C,0.152400*%
%ADD18C,0.914400*%
%ADD19C,0.406400*%

G36*
X698522Y2036D02*
X698522Y2036D01*
X698560Y2035D01*
X703089Y2392D01*
X703095Y2393D01*
X703101Y2393D01*
X703265Y2426D01*
X711881Y5226D01*
X711913Y5242D01*
X711947Y5251D01*
X712093Y5334D01*
X719422Y10659D01*
X719448Y10685D01*
X719478Y10704D01*
X719591Y10828D01*
X724916Y18157D01*
X724932Y18189D01*
X724955Y18216D01*
X725024Y18369D01*
X727824Y26985D01*
X727824Y26991D01*
X727827Y26996D01*
X727858Y27161D01*
X728215Y31690D01*
X728213Y31712D01*
X728217Y31750D01*
X728217Y222250D01*
X728214Y222272D01*
X728215Y222310D01*
X727858Y226839D01*
X727857Y226845D01*
X727857Y226851D01*
X727824Y227015D01*
X725024Y235631D01*
X725008Y235663D01*
X724999Y235697D01*
X724916Y235843D01*
X719591Y243172D01*
X719565Y243198D01*
X719546Y243228D01*
X719422Y243341D01*
X712093Y248666D01*
X712061Y248682D01*
X712034Y248705D01*
X711881Y248774D01*
X703265Y251574D01*
X703259Y251574D01*
X703254Y251577D01*
X703089Y251608D01*
X698560Y251965D01*
X698538Y251963D01*
X698500Y251967D01*
X31750Y251967D01*
X31728Y251964D01*
X31690Y251965D01*
X27161Y251608D01*
X27155Y251607D01*
X27149Y251607D01*
X26985Y251574D01*
X18369Y248774D01*
X18337Y248758D01*
X18303Y248749D01*
X18157Y248666D01*
X10828Y243341D01*
X10802Y243315D01*
X10772Y243296D01*
X10659Y243172D01*
X5334Y235843D01*
X5318Y235811D01*
X5295Y235784D01*
X5226Y235631D01*
X2426Y227015D01*
X2426Y227009D01*
X2423Y227004D01*
X2392Y226839D01*
X2035Y222310D01*
X2037Y222288D01*
X2033Y222250D01*
X2033Y31750D01*
X2036Y31728D01*
X2035Y31690D01*
X2392Y27161D01*
X2393Y27155D01*
X2393Y27149D01*
X2426Y26985D01*
X5226Y18369D01*
X5242Y18337D01*
X5251Y18303D01*
X5334Y18157D01*
X10659Y10828D01*
X10685Y10802D01*
X10704Y10772D01*
X10828Y10659D01*
X18157Y5334D01*
X18189Y5318D01*
X18216Y5295D01*
X18369Y5226D01*
X26985Y2426D01*
X26991Y2426D01*
X26996Y2423D01*
X27161Y2392D01*
X31690Y2035D01*
X31712Y2037D01*
X31750Y2033D01*
X698500Y2033D01*
X698522Y2036D01*
G37*
%LPC*%
G36*
X258561Y62555D02*
X258561Y62555D01*
X256031Y65085D01*
X256031Y68663D01*
X258561Y71193D01*
X262148Y71193D01*
X262189Y71164D01*
X262258Y71104D01*
X262288Y71092D01*
X262315Y71073D01*
X262402Y71046D01*
X262486Y71012D01*
X262527Y71008D01*
X262550Y71001D01*
X262582Y71002D01*
X262653Y70994D01*
X270311Y70994D01*
X270382Y71005D01*
X270453Y71007D01*
X270502Y71025D01*
X270554Y71033D01*
X270617Y71067D01*
X270684Y71092D01*
X270725Y71124D01*
X270771Y71149D01*
X270820Y71201D01*
X270876Y71245D01*
X270905Y71289D01*
X270940Y71327D01*
X270971Y71392D01*
X271009Y71452D01*
X271022Y71503D01*
X271044Y71550D01*
X271052Y71621D01*
X271069Y71691D01*
X271065Y71743D01*
X271071Y71794D01*
X271056Y71865D01*
X271050Y71936D01*
X271030Y71984D01*
X271019Y72035D01*
X270982Y72096D01*
X270954Y72162D01*
X270909Y72218D01*
X270893Y72246D01*
X270875Y72261D01*
X270849Y72293D01*
X269579Y73563D01*
X269505Y73616D01*
X269436Y73676D01*
X269406Y73688D01*
X269379Y73707D01*
X269292Y73734D01*
X269208Y73768D01*
X269167Y73772D01*
X269144Y73779D01*
X269112Y73778D01*
X269041Y73786D01*
X124659Y73786D01*
X124569Y73772D01*
X124478Y73764D01*
X124448Y73752D01*
X124416Y73747D01*
X124336Y73704D01*
X124252Y73668D01*
X124220Y73642D01*
X124199Y73631D01*
X124177Y73608D01*
X124121Y73563D01*
X122439Y71881D01*
X118861Y71881D01*
X116331Y74411D01*
X116331Y77989D01*
X118861Y80519D01*
X122439Y80519D01*
X124121Y78837D01*
X124195Y78784D01*
X124264Y78724D01*
X124294Y78712D01*
X124321Y78693D01*
X124408Y78666D01*
X124492Y78632D01*
X124533Y78628D01*
X124556Y78621D01*
X124588Y78622D01*
X124659Y78614D01*
X161091Y78614D01*
X161162Y78625D01*
X161233Y78627D01*
X161282Y78645D01*
X161334Y78653D01*
X161397Y78687D01*
X161464Y78712D01*
X161505Y78744D01*
X161551Y78769D01*
X161600Y78821D01*
X161656Y78865D01*
X161684Y78909D01*
X161720Y78947D01*
X161751Y79012D01*
X161789Y79072D01*
X161802Y79123D01*
X161824Y79170D01*
X161832Y79241D01*
X161849Y79311D01*
X161845Y79363D01*
X161851Y79414D01*
X161836Y79485D01*
X161830Y79556D01*
X161810Y79604D01*
X161799Y79655D01*
X161762Y79716D01*
X161734Y79782D01*
X161689Y79838D01*
X161673Y79866D01*
X161655Y79881D01*
X161629Y79913D01*
X160781Y80761D01*
X160781Y84339D01*
X162235Y85793D01*
X162278Y85852D01*
X162327Y85904D01*
X162349Y85951D01*
X162379Y85993D01*
X162400Y86062D01*
X162431Y86127D01*
X162436Y86179D01*
X162451Y86228D01*
X162449Y86300D01*
X162457Y86372D01*
X162446Y86422D01*
X162445Y86474D01*
X162420Y86542D01*
X162405Y86612D01*
X162378Y86656D01*
X162361Y86705D01*
X162315Y86761D01*
X162278Y86823D01*
X162239Y86857D01*
X162207Y86897D01*
X162146Y86936D01*
X162091Y86983D01*
X162043Y87002D01*
X162000Y87030D01*
X161930Y87047D01*
X161863Y87074D01*
X161792Y87082D01*
X161761Y87090D01*
X161738Y87088D01*
X161696Y87093D01*
X149748Y87075D01*
X149658Y87060D01*
X149568Y87053D01*
X149538Y87040D01*
X149505Y87035D01*
X149425Y86992D01*
X149342Y86957D01*
X149309Y86931D01*
X149288Y86919D01*
X149266Y86896D01*
X149211Y86852D01*
X147523Y85164D01*
X144577Y85164D01*
X142493Y87248D01*
X142493Y90194D01*
X144577Y92278D01*
X147523Y92278D01*
X149200Y90601D01*
X149274Y90548D01*
X149344Y90488D01*
X149374Y90476D01*
X149400Y90458D01*
X149487Y90431D01*
X149572Y90396D01*
X149613Y90392D01*
X149635Y90385D01*
X149667Y90386D01*
X149739Y90378D01*
X264428Y90548D01*
X264518Y90563D01*
X264608Y90570D01*
X264638Y90583D01*
X264671Y90588D01*
X264751Y90631D01*
X264834Y90667D01*
X264867Y90693D01*
X264888Y90704D01*
X264910Y90727D01*
X264965Y90771D01*
X265731Y91537D01*
X265773Y91595D01*
X265822Y91647D01*
X265844Y91694D01*
X265874Y91736D01*
X265895Y91805D01*
X265926Y91870D01*
X265931Y91922D01*
X265947Y91972D01*
X265945Y92043D01*
X265953Y92114D01*
X265942Y92165D01*
X265940Y92217D01*
X265916Y92285D01*
X265901Y92355D01*
X265874Y92399D01*
X265856Y92448D01*
X265811Y92504D01*
X265774Y92566D01*
X265735Y92600D01*
X265702Y92640D01*
X265642Y92679D01*
X265587Y92726D01*
X265539Y92745D01*
X265495Y92773D01*
X265426Y92791D01*
X265359Y92818D01*
X265288Y92826D01*
X265257Y92834D01*
X265233Y92832D01*
X265193Y92836D01*
X202200Y92836D01*
X172578Y122458D01*
X172504Y122511D01*
X172435Y122571D01*
X172405Y122583D01*
X172378Y122602D01*
X172291Y122629D01*
X172207Y122663D01*
X172166Y122667D01*
X172143Y122674D01*
X172111Y122673D01*
X172040Y122681D01*
X169661Y122681D01*
X167131Y125211D01*
X167131Y128789D01*
X169661Y131319D01*
X173239Y131319D01*
X175769Y128789D01*
X175769Y126410D01*
X175783Y126320D01*
X175791Y126229D01*
X175803Y126199D01*
X175808Y126167D01*
X175851Y126087D01*
X175887Y126003D01*
X175913Y125971D01*
X175924Y125950D01*
X175947Y125928D01*
X175992Y125872D01*
X203977Y97887D01*
X204051Y97834D01*
X204120Y97774D01*
X204150Y97762D01*
X204177Y97743D01*
X204264Y97716D01*
X204348Y97682D01*
X204389Y97678D01*
X204412Y97671D01*
X204444Y97672D01*
X204515Y97664D01*
X265385Y97664D01*
X265475Y97678D01*
X265566Y97686D01*
X265596Y97698D01*
X265628Y97703D01*
X265708Y97746D01*
X265792Y97782D01*
X265824Y97808D01*
X265845Y97819D01*
X265867Y97842D01*
X265923Y97887D01*
X266603Y98567D01*
X268240Y100204D01*
X298180Y100204D01*
X300497Y97887D01*
X300571Y97834D01*
X300640Y97774D01*
X300670Y97762D01*
X300697Y97743D01*
X300784Y97716D01*
X300868Y97682D01*
X300909Y97678D01*
X300932Y97671D01*
X300964Y97672D01*
X301035Y97664D01*
X307141Y97664D01*
X307231Y97678D01*
X307322Y97686D01*
X307352Y97698D01*
X307384Y97703D01*
X307464Y97746D01*
X307548Y97782D01*
X307580Y97808D01*
X307601Y97819D01*
X307623Y97842D01*
X307679Y97887D01*
X309361Y99569D01*
X312939Y99569D01*
X315469Y97039D01*
X315469Y93461D01*
X313859Y91851D01*
X313817Y91793D01*
X313768Y91741D01*
X313746Y91694D01*
X313715Y91652D01*
X313694Y91583D01*
X313664Y91518D01*
X313658Y91466D01*
X313643Y91416D01*
X313645Y91345D01*
X313637Y91274D01*
X313648Y91223D01*
X313649Y91171D01*
X313674Y91103D01*
X313689Y91033D01*
X313716Y90988D01*
X313734Y90940D01*
X313779Y90884D01*
X313815Y90822D01*
X313855Y90788D01*
X313887Y90748D01*
X313948Y90709D01*
X314002Y90662D01*
X314051Y90643D01*
X314094Y90615D01*
X314164Y90597D01*
X314230Y90570D01*
X314302Y90562D01*
X314333Y90554D01*
X314356Y90556D01*
X314397Y90552D01*
X354600Y90552D01*
X354691Y90566D01*
X354781Y90574D01*
X354811Y90586D01*
X354843Y90591D01*
X354924Y90634D01*
X355008Y90670D01*
X355040Y90696D01*
X355061Y90707D01*
X355083Y90730D01*
X355139Y90775D01*
X364520Y100156D01*
X364573Y100230D01*
X364633Y100300D01*
X364645Y100330D01*
X364664Y100356D01*
X364691Y100443D01*
X364725Y100528D01*
X364729Y100569D01*
X364736Y100591D01*
X364735Y100623D01*
X364743Y100695D01*
X364743Y103073D01*
X366827Y105157D01*
X369773Y105157D01*
X371857Y103073D01*
X371857Y100127D01*
X369773Y98043D01*
X367395Y98043D01*
X367304Y98029D01*
X367214Y98021D01*
X367184Y98009D01*
X367152Y98004D01*
X367071Y97961D01*
X366987Y97925D01*
X366955Y97899D01*
X366934Y97888D01*
X366912Y97865D01*
X366856Y97820D01*
X356105Y87069D01*
X354720Y87069D01*
X354707Y87078D01*
X354637Y87138D01*
X354607Y87150D01*
X354581Y87169D01*
X354494Y87196D01*
X354409Y87230D01*
X354368Y87234D01*
X354346Y87241D01*
X354314Y87240D01*
X354243Y87248D01*
X300306Y87248D01*
X295449Y92105D01*
X295375Y92158D01*
X295305Y92218D01*
X295275Y92230D01*
X295249Y92249D01*
X295162Y92276D01*
X295077Y92310D01*
X295036Y92314D01*
X295014Y92321D01*
X294982Y92320D01*
X294910Y92328D01*
X294839Y92328D01*
X294768Y92317D01*
X294697Y92315D01*
X294648Y92297D01*
X294596Y92289D01*
X294533Y92255D01*
X294466Y92230D01*
X294425Y92198D01*
X294379Y92173D01*
X294330Y92121D01*
X294274Y92077D01*
X294245Y92033D01*
X294210Y91995D01*
X294179Y91930D01*
X294141Y91870D01*
X294128Y91819D01*
X294106Y91772D01*
X294098Y91701D01*
X294081Y91631D01*
X294085Y91579D01*
X294079Y91528D01*
X294094Y91457D01*
X294100Y91386D01*
X294120Y91338D01*
X294131Y91287D01*
X294168Y91226D01*
X294196Y91160D01*
X294241Y91104D01*
X294257Y91076D01*
X294275Y91061D01*
X294301Y91029D01*
X296419Y88911D01*
X296419Y85333D01*
X294737Y83651D01*
X294684Y83577D01*
X294624Y83508D01*
X294612Y83478D01*
X294593Y83451D01*
X294566Y83364D01*
X294532Y83280D01*
X294528Y83239D01*
X294521Y83216D01*
X294522Y83184D01*
X294514Y83113D01*
X294514Y82384D01*
X278296Y66166D01*
X265430Y66166D01*
X265410Y66163D01*
X265391Y66165D01*
X265289Y66143D01*
X265187Y66127D01*
X265170Y66117D01*
X265150Y66113D01*
X265061Y66060D01*
X264970Y66011D01*
X264956Y65997D01*
X264939Y65987D01*
X264872Y65908D01*
X264800Y65833D01*
X264792Y65815D01*
X264779Y65800D01*
X264740Y65704D01*
X264697Y65610D01*
X264695Y65590D01*
X264687Y65572D01*
X264669Y65405D01*
X264669Y65085D01*
X262139Y62555D01*
X258561Y62555D01*
G37*
%LPD*%
%LPC*%
G36*
X27702Y201899D02*
X27702Y201899D01*
X20222Y204997D01*
X14497Y210722D01*
X11399Y218202D01*
X11399Y226298D01*
X14497Y233778D01*
X20222Y239503D01*
X27702Y242601D01*
X35798Y242601D01*
X43278Y239503D01*
X49003Y233778D01*
X52101Y226298D01*
X52101Y218202D01*
X49003Y210722D01*
X43278Y204997D01*
X35798Y201899D01*
X27702Y201899D01*
G37*
%LPD*%
%LPC*%
G36*
X694452Y11399D02*
X694452Y11399D01*
X686972Y14497D01*
X681247Y20222D01*
X678149Y27702D01*
X678149Y35798D01*
X681247Y43278D01*
X686972Y49003D01*
X694452Y52101D01*
X702548Y52101D01*
X710028Y49003D01*
X715753Y43278D01*
X718851Y35798D01*
X718851Y27702D01*
X715753Y20222D01*
X710028Y14497D01*
X702548Y11399D01*
X694452Y11399D01*
G37*
%LPD*%
%LPC*%
G36*
X309361Y109981D02*
X309361Y109981D01*
X307679Y111663D01*
X307605Y111716D01*
X307536Y111776D01*
X307506Y111788D01*
X307479Y111807D01*
X307392Y111834D01*
X307308Y111868D01*
X307267Y111872D01*
X307244Y111879D01*
X307212Y111878D01*
X307141Y111886D01*
X221250Y111886D01*
X172578Y160558D01*
X172504Y160611D01*
X172435Y160671D01*
X172405Y160683D01*
X172378Y160702D01*
X172291Y160729D01*
X172207Y160763D01*
X172166Y160767D01*
X172143Y160774D01*
X172111Y160773D01*
X172040Y160781D01*
X169661Y160781D01*
X167131Y163311D01*
X167131Y166889D01*
X169661Y169419D01*
X173239Y169419D01*
X175769Y166889D01*
X175769Y164510D01*
X175783Y164420D01*
X175791Y164329D01*
X175803Y164299D01*
X175808Y164267D01*
X175851Y164187D01*
X175887Y164103D01*
X175913Y164071D01*
X175924Y164050D01*
X175947Y164028D01*
X175992Y163972D01*
X223027Y116937D01*
X223101Y116884D01*
X223170Y116824D01*
X223200Y116812D01*
X223227Y116793D01*
X223314Y116766D01*
X223398Y116732D01*
X223439Y116728D01*
X223462Y116721D01*
X223494Y116722D01*
X223565Y116714D01*
X256341Y116714D01*
X256412Y116725D01*
X256483Y116727D01*
X256532Y116745D01*
X256584Y116753D01*
X256647Y116787D01*
X256714Y116812D01*
X256755Y116844D01*
X256801Y116869D01*
X256850Y116921D01*
X256906Y116965D01*
X256934Y117009D01*
X256970Y117047D01*
X257001Y117112D01*
X257039Y117172D01*
X257052Y117223D01*
X257074Y117270D01*
X257082Y117341D01*
X257099Y117411D01*
X257095Y117463D01*
X257101Y117514D01*
X257086Y117585D01*
X257080Y117656D01*
X257060Y117704D01*
X257049Y117755D01*
X257012Y117816D01*
X256984Y117882D01*
X256939Y117938D01*
X256923Y117966D01*
X256905Y117981D01*
X256879Y118013D01*
X256031Y118861D01*
X256031Y122439D01*
X258561Y124969D01*
X262139Y124969D01*
X263821Y123287D01*
X263895Y123234D01*
X263964Y123174D01*
X263994Y123162D01*
X264021Y123143D01*
X264108Y123116D01*
X264192Y123082D01*
X264233Y123078D01*
X264256Y123071D01*
X264288Y123072D01*
X264359Y123064D01*
X317301Y123064D01*
X317391Y123078D01*
X317482Y123086D01*
X317512Y123098D01*
X317544Y123103D01*
X317624Y123146D01*
X317708Y123182D01*
X317740Y123208D01*
X317761Y123219D01*
X317768Y123226D01*
X317769Y123226D01*
X317785Y123243D01*
X317839Y123287D01*
X319521Y124969D01*
X323099Y124969D01*
X325629Y122439D01*
X325629Y118861D01*
X323099Y116331D01*
X319521Y116331D01*
X317839Y118013D01*
X317765Y118066D01*
X317696Y118126D01*
X317666Y118138D01*
X317639Y118157D01*
X317552Y118184D01*
X317468Y118218D01*
X317427Y118222D01*
X317404Y118229D01*
X317372Y118228D01*
X317301Y118236D01*
X315159Y118236D01*
X315088Y118225D01*
X315017Y118223D01*
X314968Y118205D01*
X314916Y118197D01*
X314853Y118163D01*
X314786Y118138D01*
X314745Y118106D01*
X314699Y118081D01*
X314650Y118029D01*
X314594Y117985D01*
X314566Y117941D01*
X314530Y117903D01*
X314499Y117838D01*
X314461Y117778D01*
X314448Y117727D01*
X314426Y117680D01*
X314418Y117609D01*
X314401Y117539D01*
X314405Y117487D01*
X314399Y117436D01*
X314414Y117365D01*
X314420Y117294D01*
X314440Y117246D01*
X314451Y117195D01*
X314488Y117134D01*
X314516Y117068D01*
X314561Y117012D01*
X314577Y116984D01*
X314595Y116969D01*
X314621Y116937D01*
X315469Y116089D01*
X315469Y112511D01*
X312939Y109981D01*
X309361Y109981D01*
G37*
%LPD*%
%LPC*%
G36*
X239511Y21081D02*
X239511Y21081D01*
X236981Y23611D01*
X236981Y25271D01*
X236967Y25362D01*
X236959Y25452D01*
X236947Y25482D01*
X236942Y25514D01*
X236899Y25595D01*
X236863Y25679D01*
X236837Y25711D01*
X236826Y25732D01*
X236803Y25754D01*
X236758Y25810D01*
X233963Y28605D01*
X233889Y28658D01*
X233819Y28718D01*
X233789Y28730D01*
X233763Y28749D01*
X233676Y28776D01*
X233591Y28810D01*
X233550Y28814D01*
X233528Y28821D01*
X233496Y28820D01*
X233424Y28828D01*
X60651Y28828D01*
X60561Y28814D01*
X60470Y28806D01*
X60440Y28794D01*
X60408Y28789D01*
X60328Y28746D01*
X60244Y28710D01*
X60212Y28684D01*
X60191Y28673D01*
X60169Y28650D01*
X60113Y28605D01*
X58939Y27431D01*
X55361Y27431D01*
X52831Y29961D01*
X52831Y33539D01*
X55361Y36069D01*
X58939Y36069D01*
X60113Y34895D01*
X60187Y34842D01*
X60256Y34782D01*
X60286Y34770D01*
X60313Y34751D01*
X60400Y34724D01*
X60484Y34690D01*
X60525Y34686D01*
X60548Y34679D01*
X60580Y34680D01*
X60651Y34672D01*
X236160Y34672D01*
X240890Y29942D01*
X240964Y29889D01*
X241034Y29829D01*
X241064Y29817D01*
X241090Y29798D01*
X241177Y29771D01*
X241262Y29737D01*
X241303Y29733D01*
X241325Y29726D01*
X241357Y29727D01*
X241429Y29719D01*
X243089Y29719D01*
X245619Y27189D01*
X245619Y23611D01*
X243089Y21081D01*
X239511Y21081D01*
G37*
%LPD*%
%LPC*%
G36*
X354600Y226186D02*
X354600Y226186D01*
X347651Y233136D01*
X347556Y233204D01*
X347462Y233274D01*
X347456Y233276D01*
X347451Y233279D01*
X347340Y233314D01*
X347228Y233350D01*
X347222Y233350D01*
X347216Y233352D01*
X347099Y233349D01*
X346982Y233348D01*
X346975Y233346D01*
X346970Y233345D01*
X346952Y233339D01*
X346821Y233301D01*
X344668Y232409D01*
X341132Y232409D01*
X337864Y233763D01*
X335363Y236264D01*
X334009Y239532D01*
X334009Y243068D01*
X335363Y246336D01*
X337864Y248837D01*
X341132Y250191D01*
X344668Y250191D01*
X347936Y248837D01*
X350437Y246336D01*
X351791Y243068D01*
X351791Y239532D01*
X350899Y237379D01*
X350872Y237265D01*
X350844Y237152D01*
X350844Y237146D01*
X350843Y237140D01*
X350854Y237023D01*
X350863Y236907D01*
X350865Y236901D01*
X350866Y236895D01*
X350914Y236787D01*
X350959Y236680D01*
X350964Y236675D01*
X350966Y236670D01*
X350979Y236656D01*
X351064Y236549D01*
X356377Y231237D01*
X356451Y231184D01*
X356520Y231124D01*
X356550Y231112D01*
X356577Y231093D01*
X356664Y231066D01*
X356748Y231032D01*
X356789Y231028D01*
X356812Y231021D01*
X356844Y231022D01*
X356915Y231014D01*
X366074Y231014D01*
X366170Y231029D01*
X366267Y231039D01*
X366291Y231049D01*
X366316Y231053D01*
X366402Y231099D01*
X366491Y231139D01*
X366511Y231156D01*
X366534Y231169D01*
X366601Y231239D01*
X366672Y231305D01*
X366685Y231328D01*
X366703Y231347D01*
X366744Y231435D01*
X366791Y231521D01*
X366796Y231546D01*
X366807Y231570D01*
X366817Y231667D01*
X366835Y231763D01*
X366831Y231789D01*
X366834Y231814D01*
X366813Y231910D01*
X366799Y232006D01*
X366787Y232029D01*
X366782Y232055D01*
X366732Y232138D01*
X366687Y232225D01*
X366669Y232244D01*
X366655Y232266D01*
X366581Y232329D01*
X366512Y232397D01*
X366483Y232413D01*
X366468Y232426D01*
X366438Y232438D01*
X366365Y232478D01*
X363264Y233763D01*
X360763Y236264D01*
X359409Y239532D01*
X359409Y243068D01*
X360763Y246336D01*
X363264Y248837D01*
X366532Y250191D01*
X370068Y250191D01*
X373336Y248837D01*
X375837Y246336D01*
X376729Y244184D01*
X376790Y244084D01*
X376850Y243984D01*
X376855Y243980D01*
X376858Y243975D01*
X376948Y243900D01*
X377037Y243824D01*
X377043Y243822D01*
X377048Y243818D01*
X377156Y243776D01*
X377265Y243732D01*
X377273Y243731D01*
X377278Y243730D01*
X377296Y243729D01*
X377432Y243714D01*
X408741Y243714D01*
X408831Y243728D01*
X408922Y243736D01*
X408952Y243748D01*
X408984Y243753D01*
X409064Y243796D01*
X409148Y243832D01*
X409180Y243858D01*
X409201Y243869D01*
X409223Y243892D01*
X409279Y243937D01*
X410961Y245619D01*
X414539Y245619D01*
X417069Y243089D01*
X417069Y239511D01*
X414539Y236981D01*
X410961Y236981D01*
X409279Y238663D01*
X409205Y238716D01*
X409136Y238776D01*
X409106Y238788D01*
X409079Y238807D01*
X408992Y238834D01*
X408908Y238868D01*
X408867Y238872D01*
X408844Y238879D01*
X408812Y238878D01*
X408741Y238886D01*
X377432Y238886D01*
X377317Y238867D01*
X377201Y238850D01*
X377196Y238848D01*
X377189Y238847D01*
X377087Y238792D01*
X376982Y238739D01*
X376977Y238734D01*
X376972Y238731D01*
X376892Y238647D01*
X376810Y238563D01*
X376806Y238557D01*
X376803Y238553D01*
X376795Y238536D01*
X376729Y238416D01*
X375837Y236264D01*
X373336Y233763D01*
X370235Y232478D01*
X370152Y232427D01*
X370066Y232381D01*
X370048Y232362D01*
X370026Y232349D01*
X369964Y232274D01*
X369897Y232203D01*
X369886Y232179D01*
X369869Y232159D01*
X369834Y232068D01*
X369793Y231980D01*
X369790Y231954D01*
X369781Y231930D01*
X369777Y231832D01*
X369766Y231736D01*
X369772Y231710D01*
X369771Y231684D01*
X369798Y231590D01*
X369818Y231495D01*
X369832Y231473D01*
X369839Y231448D01*
X369895Y231368D01*
X369945Y231284D01*
X369964Y231267D01*
X369979Y231246D01*
X370058Y231187D01*
X370132Y231124D01*
X370156Y231114D01*
X370177Y231099D01*
X370269Y231069D01*
X370360Y231032D01*
X370392Y231029D01*
X370411Y231023D01*
X370444Y231023D01*
X370526Y231014D01*
X417785Y231014D01*
X417875Y231028D01*
X417966Y231036D01*
X417996Y231048D01*
X418028Y231053D01*
X418108Y231096D01*
X418192Y231132D01*
X418224Y231158D01*
X418245Y231169D01*
X418267Y231192D01*
X418323Y231237D01*
X420908Y233822D01*
X420961Y233896D01*
X421021Y233965D01*
X421033Y233995D01*
X421052Y234022D01*
X421079Y234109D01*
X421113Y234193D01*
X421117Y234234D01*
X421124Y234257D01*
X421123Y234289D01*
X421131Y234360D01*
X421131Y236739D01*
X423661Y239269D01*
X427239Y239269D01*
X429769Y236739D01*
X429769Y233161D01*
X427239Y230631D01*
X424860Y230631D01*
X424770Y230617D01*
X424679Y230609D01*
X424649Y230597D01*
X424617Y230592D01*
X424537Y230549D01*
X424453Y230513D01*
X424421Y230487D01*
X424400Y230476D01*
X424378Y230453D01*
X424322Y230408D01*
X420100Y226186D01*
X354600Y226186D01*
G37*
%LPD*%
%LPC*%
G36*
X226832Y3809D02*
X226832Y3809D01*
X223564Y5163D01*
X221063Y7664D01*
X219709Y10932D01*
X219709Y14468D01*
X221063Y17736D01*
X223564Y20237D01*
X226832Y21591D01*
X230368Y21591D01*
X233636Y20237D01*
X236137Y17736D01*
X237344Y14822D01*
X237406Y14722D01*
X237466Y14622D01*
X237471Y14618D01*
X237474Y14613D01*
X237564Y14538D01*
X237653Y14462D01*
X237659Y14460D01*
X237664Y14456D01*
X237772Y14414D01*
X237881Y14370D01*
X237889Y14369D01*
X237893Y14368D01*
X237911Y14367D01*
X238048Y14352D01*
X239350Y14352D01*
X239441Y14366D01*
X239531Y14374D01*
X239561Y14386D01*
X239593Y14391D01*
X239674Y14434D01*
X239758Y14470D01*
X239790Y14496D01*
X239811Y14507D01*
X239833Y14530D01*
X239889Y14575D01*
X249318Y24004D01*
X275082Y24004D01*
X275102Y24007D01*
X275121Y24005D01*
X275223Y24027D01*
X275325Y24043D01*
X275342Y24053D01*
X275362Y24057D01*
X275451Y24110D01*
X275542Y24159D01*
X275556Y24173D01*
X275573Y24183D01*
X275640Y24262D01*
X275712Y24337D01*
X275720Y24355D01*
X275733Y24370D01*
X275772Y24466D01*
X275815Y24560D01*
X275817Y24580D01*
X275825Y24598D01*
X275843Y24765D01*
X275843Y26873D01*
X277927Y28957D01*
X280873Y28957D01*
X282957Y26873D01*
X282957Y23927D01*
X281587Y22557D01*
X281560Y22520D01*
X281526Y22488D01*
X281489Y22420D01*
X281443Y22357D01*
X281430Y22313D01*
X281408Y22273D01*
X281394Y22196D01*
X281371Y22122D01*
X281372Y22076D01*
X281364Y22031D01*
X281375Y21954D01*
X281377Y21876D01*
X281393Y21833D01*
X281400Y21788D01*
X281435Y21718D01*
X281462Y21645D01*
X281490Y21609D01*
X281511Y21568D01*
X281567Y21514D01*
X281615Y21453D01*
X281654Y21428D01*
X281687Y21396D01*
X281807Y21330D01*
X281822Y21320D01*
X281827Y21319D01*
X281834Y21315D01*
X284436Y20237D01*
X286937Y17736D01*
X288291Y14468D01*
X288291Y10932D01*
X286937Y7664D01*
X284436Y5163D01*
X281168Y3809D01*
X277632Y3809D01*
X274364Y5163D01*
X271863Y7664D01*
X270509Y10932D01*
X270509Y14468D01*
X271863Y17736D01*
X273527Y19401D01*
X273569Y19459D01*
X273619Y19511D01*
X273641Y19558D01*
X273671Y19600D01*
X273692Y19669D01*
X273722Y19734D01*
X273728Y19786D01*
X273743Y19836D01*
X273741Y19907D01*
X273749Y19978D01*
X273738Y20029D01*
X273737Y20081D01*
X273712Y20149D01*
X273697Y20219D01*
X273670Y20264D01*
X273652Y20312D01*
X273608Y20368D01*
X273571Y20430D01*
X273531Y20464D01*
X273499Y20504D01*
X273438Y20543D01*
X273384Y20590D01*
X273336Y20609D01*
X273292Y20637D01*
X273222Y20655D01*
X273156Y20682D01*
X273084Y20690D01*
X273053Y20698D01*
X273030Y20696D01*
X272989Y20700D01*
X260411Y20700D01*
X260340Y20689D01*
X260268Y20687D01*
X260220Y20669D01*
X260168Y20661D01*
X260105Y20627D01*
X260037Y20602D01*
X259997Y20570D01*
X259951Y20545D01*
X259901Y20493D01*
X259845Y20449D01*
X259817Y20405D01*
X259781Y20367D01*
X259751Y20302D01*
X259712Y20242D01*
X259700Y20191D01*
X259678Y20144D01*
X259670Y20073D01*
X259652Y20003D01*
X259656Y19951D01*
X259651Y19900D01*
X259666Y19829D01*
X259672Y19758D01*
X259692Y19710D01*
X259703Y19659D01*
X259740Y19598D01*
X259768Y19532D01*
X259813Y19476D01*
X259829Y19448D01*
X259847Y19433D01*
X259873Y19401D01*
X261537Y17736D01*
X262891Y14468D01*
X262891Y10932D01*
X261537Y7664D01*
X259036Y5163D01*
X255768Y3809D01*
X252232Y3809D01*
X248964Y5163D01*
X246463Y7664D01*
X245109Y10932D01*
X245109Y13286D01*
X245098Y13356D01*
X245096Y13428D01*
X245078Y13477D01*
X245070Y13528D01*
X245036Y13592D01*
X245011Y13659D01*
X244979Y13700D01*
X244954Y13746D01*
X244902Y13795D01*
X244858Y13851D01*
X244814Y13879D01*
X244776Y13915D01*
X244711Y13945D01*
X244651Y13984D01*
X244600Y13997D01*
X244553Y14019D01*
X244482Y14027D01*
X244412Y14044D01*
X244360Y14040D01*
X244309Y14046D01*
X244238Y14031D01*
X244167Y14025D01*
X244119Y14005D01*
X244068Y13994D01*
X244007Y13957D01*
X243941Y13929D01*
X243885Y13884D01*
X243857Y13867D01*
X243842Y13850D01*
X243810Y13824D01*
X241034Y11048D01*
X238048Y11048D01*
X237933Y11029D01*
X237817Y11012D01*
X237811Y11010D01*
X237805Y11009D01*
X237702Y10954D01*
X237598Y10901D01*
X237593Y10896D01*
X237588Y10893D01*
X237508Y10809D01*
X237425Y10725D01*
X237422Y10719D01*
X237418Y10715D01*
X237410Y10698D01*
X237344Y10578D01*
X236137Y7664D01*
X233636Y5163D01*
X230368Y3809D01*
X226832Y3809D01*
G37*
%LPD*%
%LPC*%
G36*
X525261Y52831D02*
X525261Y52831D01*
X522731Y55361D01*
X522731Y58939D01*
X525261Y61469D01*
X527640Y61469D01*
X527730Y61483D01*
X527821Y61491D01*
X527851Y61503D01*
X527883Y61508D01*
X527963Y61551D01*
X528047Y61587D01*
X528079Y61613D01*
X528100Y61624D01*
X528122Y61647D01*
X528178Y61692D01*
X532400Y65914D01*
X599241Y65914D01*
X599331Y65928D01*
X599422Y65936D01*
X599452Y65948D01*
X599484Y65953D01*
X599564Y65996D01*
X599648Y66032D01*
X599680Y66058D01*
X599701Y66069D01*
X599723Y66092D01*
X599779Y66137D01*
X601461Y67819D01*
X605039Y67819D01*
X607569Y65289D01*
X607569Y61711D01*
X605039Y59181D01*
X601461Y59181D01*
X599779Y60863D01*
X599705Y60916D01*
X599636Y60976D01*
X599606Y60988D01*
X599579Y61007D01*
X599492Y61034D01*
X599408Y61068D01*
X599367Y61072D01*
X599344Y61079D01*
X599312Y61078D01*
X599241Y61086D01*
X534715Y61086D01*
X534625Y61072D01*
X534534Y61064D01*
X534504Y61052D01*
X534472Y61047D01*
X534392Y61004D01*
X534308Y60968D01*
X534276Y60942D01*
X534255Y60931D01*
X534233Y60908D01*
X534177Y60863D01*
X531592Y58278D01*
X531539Y58204D01*
X531479Y58135D01*
X531467Y58105D01*
X531448Y58078D01*
X531421Y57991D01*
X531387Y57907D01*
X531383Y57866D01*
X531376Y57843D01*
X531377Y57811D01*
X531369Y57740D01*
X531369Y55361D01*
X528839Y52831D01*
X525261Y52831D01*
G37*
%LPD*%
%LPC*%
G36*
X303032Y3809D02*
X303032Y3809D01*
X299764Y5163D01*
X297263Y7664D01*
X295909Y10932D01*
X295909Y14468D01*
X297263Y17736D01*
X299764Y20237D01*
X303032Y21591D01*
X306568Y21591D01*
X309836Y20237D01*
X312337Y17736D01*
X312344Y17719D01*
X312369Y17680D01*
X312384Y17637D01*
X312433Y17576D01*
X312452Y17545D01*
X312462Y17528D01*
X312463Y17527D01*
X312474Y17510D01*
X312509Y17481D01*
X312538Y17445D01*
X312604Y17403D01*
X312663Y17353D01*
X312706Y17337D01*
X312745Y17312D01*
X312820Y17293D01*
X312893Y17265D01*
X312939Y17263D01*
X312983Y17252D01*
X313061Y17258D01*
X313139Y17254D01*
X313183Y17267D01*
X313229Y17271D01*
X313287Y17295D01*
X313299Y17297D01*
X313314Y17305D01*
X313375Y17323D01*
X313413Y17349D01*
X313455Y17367D01*
X313502Y17405D01*
X313517Y17413D01*
X313532Y17429D01*
X313561Y17452D01*
X313577Y17463D01*
X313580Y17467D01*
X313586Y17472D01*
X323245Y27131D01*
X323298Y27205D01*
X323358Y27275D01*
X323370Y27305D01*
X323389Y27331D01*
X323416Y27418D01*
X323450Y27503D01*
X323454Y27544D01*
X323461Y27566D01*
X323460Y27598D01*
X323468Y27670D01*
X323468Y30048D01*
X325552Y32132D01*
X327930Y32132D01*
X328021Y32146D01*
X328111Y32154D01*
X328141Y32166D01*
X328173Y32171D01*
X328254Y32214D01*
X328338Y32250D01*
X328370Y32276D01*
X328391Y32287D01*
X328413Y32310D01*
X328469Y32355D01*
X329516Y33402D01*
X351906Y33402D01*
X351997Y33416D01*
X352087Y33424D01*
X352117Y33436D01*
X352149Y33441D01*
X352230Y33484D01*
X352314Y33520D01*
X352346Y33546D01*
X352367Y33557D01*
X352389Y33580D01*
X352445Y33625D01*
X354127Y35307D01*
X357073Y35307D01*
X359157Y33223D01*
X359157Y30277D01*
X357073Y28193D01*
X354127Y28193D01*
X352445Y29875D01*
X352371Y29928D01*
X352301Y29988D01*
X352271Y30000D01*
X352245Y30019D01*
X352158Y30046D01*
X352073Y30080D01*
X352032Y30084D01*
X352010Y30091D01*
X351978Y30090D01*
X351906Y30098D01*
X331343Y30098D01*
X331323Y30095D01*
X331304Y30097D01*
X331202Y30075D01*
X331100Y30059D01*
X331083Y30049D01*
X331063Y30045D01*
X330974Y29992D01*
X330883Y29943D01*
X330869Y29929D01*
X330852Y29919D01*
X330785Y29840D01*
X330713Y29765D01*
X330705Y29747D01*
X330692Y29732D01*
X330653Y29636D01*
X330610Y29542D01*
X330608Y29522D01*
X330600Y29504D01*
X330582Y29337D01*
X330582Y27102D01*
X328498Y25018D01*
X326120Y25018D01*
X326029Y25004D01*
X325939Y24996D01*
X325909Y24984D01*
X325877Y24979D01*
X325796Y24936D01*
X325712Y24900D01*
X325680Y24874D01*
X325659Y24863D01*
X325637Y24840D01*
X325581Y24795D01*
X313914Y13128D01*
X313861Y13054D01*
X313801Y12984D01*
X313789Y12954D01*
X313770Y12928D01*
X313743Y12841D01*
X313709Y12756D01*
X313705Y12715D01*
X313698Y12693D01*
X313699Y12661D01*
X313691Y12590D01*
X313691Y10932D01*
X312337Y7664D01*
X309836Y5163D01*
X306568Y3809D01*
X303032Y3809D01*
G37*
%LPD*%
%LPC*%
G36*
X23177Y103123D02*
X23177Y103123D01*
X19069Y104825D01*
X15925Y107969D01*
X14223Y112077D01*
X14223Y116523D01*
X15925Y120631D01*
X19069Y123775D01*
X23177Y125477D01*
X27623Y125477D01*
X31731Y123775D01*
X34875Y120631D01*
X36577Y116523D01*
X36577Y112077D01*
X34875Y107969D01*
X31731Y104825D01*
X27623Y103123D01*
X23177Y103123D01*
G37*
%LPD*%
%LPC*%
G36*
X683577Y103123D02*
X683577Y103123D01*
X679469Y104825D01*
X676325Y107969D01*
X674623Y112077D01*
X674623Y116523D01*
X676325Y120631D01*
X679469Y123775D01*
X683577Y125477D01*
X688023Y125477D01*
X692131Y123775D01*
X695275Y120631D01*
X696977Y116523D01*
X696977Y112077D01*
X695275Y107969D01*
X692131Y104825D01*
X688023Y103123D01*
X683577Y103123D01*
G37*
%LPD*%
%LPC*%
G36*
X683577Y153923D02*
X683577Y153923D01*
X679469Y155625D01*
X676325Y158769D01*
X674623Y162877D01*
X674623Y167323D01*
X676325Y171431D01*
X679469Y174575D01*
X683577Y176277D01*
X688023Y176277D01*
X692131Y174575D01*
X695275Y171431D01*
X696977Y167323D01*
X696977Y162877D01*
X695275Y158769D01*
X692131Y155625D01*
X688023Y153923D01*
X683577Y153923D01*
G37*
%LPD*%
%LPC*%
G36*
X23177Y128523D02*
X23177Y128523D01*
X19069Y130225D01*
X15925Y133369D01*
X14223Y137477D01*
X14223Y141923D01*
X15925Y146031D01*
X19069Y149175D01*
X23177Y150877D01*
X27623Y150877D01*
X31731Y149175D01*
X34875Y146031D01*
X36577Y141923D01*
X36577Y137477D01*
X34875Y133369D01*
X31731Y130225D01*
X27623Y128523D01*
X23177Y128523D01*
G37*
%LPD*%
%LPC*%
G36*
X683577Y128523D02*
X683577Y128523D01*
X679469Y130225D01*
X676325Y133369D01*
X674623Y137477D01*
X674623Y141923D01*
X676325Y146031D01*
X679469Y149175D01*
X683577Y150877D01*
X688023Y150877D01*
X692131Y149175D01*
X695275Y146031D01*
X696977Y141923D01*
X696977Y137477D01*
X695275Y133369D01*
X692131Y130225D01*
X688023Y128523D01*
X683577Y128523D01*
G37*
%LPD*%
%LPC*%
G36*
X518911Y160781D02*
X518911Y160781D01*
X516381Y163311D01*
X516381Y165690D01*
X516367Y165780D01*
X516359Y165871D01*
X516347Y165901D01*
X516342Y165933D01*
X516317Y165979D01*
X516316Y165981D01*
X516311Y165990D01*
X516299Y166013D01*
X516263Y166097D01*
X516237Y166129D01*
X516226Y166150D01*
X516203Y166172D01*
X516200Y166176D01*
X516190Y166192D01*
X516180Y166201D01*
X516158Y166228D01*
X513273Y169113D01*
X513199Y169166D01*
X513130Y169226D01*
X513100Y169238D01*
X513073Y169257D01*
X512986Y169284D01*
X512902Y169318D01*
X512861Y169322D01*
X512838Y169329D01*
X512806Y169328D01*
X512735Y169336D01*
X465169Y169336D01*
X465079Y169322D01*
X464988Y169314D01*
X464958Y169302D01*
X464926Y169297D01*
X464846Y169254D01*
X464762Y169218D01*
X464730Y169192D01*
X464709Y169181D01*
X464687Y169158D01*
X464631Y169113D01*
X462949Y167431D01*
X459371Y167431D01*
X456841Y169961D01*
X456841Y173539D01*
X459371Y176069D01*
X462949Y176069D01*
X464631Y174387D01*
X464705Y174334D01*
X464774Y174274D01*
X464804Y174262D01*
X464831Y174243D01*
X464918Y174216D01*
X465002Y174182D01*
X465043Y174178D01*
X465066Y174171D01*
X465098Y174172D01*
X465169Y174164D01*
X515050Y174164D01*
X519572Y169642D01*
X519646Y169589D01*
X519715Y169529D01*
X519745Y169517D01*
X519772Y169498D01*
X519859Y169471D01*
X519943Y169437D01*
X519984Y169433D01*
X520007Y169426D01*
X520039Y169427D01*
X520110Y169419D01*
X522489Y169419D01*
X525019Y166889D01*
X525019Y163311D01*
X522489Y160781D01*
X518911Y160781D01*
G37*
%LPD*%
%LPC*%
G36*
X569711Y40131D02*
X569711Y40131D01*
X567181Y42661D01*
X567181Y46239D01*
X569711Y48769D01*
X573289Y48769D01*
X574971Y47087D01*
X575045Y47034D01*
X575114Y46974D01*
X575144Y46962D01*
X575171Y46943D01*
X575258Y46916D01*
X575342Y46882D01*
X575383Y46878D01*
X575406Y46871D01*
X575438Y46872D01*
X575509Y46864D01*
X618291Y46864D01*
X618381Y46878D01*
X618472Y46886D01*
X618502Y46898D01*
X618534Y46903D01*
X618614Y46946D01*
X618698Y46982D01*
X618730Y47008D01*
X618751Y47019D01*
X618773Y47042D01*
X618829Y47087D01*
X620511Y48769D01*
X624089Y48769D01*
X626619Y46239D01*
X626619Y42661D01*
X624089Y40131D01*
X620511Y40131D01*
X618829Y41813D01*
X618755Y41866D01*
X618686Y41926D01*
X618656Y41938D01*
X618629Y41957D01*
X618542Y41984D01*
X618458Y42018D01*
X618417Y42022D01*
X618394Y42029D01*
X618362Y42028D01*
X618291Y42036D01*
X575509Y42036D01*
X575419Y42022D01*
X575328Y42014D01*
X575298Y42002D01*
X575266Y41997D01*
X575186Y41954D01*
X575102Y41918D01*
X575070Y41892D01*
X575049Y41881D01*
X575027Y41858D01*
X574971Y41813D01*
X573289Y40131D01*
X569711Y40131D01*
G37*
%LPD*%
%LPC*%
G36*
X372806Y149478D02*
X372806Y149478D01*
X369398Y150890D01*
X366790Y153498D01*
X365378Y156906D01*
X365378Y160594D01*
X366790Y164002D01*
X369398Y166610D01*
X372806Y168022D01*
X376494Y168022D01*
X379902Y166610D01*
X382510Y164002D01*
X383922Y160594D01*
X383922Y156906D01*
X382510Y153498D01*
X379902Y150890D01*
X376494Y149478D01*
X372806Y149478D01*
G37*
%LPD*%
%LPC*%
G36*
X518932Y232409D02*
X518932Y232409D01*
X515664Y233763D01*
X513163Y236264D01*
X511809Y239532D01*
X511809Y243068D01*
X513163Y246336D01*
X515664Y248837D01*
X518932Y250191D01*
X522468Y250191D01*
X525736Y248837D01*
X528237Y246336D01*
X529591Y243068D01*
X529591Y239532D01*
X528237Y236264D01*
X525736Y233763D01*
X522468Y232409D01*
X518932Y232409D01*
G37*
%LPD*%
%LPC*%
G36*
X493532Y232409D02*
X493532Y232409D01*
X490264Y233763D01*
X487763Y236264D01*
X486409Y239532D01*
X486409Y243068D01*
X487763Y246336D01*
X490264Y248837D01*
X493532Y250191D01*
X497068Y250191D01*
X500336Y248837D01*
X502837Y246336D01*
X504191Y243068D01*
X504191Y239532D01*
X502837Y236264D01*
X500336Y233763D01*
X497068Y232409D01*
X493532Y232409D01*
G37*
%LPD*%
%LPC*%
G36*
X442732Y232409D02*
X442732Y232409D01*
X439464Y233763D01*
X436963Y236264D01*
X435609Y239532D01*
X435609Y243068D01*
X436963Y246336D01*
X439464Y248837D01*
X442732Y250191D01*
X446268Y250191D01*
X449536Y248837D01*
X452037Y246336D01*
X453391Y243068D01*
X453391Y239532D01*
X452037Y236264D01*
X449536Y233763D01*
X446268Y232409D01*
X442732Y232409D01*
G37*
%LPD*%
%LPC*%
G36*
X671332Y232409D02*
X671332Y232409D01*
X668064Y233763D01*
X665563Y236264D01*
X664209Y239532D01*
X664209Y243068D01*
X665563Y246336D01*
X668064Y248837D01*
X671332Y250191D01*
X674868Y250191D01*
X678136Y248837D01*
X680637Y246336D01*
X681991Y243068D01*
X681991Y239532D01*
X680637Y236264D01*
X678136Y233763D01*
X674868Y232409D01*
X671332Y232409D01*
G37*
%LPD*%
%LPC*%
G36*
X645932Y232409D02*
X645932Y232409D01*
X642664Y233763D01*
X640163Y236264D01*
X638809Y239532D01*
X638809Y243068D01*
X640163Y246336D01*
X642664Y248837D01*
X645932Y250191D01*
X649468Y250191D01*
X652736Y248837D01*
X655237Y246336D01*
X656591Y243068D01*
X656591Y239532D01*
X655237Y236264D01*
X652736Y233763D01*
X649468Y232409D01*
X645932Y232409D01*
G37*
%LPD*%
%LPC*%
G36*
X620532Y232409D02*
X620532Y232409D01*
X617264Y233763D01*
X614763Y236264D01*
X613409Y239532D01*
X613409Y243068D01*
X614763Y246336D01*
X617264Y248837D01*
X620532Y250191D01*
X624068Y250191D01*
X627336Y248837D01*
X629837Y246336D01*
X631191Y243068D01*
X631191Y239532D01*
X629837Y236264D01*
X627336Y233763D01*
X624068Y232409D01*
X620532Y232409D01*
G37*
%LPD*%
%LPC*%
G36*
X595132Y232409D02*
X595132Y232409D01*
X591864Y233763D01*
X589363Y236264D01*
X588009Y239532D01*
X588009Y243068D01*
X589363Y246336D01*
X591864Y248837D01*
X595132Y250191D01*
X598668Y250191D01*
X601936Y248837D01*
X604437Y246336D01*
X605791Y243068D01*
X605791Y239532D01*
X604437Y236264D01*
X601936Y233763D01*
X598668Y232409D01*
X595132Y232409D01*
G37*
%LPD*%
%LPC*%
G36*
X569732Y232409D02*
X569732Y232409D01*
X566464Y233763D01*
X563963Y236264D01*
X562609Y239532D01*
X562609Y243068D01*
X563963Y246336D01*
X566464Y248837D01*
X569732Y250191D01*
X573268Y250191D01*
X576536Y248837D01*
X579037Y246336D01*
X580391Y243068D01*
X580391Y239532D01*
X579037Y236264D01*
X576536Y233763D01*
X573268Y232409D01*
X569732Y232409D01*
G37*
%LPD*%
%LPC*%
G36*
X150632Y3809D02*
X150632Y3809D01*
X147364Y5163D01*
X144863Y7664D01*
X143509Y10932D01*
X143509Y14468D01*
X144863Y17736D01*
X147364Y20237D01*
X150632Y21591D01*
X154168Y21591D01*
X157436Y20237D01*
X159937Y17736D01*
X161291Y14468D01*
X161291Y10932D01*
X159937Y7664D01*
X157436Y5163D01*
X154168Y3809D01*
X150632Y3809D01*
G37*
%LPD*%
%LPC*%
G36*
X544332Y232409D02*
X544332Y232409D01*
X541064Y233763D01*
X538563Y236264D01*
X537209Y239532D01*
X537209Y243068D01*
X538563Y246336D01*
X541064Y248837D01*
X544332Y250191D01*
X547868Y250191D01*
X551136Y248837D01*
X553637Y246336D01*
X554991Y243068D01*
X554991Y239532D01*
X553637Y236264D01*
X551136Y233763D01*
X547868Y232409D01*
X544332Y232409D01*
G37*
%LPD*%
%LPC*%
G36*
X468132Y232409D02*
X468132Y232409D01*
X464864Y233763D01*
X462363Y236264D01*
X461009Y239532D01*
X461009Y243068D01*
X462363Y246336D01*
X464864Y248837D01*
X468132Y250191D01*
X471668Y250191D01*
X474936Y248837D01*
X477437Y246336D01*
X478791Y243068D01*
X478791Y239532D01*
X477437Y236264D01*
X474936Y233763D01*
X471668Y232409D01*
X468132Y232409D01*
G37*
%LPD*%
%LPC*%
G36*
X315732Y232409D02*
X315732Y232409D01*
X312464Y233763D01*
X309963Y236264D01*
X308609Y239532D01*
X308609Y243068D01*
X309963Y246336D01*
X312464Y248837D01*
X315732Y250191D01*
X319268Y250191D01*
X322536Y248837D01*
X325037Y246336D01*
X326391Y243068D01*
X326391Y239532D01*
X325037Y236264D01*
X322536Y233763D01*
X319268Y232409D01*
X315732Y232409D01*
G37*
%LPD*%
%LPC*%
G36*
X125232Y3809D02*
X125232Y3809D01*
X121964Y5163D01*
X119463Y7664D01*
X118109Y10932D01*
X118109Y14468D01*
X119463Y17736D01*
X121964Y20237D01*
X125232Y21591D01*
X128768Y21591D01*
X132036Y20237D01*
X134537Y17736D01*
X135891Y14468D01*
X135891Y10932D01*
X134537Y7664D01*
X132036Y5163D01*
X128768Y3809D01*
X125232Y3809D01*
G37*
%LPD*%
%LPC*%
G36*
X328432Y3809D02*
X328432Y3809D01*
X325164Y5163D01*
X322663Y7664D01*
X321309Y10932D01*
X321309Y14468D01*
X322663Y17736D01*
X325164Y20237D01*
X328432Y21591D01*
X331968Y21591D01*
X335236Y20237D01*
X337737Y17736D01*
X339091Y14468D01*
X339091Y10932D01*
X337737Y7664D01*
X335236Y5163D01*
X331968Y3809D01*
X328432Y3809D01*
G37*
%LPD*%
%LPC*%
G36*
X99832Y3809D02*
X99832Y3809D01*
X96564Y5163D01*
X94063Y7664D01*
X92709Y10932D01*
X92709Y14468D01*
X94063Y17736D01*
X96564Y20237D01*
X99832Y21591D01*
X103368Y21591D01*
X106636Y20237D01*
X109137Y17736D01*
X110491Y14468D01*
X110491Y10932D01*
X109137Y7664D01*
X106636Y5163D01*
X103368Y3809D01*
X99832Y3809D01*
G37*
%LPD*%
%LPC*%
G36*
X201432Y3809D02*
X201432Y3809D01*
X198164Y5163D01*
X195663Y7664D01*
X194309Y10932D01*
X194309Y14468D01*
X195663Y17736D01*
X198164Y20237D01*
X201432Y21591D01*
X204968Y21591D01*
X208236Y20237D01*
X210737Y17736D01*
X212091Y14468D01*
X212091Y10932D01*
X210737Y7664D01*
X208236Y5163D01*
X204968Y3809D01*
X201432Y3809D01*
G37*
%LPD*%
%LPC*%
G36*
X176032Y3809D02*
X176032Y3809D01*
X172764Y5163D01*
X170263Y7664D01*
X168909Y10932D01*
X168909Y14468D01*
X170263Y17736D01*
X172764Y20237D01*
X176032Y21591D01*
X179568Y21591D01*
X182836Y20237D01*
X185337Y17736D01*
X186691Y14468D01*
X186691Y10932D01*
X185337Y7664D01*
X182836Y5163D01*
X179568Y3809D01*
X176032Y3809D01*
G37*
%LPD*%
%LPC*%
G36*
X474461Y192531D02*
X474461Y192531D01*
X471931Y195061D01*
X471931Y197440D01*
X471917Y197530D01*
X471909Y197621D01*
X471897Y197651D01*
X471892Y197683D01*
X471849Y197763D01*
X471813Y197847D01*
X471787Y197879D01*
X471776Y197900D01*
X471753Y197922D01*
X471708Y197978D01*
X468092Y201594D01*
X468018Y201647D01*
X467949Y201707D01*
X467919Y201719D01*
X467892Y201738D01*
X467805Y201765D01*
X467721Y201799D01*
X467680Y201803D01*
X467657Y201810D01*
X467625Y201809D01*
X467554Y201817D01*
X453828Y201817D01*
X453738Y201802D01*
X453647Y201795D01*
X453617Y201783D01*
X453586Y201777D01*
X453505Y201735D01*
X453421Y201699D01*
X453389Y201673D01*
X453368Y201662D01*
X453346Y201639D01*
X453290Y201594D01*
X451608Y199912D01*
X448030Y199912D01*
X445500Y202442D01*
X445500Y206020D01*
X448030Y208550D01*
X451608Y208550D01*
X453290Y206868D01*
X453364Y206815D01*
X453433Y206755D01*
X453464Y206743D01*
X453490Y206724D01*
X453577Y206697D01*
X453662Y206663D01*
X453702Y206659D01*
X453725Y206652D01*
X453757Y206653D01*
X453828Y206645D01*
X469869Y206645D01*
X475122Y201392D01*
X475196Y201339D01*
X475265Y201279D01*
X475295Y201267D01*
X475322Y201248D01*
X475409Y201221D01*
X475493Y201187D01*
X475534Y201183D01*
X475557Y201176D01*
X475589Y201177D01*
X475660Y201169D01*
X478039Y201169D01*
X480569Y198639D01*
X480569Y195061D01*
X478039Y192531D01*
X474461Y192531D01*
G37*
%LPD*%
%LPC*%
G36*
X347777Y40893D02*
X347777Y40893D01*
X345693Y42977D01*
X345693Y45923D01*
X347777Y48007D01*
X350723Y48007D01*
X352405Y46325D01*
X352479Y46272D01*
X352549Y46212D01*
X352579Y46200D01*
X352605Y46181D01*
X352692Y46154D01*
X352777Y46120D01*
X352818Y46116D01*
X352840Y46109D01*
X352872Y46110D01*
X352944Y46102D01*
X366130Y46102D01*
X366201Y46113D01*
X366273Y46115D01*
X366322Y46133D01*
X366373Y46141D01*
X366437Y46175D01*
X366504Y46200D01*
X366545Y46232D01*
X366591Y46257D01*
X366640Y46309D01*
X366696Y46353D01*
X366724Y46397D01*
X366760Y46435D01*
X366790Y46500D01*
X366829Y46560D01*
X366842Y46611D01*
X366864Y46658D01*
X366872Y46729D01*
X366889Y46799D01*
X366885Y46851D01*
X366891Y46902D01*
X366875Y46973D01*
X366870Y47044D01*
X366850Y47092D01*
X366838Y47143D01*
X366802Y47204D01*
X366774Y47270D01*
X366729Y47326D01*
X366712Y47354D01*
X366694Y47369D01*
X366669Y47401D01*
X364743Y49327D01*
X364743Y52273D01*
X366827Y54357D01*
X369773Y54357D01*
X371857Y52273D01*
X371857Y49327D01*
X369931Y47401D01*
X369889Y47343D01*
X369840Y47291D01*
X369818Y47244D01*
X369788Y47202D01*
X369767Y47133D01*
X369736Y47068D01*
X369731Y47016D01*
X369715Y46966D01*
X369717Y46895D01*
X369709Y46824D01*
X369720Y46773D01*
X369722Y46721D01*
X369746Y46653D01*
X369762Y46583D01*
X369788Y46538D01*
X369806Y46490D01*
X369851Y46434D01*
X369888Y46372D01*
X369927Y46338D01*
X369960Y46298D01*
X370020Y46259D01*
X370075Y46212D01*
X370123Y46193D01*
X370167Y46165D01*
X370236Y46147D01*
X370303Y46120D01*
X370374Y46112D01*
X370405Y46104D01*
X370429Y46106D01*
X370470Y46102D01*
X377306Y46102D01*
X377397Y46116D01*
X377487Y46124D01*
X377517Y46136D01*
X377549Y46141D01*
X377630Y46184D01*
X377714Y46220D01*
X377746Y46246D01*
X377767Y46257D01*
X377789Y46280D01*
X377845Y46325D01*
X379527Y48007D01*
X382473Y48007D01*
X384557Y45923D01*
X384557Y42977D01*
X382473Y40893D01*
X379527Y40893D01*
X377845Y42575D01*
X377771Y42628D01*
X377701Y42688D01*
X377671Y42700D01*
X377645Y42719D01*
X377558Y42746D01*
X377473Y42780D01*
X377432Y42784D01*
X377410Y42791D01*
X377378Y42790D01*
X377306Y42798D01*
X352944Y42798D01*
X352853Y42784D01*
X352763Y42776D01*
X352733Y42764D01*
X352701Y42759D01*
X352620Y42716D01*
X352536Y42680D01*
X352504Y42654D01*
X352483Y42643D01*
X352461Y42620D01*
X352405Y42575D01*
X350723Y40893D01*
X347777Y40893D01*
G37*
%LPD*%
%LPC*%
G36*
X328411Y71881D02*
X328411Y71881D01*
X325881Y74411D01*
X325881Y77989D01*
X328411Y80519D01*
X331989Y80519D01*
X334519Y77989D01*
X334519Y74411D01*
X331989Y71881D01*
X328411Y71881D01*
G37*
%LPD*%
%LPC*%
G36*
X422883Y64753D02*
X422883Y64753D01*
X420353Y67283D01*
X420353Y70861D01*
X422883Y73390D01*
X426461Y73390D01*
X428990Y70861D01*
X428990Y67283D01*
X426461Y64753D01*
X422883Y64753D01*
G37*
%LPD*%
%LPC*%
G36*
X236971Y62991D02*
X236971Y62991D01*
X234441Y65521D01*
X234441Y69099D01*
X236971Y71629D01*
X240549Y71629D01*
X243079Y69099D01*
X243079Y65521D01*
X240549Y62991D01*
X236971Y62991D01*
G37*
%LPD*%
%LPC*%
G36*
X582411Y192531D02*
X582411Y192531D01*
X579881Y195061D01*
X579881Y198639D01*
X582411Y201169D01*
X585989Y201169D01*
X588519Y198639D01*
X588519Y195061D01*
X585989Y192531D01*
X582411Y192531D01*
G37*
%LPD*%
%LPC*%
G36*
X601461Y205231D02*
X601461Y205231D01*
X598931Y207761D01*
X598931Y211339D01*
X601461Y213869D01*
X605039Y213869D01*
X607569Y211339D01*
X607569Y207761D01*
X605039Y205231D01*
X601461Y205231D01*
G37*
%LPD*%
%LPC*%
G36*
X563361Y179531D02*
X563361Y179531D01*
X560831Y182061D01*
X560831Y185639D01*
X563361Y188169D01*
X566939Y188169D01*
X569469Y185639D01*
X569469Y182061D01*
X566939Y179531D01*
X563361Y179531D01*
G37*
%LPD*%
%LPC*%
G36*
X607811Y179531D02*
X607811Y179531D01*
X605281Y182061D01*
X605281Y185639D01*
X607811Y188169D01*
X611389Y188169D01*
X613919Y185639D01*
X613919Y182061D01*
X611389Y179531D01*
X607811Y179531D01*
G37*
%LPD*%
%LPC*%
G36*
X423661Y122681D02*
X423661Y122681D01*
X421131Y125211D01*
X421131Y128789D01*
X423661Y131319D01*
X427239Y131319D01*
X429769Y128789D01*
X429769Y125211D01*
X427239Y122681D01*
X423661Y122681D01*
G37*
%LPD*%
%LPC*%
G36*
X410961Y186181D02*
X410961Y186181D01*
X408431Y188711D01*
X408431Y192289D01*
X410961Y194819D01*
X414539Y194819D01*
X417069Y192289D01*
X417069Y188711D01*
X414539Y186181D01*
X410961Y186181D01*
G37*
%LPD*%
%LPC*%
G36*
X601461Y90931D02*
X601461Y90931D01*
X598931Y93461D01*
X598931Y97039D01*
X601461Y99569D01*
X605039Y99569D01*
X607569Y97039D01*
X607569Y93461D01*
X605039Y90931D01*
X601461Y90931D01*
G37*
%LPD*%
%LPC*%
G36*
X474461Y84581D02*
X474461Y84581D01*
X471931Y87111D01*
X471931Y90689D01*
X474461Y93219D01*
X478039Y93219D01*
X480569Y90689D01*
X480569Y87111D01*
X478039Y84581D01*
X474461Y84581D01*
G37*
%LPD*%
%LPC*%
G36*
X582411Y71881D02*
X582411Y71881D01*
X579881Y74411D01*
X579881Y77989D01*
X582411Y80519D01*
X585989Y80519D01*
X588519Y77989D01*
X588519Y74411D01*
X585989Y71881D01*
X582411Y71881D01*
G37*
%LPD*%
%LPC*%
G36*
X569711Y71881D02*
X569711Y71881D01*
X567181Y74411D01*
X567181Y77989D01*
X569711Y80519D01*
X573289Y80519D01*
X575819Y77989D01*
X575819Y74411D01*
X573289Y71881D01*
X569711Y71881D01*
G37*
%LPD*%
%LPC*%
G36*
X233161Y46481D02*
X233161Y46481D01*
X230631Y49011D01*
X230631Y52589D01*
X233161Y55119D01*
X236739Y55119D01*
X239269Y52589D01*
X239269Y49011D01*
X236739Y46481D01*
X233161Y46481D01*
G37*
%LPD*%
%LPC*%
G36*
X347777Y72643D02*
X347777Y72643D01*
X345693Y74727D01*
X345693Y77673D01*
X347777Y79757D01*
X350723Y79757D01*
X352807Y77673D01*
X352807Y74727D01*
X350723Y72643D01*
X347777Y72643D01*
G37*
%LPD*%
%LPC*%
G36*
X404927Y123443D02*
X404927Y123443D01*
X402843Y125527D01*
X402843Y128473D01*
X404927Y130557D01*
X407873Y130557D01*
X409957Y128473D01*
X409957Y125527D01*
X407873Y123443D01*
X404927Y123443D01*
G37*
%LPD*%
D10*
X685800Y114300D03*
X685800Y165100D03*
X25400Y139700D03*
X25400Y114300D03*
D11*
X444500Y241300D03*
X469900Y241300D03*
X495300Y241300D03*
X520700Y241300D03*
X546100Y241300D03*
X571500Y241300D03*
X596900Y241300D03*
X622300Y241300D03*
X647700Y241300D03*
X673100Y241300D03*
X330200Y12700D03*
X304800Y12700D03*
X279400Y12700D03*
X254000Y12700D03*
X228600Y12700D03*
X203200Y12700D03*
X177800Y12700D03*
X152400Y12700D03*
X127000Y12700D03*
X101600Y12700D03*
D12*
X698500Y31750D03*
D10*
X685800Y139700D03*
D12*
X31750Y222250D03*
D11*
X368300Y241300D03*
X342900Y241300D03*
X317500Y241300D03*
D13*
X273050Y76200D03*
D14*
X120650Y76200D01*
D13*
X120650Y76200D03*
X311150Y95250D03*
D14*
X299720Y95250D01*
X297180Y97790D01*
X269240Y97790D01*
X266700Y95250D01*
X203200Y95250D01*
X171450Y127000D01*
D13*
X171450Y127000D03*
X311150Y114300D03*
D14*
X222250Y114300D01*
X171450Y165100D01*
D13*
X171450Y165100D03*
X260350Y66874D03*
X292100Y87122D03*
D14*
X292100Y83384D01*
X277296Y68580D01*
X262056Y68580D02*
X260350Y66874D01*
X262056Y68580D02*
X277296Y68580D01*
D13*
X234950Y50800D03*
X238760Y67310D03*
X260350Y120650D03*
D14*
X321310Y120650D01*
D13*
X321310Y120650D03*
D15*
X374650Y158750D03*
D13*
X476250Y88900D03*
X424672Y69072D03*
D16*
X406400Y127000D03*
X146050Y88721D03*
D17*
X265428Y88898D01*
X270510Y93980D01*
X295910Y93980D01*
X300990Y88900D01*
X355242Y88900D01*
X355421Y88721D01*
X368300Y101600D01*
D16*
X368300Y101600D03*
X368300Y50800D03*
D18*
X44450Y165100D03*
D13*
X431800Y152400D03*
X406400Y152400D03*
X400050Y114300D03*
X463550Y76200D03*
D16*
X387350Y133350D03*
D13*
X127000Y57150D03*
X177800Y44450D03*
D16*
X349250Y44450D03*
D17*
X381000Y44450D01*
D16*
X381000Y44450D03*
X349250Y76200D03*
D13*
X330200Y76200D03*
X165100Y82550D03*
D16*
X190500Y82550D03*
D17*
X304800Y12700D02*
X311150Y12700D01*
X330200Y31750D02*
X355600Y31750D01*
D16*
X355600Y31750D03*
D17*
X327025Y28575D02*
X311150Y12700D01*
X327025Y28575D02*
X330200Y31750D01*
D16*
X327025Y28575D03*
D13*
X412750Y190500D03*
X412750Y241300D03*
D14*
X368300Y241300D01*
D13*
X241300Y25400D03*
D19*
X234950Y31750D01*
X57150Y31750D01*
D13*
X57150Y31750D03*
X603250Y63500D03*
D14*
X533400Y63500D01*
X527050Y57150D01*
D13*
X527050Y57150D03*
X609600Y183850D03*
X520700Y165100D03*
D14*
X514050Y171750D01*
X461160Y171750D01*
D13*
X461160Y171750D03*
X571500Y44450D03*
D14*
X622300Y44450D01*
D13*
X622300Y44450D03*
X584200Y76200D03*
X584200Y196850D03*
X603250Y95250D03*
X603250Y209550D03*
X571500Y76200D03*
X565150Y183850D03*
X449819Y204231D03*
D14*
X468869Y204231D01*
X476250Y196850D01*
D13*
X476250Y196850D03*
X425450Y127000D03*
X425450Y234950D03*
D14*
X419100Y228600D01*
X355600Y228600D01*
X342900Y241300D01*
D16*
X279400Y25400D03*
D17*
X276352Y22352D01*
X240350Y12700D02*
X228600Y12700D01*
X240350Y12700D02*
X250002Y22352D01*
X276352Y22352D01*
M02*
