G04 EAGLE Gerber RS-274X export*
G75*
%MOMM*%
%FSLAX34Y34*%
%LPD*%
%IN*%
%IPPOS*%
%AMOC8*
5,1,8,0,0,1.08239X$1,22.5*%
G01*
%ADD10C,0.254000*%


D10*
X0Y31750D02*
X121Y28983D01*
X482Y26237D01*
X1082Y23533D01*
X1915Y20891D01*
X2975Y18332D01*
X4254Y15875D01*
X5742Y13539D01*
X7428Y11342D01*
X9299Y9299D01*
X11342Y7428D01*
X13539Y5742D01*
X15875Y4254D01*
X18332Y2975D01*
X20891Y1915D01*
X23533Y1082D01*
X26237Y482D01*
X28983Y121D01*
X31750Y0D01*
X698500Y0D01*
X701267Y121D01*
X704013Y482D01*
X706718Y1082D01*
X709359Y1915D01*
X711918Y2975D01*
X714375Y4254D01*
X716711Y5742D01*
X718909Y7428D01*
X720951Y9299D01*
X722822Y11342D01*
X724508Y13539D01*
X725996Y15875D01*
X727275Y18332D01*
X728335Y20891D01*
X729168Y23533D01*
X729768Y26237D01*
X730129Y28983D01*
X730250Y31750D01*
X730250Y222250D01*
X730129Y225017D01*
X729768Y227763D01*
X729168Y230468D01*
X728335Y233109D01*
X727275Y235668D01*
X725996Y238125D01*
X724508Y240461D01*
X722822Y242659D01*
X720951Y244701D01*
X718909Y246572D01*
X716711Y248258D01*
X714375Y249746D01*
X711918Y251025D01*
X709359Y252085D01*
X706718Y252918D01*
X704013Y253518D01*
X701267Y253879D01*
X698500Y254000D01*
X31750Y254000D01*
X28983Y253879D01*
X26237Y253518D01*
X23533Y252918D01*
X20891Y252085D01*
X18332Y251025D01*
X15875Y249746D01*
X13539Y248258D01*
X11342Y246572D01*
X9299Y244701D01*
X7428Y242659D01*
X5742Y240461D01*
X4254Y238125D01*
X2975Y235668D01*
X1915Y233109D01*
X1082Y230468D01*
X482Y227763D01*
X121Y225017D01*
X0Y222250D01*
X0Y31750D01*
M02*
