G04 EAGLE Gerber RS-274X export*
G75*
%MOMM*%
%FSLAX34Y34*%
%LPD*%
%INSilkscreen Bottom*%
%IPPOS*%
%AMOC8*
5,1,8,0,0,1.08239X$1,22.5*%
G01*
%ADD10C,0.254000*%
%ADD11C,0.355600*%


D10*
X245660Y236220D02*
X245660Y246380D01*
X242838Y246380D01*
X242732Y246378D01*
X242627Y246372D01*
X242522Y246362D01*
X242417Y246348D01*
X242313Y246331D01*
X242210Y246309D01*
X242108Y246284D01*
X242006Y246255D01*
X241906Y246222D01*
X241807Y246185D01*
X241710Y246145D01*
X241614Y246101D01*
X241519Y246053D01*
X241427Y246002D01*
X241337Y245947D01*
X241248Y245890D01*
X241162Y245829D01*
X241079Y245764D01*
X240997Y245697D01*
X240919Y245627D01*
X240843Y245553D01*
X240769Y245477D01*
X240699Y245399D01*
X240632Y245317D01*
X240567Y245234D01*
X240506Y245148D01*
X240449Y245059D01*
X240394Y244969D01*
X240343Y244877D01*
X240295Y244782D01*
X240251Y244686D01*
X240211Y244589D01*
X240174Y244490D01*
X240141Y244390D01*
X240112Y244288D01*
X240087Y244186D01*
X240065Y244083D01*
X240048Y243979D01*
X240034Y243874D01*
X240024Y243769D01*
X240018Y243664D01*
X240016Y243558D01*
X240018Y243452D01*
X240024Y243347D01*
X240034Y243242D01*
X240048Y243137D01*
X240065Y243033D01*
X240087Y242930D01*
X240112Y242828D01*
X240141Y242726D01*
X240174Y242626D01*
X240211Y242527D01*
X240251Y242430D01*
X240295Y242334D01*
X240343Y242239D01*
X240394Y242147D01*
X240449Y242057D01*
X240506Y241968D01*
X240567Y241882D01*
X240632Y241799D01*
X240699Y241717D01*
X240769Y241639D01*
X240843Y241563D01*
X240919Y241489D01*
X240997Y241419D01*
X241079Y241352D01*
X241162Y241287D01*
X241248Y241226D01*
X241337Y241169D01*
X241427Y241114D01*
X241519Y241063D01*
X241614Y241015D01*
X241710Y240971D01*
X241807Y240931D01*
X241906Y240894D01*
X242006Y240861D01*
X242108Y240832D01*
X242210Y240807D01*
X242313Y240785D01*
X242417Y240768D01*
X242522Y240754D01*
X242627Y240744D01*
X242732Y240738D01*
X242838Y240736D01*
X245660Y240736D01*
X234608Y242993D02*
X234608Y236220D01*
X234608Y242993D02*
X231221Y242993D01*
X231221Y241864D01*
X227104Y240736D02*
X227104Y238478D01*
X227104Y240736D02*
X227102Y240829D01*
X227096Y240922D01*
X227087Y241015D01*
X227073Y241108D01*
X227056Y241199D01*
X227035Y241290D01*
X227010Y241380D01*
X226982Y241469D01*
X226950Y241557D01*
X226914Y241643D01*
X226875Y241728D01*
X226832Y241811D01*
X226786Y241892D01*
X226736Y241971D01*
X226684Y242048D01*
X226628Y242123D01*
X226569Y242195D01*
X226507Y242265D01*
X226443Y242333D01*
X226375Y242397D01*
X226305Y242459D01*
X226233Y242518D01*
X226158Y242574D01*
X226081Y242626D01*
X226002Y242676D01*
X225921Y242722D01*
X225838Y242765D01*
X225753Y242804D01*
X225667Y242840D01*
X225579Y242872D01*
X225490Y242900D01*
X225400Y242925D01*
X225309Y242946D01*
X225218Y242963D01*
X225125Y242977D01*
X225032Y242986D01*
X224939Y242992D01*
X224846Y242994D01*
X224753Y242992D01*
X224660Y242986D01*
X224567Y242977D01*
X224474Y242963D01*
X224383Y242946D01*
X224292Y242925D01*
X224202Y242900D01*
X224113Y242872D01*
X224025Y242840D01*
X223939Y242804D01*
X223854Y242765D01*
X223771Y242722D01*
X223690Y242676D01*
X223611Y242626D01*
X223534Y242574D01*
X223459Y242518D01*
X223387Y242459D01*
X223317Y242397D01*
X223249Y242333D01*
X223185Y242265D01*
X223123Y242195D01*
X223064Y242123D01*
X223008Y242048D01*
X222956Y241971D01*
X222906Y241892D01*
X222860Y241811D01*
X222817Y241728D01*
X222778Y241643D01*
X222742Y241557D01*
X222710Y241469D01*
X222682Y241380D01*
X222657Y241290D01*
X222636Y241199D01*
X222619Y241108D01*
X222605Y241015D01*
X222596Y240922D01*
X222590Y240829D01*
X222588Y240736D01*
X222589Y240736D02*
X222589Y238478D01*
X222588Y238478D02*
X222590Y238385D01*
X222596Y238292D01*
X222605Y238199D01*
X222619Y238106D01*
X222636Y238015D01*
X222657Y237924D01*
X222682Y237834D01*
X222710Y237745D01*
X222742Y237657D01*
X222778Y237571D01*
X222817Y237486D01*
X222860Y237403D01*
X222906Y237322D01*
X222956Y237243D01*
X223008Y237166D01*
X223064Y237091D01*
X223123Y237019D01*
X223185Y236949D01*
X223249Y236881D01*
X223317Y236817D01*
X223387Y236755D01*
X223459Y236696D01*
X223534Y236640D01*
X223611Y236588D01*
X223690Y236538D01*
X223771Y236492D01*
X223854Y236449D01*
X223939Y236410D01*
X224025Y236374D01*
X224113Y236342D01*
X224202Y236314D01*
X224292Y236289D01*
X224383Y236268D01*
X224474Y236251D01*
X224567Y236237D01*
X224660Y236228D01*
X224753Y236222D01*
X224846Y236220D01*
X224939Y236222D01*
X225032Y236228D01*
X225125Y236237D01*
X225218Y236251D01*
X225309Y236268D01*
X225400Y236289D01*
X225490Y236314D01*
X225579Y236342D01*
X225667Y236374D01*
X225753Y236410D01*
X225838Y236449D01*
X225921Y236492D01*
X226002Y236538D01*
X226081Y236588D01*
X226158Y236640D01*
X226233Y236696D01*
X226305Y236755D01*
X226375Y236817D01*
X226443Y236881D01*
X226507Y236949D01*
X226569Y237019D01*
X226628Y237091D01*
X226684Y237166D01*
X226736Y237243D01*
X226786Y237322D01*
X226832Y237403D01*
X226875Y237486D01*
X226914Y237571D01*
X226950Y237657D01*
X226982Y237745D01*
X227010Y237834D01*
X227035Y237924D01*
X227056Y238015D01*
X227073Y238106D01*
X227087Y238199D01*
X227096Y238292D01*
X227102Y238385D01*
X227104Y238478D01*
X217953Y234527D02*
X217953Y242993D01*
X217953Y234527D02*
X217955Y234446D01*
X217961Y234366D01*
X217970Y234286D01*
X217984Y234207D01*
X218001Y234128D01*
X218022Y234050D01*
X218046Y233973D01*
X218074Y233898D01*
X218106Y233824D01*
X218141Y233751D01*
X218180Y233681D01*
X218222Y233612D01*
X218267Y233545D01*
X218315Y233480D01*
X218366Y233418D01*
X218421Y233359D01*
X218478Y233302D01*
X218537Y233248D01*
X218599Y233196D01*
X218664Y233148D01*
X218731Y233103D01*
X218799Y233061D01*
X218870Y233022D01*
X218943Y232987D01*
X219017Y232955D01*
X219092Y232927D01*
X219169Y232903D01*
X219247Y232882D01*
X219326Y232865D01*
X219405Y232851D01*
X219485Y232842D01*
X219565Y232836D01*
X219646Y232834D01*
X219646Y232833D02*
X220211Y232833D01*
X218235Y245816D02*
X218235Y246380D01*
X217671Y246380D01*
X217671Y245816D01*
X218235Y245816D01*
X210933Y236220D02*
X208111Y236220D01*
X210933Y236220D02*
X211014Y236222D01*
X211094Y236228D01*
X211174Y236237D01*
X211253Y236251D01*
X211332Y236268D01*
X211410Y236289D01*
X211487Y236313D01*
X211562Y236341D01*
X211636Y236373D01*
X211709Y236408D01*
X211780Y236447D01*
X211848Y236489D01*
X211915Y236534D01*
X211980Y236582D01*
X212042Y236634D01*
X212101Y236688D01*
X212158Y236745D01*
X212212Y236804D01*
X212264Y236866D01*
X212312Y236931D01*
X212357Y236998D01*
X212399Y237067D01*
X212438Y237137D01*
X212473Y237210D01*
X212505Y237284D01*
X212533Y237359D01*
X212557Y237436D01*
X212578Y237514D01*
X212595Y237593D01*
X212609Y237672D01*
X212618Y237752D01*
X212624Y237832D01*
X212626Y237913D01*
X212626Y240736D01*
X212624Y240829D01*
X212618Y240922D01*
X212609Y241015D01*
X212595Y241108D01*
X212578Y241199D01*
X212557Y241290D01*
X212532Y241380D01*
X212504Y241469D01*
X212472Y241557D01*
X212436Y241643D01*
X212397Y241728D01*
X212354Y241811D01*
X212308Y241892D01*
X212258Y241971D01*
X212206Y242048D01*
X212150Y242123D01*
X212091Y242195D01*
X212029Y242265D01*
X211965Y242333D01*
X211897Y242397D01*
X211827Y242459D01*
X211755Y242518D01*
X211680Y242574D01*
X211603Y242626D01*
X211524Y242676D01*
X211443Y242722D01*
X211360Y242765D01*
X211275Y242804D01*
X211189Y242840D01*
X211101Y242872D01*
X211012Y242900D01*
X210922Y242925D01*
X210831Y242946D01*
X210740Y242963D01*
X210647Y242977D01*
X210554Y242986D01*
X210461Y242992D01*
X210368Y242994D01*
X210275Y242992D01*
X210182Y242986D01*
X210089Y242977D01*
X209996Y242963D01*
X209905Y242946D01*
X209814Y242925D01*
X209724Y242900D01*
X209635Y242872D01*
X209547Y242840D01*
X209461Y242804D01*
X209376Y242765D01*
X209293Y242722D01*
X209212Y242676D01*
X209133Y242626D01*
X209056Y242574D01*
X208981Y242518D01*
X208909Y242459D01*
X208839Y242397D01*
X208771Y242333D01*
X208707Y242265D01*
X208645Y242195D01*
X208586Y242123D01*
X208530Y242048D01*
X208478Y241971D01*
X208428Y241892D01*
X208382Y241811D01*
X208339Y241728D01*
X208300Y241643D01*
X208264Y241557D01*
X208232Y241469D01*
X208204Y241380D01*
X208179Y241290D01*
X208158Y241199D01*
X208141Y241108D01*
X208127Y241015D01*
X208118Y240922D01*
X208112Y240829D01*
X208110Y240736D01*
X208111Y240736D02*
X208111Y239607D01*
X212626Y239607D01*
X201004Y236220D02*
X198746Y236220D01*
X201004Y236220D02*
X201085Y236222D01*
X201165Y236228D01*
X201245Y236237D01*
X201324Y236251D01*
X201403Y236268D01*
X201481Y236289D01*
X201558Y236313D01*
X201633Y236341D01*
X201707Y236373D01*
X201780Y236408D01*
X201851Y236447D01*
X201919Y236489D01*
X201986Y236534D01*
X202051Y236582D01*
X202113Y236634D01*
X202172Y236688D01*
X202229Y236745D01*
X202283Y236804D01*
X202335Y236866D01*
X202383Y236931D01*
X202428Y236998D01*
X202470Y237067D01*
X202509Y237137D01*
X202544Y237210D01*
X202576Y237284D01*
X202604Y237359D01*
X202628Y237436D01*
X202649Y237514D01*
X202666Y237593D01*
X202680Y237672D01*
X202689Y237752D01*
X202695Y237832D01*
X202697Y237913D01*
X202697Y241300D01*
X202695Y241381D01*
X202689Y241461D01*
X202680Y241541D01*
X202666Y241620D01*
X202649Y241699D01*
X202628Y241777D01*
X202604Y241854D01*
X202576Y241929D01*
X202544Y242003D01*
X202509Y242076D01*
X202470Y242147D01*
X202428Y242215D01*
X202383Y242282D01*
X202335Y242347D01*
X202283Y242409D01*
X202229Y242468D01*
X202172Y242525D01*
X202113Y242579D01*
X202051Y242631D01*
X201986Y242679D01*
X201919Y242724D01*
X201851Y242766D01*
X201780Y242805D01*
X201707Y242840D01*
X201633Y242872D01*
X201558Y242900D01*
X201481Y242924D01*
X201403Y242945D01*
X201324Y242962D01*
X201245Y242976D01*
X201165Y242985D01*
X201085Y242991D01*
X201004Y242993D01*
X198746Y242993D01*
X195078Y242993D02*
X191692Y242993D01*
X193950Y246380D02*
X193950Y237913D01*
X193949Y237913D02*
X193947Y237832D01*
X193941Y237752D01*
X193932Y237672D01*
X193918Y237593D01*
X193901Y237514D01*
X193880Y237436D01*
X193856Y237359D01*
X193828Y237284D01*
X193796Y237210D01*
X193761Y237137D01*
X193722Y237067D01*
X193680Y236998D01*
X193635Y236931D01*
X193587Y236866D01*
X193535Y236804D01*
X193481Y236745D01*
X193424Y236688D01*
X193365Y236634D01*
X193303Y236582D01*
X193238Y236534D01*
X193171Y236489D01*
X193103Y236447D01*
X193032Y236408D01*
X192959Y236373D01*
X192885Y236341D01*
X192810Y236313D01*
X192733Y236289D01*
X192655Y236268D01*
X192576Y236251D01*
X192497Y236237D01*
X192417Y236228D01*
X192337Y236222D01*
X192256Y236220D01*
X191692Y236220D01*
X180004Y236220D02*
X180004Y246380D01*
X180004Y236220D02*
X175489Y236220D01*
X168844Y240171D02*
X166304Y240171D01*
X168844Y240172D02*
X168931Y240170D01*
X169019Y240164D01*
X169106Y240155D01*
X169192Y240141D01*
X169278Y240124D01*
X169362Y240103D01*
X169446Y240078D01*
X169529Y240049D01*
X169610Y240017D01*
X169690Y239982D01*
X169768Y239943D01*
X169845Y239900D01*
X169919Y239854D01*
X169991Y239805D01*
X170061Y239753D01*
X170129Y239697D01*
X170194Y239639D01*
X170257Y239578D01*
X170316Y239514D01*
X170373Y239447D01*
X170427Y239379D01*
X170478Y239307D01*
X170525Y239234D01*
X170570Y239159D01*
X170611Y239081D01*
X170648Y239002D01*
X170682Y238922D01*
X170712Y238840D01*
X170739Y238757D01*
X170762Y238672D01*
X170781Y238587D01*
X170796Y238501D01*
X170808Y238414D01*
X170816Y238327D01*
X170820Y238240D01*
X170820Y238152D01*
X170816Y238065D01*
X170808Y237978D01*
X170796Y237891D01*
X170781Y237805D01*
X170762Y237720D01*
X170739Y237635D01*
X170712Y237552D01*
X170682Y237470D01*
X170648Y237390D01*
X170611Y237311D01*
X170570Y237233D01*
X170525Y237158D01*
X170478Y237085D01*
X170427Y237013D01*
X170373Y236945D01*
X170316Y236878D01*
X170257Y236814D01*
X170194Y236753D01*
X170129Y236695D01*
X170061Y236639D01*
X169991Y236587D01*
X169919Y236538D01*
X169845Y236492D01*
X169768Y236449D01*
X169690Y236410D01*
X169610Y236375D01*
X169529Y236343D01*
X169446Y236314D01*
X169362Y236289D01*
X169278Y236268D01*
X169192Y236251D01*
X169106Y236237D01*
X169019Y236228D01*
X168931Y236222D01*
X168844Y236220D01*
X166304Y236220D01*
X166304Y241300D01*
X166306Y241381D01*
X166312Y241461D01*
X166321Y241541D01*
X166335Y241620D01*
X166352Y241699D01*
X166373Y241777D01*
X166397Y241854D01*
X166425Y241929D01*
X166457Y242003D01*
X166492Y242076D01*
X166531Y242147D01*
X166573Y242215D01*
X166618Y242282D01*
X166666Y242347D01*
X166718Y242409D01*
X166772Y242468D01*
X166829Y242525D01*
X166888Y242579D01*
X166950Y242631D01*
X167015Y242679D01*
X167082Y242724D01*
X167151Y242766D01*
X167221Y242805D01*
X167294Y242840D01*
X167368Y242872D01*
X167443Y242900D01*
X167520Y242924D01*
X167598Y242945D01*
X167677Y242962D01*
X167756Y242976D01*
X167836Y242985D01*
X167916Y242991D01*
X167997Y242993D01*
X170255Y242993D01*
X156017Y246380D02*
X156017Y236220D01*
X158839Y236220D01*
X158920Y236222D01*
X159000Y236228D01*
X159080Y236237D01*
X159159Y236251D01*
X159238Y236268D01*
X159316Y236289D01*
X159393Y236313D01*
X159468Y236341D01*
X159542Y236373D01*
X159615Y236408D01*
X159686Y236447D01*
X159754Y236489D01*
X159821Y236534D01*
X159886Y236582D01*
X159948Y236634D01*
X160007Y236688D01*
X160064Y236745D01*
X160118Y236804D01*
X160170Y236866D01*
X160218Y236931D01*
X160263Y236998D01*
X160305Y237067D01*
X160344Y237137D01*
X160379Y237210D01*
X160411Y237284D01*
X160439Y237359D01*
X160463Y237436D01*
X160484Y237514D01*
X160501Y237593D01*
X160515Y237672D01*
X160524Y237752D01*
X160530Y237832D01*
X160532Y237913D01*
X160532Y241300D01*
X160530Y241381D01*
X160524Y241461D01*
X160515Y241541D01*
X160501Y241620D01*
X160484Y241699D01*
X160463Y241777D01*
X160439Y241854D01*
X160411Y241929D01*
X160379Y242003D01*
X160344Y242076D01*
X160305Y242147D01*
X160263Y242215D01*
X160218Y242282D01*
X160170Y242347D01*
X160118Y242409D01*
X160064Y242468D01*
X160007Y242525D01*
X159948Y242579D01*
X159886Y242631D01*
X159821Y242679D01*
X159754Y242724D01*
X159686Y242766D01*
X159615Y242805D01*
X159542Y242840D01*
X159468Y242872D01*
X159393Y242900D01*
X159316Y242924D01*
X159238Y242945D01*
X159159Y242962D01*
X159080Y242976D01*
X159000Y242985D01*
X158920Y242991D01*
X158839Y242993D01*
X156017Y242993D01*
X150142Y240736D02*
X150142Y238478D01*
X150143Y240736D02*
X150141Y240829D01*
X150135Y240922D01*
X150126Y241015D01*
X150112Y241108D01*
X150095Y241199D01*
X150074Y241290D01*
X150049Y241380D01*
X150021Y241469D01*
X149989Y241557D01*
X149953Y241643D01*
X149914Y241728D01*
X149871Y241811D01*
X149825Y241892D01*
X149775Y241971D01*
X149723Y242048D01*
X149667Y242123D01*
X149608Y242195D01*
X149546Y242265D01*
X149482Y242333D01*
X149414Y242397D01*
X149344Y242459D01*
X149272Y242518D01*
X149197Y242574D01*
X149120Y242626D01*
X149041Y242676D01*
X148960Y242722D01*
X148877Y242765D01*
X148792Y242804D01*
X148706Y242840D01*
X148618Y242872D01*
X148529Y242900D01*
X148439Y242925D01*
X148348Y242946D01*
X148257Y242963D01*
X148164Y242977D01*
X148071Y242986D01*
X147978Y242992D01*
X147885Y242994D01*
X147792Y242992D01*
X147699Y242986D01*
X147606Y242977D01*
X147513Y242963D01*
X147422Y242946D01*
X147331Y242925D01*
X147241Y242900D01*
X147152Y242872D01*
X147064Y242840D01*
X146978Y242804D01*
X146893Y242765D01*
X146810Y242722D01*
X146729Y242676D01*
X146650Y242626D01*
X146573Y242574D01*
X146498Y242518D01*
X146426Y242459D01*
X146356Y242397D01*
X146288Y242333D01*
X146224Y242265D01*
X146162Y242195D01*
X146103Y242123D01*
X146047Y242048D01*
X145995Y241971D01*
X145945Y241892D01*
X145899Y241811D01*
X145856Y241728D01*
X145817Y241643D01*
X145781Y241557D01*
X145749Y241469D01*
X145721Y241380D01*
X145696Y241290D01*
X145675Y241199D01*
X145658Y241108D01*
X145644Y241015D01*
X145635Y240922D01*
X145629Y240829D01*
X145627Y240736D01*
X145627Y238478D01*
X145629Y238385D01*
X145635Y238292D01*
X145644Y238199D01*
X145658Y238106D01*
X145675Y238015D01*
X145696Y237924D01*
X145721Y237834D01*
X145749Y237745D01*
X145781Y237657D01*
X145817Y237571D01*
X145856Y237486D01*
X145899Y237403D01*
X145945Y237322D01*
X145995Y237243D01*
X146047Y237166D01*
X146103Y237091D01*
X146162Y237019D01*
X146224Y236949D01*
X146288Y236881D01*
X146356Y236817D01*
X146426Y236755D01*
X146498Y236696D01*
X146573Y236640D01*
X146650Y236588D01*
X146729Y236538D01*
X146810Y236492D01*
X146893Y236449D01*
X146978Y236410D01*
X147064Y236374D01*
X147152Y236342D01*
X147241Y236314D01*
X147331Y236289D01*
X147422Y236268D01*
X147513Y236251D01*
X147606Y236237D01*
X147699Y236228D01*
X147792Y236222D01*
X147885Y236220D01*
X147978Y236222D01*
X148071Y236228D01*
X148164Y236237D01*
X148257Y236251D01*
X148348Y236268D01*
X148439Y236289D01*
X148529Y236314D01*
X148618Y236342D01*
X148706Y236374D01*
X148792Y236410D01*
X148877Y236449D01*
X148960Y236492D01*
X149041Y236538D01*
X149120Y236588D01*
X149197Y236640D01*
X149272Y236696D01*
X149344Y236755D01*
X149414Y236817D01*
X149482Y236881D01*
X149546Y236949D01*
X149608Y237019D01*
X149667Y237091D01*
X149723Y237166D01*
X149775Y237243D01*
X149825Y237322D01*
X149871Y237403D01*
X149914Y237486D01*
X149953Y237571D01*
X149989Y237657D01*
X150021Y237745D01*
X150049Y237834D01*
X150074Y237924D01*
X150095Y238015D01*
X150112Y238106D01*
X150126Y238199D01*
X150135Y238292D01*
X150141Y238385D01*
X150143Y238478D01*
X139855Y236220D02*
X139855Y242993D01*
X137033Y242993D01*
X136952Y242991D01*
X136872Y242985D01*
X136792Y242976D01*
X136713Y242962D01*
X136634Y242945D01*
X136556Y242924D01*
X136479Y242900D01*
X136404Y242872D01*
X136330Y242840D01*
X136257Y242805D01*
X136187Y242766D01*
X136118Y242724D01*
X136051Y242679D01*
X135986Y242631D01*
X135924Y242579D01*
X135865Y242525D01*
X135808Y242468D01*
X135754Y242409D01*
X135702Y242347D01*
X135654Y242282D01*
X135609Y242215D01*
X135567Y242147D01*
X135528Y242076D01*
X135493Y242003D01*
X135461Y241929D01*
X135433Y241854D01*
X135409Y241777D01*
X135388Y241699D01*
X135371Y241620D01*
X135357Y241541D01*
X135348Y241461D01*
X135342Y241381D01*
X135340Y241300D01*
X135340Y236220D01*
X253190Y222814D02*
X256012Y222814D01*
X253190Y222814D02*
X253084Y222812D01*
X252979Y222806D01*
X252874Y222796D01*
X252769Y222782D01*
X252665Y222765D01*
X252562Y222743D01*
X252460Y222718D01*
X252358Y222689D01*
X252258Y222656D01*
X252159Y222619D01*
X252062Y222579D01*
X251966Y222535D01*
X251871Y222487D01*
X251779Y222436D01*
X251689Y222381D01*
X251600Y222324D01*
X251514Y222263D01*
X251431Y222198D01*
X251349Y222131D01*
X251271Y222061D01*
X251195Y221987D01*
X251121Y221911D01*
X251051Y221833D01*
X250984Y221751D01*
X250919Y221668D01*
X250858Y221582D01*
X250801Y221493D01*
X250746Y221403D01*
X250695Y221311D01*
X250647Y221216D01*
X250603Y221120D01*
X250563Y221023D01*
X250526Y220924D01*
X250493Y220824D01*
X250464Y220722D01*
X250439Y220620D01*
X250417Y220517D01*
X250400Y220413D01*
X250386Y220308D01*
X250376Y220203D01*
X250370Y220098D01*
X250368Y219992D01*
X250370Y219886D01*
X250376Y219781D01*
X250386Y219676D01*
X250400Y219571D01*
X250417Y219467D01*
X250439Y219364D01*
X250464Y219262D01*
X250493Y219160D01*
X250526Y219060D01*
X250563Y218961D01*
X250603Y218864D01*
X250647Y218768D01*
X250695Y218673D01*
X250746Y218581D01*
X250801Y218491D01*
X250858Y218402D01*
X250919Y218316D01*
X250984Y218233D01*
X251051Y218151D01*
X251121Y218073D01*
X251195Y217997D01*
X251271Y217923D01*
X251349Y217853D01*
X251431Y217786D01*
X251514Y217721D01*
X251600Y217660D01*
X251689Y217603D01*
X251779Y217548D01*
X251871Y217497D01*
X251966Y217449D01*
X252062Y217405D01*
X252159Y217365D01*
X252258Y217328D01*
X252358Y217295D01*
X252460Y217266D01*
X252562Y217241D01*
X252665Y217219D01*
X252769Y217202D01*
X252874Y217188D01*
X252979Y217178D01*
X253084Y217172D01*
X253190Y217170D01*
X256012Y217170D01*
X256012Y227330D01*
X253190Y227330D01*
X253097Y227328D01*
X253004Y227322D01*
X252911Y227313D01*
X252818Y227299D01*
X252727Y227282D01*
X252636Y227261D01*
X252546Y227236D01*
X252457Y227208D01*
X252369Y227176D01*
X252283Y227140D01*
X252198Y227101D01*
X252115Y227058D01*
X252034Y227012D01*
X251955Y226962D01*
X251878Y226910D01*
X251803Y226854D01*
X251731Y226795D01*
X251661Y226733D01*
X251593Y226669D01*
X251529Y226601D01*
X251467Y226531D01*
X251408Y226459D01*
X251352Y226384D01*
X251300Y226307D01*
X251250Y226228D01*
X251204Y226147D01*
X251161Y226064D01*
X251122Y225979D01*
X251086Y225893D01*
X251054Y225805D01*
X251026Y225716D01*
X251001Y225626D01*
X250980Y225535D01*
X250963Y225444D01*
X250949Y225351D01*
X250940Y225258D01*
X250934Y225165D01*
X250932Y225072D01*
X250934Y224979D01*
X250940Y224886D01*
X250949Y224793D01*
X250963Y224700D01*
X250980Y224609D01*
X251001Y224518D01*
X251026Y224428D01*
X251054Y224339D01*
X251086Y224251D01*
X251122Y224165D01*
X251161Y224080D01*
X251204Y223997D01*
X251250Y223916D01*
X251300Y223837D01*
X251352Y223760D01*
X251408Y223685D01*
X251467Y223613D01*
X251529Y223543D01*
X251593Y223475D01*
X251661Y223411D01*
X251731Y223349D01*
X251803Y223290D01*
X251878Y223234D01*
X251955Y223182D01*
X252034Y223132D01*
X252115Y223086D01*
X252198Y223043D01*
X252283Y223004D01*
X252369Y222968D01*
X252457Y222936D01*
X252546Y222908D01*
X252636Y222883D01*
X252727Y222862D01*
X252818Y222845D01*
X252911Y222831D01*
X253004Y222822D01*
X253097Y222816D01*
X253190Y222814D01*
X243585Y221121D02*
X241045Y221121D01*
X243585Y221122D02*
X243672Y221120D01*
X243760Y221114D01*
X243847Y221105D01*
X243933Y221091D01*
X244019Y221074D01*
X244103Y221053D01*
X244187Y221028D01*
X244270Y220999D01*
X244351Y220967D01*
X244431Y220932D01*
X244509Y220893D01*
X244586Y220850D01*
X244660Y220804D01*
X244732Y220755D01*
X244802Y220703D01*
X244870Y220647D01*
X244935Y220589D01*
X244998Y220528D01*
X245057Y220464D01*
X245114Y220397D01*
X245168Y220329D01*
X245219Y220257D01*
X245266Y220184D01*
X245311Y220109D01*
X245352Y220031D01*
X245389Y219952D01*
X245423Y219872D01*
X245453Y219790D01*
X245480Y219707D01*
X245503Y219622D01*
X245522Y219537D01*
X245537Y219451D01*
X245549Y219364D01*
X245557Y219277D01*
X245561Y219190D01*
X245561Y219102D01*
X245557Y219015D01*
X245549Y218928D01*
X245537Y218841D01*
X245522Y218755D01*
X245503Y218670D01*
X245480Y218585D01*
X245453Y218502D01*
X245423Y218420D01*
X245389Y218340D01*
X245352Y218261D01*
X245311Y218183D01*
X245266Y218108D01*
X245219Y218035D01*
X245168Y217963D01*
X245114Y217895D01*
X245057Y217828D01*
X244998Y217764D01*
X244935Y217703D01*
X244870Y217645D01*
X244802Y217589D01*
X244732Y217537D01*
X244660Y217488D01*
X244586Y217442D01*
X244509Y217399D01*
X244431Y217360D01*
X244351Y217325D01*
X244270Y217293D01*
X244187Y217264D01*
X244103Y217239D01*
X244019Y217218D01*
X243933Y217201D01*
X243847Y217187D01*
X243760Y217178D01*
X243672Y217172D01*
X243585Y217170D01*
X241045Y217170D01*
X241045Y222250D01*
X241047Y222331D01*
X241053Y222411D01*
X241062Y222491D01*
X241076Y222570D01*
X241093Y222649D01*
X241114Y222727D01*
X241138Y222804D01*
X241166Y222879D01*
X241198Y222953D01*
X241233Y223026D01*
X241272Y223097D01*
X241314Y223165D01*
X241359Y223232D01*
X241407Y223297D01*
X241459Y223359D01*
X241513Y223418D01*
X241570Y223475D01*
X241629Y223529D01*
X241691Y223581D01*
X241756Y223629D01*
X241823Y223674D01*
X241892Y223716D01*
X241962Y223755D01*
X242035Y223790D01*
X242109Y223822D01*
X242184Y223850D01*
X242261Y223874D01*
X242339Y223895D01*
X242418Y223912D01*
X242497Y223926D01*
X242577Y223935D01*
X242657Y223941D01*
X242738Y223943D01*
X244996Y223943D01*
X236291Y223943D02*
X232905Y223943D01*
X235163Y227330D02*
X235163Y218863D01*
X235162Y218863D02*
X235160Y218782D01*
X235154Y218702D01*
X235145Y218622D01*
X235131Y218543D01*
X235114Y218464D01*
X235093Y218386D01*
X235069Y218309D01*
X235041Y218234D01*
X235009Y218160D01*
X234974Y218087D01*
X234935Y218017D01*
X234893Y217948D01*
X234848Y217881D01*
X234800Y217816D01*
X234748Y217754D01*
X234694Y217695D01*
X234637Y217638D01*
X234578Y217584D01*
X234516Y217532D01*
X234451Y217484D01*
X234384Y217439D01*
X234316Y217397D01*
X234245Y217358D01*
X234172Y217323D01*
X234098Y217291D01*
X234023Y217263D01*
X233946Y217239D01*
X233868Y217218D01*
X233789Y217201D01*
X233710Y217187D01*
X233630Y217178D01*
X233550Y217172D01*
X233469Y217170D01*
X232905Y217170D01*
X229052Y223943D02*
X225666Y223943D01*
X227924Y227330D02*
X227924Y218863D01*
X227923Y218863D02*
X227921Y218782D01*
X227915Y218702D01*
X227906Y218622D01*
X227892Y218543D01*
X227875Y218464D01*
X227854Y218386D01*
X227830Y218309D01*
X227802Y218234D01*
X227770Y218160D01*
X227735Y218087D01*
X227696Y218017D01*
X227654Y217948D01*
X227609Y217881D01*
X227561Y217816D01*
X227509Y217754D01*
X227455Y217695D01*
X227398Y217638D01*
X227339Y217584D01*
X227277Y217532D01*
X227212Y217484D01*
X227145Y217439D01*
X227077Y217397D01*
X227006Y217358D01*
X226933Y217323D01*
X226859Y217291D01*
X226784Y217263D01*
X226707Y217239D01*
X226629Y217218D01*
X226550Y217201D01*
X226471Y217187D01*
X226391Y217178D01*
X226311Y217172D01*
X226230Y217170D01*
X225666Y217170D01*
X218999Y217170D02*
X216177Y217170D01*
X218999Y217170D02*
X219080Y217172D01*
X219160Y217178D01*
X219240Y217187D01*
X219319Y217201D01*
X219398Y217218D01*
X219476Y217239D01*
X219553Y217263D01*
X219628Y217291D01*
X219702Y217323D01*
X219775Y217358D01*
X219846Y217397D01*
X219914Y217439D01*
X219981Y217484D01*
X220046Y217532D01*
X220108Y217584D01*
X220167Y217638D01*
X220224Y217695D01*
X220278Y217754D01*
X220330Y217816D01*
X220378Y217881D01*
X220423Y217948D01*
X220465Y218017D01*
X220504Y218087D01*
X220539Y218160D01*
X220571Y218234D01*
X220599Y218309D01*
X220623Y218386D01*
X220644Y218464D01*
X220661Y218543D01*
X220675Y218622D01*
X220684Y218702D01*
X220690Y218782D01*
X220692Y218863D01*
X220692Y221686D01*
X220693Y221686D02*
X220691Y221779D01*
X220685Y221872D01*
X220676Y221965D01*
X220662Y222058D01*
X220645Y222149D01*
X220624Y222240D01*
X220599Y222330D01*
X220571Y222419D01*
X220539Y222507D01*
X220503Y222593D01*
X220464Y222678D01*
X220421Y222761D01*
X220375Y222842D01*
X220325Y222921D01*
X220273Y222998D01*
X220217Y223073D01*
X220158Y223145D01*
X220096Y223215D01*
X220032Y223283D01*
X219964Y223347D01*
X219894Y223409D01*
X219822Y223468D01*
X219747Y223524D01*
X219670Y223576D01*
X219591Y223626D01*
X219510Y223672D01*
X219427Y223715D01*
X219342Y223754D01*
X219256Y223790D01*
X219168Y223822D01*
X219079Y223850D01*
X218989Y223875D01*
X218898Y223896D01*
X218807Y223913D01*
X218714Y223927D01*
X218621Y223936D01*
X218528Y223942D01*
X218435Y223944D01*
X218342Y223942D01*
X218249Y223936D01*
X218156Y223927D01*
X218063Y223913D01*
X217972Y223896D01*
X217881Y223875D01*
X217791Y223850D01*
X217702Y223822D01*
X217614Y223790D01*
X217528Y223754D01*
X217443Y223715D01*
X217360Y223672D01*
X217279Y223626D01*
X217200Y223576D01*
X217123Y223524D01*
X217048Y223468D01*
X216976Y223409D01*
X216906Y223347D01*
X216838Y223283D01*
X216774Y223215D01*
X216712Y223145D01*
X216653Y223073D01*
X216597Y222998D01*
X216545Y222921D01*
X216495Y222842D01*
X216449Y222761D01*
X216406Y222678D01*
X216367Y222593D01*
X216331Y222507D01*
X216299Y222419D01*
X216271Y222330D01*
X216246Y222240D01*
X216225Y222149D01*
X216208Y222058D01*
X216194Y221965D01*
X216185Y221872D01*
X216179Y221779D01*
X216177Y221686D01*
X216177Y220557D01*
X220692Y220557D01*
X210289Y217170D02*
X210289Y223943D01*
X206902Y223943D01*
X206902Y222814D01*
X203166Y213783D02*
X202038Y213783D01*
X198651Y223943D01*
X203166Y223943D02*
X200909Y217170D01*
X185148Y217170D02*
X182890Y217170D01*
X185148Y217170D02*
X185241Y217172D01*
X185334Y217178D01*
X185427Y217187D01*
X185520Y217201D01*
X185611Y217218D01*
X185702Y217239D01*
X185792Y217264D01*
X185881Y217292D01*
X185969Y217324D01*
X186055Y217360D01*
X186140Y217399D01*
X186223Y217442D01*
X186304Y217488D01*
X186383Y217538D01*
X186460Y217590D01*
X186535Y217646D01*
X186607Y217705D01*
X186677Y217767D01*
X186745Y217831D01*
X186809Y217899D01*
X186871Y217969D01*
X186930Y218041D01*
X186986Y218116D01*
X187038Y218193D01*
X187088Y218272D01*
X187134Y218353D01*
X187177Y218436D01*
X187216Y218521D01*
X187252Y218607D01*
X187284Y218695D01*
X187312Y218784D01*
X187337Y218874D01*
X187358Y218965D01*
X187375Y219056D01*
X187389Y219149D01*
X187398Y219242D01*
X187404Y219335D01*
X187406Y219428D01*
X187406Y225072D01*
X187404Y225165D01*
X187398Y225258D01*
X187389Y225351D01*
X187375Y225444D01*
X187358Y225535D01*
X187337Y225626D01*
X187312Y225716D01*
X187284Y225805D01*
X187252Y225893D01*
X187216Y225979D01*
X187177Y226064D01*
X187134Y226147D01*
X187088Y226228D01*
X187038Y226307D01*
X186986Y226384D01*
X186930Y226459D01*
X186871Y226531D01*
X186809Y226601D01*
X186745Y226669D01*
X186677Y226733D01*
X186607Y226795D01*
X186535Y226854D01*
X186460Y226910D01*
X186383Y226962D01*
X186304Y227012D01*
X186223Y227058D01*
X186140Y227101D01*
X186055Y227140D01*
X185969Y227176D01*
X185881Y227208D01*
X185792Y227236D01*
X185702Y227261D01*
X185611Y227282D01*
X185520Y227299D01*
X185427Y227313D01*
X185334Y227322D01*
X185241Y227328D01*
X185148Y227330D01*
X182890Y227330D01*
X177639Y227330D02*
X177639Y217170D01*
X177639Y223943D02*
X174817Y223943D01*
X174736Y223941D01*
X174656Y223935D01*
X174576Y223926D01*
X174497Y223912D01*
X174418Y223895D01*
X174340Y223874D01*
X174263Y223850D01*
X174188Y223822D01*
X174114Y223790D01*
X174041Y223755D01*
X173971Y223716D01*
X173902Y223674D01*
X173835Y223629D01*
X173770Y223581D01*
X173708Y223529D01*
X173649Y223475D01*
X173592Y223418D01*
X173538Y223359D01*
X173486Y223297D01*
X173438Y223232D01*
X173393Y223165D01*
X173351Y223097D01*
X173312Y223026D01*
X173277Y222953D01*
X173245Y222879D01*
X173217Y222804D01*
X173193Y222727D01*
X173172Y222649D01*
X173155Y222570D01*
X173141Y222491D01*
X173132Y222411D01*
X173126Y222331D01*
X173124Y222250D01*
X173124Y217170D01*
X165480Y221121D02*
X162940Y221121D01*
X165480Y221122D02*
X165567Y221120D01*
X165655Y221114D01*
X165742Y221105D01*
X165828Y221091D01*
X165914Y221074D01*
X165998Y221053D01*
X166082Y221028D01*
X166165Y220999D01*
X166246Y220967D01*
X166326Y220932D01*
X166404Y220893D01*
X166481Y220850D01*
X166555Y220804D01*
X166627Y220755D01*
X166697Y220703D01*
X166765Y220647D01*
X166830Y220589D01*
X166893Y220528D01*
X166952Y220464D01*
X167009Y220397D01*
X167063Y220329D01*
X167114Y220257D01*
X167161Y220184D01*
X167206Y220109D01*
X167247Y220031D01*
X167284Y219952D01*
X167318Y219872D01*
X167348Y219790D01*
X167375Y219707D01*
X167398Y219622D01*
X167417Y219537D01*
X167432Y219451D01*
X167444Y219364D01*
X167452Y219277D01*
X167456Y219190D01*
X167456Y219102D01*
X167452Y219015D01*
X167444Y218928D01*
X167432Y218841D01*
X167417Y218755D01*
X167398Y218670D01*
X167375Y218585D01*
X167348Y218502D01*
X167318Y218420D01*
X167284Y218340D01*
X167247Y218261D01*
X167206Y218183D01*
X167161Y218108D01*
X167114Y218035D01*
X167063Y217963D01*
X167009Y217895D01*
X166952Y217828D01*
X166893Y217764D01*
X166830Y217703D01*
X166765Y217645D01*
X166697Y217589D01*
X166627Y217537D01*
X166555Y217488D01*
X166481Y217442D01*
X166404Y217399D01*
X166326Y217360D01*
X166246Y217325D01*
X166165Y217293D01*
X166082Y217264D01*
X165998Y217239D01*
X165914Y217218D01*
X165828Y217201D01*
X165742Y217187D01*
X165655Y217178D01*
X165567Y217172D01*
X165480Y217170D01*
X162940Y217170D01*
X162940Y222250D01*
X162942Y222331D01*
X162948Y222411D01*
X162957Y222491D01*
X162971Y222570D01*
X162988Y222649D01*
X163009Y222727D01*
X163033Y222804D01*
X163061Y222879D01*
X163093Y222953D01*
X163128Y223026D01*
X163167Y223097D01*
X163209Y223165D01*
X163254Y223232D01*
X163302Y223297D01*
X163354Y223359D01*
X163408Y223418D01*
X163465Y223475D01*
X163524Y223529D01*
X163586Y223581D01*
X163651Y223629D01*
X163718Y223674D01*
X163787Y223716D01*
X163857Y223755D01*
X163930Y223790D01*
X164004Y223822D01*
X164079Y223850D01*
X164156Y223874D01*
X164234Y223895D01*
X164313Y223912D01*
X164392Y223926D01*
X164472Y223935D01*
X164552Y223941D01*
X164633Y223943D01*
X166891Y223943D01*
X156568Y223943D02*
X156568Y217170D01*
X156568Y223943D02*
X153182Y223943D01*
X153182Y222814D01*
X147474Y217170D02*
X144652Y217170D01*
X147474Y217170D02*
X147555Y217172D01*
X147635Y217178D01*
X147715Y217187D01*
X147794Y217201D01*
X147873Y217218D01*
X147951Y217239D01*
X148028Y217263D01*
X148103Y217291D01*
X148177Y217323D01*
X148250Y217358D01*
X148321Y217397D01*
X148389Y217439D01*
X148456Y217484D01*
X148521Y217532D01*
X148583Y217584D01*
X148642Y217638D01*
X148699Y217695D01*
X148753Y217754D01*
X148805Y217816D01*
X148853Y217881D01*
X148898Y217948D01*
X148940Y218017D01*
X148979Y218087D01*
X149014Y218160D01*
X149046Y218234D01*
X149074Y218309D01*
X149098Y218386D01*
X149119Y218464D01*
X149136Y218543D01*
X149150Y218622D01*
X149159Y218702D01*
X149165Y218782D01*
X149167Y218863D01*
X149168Y218863D02*
X149168Y222250D01*
X149167Y222250D02*
X149165Y222331D01*
X149159Y222411D01*
X149150Y222491D01*
X149136Y222570D01*
X149119Y222649D01*
X149098Y222727D01*
X149074Y222804D01*
X149046Y222879D01*
X149014Y222953D01*
X148979Y223026D01*
X148940Y223097D01*
X148898Y223165D01*
X148853Y223232D01*
X148805Y223297D01*
X148753Y223359D01*
X148699Y223418D01*
X148642Y223475D01*
X148583Y223529D01*
X148521Y223581D01*
X148456Y223629D01*
X148389Y223674D01*
X148321Y223716D01*
X148250Y223755D01*
X148177Y223790D01*
X148103Y223822D01*
X148028Y223850D01*
X147951Y223874D01*
X147873Y223895D01*
X147794Y223912D01*
X147715Y223926D01*
X147635Y223935D01*
X147555Y223941D01*
X147474Y223943D01*
X144652Y223943D01*
X144652Y215477D01*
X144654Y215396D01*
X144660Y215316D01*
X144669Y215236D01*
X144683Y215157D01*
X144700Y215078D01*
X144721Y215000D01*
X144745Y214923D01*
X144773Y214848D01*
X144805Y214774D01*
X144840Y214701D01*
X144879Y214631D01*
X144921Y214562D01*
X144966Y214495D01*
X145014Y214430D01*
X145065Y214368D01*
X145120Y214309D01*
X145177Y214252D01*
X145236Y214198D01*
X145298Y214146D01*
X145363Y214098D01*
X145430Y214053D01*
X145498Y214011D01*
X145569Y213972D01*
X145642Y213937D01*
X145716Y213905D01*
X145791Y213877D01*
X145868Y213853D01*
X145946Y213832D01*
X146025Y213815D01*
X146104Y213801D01*
X146184Y213792D01*
X146264Y213786D01*
X146345Y213784D01*
X146345Y213783D02*
X148603Y213783D01*
X137084Y217170D02*
X134262Y217170D01*
X137084Y217170D02*
X137165Y217172D01*
X137245Y217178D01*
X137325Y217187D01*
X137404Y217201D01*
X137483Y217218D01*
X137561Y217239D01*
X137638Y217263D01*
X137713Y217291D01*
X137787Y217323D01*
X137860Y217358D01*
X137931Y217397D01*
X137999Y217439D01*
X138066Y217484D01*
X138131Y217532D01*
X138193Y217584D01*
X138252Y217638D01*
X138309Y217695D01*
X138363Y217754D01*
X138415Y217816D01*
X138463Y217881D01*
X138508Y217948D01*
X138550Y218017D01*
X138589Y218087D01*
X138624Y218160D01*
X138656Y218234D01*
X138684Y218309D01*
X138708Y218386D01*
X138729Y218464D01*
X138746Y218543D01*
X138760Y218622D01*
X138769Y218702D01*
X138775Y218782D01*
X138777Y218863D01*
X138778Y218863D02*
X138778Y221686D01*
X138776Y221779D01*
X138770Y221872D01*
X138761Y221965D01*
X138747Y222058D01*
X138730Y222149D01*
X138709Y222240D01*
X138684Y222330D01*
X138656Y222419D01*
X138624Y222507D01*
X138588Y222593D01*
X138549Y222678D01*
X138506Y222761D01*
X138460Y222842D01*
X138410Y222921D01*
X138358Y222998D01*
X138302Y223073D01*
X138243Y223145D01*
X138181Y223215D01*
X138117Y223283D01*
X138049Y223347D01*
X137979Y223409D01*
X137907Y223468D01*
X137832Y223524D01*
X137755Y223576D01*
X137676Y223626D01*
X137595Y223672D01*
X137512Y223715D01*
X137427Y223754D01*
X137341Y223790D01*
X137253Y223822D01*
X137164Y223850D01*
X137074Y223875D01*
X136983Y223896D01*
X136892Y223913D01*
X136799Y223927D01*
X136706Y223936D01*
X136613Y223942D01*
X136520Y223944D01*
X136427Y223942D01*
X136334Y223936D01*
X136241Y223927D01*
X136148Y223913D01*
X136057Y223896D01*
X135966Y223875D01*
X135876Y223850D01*
X135787Y223822D01*
X135699Y223790D01*
X135613Y223754D01*
X135528Y223715D01*
X135445Y223672D01*
X135364Y223626D01*
X135285Y223576D01*
X135208Y223524D01*
X135133Y223468D01*
X135061Y223409D01*
X134991Y223347D01*
X134923Y223283D01*
X134859Y223215D01*
X134797Y223145D01*
X134738Y223073D01*
X134682Y222998D01*
X134630Y222921D01*
X134580Y222842D01*
X134534Y222761D01*
X134491Y222678D01*
X134452Y222593D01*
X134416Y222507D01*
X134384Y222419D01*
X134356Y222330D01*
X134331Y222240D01*
X134310Y222149D01*
X134293Y222058D01*
X134279Y221965D01*
X134270Y221872D01*
X134264Y221779D01*
X134262Y221686D01*
X134262Y220557D01*
X138778Y220557D01*
X128374Y217170D02*
X128374Y223943D01*
X124988Y223943D01*
X124988Y222814D01*
X284698Y208280D02*
X284698Y198120D01*
X284698Y208280D02*
X281875Y208280D01*
X281769Y208278D01*
X281664Y208272D01*
X281559Y208262D01*
X281454Y208248D01*
X281350Y208231D01*
X281247Y208209D01*
X281145Y208184D01*
X281043Y208155D01*
X280943Y208122D01*
X280844Y208085D01*
X280747Y208045D01*
X280651Y208001D01*
X280556Y207953D01*
X280464Y207902D01*
X280374Y207847D01*
X280285Y207790D01*
X280199Y207729D01*
X280116Y207664D01*
X280034Y207597D01*
X279956Y207527D01*
X279880Y207453D01*
X279806Y207377D01*
X279736Y207299D01*
X279669Y207217D01*
X279604Y207134D01*
X279543Y207048D01*
X279486Y206959D01*
X279431Y206869D01*
X279380Y206777D01*
X279332Y206682D01*
X279288Y206586D01*
X279248Y206489D01*
X279211Y206390D01*
X279178Y206290D01*
X279149Y206188D01*
X279124Y206086D01*
X279102Y205983D01*
X279085Y205879D01*
X279071Y205774D01*
X279061Y205669D01*
X279055Y205564D01*
X279053Y205458D01*
X279055Y205352D01*
X279061Y205247D01*
X279071Y205142D01*
X279085Y205037D01*
X279102Y204933D01*
X279124Y204830D01*
X279149Y204728D01*
X279178Y204626D01*
X279211Y204526D01*
X279248Y204427D01*
X279288Y204330D01*
X279332Y204234D01*
X279380Y204139D01*
X279431Y204047D01*
X279486Y203957D01*
X279543Y203868D01*
X279604Y203782D01*
X279669Y203699D01*
X279736Y203617D01*
X279806Y203539D01*
X279880Y203463D01*
X279956Y203389D01*
X280034Y203319D01*
X280116Y203252D01*
X280199Y203187D01*
X280285Y203126D01*
X280374Y203069D01*
X280464Y203014D01*
X280556Y202963D01*
X280651Y202915D01*
X280747Y202871D01*
X280844Y202831D01*
X280943Y202794D01*
X281043Y202761D01*
X281145Y202732D01*
X281247Y202707D01*
X281350Y202685D01*
X281454Y202668D01*
X281559Y202654D01*
X281664Y202644D01*
X281769Y202638D01*
X281875Y202636D01*
X284698Y202636D01*
X281311Y202636D02*
X279053Y198120D01*
X271901Y198120D02*
X269079Y198120D01*
X271901Y198120D02*
X271982Y198122D01*
X272062Y198128D01*
X272142Y198137D01*
X272221Y198151D01*
X272300Y198168D01*
X272378Y198189D01*
X272455Y198213D01*
X272530Y198241D01*
X272604Y198273D01*
X272677Y198308D01*
X272748Y198347D01*
X272816Y198389D01*
X272883Y198434D01*
X272948Y198482D01*
X273010Y198534D01*
X273069Y198588D01*
X273126Y198645D01*
X273180Y198704D01*
X273232Y198766D01*
X273280Y198831D01*
X273325Y198898D01*
X273367Y198967D01*
X273406Y199037D01*
X273441Y199110D01*
X273473Y199184D01*
X273501Y199259D01*
X273525Y199336D01*
X273546Y199414D01*
X273563Y199493D01*
X273577Y199572D01*
X273586Y199652D01*
X273592Y199732D01*
X273594Y199813D01*
X273594Y202636D01*
X273592Y202729D01*
X273586Y202822D01*
X273577Y202915D01*
X273563Y203008D01*
X273546Y203099D01*
X273525Y203190D01*
X273500Y203280D01*
X273472Y203369D01*
X273440Y203457D01*
X273404Y203543D01*
X273365Y203628D01*
X273322Y203711D01*
X273276Y203792D01*
X273226Y203871D01*
X273174Y203948D01*
X273118Y204023D01*
X273059Y204095D01*
X272997Y204165D01*
X272933Y204233D01*
X272865Y204297D01*
X272795Y204359D01*
X272723Y204418D01*
X272648Y204474D01*
X272571Y204526D01*
X272492Y204576D01*
X272411Y204622D01*
X272328Y204665D01*
X272243Y204704D01*
X272157Y204740D01*
X272069Y204772D01*
X271980Y204800D01*
X271890Y204825D01*
X271799Y204846D01*
X271708Y204863D01*
X271615Y204877D01*
X271522Y204886D01*
X271429Y204892D01*
X271336Y204894D01*
X271243Y204892D01*
X271150Y204886D01*
X271057Y204877D01*
X270964Y204863D01*
X270873Y204846D01*
X270782Y204825D01*
X270692Y204800D01*
X270603Y204772D01*
X270515Y204740D01*
X270429Y204704D01*
X270344Y204665D01*
X270261Y204622D01*
X270180Y204576D01*
X270101Y204526D01*
X270024Y204474D01*
X269949Y204418D01*
X269877Y204359D01*
X269807Y204297D01*
X269739Y204233D01*
X269675Y204165D01*
X269613Y204095D01*
X269554Y204023D01*
X269498Y203948D01*
X269446Y203871D01*
X269396Y203792D01*
X269350Y203711D01*
X269307Y203628D01*
X269268Y203543D01*
X269232Y203457D01*
X269200Y203369D01*
X269172Y203280D01*
X269147Y203190D01*
X269126Y203099D01*
X269109Y203008D01*
X269095Y202915D01*
X269086Y202822D01*
X269080Y202729D01*
X269078Y202636D01*
X269079Y202636D02*
X269079Y201507D01*
X273594Y201507D01*
X264069Y204893D02*
X261811Y198120D01*
X259554Y204893D01*
X248815Y198120D02*
X245428Y208280D01*
X242042Y198120D01*
X242888Y200660D02*
X247968Y200660D01*
X230527Y202071D02*
X223754Y202071D01*
X217573Y202071D02*
X210800Y202071D01*
X195616Y208280D02*
X195516Y208278D01*
X195417Y208272D01*
X195317Y208262D01*
X195219Y208249D01*
X195120Y208231D01*
X195023Y208210D01*
X194927Y208185D01*
X194831Y208156D01*
X194737Y208123D01*
X194644Y208087D01*
X194553Y208047D01*
X194463Y208003D01*
X194375Y207956D01*
X194289Y207906D01*
X194205Y207852D01*
X194123Y207795D01*
X194044Y207735D01*
X193966Y207671D01*
X193892Y207605D01*
X193820Y207536D01*
X193751Y207464D01*
X193685Y207390D01*
X193621Y207312D01*
X193561Y207233D01*
X193504Y207151D01*
X193450Y207067D01*
X193400Y206981D01*
X193353Y206893D01*
X193309Y206803D01*
X193269Y206712D01*
X193233Y206619D01*
X193200Y206525D01*
X193171Y206429D01*
X193146Y206333D01*
X193125Y206236D01*
X193107Y206137D01*
X193094Y206039D01*
X193084Y205939D01*
X193078Y205840D01*
X193076Y205740D01*
X195616Y208280D02*
X195727Y208278D01*
X195838Y208272D01*
X195948Y208263D01*
X196058Y208250D01*
X196168Y208233D01*
X196277Y208212D01*
X196385Y208188D01*
X196492Y208160D01*
X196599Y208129D01*
X196704Y208093D01*
X196808Y208055D01*
X196910Y208012D01*
X197011Y207967D01*
X197111Y207917D01*
X197208Y207865D01*
X197304Y207809D01*
X197398Y207750D01*
X197490Y207688D01*
X197580Y207623D01*
X197667Y207555D01*
X197752Y207483D01*
X197835Y207409D01*
X197915Y207333D01*
X197992Y207253D01*
X198067Y207171D01*
X198139Y207087D01*
X198208Y207000D01*
X198273Y206911D01*
X198336Y206819D01*
X198396Y206726D01*
X198452Y206630D01*
X198506Y206533D01*
X198555Y206434D01*
X198602Y206333D01*
X198645Y206231D01*
X198684Y206127D01*
X198720Y206022D01*
X193923Y203765D02*
X193851Y203835D01*
X193782Y203908D01*
X193716Y203984D01*
X193653Y204062D01*
X193593Y204142D01*
X193536Y204225D01*
X193481Y204309D01*
X193430Y204396D01*
X193382Y204484D01*
X193338Y204574D01*
X193297Y204665D01*
X193259Y204758D01*
X193224Y204853D01*
X193193Y204948D01*
X193166Y205045D01*
X193142Y205142D01*
X193122Y205241D01*
X193106Y205340D01*
X193093Y205439D01*
X193083Y205539D01*
X193078Y205640D01*
X193076Y205740D01*
X193923Y203764D02*
X198721Y198120D01*
X193076Y198120D01*
X187291Y203200D02*
X187289Y203400D01*
X187281Y203600D01*
X187270Y203799D01*
X187253Y203998D01*
X187231Y204197D01*
X187205Y204395D01*
X187174Y204593D01*
X187139Y204789D01*
X187098Y204985D01*
X187054Y205180D01*
X187004Y205374D01*
X186950Y205566D01*
X186891Y205757D01*
X186828Y205947D01*
X186760Y206135D01*
X186688Y206321D01*
X186611Y206506D01*
X186530Y206688D01*
X186444Y206869D01*
X186443Y206869D02*
X186412Y206953D01*
X186378Y207035D01*
X186340Y207116D01*
X186299Y207196D01*
X186254Y207273D01*
X186207Y207348D01*
X186156Y207422D01*
X186101Y207493D01*
X186044Y207561D01*
X185984Y207628D01*
X185921Y207691D01*
X185856Y207752D01*
X185788Y207810D01*
X185718Y207865D01*
X185645Y207917D01*
X185570Y207965D01*
X185493Y208011D01*
X185415Y208053D01*
X185334Y208092D01*
X185252Y208127D01*
X185169Y208159D01*
X185084Y208187D01*
X184998Y208212D01*
X184911Y208232D01*
X184824Y208250D01*
X184735Y208263D01*
X184646Y208272D01*
X184557Y208278D01*
X184468Y208280D01*
X184379Y208278D01*
X184290Y208272D01*
X184201Y208263D01*
X184112Y208250D01*
X184025Y208232D01*
X183938Y208212D01*
X183852Y208187D01*
X183767Y208159D01*
X183684Y208127D01*
X183602Y208092D01*
X183521Y208053D01*
X183443Y208011D01*
X183366Y207965D01*
X183291Y207917D01*
X183218Y207865D01*
X183148Y207810D01*
X183080Y207752D01*
X183015Y207691D01*
X182952Y207628D01*
X182892Y207561D01*
X182835Y207493D01*
X182780Y207422D01*
X182729Y207348D01*
X182682Y207273D01*
X182637Y207196D01*
X182596Y207116D01*
X182558Y207035D01*
X182524Y206953D01*
X182493Y206869D01*
X182494Y206869D02*
X182408Y206688D01*
X182327Y206505D01*
X182250Y206321D01*
X182178Y206134D01*
X182110Y205946D01*
X182047Y205757D01*
X181988Y205566D01*
X181934Y205373D01*
X181884Y205180D01*
X181840Y204985D01*
X181799Y204789D01*
X181764Y204593D01*
X181733Y204395D01*
X181707Y204197D01*
X181685Y203998D01*
X181668Y203799D01*
X181657Y203600D01*
X181649Y203400D01*
X181647Y203200D01*
X187291Y203200D02*
X187289Y203000D01*
X187281Y202800D01*
X187270Y202601D01*
X187253Y202402D01*
X187231Y202203D01*
X187205Y202005D01*
X187174Y201807D01*
X187139Y201611D01*
X187098Y201415D01*
X187054Y201220D01*
X187004Y201026D01*
X186950Y200834D01*
X186891Y200643D01*
X186828Y200453D01*
X186760Y200265D01*
X186688Y200079D01*
X186611Y199894D01*
X186530Y199712D01*
X186444Y199531D01*
X186443Y199531D02*
X186412Y199447D01*
X186378Y199365D01*
X186340Y199284D01*
X186299Y199204D01*
X186254Y199127D01*
X186207Y199052D01*
X186155Y198978D01*
X186101Y198907D01*
X186044Y198839D01*
X185984Y198772D01*
X185921Y198709D01*
X185856Y198648D01*
X185788Y198590D01*
X185718Y198535D01*
X185645Y198483D01*
X185570Y198435D01*
X185493Y198389D01*
X185415Y198347D01*
X185334Y198308D01*
X185252Y198273D01*
X185169Y198241D01*
X185084Y198213D01*
X184998Y198188D01*
X184911Y198168D01*
X184824Y198150D01*
X184735Y198137D01*
X184646Y198128D01*
X184557Y198122D01*
X184468Y198120D01*
X182493Y199531D02*
X182407Y199712D01*
X182326Y199894D01*
X182249Y200079D01*
X182177Y200265D01*
X182109Y200453D01*
X182046Y200643D01*
X181987Y200834D01*
X181933Y201026D01*
X181883Y201220D01*
X181839Y201415D01*
X181798Y201611D01*
X181763Y201807D01*
X181732Y202005D01*
X181706Y202203D01*
X181684Y202402D01*
X181667Y202601D01*
X181656Y202800D01*
X181648Y203000D01*
X181646Y203200D01*
X182493Y199531D02*
X182524Y199447D01*
X182558Y199365D01*
X182596Y199284D01*
X182637Y199204D01*
X182682Y199127D01*
X182729Y199052D01*
X182781Y198978D01*
X182835Y198907D01*
X182892Y198839D01*
X182952Y198772D01*
X183015Y198709D01*
X183080Y198648D01*
X183148Y198590D01*
X183218Y198535D01*
X183291Y198483D01*
X183366Y198435D01*
X183443Y198389D01*
X183521Y198347D01*
X183602Y198308D01*
X183684Y198273D01*
X183767Y198241D01*
X183852Y198213D01*
X183938Y198188D01*
X184025Y198168D01*
X184112Y198150D01*
X184201Y198137D01*
X184290Y198128D01*
X184379Y198122D01*
X184468Y198120D01*
X186726Y200378D02*
X182211Y206022D01*
X175861Y206022D02*
X173038Y208280D01*
X173038Y198120D01*
X170216Y198120D02*
X175861Y198120D01*
X162173Y202636D02*
X158786Y202636D01*
X162173Y202635D02*
X162266Y202637D01*
X162359Y202643D01*
X162452Y202652D01*
X162545Y202666D01*
X162636Y202683D01*
X162727Y202704D01*
X162817Y202729D01*
X162906Y202757D01*
X162994Y202789D01*
X163080Y202825D01*
X163165Y202864D01*
X163248Y202907D01*
X163329Y202953D01*
X163408Y203003D01*
X163485Y203055D01*
X163560Y203111D01*
X163632Y203170D01*
X163702Y203232D01*
X163770Y203296D01*
X163834Y203364D01*
X163896Y203434D01*
X163955Y203506D01*
X164011Y203581D01*
X164063Y203658D01*
X164113Y203737D01*
X164159Y203818D01*
X164202Y203901D01*
X164241Y203986D01*
X164277Y204072D01*
X164309Y204160D01*
X164337Y204249D01*
X164362Y204339D01*
X164383Y204430D01*
X164400Y204521D01*
X164414Y204614D01*
X164423Y204707D01*
X164429Y204800D01*
X164431Y204893D01*
X164431Y205458D01*
X164430Y205458D02*
X164428Y205564D01*
X164422Y205669D01*
X164412Y205774D01*
X164398Y205879D01*
X164381Y205983D01*
X164359Y206086D01*
X164334Y206188D01*
X164305Y206290D01*
X164272Y206390D01*
X164235Y206489D01*
X164195Y206586D01*
X164151Y206682D01*
X164103Y206777D01*
X164052Y206869D01*
X163997Y206959D01*
X163940Y207048D01*
X163879Y207134D01*
X163814Y207217D01*
X163747Y207299D01*
X163677Y207377D01*
X163603Y207453D01*
X163527Y207527D01*
X163449Y207597D01*
X163367Y207664D01*
X163284Y207729D01*
X163198Y207790D01*
X163109Y207847D01*
X163019Y207902D01*
X162927Y207953D01*
X162832Y208001D01*
X162736Y208045D01*
X162639Y208085D01*
X162540Y208122D01*
X162440Y208155D01*
X162338Y208184D01*
X162236Y208209D01*
X162133Y208231D01*
X162029Y208248D01*
X161924Y208262D01*
X161819Y208272D01*
X161714Y208278D01*
X161608Y208280D01*
X161502Y208278D01*
X161397Y208272D01*
X161292Y208262D01*
X161187Y208248D01*
X161083Y208231D01*
X160980Y208209D01*
X160878Y208184D01*
X160776Y208155D01*
X160676Y208122D01*
X160577Y208085D01*
X160480Y208045D01*
X160384Y208001D01*
X160289Y207953D01*
X160197Y207902D01*
X160107Y207847D01*
X160018Y207790D01*
X159932Y207729D01*
X159849Y207664D01*
X159767Y207597D01*
X159689Y207527D01*
X159613Y207453D01*
X159539Y207377D01*
X159469Y207299D01*
X159402Y207217D01*
X159337Y207134D01*
X159276Y207048D01*
X159219Y206959D01*
X159164Y206869D01*
X159113Y206777D01*
X159065Y206682D01*
X159021Y206586D01*
X158981Y206489D01*
X158944Y206390D01*
X158911Y206290D01*
X158882Y206188D01*
X158857Y206086D01*
X158835Y205983D01*
X158818Y205879D01*
X158804Y205774D01*
X158794Y205669D01*
X158788Y205564D01*
X158786Y205458D01*
X158786Y202636D01*
X158788Y202505D01*
X158794Y202373D01*
X158803Y202242D01*
X158817Y202112D01*
X158834Y201981D01*
X158855Y201852D01*
X158879Y201723D01*
X158908Y201595D01*
X158940Y201467D01*
X158976Y201341D01*
X159015Y201216D01*
X159058Y201091D01*
X159105Y200969D01*
X159155Y200847D01*
X159209Y200727D01*
X159266Y200609D01*
X159327Y200493D01*
X159391Y200378D01*
X159458Y200265D01*
X159529Y200154D01*
X159603Y200046D01*
X159680Y199939D01*
X159760Y199835D01*
X159843Y199733D01*
X159928Y199634D01*
X160017Y199537D01*
X160109Y199443D01*
X160203Y199351D01*
X160300Y199262D01*
X160399Y199177D01*
X160501Y199094D01*
X160605Y199014D01*
X160712Y198937D01*
X160820Y198863D01*
X160931Y198792D01*
X161044Y198725D01*
X161159Y198661D01*
X161275Y198600D01*
X161393Y198543D01*
X161513Y198489D01*
X161635Y198439D01*
X161757Y198392D01*
X161882Y198349D01*
X162007Y198310D01*
X162133Y198274D01*
X162261Y198242D01*
X162389Y198213D01*
X162518Y198189D01*
X162647Y198168D01*
X162778Y198151D01*
X162908Y198137D01*
X163039Y198128D01*
X163171Y198122D01*
X163302Y198120D01*
X146905Y200942D02*
X146905Y205458D01*
X146904Y205458D02*
X146902Y205564D01*
X146896Y205669D01*
X146886Y205774D01*
X146872Y205879D01*
X146855Y205983D01*
X146833Y206086D01*
X146808Y206188D01*
X146779Y206290D01*
X146746Y206390D01*
X146709Y206489D01*
X146669Y206586D01*
X146625Y206682D01*
X146577Y206777D01*
X146526Y206869D01*
X146471Y206959D01*
X146414Y207048D01*
X146353Y207134D01*
X146288Y207217D01*
X146221Y207299D01*
X146151Y207377D01*
X146077Y207453D01*
X146001Y207527D01*
X145923Y207597D01*
X145841Y207664D01*
X145758Y207729D01*
X145672Y207790D01*
X145583Y207847D01*
X145493Y207902D01*
X145401Y207953D01*
X145306Y208001D01*
X145210Y208045D01*
X145113Y208085D01*
X145014Y208122D01*
X144914Y208155D01*
X144812Y208184D01*
X144710Y208209D01*
X144607Y208231D01*
X144503Y208248D01*
X144398Y208262D01*
X144293Y208272D01*
X144188Y208278D01*
X144082Y208280D01*
X143976Y208278D01*
X143871Y208272D01*
X143766Y208262D01*
X143661Y208248D01*
X143557Y208231D01*
X143454Y208209D01*
X143352Y208184D01*
X143250Y208155D01*
X143150Y208122D01*
X143051Y208085D01*
X142954Y208045D01*
X142858Y208001D01*
X142763Y207953D01*
X142671Y207902D01*
X142581Y207847D01*
X142492Y207790D01*
X142406Y207729D01*
X142323Y207664D01*
X142241Y207597D01*
X142163Y207527D01*
X142087Y207453D01*
X142013Y207377D01*
X141943Y207299D01*
X141876Y207217D01*
X141811Y207134D01*
X141750Y207048D01*
X141693Y206959D01*
X141638Y206869D01*
X141587Y206777D01*
X141539Y206682D01*
X141495Y206586D01*
X141455Y206489D01*
X141418Y206390D01*
X141385Y206290D01*
X141356Y206188D01*
X141331Y206086D01*
X141309Y205983D01*
X141292Y205879D01*
X141278Y205774D01*
X141268Y205669D01*
X141262Y205564D01*
X141260Y205458D01*
X141260Y200942D01*
X141262Y200836D01*
X141268Y200731D01*
X141278Y200626D01*
X141292Y200521D01*
X141309Y200417D01*
X141331Y200314D01*
X141356Y200212D01*
X141385Y200110D01*
X141418Y200010D01*
X141455Y199911D01*
X141495Y199814D01*
X141539Y199718D01*
X141587Y199623D01*
X141638Y199531D01*
X141693Y199441D01*
X141750Y199352D01*
X141811Y199266D01*
X141876Y199183D01*
X141943Y199101D01*
X142013Y199023D01*
X142087Y198947D01*
X142163Y198873D01*
X142241Y198803D01*
X142323Y198736D01*
X142406Y198671D01*
X142492Y198610D01*
X142581Y198553D01*
X142671Y198498D01*
X142763Y198447D01*
X142858Y198399D01*
X142954Y198355D01*
X143051Y198315D01*
X143150Y198278D01*
X143250Y198245D01*
X143352Y198216D01*
X143454Y198191D01*
X143557Y198169D01*
X143661Y198152D01*
X143766Y198138D01*
X143871Y198128D01*
X143976Y198122D01*
X144082Y198120D01*
X144188Y198122D01*
X144293Y198128D01*
X144398Y198138D01*
X144503Y198152D01*
X144607Y198169D01*
X144710Y198191D01*
X144812Y198216D01*
X144914Y198245D01*
X145014Y198278D01*
X145113Y198315D01*
X145210Y198355D01*
X145306Y198399D01*
X145401Y198447D01*
X145493Y198498D01*
X145583Y198553D01*
X145672Y198610D01*
X145758Y198671D01*
X145841Y198736D01*
X145923Y198803D01*
X146001Y198873D01*
X146077Y198947D01*
X146151Y199023D01*
X146221Y199101D01*
X146288Y199183D01*
X146353Y199266D01*
X146414Y199352D01*
X146471Y199441D01*
X146526Y199531D01*
X146577Y199623D01*
X146625Y199718D01*
X146669Y199814D01*
X146709Y199911D01*
X146746Y200010D01*
X146779Y200110D01*
X146808Y200212D01*
X146833Y200314D01*
X146855Y200417D01*
X146872Y200521D01*
X146886Y200626D01*
X146896Y200731D01*
X146902Y200836D01*
X146904Y200942D01*
X133956Y198120D02*
X131698Y198120D01*
X133956Y198120D02*
X134037Y198122D01*
X134117Y198128D01*
X134197Y198137D01*
X134276Y198151D01*
X134355Y198168D01*
X134433Y198189D01*
X134510Y198213D01*
X134585Y198241D01*
X134659Y198273D01*
X134732Y198308D01*
X134803Y198347D01*
X134871Y198389D01*
X134938Y198434D01*
X135003Y198482D01*
X135065Y198534D01*
X135124Y198588D01*
X135181Y198645D01*
X135235Y198704D01*
X135287Y198766D01*
X135335Y198831D01*
X135380Y198898D01*
X135422Y198967D01*
X135461Y199037D01*
X135496Y199110D01*
X135528Y199184D01*
X135556Y199259D01*
X135580Y199336D01*
X135601Y199414D01*
X135618Y199493D01*
X135632Y199572D01*
X135641Y199652D01*
X135647Y199732D01*
X135649Y199813D01*
X135649Y203200D01*
X135647Y203281D01*
X135641Y203361D01*
X135632Y203441D01*
X135618Y203520D01*
X135601Y203599D01*
X135580Y203677D01*
X135556Y203754D01*
X135528Y203829D01*
X135496Y203903D01*
X135461Y203976D01*
X135422Y204047D01*
X135380Y204115D01*
X135335Y204182D01*
X135287Y204247D01*
X135235Y204309D01*
X135181Y204368D01*
X135124Y204425D01*
X135065Y204479D01*
X135003Y204531D01*
X134938Y204579D01*
X134871Y204624D01*
X134803Y204666D01*
X134732Y204705D01*
X134659Y204740D01*
X134585Y204772D01*
X134510Y204800D01*
X134433Y204824D01*
X134355Y204845D01*
X134276Y204862D01*
X134197Y204876D01*
X134117Y204885D01*
X134037Y204891D01*
X133956Y204893D01*
X131698Y204893D01*
X128030Y204893D02*
X124644Y204893D01*
X126902Y208280D02*
X126902Y199813D01*
X126901Y199813D02*
X126899Y199732D01*
X126893Y199652D01*
X126884Y199572D01*
X126870Y199493D01*
X126853Y199414D01*
X126832Y199336D01*
X126808Y199259D01*
X126780Y199184D01*
X126748Y199110D01*
X126713Y199037D01*
X126674Y198967D01*
X126632Y198898D01*
X126587Y198831D01*
X126539Y198766D01*
X126487Y198704D01*
X126433Y198645D01*
X126376Y198588D01*
X126317Y198534D01*
X126255Y198482D01*
X126190Y198434D01*
X126123Y198389D01*
X126055Y198347D01*
X125984Y198308D01*
X125911Y198273D01*
X125837Y198241D01*
X125762Y198213D01*
X125685Y198189D01*
X125607Y198168D01*
X125528Y198151D01*
X125449Y198137D01*
X125369Y198128D01*
X125289Y198122D01*
X125208Y198120D01*
X124644Y198120D01*
X113377Y206022D02*
X110555Y208280D01*
X110555Y198120D01*
X113377Y198120D02*
X107732Y198120D01*
X101947Y198120D02*
X98560Y198120D01*
X98467Y198122D01*
X98374Y198128D01*
X98281Y198137D01*
X98188Y198151D01*
X98097Y198168D01*
X98006Y198189D01*
X97916Y198214D01*
X97827Y198242D01*
X97739Y198274D01*
X97653Y198310D01*
X97568Y198349D01*
X97485Y198392D01*
X97404Y198438D01*
X97325Y198488D01*
X97248Y198540D01*
X97173Y198596D01*
X97101Y198655D01*
X97031Y198717D01*
X96963Y198781D01*
X96899Y198849D01*
X96837Y198919D01*
X96778Y198991D01*
X96722Y199066D01*
X96670Y199143D01*
X96620Y199222D01*
X96574Y199303D01*
X96531Y199386D01*
X96492Y199471D01*
X96456Y199557D01*
X96424Y199645D01*
X96396Y199734D01*
X96371Y199824D01*
X96350Y199915D01*
X96333Y200006D01*
X96319Y200099D01*
X96310Y200191D01*
X96304Y200285D01*
X96302Y200378D01*
X96302Y201507D01*
X96304Y201600D01*
X96310Y201693D01*
X96319Y201786D01*
X96333Y201879D01*
X96350Y201970D01*
X96371Y202061D01*
X96396Y202151D01*
X96424Y202240D01*
X96456Y202328D01*
X96492Y202414D01*
X96531Y202499D01*
X96574Y202582D01*
X96620Y202663D01*
X96670Y202742D01*
X96722Y202819D01*
X96778Y202894D01*
X96837Y202966D01*
X96899Y203036D01*
X96963Y203104D01*
X97031Y203168D01*
X97101Y203230D01*
X97173Y203289D01*
X97248Y203345D01*
X97325Y203397D01*
X97404Y203447D01*
X97485Y203493D01*
X97568Y203536D01*
X97653Y203575D01*
X97739Y203611D01*
X97827Y203643D01*
X97916Y203671D01*
X98006Y203696D01*
X98097Y203717D01*
X98188Y203734D01*
X98281Y203748D01*
X98374Y203757D01*
X98467Y203763D01*
X98560Y203765D01*
X98560Y203764D02*
X101947Y203764D01*
X101947Y208280D01*
X96302Y208280D01*
D11*
X649659Y115090D02*
X653610Y115090D01*
X649659Y115090D02*
X649535Y115088D01*
X649411Y115082D01*
X649287Y115072D01*
X649164Y115059D01*
X649041Y115041D01*
X648919Y115020D01*
X648797Y114995D01*
X648676Y114966D01*
X648557Y114933D01*
X648438Y114897D01*
X648321Y114856D01*
X648205Y114813D01*
X648090Y114765D01*
X647977Y114714D01*
X647865Y114659D01*
X647756Y114601D01*
X647648Y114540D01*
X647542Y114475D01*
X647438Y114407D01*
X647337Y114335D01*
X647237Y114261D01*
X647141Y114183D01*
X647046Y114103D01*
X646954Y114019D01*
X646865Y113933D01*
X646779Y113844D01*
X646695Y113752D01*
X646615Y113657D01*
X646537Y113561D01*
X646463Y113461D01*
X646391Y113360D01*
X646323Y113256D01*
X646258Y113150D01*
X646197Y113042D01*
X646139Y112933D01*
X646084Y112821D01*
X646033Y112708D01*
X645985Y112593D01*
X645942Y112477D01*
X645901Y112360D01*
X645865Y112241D01*
X645832Y112122D01*
X645803Y112001D01*
X645778Y111879D01*
X645757Y111757D01*
X645739Y111634D01*
X645726Y111511D01*
X645716Y111387D01*
X645710Y111263D01*
X645708Y111139D01*
X645710Y111015D01*
X645716Y110891D01*
X645726Y110767D01*
X645739Y110644D01*
X645757Y110521D01*
X645778Y110399D01*
X645803Y110277D01*
X645832Y110156D01*
X645865Y110037D01*
X645901Y109918D01*
X645942Y109801D01*
X645985Y109685D01*
X646033Y109570D01*
X646084Y109457D01*
X646139Y109345D01*
X646197Y109236D01*
X646258Y109128D01*
X646323Y109022D01*
X646391Y108918D01*
X646463Y108817D01*
X646537Y108717D01*
X646615Y108621D01*
X646695Y108526D01*
X646779Y108434D01*
X646865Y108345D01*
X646954Y108259D01*
X647046Y108175D01*
X647141Y108095D01*
X647237Y108017D01*
X647337Y107943D01*
X647438Y107871D01*
X647542Y107803D01*
X647648Y107738D01*
X647756Y107677D01*
X647865Y107619D01*
X647977Y107564D01*
X648090Y107513D01*
X648205Y107465D01*
X648321Y107422D01*
X648438Y107381D01*
X648557Y107345D01*
X648676Y107312D01*
X648797Y107283D01*
X648919Y107258D01*
X649041Y107237D01*
X649164Y107219D01*
X649287Y107206D01*
X649411Y107196D01*
X649535Y107190D01*
X649659Y107188D01*
X653610Y107188D01*
X653610Y121412D01*
X649659Y121412D01*
X649547Y121410D01*
X649436Y121404D01*
X649325Y121394D01*
X649214Y121381D01*
X649104Y121363D01*
X648995Y121341D01*
X648886Y121316D01*
X648778Y121287D01*
X648672Y121254D01*
X648566Y121217D01*
X648462Y121177D01*
X648360Y121133D01*
X648259Y121085D01*
X648160Y121034D01*
X648062Y120979D01*
X647967Y120921D01*
X647874Y120860D01*
X647783Y120795D01*
X647694Y120727D01*
X647608Y120656D01*
X647525Y120583D01*
X647444Y120506D01*
X647365Y120426D01*
X647290Y120344D01*
X647218Y120259D01*
X647148Y120172D01*
X647082Y120082D01*
X647019Y119990D01*
X646959Y119895D01*
X646903Y119799D01*
X646850Y119701D01*
X646801Y119601D01*
X646755Y119499D01*
X646713Y119396D01*
X646674Y119291D01*
X646639Y119185D01*
X646608Y119078D01*
X646581Y118970D01*
X646557Y118861D01*
X646538Y118751D01*
X646522Y118641D01*
X646510Y118530D01*
X646502Y118418D01*
X646498Y118307D01*
X646498Y118195D01*
X646502Y118084D01*
X646510Y117972D01*
X646522Y117861D01*
X646538Y117751D01*
X646557Y117641D01*
X646581Y117532D01*
X646608Y117424D01*
X646639Y117317D01*
X646674Y117211D01*
X646713Y117106D01*
X646755Y117003D01*
X646801Y116901D01*
X646850Y116801D01*
X646903Y116703D01*
X646959Y116607D01*
X647019Y116512D01*
X647082Y116420D01*
X647148Y116330D01*
X647218Y116243D01*
X647290Y116158D01*
X647365Y116076D01*
X647444Y115996D01*
X647525Y115919D01*
X647608Y115846D01*
X647694Y115775D01*
X647783Y115707D01*
X647874Y115642D01*
X647967Y115581D01*
X648062Y115523D01*
X648160Y115468D01*
X648259Y115417D01*
X648360Y115369D01*
X648462Y115325D01*
X648566Y115285D01*
X648672Y115248D01*
X648778Y115215D01*
X648886Y115186D01*
X648995Y115161D01*
X649104Y115139D01*
X649214Y115121D01*
X649325Y115108D01*
X649436Y115098D01*
X649547Y115092D01*
X649659Y115090D01*
X639672Y107188D02*
X634931Y121412D01*
X630189Y107188D01*
X631375Y110744D02*
X638487Y110744D01*
X620342Y107188D02*
X620342Y121412D01*
X624293Y121412D02*
X616390Y121412D01*
X652936Y157988D02*
X652936Y172212D01*
X648985Y172212D01*
X648861Y172210D01*
X648737Y172204D01*
X648613Y172194D01*
X648490Y172181D01*
X648367Y172163D01*
X648245Y172142D01*
X648123Y172117D01*
X648002Y172088D01*
X647883Y172055D01*
X647764Y172019D01*
X647647Y171978D01*
X647531Y171935D01*
X647416Y171887D01*
X647303Y171836D01*
X647191Y171781D01*
X647082Y171723D01*
X646974Y171662D01*
X646868Y171597D01*
X646764Y171529D01*
X646663Y171457D01*
X646563Y171383D01*
X646467Y171305D01*
X646372Y171225D01*
X646280Y171141D01*
X646191Y171055D01*
X646105Y170966D01*
X646021Y170874D01*
X645941Y170779D01*
X645863Y170683D01*
X645789Y170583D01*
X645717Y170482D01*
X645649Y170378D01*
X645584Y170272D01*
X645523Y170164D01*
X645465Y170055D01*
X645410Y169943D01*
X645359Y169830D01*
X645311Y169715D01*
X645268Y169599D01*
X645227Y169482D01*
X645191Y169363D01*
X645158Y169244D01*
X645129Y169123D01*
X645104Y169001D01*
X645083Y168879D01*
X645065Y168756D01*
X645052Y168633D01*
X645042Y168509D01*
X645036Y168385D01*
X645034Y168261D01*
X645036Y168137D01*
X645042Y168013D01*
X645052Y167889D01*
X645065Y167766D01*
X645083Y167643D01*
X645104Y167521D01*
X645129Y167399D01*
X645158Y167278D01*
X645191Y167159D01*
X645227Y167040D01*
X645268Y166923D01*
X645311Y166807D01*
X645359Y166692D01*
X645410Y166579D01*
X645465Y166467D01*
X645523Y166358D01*
X645584Y166250D01*
X645649Y166144D01*
X645717Y166040D01*
X645789Y165939D01*
X645863Y165839D01*
X645941Y165743D01*
X646021Y165648D01*
X646105Y165556D01*
X646191Y165467D01*
X646280Y165381D01*
X646372Y165297D01*
X646467Y165217D01*
X646563Y165139D01*
X646663Y165065D01*
X646764Y164993D01*
X646868Y164925D01*
X646974Y164860D01*
X647082Y164799D01*
X647191Y164741D01*
X647303Y164686D01*
X647416Y164635D01*
X647531Y164587D01*
X647647Y164544D01*
X647764Y164503D01*
X647883Y164467D01*
X648002Y164434D01*
X648123Y164405D01*
X648245Y164380D01*
X648367Y164359D01*
X648490Y164341D01*
X648613Y164328D01*
X648737Y164318D01*
X648861Y164312D01*
X648985Y164310D01*
X652936Y164310D01*
X648195Y164310D02*
X645034Y157988D01*
X636896Y157988D02*
X630574Y157988D01*
X636896Y157988D02*
X636896Y172212D01*
X630574Y172212D01*
X632155Y165890D02*
X636896Y165890D01*
X621015Y172212D02*
X621015Y157988D01*
X624966Y172212D02*
X617064Y172212D01*
X649677Y140490D02*
X653628Y140490D01*
X649677Y140490D02*
X649553Y140488D01*
X649429Y140482D01*
X649305Y140472D01*
X649182Y140459D01*
X649059Y140441D01*
X648937Y140420D01*
X648815Y140395D01*
X648694Y140366D01*
X648575Y140333D01*
X648456Y140297D01*
X648339Y140256D01*
X648223Y140213D01*
X648108Y140165D01*
X647995Y140114D01*
X647883Y140059D01*
X647774Y140001D01*
X647666Y139940D01*
X647560Y139875D01*
X647456Y139807D01*
X647355Y139735D01*
X647255Y139661D01*
X647159Y139583D01*
X647064Y139503D01*
X646972Y139419D01*
X646883Y139333D01*
X646797Y139244D01*
X646713Y139152D01*
X646633Y139057D01*
X646555Y138961D01*
X646481Y138861D01*
X646409Y138760D01*
X646341Y138656D01*
X646276Y138550D01*
X646215Y138442D01*
X646157Y138333D01*
X646102Y138221D01*
X646051Y138108D01*
X646003Y137993D01*
X645960Y137877D01*
X645919Y137760D01*
X645883Y137641D01*
X645850Y137522D01*
X645821Y137401D01*
X645796Y137279D01*
X645775Y137157D01*
X645757Y137034D01*
X645744Y136911D01*
X645734Y136787D01*
X645728Y136663D01*
X645726Y136539D01*
X645728Y136415D01*
X645734Y136291D01*
X645744Y136167D01*
X645757Y136044D01*
X645775Y135921D01*
X645796Y135799D01*
X645821Y135677D01*
X645850Y135556D01*
X645883Y135437D01*
X645919Y135318D01*
X645960Y135201D01*
X646003Y135085D01*
X646051Y134970D01*
X646102Y134857D01*
X646157Y134745D01*
X646215Y134636D01*
X646276Y134528D01*
X646341Y134422D01*
X646409Y134318D01*
X646481Y134217D01*
X646555Y134117D01*
X646633Y134021D01*
X646713Y133926D01*
X646797Y133834D01*
X646883Y133745D01*
X646972Y133659D01*
X647064Y133575D01*
X647159Y133495D01*
X647255Y133417D01*
X647355Y133343D01*
X647456Y133271D01*
X647560Y133203D01*
X647666Y133138D01*
X647774Y133077D01*
X647883Y133019D01*
X647995Y132964D01*
X648108Y132913D01*
X648223Y132865D01*
X648339Y132822D01*
X648456Y132781D01*
X648575Y132745D01*
X648694Y132712D01*
X648815Y132683D01*
X648937Y132658D01*
X649059Y132637D01*
X649182Y132619D01*
X649305Y132606D01*
X649429Y132596D01*
X649553Y132590D01*
X649677Y132588D01*
X653628Y132588D01*
X653628Y146812D01*
X649677Y146812D01*
X649565Y146810D01*
X649454Y146804D01*
X649343Y146794D01*
X649232Y146781D01*
X649122Y146763D01*
X649013Y146741D01*
X648904Y146716D01*
X648796Y146687D01*
X648690Y146654D01*
X648584Y146617D01*
X648480Y146577D01*
X648378Y146533D01*
X648277Y146485D01*
X648178Y146434D01*
X648080Y146379D01*
X647985Y146321D01*
X647892Y146260D01*
X647801Y146195D01*
X647712Y146127D01*
X647626Y146056D01*
X647543Y145983D01*
X647462Y145906D01*
X647383Y145826D01*
X647308Y145744D01*
X647236Y145659D01*
X647166Y145572D01*
X647100Y145482D01*
X647037Y145390D01*
X646977Y145295D01*
X646921Y145199D01*
X646868Y145101D01*
X646819Y145001D01*
X646773Y144899D01*
X646731Y144796D01*
X646692Y144691D01*
X646657Y144585D01*
X646626Y144478D01*
X646599Y144370D01*
X646575Y144261D01*
X646556Y144151D01*
X646540Y144041D01*
X646528Y143930D01*
X646520Y143818D01*
X646516Y143707D01*
X646516Y143595D01*
X646520Y143484D01*
X646528Y143372D01*
X646540Y143261D01*
X646556Y143151D01*
X646575Y143041D01*
X646599Y142932D01*
X646626Y142824D01*
X646657Y142717D01*
X646692Y142611D01*
X646731Y142506D01*
X646773Y142403D01*
X646819Y142301D01*
X646868Y142201D01*
X646921Y142103D01*
X646977Y142007D01*
X647037Y141912D01*
X647100Y141820D01*
X647166Y141730D01*
X647236Y141643D01*
X647308Y141558D01*
X647383Y141476D01*
X647462Y141396D01*
X647543Y141319D01*
X647626Y141246D01*
X647712Y141175D01*
X647801Y141107D01*
X647892Y141042D01*
X647985Y140981D01*
X648080Y140923D01*
X648178Y140868D01*
X648277Y140817D01*
X648378Y140769D01*
X648480Y140725D01*
X648584Y140685D01*
X648690Y140648D01*
X648796Y140615D01*
X648904Y140586D01*
X649013Y140561D01*
X649122Y140539D01*
X649232Y140521D01*
X649343Y140508D01*
X649454Y140498D01*
X649565Y140492D01*
X649677Y140490D01*
X639690Y132588D02*
X634949Y146812D01*
X630208Y132588D01*
X631393Y136144D02*
X638505Y136144D01*
X622694Y132588D02*
X622694Y146812D01*
X622694Y132588D02*
X616372Y132588D01*
M02*
