G04 EAGLE Gerber RS-274X export*
G75*
%MOMM*%
%FSLAX34Y34*%
%LPD*%
%INSilkscreen Bottom*%
%IPPOS*%
%AMOC8*
5,1,8,0,0,1.08239X$1,22.5*%
G01*
%ADD10C,0.152400*%
%ADD11C,0.203200*%
%ADD12C,0.101600*%
%ADD13R,0.500000X0.500000*%
%ADD14C,0.447213*%
%ADD15C,0.127000*%


D10*
X9398Y153162D02*
X16002Y153162D01*
X16002Y154996D01*
X16000Y155081D01*
X15994Y155165D01*
X15984Y155249D01*
X15971Y155333D01*
X15953Y155416D01*
X15932Y155498D01*
X15907Y155579D01*
X15878Y155659D01*
X15846Y155737D01*
X15810Y155813D01*
X15770Y155888D01*
X15727Y155961D01*
X15681Y156032D01*
X15632Y156101D01*
X15579Y156168D01*
X15523Y156232D01*
X15465Y156293D01*
X15404Y156351D01*
X15340Y156407D01*
X15273Y156460D01*
X15204Y156509D01*
X15133Y156555D01*
X15060Y156598D01*
X14985Y156638D01*
X14909Y156674D01*
X14831Y156706D01*
X14751Y156735D01*
X14670Y156760D01*
X14588Y156781D01*
X14505Y156799D01*
X14421Y156812D01*
X14337Y156822D01*
X14253Y156828D01*
X14168Y156830D01*
X14083Y156828D01*
X13999Y156822D01*
X13915Y156812D01*
X13831Y156799D01*
X13748Y156781D01*
X13666Y156760D01*
X13585Y156735D01*
X13505Y156706D01*
X13427Y156674D01*
X13351Y156638D01*
X13276Y156598D01*
X13203Y156555D01*
X13132Y156509D01*
X13063Y156460D01*
X12996Y156407D01*
X12932Y156351D01*
X12871Y156293D01*
X12813Y156232D01*
X12757Y156168D01*
X12704Y156101D01*
X12655Y156032D01*
X12609Y155961D01*
X12566Y155888D01*
X12526Y155813D01*
X12490Y155737D01*
X12458Y155659D01*
X12429Y155579D01*
X12404Y155498D01*
X12383Y155416D01*
X12365Y155333D01*
X12352Y155249D01*
X12342Y155165D01*
X12336Y155081D01*
X12334Y154996D01*
X12333Y154996D02*
X12333Y153162D01*
X9398Y159685D02*
X16002Y161887D01*
X9398Y164088D01*
X11049Y163538D02*
X11049Y160236D01*
X9398Y167611D02*
X16002Y167611D01*
X9398Y171280D01*
X16002Y171280D01*
X9398Y175438D02*
X9398Y178373D01*
X9398Y175438D02*
X16002Y175438D01*
X16002Y178373D01*
X13067Y177640D02*
X13067Y175438D01*
X16002Y181778D02*
X9398Y181778D01*
X9398Y184713D01*
X14534Y187850D02*
X16002Y189684D01*
X9398Y189684D01*
X9398Y187850D02*
X9398Y191519D01*
X11966Y195286D02*
X11966Y199688D01*
X9398Y54312D02*
X16002Y54312D01*
X16002Y56146D01*
X16000Y56231D01*
X15994Y56315D01*
X15984Y56399D01*
X15971Y56483D01*
X15953Y56566D01*
X15932Y56648D01*
X15907Y56729D01*
X15878Y56809D01*
X15846Y56887D01*
X15810Y56963D01*
X15770Y57038D01*
X15727Y57111D01*
X15681Y57182D01*
X15632Y57251D01*
X15579Y57318D01*
X15523Y57382D01*
X15465Y57443D01*
X15404Y57501D01*
X15340Y57557D01*
X15273Y57610D01*
X15204Y57659D01*
X15133Y57705D01*
X15060Y57748D01*
X14985Y57788D01*
X14909Y57824D01*
X14831Y57856D01*
X14751Y57885D01*
X14670Y57910D01*
X14588Y57931D01*
X14505Y57949D01*
X14421Y57962D01*
X14337Y57972D01*
X14253Y57978D01*
X14168Y57980D01*
X14083Y57978D01*
X13999Y57972D01*
X13915Y57962D01*
X13831Y57949D01*
X13748Y57931D01*
X13666Y57910D01*
X13585Y57885D01*
X13505Y57856D01*
X13427Y57824D01*
X13351Y57788D01*
X13276Y57748D01*
X13203Y57705D01*
X13132Y57659D01*
X13063Y57610D01*
X12996Y57557D01*
X12932Y57501D01*
X12871Y57443D01*
X12813Y57382D01*
X12757Y57318D01*
X12704Y57251D01*
X12655Y57182D01*
X12609Y57111D01*
X12566Y57038D01*
X12526Y56963D01*
X12490Y56887D01*
X12458Y56809D01*
X12429Y56729D01*
X12404Y56648D01*
X12383Y56566D01*
X12365Y56483D01*
X12352Y56399D01*
X12342Y56315D01*
X12336Y56231D01*
X12334Y56146D01*
X12333Y56146D02*
X12333Y54312D01*
X9398Y60835D02*
X16002Y63036D01*
X9398Y65237D01*
X11049Y64687D02*
X11049Y61385D01*
X9398Y68761D02*
X16002Y68761D01*
X9398Y72430D01*
X16002Y72430D01*
X9398Y76588D02*
X9398Y79523D01*
X9398Y76588D02*
X16002Y76588D01*
X16002Y79523D01*
X13067Y78789D02*
X13067Y76588D01*
X16002Y82928D02*
X9398Y82928D01*
X9398Y85863D01*
X14534Y88999D02*
X16002Y90834D01*
X9398Y90834D01*
X9398Y92668D02*
X9398Y88999D01*
X11966Y96435D02*
X11966Y100838D01*
X9765Y98637D02*
X14168Y98637D01*
X149098Y144470D02*
X149098Y145937D01*
X149098Y144470D02*
X149100Y144396D01*
X149106Y144321D01*
X149115Y144248D01*
X149128Y144174D01*
X149145Y144102D01*
X149165Y144031D01*
X149189Y143960D01*
X149217Y143891D01*
X149248Y143824D01*
X149282Y143758D01*
X149320Y143693D01*
X149361Y143631D01*
X149405Y143571D01*
X149452Y143514D01*
X149502Y143459D01*
X149555Y143406D01*
X149610Y143356D01*
X149667Y143309D01*
X149727Y143265D01*
X149789Y143224D01*
X149854Y143186D01*
X149920Y143152D01*
X149987Y143121D01*
X150056Y143093D01*
X150127Y143069D01*
X150198Y143049D01*
X150270Y143032D01*
X150344Y143019D01*
X150417Y143010D01*
X150492Y143004D01*
X150566Y143002D01*
X154234Y143002D01*
X154308Y143004D01*
X154383Y143010D01*
X154456Y143019D01*
X154530Y143032D01*
X154602Y143049D01*
X154673Y143069D01*
X154744Y143093D01*
X154813Y143121D01*
X154880Y143152D01*
X154946Y143186D01*
X155011Y143224D01*
X155073Y143265D01*
X155133Y143309D01*
X155190Y143356D01*
X155245Y143406D01*
X155298Y143459D01*
X155348Y143514D01*
X155395Y143571D01*
X155439Y143631D01*
X155480Y143693D01*
X155518Y143758D01*
X155552Y143823D01*
X155583Y143891D01*
X155611Y143960D01*
X155635Y144031D01*
X155655Y144102D01*
X155672Y144174D01*
X155685Y144248D01*
X155694Y144321D01*
X155700Y144396D01*
X155702Y144470D01*
X155702Y145937D01*
X154234Y149134D02*
X155702Y150968D01*
X149098Y150968D01*
X149098Y149134D02*
X149098Y152802D01*
X154234Y156449D02*
X155702Y158283D01*
X149098Y158283D01*
X149098Y156449D02*
X149098Y160118D01*
X269748Y44748D02*
X269748Y43280D01*
X269750Y43206D01*
X269756Y43131D01*
X269765Y43058D01*
X269778Y42984D01*
X269795Y42912D01*
X269815Y42841D01*
X269839Y42770D01*
X269867Y42701D01*
X269898Y42634D01*
X269932Y42568D01*
X269970Y42503D01*
X270011Y42441D01*
X270055Y42381D01*
X270102Y42324D01*
X270152Y42269D01*
X270205Y42216D01*
X270260Y42166D01*
X270317Y42119D01*
X270377Y42075D01*
X270439Y42034D01*
X270504Y41996D01*
X270570Y41962D01*
X270637Y41931D01*
X270706Y41903D01*
X270777Y41879D01*
X270848Y41859D01*
X270920Y41842D01*
X270994Y41829D01*
X271067Y41820D01*
X271142Y41814D01*
X271216Y41812D01*
X274884Y41812D01*
X274958Y41814D01*
X275033Y41820D01*
X275106Y41829D01*
X275180Y41842D01*
X275252Y41859D01*
X275323Y41879D01*
X275394Y41903D01*
X275463Y41931D01*
X275530Y41962D01*
X275596Y41996D01*
X275661Y42034D01*
X275723Y42075D01*
X275783Y42119D01*
X275840Y42166D01*
X275895Y42216D01*
X275948Y42269D01*
X275998Y42324D01*
X276045Y42381D01*
X276089Y42441D01*
X276130Y42503D01*
X276168Y42568D01*
X276202Y42633D01*
X276233Y42701D01*
X276261Y42770D01*
X276285Y42841D01*
X276305Y42912D01*
X276322Y42984D01*
X276335Y43058D01*
X276344Y43131D01*
X276350Y43206D01*
X276352Y43280D01*
X276352Y44748D01*
X274884Y47944D02*
X276352Y49778D01*
X269748Y49778D01*
X269748Y47944D02*
X269748Y51613D01*
X269748Y55259D02*
X269748Y57094D01*
X269750Y57179D01*
X269756Y57263D01*
X269766Y57347D01*
X269779Y57431D01*
X269797Y57514D01*
X269818Y57596D01*
X269843Y57677D01*
X269872Y57757D01*
X269904Y57835D01*
X269940Y57911D01*
X269980Y57986D01*
X270023Y58059D01*
X270069Y58130D01*
X270118Y58199D01*
X270171Y58266D01*
X270227Y58330D01*
X270285Y58391D01*
X270346Y58449D01*
X270410Y58505D01*
X270477Y58558D01*
X270546Y58607D01*
X270617Y58653D01*
X270690Y58696D01*
X270765Y58736D01*
X270841Y58772D01*
X270919Y58804D01*
X270999Y58833D01*
X271080Y58858D01*
X271162Y58879D01*
X271245Y58897D01*
X271329Y58910D01*
X271413Y58920D01*
X271497Y58926D01*
X271582Y58928D01*
X271667Y58926D01*
X271751Y58920D01*
X271835Y58910D01*
X271919Y58897D01*
X272002Y58879D01*
X272084Y58858D01*
X272165Y58833D01*
X272245Y58804D01*
X272323Y58772D01*
X272399Y58736D01*
X272474Y58696D01*
X272547Y58653D01*
X272618Y58607D01*
X272687Y58558D01*
X272754Y58505D01*
X272818Y58449D01*
X272879Y58391D01*
X272937Y58330D01*
X272993Y58266D01*
X273046Y58199D01*
X273095Y58130D01*
X273141Y58059D01*
X273184Y57986D01*
X273224Y57911D01*
X273260Y57835D01*
X273292Y57757D01*
X273321Y57677D01*
X273346Y57596D01*
X273367Y57514D01*
X273385Y57431D01*
X273398Y57347D01*
X273408Y57263D01*
X273414Y57179D01*
X273416Y57094D01*
X276352Y57460D02*
X276352Y55259D01*
X276352Y57460D02*
X276350Y57536D01*
X276344Y57611D01*
X276335Y57686D01*
X276321Y57760D01*
X276304Y57834D01*
X276282Y57906D01*
X276258Y57978D01*
X276229Y58048D01*
X276197Y58116D01*
X276162Y58183D01*
X276123Y58248D01*
X276080Y58311D01*
X276035Y58371D01*
X275987Y58429D01*
X275935Y58485D01*
X275881Y58537D01*
X275824Y58587D01*
X275765Y58634D01*
X275704Y58678D01*
X275640Y58719D01*
X275574Y58756D01*
X275506Y58790D01*
X275437Y58820D01*
X275366Y58847D01*
X275294Y58870D01*
X275221Y58889D01*
X275147Y58904D01*
X275072Y58916D01*
X274997Y58924D01*
X274922Y58928D01*
X274846Y58928D01*
X274771Y58924D01*
X274696Y58916D01*
X274621Y58904D01*
X274547Y58889D01*
X274474Y58870D01*
X274402Y58847D01*
X274331Y58820D01*
X274262Y58790D01*
X274194Y58756D01*
X274128Y58719D01*
X274064Y58678D01*
X274003Y58634D01*
X273944Y58587D01*
X273887Y58537D01*
X273833Y58485D01*
X273781Y58429D01*
X273733Y58371D01*
X273688Y58311D01*
X273645Y58248D01*
X273606Y58183D01*
X273571Y58116D01*
X273539Y58048D01*
X273510Y57978D01*
X273486Y57906D01*
X273464Y57834D01*
X273447Y57760D01*
X273433Y57686D01*
X273424Y57611D01*
X273418Y57536D01*
X273416Y57460D01*
X273417Y57460D02*
X273417Y55993D01*
X307848Y44748D02*
X307848Y43280D01*
X307850Y43206D01*
X307856Y43131D01*
X307865Y43058D01*
X307878Y42984D01*
X307895Y42912D01*
X307915Y42841D01*
X307939Y42770D01*
X307967Y42701D01*
X307998Y42634D01*
X308032Y42568D01*
X308070Y42503D01*
X308111Y42441D01*
X308155Y42381D01*
X308202Y42324D01*
X308252Y42269D01*
X308305Y42216D01*
X308360Y42166D01*
X308417Y42119D01*
X308477Y42075D01*
X308539Y42034D01*
X308604Y41996D01*
X308670Y41962D01*
X308737Y41931D01*
X308806Y41903D01*
X308877Y41879D01*
X308948Y41859D01*
X309020Y41842D01*
X309094Y41829D01*
X309167Y41820D01*
X309242Y41814D01*
X309316Y41812D01*
X312984Y41812D01*
X313058Y41814D01*
X313133Y41820D01*
X313206Y41829D01*
X313280Y41842D01*
X313352Y41859D01*
X313423Y41879D01*
X313494Y41903D01*
X313563Y41931D01*
X313630Y41962D01*
X313696Y41996D01*
X313761Y42034D01*
X313823Y42075D01*
X313883Y42119D01*
X313940Y42166D01*
X313995Y42216D01*
X314048Y42269D01*
X314098Y42324D01*
X314145Y42381D01*
X314189Y42441D01*
X314230Y42503D01*
X314268Y42568D01*
X314302Y42633D01*
X314333Y42701D01*
X314361Y42770D01*
X314385Y42841D01*
X314405Y42912D01*
X314422Y42984D01*
X314435Y43058D01*
X314444Y43131D01*
X314450Y43206D01*
X314452Y43280D01*
X314452Y44748D01*
X312984Y47944D02*
X314452Y49778D01*
X307848Y49778D01*
X307848Y47944D02*
X307848Y51613D01*
X309316Y55259D02*
X314452Y56727D01*
X309316Y55259D02*
X309316Y58928D01*
X310783Y57827D02*
X307848Y57827D01*
X345948Y44748D02*
X345948Y43280D01*
X345950Y43206D01*
X345956Y43131D01*
X345965Y43058D01*
X345978Y42984D01*
X345995Y42912D01*
X346015Y42841D01*
X346039Y42770D01*
X346067Y42701D01*
X346098Y42634D01*
X346132Y42568D01*
X346170Y42503D01*
X346211Y42441D01*
X346255Y42381D01*
X346302Y42324D01*
X346352Y42269D01*
X346405Y42216D01*
X346460Y42166D01*
X346517Y42119D01*
X346577Y42075D01*
X346639Y42034D01*
X346704Y41996D01*
X346770Y41962D01*
X346837Y41931D01*
X346906Y41903D01*
X346977Y41879D01*
X347048Y41859D01*
X347120Y41842D01*
X347194Y41829D01*
X347267Y41820D01*
X347342Y41814D01*
X347416Y41812D01*
X351084Y41812D01*
X351158Y41814D01*
X351233Y41820D01*
X351306Y41829D01*
X351380Y41842D01*
X351452Y41859D01*
X351523Y41879D01*
X351594Y41903D01*
X351663Y41931D01*
X351730Y41962D01*
X351796Y41996D01*
X351861Y42034D01*
X351923Y42075D01*
X351983Y42119D01*
X352040Y42166D01*
X352095Y42216D01*
X352148Y42269D01*
X352198Y42324D01*
X352245Y42381D01*
X352289Y42441D01*
X352330Y42503D01*
X352368Y42568D01*
X352402Y42633D01*
X352433Y42701D01*
X352461Y42770D01*
X352485Y42841D01*
X352505Y42912D01*
X352522Y42984D01*
X352535Y43058D01*
X352544Y43131D01*
X352550Y43206D01*
X352552Y43280D01*
X352552Y44748D01*
X351084Y47944D02*
X352552Y49778D01*
X345948Y49778D01*
X345948Y47944D02*
X345948Y51613D01*
X352552Y57277D02*
X352550Y57356D01*
X352545Y57434D01*
X352535Y57512D01*
X352522Y57589D01*
X352505Y57666D01*
X352485Y57742D01*
X352461Y57817D01*
X352434Y57891D01*
X352403Y57963D01*
X352368Y58034D01*
X352331Y58103D01*
X352290Y58170D01*
X352246Y58235D01*
X352199Y58298D01*
X352149Y58358D01*
X352096Y58416D01*
X352040Y58472D01*
X351982Y58525D01*
X351922Y58575D01*
X351859Y58622D01*
X351794Y58666D01*
X351727Y58707D01*
X351658Y58744D01*
X351587Y58779D01*
X351515Y58810D01*
X351441Y58837D01*
X351366Y58861D01*
X351290Y58881D01*
X351213Y58898D01*
X351136Y58911D01*
X351058Y58921D01*
X350980Y58926D01*
X350901Y58928D01*
X352552Y57277D02*
X352550Y57188D01*
X352545Y57099D01*
X352535Y57011D01*
X352522Y56923D01*
X352506Y56836D01*
X352485Y56749D01*
X352461Y56664D01*
X352434Y56579D01*
X352403Y56496D01*
X352368Y56414D01*
X352330Y56333D01*
X352289Y56254D01*
X352245Y56178D01*
X352197Y56102D01*
X352146Y56029D01*
X352093Y55959D01*
X352036Y55890D01*
X351976Y55824D01*
X351914Y55761D01*
X351849Y55700D01*
X351782Y55642D01*
X351712Y55587D01*
X351640Y55534D01*
X351566Y55485D01*
X351490Y55439D01*
X351412Y55397D01*
X351332Y55357D01*
X351251Y55321D01*
X351168Y55288D01*
X351084Y55259D01*
X349617Y58378D02*
X349673Y58434D01*
X349732Y58488D01*
X349793Y58539D01*
X349857Y58588D01*
X349922Y58633D01*
X349990Y58676D01*
X350059Y58715D01*
X350130Y58752D01*
X350203Y58785D01*
X350277Y58814D01*
X350352Y58841D01*
X350428Y58864D01*
X350506Y58883D01*
X350584Y58899D01*
X350662Y58912D01*
X350742Y58921D01*
X350821Y58926D01*
X350901Y58928D01*
X349617Y58378D02*
X345948Y55259D01*
X345948Y58928D01*
X279710Y187198D02*
X278243Y187198D01*
X279710Y187198D02*
X279784Y187200D01*
X279859Y187206D01*
X279932Y187215D01*
X280006Y187228D01*
X280078Y187245D01*
X280149Y187265D01*
X280220Y187289D01*
X280289Y187317D01*
X280357Y187348D01*
X280422Y187382D01*
X280487Y187420D01*
X280549Y187461D01*
X280609Y187505D01*
X280666Y187552D01*
X280721Y187602D01*
X280774Y187655D01*
X280824Y187710D01*
X280871Y187767D01*
X280915Y187827D01*
X280956Y187889D01*
X280994Y187954D01*
X281028Y188020D01*
X281059Y188087D01*
X281087Y188156D01*
X281111Y188227D01*
X281131Y188298D01*
X281148Y188371D01*
X281161Y188444D01*
X281170Y188518D01*
X281176Y188592D01*
X281178Y188666D01*
X281178Y192334D01*
X281176Y192408D01*
X281170Y192483D01*
X281161Y192556D01*
X281148Y192629D01*
X281131Y192702D01*
X281111Y192773D01*
X281087Y192844D01*
X281059Y192913D01*
X281028Y192980D01*
X280994Y193046D01*
X280956Y193111D01*
X280915Y193173D01*
X280871Y193233D01*
X280824Y193290D01*
X280774Y193345D01*
X280721Y193398D01*
X280666Y193448D01*
X280609Y193495D01*
X280549Y193539D01*
X280487Y193580D01*
X280422Y193618D01*
X280357Y193652D01*
X280289Y193683D01*
X280220Y193711D01*
X280150Y193735D01*
X280078Y193755D01*
X280006Y193772D01*
X279932Y193785D01*
X279859Y193794D01*
X279784Y193800D01*
X279710Y193802D01*
X278243Y193802D01*
X275047Y192334D02*
X273212Y193802D01*
X273212Y187198D01*
X271378Y187198D02*
X275047Y187198D01*
X267731Y190500D02*
X267729Y190645D01*
X267723Y190790D01*
X267714Y190935D01*
X267700Y191080D01*
X267683Y191224D01*
X267661Y191367D01*
X267636Y191511D01*
X267607Y191653D01*
X267575Y191794D01*
X267538Y191935D01*
X267498Y192074D01*
X267454Y192213D01*
X267407Y192350D01*
X267356Y192486D01*
X267301Y192620D01*
X267243Y192753D01*
X267181Y192885D01*
X267182Y192885D02*
X267156Y192954D01*
X267127Y193021D01*
X267094Y193087D01*
X267058Y193150D01*
X267018Y193212D01*
X266975Y193271D01*
X266929Y193328D01*
X266880Y193382D01*
X266828Y193434D01*
X266773Y193483D01*
X266716Y193528D01*
X266656Y193571D01*
X266594Y193610D01*
X266531Y193646D01*
X266465Y193679D01*
X266398Y193707D01*
X266329Y193733D01*
X266259Y193754D01*
X266188Y193772D01*
X266116Y193785D01*
X266043Y193795D01*
X265970Y193801D01*
X265897Y193803D01*
X265897Y193802D02*
X265824Y193800D01*
X265751Y193794D01*
X265678Y193784D01*
X265607Y193771D01*
X265535Y193753D01*
X265465Y193732D01*
X265397Y193706D01*
X265329Y193678D01*
X265264Y193645D01*
X265200Y193609D01*
X265138Y193570D01*
X265079Y193528D01*
X265022Y193482D01*
X264967Y193433D01*
X264915Y193382D01*
X264866Y193327D01*
X264820Y193270D01*
X264777Y193211D01*
X264737Y193150D01*
X264701Y193086D01*
X264668Y193021D01*
X264639Y192954D01*
X264613Y192885D01*
X264612Y192885D02*
X264550Y192753D01*
X264492Y192620D01*
X264437Y192486D01*
X264386Y192350D01*
X264339Y192213D01*
X264295Y192074D01*
X264255Y191935D01*
X264218Y191794D01*
X264186Y191653D01*
X264157Y191511D01*
X264132Y191368D01*
X264110Y191224D01*
X264093Y191080D01*
X264079Y190935D01*
X264070Y190790D01*
X264064Y190645D01*
X264062Y190500D01*
X267731Y190500D02*
X267729Y190355D01*
X267723Y190210D01*
X267714Y190065D01*
X267700Y189920D01*
X267683Y189776D01*
X267661Y189633D01*
X267636Y189490D01*
X267608Y189347D01*
X267575Y189206D01*
X267538Y189065D01*
X267498Y188926D01*
X267454Y188787D01*
X267407Y188650D01*
X267356Y188514D01*
X267301Y188380D01*
X267243Y188247D01*
X267181Y188115D01*
X267182Y188116D02*
X267156Y188047D01*
X267127Y187980D01*
X267094Y187914D01*
X267058Y187851D01*
X267018Y187789D01*
X266975Y187730D01*
X266929Y187673D01*
X266880Y187619D01*
X266828Y187567D01*
X266773Y187518D01*
X266716Y187473D01*
X266656Y187430D01*
X266594Y187391D01*
X266531Y187355D01*
X266465Y187322D01*
X266398Y187294D01*
X266329Y187268D01*
X266259Y187247D01*
X266188Y187229D01*
X266116Y187216D01*
X266043Y187206D01*
X265970Y187200D01*
X265897Y187198D01*
X264613Y188115D02*
X264551Y188247D01*
X264493Y188380D01*
X264438Y188514D01*
X264387Y188650D01*
X264340Y188787D01*
X264296Y188926D01*
X264256Y189065D01*
X264219Y189206D01*
X264187Y189347D01*
X264158Y189489D01*
X264133Y189632D01*
X264111Y189776D01*
X264094Y189920D01*
X264080Y190065D01*
X264071Y190210D01*
X264065Y190355D01*
X264063Y190500D01*
X264613Y188115D02*
X264639Y188046D01*
X264668Y187979D01*
X264701Y187914D01*
X264737Y187850D01*
X264777Y187789D01*
X264820Y187730D01*
X264866Y187673D01*
X264915Y187618D01*
X264967Y187567D01*
X265022Y187518D01*
X265079Y187472D01*
X265138Y187430D01*
X265200Y187391D01*
X265264Y187355D01*
X265329Y187322D01*
X265397Y187294D01*
X265465Y187268D01*
X265535Y187247D01*
X265607Y187229D01*
X265678Y187216D01*
X265751Y187206D01*
X265824Y187200D01*
X265897Y187198D01*
X267364Y188666D02*
X264429Y192334D01*
X174498Y64657D02*
X174498Y63190D01*
X174500Y63116D01*
X174506Y63041D01*
X174515Y62968D01*
X174528Y62894D01*
X174545Y62822D01*
X174565Y62751D01*
X174589Y62680D01*
X174617Y62611D01*
X174648Y62544D01*
X174682Y62478D01*
X174720Y62413D01*
X174761Y62351D01*
X174805Y62291D01*
X174852Y62234D01*
X174902Y62179D01*
X174955Y62126D01*
X175010Y62076D01*
X175067Y62029D01*
X175127Y61985D01*
X175189Y61944D01*
X175254Y61906D01*
X175320Y61872D01*
X175387Y61841D01*
X175456Y61813D01*
X175527Y61789D01*
X175598Y61769D01*
X175670Y61752D01*
X175744Y61739D01*
X175817Y61730D01*
X175892Y61724D01*
X175966Y61722D01*
X179634Y61722D01*
X179708Y61724D01*
X179783Y61730D01*
X179856Y61739D01*
X179930Y61752D01*
X180002Y61769D01*
X180073Y61789D01*
X180144Y61813D01*
X180213Y61841D01*
X180280Y61872D01*
X180346Y61906D01*
X180411Y61944D01*
X180473Y61985D01*
X180533Y62029D01*
X180590Y62076D01*
X180645Y62126D01*
X180698Y62179D01*
X180748Y62234D01*
X180795Y62291D01*
X180839Y62351D01*
X180880Y62413D01*
X180918Y62478D01*
X180952Y62543D01*
X180983Y62611D01*
X181011Y62680D01*
X181035Y62751D01*
X181055Y62822D01*
X181072Y62894D01*
X181085Y62968D01*
X181094Y63041D01*
X181100Y63116D01*
X181102Y63190D01*
X181102Y64657D01*
X178167Y67854D02*
X178167Y70055D01*
X178165Y70129D01*
X178159Y70204D01*
X178150Y70277D01*
X178137Y70351D01*
X178120Y70423D01*
X178100Y70494D01*
X178076Y70565D01*
X178048Y70634D01*
X178017Y70701D01*
X177983Y70767D01*
X177945Y70832D01*
X177904Y70894D01*
X177860Y70954D01*
X177813Y71011D01*
X177763Y71066D01*
X177710Y71119D01*
X177655Y71169D01*
X177598Y71216D01*
X177538Y71260D01*
X177476Y71301D01*
X177411Y71339D01*
X177345Y71373D01*
X177278Y71404D01*
X177209Y71432D01*
X177138Y71456D01*
X177067Y71476D01*
X176995Y71493D01*
X176921Y71506D01*
X176848Y71515D01*
X176773Y71521D01*
X176699Y71523D01*
X176699Y71522D02*
X176332Y71522D01*
X176247Y71520D01*
X176163Y71514D01*
X176079Y71504D01*
X175995Y71491D01*
X175912Y71473D01*
X175830Y71452D01*
X175749Y71427D01*
X175669Y71398D01*
X175591Y71366D01*
X175515Y71330D01*
X175440Y71290D01*
X175367Y71247D01*
X175296Y71201D01*
X175227Y71152D01*
X175160Y71099D01*
X175096Y71043D01*
X175035Y70985D01*
X174977Y70924D01*
X174921Y70860D01*
X174868Y70793D01*
X174819Y70724D01*
X174773Y70653D01*
X174730Y70580D01*
X174690Y70505D01*
X174654Y70429D01*
X174622Y70351D01*
X174593Y70271D01*
X174568Y70190D01*
X174547Y70108D01*
X174529Y70025D01*
X174516Y69941D01*
X174506Y69857D01*
X174500Y69773D01*
X174498Y69688D01*
X174500Y69603D01*
X174506Y69519D01*
X174516Y69435D01*
X174529Y69351D01*
X174547Y69268D01*
X174568Y69186D01*
X174593Y69105D01*
X174622Y69025D01*
X174654Y68947D01*
X174690Y68871D01*
X174730Y68796D01*
X174773Y68723D01*
X174819Y68652D01*
X174868Y68583D01*
X174921Y68516D01*
X174977Y68452D01*
X175035Y68391D01*
X175096Y68333D01*
X175160Y68277D01*
X175227Y68224D01*
X175296Y68175D01*
X175367Y68129D01*
X175440Y68086D01*
X175515Y68046D01*
X175591Y68010D01*
X175669Y67978D01*
X175749Y67949D01*
X175830Y67924D01*
X175912Y67903D01*
X175995Y67885D01*
X176079Y67872D01*
X176163Y67862D01*
X176247Y67856D01*
X176332Y67854D01*
X178167Y67854D01*
X178274Y67856D01*
X178381Y67862D01*
X178488Y67872D01*
X178594Y67885D01*
X178700Y67903D01*
X178805Y67924D01*
X178909Y67949D01*
X179013Y67978D01*
X179115Y68011D01*
X179215Y68048D01*
X179315Y68088D01*
X179413Y68132D01*
X179509Y68179D01*
X179603Y68230D01*
X179696Y68284D01*
X179786Y68341D01*
X179875Y68402D01*
X179961Y68466D01*
X180044Y68533D01*
X180126Y68603D01*
X180204Y68676D01*
X180280Y68752D01*
X180353Y68830D01*
X180423Y68912D01*
X180490Y68995D01*
X180554Y69081D01*
X180615Y69170D01*
X180672Y69260D01*
X180726Y69353D01*
X180777Y69447D01*
X180824Y69543D01*
X180868Y69641D01*
X180908Y69741D01*
X180945Y69841D01*
X180978Y69943D01*
X181007Y70047D01*
X181032Y70151D01*
X181053Y70256D01*
X181071Y70362D01*
X181084Y70468D01*
X181094Y70575D01*
X181100Y70682D01*
X181102Y70789D01*
X81788Y43067D02*
X81788Y41600D01*
X81790Y41526D01*
X81796Y41451D01*
X81805Y41378D01*
X81818Y41304D01*
X81835Y41232D01*
X81855Y41161D01*
X81879Y41090D01*
X81907Y41021D01*
X81938Y40954D01*
X81972Y40888D01*
X82010Y40823D01*
X82051Y40761D01*
X82095Y40701D01*
X82142Y40644D01*
X82192Y40589D01*
X82245Y40536D01*
X82300Y40486D01*
X82357Y40439D01*
X82417Y40395D01*
X82479Y40354D01*
X82544Y40316D01*
X82610Y40282D01*
X82677Y40251D01*
X82746Y40223D01*
X82817Y40199D01*
X82888Y40179D01*
X82960Y40162D01*
X83034Y40149D01*
X83107Y40140D01*
X83182Y40134D01*
X83256Y40132D01*
X86924Y40132D01*
X86998Y40134D01*
X87073Y40140D01*
X87146Y40149D01*
X87220Y40162D01*
X87292Y40179D01*
X87363Y40199D01*
X87434Y40223D01*
X87503Y40251D01*
X87570Y40282D01*
X87636Y40316D01*
X87701Y40354D01*
X87763Y40395D01*
X87823Y40439D01*
X87880Y40486D01*
X87935Y40536D01*
X87988Y40589D01*
X88038Y40644D01*
X88085Y40701D01*
X88129Y40761D01*
X88170Y40823D01*
X88208Y40888D01*
X88242Y40953D01*
X88273Y41021D01*
X88301Y41090D01*
X88325Y41161D01*
X88345Y41232D01*
X88362Y41304D01*
X88375Y41378D01*
X88384Y41451D01*
X88390Y41526D01*
X88392Y41600D01*
X88392Y43067D01*
X88392Y46264D02*
X87658Y46264D01*
X88392Y46264D02*
X88392Y49932D01*
X81788Y48098D01*
X104648Y145740D02*
X104648Y147207D01*
X104648Y145740D02*
X104650Y145666D01*
X104656Y145591D01*
X104665Y145518D01*
X104678Y145444D01*
X104695Y145372D01*
X104715Y145301D01*
X104739Y145230D01*
X104767Y145161D01*
X104798Y145094D01*
X104832Y145028D01*
X104870Y144963D01*
X104911Y144901D01*
X104955Y144841D01*
X105002Y144784D01*
X105052Y144729D01*
X105105Y144676D01*
X105160Y144626D01*
X105217Y144579D01*
X105277Y144535D01*
X105339Y144494D01*
X105404Y144456D01*
X105470Y144422D01*
X105537Y144391D01*
X105606Y144363D01*
X105677Y144339D01*
X105748Y144319D01*
X105820Y144302D01*
X105894Y144289D01*
X105967Y144280D01*
X106042Y144274D01*
X106116Y144272D01*
X109784Y144272D01*
X109858Y144274D01*
X109933Y144280D01*
X110006Y144289D01*
X110080Y144302D01*
X110152Y144319D01*
X110223Y144339D01*
X110294Y144363D01*
X110363Y144391D01*
X110430Y144422D01*
X110496Y144456D01*
X110561Y144494D01*
X110623Y144535D01*
X110683Y144579D01*
X110740Y144626D01*
X110795Y144676D01*
X110848Y144729D01*
X110898Y144784D01*
X110945Y144841D01*
X110989Y144901D01*
X111030Y144963D01*
X111068Y145028D01*
X111102Y145093D01*
X111133Y145161D01*
X111161Y145230D01*
X111185Y145301D01*
X111205Y145372D01*
X111222Y145444D01*
X111235Y145518D01*
X111244Y145591D01*
X111250Y145666D01*
X111252Y145740D01*
X111252Y147207D01*
X111252Y151871D02*
X106116Y150404D01*
X106116Y154072D01*
X107583Y152972D02*
X104648Y152972D01*
X142748Y64657D02*
X142748Y63190D01*
X142750Y63116D01*
X142756Y63041D01*
X142765Y62968D01*
X142778Y62894D01*
X142795Y62822D01*
X142815Y62751D01*
X142839Y62680D01*
X142867Y62611D01*
X142898Y62544D01*
X142932Y62478D01*
X142970Y62413D01*
X143011Y62351D01*
X143055Y62291D01*
X143102Y62234D01*
X143152Y62179D01*
X143205Y62126D01*
X143260Y62076D01*
X143317Y62029D01*
X143377Y61985D01*
X143439Y61944D01*
X143504Y61906D01*
X143570Y61872D01*
X143637Y61841D01*
X143706Y61813D01*
X143777Y61789D01*
X143848Y61769D01*
X143920Y61752D01*
X143994Y61739D01*
X144067Y61730D01*
X144142Y61724D01*
X144216Y61722D01*
X147884Y61722D01*
X147958Y61724D01*
X148033Y61730D01*
X148106Y61739D01*
X148180Y61752D01*
X148252Y61769D01*
X148323Y61789D01*
X148394Y61813D01*
X148463Y61841D01*
X148530Y61872D01*
X148596Y61906D01*
X148661Y61944D01*
X148723Y61985D01*
X148783Y62029D01*
X148840Y62076D01*
X148895Y62126D01*
X148948Y62179D01*
X148998Y62234D01*
X149045Y62291D01*
X149089Y62351D01*
X149130Y62413D01*
X149168Y62478D01*
X149202Y62543D01*
X149233Y62611D01*
X149261Y62680D01*
X149285Y62751D01*
X149305Y62822D01*
X149322Y62894D01*
X149335Y62968D01*
X149344Y63041D01*
X149350Y63116D01*
X149352Y63190D01*
X149352Y64657D01*
X142748Y67854D02*
X142748Y70055D01*
X142750Y70129D01*
X142756Y70204D01*
X142765Y70277D01*
X142778Y70351D01*
X142795Y70423D01*
X142815Y70494D01*
X142839Y70565D01*
X142867Y70634D01*
X142898Y70701D01*
X142932Y70767D01*
X142970Y70832D01*
X143011Y70894D01*
X143055Y70954D01*
X143102Y71011D01*
X143152Y71066D01*
X143205Y71119D01*
X143260Y71169D01*
X143317Y71216D01*
X143377Y71260D01*
X143439Y71301D01*
X143504Y71339D01*
X143569Y71373D01*
X143637Y71404D01*
X143706Y71432D01*
X143777Y71456D01*
X143848Y71476D01*
X143920Y71493D01*
X143994Y71506D01*
X144067Y71515D01*
X144142Y71521D01*
X144216Y71523D01*
X144216Y71522D02*
X144949Y71522D01*
X144949Y71523D02*
X145023Y71521D01*
X145098Y71515D01*
X145171Y71506D01*
X145245Y71493D01*
X145317Y71476D01*
X145388Y71456D01*
X145459Y71432D01*
X145528Y71404D01*
X145595Y71373D01*
X145661Y71339D01*
X145726Y71301D01*
X145788Y71260D01*
X145848Y71216D01*
X145905Y71169D01*
X145960Y71119D01*
X146013Y71066D01*
X146063Y71011D01*
X146110Y70954D01*
X146154Y70894D01*
X146195Y70832D01*
X146233Y70767D01*
X146267Y70701D01*
X146298Y70634D01*
X146326Y70565D01*
X146350Y70494D01*
X146370Y70423D01*
X146387Y70351D01*
X146400Y70277D01*
X146409Y70204D01*
X146415Y70129D01*
X146417Y70055D01*
X146417Y67854D01*
X149352Y67854D01*
X149352Y71522D01*
D11*
X113650Y58450D02*
X113650Y52450D01*
X113650Y58450D02*
X121650Y58450D01*
X113650Y36450D02*
X113650Y30450D01*
X121650Y30450D01*
D10*
X123952Y38810D02*
X117348Y38810D01*
X123952Y38810D02*
X123952Y40645D01*
X123950Y40730D01*
X123944Y40814D01*
X123934Y40898D01*
X123921Y40982D01*
X123903Y41065D01*
X123882Y41147D01*
X123857Y41228D01*
X123828Y41308D01*
X123796Y41386D01*
X123760Y41462D01*
X123720Y41537D01*
X123677Y41610D01*
X123631Y41681D01*
X123582Y41750D01*
X123529Y41817D01*
X123473Y41881D01*
X123415Y41942D01*
X123354Y42000D01*
X123290Y42056D01*
X123223Y42109D01*
X123154Y42158D01*
X123083Y42204D01*
X123010Y42247D01*
X122935Y42287D01*
X122859Y42323D01*
X122781Y42355D01*
X122701Y42384D01*
X122620Y42409D01*
X122538Y42430D01*
X122455Y42448D01*
X122371Y42461D01*
X122287Y42471D01*
X122203Y42477D01*
X122118Y42479D01*
X119182Y42479D01*
X119097Y42477D01*
X119013Y42471D01*
X118929Y42461D01*
X118845Y42448D01*
X118762Y42430D01*
X118680Y42409D01*
X118599Y42384D01*
X118519Y42355D01*
X118441Y42323D01*
X118365Y42287D01*
X118290Y42247D01*
X118217Y42204D01*
X118146Y42158D01*
X118077Y42109D01*
X118010Y42056D01*
X117946Y42000D01*
X117885Y41942D01*
X117827Y41881D01*
X117771Y41817D01*
X117718Y41750D01*
X117669Y41681D01*
X117623Y41610D01*
X117580Y41537D01*
X117540Y41462D01*
X117504Y41386D01*
X117472Y41308D01*
X117443Y41228D01*
X117418Y41147D01*
X117397Y41065D01*
X117379Y40982D01*
X117366Y40898D01*
X117356Y40814D01*
X117350Y40730D01*
X117348Y40645D01*
X117348Y38810D01*
X123952Y48387D02*
X123950Y48466D01*
X123945Y48544D01*
X123935Y48622D01*
X123922Y48699D01*
X123905Y48776D01*
X123885Y48852D01*
X123861Y48927D01*
X123834Y49001D01*
X123803Y49073D01*
X123768Y49144D01*
X123731Y49213D01*
X123690Y49280D01*
X123646Y49345D01*
X123599Y49408D01*
X123549Y49468D01*
X123496Y49526D01*
X123440Y49582D01*
X123382Y49635D01*
X123322Y49685D01*
X123259Y49732D01*
X123194Y49776D01*
X123127Y49817D01*
X123058Y49854D01*
X122987Y49889D01*
X122915Y49920D01*
X122841Y49947D01*
X122766Y49971D01*
X122690Y49991D01*
X122613Y50008D01*
X122536Y50021D01*
X122458Y50031D01*
X122380Y50036D01*
X122301Y50038D01*
X123952Y48387D02*
X123950Y48298D01*
X123945Y48209D01*
X123935Y48121D01*
X123922Y48033D01*
X123906Y47946D01*
X123885Y47859D01*
X123861Y47774D01*
X123834Y47689D01*
X123803Y47606D01*
X123768Y47524D01*
X123730Y47443D01*
X123689Y47364D01*
X123645Y47288D01*
X123597Y47212D01*
X123546Y47139D01*
X123493Y47069D01*
X123436Y47000D01*
X123376Y46934D01*
X123314Y46871D01*
X123249Y46810D01*
X123182Y46752D01*
X123112Y46697D01*
X123040Y46644D01*
X122966Y46595D01*
X122890Y46549D01*
X122812Y46507D01*
X122732Y46467D01*
X122651Y46431D01*
X122568Y46398D01*
X122484Y46369D01*
X121017Y49488D02*
X121073Y49544D01*
X121132Y49598D01*
X121193Y49649D01*
X121257Y49698D01*
X121322Y49743D01*
X121390Y49786D01*
X121459Y49825D01*
X121530Y49862D01*
X121603Y49895D01*
X121677Y49924D01*
X121752Y49951D01*
X121828Y49974D01*
X121906Y49993D01*
X121984Y50009D01*
X122062Y50022D01*
X122142Y50031D01*
X122221Y50036D01*
X122301Y50038D01*
X121017Y49488D02*
X117348Y46369D01*
X117348Y50038D01*
D11*
X70500Y74900D02*
X70500Y80900D01*
X70500Y74900D02*
X62500Y74900D01*
X70500Y96900D02*
X70500Y102900D01*
X62500Y102900D01*
D10*
X62032Y82704D02*
X64968Y82704D01*
X65053Y82706D01*
X65137Y82712D01*
X65221Y82722D01*
X65305Y82735D01*
X65388Y82753D01*
X65470Y82774D01*
X65551Y82799D01*
X65631Y82828D01*
X65709Y82860D01*
X65785Y82896D01*
X65860Y82936D01*
X65933Y82979D01*
X66004Y83025D01*
X66073Y83074D01*
X66140Y83127D01*
X66204Y83183D01*
X66265Y83241D01*
X66323Y83302D01*
X66379Y83366D01*
X66432Y83433D01*
X66481Y83502D01*
X66527Y83573D01*
X66570Y83646D01*
X66610Y83721D01*
X66646Y83797D01*
X66678Y83875D01*
X66707Y83955D01*
X66732Y84036D01*
X66753Y84118D01*
X66771Y84201D01*
X66784Y84285D01*
X66794Y84369D01*
X66800Y84453D01*
X66802Y84538D01*
X66800Y84623D01*
X66794Y84707D01*
X66784Y84791D01*
X66771Y84875D01*
X66753Y84958D01*
X66732Y85040D01*
X66707Y85121D01*
X66678Y85201D01*
X66646Y85279D01*
X66610Y85355D01*
X66570Y85430D01*
X66527Y85503D01*
X66481Y85574D01*
X66432Y85643D01*
X66379Y85710D01*
X66323Y85774D01*
X66265Y85835D01*
X66204Y85893D01*
X66140Y85949D01*
X66073Y86002D01*
X66004Y86051D01*
X65933Y86097D01*
X65860Y86140D01*
X65785Y86180D01*
X65709Y86216D01*
X65631Y86248D01*
X65551Y86277D01*
X65470Y86302D01*
X65388Y86323D01*
X65305Y86341D01*
X65221Y86354D01*
X65137Y86364D01*
X65053Y86370D01*
X64968Y86372D01*
X64968Y86373D02*
X62032Y86373D01*
X62032Y86372D02*
X61947Y86370D01*
X61863Y86364D01*
X61779Y86354D01*
X61695Y86341D01*
X61612Y86323D01*
X61530Y86302D01*
X61449Y86277D01*
X61369Y86248D01*
X61291Y86216D01*
X61215Y86180D01*
X61140Y86140D01*
X61067Y86097D01*
X60996Y86051D01*
X60927Y86002D01*
X60860Y85949D01*
X60796Y85893D01*
X60735Y85835D01*
X60677Y85774D01*
X60621Y85710D01*
X60568Y85643D01*
X60519Y85574D01*
X60473Y85503D01*
X60430Y85430D01*
X60390Y85355D01*
X60354Y85279D01*
X60322Y85201D01*
X60293Y85121D01*
X60268Y85040D01*
X60247Y84958D01*
X60229Y84875D01*
X60216Y84791D01*
X60206Y84707D01*
X60200Y84623D01*
X60198Y84538D01*
X60200Y84453D01*
X60206Y84369D01*
X60216Y84285D01*
X60229Y84201D01*
X60247Y84118D01*
X60268Y84036D01*
X60293Y83955D01*
X60322Y83875D01*
X60354Y83797D01*
X60390Y83721D01*
X60430Y83646D01*
X60473Y83573D01*
X60519Y83502D01*
X60568Y83433D01*
X60621Y83366D01*
X60677Y83302D01*
X60735Y83241D01*
X60796Y83183D01*
X60860Y83127D01*
X60927Y83074D01*
X60996Y83025D01*
X61067Y82979D01*
X61140Y82936D01*
X61215Y82896D01*
X61291Y82860D01*
X61369Y82828D01*
X61449Y82799D01*
X61530Y82774D01*
X61612Y82753D01*
X61695Y82735D01*
X61779Y82722D01*
X61863Y82712D01*
X61947Y82706D01*
X62032Y82704D01*
X61666Y85639D02*
X60198Y87107D01*
X60198Y89549D02*
X60198Y91384D01*
X60200Y91469D01*
X60206Y91553D01*
X60216Y91637D01*
X60229Y91721D01*
X60247Y91804D01*
X60268Y91886D01*
X60293Y91967D01*
X60322Y92047D01*
X60354Y92125D01*
X60390Y92201D01*
X60430Y92276D01*
X60473Y92349D01*
X60519Y92420D01*
X60568Y92489D01*
X60621Y92556D01*
X60677Y92620D01*
X60735Y92681D01*
X60796Y92739D01*
X60860Y92795D01*
X60927Y92848D01*
X60996Y92897D01*
X61067Y92943D01*
X61140Y92986D01*
X61215Y93026D01*
X61291Y93062D01*
X61369Y93094D01*
X61449Y93123D01*
X61530Y93148D01*
X61612Y93169D01*
X61695Y93187D01*
X61779Y93200D01*
X61863Y93210D01*
X61947Y93216D01*
X62032Y93218D01*
X62117Y93216D01*
X62201Y93210D01*
X62285Y93200D01*
X62369Y93187D01*
X62452Y93169D01*
X62534Y93148D01*
X62615Y93123D01*
X62695Y93094D01*
X62773Y93062D01*
X62849Y93026D01*
X62924Y92986D01*
X62997Y92943D01*
X63068Y92897D01*
X63137Y92848D01*
X63204Y92795D01*
X63268Y92739D01*
X63329Y92681D01*
X63387Y92620D01*
X63443Y92556D01*
X63496Y92489D01*
X63545Y92420D01*
X63591Y92349D01*
X63634Y92276D01*
X63674Y92201D01*
X63710Y92125D01*
X63742Y92047D01*
X63771Y91967D01*
X63796Y91886D01*
X63817Y91804D01*
X63835Y91721D01*
X63848Y91637D01*
X63858Y91553D01*
X63864Y91469D01*
X63866Y91384D01*
X66802Y91750D02*
X66802Y89549D01*
X66802Y91750D02*
X66800Y91826D01*
X66794Y91901D01*
X66785Y91976D01*
X66771Y92050D01*
X66754Y92124D01*
X66732Y92196D01*
X66708Y92268D01*
X66679Y92338D01*
X66647Y92406D01*
X66612Y92473D01*
X66573Y92538D01*
X66530Y92601D01*
X66485Y92661D01*
X66437Y92719D01*
X66385Y92775D01*
X66331Y92827D01*
X66274Y92877D01*
X66215Y92924D01*
X66154Y92968D01*
X66090Y93009D01*
X66024Y93046D01*
X65956Y93080D01*
X65887Y93110D01*
X65816Y93137D01*
X65744Y93160D01*
X65671Y93179D01*
X65597Y93194D01*
X65522Y93206D01*
X65447Y93214D01*
X65372Y93218D01*
X65296Y93218D01*
X65221Y93214D01*
X65146Y93206D01*
X65071Y93194D01*
X64997Y93179D01*
X64924Y93160D01*
X64852Y93137D01*
X64781Y93110D01*
X64712Y93080D01*
X64644Y93046D01*
X64578Y93009D01*
X64514Y92968D01*
X64453Y92924D01*
X64394Y92877D01*
X64337Y92827D01*
X64283Y92775D01*
X64231Y92719D01*
X64183Y92661D01*
X64138Y92601D01*
X64095Y92538D01*
X64056Y92473D01*
X64021Y92406D01*
X63989Y92338D01*
X63960Y92268D01*
X63936Y92196D01*
X63914Y92124D01*
X63897Y92050D01*
X63883Y91976D01*
X63874Y91901D01*
X63868Y91826D01*
X63866Y91750D01*
X63867Y91750D02*
X63867Y90283D01*
X130048Y143002D02*
X136652Y143002D01*
X136652Y144836D01*
X136650Y144921D01*
X136644Y145005D01*
X136634Y145089D01*
X136621Y145173D01*
X136603Y145256D01*
X136582Y145338D01*
X136557Y145419D01*
X136528Y145499D01*
X136496Y145577D01*
X136460Y145653D01*
X136420Y145728D01*
X136377Y145801D01*
X136331Y145872D01*
X136282Y145941D01*
X136229Y146008D01*
X136173Y146072D01*
X136115Y146133D01*
X136054Y146191D01*
X135990Y146247D01*
X135923Y146300D01*
X135854Y146349D01*
X135783Y146395D01*
X135710Y146438D01*
X135635Y146478D01*
X135559Y146514D01*
X135481Y146546D01*
X135401Y146575D01*
X135320Y146600D01*
X135238Y146621D01*
X135155Y146639D01*
X135071Y146652D01*
X134987Y146662D01*
X134903Y146668D01*
X134818Y146670D01*
X134733Y146668D01*
X134649Y146662D01*
X134565Y146652D01*
X134481Y146639D01*
X134398Y146621D01*
X134316Y146600D01*
X134235Y146575D01*
X134155Y146546D01*
X134077Y146514D01*
X134001Y146478D01*
X133926Y146438D01*
X133853Y146395D01*
X133782Y146349D01*
X133713Y146300D01*
X133646Y146247D01*
X133582Y146191D01*
X133521Y146133D01*
X133463Y146072D01*
X133407Y146008D01*
X133354Y145941D01*
X133305Y145872D01*
X133259Y145801D01*
X133216Y145728D01*
X133176Y145653D01*
X133140Y145577D01*
X133108Y145499D01*
X133079Y145419D01*
X133054Y145338D01*
X133033Y145256D01*
X133015Y145173D01*
X133002Y145089D01*
X132992Y145005D01*
X132986Y144921D01*
X132984Y144836D01*
X132983Y144836D02*
X132983Y143002D01*
X132983Y145203D02*
X130048Y146671D01*
X135184Y150238D02*
X136652Y152073D01*
X130048Y152073D01*
X130048Y153907D02*
X130048Y150238D01*
X133717Y157554D02*
X133717Y159755D01*
X133715Y159829D01*
X133709Y159904D01*
X133700Y159977D01*
X133687Y160051D01*
X133670Y160123D01*
X133650Y160194D01*
X133626Y160265D01*
X133598Y160334D01*
X133567Y160401D01*
X133533Y160467D01*
X133495Y160532D01*
X133454Y160594D01*
X133410Y160654D01*
X133363Y160711D01*
X133313Y160766D01*
X133260Y160819D01*
X133205Y160869D01*
X133148Y160916D01*
X133088Y160960D01*
X133026Y161001D01*
X132961Y161039D01*
X132895Y161073D01*
X132828Y161104D01*
X132759Y161132D01*
X132688Y161156D01*
X132617Y161176D01*
X132545Y161193D01*
X132471Y161206D01*
X132398Y161215D01*
X132323Y161221D01*
X132249Y161223D01*
X132249Y161222D02*
X131882Y161222D01*
X131797Y161220D01*
X131713Y161214D01*
X131629Y161204D01*
X131545Y161191D01*
X131462Y161173D01*
X131380Y161152D01*
X131299Y161127D01*
X131219Y161098D01*
X131141Y161066D01*
X131065Y161030D01*
X130990Y160990D01*
X130917Y160947D01*
X130846Y160901D01*
X130777Y160852D01*
X130710Y160799D01*
X130646Y160743D01*
X130585Y160685D01*
X130527Y160624D01*
X130471Y160560D01*
X130418Y160493D01*
X130369Y160424D01*
X130323Y160353D01*
X130280Y160280D01*
X130240Y160205D01*
X130204Y160129D01*
X130172Y160051D01*
X130143Y159971D01*
X130118Y159890D01*
X130097Y159808D01*
X130079Y159725D01*
X130066Y159641D01*
X130056Y159557D01*
X130050Y159473D01*
X130048Y159388D01*
X130050Y159303D01*
X130056Y159219D01*
X130066Y159135D01*
X130079Y159051D01*
X130097Y158968D01*
X130118Y158886D01*
X130143Y158805D01*
X130172Y158725D01*
X130204Y158647D01*
X130240Y158571D01*
X130280Y158496D01*
X130323Y158423D01*
X130369Y158352D01*
X130418Y158283D01*
X130471Y158216D01*
X130527Y158152D01*
X130585Y158091D01*
X130646Y158033D01*
X130710Y157977D01*
X130777Y157924D01*
X130846Y157875D01*
X130917Y157829D01*
X130990Y157786D01*
X131065Y157746D01*
X131141Y157710D01*
X131219Y157678D01*
X131299Y157649D01*
X131380Y157624D01*
X131462Y157603D01*
X131545Y157585D01*
X131629Y157572D01*
X131713Y157562D01*
X131797Y157556D01*
X131882Y157554D01*
X133717Y157554D01*
X133824Y157556D01*
X133931Y157562D01*
X134038Y157572D01*
X134144Y157585D01*
X134250Y157603D01*
X134355Y157624D01*
X134459Y157649D01*
X134563Y157678D01*
X134665Y157711D01*
X134765Y157748D01*
X134865Y157788D01*
X134963Y157832D01*
X135059Y157879D01*
X135153Y157930D01*
X135246Y157984D01*
X135336Y158041D01*
X135425Y158102D01*
X135511Y158166D01*
X135594Y158233D01*
X135676Y158303D01*
X135754Y158376D01*
X135830Y158452D01*
X135903Y158530D01*
X135973Y158612D01*
X136040Y158695D01*
X136104Y158781D01*
X136165Y158870D01*
X136222Y158960D01*
X136276Y159053D01*
X136327Y159147D01*
X136374Y159243D01*
X136418Y159341D01*
X136458Y159441D01*
X136495Y159541D01*
X136528Y159643D01*
X136557Y159747D01*
X136582Y159851D01*
X136603Y159956D01*
X136621Y160062D01*
X136634Y160168D01*
X136644Y160275D01*
X136650Y160382D01*
X136652Y160489D01*
X168148Y143002D02*
X174752Y143002D01*
X174752Y144836D01*
X174750Y144921D01*
X174744Y145005D01*
X174734Y145089D01*
X174721Y145173D01*
X174703Y145256D01*
X174682Y145338D01*
X174657Y145419D01*
X174628Y145499D01*
X174596Y145577D01*
X174560Y145653D01*
X174520Y145728D01*
X174477Y145801D01*
X174431Y145872D01*
X174382Y145941D01*
X174329Y146008D01*
X174273Y146072D01*
X174215Y146133D01*
X174154Y146191D01*
X174090Y146247D01*
X174023Y146300D01*
X173954Y146349D01*
X173883Y146395D01*
X173810Y146438D01*
X173735Y146478D01*
X173659Y146514D01*
X173581Y146546D01*
X173501Y146575D01*
X173420Y146600D01*
X173338Y146621D01*
X173255Y146639D01*
X173171Y146652D01*
X173087Y146662D01*
X173003Y146668D01*
X172918Y146670D01*
X172833Y146668D01*
X172749Y146662D01*
X172665Y146652D01*
X172581Y146639D01*
X172498Y146621D01*
X172416Y146600D01*
X172335Y146575D01*
X172255Y146546D01*
X172177Y146514D01*
X172101Y146478D01*
X172026Y146438D01*
X171953Y146395D01*
X171882Y146349D01*
X171813Y146300D01*
X171746Y146247D01*
X171682Y146191D01*
X171621Y146133D01*
X171563Y146072D01*
X171507Y146008D01*
X171454Y145941D01*
X171405Y145872D01*
X171359Y145801D01*
X171316Y145728D01*
X171276Y145653D01*
X171240Y145577D01*
X171208Y145499D01*
X171179Y145419D01*
X171154Y145338D01*
X171133Y145256D01*
X171115Y145173D01*
X171102Y145089D01*
X171092Y145005D01*
X171086Y144921D01*
X171084Y144836D01*
X171083Y144836D02*
X171083Y143002D01*
X171083Y145203D02*
X168148Y146671D01*
X173284Y150238D02*
X174752Y152073D01*
X168148Y152073D01*
X168148Y153907D02*
X168148Y150238D01*
X174752Y159571D02*
X174750Y159650D01*
X174745Y159728D01*
X174735Y159806D01*
X174722Y159883D01*
X174705Y159960D01*
X174685Y160036D01*
X174661Y160111D01*
X174634Y160185D01*
X174603Y160257D01*
X174568Y160328D01*
X174531Y160397D01*
X174490Y160464D01*
X174446Y160529D01*
X174399Y160592D01*
X174349Y160652D01*
X174296Y160710D01*
X174240Y160766D01*
X174182Y160819D01*
X174122Y160869D01*
X174059Y160916D01*
X173994Y160960D01*
X173927Y161001D01*
X173858Y161038D01*
X173787Y161073D01*
X173715Y161104D01*
X173641Y161131D01*
X173566Y161155D01*
X173490Y161175D01*
X173413Y161192D01*
X173336Y161205D01*
X173258Y161215D01*
X173180Y161220D01*
X173101Y161222D01*
X174752Y159571D02*
X174750Y159482D01*
X174745Y159393D01*
X174735Y159305D01*
X174722Y159217D01*
X174706Y159130D01*
X174685Y159043D01*
X174661Y158958D01*
X174634Y158873D01*
X174603Y158790D01*
X174568Y158708D01*
X174530Y158627D01*
X174489Y158548D01*
X174445Y158472D01*
X174397Y158396D01*
X174346Y158323D01*
X174293Y158253D01*
X174236Y158184D01*
X174176Y158118D01*
X174114Y158055D01*
X174049Y157994D01*
X173982Y157936D01*
X173912Y157881D01*
X173840Y157828D01*
X173766Y157779D01*
X173690Y157733D01*
X173612Y157691D01*
X173532Y157651D01*
X173451Y157615D01*
X173368Y157582D01*
X173284Y157553D01*
X171817Y160672D02*
X171873Y160728D01*
X171932Y160782D01*
X171993Y160833D01*
X172057Y160882D01*
X172122Y160927D01*
X172190Y160970D01*
X172259Y161009D01*
X172330Y161046D01*
X172403Y161079D01*
X172477Y161108D01*
X172552Y161135D01*
X172628Y161158D01*
X172706Y161177D01*
X172784Y161193D01*
X172862Y161206D01*
X172942Y161215D01*
X173021Y161220D01*
X173101Y161222D01*
X171817Y160672D02*
X168148Y157554D01*
X168148Y161222D01*
X46228Y66802D02*
X46228Y60198D01*
X46228Y66802D02*
X44394Y66802D01*
X44309Y66800D01*
X44225Y66794D01*
X44141Y66784D01*
X44057Y66771D01*
X43974Y66753D01*
X43892Y66732D01*
X43811Y66707D01*
X43731Y66678D01*
X43653Y66646D01*
X43577Y66610D01*
X43502Y66570D01*
X43429Y66527D01*
X43358Y66481D01*
X43289Y66432D01*
X43222Y66379D01*
X43158Y66323D01*
X43097Y66265D01*
X43039Y66204D01*
X42983Y66140D01*
X42930Y66073D01*
X42881Y66004D01*
X42835Y65933D01*
X42792Y65860D01*
X42752Y65785D01*
X42716Y65709D01*
X42684Y65631D01*
X42655Y65551D01*
X42630Y65470D01*
X42609Y65388D01*
X42591Y65305D01*
X42578Y65221D01*
X42568Y65137D01*
X42562Y65053D01*
X42560Y64968D01*
X42562Y64883D01*
X42568Y64799D01*
X42578Y64715D01*
X42591Y64631D01*
X42609Y64548D01*
X42630Y64466D01*
X42655Y64385D01*
X42684Y64305D01*
X42716Y64227D01*
X42752Y64151D01*
X42792Y64076D01*
X42835Y64003D01*
X42881Y63932D01*
X42930Y63863D01*
X42983Y63796D01*
X43039Y63732D01*
X43097Y63671D01*
X43158Y63613D01*
X43222Y63557D01*
X43289Y63504D01*
X43358Y63455D01*
X43429Y63409D01*
X43502Y63366D01*
X43577Y63326D01*
X43653Y63290D01*
X43731Y63258D01*
X43811Y63229D01*
X43892Y63204D01*
X43974Y63183D01*
X44057Y63165D01*
X44141Y63152D01*
X44225Y63142D01*
X44309Y63136D01*
X44394Y63134D01*
X44394Y63133D02*
X46228Y63133D01*
X44027Y63133D02*
X42559Y60198D01*
X38992Y63867D02*
X36790Y63867D01*
X36716Y63865D01*
X36641Y63859D01*
X36568Y63850D01*
X36494Y63837D01*
X36422Y63820D01*
X36351Y63800D01*
X36280Y63776D01*
X36211Y63748D01*
X36144Y63717D01*
X36078Y63683D01*
X36013Y63645D01*
X35951Y63604D01*
X35891Y63560D01*
X35834Y63513D01*
X35779Y63463D01*
X35726Y63410D01*
X35676Y63355D01*
X35629Y63298D01*
X35585Y63238D01*
X35544Y63176D01*
X35506Y63111D01*
X35472Y63045D01*
X35441Y62978D01*
X35413Y62909D01*
X35389Y62838D01*
X35369Y62767D01*
X35352Y62695D01*
X35339Y62621D01*
X35330Y62548D01*
X35324Y62473D01*
X35322Y62399D01*
X35323Y62399D02*
X35323Y62032D01*
X35325Y61947D01*
X35331Y61863D01*
X35341Y61779D01*
X35354Y61695D01*
X35372Y61612D01*
X35393Y61530D01*
X35418Y61449D01*
X35447Y61369D01*
X35479Y61291D01*
X35515Y61215D01*
X35555Y61140D01*
X35598Y61067D01*
X35644Y60996D01*
X35693Y60927D01*
X35746Y60860D01*
X35802Y60796D01*
X35860Y60735D01*
X35921Y60677D01*
X35985Y60621D01*
X36052Y60568D01*
X36121Y60519D01*
X36192Y60473D01*
X36265Y60430D01*
X36340Y60390D01*
X36416Y60354D01*
X36494Y60322D01*
X36574Y60293D01*
X36655Y60268D01*
X36737Y60247D01*
X36820Y60229D01*
X36904Y60216D01*
X36988Y60206D01*
X37072Y60200D01*
X37157Y60198D01*
X37242Y60200D01*
X37326Y60206D01*
X37410Y60216D01*
X37494Y60229D01*
X37577Y60247D01*
X37659Y60268D01*
X37740Y60293D01*
X37820Y60322D01*
X37898Y60354D01*
X37974Y60390D01*
X38049Y60430D01*
X38122Y60473D01*
X38193Y60519D01*
X38262Y60568D01*
X38329Y60621D01*
X38393Y60677D01*
X38454Y60735D01*
X38512Y60796D01*
X38568Y60860D01*
X38621Y60927D01*
X38670Y60996D01*
X38716Y61067D01*
X38759Y61140D01*
X38799Y61215D01*
X38835Y61291D01*
X38867Y61369D01*
X38896Y61449D01*
X38921Y61530D01*
X38942Y61612D01*
X38960Y61695D01*
X38973Y61779D01*
X38983Y61863D01*
X38989Y61947D01*
X38991Y62032D01*
X38992Y62032D02*
X38992Y63867D01*
X38991Y63867D02*
X38989Y63974D01*
X38983Y64081D01*
X38973Y64188D01*
X38960Y64294D01*
X38942Y64400D01*
X38921Y64505D01*
X38896Y64609D01*
X38867Y64713D01*
X38834Y64815D01*
X38797Y64915D01*
X38757Y65015D01*
X38713Y65113D01*
X38666Y65209D01*
X38615Y65303D01*
X38561Y65396D01*
X38504Y65486D01*
X38443Y65575D01*
X38379Y65661D01*
X38312Y65744D01*
X38242Y65826D01*
X38169Y65904D01*
X38093Y65980D01*
X38015Y66053D01*
X37933Y66123D01*
X37850Y66190D01*
X37764Y66254D01*
X37675Y66315D01*
X37585Y66372D01*
X37492Y66426D01*
X37398Y66477D01*
X37302Y66524D01*
X37204Y66568D01*
X37105Y66608D01*
X37004Y66645D01*
X36902Y66678D01*
X36798Y66707D01*
X36694Y66732D01*
X36589Y66753D01*
X36483Y66771D01*
X36377Y66784D01*
X36270Y66794D01*
X36163Y66800D01*
X36056Y66802D01*
X281178Y130302D02*
X287782Y130302D01*
X287782Y132136D01*
X287780Y132221D01*
X287774Y132305D01*
X287764Y132389D01*
X287751Y132473D01*
X287733Y132556D01*
X287712Y132638D01*
X287687Y132719D01*
X287658Y132799D01*
X287626Y132877D01*
X287590Y132953D01*
X287550Y133028D01*
X287507Y133101D01*
X287461Y133172D01*
X287412Y133241D01*
X287359Y133308D01*
X287303Y133372D01*
X287245Y133433D01*
X287184Y133491D01*
X287120Y133547D01*
X287053Y133600D01*
X286984Y133649D01*
X286913Y133695D01*
X286840Y133738D01*
X286765Y133778D01*
X286689Y133814D01*
X286611Y133846D01*
X286531Y133875D01*
X286450Y133900D01*
X286368Y133921D01*
X286285Y133939D01*
X286201Y133952D01*
X286117Y133962D01*
X286033Y133968D01*
X285948Y133970D01*
X285863Y133968D01*
X285779Y133962D01*
X285695Y133952D01*
X285611Y133939D01*
X285528Y133921D01*
X285446Y133900D01*
X285365Y133875D01*
X285285Y133846D01*
X285207Y133814D01*
X285131Y133778D01*
X285056Y133738D01*
X284983Y133695D01*
X284912Y133649D01*
X284843Y133600D01*
X284776Y133547D01*
X284712Y133491D01*
X284651Y133433D01*
X284593Y133372D01*
X284537Y133308D01*
X284484Y133241D01*
X284435Y133172D01*
X284389Y133101D01*
X284346Y133028D01*
X284306Y132953D01*
X284270Y132877D01*
X284238Y132799D01*
X284209Y132719D01*
X284184Y132638D01*
X284163Y132556D01*
X284145Y132473D01*
X284132Y132389D01*
X284122Y132305D01*
X284116Y132221D01*
X284114Y132136D01*
X284113Y132136D02*
X284113Y130302D01*
X284113Y132503D02*
X281178Y133971D01*
X287782Y139556D02*
X287780Y139635D01*
X287775Y139713D01*
X287765Y139791D01*
X287752Y139868D01*
X287735Y139945D01*
X287715Y140021D01*
X287691Y140096D01*
X287664Y140170D01*
X287633Y140242D01*
X287598Y140313D01*
X287561Y140382D01*
X287520Y140449D01*
X287476Y140514D01*
X287429Y140577D01*
X287379Y140637D01*
X287326Y140695D01*
X287270Y140751D01*
X287212Y140804D01*
X287152Y140854D01*
X287089Y140901D01*
X287024Y140945D01*
X286957Y140986D01*
X286888Y141023D01*
X286817Y141058D01*
X286745Y141089D01*
X286671Y141116D01*
X286596Y141140D01*
X286520Y141160D01*
X286443Y141177D01*
X286366Y141190D01*
X286288Y141200D01*
X286210Y141205D01*
X286131Y141207D01*
X287782Y139556D02*
X287780Y139467D01*
X287775Y139378D01*
X287765Y139290D01*
X287752Y139202D01*
X287736Y139115D01*
X287715Y139028D01*
X287691Y138943D01*
X287664Y138858D01*
X287633Y138775D01*
X287598Y138693D01*
X287560Y138612D01*
X287519Y138533D01*
X287475Y138457D01*
X287427Y138381D01*
X287376Y138308D01*
X287323Y138238D01*
X287266Y138169D01*
X287206Y138103D01*
X287144Y138040D01*
X287079Y137979D01*
X287012Y137921D01*
X286942Y137866D01*
X286870Y137813D01*
X286796Y137764D01*
X286720Y137718D01*
X286642Y137676D01*
X286562Y137636D01*
X286481Y137600D01*
X286398Y137567D01*
X286314Y137538D01*
X284847Y140657D02*
X284903Y140713D01*
X284962Y140767D01*
X285023Y140818D01*
X285087Y140867D01*
X285152Y140912D01*
X285220Y140955D01*
X285289Y140994D01*
X285360Y141031D01*
X285433Y141064D01*
X285507Y141093D01*
X285582Y141120D01*
X285658Y141143D01*
X285736Y141162D01*
X285814Y141178D01*
X285892Y141191D01*
X285972Y141200D01*
X286051Y141205D01*
X286131Y141207D01*
X284847Y140657D02*
X281178Y137538D01*
X281178Y141207D01*
X281178Y144854D02*
X281178Y146688D01*
X281180Y146773D01*
X281186Y146857D01*
X281196Y146941D01*
X281209Y147025D01*
X281227Y147108D01*
X281248Y147190D01*
X281273Y147271D01*
X281302Y147351D01*
X281334Y147429D01*
X281370Y147505D01*
X281410Y147580D01*
X281453Y147653D01*
X281499Y147724D01*
X281548Y147793D01*
X281601Y147860D01*
X281657Y147924D01*
X281715Y147985D01*
X281776Y148043D01*
X281840Y148099D01*
X281907Y148152D01*
X281976Y148201D01*
X282047Y148247D01*
X282120Y148290D01*
X282195Y148330D01*
X282271Y148366D01*
X282349Y148398D01*
X282429Y148427D01*
X282510Y148452D01*
X282592Y148473D01*
X282675Y148491D01*
X282759Y148504D01*
X282843Y148514D01*
X282927Y148520D01*
X283012Y148522D01*
X283097Y148520D01*
X283181Y148514D01*
X283265Y148504D01*
X283349Y148491D01*
X283432Y148473D01*
X283514Y148452D01*
X283595Y148427D01*
X283675Y148398D01*
X283753Y148366D01*
X283829Y148330D01*
X283904Y148290D01*
X283977Y148247D01*
X284048Y148201D01*
X284117Y148152D01*
X284184Y148099D01*
X284248Y148043D01*
X284309Y147985D01*
X284367Y147924D01*
X284423Y147860D01*
X284476Y147793D01*
X284525Y147724D01*
X284571Y147653D01*
X284614Y147580D01*
X284654Y147505D01*
X284690Y147429D01*
X284722Y147351D01*
X284751Y147271D01*
X284776Y147190D01*
X284797Y147108D01*
X284815Y147025D01*
X284828Y146941D01*
X284838Y146857D01*
X284844Y146773D01*
X284846Y146688D01*
X287782Y147055D02*
X287782Y144854D01*
X287782Y147055D02*
X287780Y147131D01*
X287774Y147206D01*
X287765Y147281D01*
X287751Y147355D01*
X287734Y147429D01*
X287712Y147501D01*
X287688Y147573D01*
X287659Y147643D01*
X287627Y147711D01*
X287592Y147778D01*
X287553Y147843D01*
X287510Y147906D01*
X287465Y147966D01*
X287417Y148024D01*
X287365Y148080D01*
X287311Y148132D01*
X287254Y148182D01*
X287195Y148229D01*
X287134Y148273D01*
X287070Y148314D01*
X287004Y148351D01*
X286936Y148385D01*
X286867Y148415D01*
X286796Y148442D01*
X286724Y148465D01*
X286651Y148484D01*
X286577Y148499D01*
X286502Y148511D01*
X286427Y148519D01*
X286352Y148523D01*
X286276Y148523D01*
X286201Y148519D01*
X286126Y148511D01*
X286051Y148499D01*
X285977Y148484D01*
X285904Y148465D01*
X285832Y148442D01*
X285761Y148415D01*
X285692Y148385D01*
X285624Y148351D01*
X285558Y148314D01*
X285494Y148273D01*
X285433Y148229D01*
X285374Y148182D01*
X285317Y148132D01*
X285263Y148080D01*
X285211Y148024D01*
X285163Y147966D01*
X285118Y147906D01*
X285075Y147843D01*
X285036Y147778D01*
X285001Y147711D01*
X284969Y147643D01*
X284940Y147573D01*
X284916Y147501D01*
X284894Y147429D01*
X284877Y147355D01*
X284863Y147281D01*
X284854Y147206D01*
X284848Y147131D01*
X284846Y147055D01*
X284847Y147055D02*
X284847Y145587D01*
X287782Y97858D02*
X281178Y97858D01*
X287782Y97858D02*
X287782Y99692D01*
X287780Y99777D01*
X287774Y99861D01*
X287764Y99945D01*
X287751Y100029D01*
X287733Y100112D01*
X287712Y100194D01*
X287687Y100275D01*
X287658Y100355D01*
X287626Y100433D01*
X287590Y100509D01*
X287550Y100584D01*
X287507Y100657D01*
X287461Y100728D01*
X287412Y100797D01*
X287359Y100864D01*
X287303Y100928D01*
X287245Y100989D01*
X287184Y101047D01*
X287120Y101103D01*
X287053Y101156D01*
X286984Y101205D01*
X286913Y101251D01*
X286840Y101294D01*
X286765Y101334D01*
X286689Y101370D01*
X286611Y101402D01*
X286531Y101431D01*
X286450Y101456D01*
X286368Y101477D01*
X286285Y101495D01*
X286201Y101508D01*
X286117Y101518D01*
X286033Y101524D01*
X285948Y101526D01*
X285863Y101524D01*
X285779Y101518D01*
X285695Y101508D01*
X285611Y101495D01*
X285528Y101477D01*
X285446Y101456D01*
X285365Y101431D01*
X285285Y101402D01*
X285207Y101370D01*
X285131Y101334D01*
X285056Y101294D01*
X284983Y101251D01*
X284912Y101205D01*
X284843Y101156D01*
X284776Y101103D01*
X284712Y101047D01*
X284651Y100989D01*
X284593Y100928D01*
X284537Y100864D01*
X284484Y100797D01*
X284435Y100728D01*
X284389Y100657D01*
X284346Y100584D01*
X284306Y100509D01*
X284270Y100433D01*
X284238Y100355D01*
X284209Y100275D01*
X284184Y100194D01*
X284163Y100112D01*
X284145Y100029D01*
X284132Y99945D01*
X284122Y99861D01*
X284116Y99777D01*
X284114Y99692D01*
X284113Y99692D02*
X284113Y97858D01*
X284113Y100059D02*
X281178Y101526D01*
X287782Y107112D02*
X287780Y107191D01*
X287775Y107269D01*
X287765Y107347D01*
X287752Y107424D01*
X287735Y107501D01*
X287715Y107577D01*
X287691Y107652D01*
X287664Y107726D01*
X287633Y107798D01*
X287598Y107869D01*
X287561Y107938D01*
X287520Y108005D01*
X287476Y108070D01*
X287429Y108133D01*
X287379Y108193D01*
X287326Y108251D01*
X287270Y108307D01*
X287212Y108360D01*
X287152Y108410D01*
X287089Y108457D01*
X287024Y108501D01*
X286957Y108542D01*
X286888Y108579D01*
X286817Y108614D01*
X286745Y108645D01*
X286671Y108672D01*
X286596Y108696D01*
X286520Y108716D01*
X286443Y108733D01*
X286366Y108746D01*
X286288Y108756D01*
X286210Y108761D01*
X286131Y108763D01*
X287782Y107112D02*
X287780Y107023D01*
X287775Y106934D01*
X287765Y106846D01*
X287752Y106758D01*
X287736Y106671D01*
X287715Y106584D01*
X287691Y106499D01*
X287664Y106414D01*
X287633Y106331D01*
X287598Y106249D01*
X287560Y106168D01*
X287519Y106089D01*
X287475Y106013D01*
X287427Y105937D01*
X287376Y105864D01*
X287323Y105794D01*
X287266Y105725D01*
X287206Y105659D01*
X287144Y105596D01*
X287079Y105535D01*
X287012Y105477D01*
X286942Y105422D01*
X286870Y105369D01*
X286796Y105320D01*
X286720Y105274D01*
X286642Y105232D01*
X286562Y105192D01*
X286481Y105156D01*
X286398Y105123D01*
X286314Y105094D01*
X284847Y108213D02*
X284903Y108269D01*
X284962Y108323D01*
X285023Y108374D01*
X285087Y108423D01*
X285152Y108468D01*
X285220Y108511D01*
X285289Y108550D01*
X285360Y108587D01*
X285433Y108620D01*
X285507Y108649D01*
X285582Y108676D01*
X285658Y108699D01*
X285736Y108718D01*
X285814Y108734D01*
X285892Y108747D01*
X285972Y108756D01*
X286051Y108761D01*
X286131Y108763D01*
X284847Y108212D02*
X281178Y105094D01*
X281178Y108763D01*
X282646Y112409D02*
X287782Y113877D01*
X282646Y112409D02*
X282646Y116078D01*
X284113Y114977D02*
X281178Y114977D01*
X245872Y97858D02*
X239268Y97858D01*
X245872Y97858D02*
X245872Y99692D01*
X245870Y99777D01*
X245864Y99861D01*
X245854Y99945D01*
X245841Y100029D01*
X245823Y100112D01*
X245802Y100194D01*
X245777Y100275D01*
X245748Y100355D01*
X245716Y100433D01*
X245680Y100509D01*
X245640Y100584D01*
X245597Y100657D01*
X245551Y100728D01*
X245502Y100797D01*
X245449Y100864D01*
X245393Y100928D01*
X245335Y100989D01*
X245274Y101047D01*
X245210Y101103D01*
X245143Y101156D01*
X245074Y101205D01*
X245003Y101251D01*
X244930Y101294D01*
X244855Y101334D01*
X244779Y101370D01*
X244701Y101402D01*
X244621Y101431D01*
X244540Y101456D01*
X244458Y101477D01*
X244375Y101495D01*
X244291Y101508D01*
X244207Y101518D01*
X244123Y101524D01*
X244038Y101526D01*
X243953Y101524D01*
X243869Y101518D01*
X243785Y101508D01*
X243701Y101495D01*
X243618Y101477D01*
X243536Y101456D01*
X243455Y101431D01*
X243375Y101402D01*
X243297Y101370D01*
X243221Y101334D01*
X243146Y101294D01*
X243073Y101251D01*
X243002Y101205D01*
X242933Y101156D01*
X242866Y101103D01*
X242802Y101047D01*
X242741Y100989D01*
X242683Y100928D01*
X242627Y100864D01*
X242574Y100797D01*
X242525Y100728D01*
X242479Y100657D01*
X242436Y100584D01*
X242396Y100509D01*
X242360Y100433D01*
X242328Y100355D01*
X242299Y100275D01*
X242274Y100194D01*
X242253Y100112D01*
X242235Y100029D01*
X242222Y99945D01*
X242212Y99861D01*
X242206Y99777D01*
X242204Y99692D01*
X242203Y99692D02*
X242203Y97858D01*
X242203Y100059D02*
X239268Y101526D01*
X245872Y107112D02*
X245870Y107191D01*
X245865Y107269D01*
X245855Y107347D01*
X245842Y107424D01*
X245825Y107501D01*
X245805Y107577D01*
X245781Y107652D01*
X245754Y107726D01*
X245723Y107798D01*
X245688Y107869D01*
X245651Y107938D01*
X245610Y108005D01*
X245566Y108070D01*
X245519Y108133D01*
X245469Y108193D01*
X245416Y108251D01*
X245360Y108307D01*
X245302Y108360D01*
X245242Y108410D01*
X245179Y108457D01*
X245114Y108501D01*
X245047Y108542D01*
X244978Y108579D01*
X244907Y108614D01*
X244835Y108645D01*
X244761Y108672D01*
X244686Y108696D01*
X244610Y108716D01*
X244533Y108733D01*
X244456Y108746D01*
X244378Y108756D01*
X244300Y108761D01*
X244221Y108763D01*
X245872Y107112D02*
X245870Y107023D01*
X245865Y106934D01*
X245855Y106846D01*
X245842Y106758D01*
X245826Y106671D01*
X245805Y106584D01*
X245781Y106499D01*
X245754Y106414D01*
X245723Y106331D01*
X245688Y106249D01*
X245650Y106168D01*
X245609Y106089D01*
X245565Y106013D01*
X245517Y105937D01*
X245466Y105864D01*
X245413Y105794D01*
X245356Y105725D01*
X245296Y105659D01*
X245234Y105596D01*
X245169Y105535D01*
X245102Y105477D01*
X245032Y105422D01*
X244960Y105369D01*
X244886Y105320D01*
X244810Y105274D01*
X244732Y105232D01*
X244652Y105192D01*
X244571Y105156D01*
X244488Y105123D01*
X244404Y105094D01*
X242937Y108213D02*
X242993Y108269D01*
X243052Y108323D01*
X243113Y108374D01*
X243177Y108423D01*
X243242Y108468D01*
X243310Y108511D01*
X243379Y108550D01*
X243450Y108587D01*
X243523Y108620D01*
X243597Y108649D01*
X243672Y108676D01*
X243748Y108699D01*
X243826Y108718D01*
X243904Y108734D01*
X243982Y108747D01*
X244062Y108756D01*
X244141Y108761D01*
X244221Y108763D01*
X242937Y108212D02*
X239268Y105094D01*
X239268Y108763D01*
X239268Y112409D02*
X239268Y114610D01*
X239270Y114684D01*
X239276Y114759D01*
X239285Y114832D01*
X239298Y114906D01*
X239315Y114978D01*
X239335Y115049D01*
X239359Y115120D01*
X239387Y115189D01*
X239418Y115256D01*
X239452Y115322D01*
X239490Y115387D01*
X239531Y115449D01*
X239575Y115509D01*
X239622Y115566D01*
X239672Y115621D01*
X239725Y115674D01*
X239780Y115724D01*
X239837Y115771D01*
X239897Y115815D01*
X239959Y115856D01*
X240024Y115894D01*
X240089Y115928D01*
X240157Y115959D01*
X240226Y115987D01*
X240297Y116011D01*
X240368Y116031D01*
X240440Y116048D01*
X240514Y116061D01*
X240587Y116070D01*
X240662Y116076D01*
X240736Y116078D01*
X241469Y116078D01*
X241543Y116076D01*
X241618Y116070D01*
X241691Y116061D01*
X241765Y116048D01*
X241837Y116031D01*
X241908Y116011D01*
X241979Y115987D01*
X242048Y115959D01*
X242115Y115928D01*
X242181Y115894D01*
X242246Y115856D01*
X242308Y115815D01*
X242368Y115771D01*
X242425Y115724D01*
X242480Y115674D01*
X242533Y115621D01*
X242583Y115566D01*
X242630Y115509D01*
X242674Y115449D01*
X242715Y115387D01*
X242753Y115322D01*
X242787Y115256D01*
X242818Y115189D01*
X242846Y115120D01*
X242870Y115049D01*
X242890Y114978D01*
X242907Y114906D01*
X242920Y114832D01*
X242929Y114759D01*
X242935Y114684D01*
X242937Y114610D01*
X242937Y112409D01*
X245872Y112409D01*
X245872Y116078D01*
X245872Y131572D02*
X239268Y131572D01*
X245872Y131572D02*
X245872Y133406D01*
X245870Y133491D01*
X245864Y133575D01*
X245854Y133659D01*
X245841Y133743D01*
X245823Y133826D01*
X245802Y133908D01*
X245777Y133989D01*
X245748Y134069D01*
X245716Y134147D01*
X245680Y134223D01*
X245640Y134298D01*
X245597Y134371D01*
X245551Y134442D01*
X245502Y134511D01*
X245449Y134578D01*
X245393Y134642D01*
X245335Y134703D01*
X245274Y134761D01*
X245210Y134817D01*
X245143Y134870D01*
X245074Y134919D01*
X245003Y134965D01*
X244930Y135008D01*
X244855Y135048D01*
X244779Y135084D01*
X244701Y135116D01*
X244621Y135145D01*
X244540Y135170D01*
X244458Y135191D01*
X244375Y135209D01*
X244291Y135222D01*
X244207Y135232D01*
X244123Y135238D01*
X244038Y135240D01*
X243953Y135238D01*
X243869Y135232D01*
X243785Y135222D01*
X243701Y135209D01*
X243618Y135191D01*
X243536Y135170D01*
X243455Y135145D01*
X243375Y135116D01*
X243297Y135084D01*
X243221Y135048D01*
X243146Y135008D01*
X243073Y134965D01*
X243002Y134919D01*
X242933Y134870D01*
X242866Y134817D01*
X242802Y134761D01*
X242741Y134703D01*
X242683Y134642D01*
X242627Y134578D01*
X242574Y134511D01*
X242525Y134442D01*
X242479Y134371D01*
X242436Y134298D01*
X242396Y134223D01*
X242360Y134147D01*
X242328Y134069D01*
X242299Y133989D01*
X242274Y133908D01*
X242253Y133826D01*
X242235Y133743D01*
X242222Y133659D01*
X242212Y133575D01*
X242206Y133491D01*
X242204Y133406D01*
X242203Y133406D02*
X242203Y131572D01*
X242203Y133773D02*
X239268Y135241D01*
X245872Y140826D02*
X245870Y140905D01*
X245865Y140983D01*
X245855Y141061D01*
X245842Y141138D01*
X245825Y141215D01*
X245805Y141291D01*
X245781Y141366D01*
X245754Y141440D01*
X245723Y141512D01*
X245688Y141583D01*
X245651Y141652D01*
X245610Y141719D01*
X245566Y141784D01*
X245519Y141847D01*
X245469Y141907D01*
X245416Y141965D01*
X245360Y142021D01*
X245302Y142074D01*
X245242Y142124D01*
X245179Y142171D01*
X245114Y142215D01*
X245047Y142256D01*
X244978Y142293D01*
X244907Y142328D01*
X244835Y142359D01*
X244761Y142386D01*
X244686Y142410D01*
X244610Y142430D01*
X244533Y142447D01*
X244456Y142460D01*
X244378Y142470D01*
X244300Y142475D01*
X244221Y142477D01*
X245872Y140826D02*
X245870Y140737D01*
X245865Y140648D01*
X245855Y140560D01*
X245842Y140472D01*
X245826Y140385D01*
X245805Y140298D01*
X245781Y140213D01*
X245754Y140128D01*
X245723Y140045D01*
X245688Y139963D01*
X245650Y139882D01*
X245609Y139803D01*
X245565Y139727D01*
X245517Y139651D01*
X245466Y139578D01*
X245413Y139508D01*
X245356Y139439D01*
X245296Y139373D01*
X245234Y139310D01*
X245169Y139249D01*
X245102Y139191D01*
X245032Y139136D01*
X244960Y139083D01*
X244886Y139034D01*
X244810Y138988D01*
X244732Y138946D01*
X244652Y138906D01*
X244571Y138870D01*
X244488Y138837D01*
X244404Y138808D01*
X242937Y141927D02*
X242993Y141983D01*
X243052Y142037D01*
X243113Y142088D01*
X243177Y142137D01*
X243242Y142182D01*
X243310Y142225D01*
X243379Y142264D01*
X243450Y142301D01*
X243523Y142334D01*
X243597Y142363D01*
X243672Y142390D01*
X243748Y142413D01*
X243826Y142432D01*
X243904Y142448D01*
X243982Y142461D01*
X244062Y142470D01*
X244141Y142475D01*
X244221Y142477D01*
X242937Y141927D02*
X239268Y138808D01*
X239268Y142477D01*
X245872Y148141D02*
X245870Y148220D01*
X245865Y148298D01*
X245855Y148376D01*
X245842Y148453D01*
X245825Y148530D01*
X245805Y148606D01*
X245781Y148681D01*
X245754Y148755D01*
X245723Y148827D01*
X245688Y148898D01*
X245651Y148967D01*
X245610Y149034D01*
X245566Y149099D01*
X245519Y149162D01*
X245469Y149222D01*
X245416Y149280D01*
X245360Y149336D01*
X245302Y149389D01*
X245242Y149439D01*
X245179Y149486D01*
X245114Y149530D01*
X245047Y149571D01*
X244978Y149608D01*
X244907Y149643D01*
X244835Y149674D01*
X244761Y149701D01*
X244686Y149725D01*
X244610Y149745D01*
X244533Y149762D01*
X244456Y149775D01*
X244378Y149785D01*
X244300Y149790D01*
X244221Y149792D01*
X245872Y148141D02*
X245870Y148052D01*
X245865Y147963D01*
X245855Y147875D01*
X245842Y147787D01*
X245826Y147700D01*
X245805Y147613D01*
X245781Y147528D01*
X245754Y147443D01*
X245723Y147360D01*
X245688Y147278D01*
X245650Y147197D01*
X245609Y147118D01*
X245565Y147042D01*
X245517Y146966D01*
X245466Y146893D01*
X245413Y146823D01*
X245356Y146754D01*
X245296Y146688D01*
X245234Y146625D01*
X245169Y146564D01*
X245102Y146506D01*
X245032Y146451D01*
X244960Y146398D01*
X244886Y146349D01*
X244810Y146303D01*
X244732Y146261D01*
X244652Y146221D01*
X244571Y146185D01*
X244488Y146152D01*
X244404Y146123D01*
X242937Y149242D02*
X242993Y149298D01*
X243052Y149352D01*
X243113Y149403D01*
X243177Y149452D01*
X243242Y149497D01*
X243310Y149540D01*
X243379Y149579D01*
X243450Y149616D01*
X243523Y149649D01*
X243597Y149678D01*
X243672Y149705D01*
X243748Y149728D01*
X243826Y149747D01*
X243904Y149763D01*
X243982Y149776D01*
X244062Y149785D01*
X244141Y149790D01*
X244221Y149792D01*
X242937Y149242D02*
X239268Y146124D01*
X239268Y149792D01*
X376428Y67378D02*
X383032Y67378D01*
X383032Y69212D01*
X383030Y69297D01*
X383024Y69381D01*
X383014Y69465D01*
X383001Y69549D01*
X382983Y69632D01*
X382962Y69714D01*
X382937Y69795D01*
X382908Y69875D01*
X382876Y69953D01*
X382840Y70029D01*
X382800Y70104D01*
X382757Y70177D01*
X382711Y70248D01*
X382662Y70317D01*
X382609Y70384D01*
X382553Y70448D01*
X382495Y70509D01*
X382434Y70567D01*
X382370Y70623D01*
X382303Y70676D01*
X382234Y70725D01*
X382163Y70771D01*
X382090Y70814D01*
X382015Y70854D01*
X381939Y70890D01*
X381861Y70922D01*
X381781Y70951D01*
X381700Y70976D01*
X381618Y70997D01*
X381535Y71015D01*
X381451Y71028D01*
X381367Y71038D01*
X381283Y71044D01*
X381198Y71046D01*
X381113Y71044D01*
X381029Y71038D01*
X380945Y71028D01*
X380861Y71015D01*
X380778Y70997D01*
X380696Y70976D01*
X380615Y70951D01*
X380535Y70922D01*
X380457Y70890D01*
X380381Y70854D01*
X380306Y70814D01*
X380233Y70771D01*
X380162Y70725D01*
X380093Y70676D01*
X380026Y70623D01*
X379962Y70567D01*
X379901Y70509D01*
X379843Y70448D01*
X379787Y70384D01*
X379734Y70317D01*
X379685Y70248D01*
X379639Y70177D01*
X379596Y70104D01*
X379556Y70029D01*
X379520Y69953D01*
X379488Y69875D01*
X379459Y69795D01*
X379434Y69714D01*
X379413Y69632D01*
X379395Y69549D01*
X379382Y69465D01*
X379372Y69381D01*
X379366Y69297D01*
X379364Y69212D01*
X379363Y69212D02*
X379363Y67378D01*
X379363Y69579D02*
X376428Y71046D01*
X381564Y74614D02*
X383032Y76448D01*
X376428Y76448D01*
X376428Y74614D02*
X376428Y78283D01*
X379363Y83397D02*
X379363Y85598D01*
X379363Y83397D02*
X379365Y83323D01*
X379371Y83248D01*
X379380Y83175D01*
X379393Y83101D01*
X379410Y83029D01*
X379430Y82958D01*
X379454Y82887D01*
X379482Y82818D01*
X379513Y82751D01*
X379547Y82685D01*
X379585Y82620D01*
X379626Y82558D01*
X379670Y82498D01*
X379717Y82441D01*
X379767Y82386D01*
X379820Y82333D01*
X379875Y82283D01*
X379932Y82236D01*
X379992Y82192D01*
X380054Y82151D01*
X380119Y82113D01*
X380185Y82079D01*
X380252Y82048D01*
X380321Y82020D01*
X380392Y81996D01*
X380463Y81976D01*
X380535Y81959D01*
X380609Y81946D01*
X380682Y81937D01*
X380757Y81931D01*
X380831Y81929D01*
X381198Y81929D01*
X381198Y81930D02*
X381283Y81932D01*
X381367Y81938D01*
X381451Y81948D01*
X381535Y81961D01*
X381618Y81979D01*
X381700Y82000D01*
X381781Y82025D01*
X381861Y82054D01*
X381939Y82086D01*
X382015Y82122D01*
X382090Y82162D01*
X382163Y82205D01*
X382234Y82251D01*
X382303Y82300D01*
X382370Y82353D01*
X382434Y82409D01*
X382495Y82467D01*
X382553Y82528D01*
X382609Y82592D01*
X382662Y82659D01*
X382711Y82728D01*
X382757Y82799D01*
X382800Y82872D01*
X382840Y82947D01*
X382876Y83023D01*
X382908Y83101D01*
X382937Y83181D01*
X382962Y83262D01*
X382983Y83344D01*
X383001Y83427D01*
X383014Y83511D01*
X383024Y83595D01*
X383030Y83679D01*
X383032Y83764D01*
X383030Y83849D01*
X383024Y83933D01*
X383014Y84017D01*
X383001Y84101D01*
X382983Y84184D01*
X382962Y84266D01*
X382937Y84347D01*
X382908Y84427D01*
X382876Y84505D01*
X382840Y84581D01*
X382800Y84656D01*
X382757Y84729D01*
X382711Y84800D01*
X382662Y84869D01*
X382609Y84936D01*
X382553Y85000D01*
X382495Y85061D01*
X382434Y85119D01*
X382370Y85175D01*
X382303Y85228D01*
X382234Y85277D01*
X382163Y85323D01*
X382090Y85366D01*
X382015Y85406D01*
X381939Y85442D01*
X381861Y85474D01*
X381781Y85503D01*
X381700Y85528D01*
X381618Y85549D01*
X381535Y85567D01*
X381451Y85580D01*
X381367Y85590D01*
X381283Y85596D01*
X381198Y85598D01*
X379363Y85598D01*
X379256Y85596D01*
X379149Y85590D01*
X379042Y85580D01*
X378936Y85567D01*
X378830Y85549D01*
X378725Y85528D01*
X378621Y85503D01*
X378517Y85474D01*
X378415Y85441D01*
X378315Y85404D01*
X378215Y85364D01*
X378117Y85320D01*
X378021Y85273D01*
X377927Y85222D01*
X377834Y85168D01*
X377744Y85111D01*
X377655Y85050D01*
X377569Y84986D01*
X377486Y84919D01*
X377404Y84849D01*
X377326Y84776D01*
X377250Y84700D01*
X377177Y84622D01*
X377107Y84540D01*
X377040Y84457D01*
X376976Y84371D01*
X376915Y84282D01*
X376858Y84192D01*
X376804Y84099D01*
X376753Y84005D01*
X376706Y83909D01*
X376662Y83811D01*
X376622Y83711D01*
X376585Y83611D01*
X376552Y83509D01*
X376523Y83405D01*
X376498Y83301D01*
X376477Y83196D01*
X376459Y83090D01*
X376446Y82984D01*
X376436Y82877D01*
X376430Y82770D01*
X376428Y82663D01*
X90407Y130048D02*
X90407Y136652D01*
X88573Y136652D01*
X88488Y136650D01*
X88404Y136644D01*
X88320Y136634D01*
X88236Y136621D01*
X88153Y136603D01*
X88071Y136582D01*
X87990Y136557D01*
X87910Y136528D01*
X87832Y136496D01*
X87756Y136460D01*
X87681Y136420D01*
X87608Y136377D01*
X87537Y136331D01*
X87468Y136282D01*
X87401Y136229D01*
X87337Y136173D01*
X87276Y136115D01*
X87218Y136054D01*
X87162Y135990D01*
X87109Y135923D01*
X87060Y135854D01*
X87014Y135783D01*
X86971Y135710D01*
X86931Y135635D01*
X86895Y135559D01*
X86863Y135481D01*
X86834Y135401D01*
X86809Y135320D01*
X86788Y135238D01*
X86770Y135155D01*
X86757Y135071D01*
X86747Y134987D01*
X86741Y134903D01*
X86739Y134818D01*
X86741Y134733D01*
X86747Y134649D01*
X86757Y134565D01*
X86770Y134481D01*
X86788Y134398D01*
X86809Y134316D01*
X86834Y134235D01*
X86863Y134155D01*
X86895Y134077D01*
X86931Y134001D01*
X86971Y133926D01*
X87014Y133853D01*
X87060Y133782D01*
X87109Y133713D01*
X87162Y133646D01*
X87218Y133582D01*
X87276Y133521D01*
X87337Y133463D01*
X87401Y133407D01*
X87468Y133354D01*
X87537Y133305D01*
X87608Y133259D01*
X87681Y133216D01*
X87756Y133176D01*
X87832Y133140D01*
X87910Y133108D01*
X87990Y133079D01*
X88071Y133054D01*
X88153Y133033D01*
X88236Y133015D01*
X88320Y133002D01*
X88404Y132992D01*
X88488Y132986D01*
X88573Y132984D01*
X88573Y132983D02*
X90407Y132983D01*
X88206Y132983D02*
X86738Y130048D01*
X83171Y131516D02*
X81703Y136652D01*
X83171Y131516D02*
X79502Y131516D01*
X80603Y132983D02*
X80603Y130048D01*
X288798Y40708D02*
X295402Y40708D01*
X295402Y42542D01*
X295400Y42627D01*
X295394Y42711D01*
X295384Y42795D01*
X295371Y42879D01*
X295353Y42962D01*
X295332Y43044D01*
X295307Y43125D01*
X295278Y43205D01*
X295246Y43283D01*
X295210Y43359D01*
X295170Y43434D01*
X295127Y43507D01*
X295081Y43578D01*
X295032Y43647D01*
X294979Y43714D01*
X294923Y43778D01*
X294865Y43839D01*
X294804Y43897D01*
X294740Y43953D01*
X294673Y44006D01*
X294604Y44055D01*
X294533Y44101D01*
X294460Y44144D01*
X294385Y44184D01*
X294309Y44220D01*
X294231Y44252D01*
X294151Y44281D01*
X294070Y44306D01*
X293988Y44327D01*
X293905Y44345D01*
X293821Y44358D01*
X293737Y44368D01*
X293653Y44374D01*
X293568Y44376D01*
X293483Y44374D01*
X293399Y44368D01*
X293315Y44358D01*
X293231Y44345D01*
X293148Y44327D01*
X293066Y44306D01*
X292985Y44281D01*
X292905Y44252D01*
X292827Y44220D01*
X292751Y44184D01*
X292676Y44144D01*
X292603Y44101D01*
X292532Y44055D01*
X292463Y44006D01*
X292396Y43953D01*
X292332Y43897D01*
X292271Y43839D01*
X292213Y43778D01*
X292157Y43714D01*
X292104Y43647D01*
X292055Y43578D01*
X292009Y43507D01*
X291966Y43434D01*
X291926Y43359D01*
X291890Y43283D01*
X291858Y43205D01*
X291829Y43125D01*
X291804Y43044D01*
X291783Y42962D01*
X291765Y42879D01*
X291752Y42795D01*
X291742Y42711D01*
X291736Y42627D01*
X291734Y42542D01*
X291733Y42542D02*
X291733Y40708D01*
X291733Y42909D02*
X288798Y44376D01*
X295402Y49962D02*
X295400Y50041D01*
X295395Y50119D01*
X295385Y50197D01*
X295372Y50274D01*
X295355Y50351D01*
X295335Y50427D01*
X295311Y50502D01*
X295284Y50576D01*
X295253Y50648D01*
X295218Y50719D01*
X295181Y50788D01*
X295140Y50855D01*
X295096Y50920D01*
X295049Y50983D01*
X294999Y51043D01*
X294946Y51101D01*
X294890Y51157D01*
X294832Y51210D01*
X294772Y51260D01*
X294709Y51307D01*
X294644Y51351D01*
X294577Y51392D01*
X294508Y51429D01*
X294437Y51464D01*
X294365Y51495D01*
X294291Y51522D01*
X294216Y51546D01*
X294140Y51566D01*
X294063Y51583D01*
X293986Y51596D01*
X293908Y51606D01*
X293830Y51611D01*
X293751Y51613D01*
X295402Y49962D02*
X295400Y49873D01*
X295395Y49784D01*
X295385Y49696D01*
X295372Y49608D01*
X295356Y49521D01*
X295335Y49434D01*
X295311Y49349D01*
X295284Y49264D01*
X295253Y49181D01*
X295218Y49099D01*
X295180Y49018D01*
X295139Y48939D01*
X295095Y48863D01*
X295047Y48787D01*
X294996Y48714D01*
X294943Y48644D01*
X294886Y48575D01*
X294826Y48509D01*
X294764Y48446D01*
X294699Y48385D01*
X294632Y48327D01*
X294562Y48272D01*
X294490Y48219D01*
X294416Y48170D01*
X294340Y48124D01*
X294262Y48082D01*
X294182Y48042D01*
X294101Y48006D01*
X294018Y47973D01*
X293934Y47944D01*
X292467Y51063D02*
X292523Y51119D01*
X292582Y51173D01*
X292643Y51224D01*
X292707Y51273D01*
X292772Y51318D01*
X292840Y51361D01*
X292909Y51400D01*
X292980Y51437D01*
X293053Y51470D01*
X293127Y51499D01*
X293202Y51526D01*
X293278Y51549D01*
X293356Y51568D01*
X293434Y51584D01*
X293512Y51597D01*
X293592Y51606D01*
X293671Y51611D01*
X293751Y51613D01*
X292467Y51062D02*
X288798Y47944D01*
X288798Y51613D01*
X292467Y55259D02*
X292467Y57460D01*
X292465Y57534D01*
X292459Y57609D01*
X292450Y57682D01*
X292437Y57756D01*
X292420Y57828D01*
X292400Y57899D01*
X292376Y57970D01*
X292348Y58039D01*
X292317Y58106D01*
X292283Y58172D01*
X292245Y58237D01*
X292204Y58299D01*
X292160Y58359D01*
X292113Y58416D01*
X292063Y58471D01*
X292010Y58524D01*
X291955Y58574D01*
X291898Y58621D01*
X291838Y58665D01*
X291776Y58706D01*
X291711Y58744D01*
X291645Y58778D01*
X291578Y58809D01*
X291509Y58837D01*
X291438Y58861D01*
X291367Y58881D01*
X291295Y58898D01*
X291221Y58911D01*
X291148Y58920D01*
X291073Y58926D01*
X290999Y58928D01*
X290632Y58928D01*
X290547Y58926D01*
X290463Y58920D01*
X290379Y58910D01*
X290295Y58897D01*
X290212Y58879D01*
X290130Y58858D01*
X290049Y58833D01*
X289969Y58804D01*
X289891Y58772D01*
X289815Y58736D01*
X289740Y58696D01*
X289667Y58653D01*
X289596Y58607D01*
X289527Y58558D01*
X289460Y58505D01*
X289396Y58449D01*
X289335Y58391D01*
X289277Y58330D01*
X289221Y58266D01*
X289168Y58199D01*
X289119Y58130D01*
X289073Y58059D01*
X289030Y57986D01*
X288990Y57911D01*
X288954Y57835D01*
X288922Y57757D01*
X288893Y57677D01*
X288868Y57596D01*
X288847Y57514D01*
X288829Y57431D01*
X288816Y57347D01*
X288806Y57263D01*
X288800Y57179D01*
X288798Y57094D01*
X288800Y57009D01*
X288806Y56925D01*
X288816Y56841D01*
X288829Y56757D01*
X288847Y56674D01*
X288868Y56592D01*
X288893Y56511D01*
X288922Y56431D01*
X288954Y56353D01*
X288990Y56277D01*
X289030Y56202D01*
X289073Y56129D01*
X289119Y56058D01*
X289168Y55989D01*
X289221Y55922D01*
X289277Y55858D01*
X289335Y55797D01*
X289396Y55739D01*
X289460Y55683D01*
X289527Y55630D01*
X289596Y55581D01*
X289667Y55535D01*
X289740Y55492D01*
X289815Y55452D01*
X289891Y55416D01*
X289969Y55384D01*
X290049Y55355D01*
X290130Y55330D01*
X290212Y55309D01*
X290295Y55291D01*
X290379Y55278D01*
X290463Y55268D01*
X290547Y55262D01*
X290632Y55260D01*
X290632Y55259D02*
X292467Y55259D01*
X292574Y55261D01*
X292681Y55267D01*
X292788Y55277D01*
X292894Y55290D01*
X293000Y55308D01*
X293105Y55329D01*
X293209Y55354D01*
X293313Y55383D01*
X293415Y55416D01*
X293515Y55453D01*
X293615Y55493D01*
X293713Y55537D01*
X293809Y55584D01*
X293903Y55635D01*
X293996Y55689D01*
X294086Y55746D01*
X294175Y55807D01*
X294261Y55871D01*
X294344Y55938D01*
X294426Y56008D01*
X294504Y56081D01*
X294580Y56157D01*
X294653Y56235D01*
X294723Y56317D01*
X294790Y56400D01*
X294854Y56486D01*
X294915Y56575D01*
X294972Y56665D01*
X295026Y56758D01*
X295077Y56852D01*
X295124Y56948D01*
X295168Y57046D01*
X295208Y57146D01*
X295245Y57246D01*
X295278Y57348D01*
X295307Y57452D01*
X295332Y57556D01*
X295353Y57661D01*
X295371Y57767D01*
X295384Y57873D01*
X295394Y57980D01*
X295400Y58087D01*
X295402Y58194D01*
X326898Y40708D02*
X333502Y40708D01*
X333502Y42542D01*
X333500Y42627D01*
X333494Y42711D01*
X333484Y42795D01*
X333471Y42879D01*
X333453Y42962D01*
X333432Y43044D01*
X333407Y43125D01*
X333378Y43205D01*
X333346Y43283D01*
X333310Y43359D01*
X333270Y43434D01*
X333227Y43507D01*
X333181Y43578D01*
X333132Y43647D01*
X333079Y43714D01*
X333023Y43778D01*
X332965Y43839D01*
X332904Y43897D01*
X332840Y43953D01*
X332773Y44006D01*
X332704Y44055D01*
X332633Y44101D01*
X332560Y44144D01*
X332485Y44184D01*
X332409Y44220D01*
X332331Y44252D01*
X332251Y44281D01*
X332170Y44306D01*
X332088Y44327D01*
X332005Y44345D01*
X331921Y44358D01*
X331837Y44368D01*
X331753Y44374D01*
X331668Y44376D01*
X331583Y44374D01*
X331499Y44368D01*
X331415Y44358D01*
X331331Y44345D01*
X331248Y44327D01*
X331166Y44306D01*
X331085Y44281D01*
X331005Y44252D01*
X330927Y44220D01*
X330851Y44184D01*
X330776Y44144D01*
X330703Y44101D01*
X330632Y44055D01*
X330563Y44006D01*
X330496Y43953D01*
X330432Y43897D01*
X330371Y43839D01*
X330313Y43778D01*
X330257Y43714D01*
X330204Y43647D01*
X330155Y43578D01*
X330109Y43507D01*
X330066Y43434D01*
X330026Y43359D01*
X329990Y43283D01*
X329958Y43205D01*
X329929Y43125D01*
X329904Y43044D01*
X329883Y42962D01*
X329865Y42879D01*
X329852Y42795D01*
X329842Y42711D01*
X329836Y42627D01*
X329834Y42542D01*
X329833Y42542D02*
X329833Y40708D01*
X329833Y42909D02*
X326898Y44376D01*
X333502Y49962D02*
X333500Y50041D01*
X333495Y50119D01*
X333485Y50197D01*
X333472Y50274D01*
X333455Y50351D01*
X333435Y50427D01*
X333411Y50502D01*
X333384Y50576D01*
X333353Y50648D01*
X333318Y50719D01*
X333281Y50788D01*
X333240Y50855D01*
X333196Y50920D01*
X333149Y50983D01*
X333099Y51043D01*
X333046Y51101D01*
X332990Y51157D01*
X332932Y51210D01*
X332872Y51260D01*
X332809Y51307D01*
X332744Y51351D01*
X332677Y51392D01*
X332608Y51429D01*
X332537Y51464D01*
X332465Y51495D01*
X332391Y51522D01*
X332316Y51546D01*
X332240Y51566D01*
X332163Y51583D01*
X332086Y51596D01*
X332008Y51606D01*
X331930Y51611D01*
X331851Y51613D01*
X333502Y49962D02*
X333500Y49873D01*
X333495Y49784D01*
X333485Y49696D01*
X333472Y49608D01*
X333456Y49521D01*
X333435Y49434D01*
X333411Y49349D01*
X333384Y49264D01*
X333353Y49181D01*
X333318Y49099D01*
X333280Y49018D01*
X333239Y48939D01*
X333195Y48863D01*
X333147Y48787D01*
X333096Y48714D01*
X333043Y48644D01*
X332986Y48575D01*
X332926Y48509D01*
X332864Y48446D01*
X332799Y48385D01*
X332732Y48327D01*
X332662Y48272D01*
X332590Y48219D01*
X332516Y48170D01*
X332440Y48124D01*
X332362Y48082D01*
X332282Y48042D01*
X332201Y48006D01*
X332118Y47973D01*
X332034Y47944D01*
X330567Y51063D02*
X330623Y51119D01*
X330682Y51173D01*
X330743Y51224D01*
X330807Y51273D01*
X330872Y51318D01*
X330940Y51361D01*
X331009Y51400D01*
X331080Y51437D01*
X331153Y51470D01*
X331227Y51499D01*
X331302Y51526D01*
X331378Y51549D01*
X331456Y51568D01*
X331534Y51584D01*
X331612Y51597D01*
X331692Y51606D01*
X331771Y51611D01*
X331851Y51613D01*
X330567Y51062D02*
X326898Y47944D01*
X326898Y51613D01*
X332768Y55259D02*
X333502Y55259D01*
X333502Y58928D01*
X326898Y57094D01*
X306832Y162628D02*
X300228Y162628D01*
X306832Y162628D02*
X306832Y164462D01*
X306830Y164547D01*
X306824Y164631D01*
X306814Y164715D01*
X306801Y164799D01*
X306783Y164882D01*
X306762Y164964D01*
X306737Y165045D01*
X306708Y165125D01*
X306676Y165203D01*
X306640Y165279D01*
X306600Y165354D01*
X306557Y165427D01*
X306511Y165498D01*
X306462Y165567D01*
X306409Y165634D01*
X306353Y165698D01*
X306295Y165759D01*
X306234Y165817D01*
X306170Y165873D01*
X306103Y165926D01*
X306034Y165975D01*
X305963Y166021D01*
X305890Y166064D01*
X305815Y166104D01*
X305739Y166140D01*
X305661Y166172D01*
X305581Y166201D01*
X305500Y166226D01*
X305418Y166247D01*
X305335Y166265D01*
X305251Y166278D01*
X305167Y166288D01*
X305083Y166294D01*
X304998Y166296D01*
X304913Y166294D01*
X304829Y166288D01*
X304745Y166278D01*
X304661Y166265D01*
X304578Y166247D01*
X304496Y166226D01*
X304415Y166201D01*
X304335Y166172D01*
X304257Y166140D01*
X304181Y166104D01*
X304106Y166064D01*
X304033Y166021D01*
X303962Y165975D01*
X303893Y165926D01*
X303826Y165873D01*
X303762Y165817D01*
X303701Y165759D01*
X303643Y165698D01*
X303587Y165634D01*
X303534Y165567D01*
X303485Y165498D01*
X303439Y165427D01*
X303396Y165354D01*
X303356Y165279D01*
X303320Y165203D01*
X303288Y165125D01*
X303259Y165045D01*
X303234Y164964D01*
X303213Y164882D01*
X303195Y164799D01*
X303182Y164715D01*
X303172Y164631D01*
X303166Y164547D01*
X303164Y164462D01*
X303163Y164462D02*
X303163Y162628D01*
X303163Y164829D02*
X300228Y166296D01*
X305364Y169864D02*
X306832Y171698D01*
X300228Y171698D01*
X300228Y169864D02*
X300228Y173533D01*
X300228Y177179D02*
X300228Y179014D01*
X300230Y179099D01*
X300236Y179183D01*
X300246Y179267D01*
X300259Y179351D01*
X300277Y179434D01*
X300298Y179516D01*
X300323Y179597D01*
X300352Y179677D01*
X300384Y179755D01*
X300420Y179831D01*
X300460Y179906D01*
X300503Y179979D01*
X300549Y180050D01*
X300598Y180119D01*
X300651Y180186D01*
X300707Y180250D01*
X300765Y180311D01*
X300826Y180369D01*
X300890Y180425D01*
X300957Y180478D01*
X301026Y180527D01*
X301097Y180573D01*
X301170Y180616D01*
X301245Y180656D01*
X301321Y180692D01*
X301399Y180724D01*
X301479Y180753D01*
X301560Y180778D01*
X301642Y180799D01*
X301725Y180817D01*
X301809Y180830D01*
X301893Y180840D01*
X301977Y180846D01*
X302062Y180848D01*
X302147Y180846D01*
X302231Y180840D01*
X302315Y180830D01*
X302399Y180817D01*
X302482Y180799D01*
X302564Y180778D01*
X302645Y180753D01*
X302725Y180724D01*
X302803Y180692D01*
X302879Y180656D01*
X302954Y180616D01*
X303027Y180573D01*
X303098Y180527D01*
X303167Y180478D01*
X303234Y180425D01*
X303298Y180369D01*
X303359Y180311D01*
X303417Y180250D01*
X303473Y180186D01*
X303526Y180119D01*
X303575Y180050D01*
X303621Y179979D01*
X303664Y179906D01*
X303704Y179831D01*
X303740Y179755D01*
X303772Y179677D01*
X303801Y179597D01*
X303826Y179516D01*
X303847Y179434D01*
X303865Y179351D01*
X303878Y179267D01*
X303888Y179183D01*
X303894Y179099D01*
X303896Y179014D01*
X306832Y179380D02*
X306832Y177179D01*
X306832Y179380D02*
X306830Y179456D01*
X306824Y179531D01*
X306815Y179606D01*
X306801Y179680D01*
X306784Y179754D01*
X306762Y179826D01*
X306738Y179898D01*
X306709Y179968D01*
X306677Y180036D01*
X306642Y180103D01*
X306603Y180168D01*
X306560Y180231D01*
X306515Y180291D01*
X306467Y180349D01*
X306415Y180405D01*
X306361Y180457D01*
X306304Y180507D01*
X306245Y180554D01*
X306184Y180598D01*
X306120Y180639D01*
X306054Y180676D01*
X305986Y180710D01*
X305917Y180740D01*
X305846Y180767D01*
X305774Y180790D01*
X305701Y180809D01*
X305627Y180824D01*
X305552Y180836D01*
X305477Y180844D01*
X305402Y180848D01*
X305326Y180848D01*
X305251Y180844D01*
X305176Y180836D01*
X305101Y180824D01*
X305027Y180809D01*
X304954Y180790D01*
X304882Y180767D01*
X304811Y180740D01*
X304742Y180710D01*
X304674Y180676D01*
X304608Y180639D01*
X304544Y180598D01*
X304483Y180554D01*
X304424Y180507D01*
X304367Y180457D01*
X304313Y180405D01*
X304261Y180349D01*
X304213Y180291D01*
X304168Y180231D01*
X304125Y180168D01*
X304086Y180103D01*
X304051Y180036D01*
X304019Y179968D01*
X303990Y179898D01*
X303966Y179826D01*
X303944Y179754D01*
X303927Y179680D01*
X303913Y179606D01*
X303904Y179531D01*
X303898Y179456D01*
X303896Y179380D01*
X303897Y179380D02*
X303897Y177913D01*
X245872Y163322D02*
X239268Y163322D01*
X245872Y163322D02*
X245872Y165156D01*
X245870Y165241D01*
X245864Y165325D01*
X245854Y165409D01*
X245841Y165493D01*
X245823Y165576D01*
X245802Y165658D01*
X245777Y165739D01*
X245748Y165819D01*
X245716Y165897D01*
X245680Y165973D01*
X245640Y166048D01*
X245597Y166121D01*
X245551Y166192D01*
X245502Y166261D01*
X245449Y166328D01*
X245393Y166392D01*
X245335Y166453D01*
X245274Y166511D01*
X245210Y166567D01*
X245143Y166620D01*
X245074Y166669D01*
X245003Y166715D01*
X244930Y166758D01*
X244855Y166798D01*
X244779Y166834D01*
X244701Y166866D01*
X244621Y166895D01*
X244540Y166920D01*
X244458Y166941D01*
X244375Y166959D01*
X244291Y166972D01*
X244207Y166982D01*
X244123Y166988D01*
X244038Y166990D01*
X243953Y166988D01*
X243869Y166982D01*
X243785Y166972D01*
X243701Y166959D01*
X243618Y166941D01*
X243536Y166920D01*
X243455Y166895D01*
X243375Y166866D01*
X243297Y166834D01*
X243221Y166798D01*
X243146Y166758D01*
X243073Y166715D01*
X243002Y166669D01*
X242933Y166620D01*
X242866Y166567D01*
X242802Y166511D01*
X242741Y166453D01*
X242683Y166392D01*
X242627Y166328D01*
X242574Y166261D01*
X242525Y166192D01*
X242479Y166121D01*
X242436Y166048D01*
X242396Y165973D01*
X242360Y165897D01*
X242328Y165819D01*
X242299Y165739D01*
X242274Y165658D01*
X242253Y165576D01*
X242235Y165493D01*
X242222Y165409D01*
X242212Y165325D01*
X242206Y165241D01*
X242204Y165156D01*
X242203Y165156D02*
X242203Y163322D01*
X242203Y165523D02*
X239268Y166991D01*
X244404Y170558D02*
X245872Y172393D01*
X239268Y172393D01*
X239268Y174227D02*
X239268Y170558D01*
X241102Y177874D02*
X241187Y177876D01*
X241271Y177882D01*
X241355Y177892D01*
X241439Y177905D01*
X241522Y177923D01*
X241604Y177944D01*
X241685Y177969D01*
X241765Y177998D01*
X241843Y178030D01*
X241919Y178066D01*
X241994Y178106D01*
X242067Y178149D01*
X242138Y178195D01*
X242207Y178244D01*
X242274Y178297D01*
X242338Y178353D01*
X242399Y178411D01*
X242457Y178472D01*
X242513Y178536D01*
X242566Y178603D01*
X242615Y178672D01*
X242661Y178743D01*
X242704Y178816D01*
X242744Y178891D01*
X242780Y178967D01*
X242812Y179045D01*
X242841Y179125D01*
X242866Y179206D01*
X242887Y179288D01*
X242905Y179371D01*
X242918Y179455D01*
X242928Y179539D01*
X242934Y179623D01*
X242936Y179708D01*
X242934Y179793D01*
X242928Y179877D01*
X242918Y179961D01*
X242905Y180045D01*
X242887Y180128D01*
X242866Y180210D01*
X242841Y180291D01*
X242812Y180371D01*
X242780Y180449D01*
X242744Y180525D01*
X242704Y180600D01*
X242661Y180673D01*
X242615Y180744D01*
X242566Y180813D01*
X242513Y180880D01*
X242457Y180944D01*
X242399Y181005D01*
X242338Y181063D01*
X242274Y181119D01*
X242207Y181172D01*
X242138Y181221D01*
X242067Y181267D01*
X241994Y181310D01*
X241919Y181350D01*
X241843Y181386D01*
X241765Y181418D01*
X241685Y181447D01*
X241604Y181472D01*
X241522Y181493D01*
X241439Y181511D01*
X241355Y181524D01*
X241271Y181534D01*
X241187Y181540D01*
X241102Y181542D01*
X241017Y181540D01*
X240933Y181534D01*
X240849Y181524D01*
X240765Y181511D01*
X240682Y181493D01*
X240600Y181472D01*
X240519Y181447D01*
X240439Y181418D01*
X240361Y181386D01*
X240285Y181350D01*
X240210Y181310D01*
X240137Y181267D01*
X240066Y181221D01*
X239997Y181172D01*
X239930Y181119D01*
X239866Y181063D01*
X239805Y181005D01*
X239747Y180944D01*
X239691Y180880D01*
X239638Y180813D01*
X239589Y180744D01*
X239543Y180673D01*
X239500Y180600D01*
X239460Y180525D01*
X239424Y180449D01*
X239392Y180371D01*
X239363Y180291D01*
X239338Y180210D01*
X239317Y180128D01*
X239299Y180045D01*
X239286Y179961D01*
X239276Y179877D01*
X239270Y179793D01*
X239268Y179708D01*
X239270Y179623D01*
X239276Y179539D01*
X239286Y179455D01*
X239299Y179371D01*
X239317Y179288D01*
X239338Y179206D01*
X239363Y179125D01*
X239392Y179045D01*
X239424Y178967D01*
X239460Y178891D01*
X239500Y178816D01*
X239543Y178743D01*
X239589Y178672D01*
X239638Y178603D01*
X239691Y178536D01*
X239747Y178472D01*
X239805Y178411D01*
X239866Y178353D01*
X239930Y178297D01*
X239997Y178244D01*
X240066Y178195D01*
X240137Y178149D01*
X240210Y178106D01*
X240285Y178066D01*
X240361Y178030D01*
X240439Y177998D01*
X240519Y177969D01*
X240600Y177944D01*
X240682Y177923D01*
X240765Y177905D01*
X240849Y177892D01*
X240933Y177882D01*
X241017Y177876D01*
X241102Y177874D01*
X244404Y178240D02*
X244480Y178242D01*
X244555Y178248D01*
X244630Y178257D01*
X244704Y178271D01*
X244778Y178288D01*
X244850Y178310D01*
X244922Y178334D01*
X244992Y178363D01*
X245060Y178395D01*
X245127Y178430D01*
X245192Y178469D01*
X245255Y178512D01*
X245315Y178557D01*
X245373Y178605D01*
X245429Y178657D01*
X245481Y178711D01*
X245531Y178768D01*
X245578Y178827D01*
X245622Y178888D01*
X245663Y178952D01*
X245700Y179018D01*
X245734Y179086D01*
X245764Y179155D01*
X245791Y179226D01*
X245814Y179298D01*
X245833Y179371D01*
X245848Y179445D01*
X245860Y179520D01*
X245868Y179595D01*
X245872Y179670D01*
X245872Y179746D01*
X245868Y179821D01*
X245860Y179896D01*
X245848Y179971D01*
X245833Y180045D01*
X245814Y180118D01*
X245791Y180190D01*
X245764Y180261D01*
X245734Y180330D01*
X245700Y180398D01*
X245663Y180464D01*
X245622Y180528D01*
X245578Y180589D01*
X245531Y180648D01*
X245481Y180705D01*
X245429Y180759D01*
X245373Y180811D01*
X245315Y180859D01*
X245255Y180904D01*
X245192Y180947D01*
X245127Y180986D01*
X245060Y181021D01*
X244992Y181053D01*
X244922Y181082D01*
X244850Y181106D01*
X244778Y181128D01*
X244704Y181145D01*
X244630Y181159D01*
X244555Y181168D01*
X244480Y181174D01*
X244404Y181176D01*
X244328Y181174D01*
X244253Y181168D01*
X244178Y181159D01*
X244104Y181145D01*
X244030Y181128D01*
X243958Y181106D01*
X243886Y181082D01*
X243816Y181053D01*
X243748Y181021D01*
X243681Y180986D01*
X243616Y180947D01*
X243553Y180904D01*
X243493Y180859D01*
X243435Y180811D01*
X243379Y180759D01*
X243327Y180705D01*
X243277Y180648D01*
X243230Y180589D01*
X243186Y180528D01*
X243145Y180464D01*
X243108Y180398D01*
X243074Y180330D01*
X243044Y180261D01*
X243017Y180190D01*
X242994Y180118D01*
X242975Y180045D01*
X242960Y179971D01*
X242948Y179896D01*
X242940Y179821D01*
X242936Y179746D01*
X242936Y179670D01*
X242940Y179595D01*
X242948Y179520D01*
X242960Y179445D01*
X242975Y179371D01*
X242994Y179298D01*
X243017Y179226D01*
X243044Y179155D01*
X243074Y179086D01*
X243108Y179018D01*
X243145Y178952D01*
X243186Y178888D01*
X243230Y178827D01*
X243277Y178768D01*
X243327Y178711D01*
X243379Y178657D01*
X243435Y178605D01*
X243493Y178557D01*
X243553Y178512D01*
X243616Y178469D01*
X243681Y178430D01*
X243748Y178395D01*
X243816Y178363D01*
X243886Y178334D01*
X243958Y178310D01*
X244030Y178288D01*
X244104Y178271D01*
X244178Y178257D01*
X244253Y178248D01*
X244328Y178242D01*
X244404Y178240D01*
X90407Y155702D02*
X90407Y149098D01*
X90407Y155702D02*
X88573Y155702D01*
X88488Y155700D01*
X88404Y155694D01*
X88320Y155684D01*
X88236Y155671D01*
X88153Y155653D01*
X88071Y155632D01*
X87990Y155607D01*
X87910Y155578D01*
X87832Y155546D01*
X87756Y155510D01*
X87681Y155470D01*
X87608Y155427D01*
X87537Y155381D01*
X87468Y155332D01*
X87401Y155279D01*
X87337Y155223D01*
X87276Y155165D01*
X87218Y155104D01*
X87162Y155040D01*
X87109Y154973D01*
X87060Y154904D01*
X87014Y154833D01*
X86971Y154760D01*
X86931Y154685D01*
X86895Y154609D01*
X86863Y154531D01*
X86834Y154451D01*
X86809Y154370D01*
X86788Y154288D01*
X86770Y154205D01*
X86757Y154121D01*
X86747Y154037D01*
X86741Y153953D01*
X86739Y153868D01*
X86741Y153783D01*
X86747Y153699D01*
X86757Y153615D01*
X86770Y153531D01*
X86788Y153448D01*
X86809Y153366D01*
X86834Y153285D01*
X86863Y153205D01*
X86895Y153127D01*
X86931Y153051D01*
X86971Y152976D01*
X87014Y152903D01*
X87060Y152832D01*
X87109Y152763D01*
X87162Y152696D01*
X87218Y152632D01*
X87276Y152571D01*
X87337Y152513D01*
X87401Y152457D01*
X87468Y152404D01*
X87537Y152355D01*
X87608Y152309D01*
X87681Y152266D01*
X87756Y152226D01*
X87832Y152190D01*
X87910Y152158D01*
X87990Y152129D01*
X88071Y152104D01*
X88153Y152083D01*
X88236Y152065D01*
X88320Y152052D01*
X88404Y152042D01*
X88488Y152036D01*
X88573Y152034D01*
X88573Y152033D02*
X90407Y152033D01*
X88206Y152033D02*
X86738Y149098D01*
X83171Y149098D02*
X80970Y149098D01*
X80896Y149100D01*
X80821Y149106D01*
X80748Y149115D01*
X80674Y149128D01*
X80602Y149145D01*
X80531Y149165D01*
X80460Y149189D01*
X80391Y149217D01*
X80324Y149248D01*
X80258Y149282D01*
X80193Y149320D01*
X80131Y149361D01*
X80071Y149405D01*
X80014Y149452D01*
X79959Y149502D01*
X79906Y149555D01*
X79856Y149610D01*
X79809Y149667D01*
X79765Y149727D01*
X79724Y149789D01*
X79686Y149854D01*
X79652Y149919D01*
X79621Y149987D01*
X79593Y150056D01*
X79569Y150127D01*
X79549Y150198D01*
X79532Y150270D01*
X79519Y150344D01*
X79510Y150417D01*
X79504Y150492D01*
X79502Y150566D01*
X79502Y151299D01*
X79504Y151373D01*
X79510Y151448D01*
X79519Y151521D01*
X79532Y151595D01*
X79549Y151667D01*
X79569Y151738D01*
X79593Y151809D01*
X79621Y151878D01*
X79652Y151945D01*
X79686Y152011D01*
X79724Y152076D01*
X79765Y152138D01*
X79809Y152198D01*
X79856Y152255D01*
X79906Y152310D01*
X79959Y152363D01*
X80014Y152413D01*
X80071Y152460D01*
X80131Y152504D01*
X80193Y152545D01*
X80258Y152583D01*
X80324Y152617D01*
X80391Y152648D01*
X80460Y152676D01*
X80531Y152700D01*
X80602Y152720D01*
X80674Y152737D01*
X80748Y152750D01*
X80821Y152759D01*
X80896Y152765D01*
X80970Y152767D01*
X83171Y152767D01*
X83171Y155702D01*
X79502Y155702D01*
X129777Y168148D02*
X129777Y174752D01*
X127943Y174752D01*
X127858Y174750D01*
X127774Y174744D01*
X127690Y174734D01*
X127606Y174721D01*
X127523Y174703D01*
X127441Y174682D01*
X127360Y174657D01*
X127280Y174628D01*
X127202Y174596D01*
X127126Y174560D01*
X127051Y174520D01*
X126978Y174477D01*
X126907Y174431D01*
X126838Y174382D01*
X126771Y174329D01*
X126707Y174273D01*
X126646Y174215D01*
X126588Y174154D01*
X126532Y174090D01*
X126479Y174023D01*
X126430Y173954D01*
X126384Y173883D01*
X126341Y173810D01*
X126301Y173735D01*
X126265Y173659D01*
X126233Y173581D01*
X126204Y173501D01*
X126179Y173420D01*
X126158Y173338D01*
X126140Y173255D01*
X126127Y173171D01*
X126117Y173087D01*
X126111Y173003D01*
X126109Y172918D01*
X126111Y172833D01*
X126117Y172749D01*
X126127Y172665D01*
X126140Y172581D01*
X126158Y172498D01*
X126179Y172416D01*
X126204Y172335D01*
X126233Y172255D01*
X126265Y172177D01*
X126301Y172101D01*
X126341Y172026D01*
X126384Y171953D01*
X126430Y171882D01*
X126479Y171813D01*
X126532Y171746D01*
X126588Y171682D01*
X126646Y171621D01*
X126707Y171563D01*
X126771Y171507D01*
X126838Y171454D01*
X126907Y171405D01*
X126978Y171359D01*
X127051Y171316D01*
X127126Y171276D01*
X127202Y171240D01*
X127280Y171208D01*
X127360Y171179D01*
X127441Y171154D01*
X127523Y171133D01*
X127606Y171115D01*
X127690Y171102D01*
X127774Y171092D01*
X127858Y171086D01*
X127943Y171084D01*
X127943Y171083D02*
X129777Y171083D01*
X127576Y171083D02*
X126108Y168148D01*
X120523Y174752D02*
X120444Y174750D01*
X120366Y174745D01*
X120288Y174735D01*
X120211Y174722D01*
X120134Y174705D01*
X120058Y174685D01*
X119983Y174661D01*
X119909Y174634D01*
X119837Y174603D01*
X119766Y174568D01*
X119698Y174531D01*
X119630Y174490D01*
X119565Y174446D01*
X119502Y174399D01*
X119442Y174349D01*
X119384Y174296D01*
X119328Y174240D01*
X119275Y174182D01*
X119225Y174122D01*
X119178Y174059D01*
X119134Y173994D01*
X119093Y173927D01*
X119056Y173858D01*
X119021Y173787D01*
X118990Y173715D01*
X118963Y173641D01*
X118939Y173566D01*
X118919Y173490D01*
X118902Y173413D01*
X118889Y173336D01*
X118879Y173258D01*
X118874Y173180D01*
X118872Y173101D01*
X120523Y174752D02*
X120612Y174750D01*
X120701Y174745D01*
X120789Y174735D01*
X120877Y174722D01*
X120964Y174706D01*
X121051Y174685D01*
X121136Y174661D01*
X121221Y174634D01*
X121304Y174603D01*
X121386Y174568D01*
X121467Y174530D01*
X121546Y174489D01*
X121622Y174445D01*
X121698Y174397D01*
X121771Y174346D01*
X121841Y174293D01*
X121910Y174236D01*
X121976Y174176D01*
X122039Y174114D01*
X122100Y174049D01*
X122158Y173982D01*
X122213Y173912D01*
X122266Y173840D01*
X122315Y173766D01*
X122361Y173690D01*
X122403Y173612D01*
X122443Y173532D01*
X122479Y173451D01*
X122512Y173368D01*
X122541Y173284D01*
X119422Y171817D02*
X119366Y171873D01*
X119312Y171932D01*
X119261Y171993D01*
X119212Y172057D01*
X119167Y172122D01*
X119124Y172190D01*
X119085Y172259D01*
X119048Y172330D01*
X119015Y172403D01*
X118986Y172477D01*
X118959Y172552D01*
X118936Y172628D01*
X118917Y172706D01*
X118901Y172784D01*
X118888Y172862D01*
X118879Y172942D01*
X118874Y173021D01*
X118872Y173101D01*
X119422Y171817D02*
X122541Y168148D01*
X118872Y168148D01*
X91677Y117602D02*
X91677Y110998D01*
X91677Y117602D02*
X89843Y117602D01*
X89758Y117600D01*
X89674Y117594D01*
X89590Y117584D01*
X89506Y117571D01*
X89423Y117553D01*
X89341Y117532D01*
X89260Y117507D01*
X89180Y117478D01*
X89102Y117446D01*
X89026Y117410D01*
X88951Y117370D01*
X88878Y117327D01*
X88807Y117281D01*
X88738Y117232D01*
X88671Y117179D01*
X88607Y117123D01*
X88546Y117065D01*
X88488Y117004D01*
X88432Y116940D01*
X88379Y116873D01*
X88330Y116804D01*
X88284Y116733D01*
X88241Y116660D01*
X88201Y116585D01*
X88165Y116509D01*
X88133Y116431D01*
X88104Y116351D01*
X88079Y116270D01*
X88058Y116188D01*
X88040Y116105D01*
X88027Y116021D01*
X88017Y115937D01*
X88011Y115853D01*
X88009Y115768D01*
X88011Y115683D01*
X88017Y115599D01*
X88027Y115515D01*
X88040Y115431D01*
X88058Y115348D01*
X88079Y115266D01*
X88104Y115185D01*
X88133Y115105D01*
X88165Y115027D01*
X88201Y114951D01*
X88241Y114876D01*
X88284Y114803D01*
X88330Y114732D01*
X88379Y114663D01*
X88432Y114596D01*
X88488Y114532D01*
X88546Y114471D01*
X88607Y114413D01*
X88671Y114357D01*
X88738Y114304D01*
X88807Y114255D01*
X88878Y114209D01*
X88951Y114166D01*
X89026Y114126D01*
X89102Y114090D01*
X89180Y114058D01*
X89260Y114029D01*
X89341Y114004D01*
X89423Y113983D01*
X89506Y113965D01*
X89590Y113952D01*
X89674Y113942D01*
X89758Y113936D01*
X89843Y113934D01*
X89843Y113933D02*
X91677Y113933D01*
X89476Y113933D02*
X88008Y110998D01*
X84441Y116868D02*
X84441Y117602D01*
X80772Y117602D01*
X82606Y110998D01*
X46228Y168148D02*
X46228Y174752D01*
X44394Y174752D01*
X44309Y174750D01*
X44225Y174744D01*
X44141Y174734D01*
X44057Y174721D01*
X43974Y174703D01*
X43892Y174682D01*
X43811Y174657D01*
X43731Y174628D01*
X43653Y174596D01*
X43577Y174560D01*
X43502Y174520D01*
X43429Y174477D01*
X43358Y174431D01*
X43289Y174382D01*
X43222Y174329D01*
X43158Y174273D01*
X43097Y174215D01*
X43039Y174154D01*
X42983Y174090D01*
X42930Y174023D01*
X42881Y173954D01*
X42835Y173883D01*
X42792Y173810D01*
X42752Y173735D01*
X42716Y173659D01*
X42684Y173581D01*
X42655Y173501D01*
X42630Y173420D01*
X42609Y173338D01*
X42591Y173255D01*
X42578Y173171D01*
X42568Y173087D01*
X42562Y173003D01*
X42560Y172918D01*
X42562Y172833D01*
X42568Y172749D01*
X42578Y172665D01*
X42591Y172581D01*
X42609Y172498D01*
X42630Y172416D01*
X42655Y172335D01*
X42684Y172255D01*
X42716Y172177D01*
X42752Y172101D01*
X42792Y172026D01*
X42835Y171953D01*
X42881Y171882D01*
X42930Y171813D01*
X42983Y171746D01*
X43039Y171682D01*
X43097Y171621D01*
X43158Y171563D01*
X43222Y171507D01*
X43289Y171454D01*
X43358Y171405D01*
X43429Y171359D01*
X43502Y171316D01*
X43577Y171276D01*
X43653Y171240D01*
X43731Y171208D01*
X43811Y171179D01*
X43892Y171154D01*
X43974Y171133D01*
X44057Y171115D01*
X44141Y171102D01*
X44225Y171092D01*
X44309Y171086D01*
X44394Y171084D01*
X44394Y171083D02*
X46228Y171083D01*
X44027Y171083D02*
X42559Y168148D01*
X38992Y168148D02*
X37157Y168148D01*
X37072Y168150D01*
X36988Y168156D01*
X36904Y168166D01*
X36820Y168179D01*
X36737Y168197D01*
X36655Y168218D01*
X36574Y168243D01*
X36494Y168272D01*
X36416Y168304D01*
X36340Y168340D01*
X36265Y168380D01*
X36192Y168423D01*
X36121Y168469D01*
X36052Y168518D01*
X35985Y168571D01*
X35921Y168627D01*
X35860Y168685D01*
X35802Y168746D01*
X35746Y168810D01*
X35693Y168877D01*
X35644Y168946D01*
X35598Y169017D01*
X35555Y169090D01*
X35515Y169165D01*
X35479Y169241D01*
X35447Y169319D01*
X35418Y169399D01*
X35393Y169480D01*
X35372Y169562D01*
X35354Y169645D01*
X35341Y169729D01*
X35331Y169813D01*
X35325Y169897D01*
X35323Y169982D01*
X35325Y170067D01*
X35331Y170151D01*
X35341Y170235D01*
X35354Y170319D01*
X35372Y170402D01*
X35393Y170484D01*
X35418Y170565D01*
X35447Y170645D01*
X35479Y170723D01*
X35515Y170799D01*
X35555Y170874D01*
X35598Y170947D01*
X35644Y171018D01*
X35693Y171087D01*
X35746Y171154D01*
X35802Y171218D01*
X35860Y171279D01*
X35921Y171337D01*
X35985Y171393D01*
X36052Y171446D01*
X36121Y171495D01*
X36192Y171541D01*
X36265Y171584D01*
X36340Y171624D01*
X36416Y171660D01*
X36494Y171692D01*
X36574Y171721D01*
X36655Y171746D01*
X36737Y171767D01*
X36820Y171785D01*
X36904Y171798D01*
X36988Y171808D01*
X37072Y171814D01*
X37157Y171816D01*
X36790Y174752D02*
X38992Y174752D01*
X36790Y174752D02*
X36714Y174750D01*
X36639Y174744D01*
X36564Y174735D01*
X36490Y174721D01*
X36416Y174704D01*
X36344Y174682D01*
X36272Y174658D01*
X36202Y174629D01*
X36134Y174597D01*
X36067Y174562D01*
X36002Y174523D01*
X35939Y174480D01*
X35879Y174435D01*
X35821Y174387D01*
X35765Y174335D01*
X35713Y174281D01*
X35663Y174224D01*
X35616Y174165D01*
X35572Y174104D01*
X35531Y174040D01*
X35494Y173974D01*
X35460Y173906D01*
X35430Y173837D01*
X35403Y173766D01*
X35380Y173694D01*
X35361Y173621D01*
X35346Y173547D01*
X35334Y173472D01*
X35326Y173397D01*
X35322Y173322D01*
X35322Y173246D01*
X35326Y173171D01*
X35334Y173096D01*
X35346Y173021D01*
X35361Y172947D01*
X35380Y172874D01*
X35403Y172802D01*
X35430Y172731D01*
X35460Y172662D01*
X35494Y172594D01*
X35531Y172528D01*
X35572Y172464D01*
X35616Y172403D01*
X35663Y172344D01*
X35713Y172287D01*
X35765Y172233D01*
X35821Y172181D01*
X35879Y172133D01*
X35939Y172088D01*
X36002Y172045D01*
X36067Y172006D01*
X36134Y171971D01*
X36202Y171939D01*
X36272Y171910D01*
X36344Y171886D01*
X36416Y171864D01*
X36490Y171847D01*
X36564Y171833D01*
X36639Y171824D01*
X36714Y171818D01*
X36790Y171816D01*
X36790Y171817D02*
X38258Y171817D01*
D12*
X122950Y78650D02*
X122950Y73900D01*
X118200Y73900D01*
X97450Y73900D02*
X92950Y73900D01*
X92950Y78400D01*
X92950Y99150D02*
X92950Y103900D01*
X97700Y103900D01*
X118200Y103900D02*
X122950Y103900D01*
X122950Y99150D01*
D13*
X95450Y76400D03*
D10*
X141530Y87432D02*
X141530Y92202D01*
X141529Y87432D02*
X141527Y87347D01*
X141521Y87263D01*
X141511Y87179D01*
X141498Y87095D01*
X141480Y87012D01*
X141459Y86930D01*
X141434Y86849D01*
X141405Y86769D01*
X141373Y86691D01*
X141337Y86615D01*
X141297Y86540D01*
X141254Y86467D01*
X141208Y86396D01*
X141159Y86327D01*
X141106Y86260D01*
X141050Y86196D01*
X140992Y86135D01*
X140931Y86077D01*
X140867Y86021D01*
X140800Y85968D01*
X140731Y85919D01*
X140660Y85873D01*
X140587Y85830D01*
X140512Y85790D01*
X140436Y85754D01*
X140358Y85722D01*
X140278Y85693D01*
X140197Y85668D01*
X140115Y85647D01*
X140032Y85629D01*
X139948Y85616D01*
X139864Y85606D01*
X139780Y85600D01*
X139695Y85598D01*
X139610Y85600D01*
X139526Y85606D01*
X139442Y85616D01*
X139358Y85629D01*
X139275Y85647D01*
X139193Y85668D01*
X139112Y85693D01*
X139032Y85722D01*
X138954Y85754D01*
X138878Y85790D01*
X138803Y85830D01*
X138730Y85873D01*
X138659Y85919D01*
X138590Y85968D01*
X138523Y86021D01*
X138459Y86077D01*
X138398Y86135D01*
X138340Y86196D01*
X138284Y86260D01*
X138231Y86327D01*
X138182Y86396D01*
X138136Y86467D01*
X138093Y86540D01*
X138053Y86615D01*
X138017Y86691D01*
X137985Y86769D01*
X137956Y86849D01*
X137931Y86930D01*
X137910Y87012D01*
X137892Y87095D01*
X137879Y87179D01*
X137869Y87263D01*
X137863Y87347D01*
X137861Y87432D01*
X137861Y92202D01*
X133971Y90734D02*
X132136Y92202D01*
X132136Y85598D01*
X130302Y85598D02*
X133971Y85598D01*
D11*
X335750Y107000D02*
X335750Y113000D01*
X362750Y141000D02*
X362750Y147000D01*
X362750Y113000D02*
X362750Y107000D01*
X335750Y119000D02*
X335750Y135000D01*
X362750Y135000D02*
X362750Y119000D01*
D14*
X333750Y149000D03*
D11*
X335750Y147000D02*
X335750Y141000D01*
X335750Y107000D02*
X336750Y107000D01*
X361750Y147000D02*
X362750Y147000D01*
D15*
X362750Y107000D02*
X361750Y107000D01*
X336750Y147000D02*
X335750Y147000D01*
D10*
X331978Y130302D02*
X331978Y125532D01*
X331976Y125447D01*
X331970Y125363D01*
X331960Y125279D01*
X331947Y125195D01*
X331929Y125112D01*
X331908Y125030D01*
X331883Y124949D01*
X331854Y124869D01*
X331822Y124791D01*
X331786Y124715D01*
X331746Y124640D01*
X331703Y124567D01*
X331657Y124496D01*
X331608Y124427D01*
X331555Y124360D01*
X331499Y124296D01*
X331441Y124235D01*
X331380Y124177D01*
X331316Y124121D01*
X331249Y124068D01*
X331180Y124019D01*
X331109Y123973D01*
X331036Y123930D01*
X330961Y123890D01*
X330885Y123854D01*
X330807Y123822D01*
X330727Y123793D01*
X330646Y123768D01*
X330564Y123747D01*
X330481Y123729D01*
X330397Y123716D01*
X330313Y123706D01*
X330229Y123700D01*
X330144Y123698D01*
X330059Y123700D01*
X329975Y123706D01*
X329891Y123716D01*
X329807Y123729D01*
X329724Y123747D01*
X329642Y123768D01*
X329561Y123793D01*
X329481Y123822D01*
X329403Y123854D01*
X329327Y123890D01*
X329252Y123930D01*
X329179Y123973D01*
X329108Y124019D01*
X329039Y124068D01*
X328972Y124121D01*
X328908Y124177D01*
X328847Y124235D01*
X328789Y124296D01*
X328733Y124360D01*
X328680Y124427D01*
X328631Y124496D01*
X328585Y124567D01*
X328542Y124640D01*
X328502Y124715D01*
X328466Y124791D01*
X328434Y124869D01*
X328405Y124949D01*
X328380Y125030D01*
X328359Y125112D01*
X328341Y125195D01*
X328328Y125279D01*
X328318Y125363D01*
X328312Y125447D01*
X328310Y125532D01*
X328309Y125532D02*
X328309Y130302D01*
X322401Y130302D02*
X322322Y130300D01*
X322244Y130295D01*
X322166Y130285D01*
X322089Y130272D01*
X322012Y130255D01*
X321936Y130235D01*
X321861Y130211D01*
X321787Y130184D01*
X321715Y130153D01*
X321644Y130118D01*
X321576Y130081D01*
X321508Y130040D01*
X321443Y129996D01*
X321380Y129949D01*
X321320Y129899D01*
X321262Y129846D01*
X321206Y129790D01*
X321153Y129732D01*
X321103Y129672D01*
X321056Y129609D01*
X321012Y129544D01*
X320971Y129477D01*
X320934Y129408D01*
X320899Y129337D01*
X320868Y129265D01*
X320841Y129191D01*
X320817Y129116D01*
X320797Y129040D01*
X320780Y128963D01*
X320767Y128886D01*
X320757Y128808D01*
X320752Y128730D01*
X320750Y128651D01*
X322401Y130302D02*
X322490Y130300D01*
X322579Y130295D01*
X322667Y130285D01*
X322755Y130272D01*
X322842Y130256D01*
X322929Y130235D01*
X323014Y130211D01*
X323099Y130184D01*
X323182Y130153D01*
X323264Y130118D01*
X323345Y130080D01*
X323424Y130039D01*
X323500Y129995D01*
X323576Y129947D01*
X323649Y129896D01*
X323719Y129843D01*
X323788Y129786D01*
X323854Y129726D01*
X323917Y129664D01*
X323978Y129599D01*
X324036Y129532D01*
X324091Y129462D01*
X324144Y129390D01*
X324193Y129316D01*
X324239Y129240D01*
X324281Y129162D01*
X324321Y129082D01*
X324357Y129001D01*
X324390Y128918D01*
X324419Y128834D01*
X321300Y127367D02*
X321244Y127423D01*
X321190Y127482D01*
X321139Y127543D01*
X321090Y127607D01*
X321045Y127672D01*
X321002Y127740D01*
X320963Y127809D01*
X320926Y127880D01*
X320893Y127953D01*
X320864Y128027D01*
X320837Y128102D01*
X320814Y128178D01*
X320795Y128256D01*
X320779Y128334D01*
X320766Y128412D01*
X320757Y128492D01*
X320752Y128571D01*
X320750Y128651D01*
X321300Y127367D02*
X324419Y123698D01*
X320750Y123698D01*
X357107Y199898D02*
X357107Y206502D01*
X355273Y206502D01*
X355188Y206500D01*
X355104Y206494D01*
X355020Y206484D01*
X354936Y206471D01*
X354853Y206453D01*
X354771Y206432D01*
X354690Y206407D01*
X354610Y206378D01*
X354532Y206346D01*
X354456Y206310D01*
X354381Y206270D01*
X354308Y206227D01*
X354237Y206181D01*
X354168Y206132D01*
X354101Y206079D01*
X354037Y206023D01*
X353976Y205965D01*
X353918Y205904D01*
X353862Y205840D01*
X353809Y205773D01*
X353760Y205704D01*
X353714Y205633D01*
X353671Y205560D01*
X353631Y205485D01*
X353595Y205409D01*
X353563Y205331D01*
X353534Y205251D01*
X353509Y205170D01*
X353488Y205088D01*
X353470Y205005D01*
X353457Y204921D01*
X353447Y204837D01*
X353441Y204753D01*
X353439Y204668D01*
X353441Y204583D01*
X353447Y204499D01*
X353457Y204415D01*
X353470Y204331D01*
X353488Y204248D01*
X353509Y204166D01*
X353534Y204085D01*
X353563Y204005D01*
X353595Y203927D01*
X353631Y203851D01*
X353671Y203776D01*
X353714Y203703D01*
X353760Y203632D01*
X353809Y203563D01*
X353862Y203496D01*
X353918Y203432D01*
X353976Y203371D01*
X354037Y203313D01*
X354101Y203257D01*
X354168Y203204D01*
X354237Y203155D01*
X354308Y203109D01*
X354381Y203066D01*
X354456Y203026D01*
X354532Y202990D01*
X354610Y202958D01*
X354690Y202929D01*
X354771Y202904D01*
X354853Y202883D01*
X354936Y202865D01*
X355020Y202852D01*
X355104Y202842D01*
X355188Y202836D01*
X355273Y202834D01*
X355273Y202833D02*
X357107Y202833D01*
X354906Y202833D02*
X353438Y199898D01*
X349870Y201732D02*
X349868Y201817D01*
X349862Y201901D01*
X349852Y201985D01*
X349839Y202069D01*
X349821Y202152D01*
X349800Y202234D01*
X349775Y202315D01*
X349746Y202395D01*
X349714Y202473D01*
X349678Y202549D01*
X349638Y202624D01*
X349595Y202697D01*
X349549Y202768D01*
X349500Y202837D01*
X349447Y202904D01*
X349391Y202968D01*
X349333Y203029D01*
X349272Y203087D01*
X349208Y203143D01*
X349141Y203196D01*
X349072Y203245D01*
X349001Y203291D01*
X348928Y203334D01*
X348853Y203374D01*
X348777Y203410D01*
X348699Y203442D01*
X348619Y203471D01*
X348538Y203496D01*
X348456Y203517D01*
X348373Y203535D01*
X348289Y203548D01*
X348205Y203558D01*
X348121Y203564D01*
X348036Y203566D01*
X347951Y203564D01*
X347867Y203558D01*
X347783Y203548D01*
X347699Y203535D01*
X347616Y203517D01*
X347534Y203496D01*
X347453Y203471D01*
X347373Y203442D01*
X347295Y203410D01*
X347219Y203374D01*
X347144Y203334D01*
X347071Y203291D01*
X347000Y203245D01*
X346931Y203196D01*
X346864Y203143D01*
X346800Y203087D01*
X346739Y203029D01*
X346681Y202968D01*
X346625Y202904D01*
X346572Y202837D01*
X346523Y202768D01*
X346477Y202697D01*
X346434Y202624D01*
X346394Y202549D01*
X346358Y202473D01*
X346326Y202395D01*
X346297Y202315D01*
X346272Y202234D01*
X346251Y202152D01*
X346233Y202069D01*
X346220Y201985D01*
X346210Y201901D01*
X346204Y201817D01*
X346202Y201732D01*
X346204Y201647D01*
X346210Y201563D01*
X346220Y201479D01*
X346233Y201395D01*
X346251Y201312D01*
X346272Y201230D01*
X346297Y201149D01*
X346326Y201069D01*
X346358Y200991D01*
X346394Y200915D01*
X346434Y200840D01*
X346477Y200767D01*
X346523Y200696D01*
X346572Y200627D01*
X346625Y200560D01*
X346681Y200496D01*
X346739Y200435D01*
X346800Y200377D01*
X346864Y200321D01*
X346931Y200268D01*
X347000Y200219D01*
X347071Y200173D01*
X347144Y200130D01*
X347219Y200090D01*
X347295Y200054D01*
X347373Y200022D01*
X347453Y199993D01*
X347534Y199968D01*
X347616Y199947D01*
X347699Y199929D01*
X347783Y199916D01*
X347867Y199906D01*
X347951Y199900D01*
X348036Y199898D01*
X348121Y199900D01*
X348205Y199906D01*
X348289Y199916D01*
X348373Y199929D01*
X348456Y199947D01*
X348538Y199968D01*
X348619Y199993D01*
X348699Y200022D01*
X348777Y200054D01*
X348853Y200090D01*
X348928Y200130D01*
X349001Y200173D01*
X349072Y200219D01*
X349141Y200268D01*
X349208Y200321D01*
X349272Y200377D01*
X349333Y200435D01*
X349391Y200496D01*
X349447Y200560D01*
X349500Y200627D01*
X349549Y200696D01*
X349595Y200767D01*
X349638Y200840D01*
X349678Y200915D01*
X349714Y200991D01*
X349746Y201069D01*
X349775Y201149D01*
X349800Y201230D01*
X349821Y201312D01*
X349839Y201395D01*
X349852Y201479D01*
X349862Y201563D01*
X349868Y201647D01*
X349870Y201732D01*
X349504Y205034D02*
X349502Y205110D01*
X349496Y205185D01*
X349487Y205260D01*
X349473Y205334D01*
X349456Y205408D01*
X349434Y205480D01*
X349410Y205552D01*
X349381Y205622D01*
X349349Y205690D01*
X349314Y205757D01*
X349275Y205822D01*
X349232Y205885D01*
X349187Y205945D01*
X349139Y206003D01*
X349087Y206059D01*
X349033Y206111D01*
X348976Y206161D01*
X348917Y206208D01*
X348856Y206252D01*
X348792Y206293D01*
X348726Y206330D01*
X348658Y206364D01*
X348589Y206394D01*
X348518Y206421D01*
X348446Y206444D01*
X348373Y206463D01*
X348299Y206478D01*
X348224Y206490D01*
X348149Y206498D01*
X348074Y206502D01*
X347998Y206502D01*
X347923Y206498D01*
X347848Y206490D01*
X347773Y206478D01*
X347699Y206463D01*
X347626Y206444D01*
X347554Y206421D01*
X347483Y206394D01*
X347414Y206364D01*
X347346Y206330D01*
X347280Y206293D01*
X347216Y206252D01*
X347155Y206208D01*
X347096Y206161D01*
X347039Y206111D01*
X346985Y206059D01*
X346933Y206003D01*
X346885Y205945D01*
X346840Y205885D01*
X346797Y205822D01*
X346758Y205757D01*
X346723Y205690D01*
X346691Y205622D01*
X346662Y205552D01*
X346638Y205480D01*
X346616Y205408D01*
X346599Y205334D01*
X346585Y205260D01*
X346576Y205185D01*
X346570Y205110D01*
X346568Y205034D01*
X346570Y204958D01*
X346576Y204883D01*
X346585Y204808D01*
X346599Y204734D01*
X346616Y204660D01*
X346638Y204588D01*
X346662Y204516D01*
X346691Y204446D01*
X346723Y204378D01*
X346758Y204311D01*
X346797Y204246D01*
X346840Y204183D01*
X346885Y204123D01*
X346933Y204065D01*
X346985Y204009D01*
X347039Y203957D01*
X347096Y203907D01*
X347155Y203860D01*
X347216Y203816D01*
X347280Y203775D01*
X347346Y203738D01*
X347414Y203704D01*
X347483Y203674D01*
X347554Y203647D01*
X347626Y203624D01*
X347699Y203605D01*
X347773Y203590D01*
X347848Y203578D01*
X347923Y203570D01*
X347998Y203566D01*
X348074Y203566D01*
X348149Y203570D01*
X348224Y203578D01*
X348299Y203590D01*
X348373Y203605D01*
X348446Y203624D01*
X348518Y203647D01*
X348589Y203674D01*
X348658Y203704D01*
X348726Y203738D01*
X348792Y203775D01*
X348856Y203816D01*
X348917Y203860D01*
X348976Y203907D01*
X349033Y203957D01*
X349087Y204009D01*
X349139Y204065D01*
X349187Y204123D01*
X349232Y204183D01*
X349275Y204246D01*
X349314Y204311D01*
X349349Y204378D01*
X349381Y204446D01*
X349410Y204516D01*
X349434Y204588D01*
X349456Y204660D01*
X349473Y204734D01*
X349487Y204808D01*
X349496Y204883D01*
X349502Y204958D01*
X349504Y205034D01*
X357107Y187452D02*
X357107Y180848D01*
X357107Y187452D02*
X355273Y187452D01*
X355188Y187450D01*
X355104Y187444D01*
X355020Y187434D01*
X354936Y187421D01*
X354853Y187403D01*
X354771Y187382D01*
X354690Y187357D01*
X354610Y187328D01*
X354532Y187296D01*
X354456Y187260D01*
X354381Y187220D01*
X354308Y187177D01*
X354237Y187131D01*
X354168Y187082D01*
X354101Y187029D01*
X354037Y186973D01*
X353976Y186915D01*
X353918Y186854D01*
X353862Y186790D01*
X353809Y186723D01*
X353760Y186654D01*
X353714Y186583D01*
X353671Y186510D01*
X353631Y186435D01*
X353595Y186359D01*
X353563Y186281D01*
X353534Y186201D01*
X353509Y186120D01*
X353488Y186038D01*
X353470Y185955D01*
X353457Y185871D01*
X353447Y185787D01*
X353441Y185703D01*
X353439Y185618D01*
X353441Y185533D01*
X353447Y185449D01*
X353457Y185365D01*
X353470Y185281D01*
X353488Y185198D01*
X353509Y185116D01*
X353534Y185035D01*
X353563Y184955D01*
X353595Y184877D01*
X353631Y184801D01*
X353671Y184726D01*
X353714Y184653D01*
X353760Y184582D01*
X353809Y184513D01*
X353862Y184446D01*
X353918Y184382D01*
X353976Y184321D01*
X354037Y184263D01*
X354101Y184207D01*
X354168Y184154D01*
X354237Y184105D01*
X354308Y184059D01*
X354381Y184016D01*
X354456Y183976D01*
X354532Y183940D01*
X354610Y183908D01*
X354690Y183879D01*
X354771Y183854D01*
X354853Y183833D01*
X354936Y183815D01*
X355020Y183802D01*
X355104Y183792D01*
X355188Y183786D01*
X355273Y183784D01*
X355273Y183783D02*
X357107Y183783D01*
X354906Y183783D02*
X353438Y180848D01*
X348403Y183783D02*
X346202Y183783D01*
X348403Y183783D02*
X348477Y183785D01*
X348552Y183791D01*
X348625Y183800D01*
X348699Y183813D01*
X348771Y183830D01*
X348842Y183850D01*
X348913Y183874D01*
X348982Y183902D01*
X349050Y183933D01*
X349115Y183967D01*
X349180Y184005D01*
X349242Y184046D01*
X349302Y184090D01*
X349359Y184137D01*
X349414Y184187D01*
X349467Y184240D01*
X349517Y184295D01*
X349564Y184352D01*
X349608Y184412D01*
X349649Y184474D01*
X349687Y184539D01*
X349721Y184605D01*
X349752Y184672D01*
X349780Y184741D01*
X349804Y184812D01*
X349824Y184883D01*
X349841Y184956D01*
X349854Y185029D01*
X349863Y185103D01*
X349869Y185177D01*
X349871Y185251D01*
X349871Y185618D01*
X349870Y185618D02*
X349868Y185703D01*
X349862Y185787D01*
X349852Y185871D01*
X349839Y185955D01*
X349821Y186038D01*
X349800Y186120D01*
X349775Y186201D01*
X349746Y186281D01*
X349714Y186359D01*
X349678Y186435D01*
X349638Y186510D01*
X349595Y186583D01*
X349549Y186654D01*
X349500Y186723D01*
X349447Y186790D01*
X349391Y186854D01*
X349333Y186915D01*
X349272Y186973D01*
X349208Y187029D01*
X349141Y187082D01*
X349072Y187131D01*
X349001Y187177D01*
X348928Y187220D01*
X348853Y187260D01*
X348777Y187296D01*
X348699Y187328D01*
X348619Y187357D01*
X348538Y187382D01*
X348456Y187403D01*
X348373Y187421D01*
X348289Y187434D01*
X348205Y187444D01*
X348121Y187450D01*
X348036Y187452D01*
X347951Y187450D01*
X347867Y187444D01*
X347783Y187434D01*
X347699Y187421D01*
X347616Y187403D01*
X347534Y187382D01*
X347453Y187357D01*
X347373Y187328D01*
X347295Y187296D01*
X347219Y187260D01*
X347144Y187220D01*
X347071Y187177D01*
X347000Y187131D01*
X346931Y187082D01*
X346864Y187029D01*
X346800Y186973D01*
X346739Y186915D01*
X346681Y186854D01*
X346625Y186790D01*
X346572Y186723D01*
X346523Y186654D01*
X346477Y186583D01*
X346434Y186510D01*
X346394Y186435D01*
X346358Y186359D01*
X346326Y186281D01*
X346297Y186201D01*
X346272Y186120D01*
X346251Y186038D01*
X346233Y185955D01*
X346220Y185871D01*
X346210Y185787D01*
X346204Y185703D01*
X346202Y185618D01*
X346202Y183783D01*
X346204Y183676D01*
X346210Y183569D01*
X346220Y183462D01*
X346233Y183356D01*
X346251Y183250D01*
X346272Y183145D01*
X346297Y183041D01*
X346326Y182937D01*
X346359Y182835D01*
X346396Y182735D01*
X346436Y182635D01*
X346480Y182537D01*
X346527Y182441D01*
X346578Y182347D01*
X346632Y182254D01*
X346689Y182164D01*
X346750Y182075D01*
X346814Y181989D01*
X346881Y181906D01*
X346951Y181824D01*
X347024Y181746D01*
X347100Y181670D01*
X347178Y181597D01*
X347260Y181527D01*
X347343Y181460D01*
X347429Y181396D01*
X347518Y181335D01*
X347608Y181278D01*
X347701Y181224D01*
X347795Y181173D01*
X347891Y181126D01*
X347989Y181082D01*
X348089Y181042D01*
X348189Y181005D01*
X348291Y180972D01*
X348395Y180943D01*
X348499Y180918D01*
X348604Y180897D01*
X348710Y180879D01*
X348816Y180866D01*
X348923Y180856D01*
X349030Y180850D01*
X349137Y180848D01*
M02*
