G04 EAGLE Gerber RS-274X export*
G75*
%MOMM*%
%FSLAX34Y34*%
%LPD*%
%INEAGLE Copper Layer 15*%
%IPPOS*%
%AMOC8*
5,1,8,0,0,1.08239X$1,22.5*%
G01*
%ADD10C,1.981200*%
%ADD11C,1.524000*%
%ADD12C,3.816000*%
%ADD13C,0.508000*%
%ADD14C,0.900000*%
%ADD15C,0.152400*%
%ADD16C,0.604000*%

G36*
X95790Y3822D02*
X95790Y3822D01*
X95861Y3824D01*
X95910Y3842D01*
X95962Y3850D01*
X96025Y3884D01*
X96092Y3909D01*
X96133Y3941D01*
X96179Y3966D01*
X96228Y4018D01*
X96284Y4062D01*
X96313Y4106D01*
X96348Y4144D01*
X96379Y4209D01*
X96417Y4269D01*
X96430Y4320D01*
X96452Y4367D01*
X96460Y4438D01*
X96477Y4508D01*
X96473Y4560D01*
X96479Y4611D01*
X96464Y4682D01*
X96458Y4753D01*
X96438Y4801D01*
X96427Y4852D01*
X96390Y4913D01*
X96362Y4979D01*
X96317Y5035D01*
X96301Y5063D01*
X96283Y5078D01*
X96257Y5110D01*
X93847Y7520D01*
X92455Y10881D01*
X92455Y14519D01*
X93847Y17880D01*
X96420Y20453D01*
X99781Y21845D01*
X103419Y21845D01*
X106780Y20453D01*
X109353Y17880D01*
X110745Y14519D01*
X110745Y10881D01*
X109353Y7520D01*
X106943Y5110D01*
X106901Y5052D01*
X106852Y5000D01*
X106830Y4953D01*
X106799Y4911D01*
X106778Y4842D01*
X106748Y4777D01*
X106742Y4725D01*
X106727Y4675D01*
X106729Y4604D01*
X106721Y4533D01*
X106732Y4482D01*
X106733Y4430D01*
X106758Y4362D01*
X106773Y4292D01*
X106800Y4247D01*
X106818Y4199D01*
X106863Y4143D01*
X106899Y4081D01*
X106939Y4047D01*
X106971Y4007D01*
X107032Y3968D01*
X107086Y3921D01*
X107135Y3902D01*
X107178Y3874D01*
X107248Y3856D01*
X107314Y3829D01*
X107386Y3821D01*
X107417Y3813D01*
X107440Y3815D01*
X107481Y3811D01*
X121119Y3811D01*
X121190Y3822D01*
X121261Y3824D01*
X121310Y3842D01*
X121362Y3850D01*
X121425Y3884D01*
X121492Y3909D01*
X121533Y3941D01*
X121579Y3966D01*
X121628Y4018D01*
X121684Y4062D01*
X121713Y4106D01*
X121748Y4144D01*
X121779Y4209D01*
X121817Y4269D01*
X121830Y4320D01*
X121852Y4367D01*
X121860Y4438D01*
X121877Y4508D01*
X121873Y4560D01*
X121879Y4611D01*
X121864Y4682D01*
X121858Y4753D01*
X121838Y4801D01*
X121827Y4852D01*
X121790Y4913D01*
X121762Y4979D01*
X121717Y5035D01*
X121701Y5063D01*
X121683Y5078D01*
X121657Y5110D01*
X119247Y7520D01*
X117855Y10881D01*
X117855Y14519D01*
X119247Y17880D01*
X121820Y20453D01*
X125181Y21845D01*
X128819Y21845D01*
X132180Y20453D01*
X134753Y17880D01*
X136145Y14519D01*
X136145Y10881D01*
X134753Y7520D01*
X132343Y5110D01*
X132301Y5052D01*
X132252Y5000D01*
X132230Y4953D01*
X132199Y4911D01*
X132178Y4842D01*
X132148Y4777D01*
X132142Y4725D01*
X132127Y4675D01*
X132129Y4604D01*
X132121Y4533D01*
X132132Y4482D01*
X132133Y4430D01*
X132158Y4362D01*
X132173Y4292D01*
X132200Y4247D01*
X132218Y4199D01*
X132263Y4143D01*
X132299Y4081D01*
X132339Y4047D01*
X132371Y4007D01*
X132432Y3968D01*
X132486Y3921D01*
X132535Y3902D01*
X132578Y3874D01*
X132648Y3856D01*
X132714Y3829D01*
X132786Y3821D01*
X132817Y3813D01*
X132840Y3815D01*
X132881Y3811D01*
X146519Y3811D01*
X146590Y3822D01*
X146661Y3824D01*
X146710Y3842D01*
X146762Y3850D01*
X146825Y3884D01*
X146892Y3909D01*
X146933Y3941D01*
X146979Y3966D01*
X147028Y4018D01*
X147084Y4062D01*
X147113Y4106D01*
X147148Y4144D01*
X147179Y4209D01*
X147217Y4269D01*
X147230Y4320D01*
X147252Y4367D01*
X147260Y4438D01*
X147277Y4508D01*
X147273Y4560D01*
X147279Y4611D01*
X147264Y4682D01*
X147258Y4753D01*
X147238Y4801D01*
X147227Y4852D01*
X147190Y4913D01*
X147162Y4979D01*
X147117Y5035D01*
X147101Y5063D01*
X147083Y5078D01*
X147057Y5110D01*
X144647Y7520D01*
X143255Y10881D01*
X143255Y14519D01*
X144647Y17880D01*
X147220Y20453D01*
X149643Y21456D01*
X149743Y21518D01*
X149843Y21578D01*
X149847Y21583D01*
X149852Y21586D01*
X149927Y21676D01*
X150003Y21765D01*
X150005Y21771D01*
X150009Y21775D01*
X150051Y21884D01*
X150095Y21993D01*
X150096Y22000D01*
X150097Y22005D01*
X150098Y22023D01*
X150113Y22160D01*
X150113Y58423D01*
X150099Y58514D01*
X150091Y58604D01*
X150079Y58634D01*
X150074Y58666D01*
X150031Y58747D01*
X149995Y58831D01*
X149969Y58863D01*
X149958Y58884D01*
X149935Y58906D01*
X149890Y58962D01*
X136940Y71912D01*
X136866Y71965D01*
X136796Y72025D01*
X136766Y72037D01*
X136740Y72056D01*
X136653Y72083D01*
X136568Y72117D01*
X136527Y72121D01*
X136505Y72128D01*
X136473Y72127D01*
X136401Y72135D01*
X134202Y72135D01*
X131821Y74516D01*
X131821Y77884D01*
X134202Y80265D01*
X137570Y80265D01*
X139951Y77884D01*
X139951Y75685D01*
X139965Y75594D01*
X139973Y75504D01*
X139985Y75474D01*
X139990Y75442D01*
X140033Y75361D01*
X140069Y75277D01*
X140095Y75245D01*
X140106Y75224D01*
X140129Y75202D01*
X140174Y75146D01*
X154687Y60633D01*
X154687Y22160D01*
X154706Y22045D01*
X154723Y21929D01*
X154725Y21923D01*
X154726Y21917D01*
X154781Y21814D01*
X154834Y21709D01*
X154839Y21705D01*
X154842Y21700D01*
X154926Y21620D01*
X155010Y21537D01*
X155016Y21534D01*
X155020Y21530D01*
X155037Y21522D01*
X155157Y21456D01*
X157580Y20453D01*
X160153Y17880D01*
X161545Y14519D01*
X161545Y10881D01*
X160153Y7520D01*
X157743Y5110D01*
X157701Y5052D01*
X157652Y5000D01*
X157630Y4953D01*
X157599Y4911D01*
X157578Y4842D01*
X157548Y4777D01*
X157542Y4725D01*
X157527Y4675D01*
X157529Y4604D01*
X157521Y4533D01*
X157532Y4482D01*
X157533Y4430D01*
X157558Y4362D01*
X157573Y4292D01*
X157600Y4247D01*
X157618Y4199D01*
X157663Y4143D01*
X157699Y4081D01*
X157739Y4047D01*
X157771Y4007D01*
X157832Y3968D01*
X157886Y3921D01*
X157935Y3902D01*
X157978Y3874D01*
X158048Y3856D01*
X158114Y3829D01*
X158186Y3821D01*
X158217Y3813D01*
X158240Y3815D01*
X158281Y3811D01*
X171919Y3811D01*
X171990Y3822D01*
X172061Y3824D01*
X172110Y3842D01*
X172162Y3850D01*
X172225Y3884D01*
X172292Y3909D01*
X172333Y3941D01*
X172379Y3966D01*
X172428Y4018D01*
X172484Y4062D01*
X172513Y4106D01*
X172548Y4144D01*
X172579Y4209D01*
X172617Y4269D01*
X172630Y4320D01*
X172652Y4367D01*
X172660Y4438D01*
X172677Y4508D01*
X172673Y4560D01*
X172679Y4611D01*
X172664Y4682D01*
X172658Y4753D01*
X172638Y4801D01*
X172627Y4852D01*
X172590Y4913D01*
X172562Y4979D01*
X172517Y5035D01*
X172501Y5063D01*
X172483Y5078D01*
X172457Y5110D01*
X170047Y7520D01*
X168655Y10881D01*
X168655Y14519D01*
X170047Y17880D01*
X172620Y20453D01*
X175981Y21845D01*
X179619Y21845D01*
X182980Y20453D01*
X185553Y17880D01*
X186945Y14519D01*
X186945Y10881D01*
X185553Y7520D01*
X183143Y5110D01*
X183101Y5052D01*
X183052Y5000D01*
X183030Y4953D01*
X182999Y4911D01*
X182978Y4842D01*
X182948Y4777D01*
X182942Y4725D01*
X182927Y4675D01*
X182929Y4604D01*
X182921Y4533D01*
X182932Y4482D01*
X182933Y4430D01*
X182958Y4362D01*
X182973Y4292D01*
X183000Y4247D01*
X183018Y4199D01*
X183063Y4143D01*
X183099Y4081D01*
X183139Y4047D01*
X183171Y4007D01*
X183232Y3968D01*
X183286Y3921D01*
X183335Y3902D01*
X183378Y3874D01*
X183448Y3856D01*
X183514Y3829D01*
X183586Y3821D01*
X183617Y3813D01*
X183640Y3815D01*
X183681Y3811D01*
X197319Y3811D01*
X197390Y3822D01*
X197461Y3824D01*
X197510Y3842D01*
X197562Y3850D01*
X197625Y3884D01*
X197692Y3909D01*
X197733Y3941D01*
X197779Y3966D01*
X197828Y4018D01*
X197884Y4062D01*
X197913Y4106D01*
X197948Y4144D01*
X197979Y4209D01*
X198017Y4269D01*
X198030Y4320D01*
X198052Y4367D01*
X198060Y4438D01*
X198077Y4508D01*
X198073Y4560D01*
X198079Y4611D01*
X198064Y4682D01*
X198058Y4753D01*
X198038Y4801D01*
X198027Y4852D01*
X197990Y4913D01*
X197962Y4979D01*
X197917Y5035D01*
X197901Y5063D01*
X197883Y5078D01*
X197857Y5110D01*
X195447Y7520D01*
X194055Y10881D01*
X194055Y14519D01*
X195447Y17880D01*
X198020Y20453D01*
X201381Y21845D01*
X205019Y21845D01*
X208380Y20453D01*
X210953Y17880D01*
X212345Y14519D01*
X212345Y10881D01*
X210953Y7520D01*
X208543Y5110D01*
X208501Y5052D01*
X208452Y5000D01*
X208430Y4953D01*
X208399Y4911D01*
X208378Y4842D01*
X208348Y4777D01*
X208342Y4725D01*
X208327Y4675D01*
X208329Y4604D01*
X208321Y4533D01*
X208332Y4482D01*
X208333Y4430D01*
X208358Y4362D01*
X208373Y4292D01*
X208400Y4247D01*
X208418Y4199D01*
X208463Y4143D01*
X208499Y4081D01*
X208539Y4047D01*
X208571Y4007D01*
X208632Y3968D01*
X208686Y3921D01*
X208735Y3902D01*
X208778Y3874D01*
X208848Y3856D01*
X208914Y3829D01*
X208986Y3821D01*
X209017Y3813D01*
X209040Y3815D01*
X209081Y3811D01*
X222719Y3811D01*
X222790Y3822D01*
X222861Y3824D01*
X222910Y3842D01*
X222962Y3850D01*
X223025Y3884D01*
X223092Y3909D01*
X223133Y3941D01*
X223179Y3966D01*
X223228Y4018D01*
X223284Y4062D01*
X223313Y4106D01*
X223348Y4144D01*
X223379Y4209D01*
X223417Y4269D01*
X223430Y4320D01*
X223452Y4367D01*
X223460Y4438D01*
X223477Y4508D01*
X223473Y4560D01*
X223479Y4611D01*
X223464Y4682D01*
X223458Y4753D01*
X223438Y4801D01*
X223427Y4852D01*
X223390Y4913D01*
X223362Y4979D01*
X223317Y5035D01*
X223301Y5063D01*
X223283Y5078D01*
X223257Y5110D01*
X220847Y7520D01*
X219455Y10881D01*
X219455Y14519D01*
X220847Y17880D01*
X223420Y20453D01*
X226781Y21845D01*
X230419Y21845D01*
X233780Y20453D01*
X236353Y17880D01*
X237745Y14519D01*
X237745Y10881D01*
X236353Y7520D01*
X233943Y5110D01*
X233901Y5052D01*
X233852Y5000D01*
X233830Y4953D01*
X233799Y4911D01*
X233778Y4842D01*
X233748Y4777D01*
X233742Y4725D01*
X233727Y4675D01*
X233729Y4604D01*
X233721Y4533D01*
X233732Y4482D01*
X233733Y4430D01*
X233758Y4362D01*
X233773Y4292D01*
X233800Y4247D01*
X233818Y4199D01*
X233863Y4143D01*
X233899Y4081D01*
X233939Y4047D01*
X233971Y4007D01*
X234032Y3968D01*
X234086Y3921D01*
X234135Y3902D01*
X234178Y3874D01*
X234248Y3856D01*
X234314Y3829D01*
X234386Y3821D01*
X234417Y3813D01*
X234440Y3815D01*
X234481Y3811D01*
X248119Y3811D01*
X248190Y3822D01*
X248261Y3824D01*
X248310Y3842D01*
X248362Y3850D01*
X248425Y3884D01*
X248492Y3909D01*
X248533Y3941D01*
X248579Y3966D01*
X248628Y4018D01*
X248684Y4062D01*
X248713Y4106D01*
X248748Y4144D01*
X248779Y4209D01*
X248817Y4269D01*
X248830Y4320D01*
X248852Y4367D01*
X248860Y4438D01*
X248877Y4508D01*
X248873Y4560D01*
X248879Y4611D01*
X248864Y4682D01*
X248858Y4753D01*
X248838Y4801D01*
X248827Y4852D01*
X248790Y4913D01*
X248762Y4979D01*
X248717Y5035D01*
X248701Y5063D01*
X248683Y5078D01*
X248657Y5110D01*
X246247Y7520D01*
X244855Y10881D01*
X244855Y14519D01*
X246247Y17880D01*
X248820Y20453D01*
X252181Y21845D01*
X255819Y21845D01*
X259180Y20453D01*
X261753Y17880D01*
X263145Y14519D01*
X263145Y10881D01*
X261753Y7520D01*
X259343Y5110D01*
X259301Y5052D01*
X259252Y5000D01*
X259230Y4953D01*
X259199Y4911D01*
X259178Y4842D01*
X259148Y4777D01*
X259142Y4725D01*
X259127Y4675D01*
X259129Y4604D01*
X259121Y4533D01*
X259132Y4482D01*
X259133Y4430D01*
X259158Y4362D01*
X259173Y4292D01*
X259200Y4247D01*
X259218Y4199D01*
X259263Y4143D01*
X259299Y4081D01*
X259339Y4047D01*
X259371Y4007D01*
X259432Y3968D01*
X259486Y3921D01*
X259535Y3902D01*
X259578Y3874D01*
X259648Y3856D01*
X259714Y3829D01*
X259786Y3821D01*
X259817Y3813D01*
X259840Y3815D01*
X259881Y3811D01*
X273519Y3811D01*
X273590Y3822D01*
X273661Y3824D01*
X273710Y3842D01*
X273762Y3850D01*
X273825Y3884D01*
X273892Y3909D01*
X273933Y3941D01*
X273979Y3966D01*
X274028Y4018D01*
X274084Y4062D01*
X274113Y4106D01*
X274148Y4144D01*
X274179Y4209D01*
X274217Y4269D01*
X274230Y4320D01*
X274252Y4367D01*
X274260Y4438D01*
X274277Y4508D01*
X274273Y4560D01*
X274279Y4611D01*
X274264Y4682D01*
X274258Y4753D01*
X274238Y4801D01*
X274227Y4852D01*
X274190Y4913D01*
X274162Y4979D01*
X274117Y5035D01*
X274101Y5063D01*
X274083Y5078D01*
X274057Y5110D01*
X271647Y7520D01*
X270255Y10881D01*
X270255Y14519D01*
X271647Y17880D01*
X274220Y20453D01*
X277581Y21845D01*
X281219Y21845D01*
X284580Y20453D01*
X287153Y17880D01*
X288545Y14519D01*
X288545Y10881D01*
X287153Y7520D01*
X284743Y5110D01*
X284701Y5052D01*
X284652Y5000D01*
X284630Y4953D01*
X284599Y4911D01*
X284578Y4842D01*
X284548Y4777D01*
X284542Y4725D01*
X284527Y4675D01*
X284529Y4604D01*
X284521Y4533D01*
X284532Y4482D01*
X284533Y4430D01*
X284558Y4362D01*
X284573Y4292D01*
X284600Y4247D01*
X284618Y4199D01*
X284663Y4143D01*
X284699Y4081D01*
X284739Y4047D01*
X284771Y4007D01*
X284832Y3968D01*
X284886Y3921D01*
X284935Y3902D01*
X284978Y3874D01*
X285048Y3856D01*
X285114Y3829D01*
X285186Y3821D01*
X285217Y3813D01*
X285240Y3815D01*
X285281Y3811D01*
X298919Y3811D01*
X298990Y3822D01*
X299061Y3824D01*
X299110Y3842D01*
X299162Y3850D01*
X299225Y3884D01*
X299292Y3909D01*
X299333Y3941D01*
X299379Y3966D01*
X299428Y4018D01*
X299484Y4062D01*
X299513Y4106D01*
X299548Y4144D01*
X299579Y4209D01*
X299617Y4269D01*
X299630Y4320D01*
X299652Y4367D01*
X299660Y4438D01*
X299677Y4508D01*
X299673Y4560D01*
X299679Y4611D01*
X299664Y4682D01*
X299658Y4753D01*
X299638Y4801D01*
X299627Y4852D01*
X299590Y4913D01*
X299562Y4979D01*
X299517Y5035D01*
X299501Y5063D01*
X299483Y5078D01*
X299457Y5110D01*
X297047Y7520D01*
X295655Y10881D01*
X295655Y14519D01*
X297047Y17880D01*
X299620Y20453D01*
X302981Y21845D01*
X306619Y21845D01*
X309980Y20453D01*
X312553Y17880D01*
X313945Y14519D01*
X313945Y10881D01*
X312553Y7520D01*
X310143Y5110D01*
X310101Y5052D01*
X310052Y5000D01*
X310030Y4953D01*
X309999Y4911D01*
X309978Y4842D01*
X309948Y4777D01*
X309942Y4725D01*
X309927Y4675D01*
X309929Y4604D01*
X309921Y4533D01*
X309932Y4482D01*
X309933Y4430D01*
X309958Y4362D01*
X309973Y4292D01*
X310000Y4247D01*
X310018Y4199D01*
X310063Y4143D01*
X310099Y4081D01*
X310139Y4047D01*
X310171Y4007D01*
X310232Y3968D01*
X310286Y3921D01*
X310335Y3902D01*
X310378Y3874D01*
X310448Y3856D01*
X310514Y3829D01*
X310586Y3821D01*
X310617Y3813D01*
X310640Y3815D01*
X310681Y3811D01*
X324319Y3811D01*
X324390Y3822D01*
X324461Y3824D01*
X324510Y3842D01*
X324562Y3850D01*
X324625Y3884D01*
X324692Y3909D01*
X324733Y3941D01*
X324779Y3966D01*
X324828Y4018D01*
X324884Y4062D01*
X324913Y4106D01*
X324948Y4144D01*
X324979Y4209D01*
X325017Y4269D01*
X325030Y4320D01*
X325052Y4367D01*
X325060Y4438D01*
X325077Y4508D01*
X325073Y4560D01*
X325079Y4611D01*
X325064Y4682D01*
X325058Y4753D01*
X325038Y4801D01*
X325027Y4852D01*
X324990Y4913D01*
X324962Y4979D01*
X324917Y5035D01*
X324901Y5063D01*
X324883Y5078D01*
X324857Y5110D01*
X322447Y7520D01*
X321055Y10881D01*
X321055Y14519D01*
X322447Y17880D01*
X325020Y20453D01*
X328381Y21845D01*
X332019Y21845D01*
X335380Y20453D01*
X337953Y17880D01*
X339345Y14519D01*
X339345Y10881D01*
X337953Y7520D01*
X335543Y5110D01*
X335501Y5052D01*
X335452Y5000D01*
X335430Y4953D01*
X335399Y4911D01*
X335378Y4842D01*
X335348Y4777D01*
X335342Y4725D01*
X335327Y4675D01*
X335329Y4604D01*
X335321Y4533D01*
X335332Y4482D01*
X335333Y4430D01*
X335358Y4362D01*
X335373Y4292D01*
X335400Y4247D01*
X335418Y4199D01*
X335463Y4143D01*
X335499Y4081D01*
X335539Y4047D01*
X335571Y4007D01*
X335632Y3968D01*
X335686Y3921D01*
X335735Y3902D01*
X335778Y3874D01*
X335848Y3856D01*
X335914Y3829D01*
X335986Y3821D01*
X336017Y3813D01*
X336040Y3815D01*
X336081Y3811D01*
X431800Y3811D01*
X431822Y3814D01*
X431860Y3813D01*
X435118Y4070D01*
X435123Y4071D01*
X435129Y4070D01*
X435293Y4104D01*
X441491Y6118D01*
X441523Y6135D01*
X441557Y6143D01*
X441703Y6226D01*
X446975Y10056D01*
X447000Y10082D01*
X447031Y10101D01*
X447144Y10225D01*
X450974Y15497D01*
X450990Y15529D01*
X451013Y15556D01*
X451082Y15709D01*
X453096Y21907D01*
X453096Y21912D01*
X453099Y21917D01*
X453130Y22082D01*
X453387Y25340D01*
X453385Y25362D01*
X453389Y25400D01*
X453389Y190500D01*
X453386Y190522D01*
X453387Y190560D01*
X453130Y193818D01*
X453129Y193823D01*
X453130Y193829D01*
X453096Y193993D01*
X451082Y200191D01*
X451065Y200223D01*
X451057Y200257D01*
X450974Y200403D01*
X447144Y205675D01*
X447118Y205700D01*
X447099Y205731D01*
X446975Y205844D01*
X441703Y209674D01*
X441671Y209690D01*
X441644Y209713D01*
X441491Y209782D01*
X435293Y211796D01*
X435288Y211796D01*
X435283Y211799D01*
X435118Y211830D01*
X431860Y212087D01*
X431838Y212085D01*
X431800Y212089D01*
X304331Y212089D01*
X304260Y212078D01*
X304189Y212076D01*
X304140Y212058D01*
X304088Y212050D01*
X304025Y212016D01*
X303958Y211991D01*
X303917Y211959D01*
X303871Y211934D01*
X303822Y211882D01*
X303766Y211838D01*
X303737Y211794D01*
X303702Y211756D01*
X303671Y211691D01*
X303633Y211631D01*
X303620Y211580D01*
X303598Y211533D01*
X303590Y211462D01*
X303573Y211392D01*
X303577Y211340D01*
X303571Y211289D01*
X303586Y211218D01*
X303592Y211147D01*
X303612Y211099D01*
X303623Y211048D01*
X303660Y210987D01*
X303688Y210921D01*
X303733Y210865D01*
X303749Y210837D01*
X303767Y210822D01*
X303793Y210790D01*
X306203Y208380D01*
X307595Y205019D01*
X307595Y201381D01*
X306203Y198020D01*
X303630Y195447D01*
X300269Y194055D01*
X296631Y194055D01*
X293270Y195447D01*
X290697Y198020D01*
X289305Y201381D01*
X289305Y205019D01*
X290697Y208380D01*
X293107Y210790D01*
X293149Y210848D01*
X293198Y210900D01*
X293220Y210947D01*
X293251Y210989D01*
X293272Y211058D01*
X293302Y211123D01*
X293308Y211175D01*
X293323Y211225D01*
X293321Y211296D01*
X293329Y211367D01*
X293318Y211418D01*
X293317Y211470D01*
X293292Y211538D01*
X293277Y211608D01*
X293250Y211653D01*
X293232Y211701D01*
X293187Y211757D01*
X293151Y211819D01*
X293111Y211853D01*
X293079Y211893D01*
X293018Y211932D01*
X292964Y211979D01*
X292915Y211998D01*
X292872Y212026D01*
X292802Y212044D01*
X292736Y212071D01*
X292664Y212079D01*
X292633Y212087D01*
X292610Y212085D01*
X292569Y212089D01*
X278931Y212089D01*
X278860Y212078D01*
X278789Y212076D01*
X278740Y212058D01*
X278688Y212050D01*
X278625Y212016D01*
X278558Y211991D01*
X278517Y211959D01*
X278471Y211934D01*
X278422Y211882D01*
X278366Y211838D01*
X278337Y211794D01*
X278302Y211756D01*
X278271Y211691D01*
X278233Y211631D01*
X278220Y211580D01*
X278198Y211533D01*
X278190Y211462D01*
X278173Y211392D01*
X278177Y211340D01*
X278171Y211289D01*
X278186Y211218D01*
X278192Y211147D01*
X278212Y211099D01*
X278223Y211048D01*
X278260Y210987D01*
X278288Y210921D01*
X278333Y210865D01*
X278349Y210837D01*
X278367Y210822D01*
X278393Y210790D01*
X280803Y208380D01*
X282195Y205019D01*
X282195Y201381D01*
X280803Y198020D01*
X278230Y195447D01*
X274869Y194055D01*
X271231Y194055D01*
X267870Y195447D01*
X265297Y198020D01*
X263905Y201381D01*
X263905Y205019D01*
X265297Y208380D01*
X267707Y210790D01*
X267749Y210848D01*
X267798Y210900D01*
X267820Y210947D01*
X267851Y210989D01*
X267872Y211058D01*
X267902Y211123D01*
X267908Y211175D01*
X267923Y211225D01*
X267921Y211296D01*
X267929Y211367D01*
X267918Y211418D01*
X267917Y211470D01*
X267892Y211538D01*
X267877Y211608D01*
X267850Y211653D01*
X267832Y211701D01*
X267787Y211757D01*
X267751Y211819D01*
X267711Y211853D01*
X267679Y211893D01*
X267618Y211932D01*
X267564Y211979D01*
X267515Y211998D01*
X267472Y212026D01*
X267402Y212044D01*
X267336Y212071D01*
X267264Y212079D01*
X267233Y212087D01*
X267210Y212085D01*
X267169Y212089D01*
X254968Y212089D01*
X254897Y212078D01*
X254826Y212076D01*
X254777Y212058D01*
X254725Y212050D01*
X254662Y212016D01*
X254595Y211991D01*
X254554Y211959D01*
X254508Y211934D01*
X254459Y211882D01*
X254403Y211838D01*
X254374Y211794D01*
X254338Y211756D01*
X254308Y211691D01*
X254270Y211631D01*
X254257Y211580D01*
X254235Y211533D01*
X254227Y211462D01*
X254209Y211392D01*
X254214Y211340D01*
X254208Y211289D01*
X254223Y211218D01*
X254229Y211147D01*
X254249Y211099D01*
X254260Y211048D01*
X254297Y210987D01*
X254325Y210921D01*
X254370Y210865D01*
X254386Y210837D01*
X254404Y210822D01*
X254430Y210790D01*
X255400Y209819D01*
X256340Y208525D01*
X257066Y207100D01*
X257561Y205579D01*
X257696Y204723D01*
X248412Y204723D01*
X248392Y204720D01*
X248373Y204722D01*
X248271Y204700D01*
X248169Y204683D01*
X248152Y204674D01*
X248132Y204670D01*
X248043Y204617D01*
X247952Y204568D01*
X247938Y204554D01*
X247921Y204544D01*
X247854Y204465D01*
X247783Y204390D01*
X247774Y204372D01*
X247761Y204357D01*
X247723Y204261D01*
X247679Y204167D01*
X247677Y204147D01*
X247669Y204129D01*
X247651Y203962D01*
X247651Y203199D01*
X247649Y203199D01*
X247649Y203962D01*
X247646Y203982D01*
X247648Y204001D01*
X247626Y204103D01*
X247609Y204205D01*
X247600Y204222D01*
X247596Y204242D01*
X247543Y204331D01*
X247494Y204422D01*
X247480Y204436D01*
X247470Y204453D01*
X247391Y204520D01*
X247316Y204591D01*
X247298Y204600D01*
X247283Y204613D01*
X247187Y204652D01*
X247093Y204695D01*
X247073Y204697D01*
X247055Y204705D01*
X246888Y204723D01*
X237604Y204723D01*
X237739Y205579D01*
X238234Y207100D01*
X238960Y208525D01*
X239900Y209819D01*
X240870Y210790D01*
X240912Y210848D01*
X240962Y210900D01*
X240983Y210947D01*
X241014Y210989D01*
X241035Y211058D01*
X241065Y211123D01*
X241071Y211175D01*
X241086Y211225D01*
X241084Y211296D01*
X241092Y211367D01*
X241081Y211418D01*
X241080Y211470D01*
X241055Y211538D01*
X241040Y211608D01*
X241013Y211653D01*
X240995Y211701D01*
X240951Y211757D01*
X240914Y211819D01*
X240874Y211853D01*
X240842Y211893D01*
X240781Y211932D01*
X240727Y211979D01*
X240679Y211998D01*
X240635Y212026D01*
X240565Y212044D01*
X240499Y212071D01*
X240427Y212079D01*
X240396Y212087D01*
X240373Y212085D01*
X240332Y212089D01*
X229568Y212089D01*
X229497Y212078D01*
X229426Y212076D01*
X229377Y212058D01*
X229325Y212050D01*
X229262Y212016D01*
X229195Y211991D01*
X229154Y211959D01*
X229108Y211934D01*
X229059Y211882D01*
X229003Y211838D01*
X228974Y211794D01*
X228938Y211756D01*
X228908Y211691D01*
X228870Y211631D01*
X228857Y211580D01*
X228835Y211533D01*
X228827Y211462D01*
X228809Y211392D01*
X228814Y211340D01*
X228808Y211289D01*
X228823Y211218D01*
X228829Y211147D01*
X228849Y211099D01*
X228860Y211048D01*
X228897Y210987D01*
X228925Y210921D01*
X228970Y210865D01*
X228986Y210837D01*
X229004Y210822D01*
X229030Y210790D01*
X230000Y209819D01*
X230940Y208525D01*
X231666Y207100D01*
X232161Y205579D01*
X232296Y204723D01*
X223012Y204723D01*
X222992Y204720D01*
X222973Y204722D01*
X222871Y204700D01*
X222769Y204683D01*
X222752Y204674D01*
X222732Y204670D01*
X222643Y204617D01*
X222552Y204568D01*
X222538Y204554D01*
X222521Y204544D01*
X222454Y204465D01*
X222383Y204390D01*
X222374Y204372D01*
X222361Y204357D01*
X222323Y204261D01*
X222279Y204167D01*
X222277Y204147D01*
X222269Y204129D01*
X222251Y203962D01*
X222251Y203199D01*
X222249Y203199D01*
X222249Y203962D01*
X222246Y203982D01*
X222248Y204001D01*
X222226Y204103D01*
X222209Y204205D01*
X222200Y204222D01*
X222196Y204242D01*
X222143Y204331D01*
X222094Y204422D01*
X222080Y204436D01*
X222070Y204453D01*
X221991Y204520D01*
X221916Y204591D01*
X221898Y204600D01*
X221883Y204613D01*
X221787Y204652D01*
X221693Y204695D01*
X221673Y204697D01*
X221655Y204705D01*
X221488Y204723D01*
X212204Y204723D01*
X212339Y205579D01*
X212834Y207100D01*
X213560Y208525D01*
X214500Y209819D01*
X215470Y210790D01*
X215512Y210848D01*
X215562Y210900D01*
X215583Y210947D01*
X215614Y210989D01*
X215635Y211058D01*
X215665Y211123D01*
X215671Y211175D01*
X215686Y211225D01*
X215684Y211296D01*
X215692Y211367D01*
X215681Y211418D01*
X215680Y211470D01*
X215655Y211538D01*
X215640Y211608D01*
X215613Y211653D01*
X215595Y211701D01*
X215551Y211757D01*
X215514Y211819D01*
X215474Y211853D01*
X215442Y211893D01*
X215381Y211932D01*
X215327Y211979D01*
X215279Y211998D01*
X215235Y212026D01*
X215165Y212044D01*
X215099Y212071D01*
X215027Y212079D01*
X214996Y212087D01*
X214973Y212085D01*
X214932Y212089D01*
X204168Y212089D01*
X204097Y212078D01*
X204026Y212076D01*
X203977Y212058D01*
X203925Y212050D01*
X203862Y212016D01*
X203795Y211991D01*
X203754Y211959D01*
X203708Y211934D01*
X203659Y211882D01*
X203603Y211838D01*
X203574Y211794D01*
X203538Y211756D01*
X203508Y211691D01*
X203470Y211631D01*
X203457Y211580D01*
X203435Y211533D01*
X203427Y211462D01*
X203409Y211392D01*
X203414Y211340D01*
X203408Y211289D01*
X203423Y211218D01*
X203429Y211147D01*
X203449Y211099D01*
X203460Y211048D01*
X203497Y210987D01*
X203525Y210921D01*
X203570Y210865D01*
X203586Y210837D01*
X203604Y210822D01*
X203630Y210790D01*
X204600Y209819D01*
X205540Y208525D01*
X206266Y207100D01*
X206761Y205579D01*
X206896Y204723D01*
X197612Y204723D01*
X197592Y204720D01*
X197573Y204722D01*
X197471Y204700D01*
X197369Y204683D01*
X197352Y204674D01*
X197332Y204670D01*
X197243Y204617D01*
X197152Y204568D01*
X197138Y204554D01*
X197121Y204544D01*
X197054Y204465D01*
X196983Y204390D01*
X196974Y204372D01*
X196961Y204357D01*
X196923Y204261D01*
X196879Y204167D01*
X196877Y204147D01*
X196869Y204129D01*
X196851Y203962D01*
X196851Y203199D01*
X196849Y203199D01*
X196849Y203962D01*
X196846Y203982D01*
X196848Y204001D01*
X196826Y204103D01*
X196809Y204205D01*
X196800Y204222D01*
X196796Y204242D01*
X196743Y204331D01*
X196694Y204422D01*
X196680Y204436D01*
X196670Y204453D01*
X196591Y204520D01*
X196516Y204591D01*
X196498Y204600D01*
X196483Y204613D01*
X196387Y204652D01*
X196293Y204695D01*
X196273Y204697D01*
X196255Y204705D01*
X196088Y204723D01*
X186804Y204723D01*
X186939Y205579D01*
X187434Y207100D01*
X188160Y208525D01*
X189100Y209819D01*
X190070Y210790D01*
X190112Y210848D01*
X190162Y210900D01*
X190183Y210947D01*
X190214Y210989D01*
X190235Y211058D01*
X190265Y211123D01*
X190271Y211175D01*
X190286Y211225D01*
X190284Y211296D01*
X190292Y211367D01*
X190281Y211418D01*
X190280Y211470D01*
X190255Y211538D01*
X190240Y211608D01*
X190213Y211653D01*
X190195Y211701D01*
X190151Y211757D01*
X190114Y211819D01*
X190074Y211853D01*
X190042Y211893D01*
X189981Y211932D01*
X189927Y211979D01*
X189879Y211998D01*
X189835Y212026D01*
X189765Y212044D01*
X189699Y212071D01*
X189627Y212079D01*
X189596Y212087D01*
X189573Y212085D01*
X189532Y212089D01*
X178768Y212089D01*
X178697Y212078D01*
X178626Y212076D01*
X178577Y212058D01*
X178525Y212050D01*
X178462Y212016D01*
X178395Y211991D01*
X178354Y211959D01*
X178308Y211934D01*
X178259Y211882D01*
X178203Y211838D01*
X178174Y211794D01*
X178138Y211756D01*
X178108Y211691D01*
X178070Y211631D01*
X178057Y211580D01*
X178035Y211533D01*
X178027Y211462D01*
X178009Y211392D01*
X178014Y211340D01*
X178008Y211289D01*
X178023Y211218D01*
X178029Y211147D01*
X178049Y211099D01*
X178060Y211048D01*
X178097Y210987D01*
X178125Y210921D01*
X178170Y210865D01*
X178186Y210837D01*
X178204Y210822D01*
X178230Y210790D01*
X179200Y209819D01*
X180140Y208525D01*
X180866Y207100D01*
X181361Y205579D01*
X181496Y204723D01*
X172212Y204723D01*
X172192Y204720D01*
X172173Y204722D01*
X172071Y204700D01*
X171969Y204683D01*
X171952Y204674D01*
X171932Y204670D01*
X171843Y204617D01*
X171752Y204568D01*
X171738Y204554D01*
X171721Y204544D01*
X171654Y204465D01*
X171583Y204390D01*
X171574Y204372D01*
X171561Y204357D01*
X171523Y204261D01*
X171479Y204167D01*
X171477Y204147D01*
X171469Y204129D01*
X171451Y203962D01*
X171451Y203199D01*
X171449Y203199D01*
X171449Y203962D01*
X171446Y203982D01*
X171448Y204001D01*
X171426Y204103D01*
X171409Y204205D01*
X171400Y204222D01*
X171396Y204242D01*
X171343Y204331D01*
X171294Y204422D01*
X171280Y204436D01*
X171270Y204453D01*
X171191Y204520D01*
X171116Y204591D01*
X171098Y204600D01*
X171083Y204613D01*
X170987Y204652D01*
X170893Y204695D01*
X170873Y204697D01*
X170855Y204705D01*
X170688Y204723D01*
X161404Y204723D01*
X161539Y205579D01*
X162034Y207100D01*
X162760Y208525D01*
X163700Y209819D01*
X164670Y210790D01*
X164712Y210848D01*
X164762Y210900D01*
X164783Y210947D01*
X164814Y210989D01*
X164835Y211058D01*
X164865Y211123D01*
X164871Y211175D01*
X164886Y211225D01*
X164884Y211296D01*
X164892Y211367D01*
X164881Y211418D01*
X164880Y211470D01*
X164855Y211538D01*
X164840Y211608D01*
X164813Y211653D01*
X164795Y211701D01*
X164751Y211757D01*
X164714Y211819D01*
X164674Y211853D01*
X164642Y211893D01*
X164581Y211932D01*
X164527Y211979D01*
X164479Y211998D01*
X164435Y212026D01*
X164365Y212044D01*
X164299Y212071D01*
X164227Y212079D01*
X164196Y212087D01*
X164173Y212085D01*
X164132Y212089D01*
X153368Y212089D01*
X153297Y212078D01*
X153226Y212076D01*
X153177Y212058D01*
X153125Y212050D01*
X153062Y212016D01*
X152995Y211991D01*
X152954Y211959D01*
X152908Y211934D01*
X152859Y211882D01*
X152803Y211838D01*
X152774Y211794D01*
X152738Y211756D01*
X152708Y211691D01*
X152670Y211631D01*
X152657Y211580D01*
X152635Y211533D01*
X152627Y211462D01*
X152609Y211392D01*
X152614Y211340D01*
X152608Y211289D01*
X152623Y211218D01*
X152629Y211147D01*
X152649Y211099D01*
X152660Y211048D01*
X152697Y210987D01*
X152725Y210921D01*
X152770Y210865D01*
X152786Y210837D01*
X152804Y210822D01*
X152830Y210790D01*
X153800Y209819D01*
X154740Y208525D01*
X155466Y207100D01*
X155961Y205579D01*
X156096Y204723D01*
X146812Y204723D01*
X146792Y204720D01*
X146773Y204722D01*
X146671Y204700D01*
X146569Y204683D01*
X146552Y204674D01*
X146532Y204670D01*
X146443Y204617D01*
X146352Y204568D01*
X146338Y204554D01*
X146321Y204544D01*
X146254Y204465D01*
X146183Y204390D01*
X146174Y204372D01*
X146161Y204357D01*
X146123Y204261D01*
X146079Y204167D01*
X146077Y204147D01*
X146069Y204129D01*
X146051Y203962D01*
X146051Y203199D01*
X146049Y203199D01*
X146049Y203962D01*
X146046Y203982D01*
X146048Y204001D01*
X146026Y204103D01*
X146009Y204205D01*
X146000Y204222D01*
X145996Y204242D01*
X145943Y204331D01*
X145894Y204422D01*
X145880Y204436D01*
X145870Y204453D01*
X145791Y204520D01*
X145716Y204591D01*
X145698Y204600D01*
X145683Y204613D01*
X145587Y204652D01*
X145493Y204695D01*
X145473Y204697D01*
X145455Y204705D01*
X145288Y204723D01*
X136004Y204723D01*
X136139Y205579D01*
X136634Y207100D01*
X137360Y208525D01*
X138300Y209819D01*
X139270Y210790D01*
X139312Y210848D01*
X139362Y210900D01*
X139383Y210947D01*
X139414Y210989D01*
X139435Y211058D01*
X139465Y211123D01*
X139471Y211175D01*
X139486Y211225D01*
X139484Y211296D01*
X139492Y211367D01*
X139481Y211418D01*
X139480Y211470D01*
X139455Y211538D01*
X139440Y211608D01*
X139413Y211653D01*
X139395Y211701D01*
X139351Y211757D01*
X139314Y211819D01*
X139274Y211853D01*
X139242Y211893D01*
X139181Y211932D01*
X139127Y211979D01*
X139079Y211998D01*
X139035Y212026D01*
X138965Y212044D01*
X138899Y212071D01*
X138827Y212079D01*
X138796Y212087D01*
X138773Y212085D01*
X138732Y212089D01*
X127968Y212089D01*
X127897Y212078D01*
X127826Y212076D01*
X127777Y212058D01*
X127725Y212050D01*
X127662Y212016D01*
X127595Y211991D01*
X127554Y211959D01*
X127508Y211934D01*
X127459Y211882D01*
X127403Y211838D01*
X127374Y211794D01*
X127338Y211756D01*
X127308Y211691D01*
X127270Y211631D01*
X127257Y211580D01*
X127235Y211533D01*
X127227Y211462D01*
X127209Y211392D01*
X127214Y211340D01*
X127208Y211289D01*
X127223Y211218D01*
X127229Y211147D01*
X127249Y211099D01*
X127260Y211048D01*
X127297Y210987D01*
X127325Y210921D01*
X127370Y210865D01*
X127386Y210837D01*
X127404Y210822D01*
X127430Y210790D01*
X128400Y209819D01*
X129340Y208525D01*
X130066Y207100D01*
X130561Y205579D01*
X130696Y204723D01*
X121412Y204723D01*
X121392Y204720D01*
X121373Y204722D01*
X121271Y204700D01*
X121169Y204683D01*
X121152Y204674D01*
X121132Y204670D01*
X121043Y204617D01*
X120952Y204568D01*
X120938Y204554D01*
X120921Y204544D01*
X120854Y204465D01*
X120783Y204390D01*
X120774Y204372D01*
X120761Y204357D01*
X120723Y204261D01*
X120679Y204167D01*
X120677Y204147D01*
X120669Y204129D01*
X120651Y203962D01*
X120651Y203199D01*
X120649Y203199D01*
X120649Y203962D01*
X120646Y203982D01*
X120648Y204001D01*
X120626Y204103D01*
X120609Y204205D01*
X120600Y204222D01*
X120596Y204242D01*
X120543Y204331D01*
X120494Y204422D01*
X120480Y204436D01*
X120470Y204453D01*
X120391Y204520D01*
X120316Y204591D01*
X120298Y204600D01*
X120283Y204613D01*
X120187Y204652D01*
X120093Y204695D01*
X120073Y204697D01*
X120055Y204705D01*
X119888Y204723D01*
X110604Y204723D01*
X110739Y205579D01*
X111234Y207100D01*
X111960Y208525D01*
X112900Y209819D01*
X113870Y210790D01*
X113912Y210848D01*
X113962Y210900D01*
X113983Y210947D01*
X114014Y210989D01*
X114035Y211058D01*
X114065Y211123D01*
X114071Y211175D01*
X114086Y211225D01*
X114084Y211296D01*
X114092Y211367D01*
X114081Y211418D01*
X114080Y211470D01*
X114055Y211538D01*
X114040Y211608D01*
X114013Y211653D01*
X113995Y211701D01*
X113951Y211757D01*
X113914Y211819D01*
X113874Y211853D01*
X113842Y211893D01*
X113781Y211932D01*
X113727Y211979D01*
X113679Y211998D01*
X113635Y212026D01*
X113565Y212044D01*
X113499Y212071D01*
X113427Y212079D01*
X113396Y212087D01*
X113373Y212085D01*
X113332Y212089D01*
X102568Y212089D01*
X102497Y212078D01*
X102426Y212076D01*
X102377Y212058D01*
X102325Y212050D01*
X102262Y212016D01*
X102195Y211991D01*
X102154Y211959D01*
X102108Y211934D01*
X102059Y211882D01*
X102003Y211838D01*
X101974Y211794D01*
X101938Y211756D01*
X101908Y211691D01*
X101870Y211631D01*
X101857Y211580D01*
X101835Y211533D01*
X101827Y211462D01*
X101809Y211392D01*
X101814Y211340D01*
X101808Y211289D01*
X101823Y211218D01*
X101829Y211147D01*
X101849Y211099D01*
X101860Y211048D01*
X101897Y210987D01*
X101925Y210921D01*
X101970Y210865D01*
X101986Y210837D01*
X102004Y210822D01*
X102030Y210790D01*
X103000Y209819D01*
X103940Y208525D01*
X104666Y207100D01*
X105161Y205579D01*
X105296Y204723D01*
X96012Y204723D01*
X95992Y204720D01*
X95973Y204722D01*
X95871Y204700D01*
X95769Y204683D01*
X95752Y204674D01*
X95732Y204670D01*
X95643Y204617D01*
X95552Y204568D01*
X95538Y204554D01*
X95521Y204544D01*
X95454Y204465D01*
X95383Y204390D01*
X95374Y204372D01*
X95361Y204357D01*
X95323Y204261D01*
X95279Y204167D01*
X95277Y204147D01*
X95269Y204129D01*
X95251Y203962D01*
X95251Y203199D01*
X95249Y203199D01*
X95249Y203962D01*
X95246Y203982D01*
X95248Y204001D01*
X95226Y204103D01*
X95209Y204205D01*
X95200Y204222D01*
X95196Y204242D01*
X95143Y204331D01*
X95094Y204422D01*
X95080Y204436D01*
X95070Y204453D01*
X94991Y204520D01*
X94916Y204591D01*
X94898Y204600D01*
X94883Y204613D01*
X94787Y204652D01*
X94693Y204695D01*
X94673Y204697D01*
X94655Y204705D01*
X94488Y204723D01*
X85204Y204723D01*
X85339Y205579D01*
X85834Y207100D01*
X86560Y208525D01*
X87500Y209819D01*
X88470Y210790D01*
X88512Y210848D01*
X88562Y210900D01*
X88583Y210947D01*
X88614Y210989D01*
X88635Y211058D01*
X88665Y211123D01*
X88671Y211175D01*
X88686Y211225D01*
X88684Y211296D01*
X88692Y211367D01*
X88681Y211418D01*
X88680Y211470D01*
X88655Y211538D01*
X88640Y211608D01*
X88613Y211653D01*
X88595Y211701D01*
X88551Y211757D01*
X88514Y211819D01*
X88474Y211853D01*
X88442Y211893D01*
X88381Y211932D01*
X88327Y211979D01*
X88279Y211998D01*
X88235Y212026D01*
X88165Y212044D01*
X88099Y212071D01*
X88027Y212079D01*
X87996Y212087D01*
X87973Y212085D01*
X87932Y212089D01*
X77168Y212089D01*
X77097Y212078D01*
X77026Y212076D01*
X76977Y212058D01*
X76925Y212050D01*
X76862Y212016D01*
X76795Y211991D01*
X76754Y211959D01*
X76708Y211934D01*
X76659Y211882D01*
X76603Y211838D01*
X76574Y211794D01*
X76538Y211756D01*
X76508Y211691D01*
X76470Y211631D01*
X76457Y211580D01*
X76435Y211533D01*
X76427Y211462D01*
X76409Y211392D01*
X76414Y211340D01*
X76408Y211289D01*
X76423Y211218D01*
X76429Y211147D01*
X76449Y211099D01*
X76460Y211048D01*
X76497Y210987D01*
X76525Y210921D01*
X76570Y210865D01*
X76586Y210837D01*
X76604Y210822D01*
X76630Y210790D01*
X77600Y209819D01*
X78540Y208525D01*
X79266Y207100D01*
X79761Y205579D01*
X79896Y204723D01*
X70612Y204723D01*
X70592Y204720D01*
X70573Y204722D01*
X70471Y204700D01*
X70369Y204683D01*
X70352Y204674D01*
X70332Y204670D01*
X70243Y204617D01*
X70152Y204568D01*
X70138Y204554D01*
X70121Y204544D01*
X70054Y204465D01*
X69983Y204390D01*
X69974Y204372D01*
X69961Y204357D01*
X69923Y204261D01*
X69879Y204167D01*
X69877Y204147D01*
X69869Y204129D01*
X69851Y203962D01*
X69851Y203199D01*
X69849Y203199D01*
X69849Y203962D01*
X69846Y203982D01*
X69848Y204001D01*
X69826Y204103D01*
X69809Y204205D01*
X69800Y204222D01*
X69796Y204242D01*
X69743Y204331D01*
X69694Y204422D01*
X69680Y204436D01*
X69670Y204453D01*
X69591Y204520D01*
X69516Y204591D01*
X69498Y204600D01*
X69483Y204613D01*
X69387Y204652D01*
X69293Y204695D01*
X69273Y204697D01*
X69255Y204705D01*
X69088Y204723D01*
X59804Y204723D01*
X59939Y205579D01*
X60434Y207100D01*
X61160Y208525D01*
X62100Y209819D01*
X63070Y210790D01*
X63112Y210848D01*
X63162Y210900D01*
X63183Y210947D01*
X63214Y210989D01*
X63235Y211058D01*
X63265Y211123D01*
X63271Y211175D01*
X63286Y211225D01*
X63284Y211296D01*
X63292Y211367D01*
X63281Y211418D01*
X63280Y211470D01*
X63255Y211538D01*
X63240Y211608D01*
X63213Y211653D01*
X63195Y211701D01*
X63151Y211757D01*
X63114Y211819D01*
X63074Y211853D01*
X63042Y211893D01*
X62981Y211932D01*
X62927Y211979D01*
X62879Y211998D01*
X62835Y212026D01*
X62765Y212044D01*
X62699Y212071D01*
X62627Y212079D01*
X62596Y212087D01*
X62573Y212085D01*
X62532Y212089D01*
X25400Y212089D01*
X25378Y212086D01*
X25340Y212087D01*
X22082Y211830D01*
X22077Y211829D01*
X22071Y211830D01*
X21907Y211796D01*
X15709Y209782D01*
X15677Y209765D01*
X15643Y209757D01*
X15497Y209674D01*
X10225Y205844D01*
X10200Y205818D01*
X10169Y205799D01*
X10056Y205675D01*
X6226Y200403D01*
X6210Y200371D01*
X6187Y200344D01*
X6118Y200191D01*
X4104Y193993D01*
X4104Y193988D01*
X4101Y193983D01*
X4070Y193818D01*
X3813Y190560D01*
X3815Y190538D01*
X3811Y190500D01*
X3811Y25400D01*
X3814Y25378D01*
X3813Y25340D01*
X4070Y22082D01*
X4071Y22077D01*
X4070Y22071D01*
X4104Y21907D01*
X6118Y15709D01*
X6135Y15677D01*
X6143Y15643D01*
X6226Y15497D01*
X10056Y10225D01*
X10082Y10200D01*
X10101Y10169D01*
X10225Y10056D01*
X15497Y6226D01*
X15518Y6215D01*
X15531Y6205D01*
X15539Y6201D01*
X15556Y6187D01*
X15709Y6118D01*
X21907Y4104D01*
X21912Y4104D01*
X21917Y4101D01*
X22082Y4070D01*
X25340Y3813D01*
X25362Y3815D01*
X25400Y3811D01*
X95719Y3811D01*
X95790Y3822D01*
G37*
%LPC*%
G36*
X23126Y102869D02*
X23126Y102869D01*
X18925Y104610D01*
X15710Y107825D01*
X13969Y112026D01*
X13969Y116574D01*
X15710Y120775D01*
X18925Y123990D01*
X23126Y125731D01*
X27674Y125731D01*
X31875Y123990D01*
X35090Y120775D01*
X36831Y116574D01*
X36831Y112026D01*
X35090Y107825D01*
X31875Y104610D01*
X27674Y102869D01*
X23126Y102869D01*
G37*
%LPD*%
%LPC*%
G36*
X410476Y147319D02*
X410476Y147319D01*
X406275Y149060D01*
X403060Y152275D01*
X401319Y156476D01*
X401319Y161024D01*
X403060Y165225D01*
X406275Y168440D01*
X410476Y170181D01*
X415024Y170181D01*
X419225Y168440D01*
X422440Y165225D01*
X424181Y161024D01*
X424181Y156476D01*
X422440Y152275D01*
X419225Y149060D01*
X415024Y147319D01*
X410476Y147319D01*
G37*
%LPD*%
%LPC*%
G36*
X410476Y121919D02*
X410476Y121919D01*
X406275Y123660D01*
X403060Y126875D01*
X401319Y131076D01*
X401319Y135624D01*
X403060Y139825D01*
X406275Y143040D01*
X410476Y144781D01*
X415024Y144781D01*
X419225Y143040D01*
X422440Y139825D01*
X424181Y135624D01*
X424181Y131076D01*
X422440Y126875D01*
X419225Y123660D01*
X415024Y121919D01*
X410476Y121919D01*
G37*
%LPD*%
%LPC*%
G36*
X410476Y96519D02*
X410476Y96519D01*
X406275Y98260D01*
X403060Y101475D01*
X401319Y105676D01*
X401319Y110224D01*
X403060Y114425D01*
X406275Y117640D01*
X410476Y119381D01*
X415024Y119381D01*
X419225Y117640D01*
X422440Y114425D01*
X424181Y110224D01*
X424181Y105676D01*
X422440Y101475D01*
X419225Y98260D01*
X415024Y96519D01*
X410476Y96519D01*
G37*
%LPD*%
%LPC*%
G36*
X74516Y34035D02*
X74516Y34035D01*
X72135Y36416D01*
X72135Y39784D01*
X74516Y42165D01*
X76715Y42165D01*
X76806Y42179D01*
X76896Y42187D01*
X76926Y42199D01*
X76958Y42204D01*
X77039Y42247D01*
X77123Y42283D01*
X77155Y42309D01*
X77176Y42320D01*
X77198Y42343D01*
X77254Y42388D01*
X80554Y45688D01*
X80607Y45762D01*
X80667Y45832D01*
X80679Y45862D01*
X80698Y45888D01*
X80725Y45975D01*
X80759Y46060D01*
X80763Y46101D01*
X80770Y46123D01*
X80769Y46155D01*
X80777Y46227D01*
X80777Y87449D01*
X80763Y87539D01*
X80755Y87630D01*
X80743Y87660D01*
X80738Y87692D01*
X80695Y87772D01*
X80659Y87856D01*
X80633Y87888D01*
X80622Y87909D01*
X80599Y87931D01*
X80554Y87987D01*
X78999Y89542D01*
X78999Y92910D01*
X81380Y95291D01*
X84748Y95291D01*
X87129Y92910D01*
X87129Y89542D01*
X85574Y87987D01*
X85521Y87913D01*
X85461Y87844D01*
X85449Y87814D01*
X85430Y87788D01*
X85403Y87701D01*
X85369Y87616D01*
X85365Y87575D01*
X85358Y87552D01*
X85359Y87520D01*
X85351Y87449D01*
X85351Y73887D01*
X85362Y73816D01*
X85364Y73744D01*
X85382Y73696D01*
X85390Y73644D01*
X85424Y73581D01*
X85449Y73513D01*
X85481Y73473D01*
X85506Y73427D01*
X85558Y73377D01*
X85602Y73321D01*
X85646Y73293D01*
X85684Y73257D01*
X85749Y73227D01*
X85809Y73188D01*
X85860Y73176D01*
X85907Y73154D01*
X85978Y73146D01*
X86048Y73128D01*
X86100Y73132D01*
X86151Y73127D01*
X86222Y73142D01*
X86293Y73148D01*
X86341Y73168D01*
X86392Y73179D01*
X86453Y73216D01*
X86519Y73244D01*
X86575Y73289D01*
X86603Y73305D01*
X86618Y73323D01*
X86650Y73349D01*
X87216Y73915D01*
X90584Y73915D01*
X92965Y71534D01*
X92965Y68166D01*
X90584Y65785D01*
X87216Y65785D01*
X86650Y66351D01*
X86592Y66393D01*
X86540Y66443D01*
X86493Y66465D01*
X86451Y66495D01*
X86382Y66516D01*
X86317Y66546D01*
X86265Y66552D01*
X86215Y66567D01*
X86144Y66565D01*
X86073Y66573D01*
X86022Y66562D01*
X85970Y66561D01*
X85902Y66536D01*
X85832Y66521D01*
X85787Y66494D01*
X85739Y66476D01*
X85683Y66432D01*
X85621Y66395D01*
X85587Y66355D01*
X85547Y66323D01*
X85508Y66262D01*
X85461Y66208D01*
X85442Y66160D01*
X85414Y66116D01*
X85396Y66046D01*
X85369Y65980D01*
X85361Y65909D01*
X85353Y65877D01*
X85355Y65854D01*
X85351Y65813D01*
X85351Y44017D01*
X80488Y39154D01*
X80435Y39080D01*
X80375Y39010D01*
X80363Y38980D01*
X80344Y38954D01*
X80317Y38867D01*
X80283Y38782D01*
X80279Y38741D01*
X80272Y38719D01*
X80273Y38687D01*
X80265Y38615D01*
X80265Y36416D01*
X77884Y34035D01*
X74516Y34035D01*
G37*
%LPD*%
%LPC*%
G36*
X395223Y33273D02*
X395223Y33273D01*
X395223Y53357D01*
X397927Y53001D01*
X400665Y52267D01*
X403283Y51183D01*
X405738Y49766D01*
X407986Y48040D01*
X409990Y46036D01*
X411716Y43788D01*
X413133Y41333D01*
X414217Y38715D01*
X414951Y35977D01*
X415307Y33273D01*
X395223Y33273D01*
G37*
%LPD*%
%LPC*%
G36*
X395223Y30227D02*
X395223Y30227D01*
X415307Y30227D01*
X414951Y27523D01*
X414217Y24785D01*
X413133Y22167D01*
X411716Y19712D01*
X409990Y17464D01*
X407986Y15460D01*
X405738Y13734D01*
X403283Y12317D01*
X400665Y11233D01*
X397927Y10499D01*
X395223Y10143D01*
X395223Y30227D01*
G37*
%LPD*%
%LPC*%
G36*
X372093Y33273D02*
X372093Y33273D01*
X372449Y35977D01*
X373183Y38715D01*
X374267Y41333D01*
X375684Y43788D01*
X377410Y46036D01*
X379414Y48040D01*
X381662Y49766D01*
X384117Y51183D01*
X386735Y52267D01*
X389473Y53001D01*
X392177Y53357D01*
X392177Y33273D01*
X372093Y33273D01*
G37*
%LPD*%
%LPC*%
G36*
X389473Y10499D02*
X389473Y10499D01*
X386735Y11233D01*
X384117Y12317D01*
X381662Y13734D01*
X379414Y15460D01*
X377410Y17464D01*
X375684Y19712D01*
X374267Y22167D01*
X373183Y24785D01*
X372449Y27523D01*
X372093Y30227D01*
X392177Y30227D01*
X392177Y10143D01*
X389473Y10499D01*
G37*
%LPD*%
%LPC*%
G36*
X30552Y171775D02*
X30552Y171775D01*
X28337Y172692D01*
X26642Y174387D01*
X25725Y176602D01*
X25725Y178998D01*
X26642Y181213D01*
X28337Y182908D01*
X30552Y183825D01*
X32948Y183825D01*
X35163Y182908D01*
X36858Y181213D01*
X37775Y178998D01*
X37775Y176602D01*
X36858Y174387D01*
X35163Y172692D01*
X32948Y171775D01*
X30552Y171775D01*
G37*
%LPD*%
%LPC*%
G36*
X341216Y167385D02*
X341216Y167385D01*
X338835Y169766D01*
X338835Y173134D01*
X341216Y175515D01*
X344424Y175515D01*
X344444Y175518D01*
X344463Y175516D01*
X344565Y175538D01*
X344667Y175554D01*
X344684Y175564D01*
X344704Y175568D01*
X344793Y175621D01*
X344884Y175670D01*
X344898Y175684D01*
X344915Y175694D01*
X344982Y175773D01*
X345054Y175848D01*
X345062Y175866D01*
X345075Y175881D01*
X345114Y175977D01*
X345157Y176071D01*
X345159Y176091D01*
X345167Y176109D01*
X345185Y176276D01*
X345185Y179484D01*
X347566Y181865D01*
X350934Y181865D01*
X353315Y179484D01*
X353315Y176116D01*
X350934Y173735D01*
X347726Y173735D01*
X347706Y173732D01*
X347687Y173734D01*
X347585Y173712D01*
X347483Y173696D01*
X347466Y173686D01*
X347446Y173682D01*
X347357Y173629D01*
X347266Y173580D01*
X347252Y173566D01*
X347235Y173556D01*
X347168Y173477D01*
X347096Y173402D01*
X347088Y173384D01*
X347075Y173369D01*
X347036Y173273D01*
X346993Y173179D01*
X346991Y173159D01*
X346983Y173141D01*
X346965Y172974D01*
X346965Y169766D01*
X344584Y167385D01*
X341216Y167385D01*
G37*
%LPD*%
%LPC*%
G36*
X157066Y167131D02*
X157066Y167131D01*
X154685Y169512D01*
X154685Y172880D01*
X155765Y173960D01*
X155777Y173976D01*
X155793Y173988D01*
X155849Y174076D01*
X155909Y174159D01*
X155915Y174178D01*
X155926Y174195D01*
X155951Y174296D01*
X155981Y174395D01*
X155981Y174414D01*
X155986Y174434D01*
X155978Y174537D01*
X155975Y174640D01*
X155968Y174659D01*
X155966Y174679D01*
X155926Y174774D01*
X155890Y174871D01*
X155878Y174887D01*
X155870Y174905D01*
X155765Y175036D01*
X154685Y176116D01*
X154685Y179484D01*
X157066Y181865D01*
X160434Y181865D01*
X162815Y179484D01*
X162815Y176116D01*
X161735Y175036D01*
X161723Y175020D01*
X161707Y175008D01*
X161651Y174920D01*
X161591Y174837D01*
X161585Y174818D01*
X161574Y174801D01*
X161549Y174700D01*
X161519Y174601D01*
X161519Y174582D01*
X161514Y174562D01*
X161522Y174459D01*
X161525Y174356D01*
X161532Y174337D01*
X161534Y174317D01*
X161574Y174222D01*
X161610Y174125D01*
X161622Y174109D01*
X161630Y174091D01*
X161735Y173960D01*
X162815Y172880D01*
X162815Y169512D01*
X160434Y167131D01*
X157066Y167131D01*
G37*
%LPD*%
%LPC*%
G36*
X26923Y141223D02*
X26923Y141223D01*
X26923Y152061D01*
X28315Y151840D01*
X30178Y151235D01*
X31923Y150345D01*
X33509Y149194D01*
X34894Y147809D01*
X36045Y146223D01*
X36935Y144478D01*
X37540Y142615D01*
X37761Y141223D01*
X26923Y141223D01*
G37*
%LPD*%
%LPC*%
G36*
X26923Y138177D02*
X26923Y138177D01*
X37761Y138177D01*
X37540Y136785D01*
X36935Y134922D01*
X36045Y133177D01*
X34894Y131591D01*
X33509Y130206D01*
X31923Y129055D01*
X30178Y128165D01*
X28315Y127560D01*
X26923Y127339D01*
X26923Y138177D01*
G37*
%LPD*%
%LPC*%
G36*
X13039Y141223D02*
X13039Y141223D01*
X13260Y142615D01*
X13865Y144478D01*
X14755Y146223D01*
X15906Y147809D01*
X17291Y149194D01*
X18877Y150345D01*
X20622Y151235D01*
X22485Y151840D01*
X23877Y152061D01*
X23877Y141223D01*
X13039Y141223D01*
G37*
%LPD*%
%LPC*%
G36*
X22485Y127560D02*
X22485Y127560D01*
X20622Y128165D01*
X18877Y129055D01*
X17291Y130206D01*
X15906Y131591D01*
X14755Y133177D01*
X13865Y134922D01*
X13260Y136785D01*
X13039Y138177D01*
X23877Y138177D01*
X23877Y127339D01*
X22485Y127560D01*
G37*
%LPD*%
%LPC*%
G36*
X134449Y21297D02*
X134449Y21297D01*
X131787Y23959D01*
X131787Y27724D01*
X134449Y30387D01*
X138214Y30387D01*
X140877Y27724D01*
X140877Y23959D01*
X138214Y21297D01*
X134449Y21297D01*
G37*
%LPD*%
%LPC*%
G36*
X404517Y66039D02*
X404517Y66039D01*
X401855Y68701D01*
X401855Y72467D01*
X404517Y75129D01*
X408283Y75129D01*
X410945Y72467D01*
X410945Y68701D01*
X408283Y66039D01*
X404517Y66039D01*
G37*
%LPD*%
%LPC*%
G36*
X258467Y52605D02*
X258467Y52605D01*
X255805Y55267D01*
X255805Y59033D01*
X258467Y61695D01*
X262233Y61695D01*
X264895Y59033D01*
X264895Y55267D01*
X262233Y52605D01*
X258467Y52605D01*
G37*
%LPD*%
%LPC*%
G36*
X328317Y97055D02*
X328317Y97055D01*
X325655Y99717D01*
X325655Y103483D01*
X328317Y106145D01*
X332083Y106145D01*
X334745Y103483D01*
X334745Y99717D01*
X332083Y97055D01*
X328317Y97055D01*
G37*
%LPD*%
%LPC*%
G36*
X360266Y199135D02*
X360266Y199135D01*
X357885Y201516D01*
X357885Y204884D01*
X360266Y207265D01*
X363634Y207265D01*
X366015Y204884D01*
X366015Y201516D01*
X363634Y199135D01*
X360266Y199135D01*
G37*
%LPD*%
%LPC*%
G36*
X113592Y59435D02*
X113592Y59435D01*
X111211Y61816D01*
X111211Y65184D01*
X113592Y67565D01*
X116960Y67565D01*
X119341Y65184D01*
X119341Y61816D01*
X116960Y59435D01*
X113592Y59435D01*
G37*
%LPD*%
%LPC*%
G36*
X103940Y59056D02*
X103940Y59056D01*
X101559Y61437D01*
X101559Y64805D01*
X103940Y67186D01*
X107308Y67186D01*
X109689Y64805D01*
X109689Y61437D01*
X107308Y59056D01*
X103940Y59056D01*
G37*
%LPD*%
%LPC*%
G36*
X212692Y78485D02*
X212692Y78485D01*
X210311Y80866D01*
X210311Y84234D01*
X212692Y86615D01*
X216060Y86615D01*
X218441Y84234D01*
X218441Y80866D01*
X216060Y78485D01*
X212692Y78485D01*
G37*
%LPD*%
%LPC*%
G36*
X163416Y40385D02*
X163416Y40385D01*
X161035Y42766D01*
X161035Y46134D01*
X163416Y48515D01*
X166784Y48515D01*
X169165Y46134D01*
X169165Y42766D01*
X166784Y40385D01*
X163416Y40385D01*
G37*
%LPD*%
%LPC*%
G36*
X87216Y21335D02*
X87216Y21335D01*
X84835Y23716D01*
X84835Y27084D01*
X87216Y29465D01*
X90584Y29465D01*
X92965Y27084D01*
X92965Y23716D01*
X90584Y21335D01*
X87216Y21335D01*
G37*
%LPD*%
%LPC*%
G36*
X61816Y14985D02*
X61816Y14985D01*
X59435Y17366D01*
X59435Y20734D01*
X61816Y23115D01*
X65184Y23115D01*
X67565Y20734D01*
X67565Y17366D01*
X65184Y14985D01*
X61816Y14985D01*
G37*
%LPD*%
%LPC*%
G36*
X347566Y192785D02*
X347566Y192785D01*
X345185Y195166D01*
X345185Y198534D01*
X347566Y200915D01*
X350934Y200915D01*
X353315Y198534D01*
X353315Y195166D01*
X350934Y192785D01*
X347566Y192785D01*
G37*
%LPD*%
%LPC*%
G36*
X328516Y191388D02*
X328516Y191388D01*
X326135Y193769D01*
X326135Y197136D01*
X328516Y199517D01*
X331884Y199517D01*
X334265Y197136D01*
X334265Y193769D01*
X331884Y191388D01*
X328516Y191388D01*
G37*
%LPD*%
%LPC*%
G36*
X176116Y173735D02*
X176116Y173735D01*
X173735Y176116D01*
X173735Y179484D01*
X176116Y181865D01*
X179484Y181865D01*
X181865Y179484D01*
X181865Y176116D01*
X179484Y173735D01*
X176116Y173735D01*
G37*
%LPD*%
%LPC*%
G36*
X303116Y167385D02*
X303116Y167385D01*
X300735Y169766D01*
X300735Y173134D01*
X303116Y175515D01*
X306484Y175515D01*
X308865Y173134D01*
X308865Y169766D01*
X306484Y167385D01*
X303116Y167385D01*
G37*
%LPD*%
%LPC*%
G36*
X42766Y161035D02*
X42766Y161035D01*
X40385Y163416D01*
X40385Y166784D01*
X42766Y169165D01*
X46134Y169165D01*
X48515Y166784D01*
X48515Y163416D01*
X46134Y161035D01*
X42766Y161035D01*
G37*
%LPD*%
%LPC*%
G36*
X195166Y154685D02*
X195166Y154685D01*
X192785Y157066D01*
X192785Y160434D01*
X195166Y162815D01*
X198534Y162815D01*
X200915Y160434D01*
X200915Y157066D01*
X198534Y154685D01*
X195166Y154685D01*
G37*
%LPD*%
%LPC*%
G36*
X125316Y141985D02*
X125316Y141985D01*
X122935Y144366D01*
X122935Y147734D01*
X125316Y150115D01*
X128684Y150115D01*
X131065Y147734D01*
X131065Y144366D01*
X128684Y141985D01*
X125316Y141985D01*
G37*
%LPD*%
%LPC*%
G36*
X258666Y136199D02*
X258666Y136199D01*
X256285Y138580D01*
X256285Y141948D01*
X258666Y144329D01*
X262034Y144329D01*
X264415Y141948D01*
X264415Y138580D01*
X262034Y136199D01*
X258666Y136199D01*
G37*
%LPD*%
%LPC*%
G36*
X303116Y154685D02*
X303116Y154685D01*
X300735Y157066D01*
X300735Y160434D01*
X303116Y162815D01*
X306484Y162815D01*
X308865Y160434D01*
X308865Y157066D01*
X306484Y154685D01*
X303116Y154685D01*
G37*
%LPD*%
%LPC*%
G36*
X296766Y129285D02*
X296766Y129285D01*
X294385Y131666D01*
X294385Y135034D01*
X296766Y137415D01*
X300134Y137415D01*
X302515Y135034D01*
X302515Y131666D01*
X300134Y129285D01*
X296766Y129285D01*
G37*
%LPD*%
%LPC*%
G36*
X261802Y122935D02*
X261802Y122935D01*
X259421Y125316D01*
X259421Y128684D01*
X261802Y131065D01*
X265170Y131065D01*
X267551Y128684D01*
X267551Y125316D01*
X265170Y122935D01*
X261802Y122935D01*
G37*
%LPD*%
%LPC*%
G36*
X42766Y122935D02*
X42766Y122935D01*
X40385Y125316D01*
X40385Y128684D01*
X42766Y131065D01*
X46134Y131065D01*
X48515Y128684D01*
X48515Y125316D01*
X46134Y122935D01*
X42766Y122935D01*
G37*
%LPD*%
%LPC*%
G36*
X372966Y116585D02*
X372966Y116585D01*
X370585Y118966D01*
X370585Y122334D01*
X372966Y124715D01*
X376334Y124715D01*
X378715Y122334D01*
X378715Y118966D01*
X376334Y116585D01*
X372966Y116585D01*
G37*
%LPD*%
%LPC*%
G36*
X296766Y110235D02*
X296766Y110235D01*
X294385Y112616D01*
X294385Y115984D01*
X296766Y118365D01*
X300134Y118365D01*
X302515Y115984D01*
X302515Y112616D01*
X300134Y110235D01*
X296766Y110235D01*
G37*
%LPD*%
%LPC*%
G36*
X180702Y110235D02*
X180702Y110235D01*
X178321Y112616D01*
X178321Y115984D01*
X180702Y118365D01*
X184070Y118365D01*
X186451Y115984D01*
X186451Y112616D01*
X184070Y110235D01*
X180702Y110235D01*
G37*
%LPD*%
%LPC*%
G36*
X80866Y110235D02*
X80866Y110235D01*
X78485Y112616D01*
X78485Y115984D01*
X80866Y118365D01*
X84234Y118365D01*
X86615Y115984D01*
X86615Y112616D01*
X84234Y110235D01*
X80866Y110235D01*
G37*
%LPD*%
%LPC*%
G36*
X93566Y97899D02*
X93566Y97899D01*
X91185Y100280D01*
X91185Y103648D01*
X93566Y106029D01*
X96934Y106029D01*
X99315Y103648D01*
X99315Y100280D01*
X96934Y97899D01*
X93566Y97899D01*
G37*
%LPD*%
%LPC*%
G36*
X296766Y97535D02*
X296766Y97535D01*
X294385Y99916D01*
X294385Y103284D01*
X296766Y105665D01*
X300134Y105665D01*
X302515Y103284D01*
X302515Y99916D01*
X300134Y97535D01*
X296766Y97535D01*
G37*
%LPD*%
%LPC*%
G36*
X353916Y91185D02*
X353916Y91185D01*
X351535Y93566D01*
X351535Y96934D01*
X353916Y99315D01*
X357284Y99315D01*
X359665Y96934D01*
X359665Y93566D01*
X357284Y91185D01*
X353916Y91185D01*
G37*
%LPD*%
%LPC*%
G36*
X42766Y91185D02*
X42766Y91185D01*
X40385Y93566D01*
X40385Y96934D01*
X42766Y99315D01*
X46134Y99315D01*
X48515Y96934D01*
X48515Y93566D01*
X46134Y91185D01*
X42766Y91185D01*
G37*
%LPD*%
%LPC*%
G36*
X138016Y85649D02*
X138016Y85649D01*
X135635Y88030D01*
X135635Y91398D01*
X138016Y93779D01*
X141384Y93779D01*
X143765Y91398D01*
X143765Y88030D01*
X141384Y85649D01*
X138016Y85649D01*
G37*
%LPD*%
%LPC*%
G36*
X261206Y84835D02*
X261206Y84835D01*
X258825Y87216D01*
X258825Y90584D01*
X261206Y92965D01*
X264574Y92965D01*
X266955Y90584D01*
X266955Y87216D01*
X264574Y84835D01*
X261206Y84835D01*
G37*
%LPD*%
%LPC*%
G36*
X252316Y72135D02*
X252316Y72135D01*
X249935Y74516D01*
X249935Y77884D01*
X252316Y80265D01*
X255684Y80265D01*
X258065Y77884D01*
X258065Y74516D01*
X255684Y72135D01*
X252316Y72135D01*
G37*
%LPD*%
%LPC*%
G36*
X179926Y72135D02*
X179926Y72135D01*
X177545Y74516D01*
X177545Y77884D01*
X179926Y80265D01*
X183294Y80265D01*
X185675Y77884D01*
X185675Y74516D01*
X183294Y72135D01*
X179926Y72135D01*
G37*
%LPD*%
%LPC*%
G36*
X360266Y71571D02*
X360266Y71571D01*
X357885Y73952D01*
X357885Y77320D01*
X360266Y79701D01*
X363634Y79701D01*
X366015Y77320D01*
X366015Y73952D01*
X363634Y71571D01*
X360266Y71571D01*
G37*
%LPD*%
%LPC*%
G36*
X207866Y61213D02*
X207866Y61213D01*
X205485Y63594D01*
X205485Y66962D01*
X207866Y69343D01*
X211234Y69343D01*
X213615Y66962D01*
X213615Y63594D01*
X211234Y61213D01*
X207866Y61213D01*
G37*
%LPD*%
%LPC*%
G36*
X176116Y59435D02*
X176116Y59435D01*
X173735Y61816D01*
X173735Y65184D01*
X176116Y67565D01*
X179484Y67565D01*
X181865Y65184D01*
X181865Y61816D01*
X179484Y59435D01*
X176116Y59435D01*
G37*
%LPD*%
%LPC*%
G36*
X172973Y201677D02*
X172973Y201677D01*
X181496Y201677D01*
X181361Y200821D01*
X180866Y199300D01*
X180140Y197875D01*
X179200Y196581D01*
X178069Y195450D01*
X176775Y194510D01*
X175350Y193784D01*
X173829Y193289D01*
X172973Y193154D01*
X172973Y201677D01*
G37*
%LPD*%
%LPC*%
G36*
X147573Y201677D02*
X147573Y201677D01*
X156096Y201677D01*
X155961Y200821D01*
X155466Y199300D01*
X154740Y197875D01*
X153800Y196581D01*
X152669Y195450D01*
X151375Y194510D01*
X149950Y193784D01*
X148429Y193289D01*
X147573Y193154D01*
X147573Y201677D01*
G37*
%LPD*%
%LPC*%
G36*
X71373Y201677D02*
X71373Y201677D01*
X79896Y201677D01*
X79761Y200821D01*
X79266Y199300D01*
X78540Y197875D01*
X77600Y196581D01*
X76469Y195450D01*
X75175Y194510D01*
X73750Y193784D01*
X72229Y193289D01*
X71373Y193154D01*
X71373Y201677D01*
G37*
%LPD*%
%LPC*%
G36*
X122173Y201677D02*
X122173Y201677D01*
X130696Y201677D01*
X130561Y200821D01*
X130066Y199300D01*
X129340Y197875D01*
X128400Y196581D01*
X127269Y195450D01*
X125975Y194510D01*
X124550Y193784D01*
X123029Y193289D01*
X122173Y193154D01*
X122173Y201677D01*
G37*
%LPD*%
%LPC*%
G36*
X96773Y201677D02*
X96773Y201677D01*
X105296Y201677D01*
X105161Y200821D01*
X104666Y199300D01*
X103940Y197875D01*
X103000Y196581D01*
X101869Y195450D01*
X100575Y194510D01*
X99150Y193784D01*
X97629Y193289D01*
X96773Y193154D01*
X96773Y201677D01*
G37*
%LPD*%
%LPC*%
G36*
X198373Y201677D02*
X198373Y201677D01*
X206896Y201677D01*
X206761Y200821D01*
X206266Y199300D01*
X205540Y197875D01*
X204600Y196581D01*
X203469Y195450D01*
X202175Y194510D01*
X200750Y193784D01*
X199229Y193289D01*
X198373Y193154D01*
X198373Y201677D01*
G37*
%LPD*%
%LPC*%
G36*
X249173Y201677D02*
X249173Y201677D01*
X257696Y201677D01*
X257561Y200821D01*
X257066Y199300D01*
X256340Y197875D01*
X255400Y196581D01*
X254269Y195450D01*
X252975Y194510D01*
X251550Y193784D01*
X250029Y193289D01*
X249173Y193154D01*
X249173Y201677D01*
G37*
%LPD*%
%LPC*%
G36*
X223773Y201677D02*
X223773Y201677D01*
X232296Y201677D01*
X232161Y200821D01*
X231666Y199300D01*
X230940Y197875D01*
X230000Y196581D01*
X228869Y195450D01*
X227575Y194510D01*
X226150Y193784D01*
X224629Y193289D01*
X223773Y193154D01*
X223773Y201677D01*
G37*
%LPD*%
%LPC*%
G36*
X143671Y193289D02*
X143671Y193289D01*
X142150Y193784D01*
X140725Y194510D01*
X139431Y195450D01*
X138300Y196581D01*
X137360Y197875D01*
X136634Y199300D01*
X136139Y200821D01*
X136004Y201677D01*
X144527Y201677D01*
X144527Y193154D01*
X143671Y193289D01*
G37*
%LPD*%
%LPC*%
G36*
X169071Y193289D02*
X169071Y193289D01*
X167550Y193784D01*
X166125Y194510D01*
X164831Y195450D01*
X163700Y196581D01*
X162760Y197875D01*
X162034Y199300D01*
X161539Y200821D01*
X161404Y201677D01*
X169927Y201677D01*
X169927Y193154D01*
X169071Y193289D01*
G37*
%LPD*%
%LPC*%
G36*
X118271Y193289D02*
X118271Y193289D01*
X116750Y193784D01*
X115325Y194510D01*
X114031Y195450D01*
X112900Y196581D01*
X111960Y197875D01*
X111234Y199300D01*
X110739Y200821D01*
X110604Y201677D01*
X119127Y201677D01*
X119127Y193154D01*
X118271Y193289D01*
G37*
%LPD*%
%LPC*%
G36*
X92871Y193289D02*
X92871Y193289D01*
X91350Y193784D01*
X89925Y194510D01*
X88631Y195450D01*
X87500Y196581D01*
X86560Y197875D01*
X85834Y199300D01*
X85339Y200821D01*
X85204Y201677D01*
X93727Y201677D01*
X93727Y193154D01*
X92871Y193289D01*
G37*
%LPD*%
%LPC*%
G36*
X245271Y193289D02*
X245271Y193289D01*
X243750Y193784D01*
X242325Y194510D01*
X241031Y195450D01*
X239900Y196581D01*
X238960Y197875D01*
X238234Y199300D01*
X237739Y200821D01*
X237604Y201677D01*
X246127Y201677D01*
X246127Y193154D01*
X245271Y193289D01*
G37*
%LPD*%
%LPC*%
G36*
X67471Y193289D02*
X67471Y193289D01*
X65950Y193784D01*
X64525Y194510D01*
X63231Y195450D01*
X62100Y196581D01*
X61160Y197875D01*
X60434Y199300D01*
X59939Y200821D01*
X59804Y201677D01*
X68327Y201677D01*
X68327Y193154D01*
X67471Y193289D01*
G37*
%LPD*%
%LPC*%
G36*
X194471Y193289D02*
X194471Y193289D01*
X192950Y193784D01*
X191525Y194510D01*
X190231Y195450D01*
X189100Y196581D01*
X188160Y197875D01*
X187434Y199300D01*
X186939Y200821D01*
X186804Y201677D01*
X195327Y201677D01*
X195327Y193154D01*
X194471Y193289D01*
G37*
%LPD*%
%LPC*%
G36*
X219871Y193289D02*
X219871Y193289D01*
X218350Y193784D01*
X216925Y194510D01*
X215631Y195450D01*
X214500Y196581D01*
X213560Y197875D01*
X212834Y199300D01*
X212339Y200821D01*
X212204Y201677D01*
X220727Y201677D01*
X220727Y193154D01*
X219871Y193289D01*
G37*
%LPD*%
%LPC*%
G36*
X25399Y139699D02*
X25399Y139699D01*
X25399Y139701D01*
X25401Y139701D01*
X25401Y139699D01*
X25399Y139699D01*
G37*
%LPD*%
%LPC*%
G36*
X393699Y31749D02*
X393699Y31749D01*
X393699Y31751D01*
X393701Y31751D01*
X393701Y31749D01*
X393699Y31749D01*
G37*
%LPD*%
D10*
X412750Y133350D03*
X412750Y158750D03*
X412750Y107950D03*
X25400Y139700D03*
X25400Y114300D03*
D11*
X101600Y12700D03*
X127000Y12700D03*
X152400Y12700D03*
X177800Y12700D03*
X203200Y12700D03*
X228600Y12700D03*
X254000Y12700D03*
X279400Y12700D03*
X304800Y12700D03*
X330200Y12700D03*
X298450Y203200D03*
X273050Y203200D03*
X247650Y203200D03*
X222250Y203200D03*
X196850Y203200D03*
X171450Y203200D03*
X146050Y203200D03*
X120650Y203200D03*
X95250Y203200D03*
X69850Y203200D03*
D12*
X393700Y31750D03*
D13*
X88900Y69850D03*
X44450Y127000D03*
X105624Y63121D03*
X214376Y82550D03*
X165100Y44450D03*
X115276Y63500D03*
X209550Y65278D03*
X254000Y76200D03*
X263486Y127000D03*
X361950Y75636D03*
X181610Y76200D03*
X177800Y63500D03*
D14*
X31750Y177800D03*
D13*
X44450Y95250D03*
X182386Y114300D03*
X82550Y114300D03*
X158750Y177800D03*
X177800Y177800D03*
X127000Y146050D03*
X44450Y165100D03*
X158750Y171196D03*
X135886Y76200D03*
D15*
X152400Y59686D02*
X152400Y12700D01*
X152400Y59686D02*
X135886Y76200D01*
D13*
X95250Y101964D03*
X139700Y89714D03*
X88900Y25400D03*
X83064Y91226D03*
D15*
X83064Y44964D01*
X76200Y38100D01*
D13*
X76200Y38100D03*
X63500Y19050D03*
X204470Y93980D03*
X199390Y93980D03*
X194310Y93980D03*
X189230Y93980D03*
X184150Y93980D03*
X242570Y182880D03*
X242570Y176530D03*
X242570Y170180D03*
X242570Y163830D03*
X242570Y157480D03*
X242570Y189230D03*
X210820Y189230D03*
X210820Y182880D03*
X210820Y176530D03*
X210820Y170180D03*
X210820Y163830D03*
X210820Y157480D03*
X210820Y151130D03*
X217170Y151130D03*
X223520Y151130D03*
X229870Y151130D03*
X236220Y151130D03*
X242570Y151130D03*
X120650Y185420D03*
X114300Y185420D03*
X107950Y185420D03*
X101600Y185420D03*
X95250Y185420D03*
X88900Y185420D03*
X82550Y185420D03*
X76200Y185420D03*
X69850Y185420D03*
X63500Y185420D03*
X57150Y185420D03*
X354330Y30480D03*
X347980Y30480D03*
X341630Y30480D03*
X335280Y30480D03*
X328930Y30480D03*
X322580Y30480D03*
X316230Y30480D03*
X309880Y30480D03*
X303530Y30480D03*
X297180Y30480D03*
X297180Y55880D03*
X303530Y55880D03*
X309880Y55880D03*
X316230Y55880D03*
X322580Y55880D03*
X328930Y55880D03*
X335280Y55880D03*
X341630Y55880D03*
X347980Y55880D03*
X354330Y55880D03*
D16*
X27940Y97790D03*
X35560Y97790D03*
D13*
X260350Y140264D03*
X298450Y114300D03*
X298450Y133350D03*
X374650Y120650D03*
X262890Y88900D03*
X355600Y95250D03*
D16*
X260350Y57150D03*
D13*
X304800Y171450D03*
X304800Y158750D03*
X342900Y171450D03*
X298450Y101600D03*
D16*
X330200Y101600D03*
D13*
X349250Y196850D03*
X330200Y195453D03*
X361950Y203200D03*
X349250Y177800D03*
X196850Y158750D03*
D16*
X406400Y70584D03*
X136332Y25842D03*
M02*
