M48
;GenerationSoftware,Autodesk,EAGLE,9.3.2*%
;CreationDate,2019-10-16T04:34:31Z*%
FMAT,2
ICI,OFF
METRIC,TZ,000.000
T7C0.203
T6C0.356
T5C0.610
T4C1.016
T3C1.067
T2C1.321
T1C2.800
%
G90
M71
T1
X69850Y3175
X3175Y22225
T2
X68580Y16510
X68580Y11430
X2540Y11430
X2540Y13970
X68580Y13970
T3
X37465Y15875
T4
X46990Y24130
X57150Y24130
X54610Y24130
X52070Y24130
X49530Y24130
X44450Y24130
X20320Y1270
X59690Y24130
X62230Y24130
X64770Y24130
X67310Y24130
X33020Y1270
X30480Y1270
X27940Y1270
X25400Y1270
X22860Y1270
X17780Y1270
X15240Y1270
X12700Y1270
X10160Y1270
X36830Y24130
X34290Y24130
X31750Y24130
T5
X4445Y16510
T6
X33020Y7620
X16510Y8255
X46116Y17175
X41275Y19050
X41275Y24130
X24130Y2540
X5715Y3175
X60325Y6350
X52705Y5715
X60960Y18385
X52070Y16510
X26035Y12065
X57150Y4445
X62230Y4445
X58420Y7620
X58420Y19685
X60325Y9525
X60325Y20955
X57150Y7620
X56515Y18385
X44982Y20423
X42545Y12700
X42545Y23495
X27305Y7620
X12065Y7620
X31115Y9525
X17145Y12700
X31115Y11430
X17145Y16510
X26035Y6687
X29210Y8712
X23495Y5080
X47625Y19685
X23876Y6731
X32131Y12065
X47625Y8890
X42467Y6907
X43180Y15240
X40640Y15240
X40005Y11430
X46355Y7620
X12700Y5715
X17780Y4445
T7
X36830Y5080
X36830Y10160
X14605Y8872
X40640Y12700
X35560Y3175
X27940Y2540
X32702Y2857
X19050Y8255
X34925Y7620
X38100Y4445
X34925Y4445
X38735Y13335
M30