G04 EAGLE Gerber RS-274X export*
G75*
%MOMM*%
%FSLAX34Y34*%
%LPD*%
%INBottom Solder Paste*%
%IPPOS*%
%AMOC8*
5,1,8,0,0,1.08239X$1,22.5*%
G01*
%ADD10R,1.000000X1.100000*%
%ADD11R,0.900000X0.800000*%
%ADD12R,1.100000X1.000000*%
%ADD13C,0.250000*%
%ADD14R,0.700000X0.700000*%
%ADD15R,0.650000X0.250000*%
%ADD16R,0.250000X0.650000*%
%ADD17R,0.800000X1.000000*%
%ADD18R,0.525000X0.250000*%
%ADD19R,0.200000X0.800000*%


D10*
X152400Y118500D03*
X152400Y135500D03*
X273050Y84700D03*
X273050Y67700D03*
X311150Y84700D03*
X311150Y67700D03*
X349250Y84700D03*
X349250Y67700D03*
X273050Y179950D03*
X273050Y162950D03*
X177800Y52950D03*
X177800Y35950D03*
X95250Y52950D03*
X95250Y35950D03*
X107950Y118500D03*
X107950Y135500D03*
X146050Y52950D03*
X146050Y35950D03*
D11*
X130650Y53950D03*
X130650Y34950D03*
X109650Y44450D03*
X53500Y79400D03*
X53500Y98400D03*
X74500Y88900D03*
D12*
X133350Y135500D03*
X133350Y118500D03*
X171450Y118500D03*
X171450Y135500D03*
D10*
X72000Y63500D03*
X55000Y63500D03*
D12*
X273050Y131200D03*
X273050Y148200D03*
X273050Y99450D03*
X273050Y116450D03*
X254000Y116450D03*
X254000Y99450D03*
X254000Y148200D03*
X254000Y131200D03*
X368300Y84700D03*
X368300Y67700D03*
D10*
X72000Y133350D03*
X55000Y133350D03*
D12*
X292100Y67700D03*
X292100Y84700D03*
X330200Y84700D03*
X330200Y67700D03*
X292100Y179950D03*
X292100Y162950D03*
X254000Y162950D03*
X254000Y179950D03*
D10*
X55000Y152400D03*
X72000Y152400D03*
X93100Y171450D03*
X110100Y171450D03*
X72000Y114300D03*
X55000Y114300D03*
X55000Y171450D03*
X72000Y171450D03*
D13*
X95950Y81400D03*
X95950Y86400D03*
X95950Y91400D03*
X95950Y96400D03*
X100450Y100900D03*
X105450Y100900D03*
X110450Y100900D03*
X115450Y100900D03*
X119950Y96400D03*
X119950Y91400D03*
X119950Y86400D03*
X119950Y81400D03*
X115450Y76900D03*
X110450Y76900D03*
X105450Y76900D03*
X100450Y76900D03*
D14*
X103450Y84400D03*
D15*
X92700Y81400D03*
X92700Y86400D03*
X92700Y91400D03*
X92700Y96400D03*
D16*
X100450Y104150D03*
X105450Y104150D03*
X110450Y104150D03*
X115450Y104150D03*
D15*
X123200Y96400D03*
X123200Y91400D03*
X123200Y86400D03*
X123200Y81400D03*
D16*
X115450Y73650D03*
X110450Y73650D03*
X105450Y73650D03*
X100450Y73650D03*
D14*
X103450Y93400D03*
X112450Y93400D03*
X112450Y84400D03*
D17*
X344250Y121000D03*
X354250Y133000D03*
X354250Y121000D03*
X344250Y133000D03*
D18*
X335625Y116000D03*
X362875Y138000D03*
X362875Y116000D03*
X335625Y138000D03*
D19*
X351250Y107250D03*
X355250Y107250D03*
X355250Y107250D03*
X359250Y107250D03*
X347250Y107250D03*
X343250Y107250D03*
X339250Y107250D03*
X339250Y146750D03*
X343250Y146750D03*
X347250Y146750D03*
X351250Y146750D03*
X355250Y146750D03*
X359250Y146750D03*
D10*
X321700Y203200D03*
X338700Y203200D03*
X321700Y184150D03*
X338700Y184150D03*
M02*
