G04 EAGLE Gerber RS-274X export*
G75*
%MOMM*%
%FSLAX34Y34*%
%LPD*%
%INBoard Outline*%
%IPPOS*%
%AMOC8*
5,1,8,0,0,1.08239X$1,22.5*%
G01*
%ADD10C,0.000000*%
%ADD11C,0.254000*%


D10*
X0Y190500D02*
X0Y25400D01*
X7Y24786D01*
X30Y24173D01*
X67Y23560D01*
X119Y22949D01*
X185Y22338D01*
X267Y21730D01*
X363Y21124D01*
X473Y20520D01*
X598Y19919D01*
X738Y19321D01*
X892Y18727D01*
X1061Y18137D01*
X1243Y17551D01*
X1440Y16970D01*
X1651Y16393D01*
X1875Y15822D01*
X2113Y15256D01*
X2365Y14696D01*
X2631Y14143D01*
X2909Y13596D01*
X3201Y13056D01*
X3506Y12523D01*
X3824Y11998D01*
X4154Y11480D01*
X4496Y10971D01*
X4851Y10470D01*
X5218Y9978D01*
X5596Y9495D01*
X5986Y9021D01*
X6388Y8557D01*
X6800Y8102D01*
X7224Y7658D01*
X7658Y7224D01*
X8102Y6800D01*
X8557Y6388D01*
X9021Y5986D01*
X9495Y5596D01*
X9978Y5218D01*
X10470Y4851D01*
X10971Y4496D01*
X11480Y4154D01*
X11998Y3824D01*
X12523Y3506D01*
X13056Y3201D01*
X13596Y2909D01*
X14143Y2631D01*
X14696Y2365D01*
X15256Y2113D01*
X15822Y1875D01*
X16393Y1651D01*
X16970Y1440D01*
X17551Y1243D01*
X18137Y1061D01*
X18727Y892D01*
X19321Y738D01*
X19919Y598D01*
X20520Y473D01*
X21124Y363D01*
X21730Y267D01*
X22338Y185D01*
X22949Y119D01*
X23560Y67D01*
X24173Y30D01*
X24786Y7D01*
X25400Y0D01*
X431800Y0D01*
X432414Y7D01*
X433027Y30D01*
X433640Y67D01*
X434251Y119D01*
X434862Y185D01*
X435470Y267D01*
X436076Y363D01*
X436680Y473D01*
X437281Y598D01*
X437879Y738D01*
X438473Y892D01*
X439063Y1061D01*
X439649Y1243D01*
X440230Y1440D01*
X440807Y1651D01*
X441378Y1875D01*
X441944Y2113D01*
X442504Y2365D01*
X443057Y2631D01*
X443604Y2909D01*
X444144Y3201D01*
X444677Y3506D01*
X445202Y3824D01*
X445720Y4154D01*
X446229Y4496D01*
X446730Y4851D01*
X447222Y5218D01*
X447705Y5596D01*
X448179Y5986D01*
X448643Y6388D01*
X449098Y6800D01*
X449542Y7224D01*
X449976Y7658D01*
X450400Y8102D01*
X450812Y8557D01*
X451214Y9021D01*
X451604Y9495D01*
X451982Y9978D01*
X452349Y10470D01*
X452704Y10971D01*
X453046Y11480D01*
X453376Y11998D01*
X453694Y12523D01*
X453999Y13056D01*
X454291Y13596D01*
X454569Y14143D01*
X454835Y14696D01*
X455087Y15256D01*
X455325Y15822D01*
X455549Y16393D01*
X455760Y16970D01*
X455957Y17551D01*
X456139Y18137D01*
X456308Y18727D01*
X456462Y19321D01*
X456602Y19919D01*
X456727Y20520D01*
X456837Y21124D01*
X456933Y21730D01*
X457015Y22338D01*
X457081Y22949D01*
X457133Y23560D01*
X457170Y24173D01*
X457193Y24786D01*
X457200Y25400D01*
X457200Y190500D01*
X457193Y191114D01*
X457170Y191727D01*
X457133Y192340D01*
X457081Y192951D01*
X457015Y193562D01*
X456933Y194170D01*
X456837Y194776D01*
X456727Y195380D01*
X456602Y195981D01*
X456462Y196579D01*
X456308Y197173D01*
X456139Y197763D01*
X455957Y198349D01*
X455760Y198930D01*
X455549Y199507D01*
X455325Y200078D01*
X455087Y200644D01*
X454835Y201204D01*
X454569Y201757D01*
X454291Y202304D01*
X453999Y202844D01*
X453694Y203377D01*
X453376Y203902D01*
X453046Y204420D01*
X452704Y204929D01*
X452349Y205430D01*
X451982Y205922D01*
X451604Y206405D01*
X451214Y206879D01*
X450812Y207343D01*
X450400Y207798D01*
X449976Y208242D01*
X449542Y208676D01*
X449098Y209100D01*
X448643Y209512D01*
X448179Y209914D01*
X447705Y210304D01*
X447222Y210682D01*
X446730Y211049D01*
X446229Y211404D01*
X445720Y211746D01*
X445202Y212076D01*
X444677Y212394D01*
X444144Y212699D01*
X443604Y212991D01*
X443057Y213269D01*
X442504Y213535D01*
X441944Y213787D01*
X441378Y214025D01*
X440807Y214249D01*
X440230Y214460D01*
X439649Y214657D01*
X439063Y214839D01*
X438473Y215008D01*
X437879Y215162D01*
X437281Y215302D01*
X436680Y215427D01*
X436076Y215537D01*
X435470Y215633D01*
X434862Y215715D01*
X434251Y215781D01*
X433640Y215833D01*
X433027Y215870D01*
X432414Y215893D01*
X431800Y215900D01*
X25400Y215900D01*
X24786Y215893D01*
X24173Y215870D01*
X23560Y215833D01*
X22949Y215781D01*
X22338Y215715D01*
X21730Y215633D01*
X21124Y215537D01*
X20520Y215427D01*
X19919Y215302D01*
X19321Y215162D01*
X18727Y215008D01*
X18137Y214839D01*
X17551Y214657D01*
X16970Y214460D01*
X16393Y214249D01*
X15822Y214025D01*
X15256Y213787D01*
X14696Y213535D01*
X14143Y213269D01*
X13596Y212991D01*
X13056Y212699D01*
X12523Y212394D01*
X11998Y212076D01*
X11480Y211746D01*
X10971Y211404D01*
X10470Y211049D01*
X9978Y210682D01*
X9495Y210304D01*
X9021Y209914D01*
X8557Y209512D01*
X8102Y209100D01*
X7658Y208676D01*
X7224Y208242D01*
X6800Y207798D01*
X6388Y207343D01*
X5986Y206879D01*
X5596Y206405D01*
X5218Y205922D01*
X4851Y205430D01*
X4496Y204929D01*
X4154Y204420D01*
X3824Y203902D01*
X3506Y203377D01*
X3201Y202844D01*
X2909Y202304D01*
X2631Y201757D01*
X2365Y201204D01*
X2113Y200644D01*
X1875Y200078D01*
X1651Y199507D01*
X1440Y198930D01*
X1243Y198349D01*
X1061Y197763D01*
X892Y197173D01*
X738Y196579D01*
X598Y195981D01*
X473Y195380D01*
X363Y194776D01*
X267Y194170D01*
X185Y193562D01*
X119Y192951D01*
X67Y192340D01*
X30Y191727D01*
X7Y191114D01*
X0Y190500D01*
D11*
X0Y25400D02*
X97Y23186D01*
X386Y20989D01*
X865Y18826D01*
X1532Y16713D01*
X2380Y14666D01*
X3403Y12700D01*
X4594Y10831D01*
X5942Y9073D01*
X7440Y7440D01*
X9073Y5942D01*
X10831Y4594D01*
X12700Y3403D01*
X14666Y2380D01*
X16713Y1532D01*
X18826Y865D01*
X20989Y386D01*
X23186Y97D01*
X25400Y0D01*
X431800Y0D01*
X434014Y97D01*
X436211Y386D01*
X438374Y865D01*
X440487Y1532D01*
X442535Y2380D01*
X444500Y3403D01*
X446369Y4594D01*
X448127Y5942D01*
X449761Y7440D01*
X451258Y9073D01*
X452606Y10831D01*
X453797Y12700D01*
X454820Y14666D01*
X455668Y16713D01*
X456335Y18826D01*
X456814Y20989D01*
X457103Y23186D01*
X457200Y25400D01*
X457200Y190500D01*
X457103Y192714D01*
X456814Y194911D01*
X456335Y197074D01*
X455668Y199187D01*
X454820Y201235D01*
X453797Y203200D01*
X452606Y205069D01*
X451258Y206827D01*
X449761Y208461D01*
X448127Y209958D01*
X446369Y211306D01*
X444500Y212497D01*
X442535Y213520D01*
X440487Y214368D01*
X438374Y215035D01*
X436211Y215514D01*
X434014Y215803D01*
X431800Y215900D01*
X25400Y215900D01*
X23186Y215803D01*
X20989Y215514D01*
X18826Y215035D01*
X16713Y214368D01*
X14666Y213520D01*
X12700Y212497D01*
X10831Y211306D01*
X9073Y209958D01*
X7440Y208461D01*
X5942Y206827D01*
X4594Y205069D01*
X3403Y203200D01*
X2380Y201235D01*
X1532Y199187D01*
X865Y197074D01*
X386Y194911D01*
X97Y192714D01*
X0Y190500D01*
X0Y25400D01*
M02*
