G04 EAGLE Gerber RS-274X export*
G75*
%MOMM*%
%FSLAX34Y34*%
%LPD*%
%INSolder stop mask SOL*%
%IPPOS*%
%AMOC8*
5,1,8,0,0,1.08239X$1,22.5*%
G01*
%ADD10C,2.235200*%
%ADD11R,1.254000X1.354000*%
%ADD12R,1.154000X1.054000*%
%ADD13R,1.354000X1.254000*%
%ADD14C,0.400000*%
%ADD15R,1.750000X1.750000*%
%ADD16R,0.700000X0.400000*%
%ADD17R,0.400000X0.700000*%
%ADD18R,0.454000X1.104000*%
%ADD19R,2.204000X2.204000*%
%ADD20R,1.254000X0.504000*%
%ADD21R,3.500000X0.450000*%
%ADD22R,1.778000X1.778000*%
%ADD23P,1.924489X8X112.500000*%
%ADD24P,1.924489X8X292.500000*%
%ADD25C,5.588000*%


D10*
X402844Y133350D02*
X422656Y133350D01*
X422656Y158750D02*
X402844Y158750D01*
X402844Y107950D02*
X422656Y107950D01*
D11*
X152400Y118500D03*
X152400Y135500D03*
X273050Y84700D03*
X273050Y67700D03*
X311150Y84700D03*
X311150Y67700D03*
X349250Y84700D03*
X349250Y67700D03*
X273050Y179950D03*
X273050Y162950D03*
X177800Y52950D03*
X177800Y35950D03*
X95250Y52950D03*
X95250Y35950D03*
X107950Y118500D03*
X107950Y135500D03*
X146050Y52950D03*
X146050Y35950D03*
D12*
X130650Y53950D03*
X130650Y34950D03*
X109650Y44450D03*
D10*
X35306Y139700D02*
X15494Y139700D01*
X15494Y114300D02*
X35306Y114300D01*
D12*
X53500Y79400D03*
X53500Y98400D03*
X74500Y88900D03*
D13*
X133350Y135500D03*
X133350Y118500D03*
X171450Y118500D03*
X171450Y135500D03*
D11*
X72000Y63500D03*
X55000Y63500D03*
D13*
X273050Y131200D03*
X273050Y148200D03*
X273050Y99450D03*
X273050Y116450D03*
X254000Y116450D03*
X254000Y99450D03*
X254000Y148200D03*
X254000Y131200D03*
X368300Y84700D03*
X368300Y67700D03*
D11*
X72000Y133350D03*
X55000Y133350D03*
D13*
X292100Y67700D03*
X292100Y84700D03*
X330200Y84700D03*
X330200Y67700D03*
X292100Y179950D03*
X292100Y162950D03*
X254000Y162950D03*
X254000Y179950D03*
D11*
X55000Y152400D03*
X72000Y152400D03*
X93100Y171450D03*
X110100Y171450D03*
X72000Y114300D03*
X55000Y114300D03*
X55000Y171450D03*
X72000Y171450D03*
D14*
X95950Y81400D03*
X95950Y86400D03*
X95950Y91400D03*
X95950Y96400D03*
X100450Y100900D03*
X105450Y100900D03*
X110450Y100900D03*
X115450Y100900D03*
X119950Y96400D03*
X119950Y91400D03*
X119950Y86400D03*
X119950Y81400D03*
X115450Y76900D03*
X110450Y76900D03*
X105450Y76900D03*
X100450Y76900D03*
D15*
X107950Y88900D03*
D16*
X92450Y81400D03*
X92450Y86400D03*
X92450Y91400D03*
X92450Y96400D03*
D17*
X100450Y104400D03*
X105450Y104400D03*
X110450Y104400D03*
X115450Y104400D03*
D16*
X123450Y96400D03*
X123450Y91400D03*
X123450Y86400D03*
X123450Y81400D03*
D17*
X115450Y73400D03*
X110450Y73400D03*
X105450Y73400D03*
X100450Y73400D03*
D18*
X339250Y146750D03*
X343250Y146750D03*
X347250Y146750D03*
X351250Y146750D03*
X355250Y146750D03*
X359250Y146750D03*
X359250Y107250D03*
X355250Y107250D03*
X351250Y107250D03*
X347250Y107250D03*
X343250Y107250D03*
X339250Y107250D03*
D19*
X349250Y127000D03*
D20*
X337750Y116000D03*
X360750Y138000D03*
X337750Y138000D03*
X360750Y116000D03*
D21*
X349250Y116000D03*
X349250Y138000D03*
D22*
X101600Y12700D03*
D23*
X127000Y12700D03*
X152400Y12700D03*
X177800Y12700D03*
X203200Y12700D03*
X228600Y12700D03*
X254000Y12700D03*
X279400Y12700D03*
X304800Y12700D03*
X330200Y12700D03*
D22*
X298450Y203200D03*
D24*
X273050Y203200D03*
X247650Y203200D03*
X222250Y203200D03*
X196850Y203200D03*
X171450Y203200D03*
X146050Y203200D03*
X120650Y203200D03*
X95250Y203200D03*
X69850Y203200D03*
D25*
X393700Y31750D03*
D11*
X321700Y203200D03*
X338700Y203200D03*
X321700Y184150D03*
X338700Y184150D03*
M02*
