G04 EAGLE Gerber RS-274X export*
G75*
%MOMM*%
%FSLAX34Y34*%
%LPD*%
%INSolder side*%
%IPPOS*%
%AMOC8*
5,1,8,0,0,1.08239X$1,22.5*%
G01*
%ADD10C,1.981200*%
%ADD11R,1.000000X1.100000*%
%ADD12R,0.900000X0.800000*%
%ADD13R,1.100000X1.000000*%
%ADD14R,1.700000X1.700000*%
%ADD15C,0.225000*%
%ADD16R,0.200000X0.850000*%
%ADD17R,1.950000X1.950000*%
%ADD18R,1.000000X0.250000*%
%ADD19R,1.524000X1.524000*%
%ADD20P,1.649562X8X112.500000*%
%ADD21P,1.649562X8X292.500000*%
%ADD22C,5.334000*%
%ADD23C,0.152400*%
%ADD24C,0.508000*%
%ADD25C,0.304800*%
%ADD26C,0.254000*%
%ADD27C,0.900000*%
%ADD28C,0.604000*%

G36*
X365750Y136687D02*
X365750Y136687D01*
X365769Y136699D01*
X365791Y136703D01*
X365798Y136718D01*
X365807Y136724D01*
X365806Y136734D01*
X365813Y136750D01*
X365813Y139250D01*
X365801Y139269D01*
X365797Y139291D01*
X365782Y139298D01*
X365776Y139307D01*
X365766Y139306D01*
X365750Y139313D01*
X332750Y139313D01*
X332731Y139301D01*
X332709Y139297D01*
X332702Y139282D01*
X332693Y139276D01*
X332694Y139266D01*
X332687Y139250D01*
X332687Y136750D01*
X332699Y136731D01*
X332703Y136709D01*
X332718Y136702D01*
X332724Y136693D01*
X332734Y136694D01*
X332750Y136687D01*
X339437Y136687D01*
X339437Y129031D01*
X336896Y129031D01*
X336896Y133130D01*
X336888Y133188D01*
X336889Y133247D01*
X336868Y133328D01*
X336856Y133412D01*
X336832Y133465D01*
X336817Y133522D01*
X336774Y133594D01*
X336740Y133671D01*
X336702Y133716D01*
X336672Y133766D01*
X336610Y133824D01*
X336556Y133888D01*
X336507Y133921D01*
X336465Y133961D01*
X336390Y133999D01*
X336319Y134046D01*
X336264Y134064D01*
X336212Y134090D01*
X336144Y134102D01*
X336048Y134132D01*
X335949Y134134D01*
X335880Y134146D01*
X332407Y134146D01*
X331745Y134323D01*
X331151Y134666D01*
X330666Y135151D01*
X330323Y135745D01*
X330146Y136407D01*
X330146Y139593D01*
X330323Y140255D01*
X330666Y140849D01*
X331151Y141334D01*
X331745Y141677D01*
X332407Y141854D01*
X334694Y141854D01*
X334752Y141862D01*
X334810Y141861D01*
X334892Y141882D01*
X334976Y141894D01*
X335029Y141918D01*
X335085Y141933D01*
X335158Y141976D01*
X335235Y142010D01*
X335280Y142048D01*
X335330Y142078D01*
X335388Y142140D01*
X335452Y142194D01*
X335484Y142243D01*
X335524Y142285D01*
X335563Y142360D01*
X335610Y142431D01*
X335627Y142486D01*
X335654Y142538D01*
X335665Y142606D01*
X335695Y142702D01*
X335698Y142801D01*
X335709Y142869D01*
X335709Y145735D01*
X339250Y145735D01*
X339308Y145743D01*
X339366Y145741D01*
X339448Y145763D01*
X339531Y145774D01*
X339585Y145798D01*
X339641Y145813D01*
X339714Y145856D01*
X339791Y145891D01*
X339835Y145928D01*
X339885Y145958D01*
X339886Y145959D01*
X339943Y146020D01*
X340008Y146074D01*
X340008Y146075D01*
X340040Y146123D01*
X340080Y146166D01*
X340119Y146241D01*
X340166Y146311D01*
X340183Y146367D01*
X340210Y146419D01*
X340221Y146487D01*
X340251Y146582D01*
X340254Y146682D01*
X340265Y146750D01*
X340265Y153798D01*
X340292Y153826D01*
X340356Y153880D01*
X340388Y153929D01*
X340428Y153972D01*
X340467Y154047D01*
X340514Y154117D01*
X340531Y154173D01*
X340558Y154225D01*
X340569Y154293D01*
X340599Y154388D01*
X340602Y154488D01*
X340613Y154556D01*
X340613Y157382D01*
X340601Y157469D01*
X340598Y157556D01*
X340581Y157609D01*
X340573Y157664D01*
X340538Y157744D01*
X340511Y157827D01*
X340483Y157866D01*
X340457Y157923D01*
X340361Y158036D01*
X340316Y158100D01*
X324636Y173780D01*
X324566Y173832D01*
X324502Y173892D01*
X324453Y173918D01*
X324409Y173951D01*
X324327Y173982D01*
X324249Y174022D01*
X324202Y174030D01*
X324143Y174052D01*
X323996Y174064D01*
X323918Y174077D01*
X314806Y174077D01*
X313667Y175216D01*
X313598Y175268D01*
X313534Y175328D01*
X313484Y175354D01*
X313440Y175387D01*
X313358Y175418D01*
X313280Y175458D01*
X313233Y175466D01*
X313174Y175488D01*
X313027Y175500D01*
X312949Y175513D01*
X308936Y175513D01*
X308907Y175509D01*
X308878Y175512D01*
X308767Y175489D01*
X308655Y175473D01*
X308628Y175461D01*
X308599Y175456D01*
X308498Y175403D01*
X308395Y175357D01*
X308373Y175338D01*
X308347Y175325D01*
X308265Y175247D01*
X308178Y175174D01*
X308162Y175149D01*
X308141Y175129D01*
X308083Y175031D01*
X308021Y174937D01*
X308012Y174909D01*
X307997Y174884D01*
X307969Y174774D01*
X307935Y174666D01*
X307934Y174636D01*
X307927Y174608D01*
X307930Y174495D01*
X307928Y174382D01*
X307935Y174353D01*
X307936Y174324D01*
X307971Y174216D01*
X307999Y174107D01*
X308014Y174081D01*
X308023Y174053D01*
X308069Y173989D01*
X308145Y173862D01*
X308190Y173819D01*
X308218Y173780D01*
X308865Y173134D01*
X308865Y169766D01*
X306484Y167385D01*
X303116Y167385D01*
X302161Y168341D01*
X302114Y168376D01*
X302074Y168419D01*
X302001Y168461D01*
X301933Y168512D01*
X301879Y168533D01*
X301828Y168562D01*
X301747Y168583D01*
X301668Y168613D01*
X301609Y168618D01*
X301553Y168632D01*
X301469Y168630D01*
X301385Y168637D01*
X301327Y168625D01*
X301269Y168623D01*
X301188Y168597D01*
X301106Y168581D01*
X301054Y168554D01*
X300998Y168536D01*
X300942Y168496D01*
X300853Y168450D01*
X300781Y168381D01*
X300725Y168341D01*
X299422Y167038D01*
X299370Y166968D01*
X299310Y166904D01*
X299284Y166855D01*
X299251Y166811D01*
X299220Y166729D01*
X299180Y166651D01*
X299172Y166604D01*
X299150Y166545D01*
X299140Y166422D01*
X299139Y166419D01*
X299138Y166406D01*
X299138Y166398D01*
X299125Y166320D01*
X299125Y161274D01*
X299129Y161245D01*
X299126Y161216D01*
X299149Y161105D01*
X299165Y160993D01*
X299177Y160966D01*
X299182Y160937D01*
X299235Y160837D01*
X299281Y160733D01*
X299300Y160711D01*
X299313Y160685D01*
X299391Y160603D01*
X299464Y160516D01*
X299489Y160500D01*
X299509Y160479D01*
X299607Y160421D01*
X299701Y160359D01*
X299729Y160350D01*
X299754Y160335D01*
X299864Y160307D01*
X299972Y160273D01*
X300002Y160272D01*
X300030Y160265D01*
X300143Y160268D01*
X300256Y160266D01*
X300285Y160273D01*
X300314Y160274D01*
X300422Y160309D01*
X300531Y160337D01*
X300557Y160352D01*
X300585Y160361D01*
X300648Y160407D01*
X300776Y160483D01*
X300819Y160528D01*
X300858Y160556D01*
X303116Y162815D01*
X306484Y162815D01*
X308865Y160434D01*
X308865Y157066D01*
X306484Y154685D01*
X304390Y154685D01*
X304303Y154673D01*
X304216Y154670D01*
X304163Y154653D01*
X304108Y154645D01*
X304028Y154610D01*
X303945Y154583D01*
X303906Y154555D01*
X303849Y154529D01*
X303736Y154433D01*
X303672Y154388D01*
X299397Y150113D01*
X284803Y150113D01*
X283166Y151750D01*
X281808Y153108D01*
X281784Y153126D01*
X281765Y153148D01*
X281671Y153211D01*
X281581Y153279D01*
X281553Y153290D01*
X281529Y153306D01*
X281421Y153340D01*
X281315Y153380D01*
X281286Y153383D01*
X281258Y153392D01*
X281144Y153395D01*
X281032Y153404D01*
X281003Y153398D01*
X280974Y153399D01*
X280864Y153370D01*
X280753Y153348D01*
X280727Y153334D01*
X280699Y153327D01*
X280601Y153269D01*
X280501Y153217D01*
X280479Y153197D01*
X280454Y153182D01*
X280377Y153099D01*
X280295Y153021D01*
X280280Y152996D01*
X280260Y152975D01*
X280208Y152874D01*
X280151Y152776D01*
X280144Y152748D01*
X280130Y152721D01*
X280117Y152644D01*
X280081Y152500D01*
X280083Y152438D01*
X280075Y152390D01*
X280075Y142568D01*
X279182Y141675D01*
X266918Y141675D01*
X266148Y142446D01*
X266124Y142463D01*
X266105Y142486D01*
X266011Y142549D01*
X265921Y142617D01*
X265893Y142627D01*
X265869Y142643D01*
X265761Y142678D01*
X265655Y142718D01*
X265626Y142720D01*
X265598Y142729D01*
X265484Y142732D01*
X265372Y142742D01*
X265343Y142736D01*
X265314Y142737D01*
X265204Y142708D01*
X265093Y142686D01*
X265067Y142672D01*
X265039Y142665D01*
X264941Y142607D01*
X264841Y142555D01*
X264819Y142534D01*
X264794Y142519D01*
X264717Y142437D01*
X264635Y142359D01*
X264620Y142334D01*
X264600Y142312D01*
X264548Y142211D01*
X264491Y142114D01*
X264484Y142085D01*
X264470Y142059D01*
X264457Y141982D01*
X264421Y141838D01*
X264423Y141776D01*
X264415Y141728D01*
X264415Y138580D01*
X262033Y136198D01*
X261982Y136191D01*
X261924Y136193D01*
X261842Y136171D01*
X261758Y136159D01*
X261705Y136136D01*
X261649Y136121D01*
X261576Y136078D01*
X261499Y136043D01*
X261454Y136005D01*
X261404Y135976D01*
X261346Y135914D01*
X261282Y135860D01*
X261250Y135811D01*
X261210Y135768D01*
X261171Y135693D01*
X261124Y135623D01*
X261107Y135567D01*
X261080Y135515D01*
X261069Y135447D01*
X261039Y135352D01*
X261036Y135252D01*
X261025Y135184D01*
X261025Y132080D01*
X261033Y132022D01*
X261031Y131964D01*
X261053Y131882D01*
X261065Y131798D01*
X261088Y131745D01*
X261103Y131689D01*
X261146Y131616D01*
X261181Y131539D01*
X261219Y131494D01*
X261248Y131444D01*
X261310Y131386D01*
X261364Y131322D01*
X261413Y131290D01*
X261456Y131250D01*
X261531Y131211D01*
X261601Y131164D01*
X261657Y131147D01*
X261709Y131120D01*
X261777Y131109D01*
X261872Y131079D01*
X261972Y131076D01*
X262040Y131065D01*
X265010Y131065D01*
X265068Y131073D01*
X265126Y131071D01*
X265208Y131093D01*
X265292Y131105D01*
X265345Y131128D01*
X265401Y131143D01*
X265474Y131186D01*
X265551Y131221D01*
X265596Y131259D01*
X265646Y131288D01*
X265704Y131350D01*
X265768Y131404D01*
X265800Y131453D01*
X265840Y131496D01*
X265879Y131571D01*
X265926Y131641D01*
X265943Y131697D01*
X265970Y131749D01*
X265981Y131817D01*
X266011Y131912D01*
X266014Y132012D01*
X266025Y132080D01*
X266025Y136832D01*
X266918Y137725D01*
X279182Y137725D01*
X280075Y136832D01*
X280075Y136652D01*
X280083Y136594D01*
X280081Y136536D01*
X280103Y136454D01*
X280115Y136370D01*
X280138Y136317D01*
X280153Y136261D01*
X280196Y136188D01*
X280231Y136111D01*
X280269Y136066D01*
X280298Y136016D01*
X280360Y135958D01*
X280414Y135894D01*
X280463Y135862D01*
X280506Y135822D01*
X280581Y135783D01*
X280651Y135736D01*
X280707Y135719D01*
X280759Y135692D01*
X280827Y135681D01*
X280922Y135651D01*
X281022Y135648D01*
X281090Y135637D01*
X294568Y135637D01*
X294654Y135649D01*
X294742Y135652D01*
X294794Y135669D01*
X294849Y135677D01*
X294929Y135712D01*
X295012Y135739D01*
X295052Y135767D01*
X295109Y135793D01*
X295222Y135889D01*
X295286Y135934D01*
X296766Y137415D01*
X300134Y137415D01*
X302515Y135034D01*
X302515Y131666D01*
X300134Y129285D01*
X296766Y129285D01*
X295286Y130766D01*
X295216Y130818D01*
X295152Y130878D01*
X295103Y130904D01*
X295058Y130937D01*
X294977Y130968D01*
X294899Y131008D01*
X294851Y131016D01*
X294793Y131038D01*
X294645Y131050D01*
X294568Y131063D01*
X281090Y131063D01*
X281032Y131055D01*
X280974Y131057D01*
X280892Y131035D01*
X280808Y131023D01*
X280755Y131000D01*
X280699Y130985D01*
X280626Y130942D01*
X280549Y130907D01*
X280504Y130869D01*
X280454Y130840D01*
X280396Y130778D01*
X280332Y130724D01*
X280300Y130675D01*
X280260Y130632D01*
X280221Y130557D01*
X280174Y130487D01*
X280157Y130431D01*
X280130Y130379D01*
X280119Y130311D01*
X280089Y130216D01*
X280086Y130116D01*
X280075Y130048D01*
X280075Y125568D01*
X279049Y124543D01*
X279014Y124496D01*
X278972Y124456D01*
X278929Y124383D01*
X278878Y124316D01*
X278857Y124261D01*
X278828Y124211D01*
X278807Y124129D01*
X278777Y124050D01*
X278772Y123992D01*
X278758Y123935D01*
X278761Y123851D01*
X278754Y123767D01*
X278765Y123709D01*
X278767Y123651D01*
X278793Y123571D01*
X278809Y123488D01*
X278836Y123436D01*
X278854Y123380D01*
X278894Y123324D01*
X278940Y123236D01*
X279009Y123163D01*
X279049Y123107D01*
X280075Y122082D01*
X280075Y119752D01*
X280083Y119694D01*
X280081Y119636D01*
X280103Y119554D01*
X280115Y119470D01*
X280138Y119417D01*
X280153Y119361D01*
X280196Y119288D01*
X280231Y119211D01*
X280269Y119166D01*
X280298Y119116D01*
X280360Y119058D01*
X280414Y118994D01*
X280463Y118962D01*
X280506Y118922D01*
X280581Y118883D01*
X280651Y118836D01*
X280707Y118819D01*
X280759Y118792D01*
X280827Y118781D01*
X280922Y118751D01*
X281022Y118748D01*
X281090Y118737D01*
X297247Y118737D01*
X297322Y118662D01*
X297392Y118610D01*
X297456Y118550D01*
X297505Y118524D01*
X297549Y118491D01*
X297631Y118460D01*
X297709Y118420D01*
X297756Y118412D01*
X297815Y118390D01*
X297962Y118378D01*
X298040Y118365D01*
X300134Y118365D01*
X302515Y115984D01*
X302515Y112616D01*
X300134Y110235D01*
X296766Y110235D01*
X294385Y112616D01*
X294385Y113148D01*
X294377Y113206D01*
X294379Y113264D01*
X294357Y113346D01*
X294345Y113430D01*
X294322Y113483D01*
X294307Y113539D01*
X294264Y113612D01*
X294229Y113689D01*
X294191Y113734D01*
X294162Y113784D01*
X294100Y113842D01*
X294046Y113906D01*
X293997Y113938D01*
X293954Y113978D01*
X293879Y114017D01*
X293809Y114064D01*
X293753Y114081D01*
X293701Y114108D01*
X293633Y114119D01*
X293538Y114149D01*
X293438Y114152D01*
X293370Y114163D01*
X281090Y114163D01*
X281032Y114155D01*
X280974Y114157D01*
X280892Y114135D01*
X280808Y114123D01*
X280755Y114100D01*
X280699Y114085D01*
X280626Y114042D01*
X280549Y114007D01*
X280504Y113969D01*
X280454Y113940D01*
X280396Y113878D01*
X280332Y113824D01*
X280300Y113775D01*
X280260Y113732D01*
X280221Y113657D01*
X280174Y113587D01*
X280157Y113531D01*
X280130Y113479D01*
X280119Y113411D01*
X280089Y113316D01*
X280086Y113216D01*
X280075Y113148D01*
X280075Y110818D01*
X280012Y110756D01*
X279995Y110732D01*
X279972Y110713D01*
X279909Y110619D01*
X279841Y110529D01*
X279831Y110501D01*
X279815Y110477D01*
X279780Y110369D01*
X279740Y110263D01*
X279738Y110234D01*
X279729Y110206D01*
X279726Y110093D01*
X279716Y109980D01*
X279722Y109951D01*
X279721Y109922D01*
X279750Y109812D01*
X279772Y109701D01*
X279786Y109675D01*
X279793Y109647D01*
X279851Y109549D01*
X279903Y109449D01*
X279924Y109427D01*
X279939Y109402D01*
X280021Y109325D01*
X280099Y109243D01*
X280124Y109228D01*
X280146Y109208D01*
X280247Y109156D01*
X280344Y109099D01*
X280373Y109092D01*
X280378Y109089D01*
X287433Y102034D01*
X287502Y101982D01*
X287566Y101922D01*
X287616Y101896D01*
X287660Y101863D01*
X287742Y101832D01*
X287820Y101792D01*
X287867Y101784D01*
X287926Y101762D01*
X288073Y101750D01*
X288151Y101737D01*
X293370Y101737D01*
X293428Y101745D01*
X293486Y101743D01*
X293568Y101765D01*
X293652Y101777D01*
X293705Y101800D01*
X293761Y101815D01*
X293834Y101858D01*
X293911Y101893D01*
X293956Y101931D01*
X294006Y101960D01*
X294064Y102022D01*
X294128Y102076D01*
X294160Y102125D01*
X294200Y102168D01*
X294239Y102243D01*
X294286Y102313D01*
X294303Y102369D01*
X294330Y102421D01*
X294341Y102489D01*
X294371Y102584D01*
X294374Y102684D01*
X294385Y102752D01*
X294385Y103284D01*
X296766Y105665D01*
X300134Y105665D01*
X302515Y103284D01*
X302515Y99916D01*
X300134Y97535D01*
X298040Y97535D01*
X297953Y97523D01*
X297866Y97520D01*
X297813Y97503D01*
X297758Y97495D01*
X297678Y97460D01*
X297595Y97433D01*
X297556Y97405D01*
X297499Y97379D01*
X297386Y97283D01*
X297322Y97238D01*
X297247Y97163D01*
X285836Y97163D01*
X281808Y101191D01*
X281784Y101209D01*
X281765Y101231D01*
X281671Y101294D01*
X281581Y101362D01*
X281553Y101372D01*
X281529Y101389D01*
X281421Y101423D01*
X281315Y101463D01*
X281286Y101466D01*
X281258Y101474D01*
X281144Y101477D01*
X281032Y101487D01*
X281003Y101481D01*
X280974Y101482D01*
X280864Y101453D01*
X280753Y101431D01*
X280727Y101417D01*
X280699Y101410D01*
X280601Y101352D01*
X280501Y101300D01*
X280479Y101280D01*
X280454Y101265D01*
X280377Y101182D01*
X280295Y101104D01*
X280280Y101079D01*
X280260Y101057D01*
X280208Y100957D01*
X280151Y100859D01*
X280144Y100830D01*
X280130Y100804D01*
X280117Y100727D01*
X280081Y100583D01*
X280083Y100521D01*
X280075Y100473D01*
X280075Y93818D01*
X279049Y92793D01*
X279014Y92746D01*
X278972Y92706D01*
X278929Y92633D01*
X278878Y92566D01*
X278858Y92511D01*
X278828Y92461D01*
X278807Y92379D01*
X278777Y92300D01*
X278772Y92242D01*
X278758Y92185D01*
X278761Y92101D01*
X278754Y92017D01*
X278765Y91959D01*
X278767Y91901D01*
X278793Y91821D01*
X278809Y91738D01*
X278836Y91686D01*
X278854Y91630D01*
X278894Y91574D01*
X278940Y91486D01*
X279009Y91413D01*
X279049Y91357D01*
X279575Y90832D01*
X279575Y88764D01*
X279583Y88706D01*
X279581Y88648D01*
X279603Y88566D01*
X279615Y88482D01*
X279638Y88429D01*
X279653Y88373D01*
X279696Y88300D01*
X279731Y88223D01*
X279769Y88178D01*
X279798Y88128D01*
X279860Y88070D01*
X279914Y88006D01*
X279963Y87974D01*
X280006Y87934D01*
X280081Y87895D01*
X280151Y87848D01*
X280207Y87831D01*
X280259Y87804D01*
X280327Y87793D01*
X280422Y87763D01*
X280522Y87760D01*
X280590Y87749D01*
X284060Y87749D01*
X284118Y87757D01*
X284176Y87755D01*
X284258Y87777D01*
X284342Y87789D01*
X284395Y87812D01*
X284451Y87827D01*
X284524Y87870D01*
X284601Y87905D01*
X284646Y87943D01*
X284696Y87972D01*
X284754Y88034D01*
X284818Y88088D01*
X284850Y88137D01*
X284890Y88180D01*
X284929Y88255D01*
X284976Y88325D01*
X284993Y88381D01*
X285020Y88433D01*
X285031Y88501D01*
X285061Y88596D01*
X285064Y88696D01*
X285075Y88764D01*
X285075Y90332D01*
X285968Y91225D01*
X298232Y91225D01*
X299125Y90332D01*
X299125Y88764D01*
X299133Y88706D01*
X299131Y88648D01*
X299153Y88566D01*
X299165Y88482D01*
X299188Y88429D01*
X299203Y88373D01*
X299246Y88300D01*
X299281Y88223D01*
X299319Y88178D01*
X299348Y88128D01*
X299410Y88070D01*
X299464Y88006D01*
X299513Y87974D01*
X299556Y87934D01*
X299631Y87895D01*
X299701Y87848D01*
X299757Y87831D01*
X299809Y87804D01*
X299877Y87793D01*
X299972Y87763D01*
X300072Y87760D01*
X300140Y87749D01*
X303610Y87749D01*
X303668Y87757D01*
X303726Y87755D01*
X303808Y87777D01*
X303892Y87789D01*
X303945Y87812D01*
X304001Y87827D01*
X304074Y87870D01*
X304151Y87905D01*
X304196Y87943D01*
X304246Y87972D01*
X304304Y88034D01*
X304368Y88088D01*
X304400Y88137D01*
X304440Y88180D01*
X304479Y88255D01*
X304526Y88325D01*
X304543Y88381D01*
X304570Y88433D01*
X304581Y88501D01*
X304611Y88596D01*
X304614Y88696D01*
X304625Y88764D01*
X304625Y90832D01*
X305518Y91725D01*
X307086Y91725D01*
X307144Y91733D01*
X307202Y91731D01*
X307284Y91753D01*
X307368Y91765D01*
X307421Y91788D01*
X307477Y91803D01*
X307550Y91846D01*
X307627Y91881D01*
X307672Y91919D01*
X307722Y91948D01*
X307780Y92010D01*
X307844Y92064D01*
X307876Y92113D01*
X307916Y92156D01*
X307955Y92231D01*
X308002Y92301D01*
X308019Y92357D01*
X308046Y92409D01*
X308057Y92477D01*
X308087Y92572D01*
X308090Y92672D01*
X308101Y92740D01*
X308101Y102863D01*
X315955Y110717D01*
X330738Y110717D01*
X330758Y110719D01*
X330777Y110717D01*
X330898Y110739D01*
X331020Y110757D01*
X331038Y110765D01*
X331057Y110768D01*
X331167Y110823D01*
X331279Y110873D01*
X331294Y110885D01*
X331312Y110894D01*
X331403Y110977D01*
X331496Y111056D01*
X331507Y111073D01*
X331522Y111086D01*
X331586Y111191D01*
X331654Y111293D01*
X331660Y111312D01*
X331670Y111329D01*
X331702Y111447D01*
X331740Y111564D01*
X331740Y111584D01*
X331745Y111603D01*
X331744Y111725D01*
X331747Y111848D01*
X331742Y111867D01*
X331742Y111887D01*
X331706Y112005D01*
X331675Y112123D01*
X331665Y112140D01*
X331659Y112159D01*
X331593Y112262D01*
X331530Y112368D01*
X331516Y112381D01*
X331505Y112398D01*
X331448Y112444D01*
X331323Y112562D01*
X331277Y112586D01*
X331246Y112611D01*
X331151Y112666D01*
X330666Y113151D01*
X330323Y113745D01*
X330146Y114407D01*
X330146Y117593D01*
X330323Y118255D01*
X330666Y118849D01*
X331151Y119334D01*
X331745Y119677D01*
X332407Y119854D01*
X335880Y119854D01*
X335938Y119862D01*
X335997Y119861D01*
X336078Y119882D01*
X336162Y119894D01*
X336215Y119918D01*
X336272Y119933D01*
X336344Y119976D01*
X336421Y120010D01*
X336466Y120048D01*
X336516Y120078D01*
X336574Y120140D01*
X336638Y120194D01*
X336671Y120243D01*
X336711Y120285D01*
X336749Y120360D01*
X336796Y120431D01*
X336814Y120486D01*
X336840Y120538D01*
X336852Y120606D01*
X336882Y120702D01*
X336884Y120801D01*
X336896Y120869D01*
X336896Y124969D01*
X339437Y124969D01*
X339437Y117313D01*
X332750Y117313D01*
X332731Y117301D01*
X332709Y117297D01*
X332702Y117282D01*
X332693Y117276D01*
X332694Y117266D01*
X332687Y117250D01*
X332687Y114750D01*
X332699Y114731D01*
X332703Y114709D01*
X332718Y114702D01*
X332724Y114693D01*
X332734Y114694D01*
X332750Y114687D01*
X365750Y114687D01*
X365769Y114699D01*
X365791Y114703D01*
X365798Y114718D01*
X365807Y114724D01*
X365806Y114734D01*
X365813Y114750D01*
X365813Y117250D01*
X365801Y117269D01*
X365797Y117291D01*
X365782Y117298D01*
X365776Y117307D01*
X365766Y117306D01*
X365750Y117313D01*
X359063Y117313D01*
X359063Y124969D01*
X361604Y124969D01*
X361604Y120869D01*
X361612Y120812D01*
X361611Y120753D01*
X361632Y120672D01*
X361644Y120588D01*
X361668Y120535D01*
X361683Y120478D01*
X361726Y120406D01*
X361760Y120329D01*
X361798Y120284D01*
X361828Y120234D01*
X361890Y120176D01*
X361944Y120112D01*
X361993Y120079D01*
X362035Y120039D01*
X362110Y120001D01*
X362181Y119954D01*
X362236Y119936D01*
X362288Y119910D01*
X362356Y119898D01*
X362452Y119868D01*
X362551Y119866D01*
X362619Y119854D01*
X366093Y119854D01*
X366755Y119677D01*
X367349Y119334D01*
X367834Y118849D01*
X368177Y118255D01*
X368354Y117593D01*
X368354Y114407D01*
X368175Y113738D01*
X368173Y113719D01*
X368166Y113700D01*
X368155Y113578D01*
X368141Y113456D01*
X368144Y113437D01*
X368142Y113417D01*
X368166Y113296D01*
X368186Y113175D01*
X368194Y113158D01*
X368198Y113138D01*
X368255Y113029D01*
X368307Y112918D01*
X368320Y112903D01*
X368329Y112886D01*
X368414Y112797D01*
X368495Y112705D01*
X368511Y112694D01*
X368525Y112680D01*
X368631Y112618D01*
X368734Y112552D01*
X368753Y112546D01*
X368770Y112536D01*
X368889Y112506D01*
X369007Y112471D01*
X369027Y112471D01*
X369046Y112466D01*
X369168Y112470D01*
X369291Y112469D01*
X369310Y112474D01*
X369330Y112475D01*
X369447Y112513D01*
X369565Y112546D01*
X369582Y112557D01*
X369600Y112563D01*
X369660Y112605D01*
X369806Y112696D01*
X369841Y112734D01*
X369874Y112757D01*
X372066Y114950D01*
X372118Y115020D01*
X372178Y115084D01*
X372204Y115133D01*
X372237Y115177D01*
X372268Y115259D01*
X372308Y115337D01*
X372316Y115384D01*
X372338Y115443D01*
X372350Y115590D01*
X372363Y115668D01*
X372363Y116768D01*
X372351Y116854D01*
X372348Y116942D01*
X372331Y116994D01*
X372323Y117049D01*
X372288Y117129D01*
X372261Y117212D01*
X372233Y117252D01*
X372207Y117309D01*
X372111Y117422D01*
X372066Y117486D01*
X370585Y118966D01*
X370585Y122334D01*
X372966Y124715D01*
X376334Y124715D01*
X378715Y122334D01*
X378715Y118966D01*
X377234Y117486D01*
X377182Y117416D01*
X377122Y117352D01*
X377096Y117303D01*
X377063Y117258D01*
X377032Y117177D01*
X376992Y117099D01*
X376984Y117051D01*
X376962Y116993D01*
X376950Y116845D01*
X376937Y116768D01*
X376937Y113353D01*
X369247Y105663D01*
X362790Y105663D01*
X362732Y105655D01*
X362674Y105657D01*
X362592Y105635D01*
X362508Y105623D01*
X362455Y105600D01*
X362399Y105585D01*
X362326Y105542D01*
X362249Y105507D01*
X362204Y105469D01*
X362154Y105440D01*
X362096Y105378D01*
X362032Y105324D01*
X362000Y105275D01*
X361960Y105232D01*
X361921Y105157D01*
X361874Y105087D01*
X361857Y105031D01*
X361830Y104979D01*
X361819Y104911D01*
X361789Y104816D01*
X361786Y104716D01*
X361775Y104648D01*
X361775Y104016D01*
X361783Y103958D01*
X361781Y103900D01*
X361803Y103818D01*
X361815Y103734D01*
X361838Y103681D01*
X361853Y103625D01*
X361896Y103552D01*
X361931Y103475D01*
X361969Y103430D01*
X361998Y103380D01*
X362060Y103322D01*
X362114Y103258D01*
X362163Y103226D01*
X362206Y103186D01*
X362281Y103147D01*
X362351Y103100D01*
X362407Y103083D01*
X362459Y103056D01*
X362527Y103045D01*
X362622Y103015D01*
X362722Y103012D01*
X364370Y101364D01*
X370587Y95147D01*
X370587Y92240D01*
X370595Y92182D01*
X370593Y92124D01*
X370615Y92042D01*
X370627Y91958D01*
X370650Y91905D01*
X370665Y91849D01*
X370708Y91776D01*
X370743Y91699D01*
X370781Y91654D01*
X370810Y91604D01*
X370872Y91546D01*
X370926Y91482D01*
X370975Y91450D01*
X371018Y91410D01*
X371093Y91371D01*
X371163Y91324D01*
X371219Y91307D01*
X371271Y91280D01*
X371339Y91269D01*
X371434Y91239D01*
X371534Y91236D01*
X371602Y91225D01*
X374432Y91225D01*
X375325Y90332D01*
X375325Y79068D01*
X374432Y78175D01*
X367030Y78175D01*
X366972Y78167D01*
X366914Y78169D01*
X366832Y78147D01*
X366748Y78135D01*
X366695Y78112D01*
X366639Y78097D01*
X366566Y78054D01*
X366489Y78019D01*
X366444Y77981D01*
X366394Y77952D01*
X366336Y77890D01*
X366272Y77836D01*
X366240Y77787D01*
X366200Y77744D01*
X366161Y77669D01*
X366114Y77599D01*
X366097Y77543D01*
X366070Y77491D01*
X366059Y77423D01*
X366029Y77328D01*
X366026Y77228D01*
X366015Y77160D01*
X366015Y75240D01*
X366023Y75182D01*
X366021Y75124D01*
X366043Y75042D01*
X366055Y74958D01*
X366078Y74905D01*
X366093Y74849D01*
X366136Y74776D01*
X366171Y74699D01*
X366209Y74654D01*
X366238Y74604D01*
X366300Y74546D01*
X366354Y74482D01*
X366403Y74450D01*
X366446Y74410D01*
X366521Y74371D01*
X366591Y74324D01*
X366647Y74307D01*
X366699Y74280D01*
X366767Y74269D01*
X366862Y74239D01*
X366962Y74236D01*
X367030Y74225D01*
X374432Y74225D01*
X375325Y73332D01*
X375325Y62068D01*
X374432Y61175D01*
X362168Y61175D01*
X361275Y62068D01*
X361275Y70556D01*
X361267Y70614D01*
X361269Y70672D01*
X361247Y70754D01*
X361235Y70838D01*
X361212Y70891D01*
X361197Y70947D01*
X361154Y71020D01*
X361119Y71097D01*
X361081Y71142D01*
X361052Y71192D01*
X360990Y71250D01*
X360936Y71314D01*
X360887Y71346D01*
X360844Y71386D01*
X360769Y71425D01*
X360699Y71472D01*
X360643Y71489D01*
X360591Y71516D01*
X360523Y71527D01*
X360428Y71557D01*
X360328Y71560D01*
X360268Y71570D01*
X358524Y73314D01*
X358500Y73331D01*
X358481Y73354D01*
X358387Y73417D01*
X358297Y73485D01*
X358269Y73495D01*
X358245Y73511D01*
X358137Y73546D01*
X358031Y73586D01*
X358002Y73588D01*
X357974Y73597D01*
X357860Y73600D01*
X357748Y73609D01*
X357719Y73604D01*
X357690Y73604D01*
X357580Y73576D01*
X357469Y73554D01*
X357443Y73540D01*
X357415Y73533D01*
X357317Y73475D01*
X357217Y73423D01*
X357195Y73402D01*
X357170Y73387D01*
X357092Y73305D01*
X357011Y73227D01*
X356996Y73201D01*
X356976Y73180D01*
X356924Y73079D01*
X356867Y72981D01*
X356860Y72953D01*
X356846Y72927D01*
X356833Y72850D01*
X356797Y72706D01*
X356799Y72643D01*
X356791Y72596D01*
X356791Y69731D01*
X350266Y69731D01*
X350208Y69723D01*
X350150Y69724D01*
X350068Y69703D01*
X349985Y69691D01*
X349931Y69667D01*
X349875Y69653D01*
X349802Y69610D01*
X349725Y69575D01*
X349681Y69537D01*
X349630Y69507D01*
X349573Y69446D01*
X349508Y69391D01*
X349476Y69343D01*
X349436Y69300D01*
X349397Y69225D01*
X349351Y69155D01*
X349333Y69099D01*
X349306Y69047D01*
X349295Y68979D01*
X349265Y68884D01*
X349262Y68784D01*
X349251Y68716D01*
X349251Y67699D01*
X349249Y67699D01*
X349249Y68716D01*
X349241Y68774D01*
X349242Y68832D01*
X349221Y68914D01*
X349209Y68997D01*
X349185Y69051D01*
X349171Y69107D01*
X349128Y69180D01*
X349093Y69257D01*
X349055Y69301D01*
X349025Y69352D01*
X348964Y69409D01*
X348909Y69474D01*
X348861Y69506D01*
X348818Y69546D01*
X348743Y69585D01*
X348673Y69631D01*
X348617Y69649D01*
X348565Y69676D01*
X348497Y69687D01*
X348402Y69717D01*
X348302Y69720D01*
X348234Y69731D01*
X341709Y69731D01*
X341709Y72447D01*
X341705Y72476D01*
X341708Y72505D01*
X341685Y72616D01*
X341669Y72728D01*
X341657Y72755D01*
X341652Y72784D01*
X341599Y72884D01*
X341553Y72988D01*
X341534Y73010D01*
X341521Y73036D01*
X341443Y73118D01*
X341370Y73205D01*
X341345Y73221D01*
X341325Y73242D01*
X341227Y73299D01*
X341133Y73362D01*
X341105Y73371D01*
X341080Y73386D01*
X340970Y73414D01*
X340862Y73448D01*
X340832Y73449D01*
X340804Y73456D01*
X340691Y73452D01*
X340578Y73455D01*
X340549Y73448D01*
X340520Y73447D01*
X340412Y73412D01*
X340303Y73383D01*
X340277Y73368D01*
X340249Y73359D01*
X340186Y73314D01*
X340058Y73238D01*
X340015Y73193D01*
X339976Y73165D01*
X337522Y70711D01*
X337470Y70641D01*
X337410Y70577D01*
X337384Y70527D01*
X337351Y70483D01*
X337320Y70402D01*
X337280Y70324D01*
X337272Y70276D01*
X337250Y70218D01*
X337238Y70070D01*
X337225Y69993D01*
X337225Y62068D01*
X336332Y61175D01*
X324068Y61175D01*
X323175Y62068D01*
X323175Y63636D01*
X323167Y63694D01*
X323169Y63752D01*
X323147Y63834D01*
X323135Y63918D01*
X323112Y63971D01*
X323097Y64027D01*
X323054Y64100D01*
X323019Y64177D01*
X322981Y64222D01*
X322952Y64272D01*
X322890Y64330D01*
X322836Y64394D01*
X322787Y64426D01*
X322744Y64466D01*
X322669Y64505D01*
X322599Y64552D01*
X322543Y64569D01*
X322491Y64596D01*
X322423Y64607D01*
X322328Y64637D01*
X322228Y64640D01*
X322160Y64651D01*
X318690Y64651D01*
X318632Y64643D01*
X318574Y64645D01*
X318492Y64623D01*
X318408Y64611D01*
X318355Y64588D01*
X318299Y64573D01*
X318226Y64530D01*
X318149Y64495D01*
X318104Y64457D01*
X318054Y64428D01*
X317996Y64366D01*
X317932Y64312D01*
X317900Y64263D01*
X317860Y64220D01*
X317821Y64145D01*
X317774Y64075D01*
X317757Y64019D01*
X317730Y63967D01*
X317719Y63899D01*
X317689Y63804D01*
X317686Y63704D01*
X317675Y63636D01*
X317675Y61568D01*
X316782Y60675D01*
X305518Y60675D01*
X304625Y61568D01*
X304625Y73832D01*
X305518Y74725D01*
X316782Y74725D01*
X317675Y73832D01*
X317675Y71764D01*
X317681Y71717D01*
X317681Y71716D01*
X317682Y71715D01*
X317683Y71706D01*
X317681Y71648D01*
X317703Y71566D01*
X317715Y71482D01*
X317738Y71429D01*
X317753Y71373D01*
X317796Y71300D01*
X317831Y71223D01*
X317869Y71178D01*
X317898Y71128D01*
X317960Y71070D01*
X318014Y71006D01*
X318063Y70974D01*
X318106Y70934D01*
X318181Y70895D01*
X318251Y70848D01*
X318307Y70831D01*
X318359Y70804D01*
X318427Y70793D01*
X318522Y70763D01*
X318622Y70760D01*
X318690Y70749D01*
X322160Y70749D01*
X322218Y70757D01*
X322276Y70755D01*
X322358Y70777D01*
X322442Y70789D01*
X322495Y70812D01*
X322551Y70827D01*
X322624Y70870D01*
X322701Y70905D01*
X322746Y70943D01*
X322796Y70972D01*
X322854Y71034D01*
X322918Y71088D01*
X322950Y71137D01*
X322990Y71180D01*
X323029Y71255D01*
X323076Y71325D01*
X323093Y71381D01*
X323120Y71433D01*
X323131Y71501D01*
X323161Y71596D01*
X323164Y71696D01*
X323175Y71764D01*
X323175Y73332D01*
X324068Y74225D01*
X331993Y74225D01*
X332079Y74237D01*
X332167Y74240D01*
X332219Y74257D01*
X332274Y74265D01*
X332354Y74300D01*
X332437Y74327D01*
X332476Y74355D01*
X332534Y74381D01*
X332647Y74477D01*
X332711Y74522D01*
X334631Y76442D01*
X334648Y76466D01*
X334671Y76485D01*
X334733Y76579D01*
X334801Y76669D01*
X334812Y76697D01*
X334828Y76721D01*
X334862Y76829D01*
X334903Y76935D01*
X334905Y76964D01*
X334914Y76992D01*
X334917Y77106D01*
X334926Y77218D01*
X334921Y77247D01*
X334921Y77276D01*
X334893Y77386D01*
X334870Y77497D01*
X334857Y77523D01*
X334849Y77551D01*
X334792Y77649D01*
X334739Y77749D01*
X334719Y77771D01*
X334704Y77796D01*
X334622Y77873D01*
X334544Y77955D01*
X334518Y77970D01*
X334497Y77990D01*
X334396Y78042D01*
X334298Y78099D01*
X334270Y78106D01*
X334244Y78120D01*
X334166Y78133D01*
X334023Y78169D01*
X333960Y78167D01*
X333913Y78175D01*
X324068Y78175D01*
X323175Y79068D01*
X323175Y90332D01*
X324068Y91225D01*
X326136Y91225D01*
X326194Y91233D01*
X326252Y91231D01*
X326334Y91253D01*
X326418Y91265D01*
X326471Y91288D01*
X326527Y91303D01*
X326600Y91346D01*
X326677Y91381D01*
X326722Y91419D01*
X326772Y91448D01*
X326830Y91510D01*
X326894Y91564D01*
X326926Y91613D01*
X326966Y91656D01*
X327005Y91731D01*
X327052Y91801D01*
X327069Y91857D01*
X327096Y91909D01*
X327107Y91977D01*
X327137Y92072D01*
X327140Y92172D01*
X327151Y92240D01*
X327151Y97801D01*
X327139Y97888D01*
X327136Y97975D01*
X327119Y98028D01*
X327111Y98082D01*
X327076Y98162D01*
X327049Y98246D01*
X327021Y98285D01*
X326995Y98342D01*
X326899Y98455D01*
X326854Y98519D01*
X325655Y99717D01*
X325655Y103604D01*
X325647Y103662D01*
X325649Y103720D01*
X325627Y103802D01*
X325615Y103886D01*
X325592Y103939D01*
X325577Y103995D01*
X325534Y104068D01*
X325499Y104145D01*
X325461Y104190D01*
X325432Y104240D01*
X325370Y104298D01*
X325316Y104362D01*
X325267Y104394D01*
X325224Y104434D01*
X325149Y104473D01*
X325079Y104520D01*
X325023Y104537D01*
X324971Y104564D01*
X324903Y104575D01*
X324808Y104605D01*
X324708Y104608D01*
X324640Y104619D01*
X318901Y104619D01*
X318815Y104607D01*
X318727Y104604D01*
X318675Y104587D01*
X318620Y104579D01*
X318540Y104544D01*
X318457Y104517D01*
X318418Y104489D01*
X318360Y104463D01*
X318247Y104367D01*
X318183Y104322D01*
X314496Y100635D01*
X314444Y100565D01*
X314384Y100501D01*
X314358Y100451D01*
X314325Y100407D01*
X314294Y100326D01*
X314254Y100248D01*
X314246Y100200D01*
X314224Y100142D01*
X314212Y99994D01*
X314199Y99917D01*
X314199Y92740D01*
X314207Y92682D01*
X314205Y92624D01*
X314227Y92542D01*
X314239Y92458D01*
X314262Y92405D01*
X314277Y92349D01*
X314320Y92276D01*
X314355Y92199D01*
X314393Y92154D01*
X314422Y92104D01*
X314484Y92046D01*
X314538Y91982D01*
X314587Y91950D01*
X314630Y91910D01*
X314705Y91871D01*
X314775Y91824D01*
X314831Y91807D01*
X314883Y91780D01*
X314951Y91769D01*
X315046Y91739D01*
X315146Y91736D01*
X315214Y91725D01*
X316782Y91725D01*
X317675Y90832D01*
X317675Y78568D01*
X316782Y77675D01*
X305518Y77675D01*
X304625Y78568D01*
X304625Y80636D01*
X304617Y80694D01*
X304619Y80752D01*
X304597Y80834D01*
X304585Y80918D01*
X304562Y80971D01*
X304547Y81027D01*
X304504Y81100D01*
X304469Y81177D01*
X304431Y81222D01*
X304402Y81272D01*
X304340Y81330D01*
X304286Y81394D01*
X304237Y81426D01*
X304194Y81466D01*
X304119Y81505D01*
X304049Y81552D01*
X303993Y81569D01*
X303941Y81596D01*
X303873Y81607D01*
X303778Y81637D01*
X303678Y81640D01*
X303610Y81651D01*
X300140Y81651D01*
X300082Y81643D01*
X300024Y81645D01*
X299942Y81623D01*
X299858Y81611D01*
X299805Y81588D01*
X299749Y81573D01*
X299676Y81530D01*
X299599Y81495D01*
X299554Y81457D01*
X299504Y81428D01*
X299446Y81366D01*
X299382Y81312D01*
X299350Y81263D01*
X299310Y81220D01*
X299271Y81145D01*
X299224Y81075D01*
X299207Y81019D01*
X299180Y80967D01*
X299169Y80899D01*
X299139Y80804D01*
X299136Y80704D01*
X299125Y80636D01*
X299125Y79068D01*
X298232Y78175D01*
X285968Y78175D01*
X285075Y79068D01*
X285075Y80636D01*
X285067Y80694D01*
X285069Y80752D01*
X285047Y80834D01*
X285035Y80918D01*
X285012Y80971D01*
X284997Y81027D01*
X284954Y81100D01*
X284919Y81177D01*
X284881Y81222D01*
X284852Y81272D01*
X284790Y81330D01*
X284736Y81394D01*
X284687Y81426D01*
X284644Y81466D01*
X284569Y81505D01*
X284499Y81552D01*
X284443Y81569D01*
X284391Y81596D01*
X284323Y81607D01*
X284228Y81637D01*
X284128Y81640D01*
X284060Y81651D01*
X280590Y81651D01*
X280532Y81643D01*
X280474Y81645D01*
X280392Y81623D01*
X280308Y81611D01*
X280255Y81588D01*
X280199Y81573D01*
X280126Y81530D01*
X280049Y81495D01*
X280004Y81457D01*
X279954Y81428D01*
X279896Y81366D01*
X279832Y81312D01*
X279800Y81263D01*
X279760Y81220D01*
X279721Y81145D01*
X279674Y81075D01*
X279657Y81019D01*
X279630Y80967D01*
X279619Y80899D01*
X279589Y80804D01*
X279586Y80704D01*
X279575Y80636D01*
X279575Y78568D01*
X278650Y77643D01*
X278595Y77635D01*
X278586Y77631D01*
X278576Y77630D01*
X278456Y77573D01*
X278335Y77519D01*
X278328Y77513D01*
X278319Y77509D01*
X278219Y77421D01*
X278118Y77336D01*
X278113Y77327D01*
X278105Y77321D01*
X278034Y77209D01*
X277961Y77099D01*
X277958Y77090D01*
X277952Y77081D01*
X277915Y76954D01*
X277875Y76828D01*
X277875Y76818D01*
X277872Y76809D01*
X277871Y76676D01*
X277868Y76544D01*
X277870Y76534D01*
X277870Y76524D01*
X277906Y76396D01*
X277939Y76269D01*
X277944Y76260D01*
X277947Y76251D01*
X278017Y76138D01*
X278085Y76024D01*
X278092Y76017D01*
X278097Y76009D01*
X278195Y75921D01*
X278292Y75830D01*
X278301Y75825D01*
X278308Y75819D01*
X278359Y75795D01*
X278545Y75700D01*
X278581Y75694D01*
X278613Y75679D01*
X279031Y75568D01*
X279610Y75233D01*
X280083Y74760D01*
X280418Y74181D01*
X280591Y73534D01*
X280591Y69731D01*
X274066Y69731D01*
X274008Y69723D01*
X273950Y69724D01*
X273868Y69703D01*
X273785Y69691D01*
X273731Y69667D01*
X273675Y69653D01*
X273602Y69610D01*
X273525Y69575D01*
X273481Y69537D01*
X273430Y69507D01*
X273373Y69446D01*
X273308Y69391D01*
X273276Y69343D01*
X273236Y69300D01*
X273197Y69225D01*
X273151Y69155D01*
X273133Y69099D01*
X273106Y69047D01*
X273095Y68979D01*
X273065Y68884D01*
X273062Y68784D01*
X273051Y68716D01*
X273051Y66684D01*
X273059Y66626D01*
X273058Y66568D01*
X273079Y66486D01*
X273091Y66403D01*
X273115Y66349D01*
X273129Y66293D01*
X273172Y66220D01*
X273207Y66143D01*
X273245Y66098D01*
X273275Y66048D01*
X273336Y65990D01*
X273391Y65926D01*
X273439Y65894D01*
X273482Y65854D01*
X273557Y65815D01*
X273627Y65769D01*
X273683Y65751D01*
X273735Y65724D01*
X273803Y65713D01*
X273898Y65683D01*
X273998Y65680D01*
X274066Y65669D01*
X281097Y65669D01*
X281184Y65681D01*
X281271Y65684D01*
X281324Y65701D01*
X281379Y65709D01*
X281459Y65744D01*
X281542Y65771D01*
X281581Y65799D01*
X281638Y65825D01*
X281751Y65921D01*
X281815Y65966D01*
X284778Y68929D01*
X284830Y68999D01*
X284890Y69063D01*
X284916Y69112D01*
X284949Y69156D01*
X284980Y69238D01*
X285020Y69316D01*
X285028Y69363D01*
X285050Y69422D01*
X285062Y69569D01*
X285075Y69647D01*
X285075Y73332D01*
X285968Y74225D01*
X298232Y74225D01*
X299125Y73332D01*
X299125Y62068D01*
X298232Y61175D01*
X286068Y61175D01*
X285981Y61163D01*
X285894Y61160D01*
X285841Y61143D01*
X285786Y61135D01*
X285707Y61100D01*
X285623Y61073D01*
X285584Y61045D01*
X285527Y61019D01*
X285414Y60923D01*
X285350Y60878D01*
X282659Y58187D01*
X282658Y58186D01*
X280575Y56103D01*
X265910Y56103D01*
X265852Y56095D01*
X265794Y56097D01*
X265712Y56075D01*
X265628Y56063D01*
X265575Y56040D01*
X265519Y56025D01*
X265446Y55982D01*
X265369Y55947D01*
X265324Y55909D01*
X265274Y55880D01*
X265216Y55818D01*
X265152Y55764D01*
X265120Y55715D01*
X265080Y55672D01*
X265041Y55597D01*
X264994Y55527D01*
X264977Y55471D01*
X264950Y55419D01*
X264939Y55351D01*
X264921Y55293D01*
X262233Y52605D01*
X258467Y52605D01*
X255805Y55267D01*
X255805Y59033D01*
X258467Y61695D01*
X260163Y61695D01*
X260249Y61707D01*
X260337Y61710D01*
X260389Y61727D01*
X260444Y61735D01*
X260524Y61770D01*
X260607Y61797D01*
X260646Y61825D01*
X260704Y61851D01*
X260817Y61947D01*
X260881Y61992D01*
X261089Y62201D01*
X264494Y62201D01*
X264552Y62209D01*
X264610Y62207D01*
X264692Y62229D01*
X264776Y62241D01*
X264829Y62264D01*
X264885Y62279D01*
X264958Y62322D01*
X265035Y62357D01*
X265080Y62395D01*
X265130Y62424D01*
X265188Y62486D01*
X265252Y62540D01*
X265284Y62589D01*
X265324Y62632D01*
X265363Y62707D01*
X265410Y62777D01*
X265427Y62833D01*
X265454Y62885D01*
X265465Y62953D01*
X265495Y63048D01*
X265498Y63148D01*
X265509Y63216D01*
X265509Y65669D01*
X272034Y65669D01*
X272092Y65677D01*
X272150Y65675D01*
X272232Y65697D01*
X272315Y65709D01*
X272369Y65733D01*
X272425Y65747D01*
X272498Y65790D01*
X272575Y65825D01*
X272619Y65863D01*
X272670Y65893D01*
X272727Y65954D01*
X272792Y66009D01*
X272824Y66057D01*
X272864Y66100D01*
X272903Y66175D01*
X272949Y66245D01*
X272967Y66301D01*
X272994Y66353D01*
X273005Y66421D01*
X273035Y66516D01*
X273038Y66616D01*
X273049Y66684D01*
X273049Y68716D01*
X273041Y68774D01*
X273042Y68832D01*
X273021Y68914D01*
X273009Y68997D01*
X272985Y69051D01*
X272971Y69107D01*
X272928Y69180D01*
X272893Y69257D01*
X272855Y69301D01*
X272825Y69352D01*
X272764Y69409D01*
X272709Y69474D01*
X272661Y69506D01*
X272618Y69546D01*
X272543Y69585D01*
X272473Y69631D01*
X272417Y69649D01*
X272365Y69676D01*
X272297Y69687D01*
X272202Y69717D01*
X272102Y69720D01*
X272034Y69731D01*
X265509Y69731D01*
X265509Y73534D01*
X265682Y74181D01*
X266017Y74760D01*
X266490Y75233D01*
X267069Y75568D01*
X267487Y75679D01*
X267496Y75683D01*
X267505Y75685D01*
X267626Y75739D01*
X267748Y75791D01*
X267756Y75797D01*
X267765Y75801D01*
X267866Y75887D01*
X267969Y75970D01*
X267974Y75978D01*
X267982Y75985D01*
X268055Y76095D01*
X268131Y76204D01*
X268134Y76213D01*
X268139Y76221D01*
X268179Y76347D01*
X268222Y76473D01*
X268222Y76483D01*
X268225Y76492D01*
X268228Y76625D01*
X268234Y76757D01*
X268232Y76766D01*
X268232Y76776D01*
X268199Y76905D01*
X268168Y77033D01*
X268163Y77042D01*
X268161Y77051D01*
X268093Y77165D01*
X268027Y77281D01*
X268020Y77287D01*
X268015Y77296D01*
X267919Y77386D01*
X267824Y77479D01*
X267815Y77484D01*
X267808Y77490D01*
X267690Y77551D01*
X267573Y77613D01*
X267564Y77615D01*
X267555Y77620D01*
X267499Y77629D01*
X267455Y77639D01*
X266525Y78568D01*
X266525Y84336D01*
X266521Y84365D01*
X266524Y84394D01*
X266501Y84505D01*
X266485Y84617D01*
X266473Y84644D01*
X266468Y84673D01*
X266415Y84774D01*
X266369Y84877D01*
X266350Y84899D01*
X266337Y84925D01*
X266259Y85007D01*
X266186Y85094D01*
X266161Y85110D01*
X266141Y85131D01*
X266043Y85189D01*
X265949Y85251D01*
X265921Y85260D01*
X265896Y85275D01*
X265786Y85303D01*
X265678Y85337D01*
X265648Y85338D01*
X265620Y85345D01*
X265507Y85342D01*
X265394Y85344D01*
X265365Y85337D01*
X265336Y85336D01*
X265228Y85301D01*
X265119Y85273D01*
X265093Y85258D01*
X265065Y85249D01*
X265001Y85203D01*
X264874Y85127D01*
X264831Y85082D01*
X264792Y85054D01*
X264574Y84835D01*
X261206Y84835D01*
X258825Y87216D01*
X258825Y90584D01*
X259434Y91192D01*
X259451Y91216D01*
X259474Y91235D01*
X259537Y91329D01*
X259605Y91419D01*
X259615Y91447D01*
X259631Y91471D01*
X259666Y91579D01*
X259706Y91685D01*
X259708Y91714D01*
X259717Y91742D01*
X259720Y91856D01*
X259729Y91968D01*
X259724Y91997D01*
X259724Y92026D01*
X259696Y92136D01*
X259674Y92247D01*
X259660Y92273D01*
X259653Y92301D01*
X259595Y92399D01*
X259543Y92499D01*
X259522Y92521D01*
X259507Y92546D01*
X259425Y92623D01*
X259347Y92705D01*
X259321Y92720D01*
X259300Y92740D01*
X259199Y92792D01*
X259101Y92849D01*
X259073Y92856D01*
X259047Y92870D01*
X258970Y92883D01*
X258826Y92919D01*
X258763Y92917D01*
X258716Y92925D01*
X247868Y92925D01*
X246975Y93818D01*
X246975Y105082D01*
X247868Y105975D01*
X260132Y105975D01*
X260652Y105454D01*
X260699Y105419D01*
X260739Y105377D01*
X260812Y105334D01*
X260879Y105284D01*
X260934Y105263D01*
X260984Y105233D01*
X261066Y105212D01*
X261145Y105182D01*
X261203Y105177D01*
X261260Y105163D01*
X261344Y105166D01*
X261428Y105159D01*
X261485Y105170D01*
X261544Y105172D01*
X261624Y105198D01*
X261707Y105215D01*
X261759Y105242D01*
X261814Y105260D01*
X261871Y105300D01*
X261959Y105346D01*
X262031Y105414D01*
X262088Y105454D01*
X265721Y109087D01*
X265808Y109133D01*
X265911Y109179D01*
X265933Y109198D01*
X265959Y109211D01*
X266042Y109289D01*
X266128Y109362D01*
X266144Y109387D01*
X266165Y109407D01*
X266223Y109505D01*
X266285Y109599D01*
X266294Y109627D01*
X266309Y109652D01*
X266337Y109762D01*
X266371Y109870D01*
X266372Y109899D01*
X266379Y109928D01*
X266376Y110041D01*
X266379Y110154D01*
X266371Y110183D01*
X266370Y110212D01*
X266335Y110320D01*
X266307Y110429D01*
X266292Y110455D01*
X266283Y110483D01*
X266237Y110546D01*
X266161Y110674D01*
X266116Y110717D01*
X266088Y110756D01*
X266025Y110818D01*
X266025Y113148D01*
X266017Y113206D01*
X266019Y113264D01*
X265997Y113346D01*
X265985Y113430D01*
X265962Y113483D01*
X265947Y113539D01*
X265904Y113612D01*
X265869Y113689D01*
X265831Y113734D01*
X265802Y113784D01*
X265740Y113842D01*
X265686Y113906D01*
X265637Y113938D01*
X265594Y113978D01*
X265519Y114017D01*
X265449Y114064D01*
X265393Y114081D01*
X265341Y114108D01*
X265273Y114119D01*
X265178Y114149D01*
X265078Y114152D01*
X265010Y114163D01*
X262040Y114163D01*
X261982Y114155D01*
X261924Y114157D01*
X261842Y114135D01*
X261758Y114123D01*
X261705Y114100D01*
X261649Y114085D01*
X261576Y114042D01*
X261499Y114007D01*
X261454Y113969D01*
X261404Y113940D01*
X261346Y113878D01*
X261282Y113824D01*
X261250Y113775D01*
X261210Y113732D01*
X261171Y113657D01*
X261124Y113587D01*
X261107Y113531D01*
X261080Y113479D01*
X261069Y113411D01*
X261039Y113316D01*
X261036Y113216D01*
X261025Y113148D01*
X261025Y110818D01*
X260132Y109925D01*
X247868Y109925D01*
X246975Y110818D01*
X246975Y122082D01*
X248001Y123107D01*
X248036Y123154D01*
X248078Y123194D01*
X248121Y123267D01*
X248172Y123334D01*
X248193Y123389D01*
X248222Y123439D01*
X248243Y123521D01*
X248273Y123600D01*
X248278Y123658D01*
X248292Y123715D01*
X248289Y123799D01*
X248296Y123883D01*
X248285Y123941D01*
X248283Y123999D01*
X248257Y124079D01*
X248241Y124162D01*
X248214Y124214D01*
X248196Y124270D01*
X248156Y124326D01*
X248110Y124414D01*
X248041Y124487D01*
X248001Y124543D01*
X246975Y125568D01*
X246975Y136832D01*
X247868Y137725D01*
X255270Y137725D01*
X255328Y137733D01*
X255386Y137731D01*
X255468Y137753D01*
X255552Y137765D01*
X255605Y137788D01*
X255661Y137803D01*
X255734Y137846D01*
X255811Y137881D01*
X255856Y137919D01*
X255906Y137948D01*
X255964Y138010D01*
X256028Y138064D01*
X256060Y138113D01*
X256100Y138156D01*
X256139Y138231D01*
X256186Y138301D01*
X256203Y138357D01*
X256230Y138409D01*
X256241Y138477D01*
X256271Y138572D01*
X256274Y138672D01*
X256285Y138740D01*
X256285Y140660D01*
X256277Y140718D01*
X256279Y140776D01*
X256257Y140858D01*
X256245Y140942D01*
X256222Y140995D01*
X256207Y141051D01*
X256164Y141124D01*
X256129Y141201D01*
X256091Y141246D01*
X256062Y141296D01*
X256000Y141354D01*
X255946Y141418D01*
X255897Y141450D01*
X255854Y141490D01*
X255779Y141529D01*
X255709Y141576D01*
X255653Y141593D01*
X255601Y141620D01*
X255533Y141631D01*
X255438Y141661D01*
X255338Y141664D01*
X255270Y141675D01*
X247868Y141675D01*
X246975Y142568D01*
X246975Y153832D01*
X248001Y154857D01*
X248036Y154904D01*
X248078Y154944D01*
X248121Y155017D01*
X248172Y155084D01*
X248193Y155139D01*
X248222Y155189D01*
X248243Y155271D01*
X248273Y155350D01*
X248278Y155408D01*
X248292Y155465D01*
X248289Y155549D01*
X248296Y155633D01*
X248285Y155691D01*
X248283Y155749D01*
X248257Y155829D01*
X248241Y155912D01*
X248214Y155964D01*
X248196Y156020D01*
X248156Y156076D01*
X248110Y156164D01*
X248041Y156237D01*
X248001Y156293D01*
X246975Y157318D01*
X246975Y168582D01*
X247868Y169475D01*
X260132Y169475D01*
X261025Y168582D01*
X261025Y166252D01*
X261033Y166194D01*
X261031Y166136D01*
X261053Y166054D01*
X261065Y165970D01*
X261088Y165917D01*
X261103Y165861D01*
X261146Y165788D01*
X261181Y165711D01*
X261219Y165666D01*
X261248Y165616D01*
X261310Y165558D01*
X261364Y165494D01*
X261413Y165462D01*
X261456Y165422D01*
X261531Y165383D01*
X261601Y165336D01*
X261657Y165319D01*
X261709Y165292D01*
X261777Y165281D01*
X261872Y165251D01*
X261972Y165248D01*
X262040Y165237D01*
X265510Y165237D01*
X265568Y165245D01*
X265626Y165243D01*
X265708Y165265D01*
X265792Y165277D01*
X265845Y165300D01*
X265901Y165315D01*
X265974Y165358D01*
X266051Y165393D01*
X266096Y165431D01*
X266146Y165460D01*
X266204Y165522D01*
X266268Y165576D01*
X266300Y165625D01*
X266340Y165668D01*
X266379Y165743D01*
X266426Y165813D01*
X266443Y165869D01*
X266470Y165921D01*
X266481Y165989D01*
X266511Y166084D01*
X266514Y166184D01*
X266525Y166252D01*
X266525Y169082D01*
X267418Y169975D01*
X278682Y169975D01*
X279575Y169082D01*
X279575Y162230D01*
X279587Y162143D01*
X279590Y162056D01*
X279607Y162003D01*
X279615Y161948D01*
X279650Y161868D01*
X279677Y161785D01*
X279705Y161746D01*
X279731Y161689D01*
X279823Y161580D01*
X279839Y161554D01*
X279849Y161544D01*
X279872Y161512D01*
X283342Y158042D01*
X283366Y158024D01*
X283385Y158002D01*
X283479Y157939D01*
X283569Y157871D01*
X283597Y157860D01*
X283621Y157844D01*
X283729Y157810D01*
X283835Y157770D01*
X283864Y157767D01*
X283892Y157758D01*
X284006Y157755D01*
X284118Y157746D01*
X284147Y157752D01*
X284176Y157751D01*
X284286Y157780D01*
X284397Y157802D01*
X284423Y157816D01*
X284451Y157823D01*
X284549Y157881D01*
X284649Y157933D01*
X284671Y157953D01*
X284696Y157968D01*
X284773Y158051D01*
X284855Y158129D01*
X284870Y158154D01*
X284890Y158175D01*
X284942Y158276D01*
X284999Y158374D01*
X285006Y158402D01*
X285020Y158429D01*
X285033Y158506D01*
X285069Y158650D01*
X285067Y158712D01*
X285075Y158760D01*
X285075Y168582D01*
X285968Y169475D01*
X294970Y169475D01*
X295057Y169487D01*
X295144Y169490D01*
X295197Y169507D01*
X295252Y169515D01*
X295332Y169550D01*
X295415Y169577D01*
X295454Y169605D01*
X295511Y169631D01*
X295624Y169727D01*
X295688Y169772D01*
X297608Y171692D01*
X297626Y171716D01*
X297648Y171735D01*
X297711Y171829D01*
X297779Y171919D01*
X297790Y171947D01*
X297806Y171971D01*
X297840Y172079D01*
X297880Y172185D01*
X297883Y172214D01*
X297892Y172242D01*
X297895Y172356D01*
X297904Y172468D01*
X297898Y172497D01*
X297899Y172526D01*
X297870Y172636D01*
X297848Y172747D01*
X297834Y172773D01*
X297827Y172801D01*
X297769Y172899D01*
X297717Y172999D01*
X297697Y173021D01*
X297682Y173046D01*
X297599Y173123D01*
X297521Y173205D01*
X297496Y173220D01*
X297475Y173240D01*
X297374Y173292D01*
X297276Y173349D01*
X297248Y173356D01*
X297221Y173370D01*
X297144Y173383D01*
X297000Y173419D01*
X296938Y173417D01*
X296890Y173425D01*
X285968Y173425D01*
X285075Y174318D01*
X285075Y176648D01*
X285067Y176706D01*
X285069Y176764D01*
X285047Y176846D01*
X285035Y176930D01*
X285012Y176983D01*
X284997Y177039D01*
X284954Y177112D01*
X284919Y177189D01*
X284881Y177234D01*
X284852Y177284D01*
X284790Y177342D01*
X284736Y177406D01*
X284687Y177438D01*
X284644Y177478D01*
X284569Y177517D01*
X284499Y177564D01*
X284443Y177581D01*
X284391Y177608D01*
X284323Y177619D01*
X284228Y177649D01*
X284128Y177652D01*
X284060Y177663D01*
X280590Y177663D01*
X280532Y177655D01*
X280474Y177657D01*
X280392Y177635D01*
X280308Y177623D01*
X280255Y177600D01*
X280199Y177585D01*
X280126Y177542D01*
X280049Y177507D01*
X280004Y177469D01*
X279954Y177440D01*
X279896Y177378D01*
X279832Y177324D01*
X279800Y177275D01*
X279760Y177232D01*
X279721Y177157D01*
X279674Y177087D01*
X279657Y177031D01*
X279630Y176979D01*
X279619Y176911D01*
X279589Y176816D01*
X279586Y176716D01*
X279575Y176648D01*
X279575Y173818D01*
X278682Y172925D01*
X267418Y172925D01*
X266525Y173818D01*
X266525Y186082D01*
X267418Y186975D01*
X278682Y186975D01*
X279575Y186082D01*
X279575Y183252D01*
X279583Y183194D01*
X279581Y183136D01*
X279603Y183054D01*
X279615Y182970D01*
X279638Y182917D01*
X279653Y182861D01*
X279696Y182788D01*
X279731Y182711D01*
X279769Y182666D01*
X279798Y182616D01*
X279860Y182558D01*
X279914Y182494D01*
X279963Y182462D01*
X280006Y182422D01*
X280081Y182383D01*
X280151Y182336D01*
X280207Y182319D01*
X280259Y182292D01*
X280327Y182281D01*
X280422Y182251D01*
X280522Y182248D01*
X280590Y182237D01*
X284060Y182237D01*
X284118Y182245D01*
X284176Y182243D01*
X284258Y182265D01*
X284342Y182277D01*
X284395Y182300D01*
X284451Y182315D01*
X284524Y182358D01*
X284601Y182393D01*
X284646Y182431D01*
X284696Y182460D01*
X284754Y182522D01*
X284818Y182576D01*
X284850Y182625D01*
X284890Y182668D01*
X284929Y182743D01*
X284976Y182813D01*
X284993Y182869D01*
X285020Y182921D01*
X285031Y182989D01*
X285061Y183084D01*
X285064Y183184D01*
X285075Y183252D01*
X285075Y185582D01*
X285968Y186475D01*
X298232Y186475D01*
X299125Y185582D01*
X299125Y181102D01*
X299133Y181044D01*
X299131Y180986D01*
X299153Y180904D01*
X299165Y180820D01*
X299188Y180767D01*
X299203Y180711D01*
X299246Y180638D01*
X299281Y180561D01*
X299319Y180516D01*
X299348Y180466D01*
X299410Y180408D01*
X299464Y180344D01*
X299513Y180312D01*
X299556Y180272D01*
X299631Y180233D01*
X299701Y180186D01*
X299757Y180169D01*
X299809Y180142D01*
X299877Y180131D01*
X299972Y180101D01*
X300072Y180098D01*
X300140Y180087D01*
X314160Y180087D01*
X314218Y180095D01*
X314276Y180093D01*
X314358Y180115D01*
X314442Y180127D01*
X314495Y180150D01*
X314551Y180165D01*
X314624Y180208D01*
X314701Y180243D01*
X314746Y180281D01*
X314796Y180310D01*
X314854Y180372D01*
X314918Y180426D01*
X314950Y180475D01*
X314990Y180518D01*
X315029Y180593D01*
X315076Y180663D01*
X315093Y180719D01*
X315120Y180771D01*
X315131Y180839D01*
X315161Y180934D01*
X315164Y181034D01*
X315175Y181102D01*
X315175Y190282D01*
X316068Y191175D01*
X325070Y191175D01*
X325157Y191187D01*
X325244Y191190D01*
X325297Y191207D01*
X325352Y191215D01*
X325432Y191250D01*
X325515Y191277D01*
X325554Y191305D01*
X325611Y191331D01*
X325724Y191427D01*
X325788Y191472D01*
X326392Y192076D01*
X326427Y192123D01*
X326470Y192163D01*
X326513Y192236D01*
X326563Y192303D01*
X326584Y192358D01*
X326614Y192408D01*
X326634Y192490D01*
X326664Y192569D01*
X326669Y192627D01*
X326684Y192684D01*
X326681Y192768D01*
X326688Y192852D01*
X326676Y192910D01*
X326675Y192968D01*
X326649Y193048D01*
X326632Y193131D01*
X326605Y193183D01*
X326587Y193239D01*
X326547Y193295D01*
X326501Y193383D01*
X326432Y193456D01*
X326392Y193512D01*
X326135Y193769D01*
X326135Y195160D01*
X326127Y195218D01*
X326129Y195276D01*
X326107Y195358D01*
X326095Y195442D01*
X326072Y195495D01*
X326057Y195551D01*
X326014Y195624D01*
X325979Y195701D01*
X325941Y195746D01*
X325912Y195796D01*
X325850Y195854D01*
X325796Y195918D01*
X325747Y195950D01*
X325704Y195990D01*
X325629Y196029D01*
X325559Y196076D01*
X325503Y196093D01*
X325451Y196120D01*
X325383Y196131D01*
X325288Y196161D01*
X325188Y196164D01*
X325120Y196175D01*
X316068Y196175D01*
X315175Y197068D01*
X315175Y199898D01*
X315167Y199956D01*
X315169Y200014D01*
X315147Y200096D01*
X315135Y200180D01*
X315112Y200233D01*
X315097Y200289D01*
X315054Y200362D01*
X315019Y200439D01*
X314981Y200484D01*
X314952Y200534D01*
X314890Y200592D01*
X314836Y200656D01*
X314787Y200688D01*
X314744Y200728D01*
X314669Y200767D01*
X314599Y200814D01*
X314543Y200831D01*
X314491Y200858D01*
X314423Y200869D01*
X314328Y200899D01*
X314228Y200902D01*
X314160Y200913D01*
X308610Y200913D01*
X308552Y200905D01*
X308494Y200907D01*
X308412Y200885D01*
X308328Y200873D01*
X308275Y200850D01*
X308219Y200835D01*
X308146Y200792D01*
X308069Y200757D01*
X308024Y200719D01*
X307974Y200690D01*
X307916Y200628D01*
X307852Y200574D01*
X307820Y200525D01*
X307780Y200482D01*
X307741Y200407D01*
X307694Y200337D01*
X307677Y200281D01*
X307650Y200229D01*
X307639Y200161D01*
X307609Y200066D01*
X307606Y199966D01*
X307595Y199898D01*
X307595Y194948D01*
X306702Y194055D01*
X290198Y194055D01*
X289305Y194948D01*
X289305Y211074D01*
X289297Y211132D01*
X289299Y211190D01*
X289277Y211272D01*
X289265Y211356D01*
X289242Y211409D01*
X289227Y211465D01*
X289184Y211538D01*
X289149Y211615D01*
X289111Y211660D01*
X289082Y211710D01*
X289020Y211768D01*
X288966Y211832D01*
X288917Y211864D01*
X288874Y211904D01*
X288799Y211943D01*
X288729Y211990D01*
X288673Y212007D01*
X288621Y212034D01*
X288553Y212045D01*
X288458Y212075D01*
X288358Y212078D01*
X288290Y212089D01*
X279544Y212089D01*
X279515Y212085D01*
X279486Y212088D01*
X279375Y212065D01*
X279263Y212049D01*
X279236Y212037D01*
X279207Y212032D01*
X279107Y211980D01*
X279003Y211933D01*
X278981Y211914D01*
X278955Y211901D01*
X278873Y211823D01*
X278786Y211750D01*
X278770Y211725D01*
X278749Y211705D01*
X278692Y211607D01*
X278629Y211513D01*
X278620Y211485D01*
X278605Y211460D01*
X278577Y211350D01*
X278543Y211242D01*
X278542Y211212D01*
X278535Y211184D01*
X278539Y211071D01*
X278536Y210958D01*
X278543Y210929D01*
X278544Y210900D01*
X278579Y210792D01*
X278608Y210683D01*
X278623Y210657D01*
X278632Y210629D01*
X278677Y210566D01*
X278753Y210438D01*
X278798Y210395D01*
X278826Y210356D01*
X282195Y206988D01*
X282195Y199412D01*
X276838Y194055D01*
X269262Y194055D01*
X263905Y199412D01*
X263905Y206988D01*
X267274Y210356D01*
X267291Y210380D01*
X267314Y210399D01*
X267376Y210493D01*
X267444Y210583D01*
X267455Y210611D01*
X267471Y210635D01*
X267505Y210743D01*
X267546Y210849D01*
X267548Y210878D01*
X267557Y210906D01*
X267560Y211020D01*
X267569Y211132D01*
X267563Y211161D01*
X267564Y211190D01*
X267536Y211300D01*
X267513Y211411D01*
X267500Y211437D01*
X267492Y211465D01*
X267435Y211563D01*
X267382Y211663D01*
X267362Y211685D01*
X267347Y211710D01*
X267265Y211787D01*
X267187Y211869D01*
X267161Y211884D01*
X267140Y211904D01*
X267039Y211956D01*
X266941Y212013D01*
X266913Y212020D01*
X266887Y212034D01*
X266809Y212047D01*
X266666Y212083D01*
X266603Y212081D01*
X266556Y212089D01*
X255581Y212089D01*
X255552Y212085D01*
X255523Y212088D01*
X255412Y212065D01*
X255300Y212049D01*
X255273Y212037D01*
X255244Y212032D01*
X255144Y211979D01*
X255040Y211933D01*
X255018Y211914D01*
X254992Y211901D01*
X254910Y211823D01*
X254823Y211750D01*
X254807Y211725D01*
X254786Y211705D01*
X254729Y211607D01*
X254666Y211513D01*
X254657Y211485D01*
X254642Y211460D01*
X254614Y211350D01*
X254580Y211242D01*
X254579Y211212D01*
X254572Y211184D01*
X254576Y211071D01*
X254573Y210958D01*
X254580Y210929D01*
X254581Y210900D01*
X254616Y210792D01*
X254644Y210683D01*
X254659Y210657D01*
X254668Y210629D01*
X254714Y210566D01*
X254790Y210438D01*
X254835Y210395D01*
X254863Y210356D01*
X257811Y207409D01*
X257811Y205231D01*
X248666Y205231D01*
X248608Y205223D01*
X248550Y205225D01*
X248468Y205203D01*
X248385Y205191D01*
X248331Y205167D01*
X248275Y205153D01*
X248202Y205110D01*
X248125Y205075D01*
X248081Y205037D01*
X248030Y205007D01*
X247973Y204946D01*
X247908Y204891D01*
X247876Y204843D01*
X247836Y204800D01*
X247797Y204725D01*
X247751Y204655D01*
X247733Y204599D01*
X247706Y204547D01*
X247695Y204479D01*
X247665Y204384D01*
X247662Y204284D01*
X247651Y204216D01*
X247651Y203199D01*
X247649Y203199D01*
X247649Y204216D01*
X247641Y204274D01*
X247642Y204332D01*
X247621Y204414D01*
X247609Y204497D01*
X247585Y204551D01*
X247571Y204607D01*
X247528Y204680D01*
X247493Y204757D01*
X247455Y204802D01*
X247425Y204852D01*
X247364Y204910D01*
X247309Y204974D01*
X247261Y205006D01*
X247218Y205046D01*
X247143Y205085D01*
X247073Y205131D01*
X247017Y205149D01*
X246965Y205176D01*
X246897Y205187D01*
X246802Y205217D01*
X246702Y205220D01*
X246634Y205231D01*
X237489Y205231D01*
X237489Y207409D01*
X240437Y210356D01*
X240454Y210380D01*
X240477Y210399D01*
X240540Y210493D01*
X240608Y210583D01*
X240618Y210611D01*
X240634Y210635D01*
X240669Y210743D01*
X240709Y210849D01*
X240711Y210878D01*
X240720Y210906D01*
X240723Y211020D01*
X240732Y211132D01*
X240727Y211161D01*
X240727Y211190D01*
X240699Y211300D01*
X240677Y211411D01*
X240663Y211437D01*
X240656Y211465D01*
X240598Y211563D01*
X240546Y211663D01*
X240525Y211685D01*
X240510Y211710D01*
X240428Y211787D01*
X240350Y211869D01*
X240324Y211884D01*
X240303Y211904D01*
X240202Y211956D01*
X240104Y212013D01*
X240076Y212020D01*
X240050Y212034D01*
X239973Y212047D01*
X239829Y212083D01*
X239766Y212081D01*
X239719Y212089D01*
X230181Y212089D01*
X230152Y212085D01*
X230123Y212088D01*
X230012Y212065D01*
X229900Y212049D01*
X229873Y212037D01*
X229844Y212032D01*
X229744Y211979D01*
X229640Y211933D01*
X229618Y211914D01*
X229592Y211901D01*
X229510Y211823D01*
X229423Y211750D01*
X229407Y211725D01*
X229386Y211705D01*
X229329Y211607D01*
X229266Y211513D01*
X229257Y211485D01*
X229242Y211460D01*
X229214Y211350D01*
X229180Y211242D01*
X229179Y211212D01*
X229172Y211184D01*
X229176Y211071D01*
X229173Y210958D01*
X229180Y210929D01*
X229181Y210900D01*
X229216Y210792D01*
X229244Y210683D01*
X229259Y210657D01*
X229268Y210629D01*
X229314Y210566D01*
X229390Y210438D01*
X229435Y210395D01*
X229463Y210356D01*
X232411Y207409D01*
X232411Y205231D01*
X223266Y205231D01*
X223208Y205223D01*
X223150Y205225D01*
X223068Y205203D01*
X222985Y205191D01*
X222931Y205167D01*
X222875Y205153D01*
X222802Y205110D01*
X222725Y205075D01*
X222681Y205037D01*
X222630Y205007D01*
X222573Y204946D01*
X222508Y204891D01*
X222476Y204843D01*
X222436Y204800D01*
X222397Y204725D01*
X222351Y204655D01*
X222333Y204599D01*
X222306Y204547D01*
X222295Y204479D01*
X222265Y204384D01*
X222262Y204284D01*
X222251Y204216D01*
X222251Y203199D01*
X222249Y203199D01*
X222249Y204216D01*
X222241Y204274D01*
X222242Y204332D01*
X222221Y204414D01*
X222209Y204497D01*
X222185Y204551D01*
X222171Y204607D01*
X222128Y204680D01*
X222093Y204757D01*
X222055Y204802D01*
X222025Y204852D01*
X221964Y204910D01*
X221909Y204974D01*
X221861Y205006D01*
X221818Y205046D01*
X221743Y205085D01*
X221673Y205131D01*
X221617Y205149D01*
X221565Y205176D01*
X221497Y205187D01*
X221402Y205217D01*
X221302Y205220D01*
X221234Y205231D01*
X212089Y205231D01*
X212089Y207409D01*
X215037Y210356D01*
X215054Y210380D01*
X215077Y210399D01*
X215140Y210493D01*
X215208Y210583D01*
X215218Y210611D01*
X215234Y210635D01*
X215269Y210743D01*
X215309Y210849D01*
X215311Y210878D01*
X215320Y210906D01*
X215323Y211020D01*
X215332Y211132D01*
X215327Y211161D01*
X215327Y211190D01*
X215299Y211300D01*
X215277Y211411D01*
X215263Y211437D01*
X215256Y211465D01*
X215198Y211563D01*
X215146Y211663D01*
X215125Y211685D01*
X215110Y211710D01*
X215028Y211787D01*
X214950Y211869D01*
X214924Y211884D01*
X214903Y211904D01*
X214802Y211956D01*
X214704Y212013D01*
X214676Y212020D01*
X214650Y212034D01*
X214573Y212047D01*
X214429Y212083D01*
X214366Y212081D01*
X214319Y212089D01*
X204781Y212089D01*
X204752Y212085D01*
X204723Y212088D01*
X204612Y212065D01*
X204500Y212049D01*
X204473Y212037D01*
X204444Y212032D01*
X204344Y211979D01*
X204240Y211933D01*
X204218Y211914D01*
X204192Y211901D01*
X204110Y211823D01*
X204023Y211750D01*
X204007Y211725D01*
X203986Y211705D01*
X203929Y211607D01*
X203866Y211513D01*
X203857Y211485D01*
X203842Y211460D01*
X203814Y211350D01*
X203780Y211242D01*
X203779Y211212D01*
X203772Y211184D01*
X203776Y211071D01*
X203773Y210958D01*
X203780Y210929D01*
X203781Y210900D01*
X203816Y210792D01*
X203844Y210683D01*
X203859Y210657D01*
X203868Y210629D01*
X203914Y210566D01*
X203990Y210438D01*
X204035Y210395D01*
X204063Y210356D01*
X207011Y207409D01*
X207011Y205231D01*
X197866Y205231D01*
X197808Y205223D01*
X197750Y205225D01*
X197668Y205203D01*
X197585Y205191D01*
X197531Y205167D01*
X197475Y205153D01*
X197402Y205110D01*
X197325Y205075D01*
X197281Y205037D01*
X197230Y205007D01*
X197173Y204946D01*
X197108Y204891D01*
X197076Y204843D01*
X197036Y204800D01*
X196997Y204725D01*
X196951Y204655D01*
X196933Y204599D01*
X196906Y204547D01*
X196895Y204479D01*
X196865Y204384D01*
X196862Y204284D01*
X196851Y204216D01*
X196851Y203199D01*
X196849Y203199D01*
X196849Y204216D01*
X196841Y204274D01*
X196842Y204332D01*
X196821Y204414D01*
X196809Y204497D01*
X196785Y204551D01*
X196771Y204607D01*
X196728Y204680D01*
X196693Y204757D01*
X196655Y204802D01*
X196625Y204852D01*
X196564Y204910D01*
X196509Y204974D01*
X196461Y205006D01*
X196418Y205046D01*
X196343Y205085D01*
X196273Y205131D01*
X196217Y205149D01*
X196165Y205176D01*
X196097Y205187D01*
X196002Y205217D01*
X195902Y205220D01*
X195834Y205231D01*
X186689Y205231D01*
X186689Y207409D01*
X189637Y210356D01*
X189654Y210380D01*
X189677Y210399D01*
X189740Y210493D01*
X189808Y210583D01*
X189818Y210611D01*
X189834Y210635D01*
X189869Y210743D01*
X189909Y210849D01*
X189911Y210878D01*
X189920Y210906D01*
X189923Y211020D01*
X189932Y211132D01*
X189927Y211161D01*
X189927Y211190D01*
X189899Y211300D01*
X189877Y211411D01*
X189863Y211437D01*
X189856Y211465D01*
X189798Y211563D01*
X189746Y211663D01*
X189725Y211685D01*
X189710Y211710D01*
X189628Y211787D01*
X189550Y211869D01*
X189524Y211884D01*
X189503Y211904D01*
X189402Y211956D01*
X189304Y212013D01*
X189276Y212020D01*
X189250Y212034D01*
X189173Y212047D01*
X189029Y212083D01*
X188966Y212081D01*
X188919Y212089D01*
X179381Y212089D01*
X179352Y212085D01*
X179323Y212088D01*
X179212Y212065D01*
X179100Y212049D01*
X179073Y212037D01*
X179044Y212032D01*
X178944Y211979D01*
X178840Y211933D01*
X178818Y211914D01*
X178792Y211901D01*
X178710Y211823D01*
X178623Y211750D01*
X178607Y211725D01*
X178586Y211705D01*
X178529Y211607D01*
X178466Y211513D01*
X178457Y211485D01*
X178442Y211460D01*
X178414Y211350D01*
X178380Y211242D01*
X178379Y211212D01*
X178372Y211184D01*
X178376Y211071D01*
X178373Y210958D01*
X178380Y210929D01*
X178381Y210900D01*
X178416Y210792D01*
X178444Y210683D01*
X178459Y210657D01*
X178468Y210629D01*
X178514Y210566D01*
X178590Y210438D01*
X178635Y210395D01*
X178663Y210356D01*
X181611Y207409D01*
X181611Y205231D01*
X172466Y205231D01*
X172408Y205223D01*
X172350Y205225D01*
X172268Y205203D01*
X172185Y205191D01*
X172131Y205167D01*
X172075Y205153D01*
X172002Y205110D01*
X171925Y205075D01*
X171881Y205037D01*
X171830Y205007D01*
X171773Y204946D01*
X171708Y204891D01*
X171676Y204843D01*
X171636Y204800D01*
X171597Y204725D01*
X171551Y204655D01*
X171533Y204599D01*
X171506Y204547D01*
X171495Y204479D01*
X171465Y204384D01*
X171462Y204284D01*
X171451Y204216D01*
X171451Y203199D01*
X171449Y203199D01*
X171449Y204216D01*
X171441Y204274D01*
X171442Y204332D01*
X171421Y204414D01*
X171409Y204497D01*
X171385Y204551D01*
X171371Y204607D01*
X171328Y204680D01*
X171293Y204757D01*
X171255Y204802D01*
X171225Y204852D01*
X171164Y204910D01*
X171109Y204974D01*
X171061Y205006D01*
X171018Y205046D01*
X170943Y205085D01*
X170873Y205131D01*
X170817Y205149D01*
X170765Y205176D01*
X170697Y205187D01*
X170602Y205217D01*
X170502Y205220D01*
X170434Y205231D01*
X161289Y205231D01*
X161289Y207409D01*
X164237Y210356D01*
X164254Y210380D01*
X164277Y210399D01*
X164340Y210493D01*
X164408Y210583D01*
X164418Y210611D01*
X164434Y210635D01*
X164469Y210743D01*
X164509Y210849D01*
X164511Y210878D01*
X164520Y210906D01*
X164523Y211020D01*
X164532Y211132D01*
X164527Y211161D01*
X164527Y211190D01*
X164499Y211300D01*
X164477Y211411D01*
X164463Y211437D01*
X164456Y211465D01*
X164398Y211563D01*
X164346Y211663D01*
X164325Y211685D01*
X164310Y211710D01*
X164228Y211787D01*
X164150Y211869D01*
X164124Y211884D01*
X164103Y211904D01*
X164002Y211956D01*
X163904Y212013D01*
X163876Y212020D01*
X163850Y212034D01*
X163773Y212047D01*
X163629Y212083D01*
X163566Y212081D01*
X163519Y212089D01*
X153981Y212089D01*
X153952Y212085D01*
X153923Y212088D01*
X153812Y212065D01*
X153700Y212049D01*
X153673Y212037D01*
X153644Y212032D01*
X153544Y211979D01*
X153440Y211933D01*
X153418Y211914D01*
X153392Y211901D01*
X153310Y211823D01*
X153223Y211750D01*
X153207Y211725D01*
X153186Y211705D01*
X153129Y211607D01*
X153066Y211513D01*
X153057Y211485D01*
X153042Y211460D01*
X153014Y211350D01*
X152980Y211242D01*
X152979Y211212D01*
X152972Y211184D01*
X152976Y211071D01*
X152973Y210958D01*
X152980Y210929D01*
X152981Y210900D01*
X153016Y210792D01*
X153044Y210683D01*
X153059Y210657D01*
X153068Y210629D01*
X153114Y210566D01*
X153190Y210438D01*
X153235Y210395D01*
X153263Y210356D01*
X156211Y207409D01*
X156211Y205231D01*
X147066Y205231D01*
X147008Y205223D01*
X146950Y205225D01*
X146868Y205203D01*
X146785Y205191D01*
X146731Y205167D01*
X146675Y205153D01*
X146602Y205110D01*
X146525Y205075D01*
X146481Y205037D01*
X146430Y205007D01*
X146373Y204946D01*
X146308Y204891D01*
X146276Y204843D01*
X146236Y204800D01*
X146197Y204725D01*
X146151Y204655D01*
X146133Y204599D01*
X146106Y204547D01*
X146095Y204479D01*
X146065Y204384D01*
X146062Y204284D01*
X146051Y204216D01*
X146051Y203199D01*
X146049Y203199D01*
X146049Y204216D01*
X146041Y204274D01*
X146042Y204332D01*
X146021Y204414D01*
X146009Y204497D01*
X145985Y204551D01*
X145971Y204607D01*
X145928Y204680D01*
X145893Y204757D01*
X145855Y204802D01*
X145825Y204852D01*
X145764Y204910D01*
X145709Y204974D01*
X145661Y205006D01*
X145618Y205046D01*
X145543Y205085D01*
X145473Y205131D01*
X145417Y205149D01*
X145365Y205176D01*
X145297Y205187D01*
X145202Y205217D01*
X145102Y205220D01*
X145034Y205231D01*
X135889Y205231D01*
X135889Y207409D01*
X138837Y210356D01*
X138854Y210380D01*
X138877Y210399D01*
X138940Y210493D01*
X139008Y210583D01*
X139018Y210611D01*
X139034Y210635D01*
X139069Y210743D01*
X139109Y210849D01*
X139111Y210878D01*
X139120Y210906D01*
X139123Y211020D01*
X139132Y211132D01*
X139127Y211161D01*
X139127Y211190D01*
X139099Y211300D01*
X139077Y211411D01*
X139063Y211437D01*
X139056Y211465D01*
X138998Y211563D01*
X138946Y211663D01*
X138925Y211685D01*
X138910Y211710D01*
X138828Y211787D01*
X138750Y211869D01*
X138724Y211884D01*
X138703Y211904D01*
X138602Y211956D01*
X138504Y212013D01*
X138476Y212020D01*
X138450Y212034D01*
X138373Y212047D01*
X138229Y212083D01*
X138166Y212081D01*
X138119Y212089D01*
X128581Y212089D01*
X128552Y212085D01*
X128523Y212088D01*
X128412Y212065D01*
X128300Y212049D01*
X128273Y212037D01*
X128244Y212032D01*
X128144Y211979D01*
X128040Y211933D01*
X128018Y211914D01*
X127992Y211901D01*
X127910Y211823D01*
X127823Y211750D01*
X127807Y211725D01*
X127786Y211705D01*
X127729Y211607D01*
X127666Y211513D01*
X127657Y211485D01*
X127642Y211460D01*
X127614Y211350D01*
X127580Y211242D01*
X127579Y211212D01*
X127572Y211184D01*
X127576Y211071D01*
X127573Y210958D01*
X127580Y210929D01*
X127581Y210900D01*
X127616Y210792D01*
X127644Y210683D01*
X127659Y210657D01*
X127668Y210629D01*
X127714Y210566D01*
X127790Y210438D01*
X127835Y210395D01*
X127863Y210356D01*
X130811Y207409D01*
X130811Y205231D01*
X121666Y205231D01*
X121608Y205223D01*
X121550Y205225D01*
X121468Y205203D01*
X121385Y205191D01*
X121331Y205167D01*
X121275Y205153D01*
X121202Y205110D01*
X121125Y205075D01*
X121081Y205037D01*
X121030Y205007D01*
X120973Y204946D01*
X120908Y204891D01*
X120876Y204843D01*
X120836Y204800D01*
X120797Y204725D01*
X120751Y204655D01*
X120733Y204599D01*
X120706Y204547D01*
X120695Y204479D01*
X120665Y204384D01*
X120662Y204284D01*
X120651Y204216D01*
X120651Y203199D01*
X120649Y203199D01*
X120649Y204216D01*
X120641Y204274D01*
X120642Y204332D01*
X120621Y204414D01*
X120609Y204497D01*
X120585Y204551D01*
X120571Y204607D01*
X120528Y204680D01*
X120493Y204757D01*
X120455Y204802D01*
X120425Y204852D01*
X120364Y204910D01*
X120309Y204974D01*
X120261Y205006D01*
X120218Y205046D01*
X120143Y205085D01*
X120073Y205131D01*
X120017Y205149D01*
X119965Y205176D01*
X119897Y205187D01*
X119802Y205217D01*
X119702Y205220D01*
X119634Y205231D01*
X110489Y205231D01*
X110489Y207409D01*
X113437Y210356D01*
X113454Y210380D01*
X113477Y210399D01*
X113540Y210493D01*
X113608Y210583D01*
X113618Y210611D01*
X113634Y210635D01*
X113669Y210743D01*
X113709Y210849D01*
X113711Y210878D01*
X113720Y210906D01*
X113723Y211020D01*
X113732Y211132D01*
X113727Y211161D01*
X113727Y211190D01*
X113699Y211300D01*
X113677Y211411D01*
X113663Y211437D01*
X113656Y211465D01*
X113598Y211563D01*
X113546Y211663D01*
X113525Y211685D01*
X113510Y211710D01*
X113428Y211787D01*
X113350Y211869D01*
X113324Y211884D01*
X113303Y211904D01*
X113202Y211956D01*
X113104Y212013D01*
X113076Y212020D01*
X113050Y212034D01*
X112973Y212047D01*
X112829Y212083D01*
X112766Y212081D01*
X112719Y212089D01*
X103181Y212089D01*
X103152Y212085D01*
X103123Y212088D01*
X103012Y212065D01*
X102900Y212049D01*
X102873Y212037D01*
X102844Y212032D01*
X102744Y211979D01*
X102640Y211933D01*
X102618Y211914D01*
X102592Y211901D01*
X102510Y211823D01*
X102423Y211750D01*
X102407Y211725D01*
X102386Y211705D01*
X102329Y211607D01*
X102266Y211513D01*
X102257Y211485D01*
X102242Y211460D01*
X102214Y211350D01*
X102180Y211242D01*
X102179Y211212D01*
X102172Y211184D01*
X102176Y211071D01*
X102173Y210958D01*
X102180Y210929D01*
X102181Y210900D01*
X102216Y210792D01*
X102244Y210683D01*
X102259Y210657D01*
X102268Y210629D01*
X102314Y210566D01*
X102390Y210438D01*
X102435Y210395D01*
X102463Y210356D01*
X105411Y207409D01*
X105411Y205231D01*
X96266Y205231D01*
X96208Y205223D01*
X96150Y205225D01*
X96068Y205203D01*
X95985Y205191D01*
X95931Y205167D01*
X95875Y205153D01*
X95802Y205110D01*
X95725Y205075D01*
X95681Y205037D01*
X95630Y205007D01*
X95573Y204946D01*
X95508Y204891D01*
X95476Y204843D01*
X95436Y204800D01*
X95397Y204725D01*
X95351Y204655D01*
X95333Y204599D01*
X95306Y204547D01*
X95295Y204479D01*
X95265Y204384D01*
X95262Y204284D01*
X95251Y204216D01*
X95251Y203199D01*
X95249Y203199D01*
X95249Y204216D01*
X95241Y204274D01*
X95242Y204332D01*
X95221Y204414D01*
X95209Y204497D01*
X95185Y204551D01*
X95171Y204607D01*
X95128Y204680D01*
X95093Y204757D01*
X95055Y204802D01*
X95025Y204852D01*
X94964Y204910D01*
X94909Y204974D01*
X94861Y205006D01*
X94818Y205046D01*
X94743Y205085D01*
X94673Y205131D01*
X94617Y205149D01*
X94565Y205176D01*
X94497Y205187D01*
X94402Y205217D01*
X94302Y205220D01*
X94234Y205231D01*
X85089Y205231D01*
X85089Y207409D01*
X88037Y210356D01*
X88054Y210380D01*
X88077Y210399D01*
X88140Y210493D01*
X88208Y210583D01*
X88218Y210611D01*
X88234Y210635D01*
X88269Y210743D01*
X88309Y210849D01*
X88311Y210878D01*
X88320Y210906D01*
X88323Y211020D01*
X88332Y211132D01*
X88327Y211161D01*
X88327Y211190D01*
X88299Y211300D01*
X88277Y211411D01*
X88263Y211437D01*
X88256Y211465D01*
X88198Y211563D01*
X88146Y211663D01*
X88125Y211685D01*
X88110Y211710D01*
X88028Y211787D01*
X87950Y211869D01*
X87924Y211884D01*
X87903Y211904D01*
X87802Y211956D01*
X87704Y212013D01*
X87676Y212020D01*
X87650Y212034D01*
X87573Y212047D01*
X87429Y212083D01*
X87366Y212081D01*
X87319Y212089D01*
X77781Y212089D01*
X77752Y212085D01*
X77723Y212088D01*
X77612Y212065D01*
X77500Y212049D01*
X77473Y212037D01*
X77444Y212032D01*
X77344Y211979D01*
X77240Y211933D01*
X77218Y211914D01*
X77192Y211901D01*
X77110Y211823D01*
X77023Y211750D01*
X77007Y211725D01*
X76986Y211705D01*
X76929Y211607D01*
X76866Y211513D01*
X76857Y211485D01*
X76842Y211460D01*
X76814Y211350D01*
X76780Y211242D01*
X76779Y211212D01*
X76772Y211184D01*
X76776Y211071D01*
X76773Y210958D01*
X76780Y210929D01*
X76781Y210900D01*
X76816Y210792D01*
X76844Y210683D01*
X76859Y210657D01*
X76868Y210629D01*
X76914Y210566D01*
X76990Y210438D01*
X77035Y210395D01*
X77063Y210356D01*
X80011Y207409D01*
X80011Y205231D01*
X70866Y205231D01*
X70808Y205223D01*
X70750Y205225D01*
X70668Y205203D01*
X70585Y205191D01*
X70531Y205167D01*
X70475Y205153D01*
X70402Y205110D01*
X70325Y205075D01*
X70281Y205037D01*
X70230Y205007D01*
X70173Y204946D01*
X70108Y204891D01*
X70076Y204843D01*
X70036Y204800D01*
X69997Y204725D01*
X69951Y204655D01*
X69933Y204599D01*
X69906Y204547D01*
X69895Y204479D01*
X69865Y204384D01*
X69862Y204284D01*
X69851Y204216D01*
X69851Y203199D01*
X69849Y203199D01*
X69849Y204216D01*
X69841Y204274D01*
X69842Y204332D01*
X69821Y204414D01*
X69809Y204497D01*
X69785Y204551D01*
X69771Y204607D01*
X69728Y204680D01*
X69693Y204757D01*
X69655Y204802D01*
X69625Y204852D01*
X69564Y204910D01*
X69509Y204974D01*
X69461Y205006D01*
X69418Y205046D01*
X69343Y205085D01*
X69273Y205131D01*
X69217Y205149D01*
X69165Y205176D01*
X69097Y205187D01*
X69002Y205217D01*
X68902Y205220D01*
X68834Y205231D01*
X59689Y205231D01*
X59689Y207409D01*
X62637Y210356D01*
X62654Y210380D01*
X62677Y210399D01*
X62740Y210493D01*
X62808Y210583D01*
X62818Y210611D01*
X62834Y210635D01*
X62869Y210743D01*
X62909Y210849D01*
X62911Y210878D01*
X62920Y210906D01*
X62923Y211020D01*
X62932Y211132D01*
X62927Y211161D01*
X62927Y211190D01*
X62899Y211300D01*
X62877Y211411D01*
X62863Y211437D01*
X62856Y211465D01*
X62798Y211563D01*
X62746Y211663D01*
X62725Y211685D01*
X62710Y211710D01*
X62628Y211787D01*
X62550Y211869D01*
X62524Y211884D01*
X62503Y211904D01*
X62402Y211956D01*
X62304Y212013D01*
X62276Y212020D01*
X62250Y212034D01*
X62173Y212047D01*
X62029Y212083D01*
X61966Y212081D01*
X61919Y212089D01*
X25400Y212089D01*
X25356Y212083D01*
X25320Y212086D01*
X22102Y211833D01*
X21943Y211798D01*
X21868Y211786D01*
X15746Y209797D01*
X15490Y209672D01*
X15477Y209660D01*
X15463Y209653D01*
X10255Y205869D01*
X10051Y205672D01*
X10042Y205656D01*
X10031Y205645D01*
X6247Y200437D01*
X6114Y200186D01*
X6110Y200168D01*
X6103Y200154D01*
X4114Y194032D01*
X4086Y193872D01*
X4081Y193855D01*
X4074Y193830D01*
X4073Y193823D01*
X4067Y193798D01*
X3814Y190580D01*
X3817Y190535D01*
X3811Y190500D01*
X3811Y147920D01*
X3818Y147870D01*
X3817Y147860D01*
X3821Y147845D01*
X3826Y147812D01*
X3834Y147703D01*
X3846Y147672D01*
X3851Y147638D01*
X3895Y147539D01*
X3933Y147437D01*
X3953Y147410D01*
X3967Y147379D01*
X4037Y147296D01*
X4102Y147208D01*
X4129Y147188D01*
X4150Y147162D01*
X4241Y147101D01*
X4327Y147035D01*
X4359Y147023D01*
X4387Y147004D01*
X4491Y146971D01*
X4592Y146932D01*
X4626Y146929D01*
X4658Y146918D01*
X4767Y146916D01*
X4875Y146906D01*
X4908Y146912D01*
X4942Y146911D01*
X5048Y146938D01*
X5154Y146959D01*
X5185Y146974D01*
X5217Y146983D01*
X5311Y147038D01*
X5408Y147088D01*
X5430Y147109D01*
X5462Y147128D01*
X5612Y147288D01*
X5623Y147299D01*
X5625Y147301D01*
X5626Y147301D01*
X5647Y147323D01*
X6000Y147809D01*
X7385Y149194D01*
X8970Y150345D01*
X10716Y151235D01*
X12579Y151840D01*
X14514Y152147D01*
X23369Y152147D01*
X23369Y140716D01*
X23377Y140658D01*
X23375Y140600D01*
X23397Y140518D01*
X23409Y140435D01*
X23433Y140381D01*
X23447Y140325D01*
X23490Y140252D01*
X23525Y140175D01*
X23563Y140131D01*
X23593Y140080D01*
X23654Y140023D01*
X23709Y139958D01*
X23757Y139926D01*
X23800Y139886D01*
X23875Y139847D01*
X23945Y139801D01*
X24001Y139783D01*
X24053Y139756D01*
X24121Y139745D01*
X24216Y139715D01*
X24316Y139712D01*
X24384Y139701D01*
X26416Y139701D01*
X26474Y139709D01*
X26532Y139708D01*
X26614Y139729D01*
X26697Y139741D01*
X26751Y139765D01*
X26807Y139779D01*
X26880Y139822D01*
X26957Y139857D01*
X27002Y139895D01*
X27052Y139925D01*
X27110Y139986D01*
X27174Y140041D01*
X27206Y140089D01*
X27246Y140132D01*
X27285Y140207D01*
X27331Y140277D01*
X27349Y140333D01*
X27376Y140385D01*
X27387Y140453D01*
X27417Y140548D01*
X27420Y140648D01*
X27431Y140716D01*
X27431Y152147D01*
X36286Y152147D01*
X38221Y151840D01*
X40084Y151235D01*
X41830Y150345D01*
X43415Y149194D01*
X44800Y147809D01*
X45951Y146224D01*
X46841Y144478D01*
X47446Y142615D01*
X47704Y140990D01*
X47731Y140902D01*
X47749Y140811D01*
X47772Y140766D01*
X47787Y140718D01*
X47837Y140641D01*
X47880Y140559D01*
X47915Y140522D01*
X47942Y140480D01*
X48012Y140420D01*
X48075Y140353D01*
X48119Y140327D01*
X48158Y140294D01*
X48241Y140256D01*
X48321Y140209D01*
X48370Y140197D01*
X48416Y140176D01*
X48507Y140162D01*
X48596Y140139D01*
X48647Y140141D01*
X48697Y140133D01*
X48789Y140145D01*
X48880Y140148D01*
X48929Y140164D01*
X48979Y140171D01*
X49063Y140207D01*
X49151Y140236D01*
X49187Y140262D01*
X49239Y140284D01*
X49348Y140375D01*
X60632Y140375D01*
X61525Y139482D01*
X61525Y127218D01*
X60632Y126325D01*
X51630Y126325D01*
X51543Y126313D01*
X51456Y126310D01*
X51403Y126293D01*
X51348Y126285D01*
X51268Y126250D01*
X51185Y126223D01*
X51146Y126195D01*
X51089Y126169D01*
X50976Y126073D01*
X50912Y126028D01*
X49597Y124713D01*
X48332Y124713D01*
X48246Y124701D01*
X48158Y124698D01*
X48106Y124681D01*
X48051Y124673D01*
X47971Y124638D01*
X47888Y124611D01*
X47848Y124583D01*
X47791Y124557D01*
X47678Y124461D01*
X47614Y124416D01*
X46134Y122935D01*
X45287Y122935D01*
X45258Y122931D01*
X45229Y122934D01*
X45118Y122911D01*
X45006Y122895D01*
X44979Y122883D01*
X44950Y122878D01*
X44850Y122825D01*
X44746Y122779D01*
X44724Y122760D01*
X44698Y122747D01*
X44616Y122669D01*
X44529Y122596D01*
X44513Y122571D01*
X44492Y122551D01*
X44435Y122453D01*
X44372Y122359D01*
X44363Y122331D01*
X44348Y122306D01*
X44320Y122196D01*
X44286Y122088D01*
X44285Y122058D01*
X44278Y122030D01*
X44282Y121917D01*
X44279Y121804D01*
X44286Y121775D01*
X44287Y121746D01*
X44322Y121638D01*
X44350Y121529D01*
X44365Y121503D01*
X44374Y121475D01*
X44420Y121411D01*
X44496Y121284D01*
X44541Y121241D01*
X44569Y121202D01*
X44997Y120775D01*
X46522Y117092D01*
X46566Y117018D01*
X46601Y116940D01*
X46638Y116896D01*
X46667Y116847D01*
X46729Y116788D01*
X46785Y116723D01*
X46832Y116691D01*
X46873Y116652D01*
X46950Y116613D01*
X47021Y116565D01*
X47075Y116548D01*
X47126Y116522D01*
X47210Y116505D01*
X47292Y116479D01*
X47349Y116478D01*
X47405Y116467D01*
X47490Y116474D01*
X47576Y116472D01*
X47631Y116486D01*
X47688Y116491D01*
X47768Y116522D01*
X47851Y116544D01*
X47900Y116573D01*
X47953Y116593D01*
X48022Y116645D01*
X48096Y116689D01*
X48135Y116730D01*
X48180Y116765D01*
X48232Y116834D01*
X48290Y116896D01*
X48316Y116947D01*
X48350Y116992D01*
X48381Y117073D01*
X48420Y117149D01*
X48428Y117198D01*
X48451Y117258D01*
X48457Y117337D01*
X48461Y117351D01*
X48463Y117405D01*
X48475Y117480D01*
X48475Y120432D01*
X49368Y121325D01*
X60632Y121325D01*
X60694Y121262D01*
X60718Y121245D01*
X60737Y121222D01*
X60831Y121159D01*
X60921Y121091D01*
X60949Y121081D01*
X60973Y121065D01*
X61081Y121030D01*
X61187Y120990D01*
X61216Y120988D01*
X61244Y120979D01*
X61357Y120976D01*
X61470Y120966D01*
X61499Y120972D01*
X61528Y120971D01*
X61638Y121000D01*
X61749Y121022D01*
X61775Y121036D01*
X61803Y121043D01*
X61901Y121101D01*
X62001Y121153D01*
X62023Y121174D01*
X62048Y121189D01*
X62125Y121271D01*
X62207Y121349D01*
X62222Y121374D01*
X62242Y121396D01*
X62294Y121497D01*
X62351Y121594D01*
X62358Y121623D01*
X62361Y121628D01*
X64064Y123331D01*
X65996Y125262D01*
X66031Y125309D01*
X66073Y125349D01*
X66116Y125422D01*
X66166Y125490D01*
X66187Y125544D01*
X66217Y125595D01*
X66238Y125676D01*
X66268Y125755D01*
X66273Y125814D01*
X66287Y125870D01*
X66284Y125954D01*
X66291Y126039D01*
X66280Y126096D01*
X66278Y126154D01*
X66252Y126235D01*
X66235Y126317D01*
X66208Y126369D01*
X66190Y126425D01*
X66150Y126481D01*
X66104Y126570D01*
X66036Y126642D01*
X65996Y126698D01*
X65475Y127218D01*
X65475Y139482D01*
X66368Y140375D01*
X68698Y140375D01*
X68756Y140383D01*
X68814Y140381D01*
X68896Y140403D01*
X68980Y140415D01*
X69033Y140438D01*
X69089Y140453D01*
X69162Y140496D01*
X69239Y140531D01*
X69284Y140569D01*
X69334Y140598D01*
X69392Y140660D01*
X69456Y140714D01*
X69488Y140763D01*
X69528Y140806D01*
X69567Y140881D01*
X69614Y140951D01*
X69631Y141007D01*
X69658Y141059D01*
X69669Y141127D01*
X69699Y141222D01*
X69702Y141322D01*
X69713Y141390D01*
X69713Y144360D01*
X69705Y144418D01*
X69707Y144476D01*
X69685Y144558D01*
X69673Y144642D01*
X69650Y144695D01*
X69635Y144751D01*
X69592Y144824D01*
X69557Y144901D01*
X69519Y144946D01*
X69490Y144996D01*
X69428Y145054D01*
X69374Y145118D01*
X69325Y145150D01*
X69282Y145190D01*
X69207Y145229D01*
X69137Y145276D01*
X69081Y145293D01*
X69029Y145320D01*
X68961Y145331D01*
X68866Y145361D01*
X68766Y145364D01*
X68698Y145375D01*
X66368Y145375D01*
X65475Y146268D01*
X65475Y158532D01*
X66368Y159425D01*
X77632Y159425D01*
X78525Y158532D01*
X78525Y146268D01*
X77632Y145375D01*
X75302Y145375D01*
X75244Y145367D01*
X75186Y145369D01*
X75104Y145347D01*
X75020Y145335D01*
X74967Y145312D01*
X74911Y145297D01*
X74838Y145254D01*
X74761Y145219D01*
X74716Y145181D01*
X74666Y145152D01*
X74608Y145090D01*
X74544Y145036D01*
X74512Y144987D01*
X74472Y144944D01*
X74433Y144869D01*
X74386Y144799D01*
X74369Y144743D01*
X74342Y144691D01*
X74331Y144623D01*
X74301Y144528D01*
X74298Y144428D01*
X74287Y144360D01*
X74287Y141390D01*
X74295Y141332D01*
X74293Y141274D01*
X74315Y141192D01*
X74327Y141108D01*
X74350Y141055D01*
X74365Y140999D01*
X74408Y140926D01*
X74443Y140849D01*
X74481Y140804D01*
X74510Y140754D01*
X74572Y140696D01*
X74626Y140632D01*
X74675Y140600D01*
X74718Y140560D01*
X74793Y140521D01*
X74863Y140474D01*
X74919Y140457D01*
X74971Y140430D01*
X75039Y140419D01*
X75134Y140389D01*
X75234Y140386D01*
X75302Y140375D01*
X77632Y140375D01*
X78525Y139482D01*
X78525Y127218D01*
X77632Y126325D01*
X73947Y126325D01*
X73860Y126313D01*
X73773Y126310D01*
X73720Y126293D01*
X73665Y126285D01*
X73586Y126250D01*
X73502Y126223D01*
X73463Y126195D01*
X73406Y126169D01*
X73293Y126073D01*
X73229Y126028D01*
X70259Y123058D01*
X70241Y123034D01*
X70219Y123015D01*
X70156Y122921D01*
X70088Y122831D01*
X70078Y122803D01*
X70061Y122779D01*
X70027Y122671D01*
X69987Y122565D01*
X69984Y122536D01*
X69976Y122508D01*
X69973Y122394D01*
X69963Y122282D01*
X69969Y122253D01*
X69968Y122224D01*
X69997Y122114D01*
X70019Y122003D01*
X70033Y121977D01*
X70040Y121949D01*
X70098Y121851D01*
X70150Y121751D01*
X70170Y121729D01*
X70185Y121704D01*
X70268Y121627D01*
X70346Y121545D01*
X70371Y121530D01*
X70393Y121510D01*
X70493Y121458D01*
X70591Y121401D01*
X70620Y121394D01*
X70646Y121380D01*
X70723Y121367D01*
X70867Y121331D01*
X70929Y121333D01*
X70977Y121325D01*
X77632Y121325D01*
X78525Y120432D01*
X78525Y118474D01*
X78529Y118445D01*
X78526Y118416D01*
X78549Y118305D01*
X78565Y118193D01*
X78577Y118166D01*
X78582Y118137D01*
X78635Y118036D01*
X78681Y117933D01*
X78700Y117911D01*
X78713Y117885D01*
X78791Y117803D01*
X78864Y117716D01*
X78889Y117700D01*
X78909Y117679D01*
X79007Y117621D01*
X79101Y117559D01*
X79129Y117550D01*
X79154Y117535D01*
X79264Y117507D01*
X79372Y117473D01*
X79402Y117472D01*
X79430Y117465D01*
X79543Y117468D01*
X79656Y117466D01*
X79685Y117473D01*
X79714Y117474D01*
X79822Y117509D01*
X79931Y117537D01*
X79957Y117552D01*
X79985Y117561D01*
X80049Y117607D01*
X80176Y117683D01*
X80219Y117728D01*
X80258Y117756D01*
X80866Y118365D01*
X84234Y118365D01*
X86615Y115984D01*
X86615Y112616D01*
X84234Y110235D01*
X80866Y110235D01*
X80258Y110844D01*
X80234Y110861D01*
X80215Y110884D01*
X80121Y110947D01*
X80031Y111015D01*
X80003Y111025D01*
X79979Y111041D01*
X79871Y111076D01*
X79765Y111116D01*
X79736Y111118D01*
X79708Y111127D01*
X79594Y111130D01*
X79482Y111139D01*
X79453Y111134D01*
X79424Y111134D01*
X79314Y111106D01*
X79203Y111084D01*
X79177Y111070D01*
X79149Y111063D01*
X79051Y111005D01*
X78951Y110953D01*
X78929Y110932D01*
X78904Y110917D01*
X78827Y110835D01*
X78745Y110757D01*
X78730Y110731D01*
X78710Y110710D01*
X78658Y110609D01*
X78601Y110511D01*
X78594Y110483D01*
X78580Y110457D01*
X78567Y110380D01*
X78531Y110236D01*
X78533Y110173D01*
X78525Y110126D01*
X78525Y108168D01*
X77632Y107275D01*
X68016Y107275D01*
X67958Y107267D01*
X67900Y107269D01*
X67818Y107247D01*
X67734Y107235D01*
X67681Y107212D01*
X67625Y107197D01*
X67552Y107154D01*
X67475Y107119D01*
X67430Y107081D01*
X67380Y107052D01*
X67322Y106990D01*
X67258Y106936D01*
X67226Y106887D01*
X67186Y106844D01*
X67147Y106769D01*
X67100Y106699D01*
X67083Y106643D01*
X67056Y106591D01*
X67045Y106523D01*
X67015Y106428D01*
X67012Y106328D01*
X67001Y106260D01*
X67001Y100054D01*
X67013Y99967D01*
X67016Y99880D01*
X67033Y99827D01*
X67041Y99772D01*
X67076Y99692D01*
X67103Y99609D01*
X67131Y99570D01*
X67157Y99513D01*
X67253Y99400D01*
X67298Y99336D01*
X71912Y94722D01*
X71982Y94670D01*
X72046Y94610D01*
X72095Y94584D01*
X72139Y94551D01*
X72221Y94520D01*
X72299Y94480D01*
X72346Y94472D01*
X72405Y94450D01*
X72552Y94438D01*
X72630Y94425D01*
X79901Y94425D01*
X79906Y94424D01*
X79963Y94410D01*
X80047Y94413D01*
X80130Y94405D01*
X80188Y94417D01*
X80247Y94419D01*
X80327Y94445D01*
X80409Y94461D01*
X80461Y94488D01*
X80518Y94506D01*
X80574Y94546D01*
X80662Y94592D01*
X80734Y94661D01*
X80791Y94701D01*
X81380Y95291D01*
X84748Y95291D01*
X85692Y94346D01*
X85716Y94329D01*
X85735Y94306D01*
X85829Y94243D01*
X85919Y94175D01*
X85947Y94165D01*
X85971Y94149D01*
X86079Y94114D01*
X86185Y94074D01*
X86214Y94072D01*
X86242Y94063D01*
X86356Y94060D01*
X86468Y94051D01*
X86497Y94056D01*
X86526Y94056D01*
X86636Y94084D01*
X86747Y94106D01*
X86773Y94120D01*
X86801Y94127D01*
X86899Y94185D01*
X86999Y94237D01*
X87021Y94258D01*
X87046Y94273D01*
X87123Y94355D01*
X87205Y94433D01*
X87220Y94459D01*
X87240Y94480D01*
X87292Y94581D01*
X87349Y94679D01*
X87356Y94707D01*
X87370Y94733D01*
X87383Y94810D01*
X87419Y94954D01*
X87417Y95017D01*
X87425Y95064D01*
X87425Y97873D01*
X87840Y98287D01*
X87892Y98357D01*
X87952Y98421D01*
X87978Y98470D01*
X88011Y98514D01*
X88042Y98596D01*
X88082Y98674D01*
X88090Y98722D01*
X88112Y98780D01*
X88124Y98928D01*
X88137Y99005D01*
X88137Y104910D01*
X90516Y107289D01*
X90568Y107359D01*
X90628Y107423D01*
X90654Y107472D01*
X90687Y107516D01*
X90718Y107598D01*
X90758Y107676D01*
X90766Y107723D01*
X90788Y107782D01*
X90800Y107929D01*
X90813Y108007D01*
X90813Y163410D01*
X90805Y163468D01*
X90807Y163526D01*
X90785Y163608D01*
X90773Y163692D01*
X90750Y163745D01*
X90735Y163801D01*
X90692Y163874D01*
X90657Y163951D01*
X90619Y163996D01*
X90590Y164046D01*
X90528Y164104D01*
X90474Y164168D01*
X90425Y164200D01*
X90382Y164240D01*
X90307Y164279D01*
X90237Y164326D01*
X90181Y164343D01*
X90129Y164370D01*
X90061Y164381D01*
X89966Y164411D01*
X89866Y164414D01*
X89798Y164425D01*
X87468Y164425D01*
X86575Y165318D01*
X86575Y168148D01*
X86567Y168206D01*
X86569Y168264D01*
X86547Y168346D01*
X86535Y168430D01*
X86512Y168483D01*
X86497Y168539D01*
X86454Y168612D01*
X86419Y168689D01*
X86381Y168734D01*
X86352Y168784D01*
X86290Y168842D01*
X86236Y168906D01*
X86187Y168938D01*
X86144Y168978D01*
X86069Y169017D01*
X85999Y169064D01*
X85943Y169081D01*
X85891Y169108D01*
X85823Y169119D01*
X85728Y169149D01*
X85628Y169152D01*
X85560Y169163D01*
X79540Y169163D01*
X79482Y169155D01*
X79424Y169157D01*
X79342Y169135D01*
X79258Y169123D01*
X79205Y169100D01*
X79149Y169085D01*
X79076Y169042D01*
X78999Y169007D01*
X78954Y168969D01*
X78904Y168940D01*
X78846Y168878D01*
X78782Y168824D01*
X78750Y168775D01*
X78710Y168732D01*
X78671Y168657D01*
X78624Y168587D01*
X78607Y168531D01*
X78580Y168479D01*
X78569Y168411D01*
X78539Y168316D01*
X78536Y168216D01*
X78525Y168148D01*
X78525Y165318D01*
X77632Y164425D01*
X66368Y164425D01*
X65475Y165318D01*
X65475Y177582D01*
X66368Y178475D01*
X77632Y178475D01*
X78525Y177582D01*
X78525Y174752D01*
X78533Y174694D01*
X78531Y174636D01*
X78553Y174554D01*
X78565Y174470D01*
X78588Y174417D01*
X78603Y174361D01*
X78646Y174288D01*
X78681Y174211D01*
X78719Y174166D01*
X78748Y174116D01*
X78810Y174058D01*
X78864Y173994D01*
X78913Y173962D01*
X78956Y173922D01*
X79031Y173883D01*
X79101Y173836D01*
X79157Y173819D01*
X79209Y173792D01*
X79277Y173781D01*
X79372Y173751D01*
X79472Y173748D01*
X79540Y173737D01*
X85560Y173737D01*
X85618Y173745D01*
X85676Y173743D01*
X85758Y173765D01*
X85842Y173777D01*
X85895Y173800D01*
X85951Y173815D01*
X86024Y173858D01*
X86101Y173893D01*
X86146Y173931D01*
X86196Y173960D01*
X86254Y174022D01*
X86318Y174076D01*
X86350Y174125D01*
X86390Y174168D01*
X86429Y174243D01*
X86476Y174313D01*
X86493Y174369D01*
X86520Y174421D01*
X86531Y174489D01*
X86561Y174584D01*
X86564Y174684D01*
X86575Y174752D01*
X86575Y177582D01*
X87468Y178475D01*
X98733Y178475D01*
X98773Y178444D01*
X98814Y178402D01*
X98887Y178359D01*
X98954Y178309D01*
X99009Y178288D01*
X99059Y178258D01*
X99141Y178237D01*
X99220Y178207D01*
X99278Y178202D01*
X99335Y178188D01*
X99419Y178191D01*
X99503Y178184D01*
X99560Y178195D01*
X99619Y178197D01*
X99699Y178223D01*
X99782Y178240D01*
X99834Y178267D01*
X99889Y178285D01*
X99945Y178325D01*
X100034Y178371D01*
X100106Y178439D01*
X100163Y178479D01*
X103206Y181523D01*
X116994Y181523D01*
X124483Y174034D01*
X124552Y173982D01*
X124616Y173922D01*
X124666Y173896D01*
X124710Y173863D01*
X124792Y173832D01*
X124870Y173792D01*
X124917Y173784D01*
X124976Y173762D01*
X125123Y173750D01*
X125201Y173737D01*
X154614Y173737D01*
X154643Y173741D01*
X154672Y173738D01*
X154783Y173761D01*
X154895Y173777D01*
X154922Y173789D01*
X154951Y173794D01*
X155052Y173847D01*
X155155Y173893D01*
X155177Y173912D01*
X155203Y173925D01*
X155285Y174003D01*
X155372Y174076D01*
X155388Y174101D01*
X155409Y174121D01*
X155467Y174219D01*
X155529Y174313D01*
X155538Y174341D01*
X155553Y174366D01*
X155581Y174476D01*
X155615Y174584D01*
X155616Y174614D01*
X155623Y174642D01*
X155620Y174755D01*
X155622Y174868D01*
X155615Y174897D01*
X155614Y174926D01*
X155579Y175034D01*
X155551Y175143D01*
X155536Y175169D01*
X155527Y175197D01*
X155481Y175261D01*
X155405Y175388D01*
X155360Y175431D01*
X155332Y175470D01*
X154685Y176116D01*
X154685Y179484D01*
X157066Y181865D01*
X160434Y181865D01*
X162815Y179484D01*
X162815Y176116D01*
X161914Y175216D01*
X161879Y175169D01*
X161837Y175129D01*
X161794Y175056D01*
X161743Y174989D01*
X161723Y174934D01*
X161693Y174884D01*
X161672Y174802D01*
X161642Y174723D01*
X161637Y174665D01*
X161623Y174608D01*
X161626Y174524D01*
X161619Y174440D01*
X161630Y174382D01*
X161632Y174324D01*
X161658Y174244D01*
X161674Y174161D01*
X161701Y174109D01*
X161719Y174053D01*
X161759Y173997D01*
X161805Y173909D01*
X161874Y173836D01*
X161914Y173780D01*
X162815Y172880D01*
X162815Y169512D01*
X160434Y167131D01*
X157066Y167131D01*
X155332Y168866D01*
X155262Y168918D01*
X155198Y168978D01*
X155149Y169004D01*
X155104Y169037D01*
X155023Y169068D01*
X154945Y169108D01*
X154897Y169116D01*
X154839Y169138D01*
X154691Y169150D01*
X154614Y169163D01*
X122886Y169163D01*
X118358Y173691D01*
X118334Y173709D01*
X118315Y173731D01*
X118221Y173794D01*
X118131Y173862D01*
X118103Y173872D01*
X118079Y173889D01*
X117971Y173923D01*
X117865Y173963D01*
X117836Y173966D01*
X117808Y173974D01*
X117694Y173977D01*
X117582Y173987D01*
X117553Y173981D01*
X117524Y173982D01*
X117414Y173953D01*
X117303Y173931D01*
X117277Y173917D01*
X117249Y173910D01*
X117151Y173852D01*
X117051Y173800D01*
X117029Y173780D01*
X117004Y173765D01*
X116927Y173682D01*
X116845Y173604D01*
X116830Y173579D01*
X116810Y173557D01*
X116758Y173457D01*
X116701Y173359D01*
X116694Y173330D01*
X116680Y173304D01*
X116667Y173227D01*
X116631Y173083D01*
X116633Y173021D01*
X116625Y172973D01*
X116625Y165318D01*
X115732Y164425D01*
X113402Y164425D01*
X113344Y164417D01*
X113286Y164419D01*
X113204Y164397D01*
X113120Y164385D01*
X113067Y164362D01*
X113011Y164347D01*
X112938Y164304D01*
X112861Y164269D01*
X112816Y164231D01*
X112766Y164202D01*
X112708Y164140D01*
X112644Y164086D01*
X112612Y164037D01*
X112572Y163994D01*
X112533Y163919D01*
X112486Y163849D01*
X112469Y163793D01*
X112442Y163741D01*
X112431Y163673D01*
X112401Y163578D01*
X112398Y163478D01*
X112387Y163410D01*
X112387Y150436D01*
X110750Y148799D01*
X106209Y144258D01*
X106191Y144234D01*
X106169Y144215D01*
X106106Y144121D01*
X106038Y144031D01*
X106028Y144003D01*
X106011Y143979D01*
X105977Y143871D01*
X105937Y143765D01*
X105934Y143736D01*
X105926Y143708D01*
X105923Y143594D01*
X105913Y143482D01*
X105919Y143453D01*
X105918Y143424D01*
X105947Y143314D01*
X105969Y143203D01*
X105983Y143177D01*
X105990Y143149D01*
X106048Y143051D01*
X106100Y142951D01*
X106120Y142929D01*
X106135Y142904D01*
X106218Y142827D01*
X106296Y142745D01*
X106321Y142730D01*
X106343Y142710D01*
X106443Y142658D01*
X106541Y142601D01*
X106570Y142594D01*
X106596Y142580D01*
X106673Y142567D01*
X106817Y142531D01*
X106879Y142533D01*
X106927Y142525D01*
X113582Y142525D01*
X114475Y141632D01*
X114475Y139210D01*
X114479Y139181D01*
X114476Y139151D01*
X114499Y139040D01*
X114515Y138928D01*
X114527Y138901D01*
X114532Y138873D01*
X114584Y138772D01*
X114631Y138669D01*
X114650Y138646D01*
X114663Y138620D01*
X114741Y138538D01*
X114814Y138452D01*
X114839Y138435D01*
X114859Y138414D01*
X114957Y138357D01*
X115051Y138294D01*
X115079Y138285D01*
X115104Y138271D01*
X115214Y138243D01*
X115322Y138208D01*
X115352Y138208D01*
X115380Y138200D01*
X115493Y138204D01*
X115606Y138201D01*
X115635Y138209D01*
X115664Y138209D01*
X115772Y138244D01*
X115881Y138273D01*
X115907Y138288D01*
X115935Y138297D01*
X115998Y138342D01*
X116126Y138418D01*
X116169Y138464D01*
X116208Y138492D01*
X122638Y144922D01*
X122690Y144992D01*
X122750Y145056D01*
X122776Y145105D01*
X122809Y145149D01*
X122840Y145231D01*
X122880Y145309D01*
X122888Y145356D01*
X122910Y145415D01*
X122922Y145562D01*
X122935Y145640D01*
X122935Y147734D01*
X125316Y150115D01*
X128684Y150115D01*
X131065Y147734D01*
X131065Y144366D01*
X130456Y143758D01*
X130439Y143734D01*
X130416Y143715D01*
X130353Y143621D01*
X130285Y143531D01*
X130275Y143503D01*
X130259Y143479D01*
X130224Y143371D01*
X130184Y143265D01*
X130182Y143236D01*
X130173Y143208D01*
X130170Y143094D01*
X130161Y142982D01*
X130166Y142953D01*
X130166Y142924D01*
X130194Y142814D01*
X130216Y142703D01*
X130230Y142677D01*
X130237Y142649D01*
X130295Y142551D01*
X130347Y142451D01*
X130368Y142429D01*
X130383Y142404D01*
X130465Y142327D01*
X130543Y142245D01*
X130569Y142230D01*
X130590Y142210D01*
X130691Y142158D01*
X130789Y142101D01*
X130817Y142094D01*
X130843Y142080D01*
X130920Y142067D01*
X131064Y142031D01*
X131127Y142033D01*
X131174Y142025D01*
X139482Y142025D01*
X140375Y141132D01*
X140375Y138802D01*
X140382Y138750D01*
X140381Y138723D01*
X140382Y138719D01*
X140381Y138686D01*
X140403Y138604D01*
X140415Y138520D01*
X140438Y138467D01*
X140453Y138411D01*
X140496Y138338D01*
X140531Y138261D01*
X140569Y138216D01*
X140598Y138166D01*
X140660Y138108D01*
X140714Y138044D01*
X140763Y138012D01*
X140806Y137972D01*
X140881Y137933D01*
X140951Y137886D01*
X141007Y137869D01*
X141059Y137842D01*
X141127Y137831D01*
X141222Y137801D01*
X141322Y137798D01*
X141390Y137787D01*
X144860Y137787D01*
X144918Y137795D01*
X144976Y137793D01*
X145058Y137815D01*
X145142Y137827D01*
X145195Y137850D01*
X145251Y137865D01*
X145324Y137908D01*
X145401Y137943D01*
X145446Y137981D01*
X145496Y138010D01*
X145554Y138072D01*
X145618Y138126D01*
X145650Y138175D01*
X145690Y138218D01*
X145729Y138293D01*
X145776Y138363D01*
X145793Y138419D01*
X145820Y138471D01*
X145831Y138539D01*
X145861Y138634D01*
X145864Y138734D01*
X145875Y138802D01*
X145875Y141632D01*
X146768Y142525D01*
X158032Y142525D01*
X158925Y141632D01*
X158925Y138802D01*
X158932Y138750D01*
X158931Y138723D01*
X158932Y138719D01*
X158931Y138686D01*
X158953Y138604D01*
X158965Y138520D01*
X158988Y138467D01*
X159003Y138411D01*
X159046Y138338D01*
X159081Y138261D01*
X159119Y138216D01*
X159148Y138166D01*
X159210Y138108D01*
X159264Y138044D01*
X159313Y138012D01*
X159356Y137972D01*
X159431Y137933D01*
X159501Y137886D01*
X159557Y137869D01*
X159609Y137842D01*
X159677Y137831D01*
X159772Y137801D01*
X159872Y137798D01*
X159940Y137787D01*
X163410Y137787D01*
X163468Y137795D01*
X163526Y137793D01*
X163608Y137815D01*
X163692Y137827D01*
X163745Y137850D01*
X163801Y137865D01*
X163874Y137908D01*
X163951Y137943D01*
X163996Y137981D01*
X164046Y138010D01*
X164104Y138072D01*
X164168Y138126D01*
X164200Y138175D01*
X164240Y138218D01*
X164279Y138293D01*
X164326Y138363D01*
X164343Y138419D01*
X164370Y138471D01*
X164381Y138539D01*
X164411Y138634D01*
X164414Y138734D01*
X164425Y138802D01*
X164425Y141132D01*
X165318Y142025D01*
X177582Y142025D01*
X178475Y141132D01*
X178475Y129868D01*
X177582Y128975D01*
X165318Y128975D01*
X164425Y129868D01*
X164425Y132198D01*
X164417Y132256D01*
X164419Y132314D01*
X164397Y132396D01*
X164385Y132480D01*
X164362Y132533D01*
X164347Y132589D01*
X164304Y132662D01*
X164269Y132739D01*
X164231Y132784D01*
X164202Y132834D01*
X164140Y132892D01*
X164086Y132956D01*
X164037Y132988D01*
X163994Y133028D01*
X163919Y133067D01*
X163849Y133114D01*
X163793Y133131D01*
X163741Y133158D01*
X163673Y133169D01*
X163578Y133199D01*
X163478Y133202D01*
X163410Y133213D01*
X159940Y133213D01*
X159882Y133205D01*
X159824Y133207D01*
X159742Y133185D01*
X159658Y133173D01*
X159605Y133150D01*
X159549Y133135D01*
X159476Y133092D01*
X159399Y133057D01*
X159354Y133019D01*
X159304Y132990D01*
X159246Y132928D01*
X159182Y132874D01*
X159150Y132825D01*
X159110Y132782D01*
X159071Y132707D01*
X159024Y132637D01*
X159007Y132581D01*
X158980Y132529D01*
X158969Y132461D01*
X158939Y132366D01*
X158936Y132266D01*
X158925Y132198D01*
X158925Y129368D01*
X158032Y128475D01*
X146768Y128475D01*
X145875Y129368D01*
X145875Y132198D01*
X145867Y132256D01*
X145869Y132314D01*
X145847Y132396D01*
X145835Y132480D01*
X145812Y132533D01*
X145797Y132589D01*
X145754Y132662D01*
X145719Y132739D01*
X145681Y132784D01*
X145652Y132834D01*
X145590Y132892D01*
X145536Y132956D01*
X145487Y132988D01*
X145444Y133028D01*
X145369Y133067D01*
X145299Y133114D01*
X145243Y133131D01*
X145191Y133158D01*
X145123Y133169D01*
X145028Y133199D01*
X144928Y133202D01*
X144860Y133213D01*
X141390Y133213D01*
X141332Y133205D01*
X141274Y133207D01*
X141192Y133185D01*
X141108Y133173D01*
X141055Y133150D01*
X140999Y133135D01*
X140926Y133092D01*
X140849Y133057D01*
X140804Y133019D01*
X140754Y132990D01*
X140696Y132928D01*
X140632Y132874D01*
X140600Y132825D01*
X140560Y132782D01*
X140521Y132707D01*
X140474Y132637D01*
X140457Y132581D01*
X140430Y132529D01*
X140419Y132461D01*
X140389Y132366D01*
X140386Y132266D01*
X140375Y132198D01*
X140375Y129868D01*
X139482Y128975D01*
X127207Y128975D01*
X127170Y129015D01*
X127097Y129057D01*
X127030Y129108D01*
X126975Y129129D01*
X126924Y129158D01*
X126843Y129179D01*
X126764Y129209D01*
X126706Y129214D01*
X126649Y129228D01*
X126565Y129226D01*
X126481Y129233D01*
X126423Y129221D01*
X126365Y129219D01*
X126285Y129193D01*
X126202Y129177D01*
X126150Y129150D01*
X126094Y129132D01*
X126038Y129092D01*
X125950Y129046D01*
X125877Y128977D01*
X125821Y128937D01*
X118034Y121150D01*
X117982Y121080D01*
X117922Y121016D01*
X117896Y120967D01*
X117863Y120923D01*
X117832Y120841D01*
X117792Y120763D01*
X117784Y120716D01*
X117762Y120657D01*
X117750Y120510D01*
X117737Y120432D01*
X117737Y109031D01*
X117749Y108944D01*
X117752Y108857D01*
X117769Y108804D01*
X117777Y108750D01*
X117812Y108670D01*
X117839Y108587D01*
X117867Y108547D01*
X117893Y108490D01*
X117989Y108377D01*
X118034Y108313D01*
X118475Y107873D01*
X118475Y100440D01*
X118483Y100382D01*
X118481Y100324D01*
X118503Y100242D01*
X118515Y100158D01*
X118538Y100105D01*
X118553Y100049D01*
X118596Y99976D01*
X118631Y99899D01*
X118669Y99854D01*
X118698Y99804D01*
X118760Y99746D01*
X118814Y99682D01*
X118863Y99650D01*
X118906Y99610D01*
X118981Y99571D01*
X119051Y99524D01*
X119107Y99507D01*
X119159Y99480D01*
X119227Y99469D01*
X119322Y99439D01*
X119422Y99436D01*
X119490Y99425D01*
X120993Y99425D01*
X121079Y99437D01*
X121167Y99440D01*
X121194Y99449D01*
X132489Y99449D01*
X132576Y99461D01*
X132663Y99464D01*
X132716Y99481D01*
X132771Y99489D01*
X132851Y99524D01*
X132934Y99551D01*
X132973Y99579D01*
X133030Y99605D01*
X133144Y99701D01*
X133207Y99746D01*
X133539Y100077D01*
X133591Y100147D01*
X133651Y100211D01*
X133676Y100261D01*
X133710Y100305D01*
X133741Y100386D01*
X133781Y100464D01*
X133789Y100512D01*
X133811Y100570D01*
X133823Y100718D01*
X133836Y100795D01*
X133836Y110960D01*
X133828Y111018D01*
X133829Y111076D01*
X133808Y111158D01*
X133796Y111242D01*
X133772Y111295D01*
X133758Y111351D01*
X133715Y111424D01*
X133680Y111501D01*
X133642Y111546D01*
X133612Y111596D01*
X133551Y111654D01*
X133496Y111718D01*
X133448Y111750D01*
X133405Y111790D01*
X133330Y111829D01*
X133260Y111876D01*
X133204Y111893D01*
X133152Y111920D01*
X133084Y111931D01*
X132989Y111961D01*
X132889Y111964D01*
X132821Y111975D01*
X127218Y111975D01*
X126325Y112868D01*
X126325Y124132D01*
X127218Y125025D01*
X139482Y125025D01*
X140375Y124132D01*
X140375Y112868D01*
X139482Y111975D01*
X139425Y111975D01*
X139367Y111967D01*
X139308Y111969D01*
X139227Y111947D01*
X139143Y111935D01*
X139090Y111912D01*
X139033Y111897D01*
X138961Y111854D01*
X138884Y111819D01*
X138839Y111781D01*
X138789Y111752D01*
X138731Y111690D01*
X138667Y111636D01*
X138634Y111587D01*
X138594Y111544D01*
X138556Y111469D01*
X138509Y111399D01*
X138492Y111343D01*
X138465Y111291D01*
X138454Y111223D01*
X138424Y111128D01*
X138421Y111028D01*
X138410Y110960D01*
X138410Y102414D01*
X138418Y102356D01*
X138416Y102298D01*
X138438Y102216D01*
X138449Y102132D01*
X138473Y102079D01*
X138488Y102023D01*
X138531Y101950D01*
X138566Y101873D01*
X138603Y101828D01*
X138633Y101778D01*
X138695Y101720D01*
X138749Y101656D01*
X138798Y101624D01*
X138841Y101584D01*
X138916Y101545D01*
X138986Y101498D01*
X139042Y101481D01*
X139094Y101454D01*
X139162Y101443D01*
X139257Y101413D01*
X139357Y101410D01*
X139425Y101399D01*
X144540Y101399D01*
X146193Y99746D01*
X146262Y99694D01*
X146326Y99634D01*
X146376Y99608D01*
X146420Y99575D01*
X146502Y99544D01*
X146579Y99504D01*
X146627Y99496D01*
X146686Y99474D01*
X146833Y99462D01*
X146911Y99449D01*
X149098Y99449D01*
X149156Y99457D01*
X149214Y99455D01*
X149296Y99477D01*
X149380Y99489D01*
X149433Y99512D01*
X149489Y99527D01*
X149562Y99570D01*
X149639Y99605D01*
X149684Y99643D01*
X149734Y99672D01*
X149792Y99734D01*
X149856Y99788D01*
X149888Y99837D01*
X149928Y99880D01*
X149967Y99955D01*
X150014Y100025D01*
X150031Y100081D01*
X150058Y100133D01*
X150069Y100201D01*
X150099Y100296D01*
X150102Y100396D01*
X150113Y100464D01*
X150113Y110460D01*
X150106Y110511D01*
X150107Y110528D01*
X150105Y110533D01*
X150107Y110576D01*
X150085Y110658D01*
X150073Y110742D01*
X150050Y110795D01*
X150035Y110851D01*
X149992Y110924D01*
X149957Y111001D01*
X149919Y111046D01*
X149890Y111096D01*
X149828Y111154D01*
X149774Y111218D01*
X149725Y111250D01*
X149682Y111290D01*
X149607Y111329D01*
X149537Y111376D01*
X149481Y111393D01*
X149429Y111420D01*
X149361Y111431D01*
X149266Y111461D01*
X149166Y111464D01*
X149098Y111475D01*
X146768Y111475D01*
X145875Y112368D01*
X145875Y124632D01*
X146768Y125525D01*
X158032Y125525D01*
X158925Y124632D01*
X158925Y112368D01*
X158032Y111475D01*
X155702Y111475D01*
X155644Y111467D01*
X155586Y111469D01*
X155504Y111447D01*
X155420Y111435D01*
X155367Y111412D01*
X155311Y111397D01*
X155238Y111354D01*
X155161Y111319D01*
X155116Y111281D01*
X155066Y111252D01*
X155008Y111190D01*
X154944Y111136D01*
X154912Y111087D01*
X154872Y111044D01*
X154833Y110969D01*
X154786Y110899D01*
X154769Y110843D01*
X154742Y110791D01*
X154731Y110723D01*
X154701Y110628D01*
X154698Y110528D01*
X154687Y110460D01*
X154687Y104299D01*
X154691Y104270D01*
X154688Y104241D01*
X154694Y104215D01*
X154693Y104204D01*
X154704Y104164D01*
X154711Y104130D01*
X154727Y104018D01*
X154739Y103991D01*
X154744Y103962D01*
X154796Y103862D01*
X154843Y103758D01*
X154862Y103736D01*
X154875Y103710D01*
X154953Y103628D01*
X155026Y103541D01*
X155051Y103525D01*
X155071Y103504D01*
X155169Y103447D01*
X155263Y103384D01*
X155291Y103375D01*
X155316Y103360D01*
X155426Y103332D01*
X155534Y103298D01*
X155564Y103297D01*
X155592Y103290D01*
X155705Y103294D01*
X155818Y103291D01*
X155847Y103298D01*
X155876Y103299D01*
X155984Y103334D01*
X156093Y103363D01*
X156119Y103378D01*
X156147Y103387D01*
X156210Y103432D01*
X156246Y103453D01*
X156264Y103461D01*
X156275Y103470D01*
X156338Y103508D01*
X156381Y103553D01*
X156420Y103581D01*
X161754Y108915D01*
X161754Y108916D01*
X163837Y110999D01*
X163844Y110999D01*
X163873Y111003D01*
X163902Y111000D01*
X164013Y111023D01*
X164125Y111039D01*
X164152Y111051D01*
X164181Y111056D01*
X164281Y111108D01*
X164385Y111155D01*
X164407Y111174D01*
X164433Y111187D01*
X164515Y111265D01*
X164602Y111338D01*
X164618Y111363D01*
X164639Y111383D01*
X164697Y111481D01*
X164759Y111575D01*
X164768Y111603D01*
X164783Y111628D01*
X164811Y111738D01*
X164845Y111846D01*
X164846Y111875D01*
X164853Y111904D01*
X164850Y112017D01*
X164853Y112130D01*
X164845Y112159D01*
X164844Y112188D01*
X164809Y112296D01*
X164781Y112405D01*
X164766Y112431D01*
X164757Y112459D01*
X164711Y112523D01*
X164635Y112650D01*
X164590Y112693D01*
X164562Y112732D01*
X164425Y112868D01*
X164425Y124132D01*
X165318Y125025D01*
X177582Y125025D01*
X178475Y124132D01*
X178475Y118588D01*
X178479Y118559D01*
X178476Y118530D01*
X178499Y118419D01*
X178515Y118307D01*
X178527Y118280D01*
X178532Y118251D01*
X178585Y118150D01*
X178631Y118047D01*
X178650Y118025D01*
X178663Y117999D01*
X178741Y117917D01*
X178814Y117830D01*
X178839Y117814D01*
X178859Y117793D01*
X178957Y117735D01*
X179051Y117673D01*
X179079Y117664D01*
X179104Y117649D01*
X179214Y117621D01*
X179322Y117587D01*
X179352Y117586D01*
X179380Y117579D01*
X179493Y117582D01*
X179606Y117580D01*
X179635Y117587D01*
X179664Y117588D01*
X179772Y117623D01*
X179881Y117651D01*
X179907Y117666D01*
X179935Y117675D01*
X179999Y117721D01*
X180126Y117797D01*
X180169Y117842D01*
X180208Y117870D01*
X180702Y118365D01*
X184070Y118365D01*
X186451Y115984D01*
X186451Y112578D01*
X186395Y112505D01*
X186385Y112477D01*
X186369Y112453D01*
X186334Y112345D01*
X186294Y112239D01*
X186292Y112210D01*
X186283Y112182D01*
X186280Y112069D01*
X186271Y111956D01*
X186276Y111927D01*
X186276Y111898D01*
X186304Y111788D01*
X186326Y111677D01*
X186340Y111651D01*
X186347Y111623D01*
X186405Y111525D01*
X186457Y111425D01*
X186478Y111403D01*
X186493Y111378D01*
X186575Y111301D01*
X186653Y111219D01*
X186679Y111204D01*
X186700Y111184D01*
X186801Y111132D01*
X186898Y111075D01*
X186927Y111068D01*
X186953Y111054D01*
X187030Y111041D01*
X187174Y111005D01*
X187237Y111007D01*
X187284Y110999D01*
X199666Y110999D01*
X223013Y87652D01*
X223013Y86519D01*
X223025Y86433D01*
X223028Y86345D01*
X223045Y86293D01*
X223053Y86238D01*
X223088Y86158D01*
X223115Y86075D01*
X223143Y86036D01*
X223169Y85978D01*
X223265Y85865D01*
X223310Y85801D01*
X229565Y79546D01*
X229635Y79494D01*
X229699Y79434D01*
X229749Y79408D01*
X229793Y79375D01*
X229874Y79344D01*
X229952Y79304D01*
X230000Y79296D01*
X230058Y79274D01*
X230206Y79262D01*
X230283Y79249D01*
X250880Y79249D01*
X250966Y79261D01*
X251054Y79264D01*
X251106Y79281D01*
X251161Y79289D01*
X251241Y79324D01*
X251324Y79351D01*
X251364Y79379D01*
X251421Y79405D01*
X251534Y79501D01*
X251598Y79546D01*
X252316Y80265D01*
X255684Y80265D01*
X258065Y77884D01*
X258065Y74516D01*
X255684Y72135D01*
X252316Y72135D01*
X251598Y72854D01*
X251528Y72906D01*
X251464Y72966D01*
X251415Y72992D01*
X251370Y73025D01*
X251289Y73056D01*
X251211Y73096D01*
X251163Y73104D01*
X251105Y73126D01*
X250957Y73138D01*
X250880Y73151D01*
X227337Y73151D01*
X219749Y80739D01*
X219703Y80774D01*
X219662Y80817D01*
X219590Y80859D01*
X219522Y80910D01*
X219467Y80931D01*
X219417Y80960D01*
X219335Y80981D01*
X219256Y81011D01*
X219198Y81016D01*
X219142Y81031D01*
X219057Y81028D01*
X218973Y81035D01*
X218916Y81023D01*
X218857Y81021D01*
X218777Y80996D01*
X218694Y80979D01*
X218643Y80952D01*
X218587Y80934D01*
X218531Y80894D01*
X218442Y80848D01*
X218370Y80779D01*
X218314Y80739D01*
X216060Y78485D01*
X212692Y78485D01*
X210311Y80866D01*
X210311Y84234D01*
X212692Y86615D01*
X212975Y86615D01*
X213004Y86619D01*
X213034Y86616D01*
X213145Y86639D01*
X213257Y86655D01*
X213284Y86667D01*
X213312Y86672D01*
X213413Y86724D01*
X213516Y86771D01*
X213539Y86790D01*
X213565Y86803D01*
X213647Y86881D01*
X213733Y86954D01*
X213750Y86979D01*
X213771Y86999D01*
X213828Y87097D01*
X213891Y87191D01*
X213900Y87219D01*
X213915Y87244D01*
X213942Y87354D01*
X213977Y87462D01*
X213977Y87492D01*
X213985Y87520D01*
X213981Y87633D01*
X213984Y87746D01*
X213977Y87775D01*
X213976Y87804D01*
X213941Y87912D01*
X213912Y88021D01*
X213897Y88047D01*
X213888Y88075D01*
X213843Y88138D01*
X213767Y88266D01*
X213721Y88309D01*
X213693Y88348D01*
X197437Y104604D01*
X197367Y104656D01*
X197304Y104716D01*
X197254Y104742D01*
X197210Y104775D01*
X197128Y104806D01*
X197050Y104846D01*
X197003Y104854D01*
X196944Y104876D01*
X196797Y104888D01*
X196719Y104901D01*
X166783Y104901D01*
X166697Y104889D01*
X166609Y104886D01*
X166557Y104869D01*
X166502Y104861D01*
X166422Y104826D01*
X166339Y104799D01*
X166300Y104771D01*
X166242Y104745D01*
X166129Y104649D01*
X166065Y104604D01*
X156896Y95435D01*
X156896Y95434D01*
X154813Y93351D01*
X148573Y93351D01*
X148544Y93347D01*
X148514Y93350D01*
X148403Y93327D01*
X148291Y93311D01*
X148264Y93299D01*
X148236Y93294D01*
X148135Y93242D01*
X148032Y93195D01*
X148009Y93176D01*
X147983Y93163D01*
X147901Y93085D01*
X147815Y93012D01*
X147798Y92987D01*
X147777Y92967D01*
X147720Y92869D01*
X147657Y92775D01*
X147648Y92747D01*
X147634Y92722D01*
X147606Y92612D01*
X147571Y92504D01*
X147571Y92474D01*
X147563Y92446D01*
X147567Y92333D01*
X147564Y92220D01*
X147572Y92191D01*
X147572Y92162D01*
X147607Y92054D01*
X147636Y91945D01*
X147651Y91919D01*
X147660Y91891D01*
X147705Y91828D01*
X147781Y91700D01*
X147827Y91657D01*
X147855Y91618D01*
X151839Y87634D01*
X151909Y87582D01*
X151973Y87522D01*
X152022Y87496D01*
X152066Y87463D01*
X152148Y87432D01*
X152226Y87392D01*
X152273Y87384D01*
X152332Y87362D01*
X152479Y87350D01*
X152557Y87337D01*
X173707Y87337D01*
X180482Y80562D01*
X180552Y80510D01*
X180616Y80450D01*
X180665Y80424D01*
X180709Y80391D01*
X180791Y80360D01*
X180869Y80320D01*
X180916Y80312D01*
X180975Y80290D01*
X181122Y80278D01*
X181200Y80265D01*
X183294Y80265D01*
X185675Y77884D01*
X185675Y74516D01*
X183294Y72135D01*
X179926Y72135D01*
X177545Y74516D01*
X177545Y76610D01*
X177533Y76697D01*
X177530Y76784D01*
X177513Y76837D01*
X177505Y76892D01*
X177470Y76972D01*
X177443Y77055D01*
X177415Y77094D01*
X177389Y77151D01*
X177293Y77264D01*
X177248Y77328D01*
X172110Y82466D01*
X172040Y82518D01*
X171976Y82578D01*
X171927Y82604D01*
X171883Y82637D01*
X171801Y82668D01*
X171723Y82708D01*
X171676Y82716D01*
X171617Y82738D01*
X171470Y82750D01*
X171392Y82763D01*
X150242Y82763D01*
X145088Y87917D01*
X145041Y87953D01*
X145001Y87995D01*
X144928Y88038D01*
X144860Y88088D01*
X144806Y88109D01*
X144755Y88139D01*
X144674Y88160D01*
X144595Y88190D01*
X144536Y88194D01*
X144480Y88209D01*
X144396Y88206D01*
X144311Y88213D01*
X144254Y88202D01*
X144196Y88200D01*
X144115Y88174D01*
X144033Y88157D01*
X143981Y88130D01*
X143925Y88112D01*
X143869Y88072D01*
X143780Y88026D01*
X143708Y87958D01*
X143652Y87917D01*
X141384Y85649D01*
X138016Y85649D01*
X135635Y88030D01*
X135635Y88098D01*
X135628Y88153D01*
X135629Y88193D01*
X135628Y88195D01*
X135629Y88214D01*
X135607Y88296D01*
X135595Y88380D01*
X135572Y88433D01*
X135557Y88489D01*
X135514Y88562D01*
X135479Y88639D01*
X135441Y88684D01*
X135412Y88734D01*
X135350Y88792D01*
X135296Y88856D01*
X135247Y88888D01*
X135204Y88928D01*
X135129Y88967D01*
X135059Y89014D01*
X135003Y89031D01*
X134951Y89058D01*
X134883Y89069D01*
X134788Y89099D01*
X134688Y89102D01*
X134620Y89113D01*
X130317Y89113D01*
X130268Y89106D01*
X130220Y89109D01*
X130128Y89087D01*
X130035Y89073D01*
X129991Y89054D01*
X129943Y89042D01*
X129861Y88996D01*
X129776Y88957D01*
X129738Y88926D01*
X129696Y88902D01*
X129630Y88834D01*
X129559Y88774D01*
X129532Y88733D01*
X129498Y88698D01*
X129453Y88615D01*
X129401Y88537D01*
X129386Y88490D01*
X129363Y88447D01*
X129344Y88355D01*
X129315Y88266D01*
X129314Y88217D01*
X129304Y88169D01*
X129311Y88095D01*
X129308Y87982D01*
X129330Y87898D01*
X129336Y87835D01*
X129448Y87415D01*
X122700Y87415D01*
X122642Y87407D01*
X122584Y87409D01*
X122502Y87387D01*
X122419Y87376D01*
X122365Y87352D01*
X122309Y87337D01*
X122236Y87294D01*
X122159Y87259D01*
X122115Y87222D01*
X122065Y87192D01*
X122007Y87130D01*
X121942Y87076D01*
X121910Y87027D01*
X121870Y86984D01*
X121832Y86909D01*
X121785Y86839D01*
X121767Y86783D01*
X121741Y86731D01*
X121729Y86663D01*
X121699Y86568D01*
X121696Y86468D01*
X121685Y86400D01*
X121693Y86342D01*
X121692Y86284D01*
X121692Y86283D01*
X121713Y86202D01*
X121725Y86118D01*
X121749Y86065D01*
X121764Y86008D01*
X121807Y85936D01*
X121841Y85859D01*
X121879Y85814D01*
X121909Y85764D01*
X121970Y85706D01*
X122025Y85642D01*
X122073Y85610D01*
X122116Y85569D01*
X122191Y85531D01*
X122261Y85484D01*
X122317Y85467D01*
X122369Y85440D01*
X122437Y85429D01*
X122532Y85399D01*
X122632Y85396D01*
X122700Y85385D01*
X129448Y85385D01*
X129241Y84610D01*
X128747Y83754D01*
X128720Y83718D01*
X128660Y83654D01*
X128634Y83605D01*
X128601Y83561D01*
X128570Y83479D01*
X128530Y83401D01*
X128522Y83354D01*
X128500Y83295D01*
X128490Y83171D01*
X128489Y83168D01*
X128488Y83156D01*
X128488Y83147D01*
X128475Y83070D01*
X128475Y79850D01*
X128467Y79829D01*
X128437Y79779D01*
X128416Y79697D01*
X128386Y79618D01*
X128382Y79560D01*
X128367Y79503D01*
X128370Y79419D01*
X128363Y79335D01*
X128374Y79278D01*
X128376Y79219D01*
X128402Y79139D01*
X128419Y79056D01*
X128446Y79004D01*
X128464Y78949D01*
X128504Y78893D01*
X128550Y78804D01*
X128618Y78732D01*
X128659Y78675D01*
X130088Y77246D01*
X130112Y77228D01*
X130131Y77206D01*
X130225Y77143D01*
X130315Y77075D01*
X130343Y77064D01*
X130367Y77048D01*
X130475Y77014D01*
X130581Y76974D01*
X130610Y76971D01*
X130638Y76962D01*
X130752Y76959D01*
X130864Y76950D01*
X130893Y76956D01*
X130922Y76955D01*
X131032Y76984D01*
X131143Y77006D01*
X131169Y77020D01*
X131197Y77027D01*
X131295Y77085D01*
X131395Y77137D01*
X131417Y77157D01*
X131442Y77172D01*
X131519Y77255D01*
X131601Y77333D01*
X131616Y77358D01*
X131636Y77379D01*
X131688Y77480D01*
X131745Y77578D01*
X131752Y77606D01*
X131766Y77633D01*
X131779Y77710D01*
X131815Y77854D01*
X131815Y77877D01*
X134202Y80265D01*
X137570Y80265D01*
X139951Y77884D01*
X139951Y74516D01*
X137570Y72135D01*
X133952Y72135D01*
X133894Y72127D01*
X133836Y72129D01*
X133754Y72107D01*
X133670Y72095D01*
X133617Y72072D01*
X133561Y72057D01*
X133488Y72014D01*
X133411Y71979D01*
X133366Y71941D01*
X133316Y71912D01*
X133258Y71850D01*
X133194Y71796D01*
X133162Y71747D01*
X133122Y71704D01*
X133083Y71629D01*
X133036Y71559D01*
X133019Y71503D01*
X132992Y71451D01*
X132981Y71383D01*
X132951Y71288D01*
X132948Y71188D01*
X132937Y71120D01*
X132937Y60490D01*
X132945Y60432D01*
X132943Y60374D01*
X132965Y60292D01*
X132977Y60208D01*
X133000Y60155D01*
X133015Y60099D01*
X133058Y60026D01*
X133093Y59949D01*
X133131Y59904D01*
X133160Y59854D01*
X133222Y59796D01*
X133276Y59732D01*
X133325Y59700D01*
X133368Y59660D01*
X133443Y59621D01*
X133513Y59574D01*
X133569Y59557D01*
X133621Y59530D01*
X133689Y59519D01*
X133784Y59489D01*
X133884Y59486D01*
X133952Y59475D01*
X135782Y59475D01*
X136675Y58582D01*
X136675Y56252D01*
X136683Y56194D01*
X136681Y56136D01*
X136703Y56054D01*
X136715Y55970D01*
X136738Y55917D01*
X136753Y55861D01*
X136796Y55788D01*
X136831Y55711D01*
X136869Y55666D01*
X136898Y55616D01*
X136960Y55558D01*
X137014Y55494D01*
X137063Y55462D01*
X137106Y55422D01*
X137181Y55383D01*
X137251Y55336D01*
X137307Y55319D01*
X137359Y55292D01*
X137427Y55281D01*
X137522Y55251D01*
X137622Y55248D01*
X137690Y55237D01*
X138510Y55237D01*
X138568Y55245D01*
X138626Y55243D01*
X138708Y55265D01*
X138792Y55277D01*
X138845Y55300D01*
X138901Y55315D01*
X138974Y55358D01*
X139051Y55393D01*
X139096Y55431D01*
X139146Y55460D01*
X139204Y55522D01*
X139268Y55576D01*
X139300Y55625D01*
X139340Y55668D01*
X139379Y55743D01*
X139426Y55813D01*
X139443Y55869D01*
X139470Y55921D01*
X139481Y55989D01*
X139511Y56084D01*
X139514Y56184D01*
X139525Y56252D01*
X139525Y59082D01*
X140418Y59975D01*
X151682Y59975D01*
X152575Y59082D01*
X152575Y47752D01*
X152583Y47694D01*
X152581Y47636D01*
X152603Y47554D01*
X152615Y47470D01*
X152638Y47417D01*
X152653Y47361D01*
X152696Y47288D01*
X152731Y47211D01*
X152769Y47166D01*
X152798Y47116D01*
X152860Y47058D01*
X152914Y46994D01*
X152963Y46962D01*
X153006Y46922D01*
X153081Y46883D01*
X153151Y46836D01*
X153207Y46819D01*
X153259Y46792D01*
X153327Y46781D01*
X153422Y46751D01*
X153522Y46748D01*
X153590Y46737D01*
X161218Y46737D01*
X161304Y46749D01*
X161392Y46752D01*
X161444Y46769D01*
X161499Y46777D01*
X161579Y46812D01*
X161662Y46839D01*
X161702Y46867D01*
X161759Y46893D01*
X161872Y46989D01*
X161936Y47034D01*
X163416Y48515D01*
X166784Y48515D01*
X169165Y46134D01*
X169165Y42766D01*
X166784Y40385D01*
X163416Y40385D01*
X161936Y41866D01*
X161866Y41918D01*
X161802Y41978D01*
X161753Y42004D01*
X161708Y42037D01*
X161627Y42068D01*
X161549Y42108D01*
X161501Y42116D01*
X161443Y42138D01*
X161295Y42150D01*
X161218Y42163D01*
X154606Y42163D01*
X154548Y42155D01*
X154490Y42157D01*
X154408Y42135D01*
X154324Y42123D01*
X154271Y42100D01*
X154215Y42085D01*
X154142Y42042D01*
X154065Y42007D01*
X154020Y41969D01*
X153970Y41940D01*
X153912Y41878D01*
X153848Y41824D01*
X153816Y41775D01*
X153776Y41732D01*
X153737Y41657D01*
X153690Y41587D01*
X153673Y41531D01*
X153646Y41479D01*
X153635Y41411D01*
X153605Y41316D01*
X153602Y41216D01*
X153591Y41148D01*
X153591Y37981D01*
X147066Y37981D01*
X147008Y37973D01*
X146950Y37974D01*
X146868Y37953D01*
X146785Y37941D01*
X146731Y37917D01*
X146675Y37903D01*
X146602Y37860D01*
X146525Y37825D01*
X146481Y37787D01*
X146430Y37757D01*
X146373Y37696D01*
X146308Y37641D01*
X146276Y37593D01*
X146236Y37550D01*
X146197Y37475D01*
X146151Y37405D01*
X146133Y37349D01*
X146106Y37297D01*
X146095Y37229D01*
X146065Y37134D01*
X146062Y37034D01*
X146051Y36966D01*
X146051Y35949D01*
X145034Y35949D01*
X144976Y35941D01*
X144918Y35942D01*
X144836Y35921D01*
X144753Y35909D01*
X144699Y35885D01*
X144643Y35871D01*
X144570Y35828D01*
X144493Y35793D01*
X144448Y35755D01*
X144398Y35725D01*
X144340Y35664D01*
X144276Y35609D01*
X144244Y35561D01*
X144204Y35518D01*
X144165Y35443D01*
X144119Y35373D01*
X144101Y35317D01*
X144074Y35265D01*
X144063Y35197D01*
X144033Y35102D01*
X144030Y35002D01*
X144019Y34934D01*
X144019Y27909D01*
X141892Y27909D01*
X141834Y27901D01*
X141776Y27903D01*
X141694Y27881D01*
X141610Y27869D01*
X141557Y27846D01*
X141500Y27831D01*
X141428Y27788D01*
X141351Y27753D01*
X141306Y27715D01*
X141256Y27686D01*
X141198Y27624D01*
X141134Y27570D01*
X141102Y27521D01*
X141062Y27478D01*
X141023Y27403D01*
X140976Y27333D01*
X140959Y27277D01*
X140932Y27225D01*
X140921Y27157D01*
X140891Y27062D01*
X140888Y26962D01*
X140877Y26894D01*
X140877Y23959D01*
X138214Y21297D01*
X134449Y21297D01*
X131787Y23959D01*
X131787Y27728D01*
X131795Y27735D01*
X131858Y27829D01*
X131926Y27919D01*
X131936Y27947D01*
X131953Y27971D01*
X131987Y28079D01*
X132027Y28185D01*
X132029Y28214D01*
X132038Y28242D01*
X132041Y28355D01*
X132051Y28468D01*
X132045Y28497D01*
X132046Y28526D01*
X132017Y28636D01*
X131995Y28747D01*
X131981Y28773D01*
X131974Y28801D01*
X131916Y28899D01*
X131864Y28999D01*
X131844Y29021D01*
X131829Y29046D01*
X131746Y29123D01*
X131668Y29205D01*
X131643Y29220D01*
X131621Y29240D01*
X131520Y29292D01*
X131423Y29349D01*
X131394Y29356D01*
X131368Y29370D01*
X131291Y29383D01*
X131147Y29419D01*
X131085Y29417D01*
X131037Y29425D01*
X125518Y29425D01*
X124625Y30318D01*
X124625Y39582D01*
X125474Y40430D01*
X125491Y40454D01*
X125514Y40473D01*
X125577Y40567D01*
X125645Y40657D01*
X125655Y40685D01*
X125671Y40709D01*
X125706Y40817D01*
X125746Y40923D01*
X125748Y40952D01*
X125757Y40980D01*
X125760Y41094D01*
X125770Y41206D01*
X125764Y41235D01*
X125765Y41264D01*
X125736Y41374D01*
X125714Y41485D01*
X125700Y41511D01*
X125693Y41539D01*
X125635Y41637D01*
X125583Y41737D01*
X125562Y41759D01*
X125547Y41784D01*
X125465Y41861D01*
X125387Y41943D01*
X125362Y41958D01*
X125340Y41978D01*
X125239Y42030D01*
X125142Y42087D01*
X125113Y42094D01*
X125087Y42108D01*
X125010Y42121D01*
X124866Y42157D01*
X124804Y42155D01*
X124756Y42163D01*
X119738Y42163D01*
X119680Y42155D01*
X119622Y42157D01*
X119540Y42135D01*
X119456Y42123D01*
X119403Y42100D01*
X119347Y42085D01*
X119274Y42042D01*
X119197Y42007D01*
X119152Y41969D01*
X119102Y41940D01*
X119044Y41878D01*
X118980Y41824D01*
X118948Y41775D01*
X118908Y41732D01*
X118869Y41657D01*
X118822Y41587D01*
X118805Y41531D01*
X118778Y41479D01*
X118767Y41411D01*
X118737Y41316D01*
X118734Y41216D01*
X118723Y41148D01*
X118723Y38556D01*
X116044Y35877D01*
X102790Y35877D01*
X102732Y35869D01*
X102674Y35871D01*
X102592Y35849D01*
X102508Y35837D01*
X102455Y35814D01*
X102399Y35799D01*
X102326Y35756D01*
X102249Y35721D01*
X102204Y35683D01*
X102154Y35654D01*
X102096Y35592D01*
X102032Y35538D01*
X102000Y35489D01*
X101960Y35446D01*
X101921Y35371D01*
X101874Y35301D01*
X101857Y35245D01*
X101830Y35193D01*
X101819Y35125D01*
X101789Y35030D01*
X101786Y34930D01*
X101775Y34862D01*
X101775Y29818D01*
X100882Y28925D01*
X93574Y28925D01*
X93545Y28921D01*
X93516Y28924D01*
X93405Y28901D01*
X93293Y28885D01*
X93266Y28873D01*
X93237Y28868D01*
X93137Y28816D01*
X93033Y28769D01*
X93011Y28750D01*
X92985Y28737D01*
X92903Y28659D01*
X92816Y28586D01*
X92800Y28561D01*
X92779Y28541D01*
X92721Y28443D01*
X92659Y28349D01*
X92650Y28321D01*
X92635Y28296D01*
X92607Y28186D01*
X92573Y28078D01*
X92572Y28049D01*
X92565Y28020D01*
X92568Y27907D01*
X92566Y27794D01*
X92573Y27765D01*
X92574Y27736D01*
X92609Y27628D01*
X92637Y27519D01*
X92652Y27493D01*
X92661Y27465D01*
X92707Y27401D01*
X92783Y27274D01*
X92828Y27231D01*
X92856Y27192D01*
X92965Y27084D01*
X92965Y25908D01*
X92973Y25850D01*
X92971Y25792D01*
X92993Y25710D01*
X93005Y25626D01*
X93028Y25573D01*
X93043Y25517D01*
X93086Y25444D01*
X93121Y25367D01*
X93159Y25322D01*
X93188Y25272D01*
X93250Y25214D01*
X93304Y25150D01*
X93353Y25118D01*
X93396Y25078D01*
X93471Y25039D01*
X93541Y24992D01*
X93597Y24975D01*
X93649Y24948D01*
X93717Y24937D01*
X93812Y24907D01*
X93912Y24904D01*
X93980Y24893D01*
X111114Y24893D01*
X117969Y18038D01*
X118016Y18002D01*
X118056Y17960D01*
X118129Y17917D01*
X118196Y17867D01*
X118251Y17846D01*
X118301Y17816D01*
X118383Y17796D01*
X118462Y17765D01*
X118520Y17761D01*
X118577Y17746D01*
X118661Y17749D01*
X118745Y17742D01*
X118803Y17753D01*
X118861Y17755D01*
X118941Y17781D01*
X119024Y17798D01*
X119076Y17825D01*
X119132Y17843D01*
X119188Y17883D01*
X119276Y17929D01*
X119349Y17997D01*
X119405Y18038D01*
X123212Y21845D01*
X130788Y21845D01*
X136145Y16488D01*
X136145Y8912D01*
X132776Y5544D01*
X132759Y5520D01*
X132736Y5501D01*
X132674Y5407D01*
X132606Y5317D01*
X132595Y5289D01*
X132579Y5265D01*
X132545Y5157D01*
X132504Y5051D01*
X132502Y5022D01*
X132493Y4994D01*
X132490Y4880D01*
X132481Y4768D01*
X132487Y4739D01*
X132486Y4710D01*
X132514Y4600D01*
X132537Y4489D01*
X132550Y4463D01*
X132558Y4435D01*
X132615Y4337D01*
X132668Y4237D01*
X132688Y4215D01*
X132703Y4190D01*
X132785Y4113D01*
X132863Y4031D01*
X132889Y4016D01*
X132910Y3996D01*
X133011Y3944D01*
X133109Y3887D01*
X133137Y3880D01*
X133163Y3866D01*
X133241Y3853D01*
X133384Y3817D01*
X133447Y3819D01*
X133494Y3811D01*
X145906Y3811D01*
X145935Y3815D01*
X145964Y3812D01*
X146075Y3835D01*
X146187Y3851D01*
X146214Y3863D01*
X146243Y3868D01*
X146343Y3920D01*
X146447Y3967D01*
X146469Y3986D01*
X146495Y3999D01*
X146577Y4077D01*
X146664Y4150D01*
X146680Y4175D01*
X146701Y4195D01*
X146758Y4293D01*
X146821Y4387D01*
X146830Y4415D01*
X146845Y4440D01*
X146873Y4550D01*
X146907Y4658D01*
X146908Y4688D01*
X146915Y4716D01*
X146911Y4829D01*
X146914Y4942D01*
X146907Y4971D01*
X146906Y5000D01*
X146871Y5108D01*
X146842Y5217D01*
X146827Y5243D01*
X146818Y5271D01*
X146773Y5334D01*
X146697Y5462D01*
X146652Y5505D01*
X146624Y5544D01*
X143255Y8912D01*
X143255Y16488D01*
X148612Y21845D01*
X156188Y21845D01*
X161545Y16488D01*
X161545Y8912D01*
X158176Y5544D01*
X158159Y5520D01*
X158136Y5501D01*
X158074Y5407D01*
X158006Y5317D01*
X157995Y5289D01*
X157979Y5265D01*
X157945Y5157D01*
X157904Y5051D01*
X157902Y5022D01*
X157893Y4994D01*
X157890Y4880D01*
X157881Y4768D01*
X157887Y4739D01*
X157886Y4710D01*
X157914Y4600D01*
X157937Y4489D01*
X157950Y4463D01*
X157958Y4435D01*
X158015Y4337D01*
X158068Y4237D01*
X158088Y4215D01*
X158103Y4190D01*
X158185Y4113D01*
X158263Y4031D01*
X158289Y4016D01*
X158310Y3996D01*
X158411Y3944D01*
X158509Y3887D01*
X158537Y3880D01*
X158563Y3866D01*
X158641Y3853D01*
X158784Y3817D01*
X158847Y3819D01*
X158894Y3811D01*
X171306Y3811D01*
X171335Y3815D01*
X171364Y3812D01*
X171475Y3835D01*
X171587Y3851D01*
X171614Y3863D01*
X171643Y3868D01*
X171743Y3920D01*
X171847Y3967D01*
X171869Y3986D01*
X171895Y3999D01*
X171977Y4077D01*
X172064Y4150D01*
X172080Y4175D01*
X172101Y4195D01*
X172158Y4293D01*
X172221Y4387D01*
X172230Y4415D01*
X172245Y4440D01*
X172273Y4550D01*
X172307Y4658D01*
X172308Y4688D01*
X172315Y4716D01*
X172311Y4829D01*
X172314Y4942D01*
X172307Y4971D01*
X172306Y5000D01*
X172271Y5108D01*
X172242Y5217D01*
X172227Y5243D01*
X172218Y5271D01*
X172173Y5334D01*
X172097Y5462D01*
X172052Y5505D01*
X172024Y5544D01*
X168655Y8912D01*
X168655Y16488D01*
X174012Y21845D01*
X181588Y21845D01*
X186945Y16488D01*
X186945Y8912D01*
X183576Y5544D01*
X183559Y5520D01*
X183536Y5501D01*
X183474Y5407D01*
X183406Y5317D01*
X183395Y5289D01*
X183379Y5265D01*
X183345Y5157D01*
X183304Y5051D01*
X183302Y5022D01*
X183293Y4994D01*
X183290Y4880D01*
X183281Y4768D01*
X183287Y4739D01*
X183286Y4710D01*
X183314Y4600D01*
X183337Y4489D01*
X183350Y4463D01*
X183358Y4435D01*
X183415Y4337D01*
X183468Y4237D01*
X183488Y4215D01*
X183503Y4190D01*
X183585Y4113D01*
X183663Y4031D01*
X183689Y4016D01*
X183710Y3996D01*
X183811Y3944D01*
X183909Y3887D01*
X183937Y3880D01*
X183963Y3866D01*
X184041Y3853D01*
X184184Y3817D01*
X184247Y3819D01*
X184294Y3811D01*
X196706Y3811D01*
X196735Y3815D01*
X196764Y3812D01*
X196875Y3835D01*
X196987Y3851D01*
X197014Y3863D01*
X197043Y3868D01*
X197143Y3920D01*
X197247Y3967D01*
X197269Y3986D01*
X197295Y3999D01*
X197377Y4077D01*
X197464Y4150D01*
X197480Y4175D01*
X197501Y4195D01*
X197558Y4293D01*
X197621Y4387D01*
X197630Y4415D01*
X197645Y4440D01*
X197673Y4550D01*
X197707Y4658D01*
X197708Y4688D01*
X197715Y4716D01*
X197711Y4829D01*
X197714Y4942D01*
X197707Y4971D01*
X197706Y5000D01*
X197671Y5108D01*
X197642Y5217D01*
X197627Y5243D01*
X197618Y5271D01*
X197573Y5334D01*
X197497Y5462D01*
X197452Y5505D01*
X197424Y5544D01*
X194055Y8912D01*
X194055Y15322D01*
X194043Y15408D01*
X194040Y15496D01*
X194023Y15549D01*
X194015Y15603D01*
X193980Y15683D01*
X193953Y15766D01*
X193925Y15806D01*
X193899Y15863D01*
X193803Y15976D01*
X193758Y16040D01*
X181170Y28628D01*
X181100Y28680D01*
X181036Y28740D01*
X180987Y28766D01*
X180943Y28799D01*
X180861Y28830D01*
X180783Y28870D01*
X180735Y28878D01*
X180677Y28900D01*
X180529Y28912D01*
X180452Y28925D01*
X172168Y28925D01*
X171275Y29818D01*
X171275Y42082D01*
X172168Y42975D01*
X183432Y42975D01*
X184325Y42082D01*
X184325Y33798D01*
X184337Y33712D01*
X184340Y33624D01*
X184357Y33571D01*
X184365Y33517D01*
X184400Y33437D01*
X184427Y33354D01*
X184455Y33314D01*
X184481Y33257D01*
X184577Y33144D01*
X184622Y33080D01*
X196917Y20785D01*
X196964Y20750D01*
X197004Y20708D01*
X197077Y20665D01*
X197144Y20614D01*
X197199Y20594D01*
X197249Y20564D01*
X197331Y20543D01*
X197410Y20513D01*
X197468Y20508D01*
X197525Y20494D01*
X197609Y20497D01*
X197693Y20490D01*
X197750Y20501D01*
X197809Y20503D01*
X197889Y20529D01*
X197972Y20546D01*
X198024Y20572D01*
X198079Y20590D01*
X198136Y20631D01*
X198224Y20677D01*
X198297Y20745D01*
X198353Y20785D01*
X199412Y21845D01*
X206988Y21845D01*
X212345Y16488D01*
X212345Y8912D01*
X208976Y5544D01*
X208959Y5520D01*
X208936Y5501D01*
X208874Y5407D01*
X208806Y5317D01*
X208795Y5289D01*
X208779Y5265D01*
X208745Y5157D01*
X208704Y5051D01*
X208702Y5022D01*
X208693Y4994D01*
X208690Y4880D01*
X208681Y4768D01*
X208687Y4739D01*
X208686Y4710D01*
X208714Y4600D01*
X208737Y4489D01*
X208750Y4463D01*
X208758Y4435D01*
X208815Y4337D01*
X208868Y4237D01*
X208888Y4215D01*
X208903Y4190D01*
X208985Y4113D01*
X209063Y4031D01*
X209089Y4016D01*
X209110Y3996D01*
X209211Y3944D01*
X209309Y3887D01*
X209337Y3880D01*
X209363Y3866D01*
X209441Y3853D01*
X209584Y3817D01*
X209647Y3819D01*
X209694Y3811D01*
X222106Y3811D01*
X222135Y3815D01*
X222164Y3812D01*
X222275Y3835D01*
X222387Y3851D01*
X222414Y3863D01*
X222443Y3868D01*
X222543Y3920D01*
X222647Y3967D01*
X222669Y3986D01*
X222695Y3999D01*
X222777Y4077D01*
X222864Y4150D01*
X222880Y4175D01*
X222901Y4195D01*
X222958Y4293D01*
X223021Y4387D01*
X223030Y4415D01*
X223045Y4440D01*
X223073Y4550D01*
X223107Y4658D01*
X223108Y4688D01*
X223115Y4716D01*
X223111Y4829D01*
X223114Y4942D01*
X223107Y4971D01*
X223106Y5000D01*
X223071Y5108D01*
X223042Y5217D01*
X223027Y5243D01*
X223018Y5271D01*
X222973Y5334D01*
X222897Y5462D01*
X222852Y5505D01*
X222824Y5544D01*
X219455Y8912D01*
X219455Y16488D01*
X224812Y21845D01*
X232388Y21845D01*
X237745Y16488D01*
X237745Y8912D01*
X234376Y5544D01*
X234359Y5520D01*
X234336Y5501D01*
X234274Y5407D01*
X234206Y5317D01*
X234195Y5289D01*
X234179Y5265D01*
X234145Y5157D01*
X234104Y5051D01*
X234102Y5022D01*
X234093Y4994D01*
X234090Y4880D01*
X234081Y4768D01*
X234087Y4739D01*
X234086Y4710D01*
X234114Y4600D01*
X234137Y4489D01*
X234150Y4463D01*
X234158Y4435D01*
X234215Y4337D01*
X234268Y4237D01*
X234288Y4215D01*
X234303Y4190D01*
X234385Y4113D01*
X234463Y4031D01*
X234489Y4016D01*
X234510Y3996D01*
X234611Y3944D01*
X234709Y3887D01*
X234737Y3880D01*
X234763Y3866D01*
X234841Y3853D01*
X234984Y3817D01*
X235047Y3819D01*
X235094Y3811D01*
X247506Y3811D01*
X247535Y3815D01*
X247564Y3812D01*
X247675Y3835D01*
X247787Y3851D01*
X247814Y3863D01*
X247843Y3868D01*
X247943Y3920D01*
X248047Y3967D01*
X248069Y3986D01*
X248095Y3999D01*
X248177Y4077D01*
X248264Y4150D01*
X248280Y4175D01*
X248301Y4195D01*
X248358Y4293D01*
X248421Y4387D01*
X248430Y4415D01*
X248445Y4440D01*
X248473Y4550D01*
X248507Y4658D01*
X248508Y4688D01*
X248515Y4716D01*
X248511Y4829D01*
X248514Y4942D01*
X248507Y4971D01*
X248506Y5000D01*
X248471Y5108D01*
X248442Y5217D01*
X248427Y5243D01*
X248418Y5271D01*
X248373Y5334D01*
X248297Y5462D01*
X248252Y5505D01*
X248224Y5544D01*
X244855Y8912D01*
X244855Y16488D01*
X250212Y21845D01*
X257788Y21845D01*
X263145Y16488D01*
X263145Y8912D01*
X259776Y5544D01*
X259759Y5520D01*
X259736Y5501D01*
X259674Y5407D01*
X259606Y5317D01*
X259595Y5289D01*
X259579Y5265D01*
X259545Y5157D01*
X259504Y5051D01*
X259502Y5022D01*
X259493Y4994D01*
X259490Y4880D01*
X259481Y4768D01*
X259487Y4739D01*
X259486Y4710D01*
X259514Y4600D01*
X259537Y4489D01*
X259550Y4463D01*
X259558Y4435D01*
X259615Y4337D01*
X259668Y4237D01*
X259688Y4215D01*
X259703Y4190D01*
X259785Y4113D01*
X259863Y4031D01*
X259889Y4016D01*
X259910Y3996D01*
X260011Y3944D01*
X260109Y3887D01*
X260137Y3880D01*
X260163Y3866D01*
X260241Y3853D01*
X260384Y3817D01*
X260447Y3819D01*
X260494Y3811D01*
X272906Y3811D01*
X272935Y3815D01*
X272964Y3812D01*
X273075Y3835D01*
X273187Y3851D01*
X273214Y3863D01*
X273243Y3868D01*
X273343Y3920D01*
X273447Y3967D01*
X273469Y3986D01*
X273495Y3999D01*
X273577Y4077D01*
X273664Y4150D01*
X273680Y4175D01*
X273701Y4195D01*
X273758Y4293D01*
X273821Y4387D01*
X273830Y4415D01*
X273845Y4440D01*
X273873Y4550D01*
X273907Y4658D01*
X273908Y4688D01*
X273915Y4716D01*
X273911Y4829D01*
X273914Y4942D01*
X273907Y4971D01*
X273906Y5000D01*
X273871Y5108D01*
X273842Y5217D01*
X273827Y5243D01*
X273818Y5271D01*
X273773Y5334D01*
X273697Y5462D01*
X273652Y5505D01*
X273624Y5544D01*
X270255Y8912D01*
X270255Y16488D01*
X275612Y21845D01*
X283188Y21845D01*
X288545Y16488D01*
X288545Y8912D01*
X285176Y5544D01*
X285159Y5520D01*
X285136Y5501D01*
X285074Y5407D01*
X285006Y5317D01*
X284995Y5289D01*
X284979Y5265D01*
X284945Y5157D01*
X284904Y5051D01*
X284902Y5022D01*
X284893Y4994D01*
X284890Y4880D01*
X284881Y4768D01*
X284887Y4739D01*
X284886Y4710D01*
X284914Y4600D01*
X284937Y4489D01*
X284950Y4463D01*
X284958Y4435D01*
X285015Y4337D01*
X285068Y4237D01*
X285088Y4215D01*
X285103Y4190D01*
X285185Y4113D01*
X285263Y4031D01*
X285289Y4016D01*
X285310Y3996D01*
X285411Y3944D01*
X285509Y3887D01*
X285537Y3880D01*
X285563Y3866D01*
X285641Y3853D01*
X285784Y3817D01*
X285847Y3819D01*
X285894Y3811D01*
X298306Y3811D01*
X298335Y3815D01*
X298364Y3812D01*
X298475Y3835D01*
X298587Y3851D01*
X298614Y3863D01*
X298643Y3868D01*
X298743Y3920D01*
X298847Y3967D01*
X298869Y3986D01*
X298895Y3999D01*
X298977Y4077D01*
X299064Y4150D01*
X299080Y4175D01*
X299101Y4195D01*
X299158Y4293D01*
X299221Y4387D01*
X299230Y4415D01*
X299245Y4440D01*
X299273Y4550D01*
X299307Y4658D01*
X299308Y4688D01*
X299315Y4716D01*
X299311Y4829D01*
X299314Y4942D01*
X299307Y4971D01*
X299306Y5000D01*
X299271Y5108D01*
X299242Y5217D01*
X299227Y5243D01*
X299218Y5271D01*
X299173Y5334D01*
X299097Y5462D01*
X299052Y5505D01*
X299024Y5544D01*
X295655Y8912D01*
X295655Y16488D01*
X301012Y21845D01*
X308588Y21845D01*
X313945Y16488D01*
X313945Y8912D01*
X310576Y5544D01*
X310559Y5520D01*
X310536Y5501D01*
X310474Y5407D01*
X310406Y5317D01*
X310395Y5289D01*
X310379Y5265D01*
X310345Y5157D01*
X310304Y5051D01*
X310302Y5022D01*
X310293Y4994D01*
X310290Y4880D01*
X310281Y4768D01*
X310287Y4739D01*
X310286Y4710D01*
X310314Y4600D01*
X310337Y4489D01*
X310350Y4463D01*
X310358Y4435D01*
X310415Y4337D01*
X310468Y4237D01*
X310488Y4215D01*
X310503Y4190D01*
X310585Y4113D01*
X310663Y4031D01*
X310689Y4016D01*
X310710Y3996D01*
X310811Y3944D01*
X310909Y3887D01*
X310937Y3880D01*
X310963Y3866D01*
X311041Y3853D01*
X311184Y3817D01*
X311247Y3819D01*
X311294Y3811D01*
X323706Y3811D01*
X323735Y3815D01*
X323764Y3812D01*
X323875Y3835D01*
X323987Y3851D01*
X324014Y3863D01*
X324043Y3868D01*
X324143Y3920D01*
X324247Y3967D01*
X324269Y3986D01*
X324295Y3999D01*
X324377Y4077D01*
X324464Y4150D01*
X324480Y4175D01*
X324501Y4195D01*
X324558Y4293D01*
X324621Y4387D01*
X324630Y4415D01*
X324645Y4440D01*
X324673Y4550D01*
X324707Y4658D01*
X324708Y4688D01*
X324715Y4716D01*
X324711Y4829D01*
X324714Y4942D01*
X324707Y4971D01*
X324706Y5000D01*
X324671Y5108D01*
X324642Y5217D01*
X324627Y5243D01*
X324618Y5271D01*
X324573Y5334D01*
X324497Y5462D01*
X324452Y5505D01*
X324424Y5544D01*
X321055Y8912D01*
X321055Y16488D01*
X326412Y21845D01*
X333988Y21845D01*
X339345Y16488D01*
X339345Y8912D01*
X335976Y5544D01*
X335959Y5520D01*
X335936Y5501D01*
X335874Y5407D01*
X335806Y5317D01*
X335795Y5289D01*
X335779Y5265D01*
X335745Y5157D01*
X335704Y5051D01*
X335702Y5022D01*
X335693Y4994D01*
X335690Y4880D01*
X335681Y4768D01*
X335687Y4739D01*
X335686Y4710D01*
X335714Y4600D01*
X335737Y4489D01*
X335750Y4463D01*
X335758Y4435D01*
X335815Y4337D01*
X335868Y4237D01*
X335888Y4215D01*
X335903Y4190D01*
X335985Y4113D01*
X336063Y4031D01*
X336089Y4016D01*
X336110Y3996D01*
X336211Y3944D01*
X336309Y3887D01*
X336337Y3880D01*
X336363Y3866D01*
X336441Y3853D01*
X336584Y3817D01*
X336647Y3819D01*
X336694Y3811D01*
X379945Y3811D01*
X380002Y3819D01*
X380059Y3817D01*
X380142Y3839D01*
X380226Y3851D01*
X380279Y3874D01*
X380334Y3889D01*
X380408Y3932D01*
X380485Y3967D01*
X380529Y4004D01*
X380579Y4033D01*
X380637Y4095D01*
X380702Y4150D01*
X380734Y4198D01*
X380774Y4240D01*
X380813Y4316D01*
X380860Y4387D01*
X380877Y4442D01*
X380904Y4493D01*
X380920Y4577D01*
X380946Y4658D01*
X380947Y4716D01*
X380958Y4772D01*
X380951Y4857D01*
X380953Y4942D01*
X380939Y4998D01*
X380934Y5055D01*
X380903Y5135D01*
X380881Y5217D01*
X380852Y5267D01*
X380831Y5321D01*
X380780Y5389D01*
X380736Y5462D01*
X380694Y5501D01*
X380659Y5547D01*
X380602Y5587D01*
X380529Y5656D01*
X380441Y5701D01*
X380385Y5741D01*
X379548Y6144D01*
X376770Y7889D01*
X374205Y9935D01*
X371885Y12255D01*
X369839Y14820D01*
X368094Y17598D01*
X366670Y20554D01*
X365587Y23651D01*
X364857Y26849D01*
X364533Y29719D01*
X392684Y29719D01*
X392742Y29727D01*
X392800Y29725D01*
X392882Y29747D01*
X392965Y29759D01*
X393019Y29783D01*
X393075Y29797D01*
X393148Y29840D01*
X393225Y29875D01*
X393269Y29913D01*
X393320Y29943D01*
X393377Y30004D01*
X393442Y30059D01*
X393474Y30107D01*
X393514Y30150D01*
X393553Y30225D01*
X393599Y30295D01*
X393617Y30351D01*
X393644Y30403D01*
X393655Y30471D01*
X393685Y30566D01*
X393688Y30666D01*
X393699Y30734D01*
X393699Y31751D01*
X393701Y31751D01*
X393701Y30734D01*
X393709Y30676D01*
X393708Y30618D01*
X393729Y30536D01*
X393741Y30453D01*
X393765Y30399D01*
X393779Y30343D01*
X393822Y30270D01*
X393857Y30193D01*
X393895Y30148D01*
X393925Y30098D01*
X393986Y30040D01*
X394041Y29976D01*
X394089Y29944D01*
X394132Y29904D01*
X394207Y29865D01*
X394277Y29819D01*
X394333Y29801D01*
X394385Y29774D01*
X394453Y29763D01*
X394548Y29733D01*
X394648Y29730D01*
X394716Y29719D01*
X422867Y29719D01*
X422543Y26849D01*
X421813Y23651D01*
X420730Y20554D01*
X420701Y20494D01*
X420701Y20493D01*
X419723Y18463D01*
X419306Y17598D01*
X417561Y14820D01*
X415515Y12255D01*
X413195Y9935D01*
X410630Y7889D01*
X410354Y7716D01*
X410353Y7716D01*
X408738Y6700D01*
X407852Y6144D01*
X407015Y5741D01*
X406967Y5709D01*
X406915Y5685D01*
X406849Y5630D01*
X406779Y5583D01*
X406741Y5539D01*
X406698Y5501D01*
X406650Y5431D01*
X406595Y5365D01*
X406572Y5313D01*
X406540Y5265D01*
X406514Y5184D01*
X406480Y5106D01*
X406472Y5049D01*
X406454Y4994D01*
X406452Y4909D01*
X406440Y4824D01*
X406448Y4767D01*
X406447Y4710D01*
X406468Y4627D01*
X406481Y4543D01*
X406504Y4490D01*
X406519Y4435D01*
X406562Y4361D01*
X406597Y4284D01*
X406635Y4240D01*
X406664Y4190D01*
X406726Y4132D01*
X406781Y4067D01*
X406829Y4035D01*
X406871Y3996D01*
X406947Y3957D01*
X407018Y3910D01*
X407073Y3892D01*
X407124Y3866D01*
X407193Y3855D01*
X407289Y3824D01*
X407388Y3822D01*
X407455Y3811D01*
X431800Y3811D01*
X431844Y3817D01*
X431880Y3814D01*
X435098Y4067D01*
X435257Y4102D01*
X435332Y4114D01*
X441454Y6103D01*
X441710Y6228D01*
X441723Y6240D01*
X441737Y6247D01*
X446945Y10031D01*
X447149Y10228D01*
X447158Y10244D01*
X447169Y10255D01*
X450953Y15463D01*
X451086Y15714D01*
X451090Y15732D01*
X451097Y15746D01*
X453086Y21868D01*
X453114Y22028D01*
X453133Y22102D01*
X453386Y25320D01*
X453383Y25365D01*
X453389Y25400D01*
X453389Y190500D01*
X453383Y190544D01*
X453386Y190580D01*
X453133Y193798D01*
X453098Y193957D01*
X453086Y194032D01*
X451097Y200154D01*
X450972Y200410D01*
X450960Y200423D01*
X450953Y200437D01*
X447169Y205645D01*
X446972Y205849D01*
X446956Y205858D01*
X446945Y205869D01*
X441737Y209653D01*
X441486Y209786D01*
X441468Y209790D01*
X441454Y209797D01*
X436664Y211354D01*
X436618Y211362D01*
X436575Y211378D01*
X436479Y211386D01*
X436384Y211403D01*
X436338Y211398D01*
X436292Y211402D01*
X436197Y211383D01*
X436101Y211372D01*
X436058Y211355D01*
X436013Y211346D01*
X435927Y211301D01*
X435838Y211265D01*
X435802Y211236D01*
X435761Y211215D01*
X435691Y211148D01*
X435615Y211088D01*
X435588Y211051D01*
X435555Y211019D01*
X435506Y210936D01*
X435450Y210857D01*
X435434Y210814D01*
X435411Y210774D01*
X435387Y210680D01*
X435355Y210589D01*
X435352Y210543D01*
X435341Y210498D01*
X435344Y210402D01*
X435338Y210305D01*
X435348Y210260D01*
X435350Y210214D01*
X435380Y210122D01*
X435401Y210028D01*
X435423Y209987D01*
X435437Y209944D01*
X435481Y209882D01*
X435538Y209779D01*
X435597Y209720D01*
X435632Y209670D01*
X445360Y199942D01*
X447295Y198008D01*
X447295Y87742D01*
X426608Y67055D01*
X409719Y67055D01*
X409632Y67043D01*
X409545Y67040D01*
X409492Y67023D01*
X409438Y67015D01*
X409358Y66980D01*
X409274Y66953D01*
X409235Y66925D01*
X409178Y66899D01*
X409065Y66803D01*
X409001Y66758D01*
X408283Y66039D01*
X404517Y66039D01*
X401855Y68701D01*
X401855Y72467D01*
X404517Y75129D01*
X408283Y75129D01*
X410469Y72942D01*
X410539Y72890D01*
X410603Y72830D01*
X410652Y72804D01*
X410696Y72771D01*
X410778Y72740D01*
X410856Y72700D01*
X410904Y72692D01*
X410962Y72670D01*
X411110Y72658D01*
X411187Y72645D01*
X423872Y72645D01*
X423958Y72657D01*
X424046Y72660D01*
X424099Y72677D01*
X424153Y72685D01*
X424233Y72720D01*
X424316Y72747D01*
X424356Y72775D01*
X424413Y72801D01*
X424526Y72897D01*
X424590Y72942D01*
X441408Y89760D01*
X441460Y89830D01*
X441520Y89894D01*
X441546Y89943D01*
X441579Y89987D01*
X441610Y90069D01*
X441650Y90147D01*
X441658Y90195D01*
X441680Y90253D01*
X441692Y90401D01*
X441705Y90478D01*
X441705Y195272D01*
X441693Y195358D01*
X441690Y195446D01*
X441673Y195499D01*
X441665Y195553D01*
X441630Y195633D01*
X441603Y195716D01*
X441575Y195756D01*
X441549Y195813D01*
X441453Y195926D01*
X441408Y195990D01*
X431194Y206204D01*
X431124Y206256D01*
X431060Y206316D01*
X431011Y206342D01*
X430967Y206375D01*
X430885Y206406D01*
X430807Y206446D01*
X430759Y206454D01*
X430701Y206476D01*
X430553Y206488D01*
X430476Y206501D01*
X366848Y206501D01*
X366819Y206497D01*
X366790Y206500D01*
X366679Y206477D01*
X366567Y206461D01*
X366540Y206449D01*
X366511Y206444D01*
X366410Y206391D01*
X366307Y206345D01*
X366285Y206326D01*
X366259Y206313D01*
X366176Y206235D01*
X366090Y206162D01*
X366074Y206137D01*
X366053Y206117D01*
X365995Y206019D01*
X365933Y205925D01*
X365924Y205897D01*
X365909Y205872D01*
X365881Y205762D01*
X365847Y205654D01*
X365846Y205625D01*
X365839Y205596D01*
X365842Y205483D01*
X365840Y205370D01*
X365847Y205341D01*
X365848Y205312D01*
X365883Y205204D01*
X365911Y205095D01*
X365926Y205069D01*
X365935Y205041D01*
X365981Y204977D01*
X366015Y204921D01*
X366015Y201516D01*
X363634Y199135D01*
X362552Y199135D01*
X362494Y199127D01*
X362436Y199129D01*
X362354Y199107D01*
X362270Y199095D01*
X362217Y199072D01*
X362161Y199057D01*
X362088Y199014D01*
X362011Y198979D01*
X361966Y198941D01*
X361916Y198912D01*
X361858Y198850D01*
X361794Y198796D01*
X361762Y198747D01*
X361722Y198704D01*
X361683Y198629D01*
X361636Y198559D01*
X361619Y198503D01*
X361592Y198451D01*
X361581Y198383D01*
X361551Y198288D01*
X361548Y198188D01*
X361537Y198120D01*
X361537Y152290D01*
X361549Y152204D01*
X361552Y152116D01*
X361569Y152063D01*
X361577Y152009D01*
X361612Y151929D01*
X361639Y151845D01*
X361667Y151806D01*
X361693Y151749D01*
X361775Y151652D01*
X361775Y142869D01*
X361782Y142816D01*
X361781Y142784D01*
X361782Y142781D01*
X361781Y142753D01*
X361803Y142672D01*
X361815Y142588D01*
X361838Y142535D01*
X361853Y142478D01*
X361896Y142406D01*
X361931Y142329D01*
X361969Y142284D01*
X361998Y142234D01*
X362060Y142176D01*
X362114Y142112D01*
X362163Y142079D01*
X362206Y142039D01*
X362281Y142001D01*
X362351Y141954D01*
X362407Y141936D01*
X362459Y141910D01*
X362527Y141898D01*
X362622Y141868D01*
X362722Y141866D01*
X362790Y141854D01*
X366093Y141854D01*
X366755Y141677D01*
X367349Y141334D01*
X367834Y140849D01*
X368177Y140255D01*
X368354Y139593D01*
X368354Y136407D01*
X368177Y135745D01*
X367834Y135151D01*
X367349Y134666D01*
X366755Y134323D01*
X366093Y134146D01*
X362619Y134146D01*
X362562Y134138D01*
X362503Y134139D01*
X362422Y134118D01*
X362338Y134106D01*
X362285Y134082D01*
X362228Y134067D01*
X362156Y134024D01*
X362079Y133990D01*
X362034Y133952D01*
X361984Y133922D01*
X361926Y133860D01*
X361862Y133806D01*
X361829Y133757D01*
X361789Y133715D01*
X361751Y133640D01*
X361704Y133569D01*
X361686Y133514D01*
X361660Y133462D01*
X361648Y133394D01*
X361618Y133298D01*
X361616Y133199D01*
X361604Y133130D01*
X361604Y129031D01*
X359063Y129031D01*
X359063Y136687D01*
X365750Y136687D01*
G37*
G36*
X91498Y3819D02*
X91498Y3819D01*
X91556Y3817D01*
X91638Y3839D01*
X91722Y3851D01*
X91775Y3874D01*
X91831Y3889D01*
X91904Y3932D01*
X91981Y3967D01*
X92026Y4005D01*
X92076Y4034D01*
X92134Y4096D01*
X92198Y4150D01*
X92230Y4199D01*
X92270Y4242D01*
X92309Y4317D01*
X92356Y4387D01*
X92373Y4443D01*
X92400Y4495D01*
X92411Y4563D01*
X92441Y4658D01*
X92444Y4758D01*
X92455Y4826D01*
X92455Y19304D01*
X92447Y19362D01*
X92449Y19420D01*
X92427Y19502D01*
X92415Y19586D01*
X92392Y19639D01*
X92377Y19695D01*
X92334Y19768D01*
X92299Y19845D01*
X92261Y19890D01*
X92232Y19940D01*
X92170Y19998D01*
X92116Y20062D01*
X92067Y20094D01*
X92024Y20134D01*
X91949Y20173D01*
X91879Y20220D01*
X91823Y20237D01*
X91771Y20264D01*
X91703Y20275D01*
X91608Y20305D01*
X91508Y20308D01*
X91440Y20319D01*
X90747Y20319D01*
X90028Y21038D01*
X89958Y21090D01*
X89894Y21150D01*
X89845Y21176D01*
X89801Y21209D01*
X89719Y21240D01*
X89641Y21280D01*
X89594Y21288D01*
X89535Y21310D01*
X89388Y21322D01*
X89310Y21335D01*
X87216Y21335D01*
X84835Y23716D01*
X84835Y27084D01*
X87216Y29465D01*
X87710Y29465D01*
X87768Y29473D01*
X87826Y29471D01*
X87908Y29493D01*
X87992Y29505D01*
X88045Y29528D01*
X88101Y29543D01*
X88174Y29586D01*
X88251Y29621D01*
X88296Y29659D01*
X88346Y29688D01*
X88404Y29750D01*
X88468Y29804D01*
X88500Y29853D01*
X88540Y29896D01*
X88579Y29971D01*
X88626Y30041D01*
X88643Y30097D01*
X88670Y30149D01*
X88681Y30217D01*
X88711Y30312D01*
X88714Y30412D01*
X88725Y30480D01*
X88725Y42082D01*
X89618Y42975D01*
X99540Y42975D01*
X99569Y42979D01*
X99599Y42976D01*
X99710Y42999D01*
X99822Y43015D01*
X99849Y43027D01*
X99877Y43032D01*
X99978Y43085D01*
X100081Y43131D01*
X100104Y43150D01*
X100130Y43163D01*
X100212Y43241D01*
X100298Y43314D01*
X100314Y43339D01*
X100336Y43359D01*
X100393Y43457D01*
X100456Y43551D01*
X100465Y43579D01*
X100480Y43604D01*
X100507Y43714D01*
X100542Y43822D01*
X100542Y43852D01*
X100550Y43880D01*
X100546Y43993D01*
X100549Y44106D01*
X100541Y44135D01*
X100541Y44164D01*
X100506Y44272D01*
X100477Y44381D01*
X100462Y44407D01*
X100453Y44435D01*
X100407Y44499D01*
X100332Y44626D01*
X100286Y44669D01*
X100258Y44708D01*
X99338Y45628D01*
X99268Y45680D01*
X99204Y45740D01*
X99155Y45766D01*
X99111Y45799D01*
X99029Y45830D01*
X98951Y45870D01*
X98904Y45878D01*
X98845Y45900D01*
X98698Y45912D01*
X98620Y45925D01*
X89618Y45925D01*
X88725Y46818D01*
X88725Y59082D01*
X89618Y59975D01*
X97148Y59975D01*
X97206Y59983D01*
X97264Y59981D01*
X97346Y60003D01*
X97430Y60015D01*
X97483Y60038D01*
X97539Y60053D01*
X97612Y60096D01*
X97689Y60131D01*
X97734Y60169D01*
X97784Y60198D01*
X97842Y60260D01*
X97906Y60314D01*
X97938Y60363D01*
X97978Y60406D01*
X98017Y60481D01*
X98064Y60551D01*
X98081Y60607D01*
X98108Y60659D01*
X98119Y60727D01*
X98149Y60822D01*
X98152Y60922D01*
X98163Y60990D01*
X98163Y68769D01*
X98151Y68856D01*
X98148Y68943D01*
X98131Y68996D01*
X98123Y69050D01*
X98088Y69130D01*
X98061Y69213D01*
X98033Y69253D01*
X98007Y69310D01*
X97945Y69383D01*
X97922Y69423D01*
X97891Y69451D01*
X97866Y69487D01*
X97425Y69927D01*
X97425Y77360D01*
X97417Y77418D01*
X97419Y77476D01*
X97397Y77558D01*
X97385Y77642D01*
X97362Y77695D01*
X97347Y77751D01*
X97304Y77824D01*
X97269Y77901D01*
X97231Y77946D01*
X97202Y77996D01*
X97140Y78054D01*
X97086Y78118D01*
X97037Y78150D01*
X96994Y78190D01*
X96919Y78229D01*
X96849Y78276D01*
X96793Y78293D01*
X96741Y78320D01*
X96673Y78331D01*
X96578Y78361D01*
X96478Y78364D01*
X96410Y78375D01*
X93830Y78375D01*
X93743Y78363D01*
X93656Y78360D01*
X93603Y78343D01*
X93548Y78335D01*
X93468Y78300D01*
X93385Y78273D01*
X93346Y78245D01*
X93289Y78219D01*
X93176Y78123D01*
X93112Y78078D01*
X91484Y76450D01*
X91432Y76380D01*
X91372Y76316D01*
X91346Y76267D01*
X91313Y76223D01*
X91282Y76141D01*
X91242Y76063D01*
X91234Y76016D01*
X91212Y75957D01*
X91200Y75810D01*
X91187Y75732D01*
X91187Y73732D01*
X91199Y73646D01*
X91202Y73558D01*
X91219Y73506D01*
X91227Y73451D01*
X91262Y73371D01*
X91289Y73288D01*
X91317Y73248D01*
X91343Y73191D01*
X91439Y73078D01*
X91484Y73014D01*
X92965Y71534D01*
X92965Y68166D01*
X90584Y65785D01*
X87216Y65785D01*
X84835Y68166D01*
X84835Y71534D01*
X86316Y73014D01*
X86368Y73084D01*
X86428Y73148D01*
X86454Y73197D01*
X86487Y73242D01*
X86518Y73323D01*
X86558Y73401D01*
X86566Y73449D01*
X86588Y73507D01*
X86600Y73655D01*
X86613Y73732D01*
X86613Y78047D01*
X87241Y78675D01*
X87277Y78722D01*
X87319Y78763D01*
X87362Y78835D01*
X87412Y78903D01*
X87433Y78957D01*
X87463Y79008D01*
X87484Y79090D01*
X87514Y79168D01*
X87518Y79227D01*
X87533Y79283D01*
X87530Y79368D01*
X87537Y79452D01*
X87526Y79509D01*
X87524Y79568D01*
X87498Y79648D01*
X87481Y79730D01*
X87454Y79782D01*
X87436Y79838D01*
X87425Y79853D01*
X87425Y83098D01*
X87417Y83156D01*
X87419Y83214D01*
X87397Y83296D01*
X87385Y83380D01*
X87362Y83433D01*
X87347Y83489D01*
X87304Y83562D01*
X87269Y83639D01*
X87231Y83684D01*
X87202Y83734D01*
X87140Y83792D01*
X87086Y83856D01*
X87037Y83888D01*
X86994Y83928D01*
X86919Y83967D01*
X86849Y84014D01*
X86793Y84031D01*
X86741Y84058D01*
X86673Y84069D01*
X86578Y84099D01*
X86478Y84102D01*
X86410Y84113D01*
X80790Y84113D01*
X80703Y84101D01*
X80616Y84098D01*
X80563Y84081D01*
X80509Y84073D01*
X80429Y84038D01*
X80346Y84011D01*
X80306Y83983D01*
X80249Y83957D01*
X80136Y83861D01*
X80072Y83816D01*
X79632Y83375D01*
X69368Y83375D01*
X68475Y84268D01*
X68475Y91270D01*
X68463Y91357D01*
X68460Y91444D01*
X68443Y91497D01*
X68435Y91552D01*
X68400Y91632D01*
X68373Y91715D01*
X68345Y91754D01*
X68319Y91811D01*
X68223Y91924D01*
X68178Y91988D01*
X64306Y95860D01*
X64282Y95878D01*
X64263Y95900D01*
X64169Y95963D01*
X64079Y96031D01*
X64051Y96042D01*
X64027Y96058D01*
X63919Y96092D01*
X63813Y96132D01*
X63784Y96135D01*
X63756Y96144D01*
X63642Y96147D01*
X63530Y96156D01*
X63501Y96150D01*
X63472Y96151D01*
X63362Y96122D01*
X63251Y96100D01*
X63225Y96086D01*
X63197Y96079D01*
X63099Y96021D01*
X62999Y95969D01*
X62977Y95949D01*
X62952Y95934D01*
X62875Y95851D01*
X62793Y95773D01*
X62778Y95748D01*
X62758Y95727D01*
X62706Y95626D01*
X62649Y95528D01*
X62642Y95500D01*
X62628Y95473D01*
X62615Y95396D01*
X62579Y95252D01*
X62581Y95190D01*
X62573Y95142D01*
X62573Y92506D01*
X57584Y87517D01*
X57532Y87448D01*
X57472Y87384D01*
X57446Y87334D01*
X57413Y87290D01*
X57382Y87208D01*
X57342Y87130D01*
X57334Y87083D01*
X57312Y87024D01*
X57300Y86877D01*
X57287Y86799D01*
X57287Y85940D01*
X57295Y85882D01*
X57293Y85824D01*
X57315Y85742D01*
X57327Y85658D01*
X57350Y85605D01*
X57365Y85549D01*
X57408Y85476D01*
X57443Y85399D01*
X57481Y85354D01*
X57510Y85304D01*
X57572Y85246D01*
X57626Y85182D01*
X57675Y85150D01*
X57718Y85110D01*
X57793Y85071D01*
X57863Y85024D01*
X57919Y85007D01*
X57971Y84980D01*
X58039Y84969D01*
X58134Y84939D01*
X58234Y84936D01*
X58302Y84925D01*
X58632Y84925D01*
X59525Y84032D01*
X59525Y74768D01*
X58632Y73875D01*
X58302Y73875D01*
X58244Y73867D01*
X58186Y73869D01*
X58104Y73847D01*
X58020Y73835D01*
X57967Y73812D01*
X57911Y73797D01*
X57838Y73754D01*
X57761Y73719D01*
X57716Y73681D01*
X57666Y73652D01*
X57608Y73590D01*
X57544Y73536D01*
X57512Y73487D01*
X57472Y73444D01*
X57433Y73369D01*
X57386Y73299D01*
X57369Y73243D01*
X57342Y73191D01*
X57331Y73123D01*
X57301Y73028D01*
X57298Y72928D01*
X57287Y72860D01*
X57287Y71540D01*
X57295Y71482D01*
X57293Y71424D01*
X57315Y71342D01*
X57327Y71258D01*
X57350Y71205D01*
X57365Y71149D01*
X57408Y71076D01*
X57443Y70999D01*
X57481Y70954D01*
X57510Y70904D01*
X57572Y70846D01*
X57626Y70782D01*
X57675Y70750D01*
X57718Y70710D01*
X57793Y70671D01*
X57863Y70624D01*
X57919Y70607D01*
X57971Y70580D01*
X58039Y70569D01*
X58134Y70539D01*
X58234Y70536D01*
X58302Y70525D01*
X60632Y70525D01*
X61525Y69632D01*
X61525Y58710D01*
X61529Y58681D01*
X61526Y58651D01*
X61549Y58540D01*
X61565Y58428D01*
X61577Y58401D01*
X61582Y58373D01*
X61635Y58272D01*
X61681Y58169D01*
X61700Y58146D01*
X61713Y58120D01*
X61791Y58038D01*
X61864Y57952D01*
X61889Y57936D01*
X61909Y57914D01*
X62007Y57857D01*
X62101Y57794D01*
X62129Y57785D01*
X62154Y57771D01*
X62264Y57743D01*
X62372Y57708D01*
X62402Y57708D01*
X62430Y57700D01*
X62543Y57704D01*
X62656Y57701D01*
X62685Y57709D01*
X62714Y57709D01*
X62822Y57744D01*
X62931Y57773D01*
X62957Y57788D01*
X62985Y57797D01*
X63048Y57842D01*
X63176Y57918D01*
X63219Y57964D01*
X63258Y57992D01*
X65178Y59912D01*
X65230Y59982D01*
X65290Y60046D01*
X65316Y60095D01*
X65349Y60139D01*
X65380Y60221D01*
X65420Y60299D01*
X65428Y60346D01*
X65450Y60405D01*
X65456Y60481D01*
X65461Y60497D01*
X65463Y60555D01*
X65475Y60630D01*
X65475Y69632D01*
X66368Y70525D01*
X77632Y70525D01*
X78525Y69632D01*
X78525Y57368D01*
X77632Y56475D01*
X68630Y56475D01*
X68543Y56463D01*
X68456Y56460D01*
X68403Y56443D01*
X68348Y56435D01*
X68268Y56400D01*
X68185Y56373D01*
X68146Y56345D01*
X68089Y56319D01*
X67976Y56223D01*
X67912Y56178D01*
X66084Y54350D01*
X66032Y54280D01*
X65972Y54216D01*
X65946Y54167D01*
X65913Y54123D01*
X65882Y54041D01*
X65842Y53963D01*
X65834Y53916D01*
X65812Y53857D01*
X65801Y53727D01*
X65801Y53726D01*
X65801Y53720D01*
X65800Y53710D01*
X65787Y53632D01*
X65787Y22932D01*
X65799Y22846D01*
X65802Y22758D01*
X65819Y22706D01*
X65827Y22651D01*
X65862Y22571D01*
X65889Y22488D01*
X65917Y22448D01*
X65943Y22391D01*
X66039Y22278D01*
X66084Y22214D01*
X67565Y20734D01*
X67565Y17366D01*
X65184Y14985D01*
X61816Y14985D01*
X59435Y17366D01*
X59435Y20734D01*
X60916Y22214D01*
X60968Y22284D01*
X61028Y22348D01*
X61054Y22397D01*
X61087Y22442D01*
X61118Y22523D01*
X61158Y22601D01*
X61166Y22649D01*
X61188Y22707D01*
X61200Y22855D01*
X61213Y22932D01*
X61213Y55460D01*
X61205Y55518D01*
X61207Y55576D01*
X61185Y55658D01*
X61173Y55742D01*
X61150Y55795D01*
X61135Y55851D01*
X61092Y55924D01*
X61057Y56001D01*
X61019Y56046D01*
X60990Y56096D01*
X60928Y56154D01*
X60874Y56218D01*
X60825Y56250D01*
X60782Y56290D01*
X60707Y56329D01*
X60637Y56376D01*
X60581Y56393D01*
X60529Y56420D01*
X60461Y56431D01*
X60366Y56461D01*
X60266Y56464D01*
X60198Y56475D01*
X49368Y56475D01*
X48475Y57368D01*
X48475Y69632D01*
X49368Y70525D01*
X51698Y70525D01*
X51756Y70533D01*
X51814Y70531D01*
X51896Y70553D01*
X51980Y70565D01*
X52033Y70588D01*
X52089Y70603D01*
X52162Y70646D01*
X52239Y70681D01*
X52284Y70719D01*
X52334Y70748D01*
X52392Y70810D01*
X52456Y70864D01*
X52488Y70913D01*
X52528Y70956D01*
X52567Y71031D01*
X52614Y71101D01*
X52631Y71157D01*
X52658Y71209D01*
X52669Y71277D01*
X52699Y71372D01*
X52702Y71472D01*
X52713Y71540D01*
X52713Y72860D01*
X52705Y72916D01*
X52707Y72964D01*
X52706Y72965D01*
X52707Y72976D01*
X52685Y73058D01*
X52673Y73142D01*
X52650Y73195D01*
X52635Y73251D01*
X52592Y73324D01*
X52557Y73401D01*
X52519Y73446D01*
X52490Y73496D01*
X52428Y73554D01*
X52374Y73618D01*
X52325Y73650D01*
X52282Y73690D01*
X52207Y73729D01*
X52137Y73776D01*
X52081Y73793D01*
X52029Y73820D01*
X51961Y73831D01*
X51866Y73861D01*
X51766Y73864D01*
X51698Y73875D01*
X48368Y73875D01*
X47475Y74768D01*
X47475Y84032D01*
X48368Y84925D01*
X51698Y84925D01*
X51756Y84933D01*
X51814Y84931D01*
X51896Y84953D01*
X51980Y84965D01*
X52033Y84988D01*
X52089Y85003D01*
X52162Y85046D01*
X52239Y85081D01*
X52284Y85119D01*
X52334Y85148D01*
X52392Y85210D01*
X52456Y85264D01*
X52488Y85313D01*
X52528Y85356D01*
X52567Y85431D01*
X52614Y85501D01*
X52631Y85557D01*
X52658Y85609D01*
X52669Y85677D01*
X52699Y85772D01*
X52702Y85872D01*
X52713Y85940D01*
X52713Y89114D01*
X54741Y91142D01*
X54759Y91166D01*
X54781Y91185D01*
X54844Y91279D01*
X54912Y91369D01*
X54922Y91397D01*
X54939Y91421D01*
X54973Y91529D01*
X55013Y91635D01*
X55016Y91664D01*
X55024Y91692D01*
X55027Y91806D01*
X55037Y91918D01*
X55031Y91947D01*
X55032Y91976D01*
X55003Y92086D01*
X54981Y92197D01*
X54967Y92223D01*
X54960Y92251D01*
X54902Y92349D01*
X54850Y92449D01*
X54830Y92471D01*
X54815Y92496D01*
X54732Y92573D01*
X54654Y92655D01*
X54629Y92670D01*
X54607Y92690D01*
X54507Y92742D01*
X54409Y92799D01*
X54380Y92806D01*
X54354Y92820D01*
X54277Y92833D01*
X54133Y92869D01*
X54071Y92867D01*
X54023Y92875D01*
X48244Y92875D01*
X48158Y92863D01*
X48070Y92860D01*
X48018Y92843D01*
X47963Y92835D01*
X47883Y92800D01*
X47800Y92773D01*
X47760Y92745D01*
X47703Y92719D01*
X47590Y92623D01*
X47526Y92578D01*
X46134Y91185D01*
X42766Y91185D01*
X40385Y93566D01*
X40385Y96934D01*
X42766Y99315D01*
X44860Y99315D01*
X44947Y99327D01*
X45034Y99330D01*
X45087Y99347D01*
X45142Y99355D01*
X45222Y99390D01*
X45305Y99417D01*
X45344Y99445D01*
X45401Y99471D01*
X45514Y99567D01*
X45578Y99612D01*
X46685Y100718D01*
X46742Y100727D01*
X46795Y100750D01*
X46851Y100765D01*
X46924Y100808D01*
X47001Y100843D01*
X47046Y100881D01*
X47096Y100910D01*
X47154Y100972D01*
X47218Y101026D01*
X47250Y101075D01*
X47290Y101118D01*
X47329Y101193D01*
X47376Y101263D01*
X47393Y101319D01*
X47420Y101371D01*
X47431Y101439D01*
X47461Y101534D01*
X47464Y101634D01*
X47475Y101702D01*
X47475Y103032D01*
X48368Y103925D01*
X54023Y103925D01*
X54052Y103929D01*
X54081Y103926D01*
X54193Y103949D01*
X54305Y103965D01*
X54331Y103977D01*
X54360Y103982D01*
X54461Y104035D01*
X54564Y104081D01*
X54586Y104100D01*
X54613Y104113D01*
X54695Y104191D01*
X54781Y104264D01*
X54797Y104289D01*
X54819Y104309D01*
X54876Y104407D01*
X54939Y104501D01*
X54948Y104529D01*
X54962Y104554D01*
X54990Y104664D01*
X55024Y104772D01*
X55025Y104802D01*
X55032Y104830D01*
X55029Y104943D01*
X55032Y105056D01*
X55024Y105085D01*
X55023Y105114D01*
X54989Y105222D01*
X54960Y105331D01*
X54945Y105357D01*
X54936Y105385D01*
X54890Y105449D01*
X54815Y105576D01*
X54769Y105619D01*
X54741Y105658D01*
X53421Y106978D01*
X53351Y107030D01*
X53287Y107090D01*
X53238Y107116D01*
X53194Y107149D01*
X53112Y107180D01*
X53034Y107220D01*
X52987Y107228D01*
X52928Y107250D01*
X52780Y107262D01*
X52703Y107275D01*
X49368Y107275D01*
X48475Y108168D01*
X48475Y111120D01*
X48463Y111205D01*
X48461Y111291D01*
X48443Y111345D01*
X48435Y111401D01*
X48400Y111479D01*
X48374Y111561D01*
X48342Y111609D01*
X48319Y111660D01*
X48264Y111726D01*
X48216Y111797D01*
X48172Y111834D01*
X48136Y111877D01*
X48064Y111925D01*
X47998Y111980D01*
X47946Y112004D01*
X47899Y112035D01*
X47817Y112061D01*
X47738Y112096D01*
X47682Y112104D01*
X47628Y112121D01*
X47542Y112123D01*
X47457Y112135D01*
X47401Y112127D01*
X47344Y112128D01*
X47261Y112106D01*
X47176Y112094D01*
X47124Y112071D01*
X47069Y112056D01*
X46995Y112012D01*
X46916Y111977D01*
X46873Y111940D01*
X46824Y111911D01*
X46765Y111848D01*
X46700Y111793D01*
X46674Y111751D01*
X46630Y111704D01*
X46564Y111575D01*
X46522Y111508D01*
X44997Y107825D01*
X41781Y104610D01*
X37580Y102869D01*
X13220Y102869D01*
X9019Y104610D01*
X5804Y107825D01*
X5764Y107920D01*
X5720Y107994D01*
X5685Y108073D01*
X5648Y108116D01*
X5620Y108165D01*
X5557Y108224D01*
X5501Y108290D01*
X5454Y108321D01*
X5413Y108360D01*
X5336Y108400D01*
X5265Y108448D01*
X5211Y108465D01*
X5160Y108491D01*
X5076Y108507D01*
X4994Y108533D01*
X4937Y108535D01*
X4881Y108546D01*
X4796Y108538D01*
X4710Y108541D01*
X4655Y108526D01*
X4598Y108521D01*
X4518Y108490D01*
X4435Y108469D01*
X4386Y108440D01*
X4333Y108419D01*
X4264Y108367D01*
X4190Y108324D01*
X4151Y108282D01*
X4106Y108248D01*
X4054Y108179D01*
X3996Y108116D01*
X3970Y108066D01*
X3936Y108020D01*
X3905Y107940D01*
X3866Y107863D01*
X3858Y107814D01*
X3835Y107754D01*
X3824Y107609D01*
X3811Y107532D01*
X3811Y25400D01*
X3817Y25356D01*
X3814Y25320D01*
X4067Y22102D01*
X4102Y21943D01*
X4114Y21868D01*
X6103Y15746D01*
X6228Y15490D01*
X6240Y15477D01*
X6247Y15463D01*
X10031Y10255D01*
X10228Y10051D01*
X10244Y10042D01*
X10255Y10031D01*
X15463Y6247D01*
X15714Y6114D01*
X15732Y6110D01*
X15746Y6103D01*
X21868Y4114D01*
X22028Y4086D01*
X22102Y4067D01*
X25320Y3814D01*
X25365Y3817D01*
X25400Y3811D01*
X91440Y3811D01*
X91498Y3819D01*
G37*
%LPC*%
G36*
X400570Y147319D02*
X400570Y147319D01*
X396369Y149060D01*
X393154Y152275D01*
X391413Y156476D01*
X391413Y161024D01*
X393154Y165225D01*
X396369Y168440D01*
X400570Y170181D01*
X424930Y170181D01*
X429131Y168440D01*
X432346Y165225D01*
X434087Y161024D01*
X434087Y156476D01*
X432346Y152275D01*
X429131Y149060D01*
X424930Y147319D01*
X400570Y147319D01*
G37*
%LPD*%
%LPC*%
G36*
X400570Y96519D02*
X400570Y96519D01*
X396369Y98260D01*
X393154Y101475D01*
X391413Y105676D01*
X391413Y110224D01*
X393154Y114425D01*
X396369Y117640D01*
X400570Y119381D01*
X424930Y119381D01*
X429131Y117640D01*
X432346Y114425D01*
X434087Y110224D01*
X434087Y105676D01*
X432346Y101475D01*
X429131Y98260D01*
X424930Y96519D01*
X400570Y96519D01*
G37*
%LPD*%
%LPC*%
G36*
X400570Y121919D02*
X400570Y121919D01*
X396369Y123660D01*
X393154Y126875D01*
X391413Y131076D01*
X391413Y135624D01*
X393154Y139825D01*
X396369Y143040D01*
X400570Y144781D01*
X424930Y144781D01*
X429131Y143040D01*
X432346Y139825D01*
X434087Y135624D01*
X434087Y131076D01*
X432346Y126875D01*
X429131Y123660D01*
X424930Y121919D01*
X400570Y121919D01*
G37*
%LPD*%
%LPC*%
G36*
X395731Y33781D02*
X395731Y33781D01*
X395731Y60917D01*
X398601Y60593D01*
X401799Y59863D01*
X404896Y58780D01*
X407852Y57356D01*
X410630Y55611D01*
X413195Y53565D01*
X415515Y51245D01*
X417561Y48680D01*
X419306Y45902D01*
X420730Y42946D01*
X421813Y39849D01*
X422543Y36651D01*
X422867Y33781D01*
X395731Y33781D01*
G37*
%LPD*%
%LPC*%
G36*
X364533Y33781D02*
X364533Y33781D01*
X364857Y36651D01*
X365587Y39849D01*
X366670Y42946D01*
X366680Y42966D01*
X366680Y42967D01*
X367658Y44997D01*
X368094Y45902D01*
X369839Y48680D01*
X371885Y51245D01*
X374205Y53565D01*
X376770Y55611D01*
X379548Y57356D01*
X382504Y58780D01*
X385601Y59863D01*
X388799Y60593D01*
X391669Y60917D01*
X391669Y33781D01*
X364533Y33781D01*
G37*
%LPD*%
%LPC*%
G36*
X49368Y145375D02*
X49368Y145375D01*
X48475Y146268D01*
X48475Y158532D01*
X49512Y159568D01*
X49547Y159615D01*
X49590Y159655D01*
X49632Y159728D01*
X49683Y159795D01*
X49704Y159850D01*
X49733Y159901D01*
X49754Y159982D01*
X49784Y160061D01*
X49789Y160119D01*
X49803Y160176D01*
X49801Y160260D01*
X49808Y160344D01*
X49796Y160402D01*
X49794Y160460D01*
X49768Y160540D01*
X49752Y160623D01*
X49725Y160675D01*
X49707Y160731D01*
X49667Y160787D01*
X49621Y160875D01*
X49552Y160948D01*
X49512Y161004D01*
X48525Y161991D01*
X48478Y162026D01*
X48438Y162069D01*
X48365Y162111D01*
X48298Y162162D01*
X48243Y162183D01*
X48193Y162212D01*
X48111Y162233D01*
X48032Y162263D01*
X47974Y162268D01*
X47917Y162282D01*
X47833Y162280D01*
X47749Y162287D01*
X47692Y162275D01*
X47633Y162273D01*
X47553Y162247D01*
X47470Y162231D01*
X47418Y162204D01*
X47363Y162186D01*
X47306Y162146D01*
X47218Y162100D01*
X47146Y162031D01*
X47089Y161991D01*
X46134Y161035D01*
X42766Y161035D01*
X40385Y163416D01*
X40385Y166784D01*
X42766Y169165D01*
X46134Y169165D01*
X46742Y168556D01*
X46766Y168539D01*
X46785Y168516D01*
X46838Y168480D01*
X46854Y168466D01*
X46880Y168453D01*
X46969Y168385D01*
X46997Y168375D01*
X47021Y168359D01*
X47129Y168324D01*
X47235Y168284D01*
X47264Y168282D01*
X47292Y168273D01*
X47406Y168270D01*
X47518Y168261D01*
X47547Y168266D01*
X47576Y168266D01*
X47686Y168294D01*
X47797Y168316D01*
X47823Y168330D01*
X47851Y168337D01*
X47949Y168395D01*
X48049Y168447D01*
X48071Y168468D01*
X48096Y168483D01*
X48173Y168565D01*
X48255Y168643D01*
X48270Y168669D01*
X48290Y168690D01*
X48342Y168791D01*
X48399Y168889D01*
X48406Y168917D01*
X48420Y168943D01*
X48433Y169020D01*
X48456Y169112D01*
X48461Y169129D01*
X48461Y169133D01*
X48469Y169164D01*
X48467Y169227D01*
X48475Y169274D01*
X48475Y177582D01*
X49368Y178475D01*
X60632Y178475D01*
X61525Y177582D01*
X61525Y165318D01*
X60632Y164425D01*
X58302Y164425D01*
X58244Y164417D01*
X58186Y164419D01*
X58104Y164397D01*
X58020Y164385D01*
X57967Y164362D01*
X57911Y164347D01*
X57838Y164304D01*
X57761Y164269D01*
X57716Y164231D01*
X57666Y164202D01*
X57608Y164140D01*
X57544Y164086D01*
X57512Y164037D01*
X57472Y163994D01*
X57433Y163919D01*
X57386Y163849D01*
X57369Y163793D01*
X57342Y163741D01*
X57331Y163673D01*
X57301Y163578D01*
X57298Y163478D01*
X57287Y163410D01*
X57287Y160440D01*
X57295Y160382D01*
X57293Y160324D01*
X57315Y160242D01*
X57327Y160158D01*
X57350Y160105D01*
X57365Y160049D01*
X57408Y159976D01*
X57443Y159899D01*
X57481Y159854D01*
X57510Y159804D01*
X57572Y159746D01*
X57626Y159682D01*
X57675Y159650D01*
X57718Y159610D01*
X57793Y159571D01*
X57863Y159524D01*
X57919Y159507D01*
X57971Y159480D01*
X58039Y159469D01*
X58134Y159439D01*
X58234Y159436D01*
X58302Y159425D01*
X60632Y159425D01*
X61525Y158532D01*
X61525Y146268D01*
X60632Y145375D01*
X49368Y145375D01*
G37*
%LPD*%
%LPC*%
G36*
X172168Y45925D02*
X172168Y45925D01*
X171275Y46818D01*
X171275Y59082D01*
X172168Y59975D01*
X173126Y59975D01*
X173155Y59979D01*
X173184Y59976D01*
X173295Y59999D01*
X173407Y60015D01*
X173434Y60027D01*
X173463Y60032D01*
X173563Y60084D01*
X173667Y60131D01*
X173689Y60150D01*
X173715Y60163D01*
X173797Y60241D01*
X173884Y60314D01*
X173900Y60339D01*
X173921Y60359D01*
X173979Y60457D01*
X174041Y60551D01*
X174050Y60579D01*
X174065Y60604D01*
X174093Y60714D01*
X174127Y60822D01*
X174128Y60851D01*
X174135Y60880D01*
X174132Y60993D01*
X174134Y61106D01*
X174127Y61135D01*
X174126Y61164D01*
X174091Y61272D01*
X174063Y61381D01*
X174048Y61407D01*
X174039Y61435D01*
X173993Y61499D01*
X173917Y61626D01*
X173872Y61669D01*
X173844Y61708D01*
X173735Y61816D01*
X173735Y65184D01*
X176116Y67565D01*
X179484Y67565D01*
X181865Y65184D01*
X181865Y61816D01*
X181756Y61708D01*
X181739Y61684D01*
X181716Y61665D01*
X181654Y61571D01*
X181585Y61481D01*
X181575Y61453D01*
X181559Y61429D01*
X181524Y61321D01*
X181484Y61215D01*
X181482Y61186D01*
X181473Y61158D01*
X181470Y61045D01*
X181461Y60932D01*
X181466Y60903D01*
X181466Y60874D01*
X181494Y60764D01*
X181516Y60653D01*
X181530Y60627D01*
X181537Y60599D01*
X181595Y60501D01*
X181647Y60401D01*
X181668Y60379D01*
X181683Y60354D01*
X181765Y60277D01*
X181843Y60195D01*
X181869Y60180D01*
X181890Y60160D01*
X181991Y60108D01*
X182088Y60051D01*
X182117Y60044D01*
X182143Y60030D01*
X182220Y60017D01*
X182364Y59981D01*
X182426Y59983D01*
X182474Y59975D01*
X183432Y59975D01*
X184325Y59082D01*
X184325Y46818D01*
X183432Y45925D01*
X172168Y45925D01*
G37*
%LPD*%
%LPC*%
G36*
X30552Y171775D02*
X30552Y171775D01*
X28337Y172693D01*
X26643Y174387D01*
X25725Y176602D01*
X25725Y178998D01*
X26643Y181213D01*
X28337Y182907D01*
X30552Y183825D01*
X32948Y183825D01*
X35163Y182907D01*
X36857Y181213D01*
X37775Y178998D01*
X37775Y176602D01*
X36857Y174387D01*
X35163Y172693D01*
X32948Y171775D01*
X30552Y171775D01*
G37*
%LPD*%
%LPC*%
G36*
X176116Y173735D02*
X176116Y173735D01*
X173735Y176116D01*
X173735Y179484D01*
X176116Y181865D01*
X179484Y181865D01*
X181865Y179484D01*
X181865Y176116D01*
X179484Y173735D01*
X176116Y173735D01*
G37*
%LPD*%
%LPC*%
G36*
X195166Y154685D02*
X195166Y154685D01*
X192785Y157066D01*
X192785Y160434D01*
X195166Y162815D01*
X198534Y162815D01*
X200915Y160434D01*
X200915Y157066D01*
X198534Y154685D01*
X195166Y154685D01*
G37*
%LPD*%
%LPC*%
G36*
X207866Y61213D02*
X207866Y61213D01*
X205485Y63594D01*
X205485Y66962D01*
X207866Y69343D01*
X211234Y69343D01*
X213615Y66962D01*
X213615Y63594D01*
X211234Y61213D01*
X207866Y61213D01*
G37*
%LPD*%
%LPC*%
G36*
X74516Y34035D02*
X74516Y34035D01*
X72135Y36416D01*
X72135Y39784D01*
X74516Y42165D01*
X77884Y42165D01*
X80265Y39784D01*
X80265Y36416D01*
X77884Y34035D01*
X74516Y34035D01*
G37*
%LPD*%
%LPC*%
G36*
X198881Y193039D02*
X198881Y193039D01*
X198881Y201169D01*
X207011Y201169D01*
X207011Y198991D01*
X201059Y193039D01*
X198881Y193039D01*
G37*
%LPD*%
%LPC*%
G36*
X249681Y193039D02*
X249681Y193039D01*
X249681Y201169D01*
X257811Y201169D01*
X257811Y198991D01*
X251859Y193039D01*
X249681Y193039D01*
G37*
%LPD*%
%LPC*%
G36*
X224281Y193039D02*
X224281Y193039D01*
X224281Y201169D01*
X232411Y201169D01*
X232411Y198991D01*
X226459Y193039D01*
X224281Y193039D01*
G37*
%LPD*%
%LPC*%
G36*
X173481Y193039D02*
X173481Y193039D01*
X173481Y201169D01*
X181611Y201169D01*
X181611Y198991D01*
X175659Y193039D01*
X173481Y193039D01*
G37*
%LPD*%
%LPC*%
G36*
X148081Y193039D02*
X148081Y193039D01*
X148081Y201169D01*
X156211Y201169D01*
X156211Y198991D01*
X150259Y193039D01*
X148081Y193039D01*
G37*
%LPD*%
%LPC*%
G36*
X71881Y193039D02*
X71881Y193039D01*
X71881Y201169D01*
X80011Y201169D01*
X80011Y198991D01*
X74059Y193039D01*
X71881Y193039D01*
G37*
%LPD*%
%LPC*%
G36*
X97281Y193039D02*
X97281Y193039D01*
X97281Y201169D01*
X105411Y201169D01*
X105411Y198991D01*
X99459Y193039D01*
X97281Y193039D01*
G37*
%LPD*%
%LPC*%
G36*
X122681Y193039D02*
X122681Y193039D01*
X122681Y201169D01*
X130811Y201169D01*
X130811Y198991D01*
X124859Y193039D01*
X122681Y193039D01*
G37*
%LPD*%
%LPC*%
G36*
X243441Y193039D02*
X243441Y193039D01*
X237489Y198991D01*
X237489Y201169D01*
X245619Y201169D01*
X245619Y193039D01*
X243441Y193039D01*
G37*
%LPD*%
%LPC*%
G36*
X141841Y193039D02*
X141841Y193039D01*
X135889Y198991D01*
X135889Y201169D01*
X144019Y201169D01*
X144019Y193039D01*
X141841Y193039D01*
G37*
%LPD*%
%LPC*%
G36*
X192641Y193039D02*
X192641Y193039D01*
X186689Y198991D01*
X186689Y201169D01*
X194819Y201169D01*
X194819Y193039D01*
X192641Y193039D01*
G37*
%LPD*%
%LPC*%
G36*
X167241Y193039D02*
X167241Y193039D01*
X161289Y198991D01*
X161289Y201169D01*
X169419Y201169D01*
X169419Y193039D01*
X167241Y193039D01*
G37*
%LPD*%
%LPC*%
G36*
X218041Y193039D02*
X218041Y193039D01*
X212089Y198991D01*
X212089Y201169D01*
X220219Y201169D01*
X220219Y193039D01*
X218041Y193039D01*
G37*
%LPD*%
%LPC*%
G36*
X65641Y193039D02*
X65641Y193039D01*
X59689Y198991D01*
X59689Y201169D01*
X67819Y201169D01*
X67819Y193039D01*
X65641Y193039D01*
G37*
%LPD*%
%LPC*%
G36*
X91041Y193039D02*
X91041Y193039D01*
X85089Y198991D01*
X85089Y201169D01*
X93219Y201169D01*
X93219Y193039D01*
X91041Y193039D01*
G37*
%LPD*%
%LPC*%
G36*
X116441Y193039D02*
X116441Y193039D01*
X110489Y198991D01*
X110489Y201169D01*
X118619Y201169D01*
X118619Y193039D01*
X116441Y193039D01*
G37*
%LPD*%
%LPC*%
G36*
X256031Y181981D02*
X256031Y181981D01*
X256031Y187491D01*
X259834Y187491D01*
X260481Y187318D01*
X261060Y186983D01*
X261533Y186510D01*
X261868Y185931D01*
X262041Y185284D01*
X262041Y181981D01*
X256031Y181981D01*
G37*
%LPD*%
%LPC*%
G36*
X245959Y181981D02*
X245959Y181981D01*
X245959Y185284D01*
X246132Y185931D01*
X246467Y186510D01*
X246940Y186983D01*
X247519Y187318D01*
X248166Y187491D01*
X251969Y187491D01*
X251969Y181981D01*
X245959Y181981D01*
G37*
%LPD*%
%LPC*%
G36*
X351281Y59659D02*
X351281Y59659D01*
X351281Y65669D01*
X356791Y65669D01*
X356791Y61866D01*
X356618Y61219D01*
X356283Y60640D01*
X355810Y60167D01*
X355231Y59832D01*
X354584Y59659D01*
X351281Y59659D01*
G37*
%LPD*%
%LPC*%
G36*
X148081Y27909D02*
X148081Y27909D01*
X148081Y33919D01*
X153591Y33919D01*
X153591Y30116D01*
X153418Y29469D01*
X153083Y28890D01*
X152610Y28417D01*
X152031Y28082D01*
X151384Y27909D01*
X148081Y27909D01*
G37*
%LPD*%
%LPC*%
G36*
X256031Y172409D02*
X256031Y172409D01*
X256031Y177919D01*
X262041Y177919D01*
X262041Y174616D01*
X261868Y173969D01*
X261533Y173390D01*
X261060Y172917D01*
X260481Y172582D01*
X259834Y172409D01*
X256031Y172409D01*
G37*
%LPD*%
%LPC*%
G36*
X248166Y172409D02*
X248166Y172409D01*
X247519Y172582D01*
X246940Y172917D01*
X246467Y173390D01*
X246132Y173969D01*
X245959Y174616D01*
X245959Y177919D01*
X251969Y177919D01*
X251969Y172409D01*
X248166Y172409D01*
G37*
%LPD*%
%LPC*%
G36*
X343916Y59659D02*
X343916Y59659D01*
X343269Y59832D01*
X342690Y60167D01*
X342217Y60640D01*
X341882Y61219D01*
X341709Y61866D01*
X341709Y65669D01*
X347219Y65669D01*
X347219Y59659D01*
X343916Y59659D01*
G37*
%LPD*%
%LPC*%
G36*
X335709Y147765D02*
X335709Y147765D01*
X335709Y151334D01*
X335882Y151981D01*
X336217Y152560D01*
X336690Y153033D01*
X337269Y153368D01*
X337916Y153541D01*
X338235Y153541D01*
X338235Y147765D01*
X335709Y147765D01*
G37*
%LPD*%
%LPC*%
G36*
X253999Y179949D02*
X253999Y179949D01*
X253999Y179951D01*
X254001Y179951D01*
X254001Y179949D01*
X253999Y179949D01*
G37*
%LPD*%
D10*
X402844Y133350D02*
X422656Y133350D01*
X422656Y158750D02*
X402844Y158750D01*
X402844Y107950D02*
X422656Y107950D01*
D11*
X152400Y118500D03*
X152400Y135500D03*
X273050Y84700D03*
X273050Y67700D03*
X311150Y84700D03*
X311150Y67700D03*
X349250Y84700D03*
X349250Y67700D03*
X273050Y179950D03*
X273050Y162950D03*
X177800Y52950D03*
X177800Y35950D03*
X95250Y52950D03*
X95250Y35950D03*
X107950Y118500D03*
X107950Y135500D03*
X146050Y52950D03*
X146050Y35950D03*
D12*
X130650Y53950D03*
X130650Y34950D03*
X109650Y44450D03*
D10*
X35306Y139700D02*
X15494Y139700D01*
X15494Y114300D02*
X35306Y114300D01*
D12*
X53500Y79400D03*
X53500Y98400D03*
X74500Y88900D03*
D13*
X133350Y135500D03*
X133350Y118500D03*
X171450Y118500D03*
X171450Y135500D03*
D11*
X72000Y63500D03*
X55000Y63500D03*
D13*
X273050Y131200D03*
X273050Y148200D03*
X273050Y99450D03*
X273050Y116450D03*
X254000Y116450D03*
X254000Y99450D03*
X254000Y148200D03*
X254000Y131200D03*
X368300Y84700D03*
X368300Y67700D03*
D11*
X72000Y133350D03*
X55000Y133350D03*
D13*
X292100Y67700D03*
X292100Y84700D03*
X330200Y84700D03*
X330200Y67700D03*
X292100Y179950D03*
X292100Y162950D03*
X254000Y162950D03*
X254000Y179950D03*
D11*
X55000Y152400D03*
X72000Y152400D03*
X93100Y171450D03*
X110100Y171450D03*
X72000Y114300D03*
X55000Y114300D03*
X55000Y171450D03*
X72000Y171450D03*
D14*
X107950Y88900D03*
D15*
X96325Y81025D02*
X90075Y81025D01*
X90075Y81775D01*
X96325Y81775D01*
X96325Y81025D01*
X96325Y86025D02*
X90075Y86025D01*
X90075Y86775D01*
X96325Y86775D01*
X96325Y86025D01*
X96325Y91025D02*
X90075Y91025D01*
X90075Y91775D01*
X96325Y91775D01*
X96325Y91025D01*
X96325Y96025D02*
X90075Y96025D01*
X90075Y96775D01*
X96325Y96775D01*
X96325Y96025D01*
X100075Y100525D02*
X100075Y106775D01*
X100825Y106775D01*
X100825Y100525D01*
X100075Y100525D01*
X100075Y102662D02*
X100825Y102662D01*
X100825Y104799D02*
X100075Y104799D01*
X105075Y106775D02*
X105075Y100525D01*
X105075Y106775D02*
X105825Y106775D01*
X105825Y100525D01*
X105075Y100525D01*
X105075Y102662D02*
X105825Y102662D01*
X105825Y104799D02*
X105075Y104799D01*
X110075Y106775D02*
X110075Y100525D01*
X110075Y106775D02*
X110825Y106775D01*
X110825Y100525D01*
X110075Y100525D01*
X110075Y102662D02*
X110825Y102662D01*
X110825Y104799D02*
X110075Y104799D01*
X115075Y106775D02*
X115075Y100525D01*
X115075Y106775D02*
X115825Y106775D01*
X115825Y100525D01*
X115075Y100525D01*
X115075Y102662D02*
X115825Y102662D01*
X115825Y104799D02*
X115075Y104799D01*
X119575Y96775D02*
X125825Y96775D01*
X125825Y96025D01*
X119575Y96025D01*
X119575Y96775D01*
X119575Y91775D02*
X125825Y91775D01*
X125825Y91025D01*
X119575Y91025D01*
X119575Y91775D01*
X119575Y86775D02*
X125825Y86775D01*
X125825Y86025D01*
X119575Y86025D01*
X119575Y86775D01*
X119575Y81775D02*
X125825Y81775D01*
X125825Y81025D01*
X119575Y81025D01*
X119575Y81775D01*
X115825Y77275D02*
X115825Y71025D01*
X115075Y71025D01*
X115075Y77275D01*
X115825Y77275D01*
X115825Y73162D02*
X115075Y73162D01*
X115075Y75299D02*
X115825Y75299D01*
X110825Y77275D02*
X110825Y71025D01*
X110075Y71025D01*
X110075Y77275D01*
X110825Y77275D01*
X110825Y73162D02*
X110075Y73162D01*
X110075Y75299D02*
X110825Y75299D01*
X105825Y77275D02*
X105825Y71025D01*
X105075Y71025D01*
X105075Y77275D01*
X105825Y77275D01*
X105825Y73162D02*
X105075Y73162D01*
X105075Y75299D02*
X105825Y75299D01*
X100825Y77275D02*
X100825Y71025D01*
X100075Y71025D01*
X100075Y77275D01*
X100825Y77275D01*
X100825Y73162D02*
X100075Y73162D01*
X100075Y75299D02*
X100825Y75299D01*
D16*
X339250Y146750D03*
X343250Y146750D03*
X347250Y146750D03*
X351250Y146750D03*
X355250Y146750D03*
X359250Y146750D03*
X359250Y107250D03*
X355250Y107250D03*
X351250Y107250D03*
X347250Y107250D03*
X343250Y107250D03*
X339250Y107250D03*
D17*
X349250Y127000D03*
D18*
X337750Y116000D03*
X360750Y138000D03*
X337750Y138000D03*
X360750Y116000D03*
D19*
X101600Y12700D03*
D20*
X127000Y12700D03*
X152400Y12700D03*
X177800Y12700D03*
X203200Y12700D03*
X228600Y12700D03*
X254000Y12700D03*
X279400Y12700D03*
X304800Y12700D03*
X330200Y12700D03*
D19*
X298450Y203200D03*
D21*
X273050Y203200D03*
X247650Y203200D03*
X222250Y203200D03*
X196850Y203200D03*
X171450Y203200D03*
X146050Y203200D03*
X120650Y203200D03*
X95250Y203200D03*
X69850Y203200D03*
D22*
X393700Y31750D03*
D11*
X321700Y203200D03*
X338700Y203200D03*
X321700Y184150D03*
X338700Y184150D03*
D23*
X93200Y81400D02*
X88900Y77100D01*
X88900Y69850D01*
D24*
X88900Y69850D03*
D23*
X48650Y127000D02*
X55000Y133350D01*
X48650Y127000D02*
X44450Y127000D01*
D24*
X44450Y127000D03*
D23*
X105450Y74150D02*
X105450Y63295D01*
X105624Y63121D01*
D24*
X105624Y63121D03*
X214376Y82550D03*
D23*
X110450Y74150D02*
X110450Y51150D01*
X115097Y50736D02*
X116436Y49397D01*
X116436Y44450D01*
X116436Y39503D01*
X115097Y38164D01*
X110864Y50736D02*
X110450Y51150D01*
X110864Y50736D02*
X115097Y50736D01*
X97464Y38164D02*
X95250Y35950D01*
X97464Y38164D02*
X115097Y38164D01*
X116436Y44450D02*
X165100Y44450D01*
D24*
X165100Y44450D03*
D23*
X115450Y63674D02*
X115450Y74150D01*
X115450Y63674D02*
X115276Y63500D01*
D24*
X115276Y63500D03*
X209550Y65278D03*
D23*
X103750Y44450D02*
X95250Y52950D01*
X103750Y44450D02*
X109650Y44450D01*
X100450Y58150D02*
X100450Y74150D01*
X100450Y58150D02*
X95250Y52950D01*
X130650Y53950D02*
X131650Y52950D01*
X146050Y52950D01*
X130650Y53950D02*
X130650Y73450D01*
X122700Y81400D01*
D24*
X254000Y76200D03*
D25*
X134173Y96400D02*
X122700Y96400D01*
X134173Y96400D02*
X136123Y98350D01*
X143277Y98350D01*
X145227Y96400D01*
X152400Y96400D01*
X228600Y76200D02*
X254000Y76200D01*
D23*
X136123Y115727D02*
X133350Y118500D01*
X136123Y115727D02*
X136123Y98350D01*
X152400Y96400D02*
X152400Y118500D01*
D26*
X177800Y35950D02*
X201050Y12700D01*
X203200Y12700D01*
D25*
X153550Y96400D02*
X165100Y107950D01*
X153550Y96400D02*
X152400Y96400D01*
X219964Y84836D02*
X228600Y76200D01*
X219964Y84836D02*
X219964Y86389D01*
X198403Y107950D01*
X165100Y107950D01*
D23*
X254000Y131200D02*
X258200Y127000D01*
X263486Y127000D01*
D24*
X263486Y127000D03*
D23*
X361950Y74050D02*
X368300Y67700D01*
X361950Y74050D02*
X361950Y75636D01*
D24*
X361950Y75636D03*
X181610Y76200D03*
D23*
X141699Y94540D02*
X137701Y94540D01*
X134561Y91400D02*
X122700Y91400D01*
X172760Y85050D02*
X181610Y76200D01*
X172760Y85050D02*
X151189Y85050D01*
X137701Y94540D02*
X134561Y91400D01*
X141699Y94540D02*
X151189Y85050D01*
D26*
X177800Y63500D02*
X177800Y52950D01*
D24*
X177800Y63500D03*
D23*
X171450Y135500D02*
X152400Y135500D01*
X133350Y135500D01*
X115450Y121800D02*
X115450Y103650D01*
X129150Y135500D02*
X133350Y135500D01*
X129150Y135500D02*
X115450Y121800D01*
X110450Y103650D02*
X105450Y103650D01*
X110450Y116000D02*
X107950Y118500D01*
X110450Y116000D02*
X110450Y103650D01*
X110100Y151383D02*
X110100Y171450D01*
X110100Y151383D02*
X100664Y141947D01*
X100664Y125786D02*
X107950Y118500D01*
X100664Y125786D02*
X100664Y141947D01*
D27*
X31750Y177800D03*
D23*
X47600Y98400D02*
X53500Y98400D01*
X47600Y98400D02*
X44450Y95250D01*
D24*
X44450Y95250D03*
D23*
X171450Y118500D02*
X175650Y114300D01*
X182386Y114300D01*
D24*
X182386Y114300D03*
D23*
X82550Y114300D02*
X72000Y114300D01*
D24*
X82550Y114300D03*
X158750Y177800D03*
X177800Y177800D03*
D23*
X116450Y135500D02*
X107950Y135500D01*
X116450Y135500D02*
X127000Y146050D01*
D24*
X127000Y146050D03*
D23*
X55000Y158750D02*
X55000Y171450D01*
X55000Y158750D02*
X55000Y152400D01*
X55000Y158750D02*
X48650Y165100D01*
X44450Y165100D01*
D24*
X44450Y165100D03*
D23*
X72000Y171450D02*
X93100Y171450D01*
X93100Y106639D01*
X90424Y103963D01*
X90424Y99176D01*
X93200Y96400D01*
X158750Y171196D02*
X158496Y171450D01*
D24*
X158750Y171196D03*
D23*
X116047Y179236D02*
X104153Y179236D01*
X96367Y171450D02*
X93100Y171450D01*
X123833Y171450D02*
X158496Y171450D01*
X104153Y179236D02*
X96367Y171450D01*
X116047Y179236D02*
X123833Y171450D01*
X93200Y86400D02*
X77000Y86400D01*
X74500Y88900D01*
X72000Y128033D02*
X72000Y133350D01*
X72000Y128033D02*
X64714Y120747D01*
X64714Y98686D01*
X74500Y88900D01*
X72000Y133350D02*
X72000Y152400D01*
D24*
X135886Y76200D03*
D23*
X100450Y103650D02*
X98764Y101964D01*
X95250Y101964D01*
D24*
X95250Y101964D03*
X139700Y89714D03*
X88900Y25400D03*
D23*
X91694Y22606D01*
X120073Y12700D02*
X127000Y12700D01*
X110167Y22606D02*
X91694Y22606D01*
X110167Y22606D02*
X120073Y12700D01*
X93200Y91400D02*
X83238Y91400D01*
X83064Y91226D01*
D24*
X83064Y91226D03*
X76200Y38100D03*
D23*
X55000Y63500D02*
X55000Y77900D01*
X53500Y79400D01*
X60286Y93453D02*
X60286Y103347D01*
X55000Y108633D02*
X55000Y114300D01*
X55000Y88167D02*
X55000Y77900D01*
X60286Y103347D02*
X55000Y108633D01*
X60286Y93453D02*
X55000Y88167D01*
D24*
X63500Y19050D03*
D23*
X63500Y55000D01*
X72000Y63500D01*
D25*
X110450Y86400D02*
X122700Y86400D01*
X110450Y86400D02*
X107950Y88900D01*
D24*
X204470Y93980D03*
X199390Y93980D03*
X194310Y93980D03*
X189230Y93980D03*
X184150Y93980D03*
X242570Y182880D03*
X242570Y176530D03*
X242570Y170180D03*
X242570Y163830D03*
X242570Y157480D03*
X242570Y189230D03*
X210820Y189230D03*
X210820Y182880D03*
X210820Y176530D03*
X210820Y170180D03*
X210820Y163830D03*
X210820Y157480D03*
X210820Y151130D03*
X217170Y151130D03*
X223520Y151130D03*
X229870Y151130D03*
X236220Y151130D03*
X242570Y151130D03*
X120650Y185420D03*
X114300Y185420D03*
X107950Y185420D03*
X101600Y185420D03*
X95250Y185420D03*
X88900Y185420D03*
X82550Y185420D03*
X76200Y185420D03*
X69850Y185420D03*
X63500Y185420D03*
X57150Y185420D03*
X354330Y30480D03*
X347980Y30480D03*
X341630Y30480D03*
X335280Y30480D03*
X328930Y30480D03*
X322580Y30480D03*
X316230Y30480D03*
X309880Y30480D03*
X303530Y30480D03*
X297180Y30480D03*
X297180Y55880D03*
X303530Y55880D03*
X309880Y55880D03*
X316230Y55880D03*
X322580Y55880D03*
X328930Y55880D03*
X335280Y55880D03*
X341630Y55880D03*
X347980Y55880D03*
X354330Y55880D03*
D26*
X339250Y137000D02*
X339250Y146750D01*
X339250Y137000D02*
X349250Y127000D01*
X360250Y138000D02*
X360750Y138000D01*
X360250Y138000D02*
X349250Y127000D01*
X338250Y138000D02*
X337750Y138000D01*
X338250Y138000D02*
X339250Y137000D01*
X348750Y127000D02*
X349250Y127000D01*
X348750Y127000D02*
X337750Y116000D01*
X349250Y127000D02*
X349750Y127000D01*
X360750Y116000D01*
D28*
X27940Y97790D03*
X35560Y97790D03*
D23*
X254000Y148200D02*
X273050Y148200D01*
D24*
X260350Y140264D03*
D23*
X254000Y146614D01*
X254000Y148200D01*
X254000Y116450D02*
X273050Y116450D01*
X296300Y116450D01*
X298450Y114300D01*
D24*
X298450Y114300D03*
D23*
X368300Y94200D02*
X368300Y84700D01*
X355964Y106536D02*
X355250Y107250D01*
X361786Y100714D02*
X368300Y94200D01*
X355964Y102053D02*
X355964Y106536D01*
X355964Y102053D02*
X357303Y100714D01*
X361786Y100714D01*
X275200Y133350D02*
X273050Y131200D01*
X275200Y133350D02*
X298450Y133350D01*
D24*
X298450Y133350D03*
X374650Y120650D03*
D23*
X374650Y114300D01*
X368300Y107950D01*
X359950Y107950D01*
X359250Y107250D01*
X273050Y99450D02*
X262890Y89290D01*
X262890Y88900D01*
D24*
X262890Y88900D03*
X355600Y95250D03*
D23*
X351964Y102053D02*
X351964Y106536D01*
X351250Y107250D01*
X355600Y98107D02*
X355600Y95250D01*
X355600Y98107D02*
X352916Y100791D01*
X352916Y101101D01*
X351964Y102053D01*
D25*
X292100Y84700D02*
X273050Y84700D01*
X292100Y84700D02*
X311150Y84700D01*
X311150Y101600D01*
X333132Y107250D02*
X338932Y107250D01*
X333132Y107250D02*
X332714Y107668D01*
X317218Y107668D01*
X311150Y101600D01*
D23*
X338932Y107250D02*
X339250Y107250D01*
D25*
X330200Y67700D02*
X311150Y67700D01*
X330200Y67700D02*
X341202Y78702D01*
X341202Y91463D01*
X343250Y93511D02*
X343250Y101690D01*
X343250Y93511D02*
X341202Y91463D01*
D26*
X343250Y101690D02*
X343250Y107250D01*
D23*
X347250Y107250D02*
X347964Y106536D01*
X349250Y100457D02*
X349250Y84700D01*
X347964Y101743D02*
X347964Y106536D01*
X347964Y101743D02*
X349250Y100457D01*
D28*
X260350Y57150D03*
D25*
X287861Y67700D02*
X292100Y67700D01*
X262352Y59152D02*
X260350Y57150D01*
X279313Y59152D02*
X287861Y67700D01*
X279313Y59152D02*
X262352Y59152D01*
D23*
X292100Y162950D02*
X300600Y171450D01*
X304800Y171450D01*
D24*
X304800Y171450D03*
D23*
X292100Y179950D02*
X273050Y179950D01*
X292100Y179950D02*
X294250Y177800D01*
X315753Y176364D02*
X325286Y176364D01*
X342900Y158750D01*
X315753Y176364D02*
X314317Y177800D01*
X294250Y177800D01*
X342900Y147100D02*
X343250Y146750D01*
X342900Y147100D02*
X342900Y158750D01*
X273050Y162950D02*
X254000Y162950D01*
X273050Y162950D02*
X275200Y162950D01*
X285750Y152400D01*
X298450Y152400D01*
X304800Y158750D01*
D24*
X304800Y158750D03*
X342900Y171450D03*
D23*
X346202Y168148D01*
X346202Y152281D01*
X347250Y151233D01*
X347250Y146750D01*
X298450Y101600D02*
X296300Y99450D01*
D24*
X298450Y101600D03*
D23*
X279497Y106736D02*
X266603Y106736D01*
X259317Y99450D02*
X254000Y99450D01*
X286783Y99450D02*
X296300Y99450D01*
X266603Y106736D02*
X259317Y99450D01*
X279497Y106736D02*
X286783Y99450D01*
D25*
X330200Y101600D02*
X330200Y84700D01*
D28*
X330200Y101600D03*
D23*
X355250Y146750D02*
X355250Y190850D01*
X349250Y196850D01*
D24*
X349250Y196850D03*
D23*
X330200Y192650D02*
X321700Y184150D01*
X330200Y192650D02*
X330200Y195453D01*
D24*
X330200Y195453D03*
D23*
X359250Y200500D02*
X359250Y146750D01*
X359250Y200500D02*
X361950Y203200D01*
D24*
X361950Y203200D03*
D23*
X321700Y203200D02*
X298450Y203200D01*
D24*
X349250Y177800D03*
D23*
X350536Y147464D02*
X351250Y146750D01*
X349250Y153543D02*
X349250Y177800D01*
X350536Y152257D02*
X350536Y147464D01*
X350536Y152257D02*
X349250Y153543D01*
D24*
X196850Y158750D03*
D26*
X338700Y184150D02*
X338700Y203200D01*
X352585Y203200D01*
X358681Y209296D01*
X432054Y209296D01*
X444500Y196850D01*
X444500Y88900D01*
X425450Y69850D01*
X407134Y69850D01*
X406400Y70584D01*
D28*
X406400Y70584D03*
X136332Y25842D03*
M02*
