M48
;GenerationSoftware,Autodesk,EAGLE,9.3.2*%
;CreationDate,2019-04-05T15:08:47Z*%
FMAT,2
ICI,OFF
METRIC,TZ,000.000
T6C0.254
T5C0.350
T4C0.600
T3C1.016
T2C1.321
T1C2.800
%
G90
M71
T1
X39370Y3175
T2
X2540Y13970
X2540Y11430
X41275Y13335
X41275Y15875
X41275Y10795
T3
X15240Y1270
X20320Y1270
X22225Y20320
X19685Y20320
X17145Y20320
X14605Y20320
X12065Y20320
X9525Y20320
X10160Y1270
X12700Y1270
X6985Y20320
X17780Y1270
X22860Y1270
X25400Y1270
X27940Y1270
X30480Y1270
X33020Y1270
X29845Y20320
X27305Y20320
X24765Y20320
T4
X3175Y17780
T5
X2794Y9779
X3556Y9779
X26035Y5715
X33020Y10160
X40640Y7058
X13633Y2584
T6
X24257Y18288
X24257Y17653
X24257Y17018
X24257Y16383
X24257Y15748
X24257Y18923
X21082Y18923
X21082Y18288
X21082Y17653
X21082Y17018
X21082Y16383
X21082Y15748
X21082Y15113
X21717Y15113
X22352Y15113
X22987Y15113
X23622Y15113
X24257Y15113
X12065Y18542
X11430Y18542
X10795Y18542
X10160Y18542
X9525Y18542
X8890Y18542
X8255Y18542
X7620Y18542
X6985Y18542
X6350Y18542
X5715Y18542
X35433Y3048
X34798Y3048
X15875Y17780
X33528Y3048
X32893Y3048
X32258Y3048
X31623Y3048
X30988Y3048
X30353Y3048
X29718Y3048
X29718Y5588
X30353Y5588
X30988Y5588
X31623Y5588
X32258Y5588
X32893Y5588
X33528Y5588
X34163Y5588
X34798Y5588
X35433Y5588
X8890Y6985
X4445Y12700
X26035Y14026
X29845Y11430
X29845Y13335
X37465Y12065
X26289Y8890
X35560Y9525
X10562Y6312
X30480Y17145
X30480Y15875
X34290Y17145
X29845Y10160
X21438Y8255
X16510Y4445
X33020Y19545
X36195Y20320
X34925Y17780
X19685Y15875
X11528Y6350
X20955Y6528
X25400Y7620
X26349Y12700
X36195Y7564
X18161Y7620
X17780Y6350
X4445Y9525
X18239Y11430
X8255Y11430
X17780Y17780
X34163Y3048
X12700Y14605
X4445Y16510
X15875Y17120
X13589Y7620
X9525Y10196
X13970Y8971
X8890Y2540
X8306Y9123
X7620Y3810
X6350Y1905
X20447Y9398
X19939Y9398
X19431Y9398
X18923Y9398
X18415Y9398
X34925Y19685
M30