G04 EAGLE Gerber RS-274X export*
G75*
%MOMM*%
%FSLAX34Y34*%
%LPD*%
%INTop Solder Paste*%
%IPPOS*%
%AMOC8*
5,1,8,0,0,1.08239X$1,22.5*%
G01*
%ADD10R,4.500000X1.300000*%
%ADD11R,3.900000X1.800000*%
%ADD12R,1.000000X1.100000*%
%ADD13R,2.700000X1.600000*%
%ADD14R,1.400000X2.100000*%
%ADD15R,1.600000X5.700000*%
%ADD16R,2.200000X0.600000*%
%ADD17R,1.100000X1.000000*%
%ADD18R,1.600000X1.803000*%
%ADD19R,1.800000X3.200000*%
%ADD20R,0.800000X0.800000*%
%ADD21R,0.600000X1.550000*%
%ADD22R,1.200000X1.800000*%


D10*
X363350Y133350D03*
X363350Y158350D03*
X363350Y108350D03*
D11*
X431350Y190350D03*
X431350Y76350D03*
D12*
X31750Y67700D03*
X31750Y84700D03*
D13*
X69850Y144750D03*
X69850Y172750D03*
X107950Y144750D03*
X107950Y172750D03*
X311150Y71150D03*
X311150Y43150D03*
X342900Y71150D03*
X342900Y43150D03*
D14*
X66900Y114300D03*
X110900Y114300D03*
D15*
X147950Y57150D03*
X194950Y57150D03*
D16*
X197450Y114300D03*
X145450Y114300D03*
X197450Y101600D03*
X197450Y127000D03*
X197450Y139700D03*
X145450Y101600D03*
X145450Y127000D03*
X145450Y139700D03*
X280000Y114300D03*
X228000Y114300D03*
X280000Y101600D03*
X280000Y127000D03*
X280000Y139700D03*
X228000Y101600D03*
X228000Y127000D03*
X228000Y139700D03*
D17*
X50800Y67700D03*
X50800Y84700D03*
D18*
X74680Y76200D03*
X103120Y76200D03*
D19*
X282000Y171450D03*
X226000Y171450D03*
X226000Y57150D03*
X282000Y57150D03*
D20*
X107950Y51950D03*
X107950Y36950D03*
X127000Y51950D03*
X127000Y36950D03*
X325000Y120650D03*
X310000Y120650D03*
X31750Y36950D03*
X31750Y51950D03*
D17*
X88900Y52950D03*
X88900Y35950D03*
X127000Y67700D03*
X127000Y84700D03*
D12*
X309000Y146050D03*
X326000Y146050D03*
D17*
X12700Y52950D03*
X12700Y35950D03*
D21*
X154150Y158750D03*
X164150Y158750D03*
X174150Y158750D03*
X184150Y158750D03*
D22*
X197150Y181000D03*
X141470Y181000D03*
M02*
