G04 EAGLE Gerber RS-274X export*
G75*
%MOMM*%
%FSLAX34Y34*%
%LPD*%
%INSilk screen CMP*%
%IPPOS*%
%AMOC8*
5,1,8,0,0,1.08239X$1,22.5*%
G01*
%ADD10C,0.304800*%
%ADD11C,0.127000*%
%ADD12C,0.152400*%
%ADD13R,0.150000X0.300000*%
%ADD14R,0.300000X0.300000*%
%ADD15R,0.300000X0.150000*%
%ADD16C,0.406400*%
%ADD17C,0.254000*%
%ADD18C,0.050800*%
%ADD19C,0.203200*%


D10*
X176530Y101600D02*
X176532Y101700D01*
X176538Y101801D01*
X176548Y101900D01*
X176562Y102000D01*
X176579Y102099D01*
X176601Y102197D01*
X176627Y102294D01*
X176656Y102390D01*
X176689Y102484D01*
X176726Y102578D01*
X176766Y102670D01*
X176810Y102760D01*
X176858Y102848D01*
X176909Y102935D01*
X176963Y103019D01*
X177021Y103101D01*
X177082Y103181D01*
X177146Y103258D01*
X177213Y103333D01*
X177283Y103405D01*
X177356Y103474D01*
X177431Y103540D01*
X177509Y103604D01*
X177589Y103664D01*
X177672Y103721D01*
X177757Y103774D01*
X177844Y103824D01*
X177933Y103871D01*
X178023Y103914D01*
X178115Y103954D01*
X178209Y103990D01*
X178304Y104022D01*
X178400Y104050D01*
X178498Y104075D01*
X178596Y104095D01*
X178695Y104112D01*
X178795Y104125D01*
X178894Y104134D01*
X178995Y104139D01*
X179095Y104140D01*
X179195Y104137D01*
X179296Y104130D01*
X179395Y104119D01*
X179495Y104104D01*
X179593Y104086D01*
X179691Y104063D01*
X179788Y104036D01*
X179883Y104006D01*
X179978Y103972D01*
X180071Y103934D01*
X180162Y103893D01*
X180252Y103848D01*
X180340Y103800D01*
X180426Y103748D01*
X180510Y103693D01*
X180591Y103634D01*
X180670Y103572D01*
X180747Y103508D01*
X180821Y103440D01*
X180892Y103369D01*
X180961Y103296D01*
X181026Y103220D01*
X181089Y103141D01*
X181148Y103060D01*
X181204Y102977D01*
X181257Y102892D01*
X181306Y102804D01*
X181352Y102715D01*
X181394Y102624D01*
X181433Y102531D01*
X181468Y102437D01*
X181499Y102342D01*
X181527Y102245D01*
X181550Y102148D01*
X181570Y102049D01*
X181586Y101950D01*
X181598Y101851D01*
X181606Y101750D01*
X181610Y101650D01*
X181610Y101550D01*
X181606Y101450D01*
X181598Y101349D01*
X181586Y101250D01*
X181570Y101151D01*
X181550Y101052D01*
X181527Y100955D01*
X181499Y100858D01*
X181468Y100763D01*
X181433Y100669D01*
X181394Y100576D01*
X181352Y100485D01*
X181306Y100396D01*
X181257Y100308D01*
X181204Y100223D01*
X181148Y100140D01*
X181089Y100059D01*
X181026Y99980D01*
X180961Y99904D01*
X180892Y99831D01*
X180821Y99760D01*
X180747Y99692D01*
X180670Y99628D01*
X180591Y99566D01*
X180510Y99507D01*
X180426Y99452D01*
X180340Y99400D01*
X180252Y99352D01*
X180162Y99307D01*
X180071Y99266D01*
X179978Y99228D01*
X179883Y99194D01*
X179788Y99164D01*
X179691Y99137D01*
X179593Y99114D01*
X179495Y99096D01*
X179395Y99081D01*
X179296Y99070D01*
X179195Y99063D01*
X179095Y99060D01*
X178995Y99061D01*
X178894Y99066D01*
X178795Y99075D01*
X178695Y99088D01*
X178596Y99105D01*
X178498Y99125D01*
X178400Y99150D01*
X178304Y99178D01*
X178209Y99210D01*
X178115Y99246D01*
X178023Y99286D01*
X177933Y99329D01*
X177844Y99376D01*
X177757Y99426D01*
X177672Y99479D01*
X177589Y99536D01*
X177509Y99596D01*
X177431Y99660D01*
X177356Y99726D01*
X177283Y99795D01*
X177213Y99867D01*
X177146Y99942D01*
X177082Y100019D01*
X177021Y100099D01*
X176963Y100181D01*
X176909Y100265D01*
X176858Y100352D01*
X176810Y100440D01*
X176766Y100530D01*
X176726Y100622D01*
X176689Y100716D01*
X176656Y100810D01*
X176627Y100906D01*
X176601Y101003D01*
X176579Y101101D01*
X176562Y101200D01*
X176548Y101300D01*
X176538Y101399D01*
X176532Y101500D01*
X176530Y101600D01*
X257810Y102870D02*
X257812Y102970D01*
X257818Y103071D01*
X257828Y103170D01*
X257842Y103270D01*
X257859Y103369D01*
X257881Y103467D01*
X257907Y103564D01*
X257936Y103660D01*
X257969Y103754D01*
X258006Y103848D01*
X258046Y103940D01*
X258090Y104030D01*
X258138Y104118D01*
X258189Y104205D01*
X258243Y104289D01*
X258301Y104371D01*
X258362Y104451D01*
X258426Y104528D01*
X258493Y104603D01*
X258563Y104675D01*
X258636Y104744D01*
X258711Y104810D01*
X258789Y104874D01*
X258869Y104934D01*
X258952Y104991D01*
X259037Y105044D01*
X259124Y105094D01*
X259213Y105141D01*
X259303Y105184D01*
X259395Y105224D01*
X259489Y105260D01*
X259584Y105292D01*
X259680Y105320D01*
X259778Y105345D01*
X259876Y105365D01*
X259975Y105382D01*
X260075Y105395D01*
X260174Y105404D01*
X260275Y105409D01*
X260375Y105410D01*
X260475Y105407D01*
X260576Y105400D01*
X260675Y105389D01*
X260775Y105374D01*
X260873Y105356D01*
X260971Y105333D01*
X261068Y105306D01*
X261163Y105276D01*
X261258Y105242D01*
X261351Y105204D01*
X261442Y105163D01*
X261532Y105118D01*
X261620Y105070D01*
X261706Y105018D01*
X261790Y104963D01*
X261871Y104904D01*
X261950Y104842D01*
X262027Y104778D01*
X262101Y104710D01*
X262172Y104639D01*
X262241Y104566D01*
X262306Y104490D01*
X262369Y104411D01*
X262428Y104330D01*
X262484Y104247D01*
X262537Y104162D01*
X262586Y104074D01*
X262632Y103985D01*
X262674Y103894D01*
X262713Y103801D01*
X262748Y103707D01*
X262779Y103612D01*
X262807Y103515D01*
X262830Y103418D01*
X262850Y103319D01*
X262866Y103220D01*
X262878Y103121D01*
X262886Y103020D01*
X262890Y102920D01*
X262890Y102820D01*
X262886Y102720D01*
X262878Y102619D01*
X262866Y102520D01*
X262850Y102421D01*
X262830Y102322D01*
X262807Y102225D01*
X262779Y102128D01*
X262748Y102033D01*
X262713Y101939D01*
X262674Y101846D01*
X262632Y101755D01*
X262586Y101666D01*
X262537Y101578D01*
X262484Y101493D01*
X262428Y101410D01*
X262369Y101329D01*
X262306Y101250D01*
X262241Y101174D01*
X262172Y101101D01*
X262101Y101030D01*
X262027Y100962D01*
X261950Y100898D01*
X261871Y100836D01*
X261790Y100777D01*
X261706Y100722D01*
X261620Y100670D01*
X261532Y100622D01*
X261442Y100577D01*
X261351Y100536D01*
X261258Y100498D01*
X261163Y100464D01*
X261068Y100434D01*
X260971Y100407D01*
X260873Y100384D01*
X260775Y100366D01*
X260675Y100351D01*
X260576Y100340D01*
X260475Y100333D01*
X260375Y100330D01*
X260275Y100331D01*
X260174Y100336D01*
X260075Y100345D01*
X259975Y100358D01*
X259876Y100375D01*
X259778Y100395D01*
X259680Y100420D01*
X259584Y100448D01*
X259489Y100480D01*
X259395Y100516D01*
X259303Y100556D01*
X259213Y100599D01*
X259124Y100646D01*
X259037Y100696D01*
X258952Y100749D01*
X258869Y100806D01*
X258789Y100866D01*
X258711Y100930D01*
X258636Y100996D01*
X258563Y101065D01*
X258493Y101137D01*
X258426Y101212D01*
X258362Y101289D01*
X258301Y101369D01*
X258243Y101451D01*
X258189Y101535D01*
X258138Y101622D01*
X258090Y101710D01*
X258046Y101800D01*
X258006Y101892D01*
X257969Y101986D01*
X257936Y102080D01*
X257907Y102176D01*
X257881Y102273D01*
X257859Y102371D01*
X257842Y102470D01*
X257828Y102570D01*
X257818Y102669D01*
X257812Y102770D01*
X257810Y102870D01*
D11*
X450850Y183350D02*
X450850Y195850D01*
X450850Y183350D02*
X450850Y83350D01*
X450850Y70850D01*
X450850Y195850D02*
X395850Y195850D01*
X395850Y183350D01*
X395850Y70850D02*
X450850Y70850D01*
X395850Y70850D02*
X395850Y83350D01*
X370850Y83350D01*
X370850Y183350D01*
X395850Y183350D01*
X450850Y183350D01*
X450850Y83350D02*
X395850Y83350D01*
D12*
X398129Y201366D02*
X398129Y206502D01*
X398129Y201366D02*
X398127Y201292D01*
X398121Y201217D01*
X398112Y201144D01*
X398099Y201070D01*
X398082Y200998D01*
X398062Y200927D01*
X398038Y200856D01*
X398010Y200787D01*
X397979Y200719D01*
X397945Y200654D01*
X397907Y200589D01*
X397866Y200527D01*
X397822Y200467D01*
X397775Y200410D01*
X397725Y200355D01*
X397672Y200302D01*
X397617Y200252D01*
X397560Y200205D01*
X397500Y200161D01*
X397438Y200120D01*
X397373Y200082D01*
X397307Y200048D01*
X397240Y200017D01*
X397171Y199989D01*
X397100Y199965D01*
X397029Y199945D01*
X396956Y199928D01*
X396883Y199915D01*
X396809Y199906D01*
X396735Y199900D01*
X396661Y199898D01*
X395927Y199898D01*
X401969Y205034D02*
X403804Y206502D01*
X403804Y199898D01*
X405638Y199898D02*
X401969Y199898D01*
X35052Y95137D02*
X35052Y93670D01*
X35050Y93596D01*
X35044Y93521D01*
X35035Y93448D01*
X35022Y93374D01*
X35005Y93302D01*
X34985Y93231D01*
X34961Y93160D01*
X34933Y93091D01*
X34902Y93024D01*
X34868Y92958D01*
X34830Y92893D01*
X34789Y92831D01*
X34745Y92771D01*
X34698Y92714D01*
X34648Y92659D01*
X34595Y92606D01*
X34540Y92556D01*
X34483Y92509D01*
X34423Y92465D01*
X34361Y92424D01*
X34296Y92386D01*
X34231Y92352D01*
X34163Y92321D01*
X34094Y92293D01*
X34023Y92269D01*
X33952Y92249D01*
X33880Y92232D01*
X33806Y92219D01*
X33733Y92210D01*
X33658Y92204D01*
X33584Y92202D01*
X29916Y92202D01*
X29842Y92204D01*
X29767Y92210D01*
X29694Y92219D01*
X29620Y92232D01*
X29548Y92249D01*
X29477Y92269D01*
X29406Y92293D01*
X29337Y92321D01*
X29270Y92352D01*
X29204Y92386D01*
X29139Y92424D01*
X29077Y92465D01*
X29017Y92509D01*
X28960Y92556D01*
X28905Y92606D01*
X28852Y92659D01*
X28802Y92714D01*
X28755Y92771D01*
X28711Y92831D01*
X28670Y92893D01*
X28632Y92958D01*
X28598Y93023D01*
X28567Y93091D01*
X28539Y93160D01*
X28515Y93231D01*
X28495Y93302D01*
X28478Y93374D01*
X28465Y93448D01*
X28456Y93521D01*
X28450Y93596D01*
X28448Y93670D01*
X28448Y95137D01*
X29916Y98334D02*
X28448Y100168D01*
X35052Y100168D01*
X35052Y98334D02*
X35052Y102002D01*
X46785Y155448D02*
X48253Y155448D01*
X46785Y155448D02*
X46711Y155450D01*
X46636Y155456D01*
X46563Y155465D01*
X46489Y155478D01*
X46417Y155495D01*
X46346Y155515D01*
X46275Y155539D01*
X46206Y155567D01*
X46139Y155598D01*
X46073Y155632D01*
X46008Y155670D01*
X45946Y155711D01*
X45886Y155755D01*
X45829Y155802D01*
X45774Y155852D01*
X45721Y155905D01*
X45671Y155960D01*
X45624Y156017D01*
X45580Y156077D01*
X45539Y156139D01*
X45501Y156204D01*
X45467Y156270D01*
X45436Y156337D01*
X45408Y156406D01*
X45384Y156477D01*
X45364Y156548D01*
X45347Y156620D01*
X45334Y156694D01*
X45325Y156767D01*
X45319Y156842D01*
X45317Y156916D01*
X45318Y156916D02*
X45318Y160584D01*
X45317Y160584D02*
X45319Y160658D01*
X45325Y160733D01*
X45334Y160806D01*
X45347Y160880D01*
X45364Y160952D01*
X45384Y161023D01*
X45408Y161094D01*
X45436Y161163D01*
X45467Y161230D01*
X45501Y161296D01*
X45539Y161361D01*
X45580Y161423D01*
X45624Y161483D01*
X45671Y161540D01*
X45721Y161595D01*
X45774Y161648D01*
X45829Y161698D01*
X45886Y161745D01*
X45946Y161789D01*
X46008Y161830D01*
X46073Y161868D01*
X46138Y161902D01*
X46206Y161933D01*
X46275Y161961D01*
X46346Y161985D01*
X46417Y162005D01*
X46489Y162022D01*
X46563Y162035D01*
X46636Y162044D01*
X46711Y162050D01*
X46785Y162052D01*
X48253Y162052D01*
X53467Y162052D02*
X53546Y162050D01*
X53624Y162045D01*
X53702Y162035D01*
X53779Y162022D01*
X53856Y162005D01*
X53932Y161985D01*
X54007Y161961D01*
X54081Y161934D01*
X54153Y161903D01*
X54224Y161868D01*
X54293Y161831D01*
X54360Y161790D01*
X54425Y161746D01*
X54488Y161699D01*
X54548Y161649D01*
X54606Y161596D01*
X54662Y161540D01*
X54715Y161482D01*
X54765Y161422D01*
X54812Y161359D01*
X54856Y161294D01*
X54897Y161227D01*
X54934Y161158D01*
X54969Y161087D01*
X55000Y161015D01*
X55027Y160941D01*
X55051Y160866D01*
X55071Y160790D01*
X55088Y160713D01*
X55101Y160636D01*
X55111Y160558D01*
X55116Y160480D01*
X55118Y160401D01*
X53467Y162052D02*
X53378Y162050D01*
X53289Y162045D01*
X53201Y162035D01*
X53113Y162022D01*
X53026Y162006D01*
X52939Y161985D01*
X52854Y161961D01*
X52769Y161934D01*
X52686Y161903D01*
X52604Y161868D01*
X52523Y161830D01*
X52444Y161789D01*
X52368Y161745D01*
X52292Y161697D01*
X52219Y161646D01*
X52149Y161593D01*
X52080Y161536D01*
X52014Y161476D01*
X51951Y161414D01*
X51890Y161349D01*
X51832Y161282D01*
X51777Y161212D01*
X51724Y161140D01*
X51675Y161066D01*
X51629Y160990D01*
X51587Y160912D01*
X51547Y160832D01*
X51511Y160751D01*
X51478Y160668D01*
X51449Y160584D01*
X54568Y159117D02*
X54624Y159173D01*
X54678Y159232D01*
X54729Y159293D01*
X54778Y159357D01*
X54823Y159422D01*
X54866Y159490D01*
X54905Y159559D01*
X54942Y159630D01*
X54975Y159703D01*
X55004Y159777D01*
X55031Y159852D01*
X55054Y159928D01*
X55073Y160006D01*
X55089Y160084D01*
X55102Y160162D01*
X55111Y160242D01*
X55116Y160321D01*
X55118Y160401D01*
X54568Y159117D02*
X51449Y155448D01*
X55118Y155448D01*
X124150Y155448D02*
X125617Y155448D01*
X124150Y155448D02*
X124076Y155450D01*
X124001Y155456D01*
X123928Y155465D01*
X123854Y155478D01*
X123782Y155495D01*
X123711Y155515D01*
X123640Y155539D01*
X123571Y155567D01*
X123504Y155598D01*
X123438Y155632D01*
X123373Y155670D01*
X123311Y155711D01*
X123251Y155755D01*
X123194Y155802D01*
X123139Y155852D01*
X123086Y155905D01*
X123036Y155960D01*
X122989Y156017D01*
X122945Y156077D01*
X122904Y156139D01*
X122866Y156204D01*
X122832Y156270D01*
X122801Y156337D01*
X122773Y156406D01*
X122749Y156477D01*
X122729Y156548D01*
X122712Y156620D01*
X122699Y156694D01*
X122690Y156767D01*
X122684Y156842D01*
X122682Y156916D01*
X122682Y160584D01*
X122684Y160658D01*
X122690Y160733D01*
X122699Y160806D01*
X122712Y160880D01*
X122729Y160952D01*
X122749Y161023D01*
X122773Y161094D01*
X122801Y161163D01*
X122832Y161230D01*
X122866Y161296D01*
X122904Y161361D01*
X122945Y161423D01*
X122989Y161483D01*
X123036Y161540D01*
X123086Y161595D01*
X123139Y161648D01*
X123194Y161698D01*
X123251Y161745D01*
X123311Y161789D01*
X123373Y161830D01*
X123438Y161868D01*
X123503Y161902D01*
X123571Y161933D01*
X123640Y161961D01*
X123711Y161985D01*
X123782Y162005D01*
X123854Y162022D01*
X123928Y162035D01*
X124001Y162044D01*
X124076Y162050D01*
X124150Y162052D01*
X125617Y162052D01*
X128814Y155448D02*
X130648Y155448D01*
X130733Y155450D01*
X130817Y155456D01*
X130901Y155466D01*
X130985Y155479D01*
X131068Y155497D01*
X131150Y155518D01*
X131231Y155543D01*
X131311Y155572D01*
X131389Y155604D01*
X131465Y155640D01*
X131540Y155680D01*
X131613Y155723D01*
X131684Y155769D01*
X131753Y155818D01*
X131820Y155871D01*
X131884Y155927D01*
X131945Y155985D01*
X132003Y156046D01*
X132059Y156110D01*
X132112Y156177D01*
X132161Y156246D01*
X132207Y156317D01*
X132250Y156390D01*
X132290Y156465D01*
X132326Y156541D01*
X132358Y156619D01*
X132387Y156699D01*
X132412Y156780D01*
X132433Y156862D01*
X132451Y156945D01*
X132464Y157029D01*
X132474Y157113D01*
X132480Y157197D01*
X132482Y157282D01*
X132480Y157367D01*
X132474Y157451D01*
X132464Y157535D01*
X132451Y157619D01*
X132433Y157702D01*
X132412Y157784D01*
X132387Y157865D01*
X132358Y157945D01*
X132326Y158023D01*
X132290Y158099D01*
X132250Y158174D01*
X132207Y158247D01*
X132161Y158318D01*
X132112Y158387D01*
X132059Y158454D01*
X132003Y158518D01*
X131945Y158579D01*
X131884Y158637D01*
X131820Y158693D01*
X131753Y158746D01*
X131684Y158795D01*
X131613Y158841D01*
X131540Y158884D01*
X131465Y158924D01*
X131389Y158960D01*
X131311Y158992D01*
X131231Y159021D01*
X131150Y159046D01*
X131068Y159067D01*
X130985Y159085D01*
X130901Y159098D01*
X130817Y159108D01*
X130733Y159114D01*
X130648Y159116D01*
X131015Y162052D02*
X128814Y162052D01*
X131015Y162052D02*
X131091Y162050D01*
X131166Y162044D01*
X131241Y162035D01*
X131315Y162021D01*
X131389Y162004D01*
X131461Y161982D01*
X131533Y161958D01*
X131603Y161929D01*
X131671Y161897D01*
X131738Y161862D01*
X131803Y161823D01*
X131866Y161780D01*
X131926Y161735D01*
X131984Y161687D01*
X132040Y161635D01*
X132092Y161581D01*
X132142Y161524D01*
X132189Y161465D01*
X132233Y161404D01*
X132274Y161340D01*
X132311Y161274D01*
X132345Y161206D01*
X132375Y161137D01*
X132402Y161066D01*
X132425Y160994D01*
X132444Y160921D01*
X132459Y160847D01*
X132471Y160772D01*
X132479Y160697D01*
X132483Y160622D01*
X132483Y160546D01*
X132479Y160471D01*
X132471Y160396D01*
X132459Y160321D01*
X132444Y160247D01*
X132425Y160174D01*
X132402Y160102D01*
X132375Y160031D01*
X132345Y159962D01*
X132311Y159894D01*
X132274Y159828D01*
X132233Y159764D01*
X132189Y159703D01*
X132142Y159644D01*
X132092Y159587D01*
X132040Y159533D01*
X131984Y159481D01*
X131926Y159433D01*
X131866Y159388D01*
X131803Y159345D01*
X131738Y159306D01*
X131671Y159271D01*
X131603Y159239D01*
X131533Y159210D01*
X131461Y159186D01*
X131389Y159164D01*
X131315Y159147D01*
X131241Y159133D01*
X131166Y159124D01*
X131091Y159118D01*
X131015Y159116D01*
X131015Y159117D02*
X129547Y159117D01*
X314452Y87517D02*
X314452Y86050D01*
X314450Y85976D01*
X314444Y85901D01*
X314435Y85828D01*
X314422Y85754D01*
X314405Y85682D01*
X314385Y85611D01*
X314361Y85540D01*
X314333Y85471D01*
X314302Y85404D01*
X314268Y85338D01*
X314230Y85273D01*
X314189Y85211D01*
X314145Y85151D01*
X314098Y85094D01*
X314048Y85039D01*
X313995Y84986D01*
X313940Y84936D01*
X313883Y84889D01*
X313823Y84845D01*
X313761Y84804D01*
X313696Y84766D01*
X313631Y84732D01*
X313563Y84701D01*
X313494Y84673D01*
X313423Y84649D01*
X313352Y84629D01*
X313280Y84612D01*
X313206Y84599D01*
X313133Y84590D01*
X313058Y84584D01*
X312984Y84582D01*
X309316Y84582D01*
X309242Y84584D01*
X309167Y84590D01*
X309094Y84599D01*
X309020Y84612D01*
X308948Y84629D01*
X308877Y84649D01*
X308806Y84673D01*
X308737Y84701D01*
X308670Y84732D01*
X308604Y84766D01*
X308539Y84804D01*
X308477Y84845D01*
X308417Y84889D01*
X308360Y84936D01*
X308305Y84986D01*
X308252Y85039D01*
X308202Y85094D01*
X308155Y85151D01*
X308111Y85211D01*
X308070Y85273D01*
X308032Y85338D01*
X307998Y85403D01*
X307967Y85471D01*
X307939Y85540D01*
X307915Y85611D01*
X307895Y85682D01*
X307878Y85754D01*
X307865Y85828D01*
X307856Y85901D01*
X307850Y85976D01*
X307848Y86050D01*
X307848Y87517D01*
X312618Y90714D02*
X312533Y90716D01*
X312449Y90722D01*
X312365Y90732D01*
X312281Y90745D01*
X312198Y90763D01*
X312116Y90784D01*
X312035Y90809D01*
X311955Y90838D01*
X311877Y90870D01*
X311801Y90906D01*
X311726Y90946D01*
X311653Y90989D01*
X311582Y91035D01*
X311513Y91084D01*
X311446Y91137D01*
X311382Y91193D01*
X311321Y91251D01*
X311263Y91312D01*
X311207Y91376D01*
X311154Y91443D01*
X311105Y91512D01*
X311059Y91583D01*
X311016Y91656D01*
X310976Y91731D01*
X310940Y91807D01*
X310908Y91885D01*
X310879Y91965D01*
X310854Y92046D01*
X310833Y92128D01*
X310815Y92211D01*
X310802Y92295D01*
X310792Y92379D01*
X310786Y92463D01*
X310784Y92548D01*
X310786Y92633D01*
X310792Y92717D01*
X310802Y92801D01*
X310815Y92885D01*
X310833Y92968D01*
X310854Y93050D01*
X310879Y93131D01*
X310908Y93211D01*
X310940Y93289D01*
X310976Y93365D01*
X311016Y93440D01*
X311059Y93513D01*
X311105Y93584D01*
X311154Y93653D01*
X311207Y93720D01*
X311263Y93784D01*
X311321Y93845D01*
X311382Y93903D01*
X311446Y93959D01*
X311513Y94012D01*
X311582Y94061D01*
X311653Y94107D01*
X311726Y94150D01*
X311801Y94190D01*
X311877Y94226D01*
X311955Y94258D01*
X312035Y94287D01*
X312116Y94312D01*
X312198Y94333D01*
X312281Y94351D01*
X312365Y94364D01*
X312449Y94374D01*
X312533Y94380D01*
X312618Y94382D01*
X312703Y94380D01*
X312787Y94374D01*
X312871Y94364D01*
X312955Y94351D01*
X313038Y94333D01*
X313120Y94312D01*
X313201Y94287D01*
X313281Y94258D01*
X313359Y94226D01*
X313435Y94190D01*
X313510Y94150D01*
X313583Y94107D01*
X313654Y94061D01*
X313723Y94012D01*
X313790Y93959D01*
X313854Y93903D01*
X313915Y93845D01*
X313973Y93784D01*
X314029Y93720D01*
X314082Y93653D01*
X314131Y93584D01*
X314177Y93513D01*
X314220Y93440D01*
X314260Y93365D01*
X314296Y93289D01*
X314328Y93211D01*
X314357Y93131D01*
X314382Y93050D01*
X314403Y92968D01*
X314421Y92885D01*
X314434Y92801D01*
X314444Y92717D01*
X314450Y92633D01*
X314452Y92548D01*
X314450Y92463D01*
X314444Y92379D01*
X314434Y92295D01*
X314421Y92211D01*
X314403Y92128D01*
X314382Y92046D01*
X314357Y91965D01*
X314328Y91885D01*
X314296Y91807D01*
X314260Y91731D01*
X314220Y91656D01*
X314177Y91583D01*
X314131Y91512D01*
X314082Y91443D01*
X314029Y91376D01*
X313973Y91312D01*
X313915Y91251D01*
X313854Y91193D01*
X313790Y91137D01*
X313723Y91084D01*
X313654Y91035D01*
X313583Y90989D01*
X313510Y90946D01*
X313435Y90906D01*
X313359Y90870D01*
X313281Y90838D01*
X313201Y90809D01*
X313120Y90784D01*
X313038Y90763D01*
X312955Y90745D01*
X312871Y90732D01*
X312787Y90722D01*
X312703Y90716D01*
X312618Y90714D01*
X309316Y91080D02*
X309240Y91082D01*
X309165Y91088D01*
X309090Y91097D01*
X309016Y91111D01*
X308942Y91128D01*
X308870Y91150D01*
X308798Y91174D01*
X308728Y91203D01*
X308660Y91235D01*
X308593Y91270D01*
X308528Y91309D01*
X308465Y91352D01*
X308405Y91397D01*
X308347Y91445D01*
X308291Y91497D01*
X308239Y91551D01*
X308189Y91608D01*
X308142Y91667D01*
X308098Y91728D01*
X308057Y91792D01*
X308020Y91858D01*
X307986Y91926D01*
X307956Y91995D01*
X307929Y92066D01*
X307906Y92138D01*
X307887Y92211D01*
X307872Y92285D01*
X307860Y92360D01*
X307852Y92435D01*
X307848Y92510D01*
X307848Y92586D01*
X307852Y92661D01*
X307860Y92736D01*
X307872Y92811D01*
X307887Y92885D01*
X307906Y92958D01*
X307929Y93030D01*
X307956Y93101D01*
X307986Y93170D01*
X308020Y93238D01*
X308057Y93304D01*
X308098Y93368D01*
X308142Y93429D01*
X308189Y93488D01*
X308239Y93545D01*
X308291Y93599D01*
X308347Y93651D01*
X308405Y93699D01*
X308465Y93744D01*
X308528Y93787D01*
X308593Y93826D01*
X308660Y93861D01*
X308728Y93893D01*
X308798Y93922D01*
X308870Y93946D01*
X308942Y93968D01*
X309016Y93985D01*
X309090Y93999D01*
X309165Y94008D01*
X309240Y94014D01*
X309316Y94016D01*
X309392Y94014D01*
X309467Y94008D01*
X309542Y93999D01*
X309616Y93985D01*
X309690Y93968D01*
X309762Y93946D01*
X309834Y93922D01*
X309904Y93893D01*
X309972Y93861D01*
X310039Y93826D01*
X310104Y93787D01*
X310167Y93744D01*
X310227Y93699D01*
X310285Y93651D01*
X310341Y93599D01*
X310393Y93545D01*
X310443Y93488D01*
X310490Y93429D01*
X310534Y93368D01*
X310575Y93304D01*
X310612Y93238D01*
X310646Y93170D01*
X310676Y93101D01*
X310703Y93030D01*
X310726Y92958D01*
X310745Y92885D01*
X310760Y92811D01*
X310772Y92736D01*
X310780Y92661D01*
X310784Y92586D01*
X310784Y92510D01*
X310780Y92435D01*
X310772Y92360D01*
X310760Y92285D01*
X310745Y92211D01*
X310726Y92138D01*
X310703Y92066D01*
X310676Y91995D01*
X310646Y91926D01*
X310612Y91858D01*
X310575Y91792D01*
X310534Y91728D01*
X310490Y91667D01*
X310443Y91608D01*
X310393Y91551D01*
X310341Y91497D01*
X310285Y91445D01*
X310227Y91397D01*
X310167Y91352D01*
X310104Y91309D01*
X310039Y91270D01*
X309972Y91235D01*
X309904Y91203D01*
X309834Y91174D01*
X309762Y91150D01*
X309690Y91128D01*
X309616Y91111D01*
X309542Y91097D01*
X309467Y91088D01*
X309392Y91082D01*
X309316Y91080D01*
X346202Y87517D02*
X346202Y86050D01*
X346200Y85976D01*
X346194Y85901D01*
X346185Y85828D01*
X346172Y85754D01*
X346155Y85682D01*
X346135Y85611D01*
X346111Y85540D01*
X346083Y85471D01*
X346052Y85404D01*
X346018Y85338D01*
X345980Y85273D01*
X345939Y85211D01*
X345895Y85151D01*
X345848Y85094D01*
X345798Y85039D01*
X345745Y84986D01*
X345690Y84936D01*
X345633Y84889D01*
X345573Y84845D01*
X345511Y84804D01*
X345446Y84766D01*
X345381Y84732D01*
X345313Y84701D01*
X345244Y84673D01*
X345173Y84649D01*
X345102Y84629D01*
X345030Y84612D01*
X344956Y84599D01*
X344883Y84590D01*
X344808Y84584D01*
X344734Y84582D01*
X341066Y84582D01*
X340992Y84584D01*
X340917Y84590D01*
X340844Y84599D01*
X340770Y84612D01*
X340698Y84629D01*
X340627Y84649D01*
X340556Y84673D01*
X340487Y84701D01*
X340420Y84732D01*
X340354Y84766D01*
X340289Y84804D01*
X340227Y84845D01*
X340167Y84889D01*
X340110Y84936D01*
X340055Y84986D01*
X340002Y85039D01*
X339952Y85094D01*
X339905Y85151D01*
X339861Y85211D01*
X339820Y85273D01*
X339782Y85338D01*
X339748Y85403D01*
X339717Y85471D01*
X339689Y85540D01*
X339665Y85611D01*
X339645Y85682D01*
X339628Y85754D01*
X339615Y85828D01*
X339606Y85901D01*
X339600Y85976D01*
X339598Y86050D01*
X339598Y87517D01*
X343267Y92181D02*
X343267Y94382D01*
X343267Y92181D02*
X343265Y92107D01*
X343259Y92032D01*
X343250Y91959D01*
X343237Y91885D01*
X343220Y91813D01*
X343200Y91742D01*
X343176Y91671D01*
X343148Y91602D01*
X343117Y91534D01*
X343083Y91469D01*
X343045Y91404D01*
X343004Y91342D01*
X342960Y91282D01*
X342913Y91225D01*
X342863Y91170D01*
X342810Y91117D01*
X342755Y91067D01*
X342698Y91020D01*
X342638Y90976D01*
X342576Y90935D01*
X342511Y90897D01*
X342445Y90863D01*
X342378Y90832D01*
X342309Y90804D01*
X342238Y90780D01*
X342167Y90760D01*
X342094Y90743D01*
X342021Y90730D01*
X341947Y90721D01*
X341873Y90715D01*
X341799Y90713D01*
X341799Y90714D02*
X341432Y90714D01*
X341347Y90716D01*
X341263Y90722D01*
X341179Y90732D01*
X341095Y90745D01*
X341012Y90763D01*
X340930Y90784D01*
X340849Y90809D01*
X340769Y90838D01*
X340691Y90870D01*
X340615Y90906D01*
X340540Y90946D01*
X340467Y90989D01*
X340396Y91035D01*
X340327Y91084D01*
X340260Y91137D01*
X340196Y91193D01*
X340135Y91251D01*
X340077Y91312D01*
X340021Y91376D01*
X339968Y91443D01*
X339919Y91512D01*
X339873Y91583D01*
X339830Y91656D01*
X339790Y91731D01*
X339754Y91807D01*
X339722Y91885D01*
X339693Y91965D01*
X339668Y92046D01*
X339647Y92128D01*
X339629Y92211D01*
X339616Y92295D01*
X339606Y92379D01*
X339600Y92463D01*
X339598Y92548D01*
X339600Y92633D01*
X339606Y92717D01*
X339616Y92801D01*
X339629Y92885D01*
X339647Y92968D01*
X339668Y93050D01*
X339693Y93131D01*
X339722Y93211D01*
X339754Y93289D01*
X339790Y93365D01*
X339830Y93440D01*
X339873Y93513D01*
X339919Y93584D01*
X339968Y93653D01*
X340021Y93720D01*
X340077Y93784D01*
X340135Y93845D01*
X340196Y93903D01*
X340260Y93959D01*
X340327Y94012D01*
X340396Y94061D01*
X340467Y94107D01*
X340540Y94150D01*
X340615Y94190D01*
X340691Y94226D01*
X340769Y94258D01*
X340849Y94287D01*
X340930Y94312D01*
X341012Y94333D01*
X341095Y94351D01*
X341179Y94364D01*
X341263Y94374D01*
X341347Y94380D01*
X341432Y94382D01*
X343267Y94382D01*
X343374Y94380D01*
X343481Y94374D01*
X343588Y94364D01*
X343694Y94351D01*
X343800Y94333D01*
X343905Y94312D01*
X344009Y94287D01*
X344113Y94258D01*
X344215Y94225D01*
X344315Y94188D01*
X344415Y94148D01*
X344513Y94104D01*
X344609Y94057D01*
X344703Y94006D01*
X344796Y93952D01*
X344886Y93895D01*
X344975Y93834D01*
X345061Y93770D01*
X345144Y93703D01*
X345226Y93633D01*
X345304Y93560D01*
X345380Y93484D01*
X345453Y93406D01*
X345523Y93324D01*
X345590Y93241D01*
X345654Y93155D01*
X345715Y93066D01*
X345772Y92976D01*
X345826Y92883D01*
X345877Y92789D01*
X345925Y92693D01*
X345968Y92595D01*
X346008Y92495D01*
X346045Y92395D01*
X346078Y92293D01*
X346107Y92189D01*
X346132Y92085D01*
X346153Y91980D01*
X346171Y91874D01*
X346184Y91768D01*
X346194Y91661D01*
X346200Y91554D01*
X346202Y91447D01*
D11*
X69400Y101800D02*
X69400Y126800D01*
X69400Y101800D02*
X108400Y101800D01*
X108400Y126800D01*
X69400Y126800D01*
X101600Y127000D02*
X101600Y101600D01*
X100330Y101600D02*
X100330Y127000D01*
X99060Y127000D02*
X99060Y101600D01*
X102870Y101600D02*
X102870Y127000D01*
D12*
X120142Y117602D02*
X120142Y110998D01*
X120142Y117602D02*
X121976Y117602D01*
X122061Y117600D01*
X122145Y117594D01*
X122229Y117584D01*
X122313Y117571D01*
X122396Y117553D01*
X122478Y117532D01*
X122559Y117507D01*
X122639Y117478D01*
X122717Y117446D01*
X122793Y117410D01*
X122868Y117370D01*
X122941Y117327D01*
X123012Y117281D01*
X123081Y117232D01*
X123148Y117179D01*
X123212Y117123D01*
X123273Y117065D01*
X123331Y117004D01*
X123387Y116940D01*
X123440Y116873D01*
X123489Y116804D01*
X123535Y116733D01*
X123578Y116660D01*
X123618Y116585D01*
X123654Y116509D01*
X123686Y116431D01*
X123715Y116351D01*
X123740Y116270D01*
X123761Y116188D01*
X123779Y116105D01*
X123792Y116021D01*
X123802Y115937D01*
X123808Y115853D01*
X123810Y115768D01*
X123811Y115768D02*
X123811Y112832D01*
X123810Y112832D02*
X123808Y112747D01*
X123802Y112663D01*
X123792Y112579D01*
X123779Y112495D01*
X123761Y112412D01*
X123740Y112330D01*
X123715Y112249D01*
X123686Y112169D01*
X123654Y112091D01*
X123618Y112015D01*
X123578Y111940D01*
X123535Y111867D01*
X123489Y111796D01*
X123440Y111727D01*
X123387Y111660D01*
X123331Y111596D01*
X123273Y111535D01*
X123212Y111477D01*
X123148Y111421D01*
X123081Y111368D01*
X123012Y111319D01*
X122941Y111273D01*
X122868Y111230D01*
X122793Y111190D01*
X122717Y111154D01*
X122639Y111122D01*
X122559Y111093D01*
X122478Y111068D01*
X122396Y111047D01*
X122313Y111029D01*
X122229Y111016D01*
X122145Y111006D01*
X122061Y111000D01*
X121976Y110998D01*
X120142Y110998D01*
X127701Y116134D02*
X129535Y117602D01*
X129535Y110998D01*
X127701Y110998D02*
X131370Y110998D01*
D11*
X141450Y87150D02*
X141450Y27150D01*
X201450Y27150D01*
X201450Y87150D01*
X141450Y87150D01*
D12*
X165862Y60452D02*
X165862Y53848D01*
X168797Y53848D01*
X171934Y58984D02*
X173768Y60452D01*
X173768Y53848D01*
X171934Y53848D02*
X175603Y53848D01*
X172918Y114454D02*
X169982Y114454D01*
X169897Y114456D01*
X169813Y114462D01*
X169729Y114472D01*
X169645Y114485D01*
X169562Y114503D01*
X169480Y114524D01*
X169399Y114549D01*
X169319Y114578D01*
X169241Y114610D01*
X169165Y114646D01*
X169090Y114686D01*
X169017Y114729D01*
X168946Y114775D01*
X168877Y114824D01*
X168810Y114877D01*
X168746Y114933D01*
X168685Y114991D01*
X168627Y115052D01*
X168571Y115116D01*
X168518Y115183D01*
X168469Y115252D01*
X168423Y115323D01*
X168380Y115396D01*
X168340Y115471D01*
X168304Y115547D01*
X168272Y115625D01*
X168243Y115705D01*
X168218Y115786D01*
X168197Y115868D01*
X168179Y115951D01*
X168166Y116035D01*
X168156Y116119D01*
X168150Y116203D01*
X168148Y116288D01*
X168150Y116373D01*
X168156Y116457D01*
X168166Y116541D01*
X168179Y116625D01*
X168197Y116708D01*
X168218Y116790D01*
X168243Y116871D01*
X168272Y116951D01*
X168304Y117029D01*
X168340Y117105D01*
X168380Y117180D01*
X168423Y117253D01*
X168469Y117324D01*
X168518Y117393D01*
X168571Y117460D01*
X168627Y117524D01*
X168685Y117585D01*
X168746Y117643D01*
X168810Y117699D01*
X168877Y117752D01*
X168946Y117801D01*
X169017Y117847D01*
X169090Y117890D01*
X169165Y117930D01*
X169241Y117966D01*
X169319Y117998D01*
X169399Y118027D01*
X169480Y118052D01*
X169562Y118073D01*
X169645Y118091D01*
X169729Y118104D01*
X169813Y118114D01*
X169897Y118120D01*
X169982Y118122D01*
X169982Y118123D02*
X172918Y118123D01*
X172918Y118122D02*
X173003Y118120D01*
X173087Y118114D01*
X173171Y118104D01*
X173255Y118091D01*
X173338Y118073D01*
X173420Y118052D01*
X173501Y118027D01*
X173581Y117998D01*
X173659Y117966D01*
X173735Y117930D01*
X173810Y117890D01*
X173883Y117847D01*
X173954Y117801D01*
X174023Y117752D01*
X174090Y117699D01*
X174154Y117643D01*
X174215Y117585D01*
X174273Y117524D01*
X174329Y117460D01*
X174382Y117393D01*
X174431Y117324D01*
X174477Y117253D01*
X174520Y117180D01*
X174560Y117105D01*
X174596Y117029D01*
X174628Y116951D01*
X174657Y116871D01*
X174682Y116790D01*
X174703Y116708D01*
X174721Y116625D01*
X174734Y116541D01*
X174744Y116457D01*
X174750Y116373D01*
X174752Y116288D01*
X174750Y116203D01*
X174744Y116119D01*
X174734Y116035D01*
X174721Y115951D01*
X174703Y115868D01*
X174682Y115786D01*
X174657Y115705D01*
X174628Y115625D01*
X174596Y115547D01*
X174560Y115471D01*
X174520Y115396D01*
X174477Y115323D01*
X174431Y115252D01*
X174382Y115183D01*
X174329Y115116D01*
X174273Y115052D01*
X174215Y114991D01*
X174154Y114933D01*
X174090Y114877D01*
X174023Y114824D01*
X173954Y114775D01*
X173883Y114729D01*
X173810Y114686D01*
X173735Y114646D01*
X173659Y114610D01*
X173581Y114578D01*
X173501Y114549D01*
X173420Y114524D01*
X173338Y114503D01*
X173255Y114485D01*
X173171Y114472D01*
X173087Y114462D01*
X173003Y114456D01*
X172918Y114454D01*
X173284Y117389D02*
X174752Y118857D01*
X169616Y121299D02*
X168148Y123134D01*
X174752Y123134D01*
X174752Y124968D02*
X174752Y121299D01*
X252532Y115062D02*
X255468Y115062D01*
X252532Y115062D02*
X252447Y115064D01*
X252363Y115070D01*
X252279Y115080D01*
X252195Y115093D01*
X252112Y115111D01*
X252030Y115132D01*
X251949Y115157D01*
X251869Y115186D01*
X251791Y115218D01*
X251715Y115254D01*
X251640Y115294D01*
X251567Y115337D01*
X251496Y115383D01*
X251427Y115432D01*
X251360Y115485D01*
X251296Y115541D01*
X251235Y115599D01*
X251177Y115660D01*
X251121Y115724D01*
X251068Y115791D01*
X251019Y115860D01*
X250973Y115931D01*
X250930Y116004D01*
X250890Y116079D01*
X250854Y116155D01*
X250822Y116233D01*
X250793Y116313D01*
X250768Y116394D01*
X250747Y116476D01*
X250729Y116559D01*
X250716Y116643D01*
X250706Y116727D01*
X250700Y116811D01*
X250698Y116896D01*
X250700Y116981D01*
X250706Y117065D01*
X250716Y117149D01*
X250729Y117233D01*
X250747Y117316D01*
X250768Y117398D01*
X250793Y117479D01*
X250822Y117559D01*
X250854Y117637D01*
X250890Y117713D01*
X250930Y117788D01*
X250973Y117861D01*
X251019Y117932D01*
X251068Y118001D01*
X251121Y118068D01*
X251177Y118132D01*
X251235Y118193D01*
X251296Y118251D01*
X251360Y118307D01*
X251427Y118360D01*
X251496Y118409D01*
X251567Y118455D01*
X251640Y118498D01*
X251715Y118538D01*
X251791Y118574D01*
X251869Y118606D01*
X251949Y118635D01*
X252030Y118660D01*
X252112Y118681D01*
X252195Y118699D01*
X252279Y118712D01*
X252363Y118722D01*
X252447Y118728D01*
X252532Y118730D01*
X252532Y118731D02*
X255468Y118731D01*
X255468Y118730D02*
X255553Y118728D01*
X255637Y118722D01*
X255721Y118712D01*
X255805Y118699D01*
X255888Y118681D01*
X255970Y118660D01*
X256051Y118635D01*
X256131Y118606D01*
X256209Y118574D01*
X256285Y118538D01*
X256360Y118498D01*
X256433Y118455D01*
X256504Y118409D01*
X256573Y118360D01*
X256640Y118307D01*
X256704Y118251D01*
X256765Y118193D01*
X256823Y118132D01*
X256879Y118068D01*
X256932Y118001D01*
X256981Y117932D01*
X257027Y117861D01*
X257070Y117788D01*
X257110Y117713D01*
X257146Y117637D01*
X257178Y117559D01*
X257207Y117479D01*
X257232Y117398D01*
X257253Y117316D01*
X257271Y117233D01*
X257284Y117149D01*
X257294Y117065D01*
X257300Y116981D01*
X257302Y116896D01*
X257300Y116811D01*
X257294Y116727D01*
X257284Y116643D01*
X257271Y116559D01*
X257253Y116476D01*
X257232Y116394D01*
X257207Y116313D01*
X257178Y116233D01*
X257146Y116155D01*
X257110Y116079D01*
X257070Y116004D01*
X257027Y115931D01*
X256981Y115860D01*
X256932Y115791D01*
X256879Y115724D01*
X256823Y115660D01*
X256765Y115599D01*
X256704Y115541D01*
X256640Y115485D01*
X256573Y115432D01*
X256504Y115383D01*
X256433Y115337D01*
X256360Y115294D01*
X256285Y115254D01*
X256209Y115218D01*
X256131Y115186D01*
X256051Y115157D01*
X255970Y115132D01*
X255888Y115111D01*
X255805Y115093D01*
X255721Y115080D01*
X255637Y115070D01*
X255553Y115064D01*
X255468Y115062D01*
X255834Y117997D02*
X257302Y119465D01*
X252349Y125576D02*
X252270Y125574D01*
X252192Y125569D01*
X252114Y125559D01*
X252037Y125546D01*
X251960Y125529D01*
X251884Y125509D01*
X251809Y125485D01*
X251735Y125458D01*
X251663Y125427D01*
X251592Y125392D01*
X251524Y125355D01*
X251456Y125314D01*
X251391Y125270D01*
X251328Y125223D01*
X251268Y125173D01*
X251210Y125120D01*
X251154Y125064D01*
X251101Y125006D01*
X251051Y124946D01*
X251004Y124883D01*
X250960Y124818D01*
X250919Y124751D01*
X250882Y124682D01*
X250847Y124611D01*
X250816Y124539D01*
X250789Y124465D01*
X250765Y124390D01*
X250745Y124314D01*
X250728Y124237D01*
X250715Y124160D01*
X250705Y124082D01*
X250700Y124004D01*
X250698Y123925D01*
X250700Y123836D01*
X250705Y123747D01*
X250715Y123659D01*
X250728Y123571D01*
X250744Y123484D01*
X250765Y123397D01*
X250789Y123312D01*
X250816Y123227D01*
X250847Y123144D01*
X250882Y123062D01*
X250920Y122981D01*
X250961Y122902D01*
X251005Y122826D01*
X251053Y122750D01*
X251104Y122677D01*
X251157Y122607D01*
X251214Y122538D01*
X251274Y122472D01*
X251336Y122409D01*
X251401Y122348D01*
X251468Y122290D01*
X251538Y122235D01*
X251610Y122182D01*
X251684Y122133D01*
X251760Y122087D01*
X251838Y122045D01*
X251918Y122005D01*
X251999Y121969D01*
X252082Y121936D01*
X252166Y121907D01*
X253633Y125026D02*
X253577Y125082D01*
X253518Y125136D01*
X253457Y125187D01*
X253393Y125236D01*
X253328Y125281D01*
X253260Y125324D01*
X253191Y125363D01*
X253120Y125400D01*
X253047Y125433D01*
X252973Y125462D01*
X252898Y125489D01*
X252822Y125512D01*
X252744Y125531D01*
X252666Y125547D01*
X252588Y125560D01*
X252508Y125569D01*
X252429Y125574D01*
X252349Y125576D01*
X253633Y125026D02*
X257302Y121907D01*
X257302Y125576D01*
X54102Y92202D02*
X47498Y92202D01*
X47498Y94036D01*
X47500Y94121D01*
X47506Y94205D01*
X47516Y94289D01*
X47529Y94373D01*
X47547Y94456D01*
X47568Y94538D01*
X47593Y94619D01*
X47622Y94699D01*
X47654Y94777D01*
X47690Y94853D01*
X47730Y94928D01*
X47773Y95001D01*
X47819Y95072D01*
X47868Y95141D01*
X47921Y95208D01*
X47977Y95272D01*
X48035Y95333D01*
X48096Y95391D01*
X48160Y95447D01*
X48227Y95500D01*
X48296Y95549D01*
X48367Y95595D01*
X48440Y95638D01*
X48515Y95678D01*
X48591Y95714D01*
X48669Y95746D01*
X48749Y95775D01*
X48830Y95800D01*
X48912Y95821D01*
X48995Y95839D01*
X49079Y95852D01*
X49163Y95862D01*
X49247Y95868D01*
X49332Y95870D01*
X49417Y95868D01*
X49501Y95862D01*
X49585Y95852D01*
X49669Y95839D01*
X49752Y95821D01*
X49834Y95800D01*
X49915Y95775D01*
X49995Y95746D01*
X50073Y95714D01*
X50149Y95678D01*
X50224Y95638D01*
X50297Y95595D01*
X50368Y95549D01*
X50437Y95500D01*
X50504Y95447D01*
X50568Y95391D01*
X50629Y95333D01*
X50687Y95272D01*
X50743Y95208D01*
X50796Y95141D01*
X50845Y95072D01*
X50891Y95001D01*
X50934Y94928D01*
X50974Y94853D01*
X51010Y94777D01*
X51042Y94699D01*
X51071Y94619D01*
X51096Y94538D01*
X51117Y94456D01*
X51135Y94373D01*
X51148Y94289D01*
X51158Y94205D01*
X51164Y94121D01*
X51166Y94036D01*
X51167Y94036D02*
X51167Y92202D01*
X51167Y94403D02*
X54102Y95871D01*
X48966Y99438D02*
X47498Y101273D01*
X54102Y101273D01*
X54102Y103107D02*
X54102Y99438D01*
X80772Y94742D02*
X80772Y88138D01*
X80772Y94742D02*
X82606Y94742D01*
X82691Y94740D01*
X82775Y94734D01*
X82859Y94724D01*
X82943Y94711D01*
X83026Y94693D01*
X83108Y94672D01*
X83189Y94647D01*
X83269Y94618D01*
X83347Y94586D01*
X83423Y94550D01*
X83498Y94510D01*
X83571Y94467D01*
X83642Y94421D01*
X83711Y94372D01*
X83778Y94319D01*
X83842Y94263D01*
X83903Y94205D01*
X83961Y94144D01*
X84017Y94080D01*
X84070Y94013D01*
X84119Y93944D01*
X84165Y93873D01*
X84208Y93800D01*
X84248Y93725D01*
X84284Y93649D01*
X84316Y93571D01*
X84345Y93491D01*
X84370Y93410D01*
X84391Y93328D01*
X84409Y93245D01*
X84422Y93161D01*
X84432Y93077D01*
X84438Y92993D01*
X84440Y92908D01*
X84438Y92823D01*
X84432Y92739D01*
X84422Y92655D01*
X84409Y92571D01*
X84391Y92488D01*
X84370Y92406D01*
X84345Y92325D01*
X84316Y92245D01*
X84284Y92167D01*
X84248Y92091D01*
X84208Y92016D01*
X84165Y91943D01*
X84119Y91872D01*
X84070Y91803D01*
X84017Y91736D01*
X83961Y91672D01*
X83903Y91611D01*
X83842Y91553D01*
X83778Y91497D01*
X83711Y91444D01*
X83642Y91395D01*
X83571Y91349D01*
X83498Y91306D01*
X83423Y91266D01*
X83347Y91230D01*
X83269Y91198D01*
X83189Y91169D01*
X83108Y91144D01*
X83026Y91123D01*
X82943Y91105D01*
X82859Y91092D01*
X82775Y91082D01*
X82691Y91076D01*
X82606Y91074D01*
X82606Y91073D02*
X80772Y91073D01*
X82973Y91073D02*
X84441Y88138D01*
X88008Y93274D02*
X89843Y94742D01*
X89843Y88138D01*
X91677Y88138D02*
X88008Y88138D01*
X95324Y91440D02*
X95326Y91585D01*
X95332Y91730D01*
X95341Y91875D01*
X95355Y92020D01*
X95372Y92164D01*
X95394Y92307D01*
X95419Y92451D01*
X95448Y92593D01*
X95480Y92734D01*
X95517Y92875D01*
X95557Y93014D01*
X95601Y93153D01*
X95648Y93290D01*
X95699Y93426D01*
X95754Y93560D01*
X95812Y93693D01*
X95874Y93825D01*
X95873Y93825D02*
X95899Y93894D01*
X95928Y93961D01*
X95961Y94027D01*
X95997Y94090D01*
X96037Y94152D01*
X96080Y94211D01*
X96126Y94268D01*
X96175Y94322D01*
X96227Y94374D01*
X96282Y94423D01*
X96339Y94468D01*
X96399Y94511D01*
X96461Y94550D01*
X96524Y94586D01*
X96590Y94619D01*
X96657Y94647D01*
X96726Y94673D01*
X96796Y94694D01*
X96867Y94712D01*
X96939Y94725D01*
X97012Y94735D01*
X97085Y94741D01*
X97158Y94743D01*
X97158Y94742D02*
X97231Y94740D01*
X97304Y94734D01*
X97377Y94724D01*
X97449Y94711D01*
X97520Y94693D01*
X97590Y94672D01*
X97658Y94646D01*
X97726Y94618D01*
X97791Y94585D01*
X97855Y94549D01*
X97917Y94510D01*
X97976Y94468D01*
X98033Y94422D01*
X98088Y94373D01*
X98140Y94322D01*
X98189Y94267D01*
X98235Y94210D01*
X98278Y94151D01*
X98318Y94090D01*
X98354Y94026D01*
X98387Y93961D01*
X98416Y93894D01*
X98442Y93825D01*
X98504Y93693D01*
X98562Y93560D01*
X98617Y93426D01*
X98668Y93290D01*
X98715Y93153D01*
X98759Y93014D01*
X98799Y92875D01*
X98836Y92734D01*
X98868Y92593D01*
X98897Y92451D01*
X98922Y92308D01*
X98944Y92164D01*
X98961Y92020D01*
X98975Y91875D01*
X98984Y91730D01*
X98990Y91585D01*
X98992Y91440D01*
X95324Y91440D02*
X95326Y91295D01*
X95332Y91150D01*
X95341Y91005D01*
X95355Y90860D01*
X95372Y90716D01*
X95394Y90573D01*
X95419Y90430D01*
X95447Y90287D01*
X95480Y90146D01*
X95517Y90005D01*
X95557Y89866D01*
X95601Y89727D01*
X95648Y89590D01*
X95699Y89454D01*
X95754Y89320D01*
X95812Y89187D01*
X95874Y89055D01*
X95873Y89056D02*
X95899Y88987D01*
X95928Y88920D01*
X95961Y88854D01*
X95997Y88791D01*
X96037Y88729D01*
X96080Y88670D01*
X96126Y88613D01*
X96175Y88559D01*
X96227Y88507D01*
X96282Y88458D01*
X96339Y88413D01*
X96399Y88370D01*
X96461Y88331D01*
X96524Y88295D01*
X96590Y88262D01*
X96657Y88234D01*
X96726Y88208D01*
X96796Y88187D01*
X96867Y88169D01*
X96939Y88156D01*
X97012Y88146D01*
X97085Y88140D01*
X97158Y88138D01*
X98442Y89055D02*
X98504Y89187D01*
X98562Y89320D01*
X98617Y89454D01*
X98668Y89590D01*
X98715Y89727D01*
X98759Y89866D01*
X98799Y90005D01*
X98836Y90146D01*
X98868Y90287D01*
X98897Y90429D01*
X98922Y90572D01*
X98944Y90716D01*
X98961Y90860D01*
X98975Y91005D01*
X98984Y91150D01*
X98990Y91295D01*
X98992Y91440D01*
X98442Y89055D02*
X98416Y88986D01*
X98387Y88919D01*
X98354Y88854D01*
X98318Y88790D01*
X98278Y88729D01*
X98235Y88670D01*
X98189Y88613D01*
X98140Y88558D01*
X98088Y88507D01*
X98033Y88458D01*
X97976Y88412D01*
X97917Y88370D01*
X97855Y88331D01*
X97791Y88295D01*
X97726Y88262D01*
X97658Y88234D01*
X97590Y88208D01*
X97520Y88187D01*
X97448Y88169D01*
X97377Y88156D01*
X97304Y88146D01*
X97231Y88140D01*
X97158Y88138D01*
X95690Y89606D02*
X98626Y93274D01*
X243908Y168148D02*
X243908Y174752D01*
X245742Y174752D01*
X245827Y174750D01*
X245911Y174744D01*
X245995Y174734D01*
X246079Y174721D01*
X246162Y174703D01*
X246244Y174682D01*
X246325Y174657D01*
X246405Y174628D01*
X246483Y174596D01*
X246559Y174560D01*
X246634Y174520D01*
X246707Y174477D01*
X246778Y174431D01*
X246847Y174382D01*
X246914Y174329D01*
X246978Y174273D01*
X247039Y174215D01*
X247097Y174154D01*
X247153Y174090D01*
X247206Y174023D01*
X247255Y173954D01*
X247301Y173883D01*
X247344Y173810D01*
X247384Y173735D01*
X247420Y173659D01*
X247452Y173581D01*
X247481Y173501D01*
X247506Y173420D01*
X247527Y173338D01*
X247545Y173255D01*
X247558Y173171D01*
X247568Y173087D01*
X247574Y173003D01*
X247576Y172918D01*
X247574Y172833D01*
X247568Y172749D01*
X247558Y172665D01*
X247545Y172581D01*
X247527Y172498D01*
X247506Y172416D01*
X247481Y172335D01*
X247452Y172255D01*
X247420Y172177D01*
X247384Y172101D01*
X247344Y172026D01*
X247301Y171953D01*
X247255Y171882D01*
X247206Y171813D01*
X247153Y171746D01*
X247097Y171682D01*
X247039Y171621D01*
X246978Y171563D01*
X246914Y171507D01*
X246847Y171454D01*
X246778Y171405D01*
X246707Y171359D01*
X246634Y171316D01*
X246559Y171276D01*
X246483Y171240D01*
X246405Y171208D01*
X246325Y171179D01*
X246244Y171154D01*
X246162Y171133D01*
X246079Y171115D01*
X245995Y171102D01*
X245911Y171092D01*
X245827Y171086D01*
X245742Y171084D01*
X245742Y171083D02*
X243908Y171083D01*
X246109Y171083D02*
X247576Y168148D01*
X251144Y173284D02*
X252978Y174752D01*
X252978Y168148D01*
X251144Y168148D02*
X254813Y168148D01*
X258459Y174018D02*
X258459Y174752D01*
X262128Y174752D01*
X260294Y168148D01*
X248412Y60452D02*
X248412Y53848D01*
X248412Y60452D02*
X250246Y60452D01*
X250331Y60450D01*
X250415Y60444D01*
X250499Y60434D01*
X250583Y60421D01*
X250666Y60403D01*
X250748Y60382D01*
X250829Y60357D01*
X250909Y60328D01*
X250987Y60296D01*
X251063Y60260D01*
X251138Y60220D01*
X251211Y60177D01*
X251282Y60131D01*
X251351Y60082D01*
X251418Y60029D01*
X251482Y59973D01*
X251543Y59915D01*
X251601Y59854D01*
X251657Y59790D01*
X251710Y59723D01*
X251759Y59654D01*
X251805Y59583D01*
X251848Y59510D01*
X251888Y59435D01*
X251924Y59359D01*
X251956Y59281D01*
X251985Y59201D01*
X252010Y59120D01*
X252031Y59038D01*
X252049Y58955D01*
X252062Y58871D01*
X252072Y58787D01*
X252078Y58703D01*
X252080Y58618D01*
X252078Y58533D01*
X252072Y58449D01*
X252062Y58365D01*
X252049Y58281D01*
X252031Y58198D01*
X252010Y58116D01*
X251985Y58035D01*
X251956Y57955D01*
X251924Y57877D01*
X251888Y57801D01*
X251848Y57726D01*
X251805Y57653D01*
X251759Y57582D01*
X251710Y57513D01*
X251657Y57446D01*
X251601Y57382D01*
X251543Y57321D01*
X251482Y57263D01*
X251418Y57207D01*
X251351Y57154D01*
X251282Y57105D01*
X251211Y57059D01*
X251138Y57016D01*
X251063Y56976D01*
X250987Y56940D01*
X250909Y56908D01*
X250829Y56879D01*
X250748Y56854D01*
X250666Y56833D01*
X250583Y56815D01*
X250499Y56802D01*
X250415Y56792D01*
X250331Y56786D01*
X250246Y56784D01*
X250246Y56783D02*
X248412Y56783D01*
X250613Y56783D02*
X252081Y53848D01*
X255648Y58984D02*
X257483Y60452D01*
X257483Y53848D01*
X259317Y53848D02*
X255648Y53848D01*
X262964Y58984D02*
X264798Y60452D01*
X264798Y53848D01*
X262964Y53848D02*
X266632Y53848D01*
D13*
X104200Y45950D03*
X111700Y45950D03*
D14*
X107950Y45950D03*
D12*
X100640Y34911D02*
X100714Y34909D01*
X100789Y34903D01*
X100862Y34894D01*
X100936Y34881D01*
X101008Y34864D01*
X101079Y34844D01*
X101150Y34820D01*
X101219Y34792D01*
X101287Y34761D01*
X101352Y34727D01*
X101417Y34689D01*
X101479Y34648D01*
X101539Y34604D01*
X101596Y34557D01*
X101651Y34507D01*
X101704Y34454D01*
X101754Y34399D01*
X101801Y34342D01*
X101845Y34282D01*
X101886Y34220D01*
X101924Y34155D01*
X101958Y34089D01*
X101989Y34022D01*
X102017Y33953D01*
X102041Y33882D01*
X102061Y33811D01*
X102078Y33738D01*
X102091Y33665D01*
X102100Y33591D01*
X102106Y33517D01*
X102108Y33443D01*
X102106Y33332D01*
X102100Y33221D01*
X102090Y33110D01*
X102076Y32999D01*
X102058Y32890D01*
X102036Y32781D01*
X102011Y32672D01*
X101981Y32565D01*
X101948Y32459D01*
X101910Y32354D01*
X101870Y32251D01*
X101825Y32149D01*
X101777Y32049D01*
X101725Y31950D01*
X101670Y31854D01*
X101611Y31759D01*
X101549Y31667D01*
X101483Y31577D01*
X101415Y31489D01*
X101343Y31404D01*
X101268Y31322D01*
X101191Y31242D01*
X96972Y31425D02*
X96898Y31427D01*
X96823Y31433D01*
X96750Y31442D01*
X96676Y31455D01*
X96604Y31472D01*
X96533Y31492D01*
X96462Y31516D01*
X96393Y31544D01*
X96326Y31575D01*
X96260Y31609D01*
X96195Y31647D01*
X96133Y31688D01*
X96073Y31732D01*
X96016Y31779D01*
X95961Y31829D01*
X95908Y31882D01*
X95858Y31937D01*
X95811Y31994D01*
X95767Y32054D01*
X95726Y32116D01*
X95688Y32181D01*
X95654Y32247D01*
X95623Y32314D01*
X95595Y32383D01*
X95571Y32454D01*
X95551Y32525D01*
X95534Y32597D01*
X95521Y32671D01*
X95512Y32744D01*
X95506Y32819D01*
X95504Y32893D01*
X95506Y32997D01*
X95512Y33101D01*
X95522Y33205D01*
X95535Y33308D01*
X95553Y33411D01*
X95575Y33513D01*
X95600Y33614D01*
X95629Y33714D01*
X95662Y33813D01*
X95699Y33910D01*
X95739Y34006D01*
X95783Y34101D01*
X95831Y34193D01*
X95881Y34284D01*
X95936Y34373D01*
X95994Y34460D01*
X96054Y34544D01*
X98257Y32159D02*
X98218Y32096D01*
X98176Y32036D01*
X98131Y31978D01*
X98083Y31921D01*
X98032Y31868D01*
X97979Y31817D01*
X97924Y31768D01*
X97866Y31723D01*
X97806Y31680D01*
X97744Y31640D01*
X97680Y31604D01*
X97614Y31570D01*
X97546Y31540D01*
X97478Y31513D01*
X97408Y31490D01*
X97337Y31470D01*
X97265Y31454D01*
X97192Y31441D01*
X97119Y31432D01*
X97046Y31427D01*
X96972Y31425D01*
X99355Y34177D02*
X99394Y34240D01*
X99436Y34300D01*
X99481Y34359D01*
X99529Y34415D01*
X99580Y34468D01*
X99633Y34519D01*
X99688Y34568D01*
X99746Y34613D01*
X99806Y34656D01*
X99868Y34696D01*
X99932Y34732D01*
X99998Y34766D01*
X100066Y34796D01*
X100134Y34823D01*
X100204Y34846D01*
X100275Y34866D01*
X100347Y34882D01*
X100420Y34895D01*
X100493Y34904D01*
X100566Y34909D01*
X100640Y34911D01*
X99356Y34177D02*
X98256Y32159D01*
X95504Y39660D02*
X102108Y39660D01*
X95504Y37826D02*
X95504Y41495D01*
X95504Y46488D02*
X102108Y44286D01*
X102108Y48689D02*
X95504Y46488D01*
X100457Y48139D02*
X100457Y44837D01*
X102108Y53315D02*
X95504Y53315D01*
X95504Y51481D02*
X95504Y55150D01*
X96972Y58308D02*
X95504Y60143D01*
X102108Y60143D01*
X102108Y61977D02*
X102108Y58308D01*
D13*
X123250Y45950D03*
X130750Y45950D03*
D14*
X127000Y45950D03*
D12*
X119690Y34911D02*
X119764Y34909D01*
X119839Y34903D01*
X119912Y34894D01*
X119986Y34881D01*
X120058Y34864D01*
X120129Y34844D01*
X120200Y34820D01*
X120269Y34792D01*
X120337Y34761D01*
X120402Y34727D01*
X120467Y34689D01*
X120529Y34648D01*
X120589Y34604D01*
X120646Y34557D01*
X120701Y34507D01*
X120754Y34454D01*
X120804Y34399D01*
X120851Y34342D01*
X120895Y34282D01*
X120936Y34220D01*
X120974Y34155D01*
X121008Y34089D01*
X121039Y34022D01*
X121067Y33953D01*
X121091Y33882D01*
X121111Y33811D01*
X121128Y33738D01*
X121141Y33665D01*
X121150Y33591D01*
X121156Y33517D01*
X121158Y33443D01*
X121156Y33332D01*
X121150Y33221D01*
X121140Y33110D01*
X121126Y32999D01*
X121108Y32890D01*
X121086Y32781D01*
X121061Y32672D01*
X121031Y32565D01*
X120998Y32459D01*
X120960Y32354D01*
X120920Y32251D01*
X120875Y32149D01*
X120827Y32049D01*
X120775Y31950D01*
X120720Y31854D01*
X120661Y31759D01*
X120599Y31667D01*
X120533Y31577D01*
X120465Y31489D01*
X120393Y31404D01*
X120318Y31322D01*
X120241Y31242D01*
X116022Y31425D02*
X115948Y31427D01*
X115873Y31433D01*
X115800Y31442D01*
X115726Y31455D01*
X115654Y31472D01*
X115583Y31492D01*
X115512Y31516D01*
X115443Y31544D01*
X115376Y31575D01*
X115310Y31609D01*
X115245Y31647D01*
X115183Y31688D01*
X115123Y31732D01*
X115066Y31779D01*
X115011Y31829D01*
X114958Y31882D01*
X114908Y31937D01*
X114861Y31994D01*
X114817Y32054D01*
X114776Y32116D01*
X114738Y32181D01*
X114704Y32247D01*
X114673Y32314D01*
X114645Y32383D01*
X114621Y32454D01*
X114601Y32525D01*
X114584Y32597D01*
X114571Y32671D01*
X114562Y32744D01*
X114556Y32819D01*
X114554Y32893D01*
X114556Y32997D01*
X114562Y33101D01*
X114572Y33205D01*
X114585Y33308D01*
X114603Y33411D01*
X114625Y33513D01*
X114650Y33614D01*
X114679Y33714D01*
X114712Y33813D01*
X114749Y33910D01*
X114789Y34006D01*
X114833Y34101D01*
X114881Y34193D01*
X114931Y34284D01*
X114986Y34373D01*
X115044Y34460D01*
X115104Y34544D01*
X117307Y32159D02*
X117268Y32096D01*
X117226Y32036D01*
X117181Y31978D01*
X117133Y31921D01*
X117082Y31868D01*
X117029Y31817D01*
X116974Y31768D01*
X116916Y31723D01*
X116856Y31680D01*
X116794Y31640D01*
X116730Y31604D01*
X116664Y31570D01*
X116596Y31540D01*
X116528Y31513D01*
X116458Y31490D01*
X116387Y31470D01*
X116315Y31454D01*
X116242Y31441D01*
X116169Y31432D01*
X116096Y31427D01*
X116022Y31425D01*
X118405Y34177D02*
X118444Y34240D01*
X118486Y34300D01*
X118531Y34359D01*
X118579Y34415D01*
X118630Y34468D01*
X118683Y34519D01*
X118738Y34568D01*
X118796Y34613D01*
X118856Y34656D01*
X118918Y34696D01*
X118982Y34732D01*
X119048Y34766D01*
X119116Y34796D01*
X119184Y34823D01*
X119254Y34846D01*
X119325Y34866D01*
X119397Y34882D01*
X119470Y34895D01*
X119543Y34904D01*
X119616Y34909D01*
X119690Y34911D01*
X118406Y34177D02*
X117306Y32159D01*
X114554Y39660D02*
X121158Y39660D01*
X114554Y37826D02*
X114554Y41495D01*
X114554Y46488D02*
X121158Y44286D01*
X121158Y48689D02*
X114554Y46488D01*
X119507Y48139D02*
X119507Y44837D01*
X121158Y53315D02*
X114554Y53315D01*
X114554Y51481D02*
X114554Y55150D01*
X114554Y60326D02*
X114556Y60405D01*
X114561Y60483D01*
X114571Y60561D01*
X114584Y60638D01*
X114601Y60715D01*
X114621Y60791D01*
X114645Y60866D01*
X114672Y60940D01*
X114703Y61012D01*
X114738Y61083D01*
X114775Y61152D01*
X114816Y61219D01*
X114860Y61284D01*
X114907Y61347D01*
X114957Y61407D01*
X115010Y61465D01*
X115066Y61521D01*
X115124Y61574D01*
X115184Y61624D01*
X115247Y61671D01*
X115312Y61715D01*
X115380Y61756D01*
X115448Y61793D01*
X115519Y61828D01*
X115591Y61859D01*
X115665Y61886D01*
X115740Y61910D01*
X115816Y61930D01*
X115893Y61947D01*
X115970Y61960D01*
X116048Y61970D01*
X116126Y61975D01*
X116205Y61977D01*
X114554Y60326D02*
X114556Y60237D01*
X114561Y60148D01*
X114571Y60060D01*
X114584Y59972D01*
X114600Y59885D01*
X114621Y59798D01*
X114645Y59713D01*
X114672Y59628D01*
X114703Y59545D01*
X114738Y59463D01*
X114776Y59382D01*
X114817Y59303D01*
X114861Y59227D01*
X114909Y59151D01*
X114960Y59078D01*
X115013Y59008D01*
X115070Y58939D01*
X115130Y58873D01*
X115192Y58810D01*
X115257Y58749D01*
X115324Y58691D01*
X115394Y58636D01*
X115466Y58583D01*
X115540Y58534D01*
X115616Y58488D01*
X115694Y58446D01*
X115774Y58406D01*
X115855Y58370D01*
X115938Y58337D01*
X116022Y58308D01*
X117489Y61427D02*
X117433Y61483D01*
X117374Y61537D01*
X117313Y61588D01*
X117249Y61637D01*
X117184Y61682D01*
X117116Y61725D01*
X117047Y61764D01*
X116976Y61801D01*
X116903Y61834D01*
X116829Y61863D01*
X116754Y61890D01*
X116678Y61913D01*
X116600Y61932D01*
X116522Y61948D01*
X116444Y61961D01*
X116364Y61970D01*
X116285Y61975D01*
X116205Y61977D01*
X117489Y61427D02*
X121158Y58308D01*
X121158Y61977D01*
D15*
X319000Y124400D03*
X319000Y116900D03*
D14*
X319000Y120650D03*
D12*
X297236Y133971D02*
X295402Y133971D01*
X297236Y133970D02*
X297321Y133968D01*
X297405Y133962D01*
X297489Y133952D01*
X297573Y133939D01*
X297656Y133921D01*
X297738Y133900D01*
X297819Y133875D01*
X297899Y133846D01*
X297977Y133814D01*
X298053Y133778D01*
X298128Y133738D01*
X298201Y133695D01*
X298272Y133649D01*
X298341Y133600D01*
X298408Y133547D01*
X298472Y133491D01*
X298533Y133433D01*
X298591Y133372D01*
X298647Y133308D01*
X298700Y133241D01*
X298749Y133172D01*
X298795Y133101D01*
X298838Y133028D01*
X298878Y132953D01*
X298914Y132877D01*
X298946Y132799D01*
X298975Y132719D01*
X299000Y132638D01*
X299021Y132556D01*
X299039Y132473D01*
X299052Y132389D01*
X299062Y132305D01*
X299068Y132221D01*
X299070Y132136D01*
X299068Y132051D01*
X299062Y131967D01*
X299052Y131883D01*
X299039Y131799D01*
X299021Y131716D01*
X299000Y131634D01*
X298975Y131553D01*
X298946Y131473D01*
X298914Y131395D01*
X298878Y131319D01*
X298838Y131244D01*
X298795Y131171D01*
X298749Y131100D01*
X298700Y131031D01*
X298647Y130964D01*
X298591Y130900D01*
X298533Y130839D01*
X298472Y130781D01*
X298408Y130725D01*
X298341Y130672D01*
X298272Y130623D01*
X298201Y130577D01*
X298128Y130534D01*
X298053Y130494D01*
X297977Y130458D01*
X297899Y130426D01*
X297819Y130397D01*
X297738Y130372D01*
X297656Y130351D01*
X297573Y130333D01*
X297489Y130320D01*
X297405Y130310D01*
X297321Y130304D01*
X297236Y130302D01*
X295402Y130302D01*
X295402Y136906D01*
X297236Y136906D01*
X297312Y136904D01*
X297387Y136898D01*
X297462Y136889D01*
X297536Y136875D01*
X297610Y136858D01*
X297682Y136836D01*
X297754Y136812D01*
X297824Y136783D01*
X297892Y136751D01*
X297959Y136716D01*
X298024Y136677D01*
X298087Y136634D01*
X298147Y136589D01*
X298205Y136541D01*
X298261Y136489D01*
X298313Y136435D01*
X298363Y136378D01*
X298410Y136319D01*
X298454Y136258D01*
X298495Y136194D01*
X298532Y136128D01*
X298566Y136060D01*
X298596Y135991D01*
X298623Y135920D01*
X298646Y135848D01*
X298665Y135775D01*
X298680Y135701D01*
X298692Y135626D01*
X298700Y135551D01*
X298704Y135476D01*
X298704Y135400D01*
X298700Y135325D01*
X298692Y135250D01*
X298680Y135175D01*
X298665Y135101D01*
X298646Y135028D01*
X298623Y134956D01*
X298596Y134885D01*
X298566Y134816D01*
X298532Y134748D01*
X298495Y134682D01*
X298454Y134618D01*
X298410Y134557D01*
X298363Y134498D01*
X298313Y134441D01*
X298261Y134387D01*
X298205Y134335D01*
X298147Y134287D01*
X298087Y134242D01*
X298024Y134199D01*
X297959Y134160D01*
X297892Y134125D01*
X297824Y134093D01*
X297754Y134064D01*
X297682Y134040D01*
X297610Y134018D01*
X297536Y134001D01*
X297462Y133987D01*
X297387Y133978D01*
X297312Y133972D01*
X297236Y133970D01*
X301925Y130302D02*
X304127Y136906D01*
X306328Y130302D01*
X305778Y131953D02*
X302476Y131953D01*
X310954Y130302D02*
X310954Y136906D01*
X309120Y136906D02*
X312789Y136906D01*
X315583Y129568D02*
X318518Y129568D01*
X322067Y130302D02*
X322067Y136906D01*
X322067Y130302D02*
X325002Y130302D01*
X328407Y130302D02*
X331342Y130302D01*
X328407Y130302D02*
X328407Y136906D01*
X331342Y136906D01*
X330608Y133971D02*
X328407Y133971D01*
X334723Y136906D02*
X334723Y130302D01*
X334723Y136906D02*
X336557Y136906D01*
X336642Y136904D01*
X336726Y136898D01*
X336810Y136888D01*
X336894Y136875D01*
X336977Y136857D01*
X337059Y136836D01*
X337140Y136811D01*
X337220Y136782D01*
X337298Y136750D01*
X337374Y136714D01*
X337449Y136674D01*
X337522Y136631D01*
X337593Y136585D01*
X337662Y136536D01*
X337729Y136483D01*
X337793Y136427D01*
X337854Y136369D01*
X337912Y136308D01*
X337968Y136244D01*
X338021Y136177D01*
X338070Y136108D01*
X338116Y136037D01*
X338159Y135964D01*
X338199Y135889D01*
X338235Y135813D01*
X338267Y135735D01*
X338296Y135655D01*
X338321Y135574D01*
X338342Y135492D01*
X338360Y135409D01*
X338373Y135325D01*
X338383Y135241D01*
X338389Y135157D01*
X338391Y135072D01*
X338392Y135072D02*
X338392Y132136D01*
X338391Y132136D02*
X338389Y132051D01*
X338383Y131967D01*
X338373Y131883D01*
X338360Y131799D01*
X338342Y131716D01*
X338321Y131634D01*
X338296Y131553D01*
X338267Y131473D01*
X338235Y131395D01*
X338199Y131319D01*
X338159Y131244D01*
X338116Y131171D01*
X338070Y131100D01*
X338021Y131031D01*
X337968Y130964D01*
X337912Y130900D01*
X337854Y130839D01*
X337793Y130781D01*
X337729Y130725D01*
X337662Y130672D01*
X337593Y130623D01*
X337522Y130577D01*
X337449Y130534D01*
X337374Y130494D01*
X337298Y130458D01*
X337220Y130426D01*
X337140Y130397D01*
X337059Y130372D01*
X336977Y130351D01*
X336894Y130333D01*
X336810Y130320D01*
X336726Y130310D01*
X336642Y130304D01*
X336557Y130302D01*
X334723Y130302D01*
D13*
X35500Y42950D03*
X28000Y42950D03*
D14*
X31750Y42950D03*
D12*
X9416Y28448D02*
X9416Y21844D01*
X9416Y28448D02*
X11250Y28448D01*
X11335Y28446D01*
X11419Y28440D01*
X11503Y28430D01*
X11587Y28417D01*
X11670Y28399D01*
X11752Y28378D01*
X11833Y28353D01*
X11913Y28324D01*
X11991Y28292D01*
X12067Y28256D01*
X12142Y28216D01*
X12215Y28173D01*
X12286Y28127D01*
X12355Y28078D01*
X12422Y28025D01*
X12486Y27969D01*
X12547Y27911D01*
X12605Y27850D01*
X12661Y27786D01*
X12714Y27719D01*
X12763Y27650D01*
X12809Y27579D01*
X12852Y27506D01*
X12892Y27431D01*
X12928Y27355D01*
X12960Y27277D01*
X12989Y27197D01*
X13014Y27116D01*
X13035Y27034D01*
X13053Y26951D01*
X13066Y26867D01*
X13076Y26783D01*
X13082Y26699D01*
X13084Y26614D01*
X13082Y26529D01*
X13076Y26445D01*
X13066Y26361D01*
X13053Y26277D01*
X13035Y26194D01*
X13014Y26112D01*
X12989Y26031D01*
X12960Y25951D01*
X12928Y25873D01*
X12892Y25797D01*
X12852Y25722D01*
X12809Y25649D01*
X12763Y25578D01*
X12714Y25509D01*
X12661Y25442D01*
X12605Y25378D01*
X12547Y25317D01*
X12486Y25259D01*
X12422Y25203D01*
X12355Y25150D01*
X12286Y25101D01*
X12215Y25055D01*
X12142Y25012D01*
X12067Y24972D01*
X11991Y24936D01*
X11913Y24904D01*
X11833Y24875D01*
X11752Y24850D01*
X11670Y24829D01*
X11587Y24811D01*
X11503Y24798D01*
X11419Y24788D01*
X11335Y24782D01*
X11250Y24780D01*
X11250Y24779D02*
X9416Y24779D01*
X15939Y21844D02*
X18140Y28448D01*
X20342Y21844D01*
X19791Y23495D02*
X16489Y23495D01*
X23865Y21844D02*
X23865Y28448D01*
X27534Y21844D01*
X27534Y28448D01*
X31692Y21844D02*
X34627Y21844D01*
X31692Y21844D02*
X31692Y28448D01*
X34627Y28448D01*
X33893Y25513D02*
X31692Y25513D01*
X38032Y28448D02*
X38032Y21844D01*
X40967Y21844D01*
X43739Y21110D02*
X46674Y21110D01*
X50224Y21844D02*
X50224Y28448D01*
X50224Y21844D02*
X53159Y21844D01*
X56563Y21844D02*
X59499Y21844D01*
X56563Y21844D02*
X56563Y28448D01*
X59499Y28448D01*
X58765Y25513D02*
X56563Y25513D01*
X62879Y28448D02*
X62879Y21844D01*
X62879Y28448D02*
X64714Y28448D01*
X64799Y28446D01*
X64883Y28440D01*
X64967Y28430D01*
X65051Y28417D01*
X65134Y28399D01*
X65216Y28378D01*
X65297Y28353D01*
X65377Y28324D01*
X65455Y28292D01*
X65531Y28256D01*
X65606Y28216D01*
X65679Y28173D01*
X65750Y28127D01*
X65819Y28078D01*
X65886Y28025D01*
X65950Y27969D01*
X66011Y27911D01*
X66069Y27850D01*
X66125Y27786D01*
X66178Y27719D01*
X66227Y27650D01*
X66273Y27579D01*
X66316Y27506D01*
X66356Y27431D01*
X66392Y27355D01*
X66424Y27277D01*
X66453Y27197D01*
X66478Y27116D01*
X66499Y27034D01*
X66517Y26951D01*
X66530Y26867D01*
X66540Y26783D01*
X66546Y26699D01*
X66548Y26614D01*
X66548Y23678D01*
X66546Y23593D01*
X66540Y23509D01*
X66530Y23425D01*
X66517Y23341D01*
X66499Y23258D01*
X66478Y23176D01*
X66453Y23095D01*
X66424Y23015D01*
X66392Y22937D01*
X66356Y22861D01*
X66316Y22786D01*
X66273Y22713D01*
X66227Y22642D01*
X66178Y22573D01*
X66125Y22506D01*
X66069Y22442D01*
X66011Y22381D01*
X65950Y22323D01*
X65886Y22267D01*
X65819Y22214D01*
X65750Y22165D01*
X65679Y22119D01*
X65606Y22076D01*
X65531Y22036D01*
X65455Y22000D01*
X65377Y21968D01*
X65297Y21939D01*
X65216Y21914D01*
X65134Y21893D01*
X65051Y21875D01*
X64967Y21862D01*
X64883Y21852D01*
X64799Y21846D01*
X64714Y21844D01*
X62879Y21844D01*
X309372Y154178D02*
X309372Y160782D01*
X311206Y160782D01*
X311291Y160780D01*
X311375Y160774D01*
X311459Y160764D01*
X311543Y160751D01*
X311626Y160733D01*
X311708Y160712D01*
X311789Y160687D01*
X311869Y160658D01*
X311947Y160626D01*
X312023Y160590D01*
X312098Y160550D01*
X312171Y160507D01*
X312242Y160461D01*
X312311Y160412D01*
X312378Y160359D01*
X312442Y160303D01*
X312503Y160245D01*
X312561Y160184D01*
X312617Y160120D01*
X312670Y160053D01*
X312719Y159984D01*
X312765Y159913D01*
X312808Y159840D01*
X312848Y159765D01*
X312884Y159689D01*
X312916Y159611D01*
X312945Y159531D01*
X312970Y159450D01*
X312991Y159368D01*
X313009Y159285D01*
X313022Y159201D01*
X313032Y159117D01*
X313038Y159033D01*
X313040Y158948D01*
X313038Y158863D01*
X313032Y158779D01*
X313022Y158695D01*
X313009Y158611D01*
X312991Y158528D01*
X312970Y158446D01*
X312945Y158365D01*
X312916Y158285D01*
X312884Y158207D01*
X312848Y158131D01*
X312808Y158056D01*
X312765Y157983D01*
X312719Y157912D01*
X312670Y157843D01*
X312617Y157776D01*
X312561Y157712D01*
X312503Y157651D01*
X312442Y157593D01*
X312378Y157537D01*
X312311Y157484D01*
X312242Y157435D01*
X312171Y157389D01*
X312098Y157346D01*
X312023Y157306D01*
X311947Y157270D01*
X311869Y157238D01*
X311789Y157209D01*
X311708Y157184D01*
X311626Y157163D01*
X311543Y157145D01*
X311459Y157132D01*
X311375Y157122D01*
X311291Y157116D01*
X311206Y157114D01*
X311206Y157113D02*
X309372Y157113D01*
X311573Y157113D02*
X313041Y154178D01*
X316608Y159314D02*
X318443Y160782D01*
X318443Y154178D01*
X320277Y154178D02*
X316608Y154178D01*
X323924Y155646D02*
X325391Y160782D01*
X323924Y155646D02*
X327592Y155646D01*
X326492Y157113D02*
X326492Y154178D01*
X16002Y60452D02*
X9398Y60452D01*
X9398Y62286D01*
X9400Y62371D01*
X9406Y62455D01*
X9416Y62539D01*
X9429Y62623D01*
X9447Y62706D01*
X9468Y62788D01*
X9493Y62869D01*
X9522Y62949D01*
X9554Y63027D01*
X9590Y63103D01*
X9630Y63178D01*
X9673Y63251D01*
X9719Y63322D01*
X9768Y63391D01*
X9821Y63458D01*
X9877Y63522D01*
X9935Y63583D01*
X9996Y63641D01*
X10060Y63697D01*
X10127Y63750D01*
X10196Y63799D01*
X10267Y63845D01*
X10340Y63888D01*
X10415Y63928D01*
X10491Y63964D01*
X10569Y63996D01*
X10649Y64025D01*
X10730Y64050D01*
X10812Y64071D01*
X10895Y64089D01*
X10979Y64102D01*
X11063Y64112D01*
X11147Y64118D01*
X11232Y64120D01*
X11317Y64118D01*
X11401Y64112D01*
X11485Y64102D01*
X11569Y64089D01*
X11652Y64071D01*
X11734Y64050D01*
X11815Y64025D01*
X11895Y63996D01*
X11973Y63964D01*
X12049Y63928D01*
X12124Y63888D01*
X12197Y63845D01*
X12268Y63799D01*
X12337Y63750D01*
X12404Y63697D01*
X12468Y63641D01*
X12529Y63583D01*
X12587Y63522D01*
X12643Y63458D01*
X12696Y63391D01*
X12745Y63322D01*
X12791Y63251D01*
X12834Y63178D01*
X12874Y63103D01*
X12910Y63027D01*
X12942Y62949D01*
X12971Y62869D01*
X12996Y62788D01*
X13017Y62706D01*
X13035Y62623D01*
X13048Y62539D01*
X13058Y62455D01*
X13064Y62371D01*
X13066Y62286D01*
X13067Y62286D02*
X13067Y60452D01*
X13067Y62653D02*
X16002Y64121D01*
X10866Y67688D02*
X9398Y69523D01*
X16002Y69523D01*
X16002Y71357D02*
X16002Y67688D01*
X16002Y75004D02*
X16002Y77205D01*
X16000Y77279D01*
X15994Y77354D01*
X15985Y77427D01*
X15972Y77500D01*
X15955Y77573D01*
X15935Y77644D01*
X15911Y77715D01*
X15883Y77784D01*
X15852Y77851D01*
X15818Y77917D01*
X15780Y77982D01*
X15739Y78044D01*
X15695Y78104D01*
X15648Y78161D01*
X15598Y78216D01*
X15545Y78269D01*
X15490Y78319D01*
X15433Y78366D01*
X15373Y78410D01*
X15311Y78451D01*
X15246Y78489D01*
X15181Y78523D01*
X15113Y78554D01*
X15044Y78582D01*
X14974Y78606D01*
X14902Y78626D01*
X14830Y78643D01*
X14756Y78656D01*
X14683Y78665D01*
X14608Y78671D01*
X14534Y78673D01*
X14534Y78672D02*
X13801Y78672D01*
X13801Y78673D02*
X13727Y78671D01*
X13652Y78665D01*
X13579Y78656D01*
X13505Y78643D01*
X13433Y78626D01*
X13362Y78606D01*
X13291Y78582D01*
X13222Y78554D01*
X13155Y78523D01*
X13089Y78489D01*
X13024Y78451D01*
X12962Y78410D01*
X12902Y78366D01*
X12845Y78319D01*
X12790Y78269D01*
X12737Y78216D01*
X12687Y78161D01*
X12640Y78104D01*
X12596Y78044D01*
X12555Y77982D01*
X12517Y77917D01*
X12483Y77851D01*
X12452Y77784D01*
X12424Y77715D01*
X12400Y77644D01*
X12380Y77573D01*
X12363Y77501D01*
X12350Y77427D01*
X12341Y77354D01*
X12335Y77279D01*
X12333Y77205D01*
X12333Y75004D01*
X9398Y75004D01*
X9398Y78672D01*
D16*
X145003Y154940D02*
X145005Y155004D01*
X145011Y155069D01*
X145021Y155132D01*
X145035Y155195D01*
X145052Y155257D01*
X145074Y155318D01*
X145099Y155378D01*
X145128Y155435D01*
X145160Y155491D01*
X145195Y155545D01*
X145234Y155596D01*
X145276Y155645D01*
X145321Y155692D01*
X145369Y155735D01*
X145419Y155776D01*
X145472Y155813D01*
X145526Y155847D01*
X145583Y155877D01*
X145642Y155904D01*
X145702Y155927D01*
X145763Y155947D01*
X145826Y155963D01*
X145889Y155975D01*
X145953Y155983D01*
X146018Y155987D01*
X146082Y155987D01*
X146147Y155983D01*
X146211Y155975D01*
X146274Y155963D01*
X146337Y155947D01*
X146398Y155927D01*
X146458Y155904D01*
X146517Y155877D01*
X146573Y155847D01*
X146628Y155813D01*
X146681Y155776D01*
X146731Y155735D01*
X146779Y155692D01*
X146824Y155645D01*
X146866Y155596D01*
X146905Y155545D01*
X146940Y155491D01*
X146972Y155435D01*
X147001Y155378D01*
X147026Y155318D01*
X147048Y155257D01*
X147065Y155195D01*
X147079Y155132D01*
X147089Y155069D01*
X147095Y155004D01*
X147097Y154940D01*
X147095Y154876D01*
X147089Y154811D01*
X147079Y154748D01*
X147065Y154685D01*
X147048Y154623D01*
X147026Y154562D01*
X147001Y154502D01*
X146972Y154445D01*
X146940Y154389D01*
X146905Y154335D01*
X146866Y154284D01*
X146824Y154235D01*
X146779Y154188D01*
X146731Y154145D01*
X146681Y154104D01*
X146628Y154067D01*
X146574Y154033D01*
X146517Y154003D01*
X146458Y153976D01*
X146398Y153953D01*
X146337Y153933D01*
X146274Y153917D01*
X146211Y153905D01*
X146147Y153897D01*
X146082Y153893D01*
X146018Y153893D01*
X145953Y153897D01*
X145889Y153905D01*
X145826Y153917D01*
X145763Y153933D01*
X145702Y153953D01*
X145642Y153976D01*
X145583Y154003D01*
X145526Y154033D01*
X145472Y154067D01*
X145419Y154104D01*
X145369Y154145D01*
X145321Y154188D01*
X145276Y154235D01*
X145234Y154284D01*
X145195Y154335D01*
X145160Y154389D01*
X145128Y154445D01*
X145099Y154502D01*
X145074Y154562D01*
X145052Y154623D01*
X145035Y154685D01*
X145021Y154748D01*
X145011Y154811D01*
X145005Y154876D01*
X145003Y154940D01*
D17*
X153670Y187960D02*
X184150Y187960D01*
D12*
X138948Y168402D02*
X138948Y161798D01*
X137114Y168402D02*
X140783Y168402D01*
X147367Y163266D02*
X147365Y163192D01*
X147359Y163117D01*
X147350Y163044D01*
X147337Y162970D01*
X147320Y162898D01*
X147300Y162827D01*
X147276Y162756D01*
X147248Y162687D01*
X147217Y162619D01*
X147183Y162554D01*
X147145Y162489D01*
X147104Y162427D01*
X147060Y162367D01*
X147013Y162310D01*
X146963Y162255D01*
X146910Y162202D01*
X146855Y162152D01*
X146798Y162105D01*
X146738Y162061D01*
X146676Y162020D01*
X146611Y161982D01*
X146545Y161948D01*
X146478Y161917D01*
X146409Y161889D01*
X146338Y161865D01*
X146267Y161845D01*
X146194Y161828D01*
X146121Y161815D01*
X146047Y161806D01*
X145973Y161800D01*
X145899Y161798D01*
X145788Y161800D01*
X145677Y161806D01*
X145566Y161816D01*
X145455Y161830D01*
X145346Y161848D01*
X145237Y161870D01*
X145128Y161895D01*
X145021Y161925D01*
X144915Y161958D01*
X144810Y161996D01*
X144707Y162036D01*
X144605Y162081D01*
X144505Y162129D01*
X144406Y162181D01*
X144310Y162236D01*
X144215Y162295D01*
X144123Y162357D01*
X144033Y162423D01*
X143945Y162491D01*
X143860Y162563D01*
X143778Y162638D01*
X143698Y162715D01*
X143880Y166934D02*
X143882Y167008D01*
X143888Y167083D01*
X143897Y167156D01*
X143910Y167230D01*
X143927Y167302D01*
X143947Y167373D01*
X143971Y167444D01*
X143999Y167513D01*
X144030Y167580D01*
X144064Y167646D01*
X144102Y167711D01*
X144143Y167773D01*
X144187Y167833D01*
X144234Y167890D01*
X144284Y167945D01*
X144337Y167998D01*
X144392Y168048D01*
X144449Y168095D01*
X144509Y168139D01*
X144571Y168180D01*
X144636Y168218D01*
X144702Y168252D01*
X144769Y168283D01*
X144838Y168311D01*
X144909Y168335D01*
X144980Y168355D01*
X145052Y168372D01*
X145126Y168385D01*
X145199Y168394D01*
X145274Y168400D01*
X145348Y168402D01*
X145452Y168400D01*
X145556Y168394D01*
X145660Y168384D01*
X145763Y168371D01*
X145866Y168353D01*
X145968Y168331D01*
X146069Y168306D01*
X146169Y168277D01*
X146268Y168244D01*
X146365Y168207D01*
X146461Y168167D01*
X146556Y168123D01*
X146648Y168075D01*
X146739Y168025D01*
X146828Y167970D01*
X146915Y167913D01*
X146999Y167852D01*
X144614Y165649D02*
X144551Y165688D01*
X144491Y165730D01*
X144433Y165775D01*
X144376Y165823D01*
X144323Y165874D01*
X144272Y165927D01*
X144223Y165982D01*
X144178Y166040D01*
X144135Y166100D01*
X144095Y166162D01*
X144059Y166226D01*
X144025Y166292D01*
X143995Y166360D01*
X143968Y166428D01*
X143945Y166498D01*
X143925Y166569D01*
X143909Y166641D01*
X143896Y166714D01*
X143887Y166787D01*
X143882Y166860D01*
X143880Y166934D01*
X146633Y164551D02*
X146696Y164512D01*
X146756Y164470D01*
X146815Y164425D01*
X146871Y164377D01*
X146924Y164326D01*
X146975Y164273D01*
X147024Y164218D01*
X147069Y164160D01*
X147112Y164100D01*
X147152Y164038D01*
X147188Y163974D01*
X147222Y163908D01*
X147252Y163840D01*
X147279Y163772D01*
X147302Y163702D01*
X147322Y163631D01*
X147338Y163559D01*
X147351Y163486D01*
X147360Y163413D01*
X147365Y163340D01*
X147367Y163266D01*
X146632Y164550D02*
X144615Y165650D01*
D17*
X88900Y0D02*
X342900Y0D01*
X88900Y0D02*
X88900Y25400D01*
X342900Y25400D02*
X342900Y0D01*
X114300Y25400D02*
X88900Y25400D01*
X114300Y25400D02*
X342900Y25400D01*
X114300Y25400D02*
X114300Y0D01*
D12*
X83622Y7281D02*
X78486Y7281D01*
X83622Y7282D02*
X83696Y7280D01*
X83771Y7274D01*
X83844Y7265D01*
X83918Y7252D01*
X83990Y7235D01*
X84061Y7215D01*
X84132Y7191D01*
X84201Y7163D01*
X84269Y7132D01*
X84334Y7098D01*
X84399Y7060D01*
X84461Y7019D01*
X84521Y6975D01*
X84578Y6928D01*
X84633Y6878D01*
X84686Y6825D01*
X84736Y6770D01*
X84783Y6713D01*
X84827Y6653D01*
X84868Y6591D01*
X84906Y6526D01*
X84940Y6460D01*
X84971Y6393D01*
X84999Y6324D01*
X85023Y6253D01*
X85043Y6182D01*
X85060Y6109D01*
X85073Y6036D01*
X85082Y5962D01*
X85088Y5888D01*
X85090Y5814D01*
X85090Y5080D01*
X85090Y11547D02*
X78486Y11547D01*
X78486Y13381D01*
X78488Y13466D01*
X78494Y13550D01*
X78504Y13634D01*
X78517Y13718D01*
X78535Y13801D01*
X78556Y13883D01*
X78581Y13964D01*
X78610Y14044D01*
X78642Y14122D01*
X78678Y14198D01*
X78718Y14273D01*
X78761Y14346D01*
X78807Y14417D01*
X78856Y14486D01*
X78909Y14553D01*
X78965Y14617D01*
X79023Y14678D01*
X79084Y14736D01*
X79148Y14792D01*
X79215Y14845D01*
X79284Y14894D01*
X79355Y14940D01*
X79428Y14983D01*
X79503Y15023D01*
X79579Y15059D01*
X79657Y15091D01*
X79737Y15120D01*
X79818Y15145D01*
X79900Y15166D01*
X79983Y15184D01*
X80067Y15197D01*
X80151Y15207D01*
X80235Y15213D01*
X80320Y15215D01*
X80405Y15213D01*
X80489Y15207D01*
X80573Y15197D01*
X80657Y15184D01*
X80740Y15166D01*
X80822Y15145D01*
X80903Y15120D01*
X80983Y15091D01*
X81061Y15059D01*
X81137Y15023D01*
X81212Y14983D01*
X81285Y14940D01*
X81356Y14894D01*
X81425Y14845D01*
X81492Y14792D01*
X81556Y14736D01*
X81617Y14678D01*
X81675Y14617D01*
X81731Y14553D01*
X81784Y14486D01*
X81833Y14417D01*
X81879Y14346D01*
X81922Y14273D01*
X81962Y14198D01*
X81998Y14122D01*
X82030Y14044D01*
X82059Y13964D01*
X82084Y13883D01*
X82105Y13801D01*
X82123Y13718D01*
X82136Y13634D01*
X82146Y13550D01*
X82152Y13466D01*
X82154Y13381D01*
X82155Y13381D02*
X82155Y11547D01*
X79954Y18437D02*
X78486Y20271D01*
X85090Y20271D01*
X85090Y18437D02*
X85090Y22106D01*
D17*
X57150Y215900D02*
X311150Y215900D01*
X311150Y190500D01*
X57150Y190500D02*
X57150Y215900D01*
X285750Y190500D02*
X311150Y190500D01*
X285750Y190500D02*
X57150Y190500D01*
X285750Y190500D02*
X285750Y215900D01*
D12*
X51872Y197781D02*
X46736Y197781D01*
X51872Y197782D02*
X51946Y197780D01*
X52021Y197774D01*
X52094Y197765D01*
X52168Y197752D01*
X52240Y197735D01*
X52311Y197715D01*
X52382Y197691D01*
X52451Y197663D01*
X52519Y197632D01*
X52584Y197598D01*
X52649Y197560D01*
X52711Y197519D01*
X52771Y197475D01*
X52828Y197428D01*
X52883Y197378D01*
X52936Y197325D01*
X52986Y197270D01*
X53033Y197213D01*
X53077Y197153D01*
X53118Y197091D01*
X53156Y197026D01*
X53190Y196960D01*
X53221Y196893D01*
X53249Y196824D01*
X53273Y196753D01*
X53293Y196682D01*
X53310Y196609D01*
X53323Y196536D01*
X53332Y196462D01*
X53338Y196388D01*
X53340Y196314D01*
X53340Y195580D01*
X53340Y202047D02*
X46736Y202047D01*
X46736Y203881D01*
X46738Y203966D01*
X46744Y204050D01*
X46754Y204134D01*
X46767Y204218D01*
X46785Y204301D01*
X46806Y204383D01*
X46831Y204464D01*
X46860Y204544D01*
X46892Y204622D01*
X46928Y204698D01*
X46968Y204773D01*
X47011Y204846D01*
X47057Y204917D01*
X47106Y204986D01*
X47159Y205053D01*
X47215Y205117D01*
X47273Y205178D01*
X47334Y205236D01*
X47398Y205292D01*
X47465Y205345D01*
X47534Y205394D01*
X47605Y205440D01*
X47678Y205483D01*
X47753Y205523D01*
X47829Y205559D01*
X47907Y205591D01*
X47987Y205620D01*
X48068Y205645D01*
X48150Y205666D01*
X48233Y205684D01*
X48317Y205697D01*
X48401Y205707D01*
X48485Y205713D01*
X48570Y205715D01*
X48655Y205713D01*
X48739Y205707D01*
X48823Y205697D01*
X48907Y205684D01*
X48990Y205666D01*
X49072Y205645D01*
X49153Y205620D01*
X49233Y205591D01*
X49311Y205559D01*
X49387Y205523D01*
X49462Y205483D01*
X49535Y205440D01*
X49606Y205394D01*
X49675Y205345D01*
X49742Y205292D01*
X49806Y205236D01*
X49867Y205178D01*
X49925Y205117D01*
X49981Y205053D01*
X50034Y204986D01*
X50083Y204917D01*
X50129Y204846D01*
X50172Y204773D01*
X50212Y204698D01*
X50248Y204622D01*
X50280Y204544D01*
X50309Y204464D01*
X50334Y204383D01*
X50355Y204301D01*
X50373Y204218D01*
X50386Y204134D01*
X50396Y204050D01*
X50402Y203966D01*
X50404Y203881D01*
X50405Y203881D02*
X50405Y202047D01*
X46736Y210955D02*
X46738Y211034D01*
X46743Y211112D01*
X46753Y211190D01*
X46766Y211267D01*
X46783Y211344D01*
X46803Y211420D01*
X46827Y211495D01*
X46854Y211569D01*
X46885Y211641D01*
X46920Y211712D01*
X46957Y211781D01*
X46998Y211848D01*
X47042Y211913D01*
X47089Y211976D01*
X47139Y212036D01*
X47192Y212094D01*
X47248Y212150D01*
X47306Y212203D01*
X47366Y212253D01*
X47429Y212300D01*
X47494Y212344D01*
X47562Y212385D01*
X47630Y212422D01*
X47701Y212457D01*
X47773Y212488D01*
X47847Y212515D01*
X47922Y212539D01*
X47998Y212559D01*
X48075Y212576D01*
X48152Y212589D01*
X48230Y212599D01*
X48308Y212604D01*
X48387Y212606D01*
X46736Y210955D02*
X46738Y210866D01*
X46743Y210777D01*
X46753Y210689D01*
X46766Y210601D01*
X46782Y210514D01*
X46803Y210427D01*
X46827Y210342D01*
X46854Y210257D01*
X46885Y210174D01*
X46920Y210092D01*
X46958Y210011D01*
X46999Y209932D01*
X47043Y209856D01*
X47091Y209780D01*
X47142Y209707D01*
X47195Y209637D01*
X47252Y209568D01*
X47312Y209502D01*
X47374Y209439D01*
X47439Y209378D01*
X47506Y209320D01*
X47576Y209265D01*
X47648Y209212D01*
X47722Y209163D01*
X47798Y209117D01*
X47876Y209075D01*
X47956Y209035D01*
X48037Y208999D01*
X48120Y208966D01*
X48204Y208937D01*
X49671Y212055D02*
X49615Y212111D01*
X49556Y212165D01*
X49495Y212216D01*
X49431Y212265D01*
X49366Y212310D01*
X49298Y212353D01*
X49229Y212392D01*
X49158Y212429D01*
X49085Y212462D01*
X49011Y212491D01*
X48936Y212518D01*
X48860Y212541D01*
X48782Y212560D01*
X48704Y212576D01*
X48626Y212589D01*
X48546Y212598D01*
X48467Y212603D01*
X48387Y212605D01*
X49671Y212055D02*
X53340Y208937D01*
X53340Y212606D01*
D18*
X393700Y60960D02*
X393700Y58420D01*
X393700Y5080D02*
X393700Y2540D01*
D12*
X364490Y31750D02*
X364499Y32467D01*
X364525Y33183D01*
X364569Y33899D01*
X364631Y34613D01*
X364710Y35326D01*
X364806Y36036D01*
X364920Y36744D01*
X365051Y37449D01*
X365200Y38150D01*
X365365Y38847D01*
X365548Y39541D01*
X365748Y40229D01*
X365964Y40913D01*
X366197Y41591D01*
X366447Y42263D01*
X366713Y42928D01*
X366996Y43587D01*
X367294Y44239D01*
X367609Y44883D01*
X367939Y45519D01*
X368285Y46148D01*
X368646Y46767D01*
X369022Y47377D01*
X369413Y47978D01*
X369818Y48569D01*
X370238Y49150D01*
X370672Y49721D01*
X371120Y50281D01*
X371582Y50829D01*
X372057Y51366D01*
X372545Y51891D01*
X373045Y52405D01*
X373559Y52905D01*
X374084Y53393D01*
X374621Y53868D01*
X375169Y54330D01*
X375729Y54778D01*
X376300Y55212D01*
X376881Y55632D01*
X377472Y56037D01*
X378073Y56428D01*
X378683Y56804D01*
X379302Y57165D01*
X379931Y57511D01*
X380567Y57841D01*
X381211Y58156D01*
X381863Y58454D01*
X382522Y58737D01*
X383187Y59003D01*
X383859Y59253D01*
X384537Y59486D01*
X385221Y59702D01*
X385909Y59902D01*
X386603Y60085D01*
X387300Y60250D01*
X388001Y60399D01*
X388706Y60530D01*
X389414Y60644D01*
X390124Y60740D01*
X390837Y60819D01*
X391551Y60881D01*
X392267Y60925D01*
X392983Y60951D01*
X393700Y60960D01*
X394417Y60951D01*
X395133Y60925D01*
X395849Y60881D01*
X396563Y60819D01*
X397276Y60740D01*
X397986Y60644D01*
X398694Y60530D01*
X399399Y60399D01*
X400100Y60250D01*
X400797Y60085D01*
X401491Y59902D01*
X402179Y59702D01*
X402863Y59486D01*
X403541Y59253D01*
X404213Y59003D01*
X404878Y58737D01*
X405537Y58454D01*
X406189Y58156D01*
X406833Y57841D01*
X407469Y57511D01*
X408098Y57165D01*
X408717Y56804D01*
X409327Y56428D01*
X409928Y56037D01*
X410519Y55632D01*
X411100Y55212D01*
X411671Y54778D01*
X412231Y54330D01*
X412779Y53868D01*
X413316Y53393D01*
X413841Y52905D01*
X414355Y52405D01*
X414855Y51891D01*
X415343Y51366D01*
X415818Y50829D01*
X416280Y50281D01*
X416728Y49721D01*
X417162Y49150D01*
X417582Y48569D01*
X417987Y47978D01*
X418378Y47377D01*
X418754Y46767D01*
X419115Y46148D01*
X419461Y45519D01*
X419791Y44883D01*
X420106Y44239D01*
X420404Y43587D01*
X420687Y42928D01*
X420953Y42263D01*
X421203Y41591D01*
X421436Y40913D01*
X421652Y40229D01*
X421852Y39541D01*
X422035Y38847D01*
X422200Y38150D01*
X422349Y37449D01*
X422480Y36744D01*
X422594Y36036D01*
X422690Y35326D01*
X422769Y34613D01*
X422831Y33899D01*
X422875Y33183D01*
X422901Y32467D01*
X422910Y31750D01*
X422901Y31033D01*
X422875Y30317D01*
X422831Y29601D01*
X422769Y28887D01*
X422690Y28174D01*
X422594Y27464D01*
X422480Y26756D01*
X422349Y26051D01*
X422200Y25350D01*
X422035Y24653D01*
X421852Y23959D01*
X421652Y23271D01*
X421436Y22587D01*
X421203Y21909D01*
X420953Y21237D01*
X420687Y20572D01*
X420404Y19913D01*
X420106Y19261D01*
X419791Y18617D01*
X419461Y17981D01*
X419115Y17352D01*
X418754Y16733D01*
X418378Y16123D01*
X417987Y15522D01*
X417582Y14931D01*
X417162Y14350D01*
X416728Y13779D01*
X416280Y13219D01*
X415818Y12671D01*
X415343Y12134D01*
X414855Y11609D01*
X414355Y11095D01*
X413841Y10595D01*
X413316Y10107D01*
X412779Y9632D01*
X412231Y9170D01*
X411671Y8722D01*
X411100Y8288D01*
X410519Y7868D01*
X409928Y7463D01*
X409327Y7072D01*
X408717Y6696D01*
X408098Y6335D01*
X407469Y5989D01*
X406833Y5659D01*
X406189Y5344D01*
X405537Y5046D01*
X404878Y4763D01*
X404213Y4497D01*
X403541Y4247D01*
X402863Y4014D01*
X402179Y3798D01*
X401491Y3598D01*
X400797Y3415D01*
X400100Y3250D01*
X399399Y3101D01*
X398694Y2970D01*
X397986Y2856D01*
X397276Y2760D01*
X396563Y2681D01*
X395849Y2619D01*
X395133Y2575D01*
X394417Y2549D01*
X393700Y2540D01*
X392983Y2549D01*
X392267Y2575D01*
X391551Y2619D01*
X390837Y2681D01*
X390124Y2760D01*
X389414Y2856D01*
X388706Y2970D01*
X388001Y3101D01*
X387300Y3250D01*
X386603Y3415D01*
X385909Y3598D01*
X385221Y3798D01*
X384537Y4014D01*
X383859Y4247D01*
X383187Y4497D01*
X382522Y4763D01*
X381863Y5046D01*
X381211Y5344D01*
X380567Y5659D01*
X379931Y5989D01*
X379302Y6335D01*
X378683Y6696D01*
X378073Y7072D01*
X377472Y7463D01*
X376881Y7868D01*
X376300Y8288D01*
X375729Y8722D01*
X375169Y9170D01*
X374621Y9632D01*
X374084Y10107D01*
X373559Y10595D01*
X373045Y11095D01*
X372545Y11609D01*
X372057Y12134D01*
X371582Y12671D01*
X371120Y13219D01*
X370672Y13779D01*
X370238Y14350D01*
X369818Y14931D01*
X369413Y15522D01*
X369022Y16123D01*
X368646Y16733D01*
X368285Y17352D01*
X367939Y17981D01*
X367609Y18617D01*
X367294Y19261D01*
X366996Y19913D01*
X366713Y20572D01*
X366447Y21237D01*
X366197Y21909D01*
X365964Y22587D01*
X365748Y23271D01*
X365548Y23959D01*
X365365Y24653D01*
X365200Y25350D01*
X365051Y26051D01*
X364920Y26756D01*
X364806Y27464D01*
X364710Y28174D01*
X364631Y28887D01*
X364569Y29601D01*
X364525Y30317D01*
X364499Y31033D01*
X364490Y31750D01*
D19*
X378700Y31750D02*
X378705Y32118D01*
X378718Y32486D01*
X378741Y32853D01*
X378772Y33220D01*
X378813Y33586D01*
X378862Y33951D01*
X378921Y34314D01*
X378988Y34676D01*
X379064Y35037D01*
X379150Y35395D01*
X379243Y35751D01*
X379346Y36104D01*
X379457Y36455D01*
X379577Y36803D01*
X379705Y37148D01*
X379842Y37490D01*
X379987Y37829D01*
X380140Y38163D01*
X380302Y38494D01*
X380471Y38821D01*
X380649Y39143D01*
X380834Y39462D01*
X381027Y39775D01*
X381228Y40084D01*
X381436Y40387D01*
X381652Y40685D01*
X381875Y40978D01*
X382105Y41266D01*
X382342Y41548D01*
X382586Y41823D01*
X382836Y42093D01*
X383093Y42357D01*
X383357Y42614D01*
X383627Y42864D01*
X383902Y43108D01*
X384184Y43345D01*
X384472Y43575D01*
X384765Y43798D01*
X385063Y44014D01*
X385366Y44222D01*
X385675Y44423D01*
X385988Y44616D01*
X386307Y44801D01*
X386629Y44979D01*
X386956Y45148D01*
X387287Y45310D01*
X387621Y45463D01*
X387960Y45608D01*
X388302Y45745D01*
X388647Y45873D01*
X388995Y45993D01*
X389346Y46104D01*
X389699Y46207D01*
X390055Y46300D01*
X390413Y46386D01*
X390774Y46462D01*
X391136Y46529D01*
X391499Y46588D01*
X391864Y46637D01*
X392230Y46678D01*
X392597Y46709D01*
X392964Y46732D01*
X393332Y46745D01*
X393700Y46750D01*
X394068Y46745D01*
X394436Y46732D01*
X394803Y46709D01*
X395170Y46678D01*
X395536Y46637D01*
X395901Y46588D01*
X396264Y46529D01*
X396626Y46462D01*
X396987Y46386D01*
X397345Y46300D01*
X397701Y46207D01*
X398054Y46104D01*
X398405Y45993D01*
X398753Y45873D01*
X399098Y45745D01*
X399440Y45608D01*
X399779Y45463D01*
X400113Y45310D01*
X400444Y45148D01*
X400771Y44979D01*
X401093Y44801D01*
X401412Y44616D01*
X401725Y44423D01*
X402034Y44222D01*
X402337Y44014D01*
X402635Y43798D01*
X402928Y43575D01*
X403216Y43345D01*
X403498Y43108D01*
X403773Y42864D01*
X404043Y42614D01*
X404307Y42357D01*
X404564Y42093D01*
X404814Y41823D01*
X405058Y41548D01*
X405295Y41266D01*
X405525Y40978D01*
X405748Y40685D01*
X405964Y40387D01*
X406172Y40084D01*
X406373Y39775D01*
X406566Y39462D01*
X406751Y39143D01*
X406929Y38821D01*
X407098Y38494D01*
X407260Y38163D01*
X407413Y37829D01*
X407558Y37490D01*
X407695Y37148D01*
X407823Y36803D01*
X407943Y36455D01*
X408054Y36104D01*
X408157Y35751D01*
X408250Y35395D01*
X408336Y35037D01*
X408412Y34676D01*
X408479Y34314D01*
X408538Y33951D01*
X408587Y33586D01*
X408628Y33220D01*
X408659Y32853D01*
X408682Y32486D01*
X408695Y32118D01*
X408700Y31750D01*
X408695Y31382D01*
X408682Y31014D01*
X408659Y30647D01*
X408628Y30280D01*
X408587Y29914D01*
X408538Y29549D01*
X408479Y29186D01*
X408412Y28824D01*
X408336Y28463D01*
X408250Y28105D01*
X408157Y27749D01*
X408054Y27396D01*
X407943Y27045D01*
X407823Y26697D01*
X407695Y26352D01*
X407558Y26010D01*
X407413Y25671D01*
X407260Y25337D01*
X407098Y25006D01*
X406929Y24679D01*
X406751Y24357D01*
X406566Y24038D01*
X406373Y23725D01*
X406172Y23416D01*
X405964Y23113D01*
X405748Y22815D01*
X405525Y22522D01*
X405295Y22234D01*
X405058Y21952D01*
X404814Y21677D01*
X404564Y21407D01*
X404307Y21143D01*
X404043Y20886D01*
X403773Y20636D01*
X403498Y20392D01*
X403216Y20155D01*
X402928Y19925D01*
X402635Y19702D01*
X402337Y19486D01*
X402034Y19278D01*
X401725Y19077D01*
X401412Y18884D01*
X401093Y18699D01*
X400771Y18521D01*
X400444Y18352D01*
X400113Y18190D01*
X399779Y18037D01*
X399440Y17892D01*
X399098Y17755D01*
X398753Y17627D01*
X398405Y17507D01*
X398054Y17396D01*
X397701Y17293D01*
X397345Y17200D01*
X396987Y17114D01*
X396626Y17038D01*
X396264Y16971D01*
X395901Y16912D01*
X395536Y16863D01*
X395170Y16822D01*
X394803Y16791D01*
X394436Y16768D01*
X394068Y16755D01*
X393700Y16750D01*
X393332Y16755D01*
X392964Y16768D01*
X392597Y16791D01*
X392230Y16822D01*
X391864Y16863D01*
X391499Y16912D01*
X391136Y16971D01*
X390774Y17038D01*
X390413Y17114D01*
X390055Y17200D01*
X389699Y17293D01*
X389346Y17396D01*
X388995Y17507D01*
X388647Y17627D01*
X388302Y17755D01*
X387960Y17892D01*
X387621Y18037D01*
X387287Y18190D01*
X386956Y18352D01*
X386629Y18521D01*
X386307Y18699D01*
X385988Y18884D01*
X385675Y19077D01*
X385366Y19278D01*
X385063Y19486D01*
X384765Y19702D01*
X384472Y19925D01*
X384184Y20155D01*
X383902Y20392D01*
X383627Y20636D01*
X383357Y20886D01*
X383093Y21143D01*
X382836Y21407D01*
X382586Y21677D01*
X382342Y21952D01*
X382105Y22234D01*
X381875Y22522D01*
X381652Y22815D01*
X381436Y23113D01*
X381228Y23416D01*
X381027Y23725D01*
X380834Y24038D01*
X380649Y24357D01*
X380471Y24679D01*
X380302Y25006D01*
X380140Y25337D01*
X379987Y25671D01*
X379842Y26010D01*
X379705Y26352D01*
X379577Y26697D01*
X379457Y27045D01*
X379346Y27396D01*
X379243Y27749D01*
X379150Y28105D01*
X379064Y28463D01*
X378988Y28824D01*
X378921Y29186D01*
X378862Y29549D01*
X378813Y29914D01*
X378772Y30280D01*
X378741Y30647D01*
X378718Y31014D01*
X378705Y31382D01*
X378700Y31750D01*
M02*
