G04 EAGLE Gerber RS-274X export*
G75*
%MOMM*%
%FSLAX34Y34*%
%LPD*%
%INSolder stop mask CMP*%
%IPPOS*%
%AMOC8*
5,1,8,0,0,1.08239X$1,22.5*%
G01*
%ADD10R,4.754000X1.554000*%
%ADD11R,4.154000X2.054000*%
%ADD12C,2.235200*%
%ADD13R,1.254000X1.354000*%
%ADD14R,2.954000X1.854000*%
%ADD15R,1.654000X2.354000*%
%ADD16R,1.854000X5.954000*%
%ADD17R,2.454000X0.854000*%
%ADD18R,1.354000X1.254000*%
%ADD19R,1.854000X2.057000*%
%ADD20R,2.054000X3.454000*%
%ADD21R,1.054000X1.054000*%
%ADD22R,0.854000X1.804000*%
%ADD23R,1.454000X2.054000*%
%ADD24R,1.778000X1.778000*%
%ADD25P,1.924489X8X112.500000*%
%ADD26P,1.924489X8X292.500000*%
%ADD27C,5.588000*%


D10*
X363350Y133350D03*
X363350Y158350D03*
X363350Y108350D03*
D11*
X431350Y190350D03*
X431350Y76350D03*
D12*
X422656Y133350D02*
X402844Y133350D01*
X402844Y158750D02*
X422656Y158750D01*
X422656Y107950D02*
X402844Y107950D01*
D13*
X31750Y67700D03*
X31750Y84700D03*
D14*
X69850Y144750D03*
X69850Y172750D03*
X107950Y144750D03*
X107950Y172750D03*
X311150Y71150D03*
X311150Y43150D03*
X342900Y71150D03*
X342900Y43150D03*
D15*
X66900Y114300D03*
X110900Y114300D03*
D16*
X147950Y57150D03*
X194950Y57150D03*
D12*
X35306Y139700D02*
X15494Y139700D01*
X15494Y114300D02*
X35306Y114300D01*
D17*
X197450Y114300D03*
X145450Y114300D03*
X197450Y101600D03*
X197450Y127000D03*
X197450Y139700D03*
X145450Y101600D03*
X145450Y127000D03*
X145450Y139700D03*
X280000Y114300D03*
X228000Y114300D03*
X280000Y101600D03*
X280000Y127000D03*
X280000Y139700D03*
X228000Y101600D03*
X228000Y127000D03*
X228000Y139700D03*
D18*
X50800Y67700D03*
X50800Y84700D03*
D19*
X74680Y76200D03*
X103120Y76200D03*
D20*
X282000Y171450D03*
X226000Y171450D03*
X226000Y57150D03*
X282000Y57150D03*
D21*
X107950Y51950D03*
X107950Y36950D03*
X127000Y51950D03*
X127000Y36950D03*
X325000Y120650D03*
X310000Y120650D03*
X31750Y36950D03*
X31750Y51950D03*
D18*
X88900Y52950D03*
X88900Y35950D03*
X127000Y67700D03*
X127000Y84700D03*
D13*
X309000Y146050D03*
X326000Y146050D03*
D18*
X12700Y52950D03*
X12700Y35950D03*
D22*
X154150Y158750D03*
X164150Y158750D03*
X174150Y158750D03*
X184150Y158750D03*
D23*
X197150Y181000D03*
X141470Y181000D03*
D24*
X101600Y12700D03*
D25*
X127000Y12700D03*
X152400Y12700D03*
X177800Y12700D03*
X203200Y12700D03*
X228600Y12700D03*
X254000Y12700D03*
X279400Y12700D03*
X304800Y12700D03*
X330200Y12700D03*
D24*
X298450Y203200D03*
D26*
X273050Y203200D03*
X247650Y203200D03*
X222250Y203200D03*
X196850Y203200D03*
X171450Y203200D03*
X146050Y203200D03*
X120650Y203200D03*
X95250Y203200D03*
X69850Y203200D03*
D27*
X393700Y31750D03*
M02*
